<svg id="Layer_1" data-name="Layer 1" xmlns="http://www.w3.org/2000/svg" viewBox="0 0 512 397.74"><defs><style>.cls-1{fill:#828282;}.cls-2{fill:#222;}.cls-3{fill:#db4436;}</style></defs><title>29_07_2016_AIS_Logo</title><path className="cls-1" d="M125.5,410.45H133v-7.26h-22v-3H144v3h-7.16v30.88H133V413.85H126.4a7.84,7.84,0,0,0-5.53,1.76,6.12,6.12,0,0,0-1.9,4.71q0,5.49,5.43,12.75l-3.34,1.3a33,33,0,0,1-4.33-7.69,19.58,19.58,0,0,1-1.55-7.26,8.59,8.59,0,0,1,2.65-6.48Q120.47,410.46,125.5,410.45Z" transform="translate(0 -50.86)"/><path className="cls-1" d="M136.72,401.1h-4.85L119.2,388.93l2.84-2.39Z" transform="translate(0 -50.86)"/><path className="cls-1" d="M174,434.07V413.82H162.28a11.12,11.12,0,0,1,3.37,3.9,10.32,10.32,0,0,1,1.19,4.8,8,8,0,0,1-2.28,5.82,8.42,8.42,0,0,1-6.34,2.35,12.33,12.33,0,0,1-7.63-2.74,27.43,27.43,0,0,1-6.81-8.55l2.17-2.73a29.65,29.65,0,0,0,6.06,8,9.18,9.18,0,0,0,5.92,2.44,5.68,5.68,0,0,0,4-1.27,4.88,4.88,0,0,0,1.4-3.8,7.33,7.33,0,0,0-2.27-5,12.91,12.91,0,0,0-6-3.53v-3h19v-7.26H141.18v-3h44v3H178v30.88H174Z" transform="translate(0 -50.86)"/><path className="cls-1" d="M185,413.41a1.75,1.75,0,0,1,.48-1.27,1.83,1.83,0,0,1,1.38-.49,2.19,2.19,0,0,1,1.7,1.06l3.13,4.37q4.8-2,4.8-7.82v-6.07h-13.6v-3h25.56v3h-8v6.68a12.24,12.24,0,0,1-1.54,6.34,20.08,20.08,0,0,0,8.14,1.67,18.4,18.4,0,0,0,6.31-1.11l0.9,3.42a20.42,20.42,0,0,1-6.73,1.14,25.77,25.77,0,0,1-10.87-2.52,13,13,0,0,1-2.76,1.59l8.72,12-2.89,2L186,415.54A4.14,4.14,0,0,1,185,413.41Z" transform="translate(0 -50.86)"/><path className="cls-1" d="M227.72,434.07v-8.64a11.54,11.54,0,0,1-6.84,1.93,11,11,0,0,1-7.89-2.88,9.5,9.5,0,0,1-3-7.2,7.75,7.75,0,0,1,2.62-6,10.12,10.12,0,0,1,7.05-2.37,24.47,24.47,0,0,1,8.08,1.27v-7h-21.6v-3H238.8v3h-7.16v30.88h-3.92Zm-7.29-10a10.29,10.29,0,0,0,7.29-3v-7.29a21,21,0,0,0-7.26-1.48,7.44,7.44,0,0,0-5.09,1.59,5.27,5.27,0,0,0-1.8,4.15,5.65,5.65,0,0,0,1.88,4.31A7,7,0,0,0,220.43,424Z" transform="translate(0 -50.86)"/><path className="cls-1" d="M242.84,434.07V403.19h-6.26v-3h5.81a19.76,19.76,0,0,0-4.55-6.88,8.11,8.11,0,0,0-5.53-2.35,3.83,3.83,0,0,0-2.89,1,3.87,3.87,0,0,0-1,2.8,9.81,9.81,0,0,0,2.41,5.94H226.7a13.37,13.37,0,0,1-2-6.73,6.49,6.49,0,0,1,1.9-4.72,6.92,6.92,0,0,1,5.18-1.94,12.59,12.59,0,0,1,8.5,3.33,24.13,24.13,0,0,1,6.24,9.5h7.37v3h-7.16v30.88h-3.92Z" transform="translate(0 -50.86)"/><path className="cls-1" d="M287.87,434.07V416.5H275.25v5.65a2,2,0,0,1-.42,1.35,1.44,1.44,0,0,1-1.13.48,2.35,2.35,0,0,1-1.55-.85,10.59,10.59,0,0,1-1.84-3.39,12.48,12.48,0,0,1-1-4.43q0-2.17,2.39-2.17h16.17v-9.94H265.17v-3h33.77v3h-7.16v30.88h-3.92Z" transform="translate(0 -50.86)"/><path className="cls-1" d="M303,434.07V403.19h-6.26v-3h17.34v3h-7.16v30.88H303Z" transform="translate(0 -50.86)"/><path className="cls-1" d="M333.45,434.07v-8.64a11.53,11.53,0,0,1-6.84,1.93,11,11,0,0,1-7.89-2.88,9.5,9.5,0,0,1-3-7.2,7.75,7.75,0,0,1,2.62-6,10.12,10.12,0,0,1,7.05-2.37,24.47,24.47,0,0,1,8.08,1.27v-7h-21.6v-3h32.69v3h-7.16v30.88h-3.92Zm-7.29-10a10.28,10.28,0,0,0,7.29-3v-7.29a21,21,0,0,0-7.26-1.48,7.44,7.44,0,0,0-5.09,1.59,5.27,5.27,0,0,0-1.8,4.15,5.65,5.65,0,0,0,1.88,4.31A7,7,0,0,0,326.16,424Z" transform="translate(0 -50.86)"/><path className="cls-1" d="M368.61,434.07V426.2a12.2,12.2,0,0,1-7.75,2.6,10.08,10.08,0,0,1-7.16-2.53A8.22,8.22,0,0,1,351,420a7,7,0,0,1,1.67-4.64,13.12,13.12,0,0,1-6.26-3.31,8.74,8.74,0,0,1-2.65-6.42,6.93,6.93,0,0,1,7.26-7.18,6.92,6.92,0,0,1,5,1.71,5.7,5.7,0,0,1,1.76,4.27,6,6,0,0,1-2,4.48,9,9,0,0,1-5.26,2.32A15.51,15.51,0,0,0,356,413a14.08,14.08,0,0,1,5.33-.93h0.85l0.48,3.21h-0.32a9.5,9.5,0,0,0-5.74,1.46,4.41,4.41,0,0,0-1.95,3.66,4.61,4.61,0,0,0,1.55,3.59,5.9,5.9,0,0,0,4.1,1.39,11.1,11.1,0,0,0,8.32-3.6V403.19h-4v-3h15.06v3h-7.16v30.88h-3.92Zm-20.25-31.2a4.21,4.21,0,0,0-1.25,3,5.57,5.57,0,0,0,.66,2.8,9.45,9.45,0,0,0,5-1.27,3.53,3.53,0,0,0,1.7-3,2.7,2.7,0,0,0-.78-2,3.38,3.38,0,0,0-2.45-.77A3.88,3.88,0,0,0,348.35,402.87Z" transform="translate(0 -50.86)"/><path className="cls-1" d="M383.72,434.07V403.19h-6.26v-3h5.81a19.76,19.76,0,0,0-4.55-6.88,8.11,8.11,0,0,0-5.53-2.35,3.83,3.83,0,0,0-2.89,1,3.87,3.87,0,0,0-1,2.8,9.82,9.82,0,0,0,2.41,5.94h-4.14a13.37,13.37,0,0,1-2-6.73,6.49,6.49,0,0,1,1.89-4.72,6.93,6.93,0,0,1,5.18-1.94,12.59,12.59,0,0,1,8.5,3.33,24.13,24.13,0,0,1,6.24,9.5h7.37v3h-7.16v30.88h-3.92Z" transform="translate(0 -50.86)"/><path className="cls-1" d="M407.14,410.45h7.45v-7.26h-22v-3h33.08v3h-7.16v30.88h-3.92V413.85H408a7.83,7.83,0,0,0-5.53,1.76,6.12,6.12,0,0,0-1.9,4.71q0,5.49,5.43,12.75l-3.34,1.3a33,33,0,0,1-4.33-7.69,19.59,19.59,0,0,1-1.55-7.26,8.59,8.59,0,0,1,2.65-6.48Q402.1,410.46,407.14,410.45Z" transform="translate(0 -50.86)"/><path className="cls-1" d="M446.85,434.07v-14H434.61v2.84q0,1.72-1.41,1.72a3.75,3.75,0,0,1-1.75-.56,9.35,9.35,0,0,1-2.05-1.6,11.4,11.4,0,0,1-1.76-2.25,4.21,4.21,0,0,1-.72-2q0-1.51,1.78-1.51h2V403.19h-7.24v-3h34.49v3h-7.16v30.88h-3.92Zm0-30.88H434.61v13.47h12.25V403.19Z" transform="translate(0 -50.86)"/><path className="cls-1" d="M457.84,413.41a1.75,1.75,0,0,1,.48-1.27,1.84,1.84,0,0,1,1.38-.49,2.19,2.19,0,0,1,1.7,1.06l3.13,4.37q4.8-2,4.8-7.82v-6.07h-13.6v-3h25.55v3h-8v6.68a12.23,12.23,0,0,1-1.54,6.34,20.08,20.08,0,0,0,8.14,1.67,18.4,18.4,0,0,0,6.31-1.11l0.9,3.42a20.42,20.42,0,0,1-6.73,1.14,25.77,25.77,0,0,1-10.87-2.52,13.06,13.06,0,0,1-2.76,1.59l8.72,12-2.89,2-13.71-18.87A4.14,4.14,0,0,1,457.84,413.41Z" transform="translate(0 -50.86)"/><path className="cls-1" d="M493.47,410.45h7.45v-7.26h-22v-3H512v3h-7.16v30.88h-3.92V413.85h-6.55a7.83,7.83,0,0,0-5.53,1.76,6.12,6.12,0,0,0-1.9,4.71q0,5.49,5.43,12.75l-3.34,1.3a33,33,0,0,1-4.33-7.69,19.59,19.59,0,0,1-1.55-7.26,8.59,8.59,0,0,1,2.65-6.48Q488.43,410.46,493.47,410.45Z" transform="translate(0 -50.86)"/><path className="cls-1" d="M502.2,433.52a8.29,8.29,0,0,1,5.88,2.15,7.18,7.18,0,0,1,2.31,5.5,6.73,6.73,0,0,1-2.4,5.4,9.14,9.14,0,0,1-6.14,2,22,22,0,0,1-7.74-1.5,31.87,31.87,0,0,1-7.66-4.17l1.33-3.1a33.79,33.79,0,0,0,7.06,4,16.61,16.61,0,0,0,6.14,1.38,6.88,6.88,0,0,0,4.29-1.21,3.71,3.71,0,0,0,1.56-3.06,3.81,3.81,0,0,0-1.26-3,4.84,4.84,0,0,0-3.35-1.13,8.94,8.94,0,0,0-6,2.65l-1.8-2.86A10.8,10.8,0,0,1,502.2,433.52Z" transform="translate(0 -50.86)"/><path className="cls-2" d="M215.65,175.89l67,179.22H241.75L228.2,315.2h-67l-14.06,39.91H107.46l67.77-179.22h40.41Zm2.26,109.94-22.59-65.76h-0.5l-23.34,65.76H217.9Z" transform="translate(0 -50.86)"/><path className="cls-2" d="M337.63,175.89V355.11H298.22V175.89h39.41Z" transform="translate(0 -50.86)"/><path className="cls-2" d="M402.39,310.93A28.43,28.43,0,0,0,411,321.1a37.38,37.38,0,0,0,12.67,5.77,59.89,59.89,0,0,0,15.06,1.88,78.1,78.1,0,0,0,11.3-.88,39.22,39.22,0,0,0,11.3-3.39,24.6,24.6,0,0,0,8.79-6.9,17.32,17.32,0,0,0,3.51-11.17,15.73,15.73,0,0,0-4.64-11.8,36.83,36.83,0,0,0-12.17-7.53,121.52,121.52,0,0,0-17.07-5.27q-9.54-2.26-19.33-5a170.68,170.68,0,0,1-19.58-6.15,67,67,0,0,1-17.07-9.41,44.31,44.31,0,0,1-12.17-14.43q-4.65-8.66-4.64-21,0-13.8,5.9-24a53.4,53.4,0,0,1,15.44-16.94,67.29,67.29,0,0,1,21.59-10,92,92,0,0,1,24.1-3.26,114.07,114.07,0,0,1,27,3.14,67.4,67.4,0,0,1,23,10.17,51.46,51.46,0,0,1,15.94,17.95q5.9,10.92,5.9,26.48H467.65a31.76,31.76,0,0,0-3.39-13.3,22.21,22.21,0,0,0-7.66-8.28,32.43,32.43,0,0,0-10.92-4.27,67.35,67.35,0,0,0-13.43-1.26,46.33,46.33,0,0,0-9.54,1,25.57,25.57,0,0,0-8.66,3.51,21.74,21.74,0,0,0-6.4,6.28,16.84,16.84,0,0,0-2.51,9.54,16.07,16.07,0,0,0,2,8.53q2,3.26,7.91,6a100.52,100.52,0,0,0,16.32,5.52q10.41,2.76,27.23,7,5,1,13.93,3.64a66.88,66.88,0,0,1,17.69,8.41,53.52,53.52,0,0,1,15.19,15.44q6.4,9.67,6.4,24.72a54.81,54.81,0,0,1-4.77,22.84,49.66,49.66,0,0,1-14.18,18.2,68.15,68.15,0,0,1-23.34,11.92q-13.93,4.27-32.25,4.27a113.34,113.34,0,0,1-28.74-3.64,72.22,72.22,0,0,1-24.6-11.42A56.32,56.32,0,0,1,367,324.24q-6.28-12-6-28.61h38.15Q399.13,304.66,402.39,310.93Z" transform="translate(0 -50.86)"/><path className="cls-3" d="M21.37,283.72a42.13,42.13,0,0,1-6-5.9,14.69,14.69,0,0,1-2.94-6.63c-0.3-1.46-.53-6.22-3.19-4.79-2.91,1.57-3.41,10.51-3,13.33,1.26,9.14,12,13.57,14.13,22.76a20.65,20.65,0,0,1,.39,7.36c-0.22,1.17-3.25,12-4.68,11.74A17.34,17.34,0,0,0,5.45,323C1.78,324.76,0,329.18,0,333a10.17,10.17,0,0,0,6.69,9.27,13,13,0,0,0,4.95.88,40.28,40.28,0,0,0,4.11-.33s7.71,12.46,21.84,12.94c0,0-7.11,13.38-7.9,15C17.26,396.54,33.2,405,49.91,434.54c0,0,3.76,2.16,2.88-5.26-1.56-7.41-9.62-18.24-9.45-25.8,0.35-15.27,6.55-24.08,14.25-36.19,7.3-11.48,27.48-29.61,26.81-43.29-0.25-5.11-.91-14.92-5.07-18.59-2.43-2.15-5-1-5.68,2.16,0,0-8.84,38.29-28.27,32.71-2-.57-13.34-5.72-14.23-7.49-1.88-3.78.19-7.46,2-10.81,3.91-7.33,4.79-16.33,1.45-24C31.76,291.56,26.39,287.88,21.37,283.72Z" transform="translate(0 -50.86)"/><path className="cls-3" d="M49.43,221.37c5.44,4.42,10.37,12.33,4.78,18.46-3.47,3.81-9.16,4.9-12.1,9.23s-3,11.5,1.63,14.77c6.06,4.26,14.79,4.09,21.72,1.88,7.55-2.41,12.55-7.07,16-14.06a54.3,54.3,0,0,0,3.07-11.58s0.91-8,6.91-4.1c4.3,2.76,8.46,9.91,9.48,15.21a19.16,19.16,0,0,1,.29,5.12A27,27,0,0,1,89.43,278c-4,2.84-18.85,10.82-24.44,25.83-1,2.78,0,7.59-3.21,9.19-4.69,2.37-7.91-6.75-8.31-10.24-0.75-6.52-1.94-14,10.87-23.82,0,0-39.83,11.85-43.88-20a29.48,29.48,0,0,1,.12-8.23A21.49,21.49,0,0,1,27,238.31a13.32,13.32,0,0,1,5-3.37c5.71-1.78,14.06-2.81,8.33-10.4-1.49-2-8.93-6-4.34-8.34,4.15-2.09,8.51,1.78,11.71,3.93C48.32,220.5,48.88,220.92,49.43,221.37Z" transform="translate(0 -50.86)"/><path className="cls-3" d="M97.1,188.57A34.65,34.65,0,0,0,103,177.82c0.67-2,1.85-4.87,4.18-5.33,1.67-.33,3.33,1.38,4.17,2.63,0,0,12.6,16.3-1.51,32a41.46,41.46,0,0,1-11.81,9c-4.18,2.12-8.88,3.17-12.49,6.31a15.42,15.42,0,0,0-4.13,6c-0.64,1.65-1,3.72-2.83,4.49s-3.5-.36-4.73-1.65c0,0-6.27-6.81-2.38-22.24,0,0-44.18,1.11-31.46-32.49,3-8,11.74-12.92,19.72-14.68a37.1,37.1,0,0,1,8.3-.94c4.21,0.06,9.5.63,13.26,2.72,1.49,0.83,3.13,2.87,2.94,4.73A2.85,2.85,0,0,1,81,171.07a12.7,12.7,0,0,1-2.53-.69,24.68,24.68,0,0,0-6.83-1.25,15.77,15.77,0,0,0-5.6,1.56,13.68,13.68,0,0,0-4.62,3.44c-3.87,4.38-5,11.78-1.14,16.64a16.17,16.17,0,0,0,4.41,3.87C77.26,202,90,197.61,97.1,188.57Z" transform="translate(0 -50.86)"/><path className="cls-3" d="M65.23,51.59A2.78,2.78,0,0,1,65,53.36a66.64,66.64,0,0,0-2.35,6.55c-0.34,1.23-.62,2.5-0.88,3.74C60,72,59.14,81.77,61.66,90c1.38,4.52,4.64,9.16,7.2,13.1,2.66,4.1,5.65,8,7.77,12.45,4.45,9.28,2.8,21.56-4.58,28.79C64.39,151.9,51.64,151.46,42,149c-2.91-.73-9-4.42-11.74-3.94-5.92,1-8.23,7.67-9.11,12.79-2.06,11.89.78,27,5.78,37.91,1.08,2.36,7.22,14.07,1.72,13.7-2.46-.16-5.57-2.65-7.12-4.44-2-2.33-4.3-4.21-6.38-6.42-15.33-16.34-15.68-41.07-4.23-59.4,3.36-5.39,1.49-5.08-1.38-10.29s-3.35-12.49,1.68-16.62a15.6,15.6,0,0,1,10.51-3.24,12.51,12.51,0,0,1,9.22,6.11,26.78,26.78,0,0,1,3.71,11c0.06,0.57-.17,5.11,0,5.22,0,0,19.46,11.57,23.89-3.06,1.34-4.43,0-9.36-2.34-13.21-3.59-6-7.82-11.17-9.78-18.09a37.16,37.16,0,0,1,.49-20.83,74.41,74.41,0,0,1,4.44-11.5c1.78-3.62,3.62-7.35,6.37-10.36a10.82,10.82,0,0,1,4.35-3.24A4.37,4.37,0,0,1,64.44,51,1,1,0,0,1,65.23,51.59Z" transform="translate(0 -50.86)"/><path className="cls-3" d="M62,161.77s-8.89.62-8.18-6.11c0,0-.52-4,5.23-5.39l-20.16-2.41s6.21,1.9,5.28,14.1a41.1,41.1,0,0,1-3.49,13.34Z" transform="translate(0 -50.86)"/></svg>