<svg xmlns="http://www.w3.org/2000/svg" viewBox="0 0 279.78 80.05"><defs><style>.cls-1{fill:none;stroke-width:5.19px;}.cls-1,.cls-2{stroke:#fff;stroke-miterlimit:10;}.cls-2{fill:#e6282c;stroke-width:5px;}.cls-3,.cls-4{fill:#fff;}.cls-3{fill-rule:evenodd;}</style></defs><g id="Layer_2" data-name="Layer 2"><g id="Layer_1-2" data-name="Layer 1"><rect className="cls-1" x="2.6" y="2.6" width="274.59" height="74.85"></rect><rect className="cls-2" x="2.6" y="2.6" width="274.59" height="74.85"></rect><path className="cls-3" d="M108.55,14.66h7.13V47.75h-7.13ZM235.64,47.87,219.5,14.05,203.73,45.77,192.14,30.5l12.58-16.4H196L185,28.68h-.1V14.1h-7.12V47.9h7.12V32.3h.1l11.63,15.57H210l2.28-4.66h13.55l2.08,4.65Zm-12.1-10.14-4.35-10.54-4.65,10.54ZM107,14.7,90.3,49,74,14.61h7.46l9.1,19.9L99.14,14.7ZM83.34,47.87,67.21,14.05,50.63,47.4,34.71,14.05,17.85,48H25.2l2.27-4.77H41l2.05,4.65H57.75L60,43.22H73.52l2.06,4.65ZM71.24,37.73,66.9,27.19,62.24,37.73Zm-32.49,0L34.4,27.19,29.74,37.73Zm197-22.93h10.92c3.33,0,5.94.85,7.87,2.6a9.09,9.09,0,0,1,2.9,7.09,12,12,0,0,1-1.33,5.29,9.33,9.33,0,0,1-4.9,4.31L262.13,47.9h-8.19L243.69,35.09h-.83V47.87h-7.12Zm7,5.74v8.63h1.57q5.66,0,5.65-4.57a3.5,3.5,0,0,0-1.47-3,6.7,6.7,0,0,0-4.09-1.09ZM145,14.62h7.48V27.93h12.36V14.62h7.48V47.9h-7.48V35.12H152.48V48H145Zm-24.52,32V38.82c3.43,3.58,13.12,4.61,13.68.15.25-2.11-2.31-3.32-5.09-4.89-3.16-1.8-6.07-4-7.16-5.61a8.45,8.45,0,0,1-1.5-4.93c0-2.86.47-5,2.62-6.79a12.91,12.91,0,0,1,8.48-2.66,16.68,16.68,0,0,1,3.66.4A22.13,22.13,0,0,1,139,15.72V23c-2.24-2.13-11.84-5.93-11.84-.43a3.66,3.66,0,0,0,.92,2.37c.61.76,3.65,2.14,5.89,3.57,3,1.92,4.91,3.52,5.74,4.79a9.54,9.54,0,0,1,1.21,5.08,8.55,8.55,0,0,1-3.43,7.18c-2.28,1.76-5.39,2.63-9.33,2.63a21.44,21.44,0,0,1-4.15-.39A14,14,0,0,1,120.48,46.64Z"></path><path className="cls-4" d="M92.23,58.64C92.1,56,89.9,55.16,88,55.16c-1.44,0-3.91.4-3.91,3,0,1.44,1,1.94,2,2.17L91,61.46c2.22.52,3.89,1.85,3.89,4.59,0,4.07-3.78,5.18-6.73,5.18-3.16,0-4.41-.94-5.17-1.64a5.27,5.27,0,0,1-1.76-4.35H83.4c0,3.1,2.53,4,4.73,4,1.68,0,4.5-.43,4.5-2.89,0-1.79-.84-2.37-3.66-3l-3.51-.8c-1.12-.26-3.65-1-3.65-4,0-2.68,1.72-5.31,5.89-5.31,6,0,6.6,3.59,6.71,5.48Z"></path><path className="cls-4" d="M113.47,58.79c-.65-3-3.16-3.58-4.81-3.58-3.11,0-5.62,2.3-5.62,6.83,0,4,1.45,7.15,5.7,7.15,1.51,0,4.11-.72,4.91-4.72h2.24c-1,6.47-6.21,6.76-7.52,6.76-3.88,0-7.72-2.52-7.72-9.13,0-5.28,3-8.94,8-8.94,4.43,0,6.72,2.75,7,5.63Z"></path><path className="cls-4" d="M133.59,53.61h2.32V70.79h-2.32v-8h-9v8h-2.31V53.61h2.31v7.1h9Z"></path><path className="cls-4" d="M150.63,71.23c-6.42,0-8.37-5.32-8.37-9s2-9,8.37-9,8.38,5.33,8.38,9S157,71.23,150.63,71.23Zm0-16c-3.74,0-6,3-6,7s2.25,7,6,7,6-2.94,6-7S154.36,55.21,150.63,55.21Z"></path><path className="cls-4" d="M172.83,71.23c-6.41,0-8.36-5.32-8.36-9s1.95-9,8.36-9,8.37,5.33,8.37,9S179.25,71.23,172.83,71.23Zm0-16c-3.72,0-6,3-6,7s2.26,7,6,7,6-2.94,6-7S176.57,55.21,172.83,55.21Z"></path><path className="cls-4" d="M189.87,68.73h8.7v2.06h-11V53.61h2.32Z"></path></g></g></svg>