<svg width="97px" height="49px" viewBox="0 0 97 49" version="1.1" xmlns="http://www.w3.org/2000/svg" xmlns:xlink="http://www.w3.org/1999/xlink">
    <!-- Generator: Sketch 45.1 (43504) - http://www.bohemiancoding.com/sketch -->
    <desc>Created with Sketch.</desc>
    <defs></defs>
    <g id="Page-1" stroke="none" stroke-width="1" fill="none" fill-rule="evenodd">
        <g id="1_2_1_ExecutiveTeam_DestinationPage" transform="translate(-60.000000, -57.000000)">
            <g id="Header">
                <g id="Logo-Cae" transform="translate(60.000000, 57.521320)">
                    <polygon id="Forme-avion" fill="#005EB8" points="0 26.7274273 67.5512547 14.4651641 51.6677533 25.3126569 66.2988262 25.3126569 77.4230993 0"></polygon>
                    <g id="CAE" transform="translate(45.446875, 30.774071)" fill="#1D1D1B">
                        <path d="M15.7629975,5.11140505 L14.6581524,5.11140505 C14.6094093,4.02651774 14.2032162,3.17213448 13.6142364,2.58276186 C13.2391848,2.20594985 12.5567805,1.39849556 9.93954342,1.39159424 C5.90604664,1.38193239 4.10390357,5.35433147 4.09713369,8.01133919 C4.0903638,10.2045783 5.18979293,15.441299 10.8575397,15.4702845 C12.4782499,15.4785661 14.3467378,14.9526856 15.6966526,14.1259076 L15.6980066,15.3115542 C14.0759424,16.2308098 11.595457,16.8381259 9.85018095,16.8381259 C7.22211206,16.8381259 4.69152949,16.1783598 2.85012109,14.6214223 C0.981633153,13.0644848 0,10.8533023 0,8.23632218 C0,2.78842116 5.17083726,-0.0328379519 9.65385432,0.00028837814 C11.6184746,0.0140910157 13.3827063,0.493042537 15.2796278,1.02030329 C15.5869805,1.10587964 15.6208299,1.12796386 15.7670594,1.18317441 L15.7629975,5.11140505 Z" id="Fill-2"></path>
                        <path d="M24.8952668,4.58661645 L22.4377989,10.4168505 L27.3567965,10.4168505 L24.8952668,4.58661645 Z M27.7656975,16.2898728 L27.7656975,15.6342475 C28.3668632,15.6466699 28.2788547,15.637008 28.8570028,15.631487 C29.2049748,15.6273462 29.4148412,15.2753789 29.1277981,14.5728247 L27.8713077,11.5721313 L21.9463054,11.5721313 C21.8244475,11.8785498 20.5300457,14.7702024 20.4433912,15.0007065 C20.276852,15.4437711 20.7074166,15.6218251 21.1095477,15.631487 C21.4561658,15.6383883 21.7418549,15.637008 22.1588797,15.6342475 L22.1588797,16.2898728 L16.9325294,16.2898728 L16.9325294,15.5873185 C17.4037133,15.5928396 17.5093235,15.5886988 18.0008171,15.5956001 C18.5451158,15.605262 18.6588498,15.1801407 19.0271315,14.354743 L20.567957,10.9413508 L23.5169184,4.31470449 C23.6888735,3.93789248 24.2047386,2.73568276 24.3523221,2.35887075 C24.475534,2.12284565 24.7693469,1.41477035 24.8668333,1.17874524 C24.9656736,0.942720142 25.2608405,0.212560618 25.3353092,1.77635684e-15 L26.6121093,1.77635684e-15 L33.0137114,14.4030522 C33.3819931,15.2505342 33.6162311,15.5914593 34.1957332,15.5969804 C34.3839359,15.5997409 34.9458363,15.5873185 35.3845248,15.5873185 L35.3845248,16.2898728 L27.7656975,16.2898728 Z" id="Fill-4"></path>
                        <path d="M42.4771582,7.45894531 C43.6727197,7.4672269 45.7158706,7.45204399 46.1369574,7.45894531 C46.7272913,7.4672269 47.2946075,7.1815123 47.2918996,6.43064882 C47.2891916,5.9668802 47.3040854,5.50863263 47.2905456,5.18151012 L48.199064,5.18151012 L48.199064,10.3574992 L47.266174,10.3574992 C47.2553422,9.83023844 47.2648201,9.68807127 47.266174,9.46446854 C47.2756519,8.58938133 46.8721668,8.49690365 46.1708068,8.47481943 L42.48799,8.48034049 L42.4744503,15.0572973 L49.0128041,15.0572973 C49.3309886,15.0572973 49.8075884,14.7218932 49.8075884,14.1311403 L49.8170663,12.3105724 L50.7012131,12.3105724 L50.6944432,16.1725504 L36.7362967,16.1725504 L36.7362967,15.6590923 C37.2304983,15.6604725 37.1912329,15.6466699 37.5297271,15.6508107 C38.1457866,15.6590923 38.7496602,15.0255512 38.7496602,14.176689 L38.7496602,2.04002982 C38.7483062,1.15804129 38.0929815,0.643202908 37.4891078,0.633541062 C37.1695693,0.628020007 36.9827205,0.611456842 36.5386161,0.632160798 L36.5386161,0 L50.2936661,0 L50.297728,3.73361345 L49.539501,3.73361345 C49.5300232,3.02691841 49.5340851,2.85024465 49.5354391,2.21256279 C49.5367931,1.55555725 48.9099018,1.10697153 48.2166657,1.10697153 L42.4825741,1.104211 L42.4771582,7.45894531 Z" id="Fill-6"></path>
                    </g>
                </g>
            </g>
        </g>
    </g>
</svg>