<?xml version="1.0" encoding="utf-8"?>
<!-- Generator: Adobe Illustrator 16.0.0, SVG Export Plug-In . SVG Version: 6.00 Build 0)  -->
<!DOCTYPE svg PUBLIC "-//W3C//DTD SVG 1.1//EN" "http://www.w3.org/Graphics/SVG/1.1/DTD/svg11.dtd">
<svg version="1.1" id="Layer_1" xmlns="http://www.w3.org/2000/svg" xmlns:xlink="http://www.w3.org/1999/xlink" x="0px" y="0px"
	 width="215.227px" height="42.52px" viewBox="0 0 215.227 42.52" enable-background="new 0 0 215.227 42.52" xml:space="preserve">
<g>
	<g>
		<path fill="#026937" d="M54.347,10.999h-3.03V9.784h7.335v1.215h-3.015v9.51h-1.29V10.999z"/>
		<path fill="#026937" d="M59.582,9.156h1.125v5.684c0.585-0.869,1.395-1.274,2.445-1.274c1.56,0,2.52,0.87,2.52,2.385v4.56h-1.17
			v-3.944c0-1.351-0.555-2.01-1.755-2.01c-0.675,0-1.26,0.255-1.635,0.72c-0.39,0.48-0.39,1.035-0.39,1.77v3.465h-1.14V9.156z"/>
		<path fill="#026937" d="M68.236,17.329c0,0.03,0,0.075,0,0.105c0,1.455,0.93,2.4,2.22,2.4c0.9,0,1.62-0.48,2.175-1.455l0.87,0.584
			c-0.675,1.215-1.725,1.83-3.105,1.83c-2.04,0-3.42-1.47-3.42-3.66c0-2.114,1.395-3.584,3.345-3.584
			c1.965,0,3.225,1.334,3.225,3.555c0,0.074,0,0.15,0,0.225H68.236z M70.276,14.555c-1.095,0-1.92,0.704-2.04,1.845h4.08
			C72.241,15.214,71.491,14.555,70.276,14.555z"/>
		<path fill="#026937" d="M79.082,9.784h1.275v10.725h-1.275V9.784z"/>
		<path fill="#026937" d="M82.456,13.805h1.125v1.034c0.585-0.869,1.395-1.274,2.445-1.274c1.56,0,2.52,0.87,2.52,2.385v4.56h-1.17
			v-3.944c0-1.351-0.555-2.01-1.755-2.01c-0.675,0-1.26,0.255-1.635,0.72c-0.39,0.48-0.39,1.035-0.39,1.77v3.465h-1.14V13.805z"/>
		<path fill="#026937" d="M89.386,14.749v-0.944h1.23v-2.7h1.17v2.7h1.23v0.944h-1.23v5.76h-1.17v-5.76H89.386z"/>
		<path fill="#026937" d="M94.621,17.329c0,0.03,0,0.075,0,0.105c0,1.455,0.93,2.4,2.22,2.4c0.9,0,1.62-0.48,2.175-1.455l0.87,0.584
			c-0.675,1.215-1.725,1.83-3.105,1.83c-2.04,0-3.42-1.47-3.42-3.66c0-2.114,1.395-3.584,3.345-3.584
			c1.965,0,3.225,1.334,3.225,3.555c0,0.074,0,0.15,0,0.225H94.621z M96.661,14.555c-1.095,0-1.92,0.704-2.04,1.845h4.08
			C98.626,15.214,97.876,14.555,96.661,14.555z"/>
		<path fill="#026937" d="M101.296,13.805h1.02V15.2c0.6-1.141,1.23-1.621,2.25-1.621c0.27,0,0.525,0.045,0.779,0.135l-0.39,1.035
			c-0.255-0.09-0.495-0.135-0.705-0.135c-1.215,0-1.815,0.87-1.815,2.625v3.27h-1.139V13.805z"/>
		<path fill="#026937" d="M106.171,13.805h1.125v1.034c0.584-0.869,1.395-1.274,2.444-1.274c1.56,0,2.521,0.87,2.521,2.385v4.56
			h-1.17v-3.944c0-1.351-0.556-2.01-1.756-2.01c-0.675,0-1.26,0.255-1.635,0.72c-0.39,0.48-0.39,1.035-0.39,1.77v3.465h-1.14V13.805
			z"/>
		<path fill="#026937" d="M120.39,20.509h-1.109v-1.215c-0.541,0.976-1.396,1.5-2.432,1.5c-1.918,0-3.208-1.425-3.208-3.615
			c0-2.249,1.274-3.614,3.15-3.614c1.125,0,1.949,0.511,2.459,1.5v-1.26h1.141V20.509z M117.045,14.704
			c-1.379,0-2.189,0.885-2.189,2.416c0,1.619,0.81,2.534,2.234,2.534c1.352,0,2.191-0.885,2.191-2.43
			C119.281,15.665,118.336,14.704,117.045,14.704z"/>
		<path fill="#026937" d="M121.26,14.749v-0.944h1.23v-2.7h1.17v2.7h1.23v0.944h-1.23v5.76h-1.17v-5.76H121.26z"/>
		<path fill="#026937" d="M126.449,9.74c0.467,0,0.84,0.391,0.84,0.855s-0.373,0.824-0.84,0.824c-0.465,0-0.84-0.359-0.84-0.84
			C125.609,10.115,125.984,9.74,126.449,9.74z M125.881,13.805h1.154v6.704h-1.154V13.805z"/>
		<path fill="#026937" d="M129.599,14.615c0.689-0.689,1.59-1.05,2.58-1.05s1.875,0.375,2.58,1.065
			c0.689,0.675,1.064,1.574,1.064,2.549c0,0.976-0.375,1.861-1.064,2.535c-0.705,0.69-1.605,1.08-2.58,1.08
			c-0.99,0-1.891-0.375-2.58-1.064c-0.705-0.705-1.064-1.575-1.064-2.551C128.535,16.204,128.894,15.305,129.599,14.615z
			 M132.179,19.714c1.336,0,2.416-1.109,2.416-2.535c0-1.424-1.08-2.534-2.416-2.534c-1.35,0-2.43,1.11-2.43,2.534
			C129.75,18.605,130.845,19.714,132.179,19.714z"/>
		<path fill="#026937" d="M137.234,13.805h1.125v1.034c0.586-0.869,1.395-1.274,2.445-1.274c1.561,0,2.52,0.87,2.52,2.385v4.56
			h-1.17v-3.944c0-1.351-0.555-2.01-1.754-2.01c-0.676,0-1.262,0.255-1.637,0.72c-0.389,0.48-0.389,1.035-0.389,1.77v3.465h-1.141
			V13.805z"/>
		<path fill="#026937" d="M151.455,20.509h-1.111v-1.215c-0.539,0.976-1.395,1.5-2.43,1.5c-1.92,0-3.209-1.425-3.209-3.615
			c0-2.249,1.275-3.614,3.15-3.614c1.123,0,1.949,0.511,2.459,1.5v-1.26h1.141V20.509z M148.109,14.704
			c-1.379,0-2.189,0.885-2.189,2.416c0,1.619,0.811,2.534,2.234,2.534c1.35,0,2.189-0.885,2.189-2.43
			C150.344,15.665,149.4,14.704,148.109,14.704z"/>
		<path fill="#026937" d="M153.433,9.156h1.17v11.354h-1.17V9.156z"/>
		<path fill="#026937" d="M166.814,17.495c0,1.965-1.365,3.284-3.436,3.284c-1.695,0-2.879-0.899-3.285-2.489l1.156-0.57
			c0.314,1.305,1.049,1.979,2.129,1.979c1.291,0,2.145-0.825,2.145-1.995c0-0.959-0.555-1.664-1.664-2.145l-1.305-0.555
			c-1.426-0.601-2.115-1.53-2.115-2.836c0-1.499,1.23-2.639,3.016-2.639c1.289,0,2.25,0.555,2.773,1.619l-1.049,0.676
			c-0.465-0.811-1.051-1.23-1.814-1.23c-0.961,0-1.637,0.645-1.637,1.561c0,0.764,0.467,1.305,1.441,1.725l1.529,0.675
			C166.109,15.155,166.814,16.145,166.814,17.495z"/>
		<path fill="#026937" d="M173.158,20.255c-0.615,0.359-1.379,0.539-2.25,0.539c-2.084,0-3.449-1.455-3.449-3.569
			c0-2.19,1.484-3.66,3.494-3.66c0.75,0,1.471,0.165,2.086,0.465v1.229c-0.57-0.375-1.201-0.584-1.859-0.584
			c-1.471,0-2.49,0.99-2.49,2.58c0,1.35,1.004,2.43,2.398,2.43c0.721,0,1.365-0.256,2.07-0.766V20.255z"/>
		<path fill="#026937" d="M174.373,9.156h1.125v5.684c0.586-0.869,1.396-1.274,2.445-1.274c1.561,0,2.52,0.87,2.52,2.385v4.56h-1.17
			v-3.944c0-1.351-0.555-2.01-1.754-2.01c-0.676,0-1.26,0.255-1.635,0.72c-0.391,0.48-0.391,1.035-0.391,1.77v3.465h-1.141V9.156z"
			/>
		<path fill="#026937" d="M182.879,14.615c0.689-0.689,1.59-1.05,2.58-1.05s1.875,0.375,2.58,1.065
			c0.689,0.675,1.064,1.574,1.064,2.549c0,0.976-0.375,1.861-1.064,2.535c-0.705,0.69-1.605,1.08-2.58,1.08
			c-0.99,0-1.891-0.375-2.58-1.064c-0.705-0.705-1.064-1.575-1.064-2.551C181.814,16.204,182.174,15.305,182.879,14.615z
			 M185.459,19.714c1.334,0,2.414-1.109,2.414-2.535c0-1.424-1.08-2.534-2.414-2.534c-1.35,0-2.43,1.11-2.43,2.534
			C183.029,18.605,184.123,19.714,185.459,19.714z"/>
		<path fill="#026937" d="M191.039,14.615c0.689-0.689,1.59-1.05,2.578-1.05c0.99,0,1.875,0.375,2.58,1.065
			c0.691,0.675,1.066,1.574,1.066,2.549c0,0.976-0.375,1.861-1.066,2.535c-0.705,0.69-1.604,1.08-2.58,1.08
			c-0.988,0-1.889-0.375-2.578-1.064c-0.705-0.705-1.066-1.575-1.066-2.551C189.972,16.204,190.334,15.305,191.039,14.615z
			 M193.617,19.714c1.336,0,2.416-1.109,2.416-2.535c0-1.424-1.08-2.534-2.416-2.534c-1.35,0-2.43,1.11-2.43,2.534
			C191.187,18.605,192.283,19.714,193.617,19.714z"/>
		<path fill="#026937" d="M198.732,9.156h1.17v11.354h-1.17V9.156z"/>
		<path fill="#026937" d="M52.311,28.581c0.46-0.459,1.06-0.699,1.719-0.699s1.249,0.25,1.719,0.709
			c0.46,0.45,0.709,1.05,0.709,1.699c0,0.65-0.25,1.24-0.709,1.689c-0.47,0.46-1.069,0.72-1.719,0.72c-0.66,0-1.259-0.25-1.719-0.71
			c-0.47-0.469-0.709-1.049-0.709-1.699C51.602,29.641,51.842,29.041,52.311,28.581z M54.031,31.98c0.889,0,1.609-0.74,1.609-1.689
			s-0.72-1.688-1.609-1.688c-0.9,0-1.619,0.739-1.619,1.688S53.141,31.98,54.031,31.98z"/>
		<path fill="#026937" d="M57.851,28.671h-0.859v-0.629h0.859v-1.289c0-1.34,0.22-1.899,1.289-1.899c0.23,0,0.45,0.03,0.66,0.101
			v0.789c-0.2-0.11-0.399-0.16-0.6-0.16c-0.57,0-0.589,0.41-0.589,1.27v1.189H59.8v0.629h-1.169v3.838h-0.779V28.671z"/>
		<path fill="#026937" d="M66.99,25.984c-0.75,0-1.509,0.319-2.039,0.869c-0.55,0.569-0.819,1.27-0.819,2.109
			c0,0.659,0.16,1.219,0.49,1.688c0.569,0.81,1.439,1.269,2.408,1.269c0.9,0,1.689-0.369,2.339-1.129v1.129
			c-0.709,0.51-1.539,0.78-2.409,0.78c-0.759,0-1.489-0.229-2.109-0.659c-1.039-0.721-1.609-1.799-1.609-3.068
			c0-1.109,0.37-2,1.119-2.729c0.73-0.7,1.609-1.05,2.659-1.05c0.85,0,1.609,0.26,2.349,0.77v1.109
			C68.678,26.323,67.919,25.984,66.99,25.984z"/>
		<path fill="#026937" d="M70.741,24.944h0.75v3.788c0.39-0.58,0.929-0.85,1.629-0.85c1.04,0,1.679,0.58,1.679,1.589v3.038h-0.78
			v-2.628c0-0.899-0.37-1.339-1.169-1.339c-0.45,0-0.839,0.17-1.089,0.479c-0.26,0.32-0.26,0.69-0.26,1.18v2.309h-0.759V24.944z"/>
		<path fill="#026937" d="M76.661,28.581c0.46-0.459,1.06-0.699,1.719-0.699s1.249,0.25,1.719,0.709
			c0.46,0.45,0.709,1.05,0.709,1.699c0,0.65-0.25,1.24-0.709,1.689c-0.47,0.46-1.069,0.72-1.719,0.72c-0.66,0-1.259-0.25-1.719-0.71
			c-0.47-0.469-0.709-1.049-0.709-1.699C75.951,29.641,76.191,29.041,76.661,28.581z M78.38,31.98c0.889,0,1.609-0.74,1.609-1.689
			s-0.72-1.688-1.609-1.688c-0.9,0-1.619,0.739-1.619,1.688S77.49,31.98,78.38,31.98z"/>
		<path fill="#026937" d="M82.72,30.241c0,1.179,0.27,1.729,1.25,1.729s1.239-0.55,1.239-1.729v-2.199h0.78v2.608
			c0,1.349-0.7,2.049-2.039,2.049c-1.319,0-2.029-0.7-2.029-2.049v-2.608h0.799V30.241z"/>
		<path fill="#026937" d="M87.921,30.391c0,0.021,0,0.05,0,0.069c0,0.97,0.62,1.6,1.479,1.6c0.6,0,1.08-0.32,1.449-0.97l0.58,0.39
			c-0.45,0.811-1.149,1.22-2.069,1.22c-1.359,0-2.279-0.979-2.279-2.438c0-1.41,0.93-2.389,2.229-2.389
			c1.309,0,2.149,0.889,2.149,2.369c0,0.049,0,0.1,0,0.149H87.921z M89.28,28.542c-0.729,0-1.279,0.469-1.359,1.229h2.718
			C90.589,28.982,90.089,28.542,89.28,28.542z"/>
		<path fill="#026937" d="M93.031,25.333c0.31,0,0.56,0.26,0.56,0.57c0,0.31-0.25,0.549-0.56,0.549c-0.31,0-0.56-0.239-0.56-0.559
			C92.471,25.583,92.721,25.333,93.031,25.333z M92.651,28.042h0.77v4.467h-0.77V28.042z"/>
		<path fill="#026937" d="M95.231,28.671h-0.859v-0.629h0.859v-1.289c0-1.34,0.22-1.899,1.289-1.899c0.23,0,0.45,0.03,0.66,0.101
			v0.789c-0.2-0.11-0.399-0.16-0.6-0.16c-0.569,0-0.589,0.41-0.589,1.27v1.189h1.189v0.629H96.01v3.838h-0.78V28.671z"/>
		<path fill="#026937" d="M102.078,32.509h-0.74V31.7c-0.36,0.649-0.93,0.999-1.619,0.999c-1.279,0-2.139-0.95-2.139-2.409
			c0-1.498,0.849-2.408,2.099-2.408c0.75,0,1.299,0.34,1.639,1v-0.84h0.76V32.509z M99.849,28.642c-0.919,0-1.459,0.59-1.459,1.609
			c0,1.079,0.54,1.688,1.489,1.688c0.9,0,1.459-0.589,1.459-1.619C101.339,29.281,100.709,28.642,99.849,28.642z"/>
		<path fill="#026937" d="M102.911,28.671v-0.629h0.818v-1.799h0.78v1.799h0.819v0.629h-0.819v3.838h-0.78v-3.838H102.911z"/>
		<path fill="#026937" d="M111.339,29.902v0.77h-2.279v-0.77H111.339z"/>
		<path fill="#026937" d="M121.347,32.509h-0.92l-0.93-2.188h-2.787l-0.93,2.188h-0.92l3.239-7.426L121.347,32.509z M116.959,29.591
			h2.279l-1.139-2.629L116.959,29.591z"/>
		<path fill="#026937" d="M122.769,24.944v3.938c0.34-0.66,0.891-1,1.629-1c1.25,0,2.109,0.91,2.109,2.408
			c0,1.459-0.859,2.409-2.139,2.409c-0.689,0-1.279-0.36-1.629-0.999v0.809h-0.73v-7.565H122.769z M124.238,31.96
			c0.891,0,1.461-0.641,1.461-1.76c0-0.989-0.551-1.559-1.439-1.559c-0.9,0-1.52,0.649-1.52,1.658
			C122.74,31.361,123.32,31.96,124.238,31.96z"/>
		<path fill="#026937" d="M128.449,30.241c0,1.179,0.27,1.729,1.25,1.729c0.979,0,1.238-0.55,1.238-1.729v-2.199h0.781v2.608
			c0,1.349-0.701,2.049-2.039,2.049c-1.32,0-2.029-0.7-2.029-2.049v-2.608h0.799V30.241z"/>
		<path fill="#026937" d="M136.23,25.364h1.369c1.338,0,2.369,0,3.238,0.669c0.818,0.631,1.248,1.63,1.248,2.909
			s-0.43,2.269-1.248,2.898c-0.83,0.64-1.77,0.669-2.93,0.669c-0.1,0-0.209,0-0.309,0h-1.369V25.364z M137.629,31.71
			c1.219,0,2.068-0.01,2.668-0.51c0.58-0.48,0.9-1.26,0.9-2.27c0-1.009-0.311-1.769-0.9-2.258c-0.59-0.5-1.438-0.52-2.668-0.52
			h-0.539v5.557H137.629z"/>
		<path fill="#026937" d="M143.4,24.944h0.75v3.788c0.389-0.58,0.928-0.85,1.629-0.85c1.039,0,1.678,0.58,1.678,1.589v3.038h-0.779
			v-2.628c0-0.899-0.369-1.339-1.17-1.339c-0.449,0-0.838,0.17-1.088,0.479c-0.26,0.32-0.26,0.69-0.26,1.18v2.309h-0.76V24.944z"/>
		<path fill="#026937" d="M153.127,32.509h-0.738V31.7c-0.361,0.649-0.93,0.999-1.619,0.999c-1.279,0-2.139-0.95-2.139-2.409
			c0-1.498,0.848-2.408,2.098-2.408c0.75,0,1.299,0.34,1.639,1v-0.84h0.76V32.509z M150.898,28.642c-0.92,0-1.459,0.59-1.459,1.609
			c0,1.079,0.539,1.688,1.488,1.688c0.9,0,1.461-0.589,1.461-1.619C152.388,29.281,151.758,28.642,150.898,28.642z"/>
		<path fill="#026937" d="M155.42,24.944v3.938c0.34-0.66,0.889-1,1.629-1c1.248,0,2.107,0.91,2.107,2.408
			c0,1.459-0.859,2.409-2.139,2.409c-0.689,0-1.279-0.36-1.629-0.999v0.809h-0.729v-7.565H155.42z M156.888,31.96
			c0.889,0,1.459-0.641,1.459-1.76c0-0.989-0.549-1.559-1.439-1.559c-0.898,0-1.52,0.649-1.52,1.658
			C155.388,31.361,155.969,31.96,156.888,31.96z"/>
		<path fill="#026937" d="M160.799,25.333c0.311,0,0.561,0.26,0.561,0.57c0,0.31-0.25,0.549-0.561,0.549
			c-0.309,0-0.559-0.239-0.559-0.559C160.24,25.583,160.49,25.333,160.799,25.333z M160.42,28.042h0.77v4.467h-0.77V28.042z"/>
		<path fill="#026937" d="M165.83,25.364h0.84v3.179l2.998-3.179h1.02l-3.068,3.218l3.367,3.928h-1.1l-3.217-3.848v3.848h-0.84
			V25.364z"/>
		<path fill="#026937" d="M171.66,24.944h0.748v3.788c0.391-0.58,0.93-0.85,1.629-0.85c1.041,0,1.68,0.58,1.68,1.589v3.038h-0.779
			v-2.628c0-0.899-0.369-1.339-1.17-1.339c-0.449,0-0.84,0.17-1.09,0.479c-0.26,0.32-0.26,0.69-0.26,1.18v2.309h-0.758V24.944z"/>
		<path fill="#026937" d="M181.386,32.509h-0.74V31.7c-0.359,0.649-0.93,0.999-1.619,0.999c-1.279,0-2.139-0.95-2.139-2.409
			c0-1.498,0.85-2.408,2.1-2.408c0.75,0,1.299,0.34,1.639,1v-0.84h0.76V32.509z M179.158,28.642c-0.92,0-1.459,0.59-1.459,1.609
			c0,1.079,0.539,1.688,1.488,1.688c0.9,0,1.459-0.589,1.459-1.619C180.646,29.281,180.017,28.642,179.158,28.642z"/>
		<path fill="#026937" d="M182.959,24.944h0.779v7.565h-0.779V24.944z"/>
		<path fill="#026937" d="M185.758,25.333c0.311,0,0.561,0.26,0.561,0.57c0,0.31-0.25,0.549-0.561,0.549
			c-0.309,0-0.559-0.239-0.559-0.559C185.199,25.583,185.449,25.333,185.758,25.333z M185.379,28.042h0.77v4.467h-0.77V28.042z"/>
		<path fill="#026937" d="M187.959,28.671h-0.859v-0.629h0.859v-1.289c0-1.34,0.219-1.899,1.289-1.899c0.23,0,0.449,0.03,0.66,0.101
			v0.789c-0.201-0.11-0.4-0.16-0.6-0.16c-0.57,0-0.59,0.41-0.59,1.27v1.189h1.189v0.629h-1.17v3.838h-0.779V28.671z"/>
		<path fill="#026937" d="M194.806,32.509h-0.74V31.7c-0.359,0.649-0.93,0.999-1.619,0.999c-1.279,0-2.139-0.95-2.139-2.409
			c0-1.498,0.85-2.408,2.1-2.408c0.748,0,1.299,0.34,1.639,1v-0.84h0.76V32.509z M192.578,28.642c-0.92,0-1.461,0.59-1.461,1.609
			c0,1.079,0.541,1.688,1.49,1.688c0.898,0,1.459-0.589,1.459-1.619C194.066,29.281,193.437,28.642,192.578,28.642z"/>
		<path fill="#026937" d="M202.785,25.984c-0.748,0-1.508,0.319-2.039,0.869c-0.549,0.569-0.818,1.27-0.818,2.109
			c0,0.659,0.16,1.219,0.49,1.688c0.568,0.81,1.439,1.269,2.408,1.269c0.898,0,1.689-0.369,2.338-1.129v1.129
			c-0.709,0.51-1.539,0.78-2.408,0.78c-0.76,0-1.488-0.229-2.109-0.659c-1.039-0.721-1.609-1.799-1.609-3.068
			c0-1.109,0.371-2,1.121-2.729c0.729-0.7,1.607-1.05,2.658-1.05c0.85,0,1.609,0.26,2.348,0.77v1.109
			C204.474,26.323,203.715,25.984,202.785,25.984z"/>
		<path fill="#026937" d="M206.957,25.333c0.311,0,0.561,0.26,0.561,0.57c0,0.31-0.25,0.549-0.561,0.549
			c-0.309,0-0.559-0.239-0.559-0.559C206.398,25.583,206.648,25.333,206.957,25.333z M206.578,28.042h0.77v4.467h-0.77V28.042z"/>
		<path fill="#026937" d="M208.258,28.671v-0.629h0.82v-1.799h0.779v1.799h0.82v0.629h-0.82v3.838h-0.779v-3.838H208.258z"/>
		<path fill="#026937" d="M212.576,32.07l-1.748-4.027h0.879l1.299,3.208l1.381-3.208h0.84l-3,6.646h-0.859L212.576,32.07z"/>
	</g>
	<g>
		<path fill="#026937" d="M25.474,18.012c-0.27-0.1-0.928-0.313-1.031,0.113c-0.08,0.326,0.208,0.598,0.279,0.891
			c0.073,0.332-0.054,0.717,0.171,1.016c0.327,0.424,0.829-0.227,1.065-0.443c0.212-0.24,0.115-0.602,0.037-0.865
			C25.909,18.428,25.781,18.125,25.474,18.012"/>
		<path fill="#026937" d="M23.118,18.125c-0.393,0.127-0.863,0.041-1.222,0.244c-0.332,0.193-0.482,0.979-0.066,1.174
			c0.239,0.115,0.383-0.215,0.511-0.352c0.174-0.176,0.383-0.086,0.458,0.137c0.178,0.494-0.031,1.029-0.009,1.541
			c0.004,0.176,0.058,0.369,0.25,0.424c0.156,0.053,0.293-0.01,0.389-0.137c0.508-0.715-0.114-1.736,0.558-2.404
			c0.172-0.203,0.053-0.461-0.139-0.607C23.629,17.977,23.365,18.051,23.118,18.125"/>
		<path fill="#026937" d="M26.84,15.408c-0.228-0.127-0.309,0.074-0.364,0.262c-0.077,0.248-0.263,0.311-0.455,0.471
			c-0.375,0.291-0.236,0.918,0.163,1.121c0.534,0.201,1.202,0.1,1.15-0.58C27.295,16.242,27.276,15.651,26.84,15.408"/>
		<path fill="#026937" d="M23.286,7.41c-0.256-0.248-0.619-0.195-0.905-0.033c-0.149,0.082-0.287,0.174-0.454,0.229
			c-0.124,0.037-0.265,0.088-0.289,0.23c-0.074,0.285,0.255,0.482,0.396,0.682c0.198,0.26,0.349,0.566,0.637,0.746
			c0.447,0.271,1.142,0.229,1.46-0.234c0.102-0.303-0.176-0.547-0.348-0.752C23.576,8.012,23.526,7.655,23.286,7.41"/>
		<path fill="#026937" d="M28.191,18.897c-0.312-0.215-0.739,0.027-0.879,0.344c-0.114,0.275-0.114,0.689,0.195,0.848
			c0.271,0.143,0.66-0.016,0.739-0.314C28.315,19.504,28.49,19.098,28.191,18.897"/>
		<path fill="#026937" d="M20.635,18.924c-0.162,0.162-0.036,0.52-0.021,0.721c0.018,0.297-0.209,0.607-0.335,0.875
			c-0.156,0.311-0.289,0.672-0.131,1.012c0.229,0.486,1.092,0.707,1.379,0.15c0.248-0.82,0.104-1.666-0.288-2.422
			C21.148,19.088,20.881,18.682,20.635,18.924"/>
		<path fill="#026937" d="M20.198,17.838c0.208-0.059,0.575-0.299,0.272-0.502c-0.249-0.178-0.584,0.008-0.864-0.086
			c-0.276-0.102-0.944-0.535-1.107-0.059C18.188,18.088,19.709,17.969,20.198,17.838"/>
		<path fill="#026937" d="M19.225,10.27c-0.367-0.24-0.837-0.164-1.255-0.203c-0.433-0.043-0.762-0.295-1.168-0.414
			c-0.269-0.078-0.543-0.006-0.713,0.219c-0.158,0.205-0.118,0.453,0.087,0.607c0.447,0.33,1.098,0.076,1.542,0.389
			c0.284,0.207-0.004,0.479-0.234,0.564c-0.266,0.102-0.569,0.02-0.849-0.006c-0.466-0.047-1.048,0.234-0.571,0.684
			c0.164,0.156,0.356,0.275,0.536,0.408c0.147,0.109,0.246,0.26,0.36,0.406c0.215,0.273,0.821,0.885,1.051,0.246
			c0.141-0.398-0.188-1.078,0.329-1.285c0.447-0.184,0.958,0.213,1.399,0C20.318,11.592,19.54,10.479,19.225,10.27"/>
		<path fill="#026937" d="M14.45,10.793c-0.272-0.104-0.184-0.324-0.064-0.502c0.132-0.199,0.114-0.385-0.095-0.52
			c-0.214-0.148-0.5-0.176-0.743-0.273c-0.231-0.08-0.418-0.25-0.654-0.334c-0.396-0.154-1.043,0.1-0.906,0.607
			c0.118,0.449,0.638,0.498,0.963,0.734c0.428,0.314,0.325,0.885,0.526,1.311c0.192,0.41,0.625,0.793,1.111,0.68
			c0.436-0.043,0.611-0.521,0.603-0.9c0-0.199-0.028-0.43-0.167-0.594C14.882,10.826,14.649,10.867,14.45,10.793"/>
		<path fill="#026937" d="M19.709,22.561c-0.153-0.061-0.294-0.143-0.468-0.152c-0.293-0.02-0.563,0.107-0.825,0.236
			c0,0,0.053,0.148,0.067,0.205c0.056,0.289,0.208,0.584,0.375,0.826c0.166,0.24,0.414,0.504,0.731,0.463
			c0.296-0.037,0.482-0.285,0.62-0.52c0.15-0.271,0.238-0.578,0.449-0.805c0.074-0.088,0.15-0.15,0.242-0.189
			c0.019,0.004-0.356-0.061-0.567-0.047C20.11,22.584,19.925,22.647,19.709,22.561"/>
		<path fill="#026937" d="M18.58,20.442c-0.008-0.201-0.038-0.402-0.085-0.59c-0.043-0.176-0.06-0.367-0.155-0.523
			c-0.072-0.135-0.245-0.113-0.376-0.135c-0.19-0.035-0.378-0.09-0.575-0.119c-0.428-0.066-0.844-0.25-1.155-0.045
			c-0.064,0.029-0.088,0.332,0.014,0.475c0.098,0.145,0.211,0.275,0.308,0.412c0.217,0.334,0.424,0.662,0.635,0.994
			c0.105,0.162,0.212,0.328,0.31,0.498c0.074,0.137,0.15,0.281,0.273,0.383c0.114,0.088,0.261,0.129,0.408,0.141
			c0.063,0.006,0.134,0.02,0.195-0.014C18.74,21.752,18.58,20.442,18.58,20.442"/>
		<path fill="#026937" d="M19.27,19.012c-0.346,0.365,0.056,0.832,0.167,1.207c0.033,0.109,0.168,0.697,0.369,0.506
			c0.382-0.258,0.245-0.779,0.212-1.158c-0.014-0.219-0.014-0.469-0.192-0.621C19.659,18.819,19.406,18.86,19.27,19.012"/>
		<path fill="#026937" d="M34.702,16.561c-0.146,0.127-0.381,0.043-0.556,0.014c-0.28-0.045-0.643-0.129-0.692-0.467
			c-0.051-0.307,0.301-0.557,0.587-0.535c0.19,0.012,0.283,0.172,0.423,0.273c0.102,0.074,0.294,0.09,0.294,0.258
			C34.76,16.258,34.853,16.446,34.702,16.561 M9.168,17.735c0.408-0.053,0.386-0.561,0.604-0.814
			c0.271-0.324,0.529,0.275,0.769,0.344c0.169,0.035,0.396,0.018,0.348,0.256c-0.044,0.26-0.267,0.414-0.502,0.477
			C9.977,18.117,9.449,18.104,9.168,17.735 M37.525,21.801c-0.841,0.273-1.892-0.049-2.6-0.529
			c-0.302-0.211-0.572-0.477-0.761-0.789c-0.116-0.195-0.219-0.488-0.461-0.555c-0.446-0.123-0.115,0.672-0.043,0.83
			c0.124,0.281,0.366,0.875-0.03,1.059c-0.495,0.219-0.665-0.426-0.783-0.758c-0.488-1.377-1.694,0.674-2.118,1.068
			c-0.464,0.426-1.079,0.537-1.617,0.164c-0.501-0.371-0.796-0.945-1.292-1.324c-1.102-0.848-5.123,1.064-4.482,5.174
			c0.067,0.436,0.114,0.799,0.15,1.113c0.383,1.596,1.137,2.543,1.541,2.867c0.585,0.477,1.931,0.365,1.865,0.939
			c-0.023,0.223-0.282,0.291-0.412,0.338c-0.129,0.047-0.554,0.205-0.908,0.035c-0.6-0.498-0.996-0.029-1.209-0.221
			c-0.474-0.428-0.872-1.207-1.273-2.139c0.045,0.32-0.967-2.742-1.077-2.951c-0.212-0.391-0.376-0.873-0.673-1.201
			c-0.257-0.287-0.762-0.408-1.122-0.246c-0.44,0.207-0.336,0.838-0.234,1.207c0.168,0.691,0.484,1.336,0.749,1.996
			c0.292,0.729,0.409,1.492,0.647,2.229c0.096,0.283,0.563,1.584-0.234,1.348c-0.335-0.09-0.638-0.408-0.827-0.691
			c-0.206-0.309-0.212-0.643-0.182-1.006c0.015-0.316,0.12-1.121-0.4-1.104c-0.411,0.006-0.91,0.533-0.993,0.926
			c-0.114,0.5,0.495,0.809,0.568,1.275c0.047,0.307-0.209,0.588-0.514,0.627c-0.337,0.045-0.645-0.139-0.94-0.268
			c-0.099,0.289-0.42,0.652-0.762,0.5c-0.268-0.123-0.383-0.422-0.665-0.537c-0.51-0.191-0.958,0.852-1.594,0.141
			c-0.45-0.512,1.118-0.654,1.784-1.014c0.619-0.322,1.093-0.854,1.471-1.426c0.403-0.609,0.451-1.354,0.414-2.066
			c-0.041-0.832-0.128-1.654-0.188-2.49c-0.038-0.529-0.038-1.156-0.416-1.57c-0.281,0.035-0.568,0.035-0.849,0.082
			c-0.325,0.047-0.645,0.137-0.967,0.207c-0.242,0.055-0.58,0.115-0.795-0.049c-0.222-0.178,0.031-0.404,0.196-0.51
			c0.245-0.15,0.545-0.221,0.741-0.43c0.237-0.246,0.245-0.592,0.141-0.896c-0.22-0.637-0.75-1.162-1.317-1.508
			c-0.453-0.271-1.146-0.496-1.558-0.043c-0.424,0.451-0.197,1.174,0.217,1.557c0.233,0.229,0.551,0.377,0.814,0.59
			c0.193,0.16,0.529,0.506,0.108,0.621c-0.319,0.096-0.602-0.197-0.846-0.352c-0.305-0.18-0.661-0.275-1.01-0.318
			c-0.59-0.061-1.254,0.098-1.563,0.629c-0.094,0.15-0.169,0.342-0.148,0.521c0.019,0.125,0.109,0.313,0.017,0.432
			c-0.077,0.084-0.251,0.088-0.349,0.129c-0.26,0.102-0.681,0.236-0.785,0.27c-0.337,0.102-0.573,0.27-0.853,0.467
			c-0.491,0.35-1.054,0.451-1.349-0.18c-0.204-0.432-0.284-1.307-0.937-1.277c-0.349,0.008-0.619,0.285-0.964,0.299
			c-0.286,0.01-0.55-0.139-0.761-0.299c-0.386-0.311-0.794-0.852-0.71-1.379c0.11-0.68,1.012-0.445,1.412-0.213
			c0.629,0.348,1.111,0.895,1.663,1.346c0.425,0.352,0.912,0.652,1.468,0.746c0.331,0.057,1.07-0.064,0.904-0.568
			c-0.12-0.338-0.539-0.498-0.649-0.844c-0.181-0.59,0.663-0.545,0.989-0.482c0.353,0.074,1.121,0.232,1.146-0.326
			c0.029-0.6-0.602-0.9-1.115-0.979c-0.592-0.09-1.399,0.105-1.803-0.471c-0.43-0.611,0.611-0.934,1.043-0.912
			c0.341,0.021,0.668,0.15,0.953,0.332c0.282,0.17,0.498,0.404,0.771,0.58c0.251,0.164,0.589,0.287,0.862,0.1
			c0.202-0.139,0.263-0.396,0.175-0.615c-0.164-0.43-0.694-0.592-0.87-1.014c-0.112-0.266,0.006-0.572,0.266-0.695
			c0.29-0.135,0.604-0.004,0.83,0.189c0.467,0.404,0.707,1.055,1.31,1.314c0.265,0.119,0.679,0.17,0.86-0.119
			c0.155-0.238-0.031-0.479-0.25-0.578c-0.333-0.176-0.946-0.279-0.93-0.762c0.015-0.609,0.586-0.609,1.014-0.383
			c0.255,0.141,1.329,1.029,1.595,0.592c0.119-0.209-0.08-0.506-0.141-0.703c-0.069-0.207-0.061-0.592,0.26-0.561
			c0.429,0.037,0.545,1.01,0.96,0.881c0.158-0.051,0.218-0.244,0.363-0.32c0.137-0.07,0.299-0.074,0.446-0.105
			c0.346-0.063,0.542-0.326,0.844-0.455c0.313-0.148,0.624-0.061,0.951-0.102c0.326-0.031,0.438-0.268,0.667-0.443
			c0.292-0.232,0.558,0.006,0.832,0.115c0.255,0.104,0.484-0.008,0.538-0.275c0.053-0.244-0.028-0.5,0.058-0.748
			c0.097-0.305,0.187-0.527-0.037-0.803c-0.203-0.244-0.469-0.42-0.658-0.674c-0.166-0.223-0.33-0.467-0.613-0.535
			c-0.356-0.082-1.025,0.025-1.012,0.502c0.009,0.32,0.302,0.539,0.578,0.66c0.114,0.047,0.253,0.047,0.334,0.156
			c0.041,0.057,0.128,0.104,0.092,0.189c-0.122,0.354-0.508,0.576-0.877,0.541c-0.164-0.021-0.341-0.154-0.512-0.08
			c-0.166,0.072-0.126,0.256-0.21,0.389c-0.184,0.285-0.582-0.049-0.719-0.217c-0.112-0.139-0.137-0.336-0.268-0.461
			c-0.042-0.045-0.302-0.094-0.373-0.207c-0.324-0.303-0.653-0.221-1.087-0.189c-0.331,0.023-0.854,0.15-0.75,0.582
			c0.097,0.379,0.462,0.787,0.029,1.121c-0.337,0.275-0.784,0.229-1.124-0.01c-0.278-0.203-0.561-0.488-0.938-0.432
			c-0.32,0.047-0.072,0.348,0.015,0.484c0.227,0.361-0.201,0.436-0.474,0.436c-0.405,0-0.811-0.08-1.193-0.236
			c-0.307-0.127-0.607-0.283-0.937-0.361c-0.34-0.08-0.643-0.021-0.978,0.059c-0.409,0.104-0.766,0.127-1.156-0.064
			c-0.317-0.16-0.592-0.385-0.917-0.531c-0.307-0.133-0.722-0.182-0.967-0.418c-0.192-0.182-0.223-0.49-0.114-0.723
			c0.152-0.338,0.552-0.25,0.762-0.508c0.205-0.254,0.421-0.354,0.754-0.289c0.303,0.064,0.524,0.232,0.625,0.527
			c0.08,0.258,0.08,0.529,0.234,0.768c0.217,0.334,0.588,0.32,0.937,0.254c0.365-0.066,0.638,0.027,0.98,0.141
			c0.297,0.09,0.61,0.1,0.859-0.111c0.159-0.129,0.243-0.371,0.138-0.564c-0.179-0.338-0.729-0.391-1.069-0.449
			c-0.619-0.1-1.042-0.543-1.64-0.703c-0.378-0.102-1.231-0.146-1.043-0.744c0.209-0.633,1.178-0.658,1.582-0.24
			c0.208,0.211,0.335,0.578,0.651,0.648c0.274,0.066,0.554-0.053,0.834,0.012c0.21,0.045,1.147,0.65,1.257,0.188
			c0.068-0.314-0.245-0.521-0.4-0.748c-0.183-0.256-0.208-0.561-0.22-0.863c-0.016-0.297-0.068-0.594-0.321-0.781
			c-0.266-0.197-0.614-0.238-0.879-0.441c-0.487-0.396-0.516-1.164-0.137-1.645C11.292,7.891,11.989,8,12.56,8.313
			c0.288,0.162,0.62,0.416,0.975,0.375c0.279-0.041,0.501-0.305,0.461-0.576c-0.085-0.533-0.922-0.338-1.279-0.484
			c-0.312-0.141-0.36-0.498-0.147-0.752c0.199-0.221,0.51-0.334,0.804-0.367c0.546-0.063,1.223,0.076,1.331,0.697
			c0.061,0.334-0.132,1.375,0.383,1.432c0.298,0.027,0.499-0.318,0.796-0.305c0.248,0.018,0.383,0.289,0.528,0.457
			c0.543,0.617,1.045-0.334,1.569-0.416c0.696-0.104,1.046,0.799,1.7,0.883c0.292,0.039,0.685-0.092,0.917,0.156
			c0.173,0.168,0.154,0.457,0.137,0.68c-0.028,0.336-0.028,0.643,0.135,0.939c0.139,0.27,0.364,0.498,0.39,0.813
			c0.019,0.27-0.139,0.602,0.072,0.832c0.2,0.213,0.584,0.217,0.847,0.123c0.324-0.123,0.48-0.404,0.468-0.736
			c-0.002-0.219-0.105-0.463-0.049-0.682c0.085-0.283,0.464-0.172,0.636-0.043c0.211,0.146,0.43,0.336,0.702,0.225
			c0.494-0.203,0.6-0.998,0.204-1.336c-0.483-0.42-1.023,0.117-1.372,0.439c-0.32,0.303-0.994,0.652-1.374,0.221
			c-0.429-0.494,0.626-0.697,0.64-1.125c0.015-0.482-0.773-0.654-1.006-0.99c-0.181-0.258-0.11-0.555-0.19-0.838
			c-0.066-0.291-0.306-0.379-0.57-0.438c-0.378-0.096-0.607-0.254-0.887-0.52c-0.22-0.213-0.464-0.322-0.733-0.459
			c-0.237-0.127-0.428-0.348-0.33-0.629c0.097-0.271,0.382-0.381,0.64-0.295c0.432,0.146,0.847,0.82,1.359,0.596
			c0.241-0.109,0.37-0.42,0.321-0.672c-0.044-0.252-0.268-0.4-0.499-0.451c-0.255-0.053-0.547-0.064-0.686-0.311
			c-0.123-0.219-0.108-0.553,0.135-0.697c0.254-0.148,0.638-0.234,0.926-0.205c0.349,0.051,0.619,0.273,0.915,0.416
			c0.345,0.166,0.713,0.201,1.078,0.107c0.292-0.074,0.651-0.191,0.946-0.057c0.278,0.131,0.278,0.471,0.12,0.697
			c-0.162,0.236-0.434,0.193-0.657,0.07c-0.299-0.174-0.485-0.141-0.816-0.1c-0.213,0.035-0.697,0.086-0.742,0.359
			c-0.044,0.25,0.344,0.422,0.465,0.6c0.161,0.223,0.086,0.502,0.211,0.734c0.197,0.344,0.738-0.215,0.892-0.355
			c0.271-0.26,0.921-0.684,0.979-0.018c0.027,0.359,0.015,0.566,0.38,0.736c0.27,0.129,0.438,0.441,0.54,0.709
			c0.167,0.432-0.144,1.104,0.208,1.451c0.432,0.428,0.794-0.252,1.083-0.477c0.187-0.143,0.507-0.154,0.667,0.049
			c0.188,0.252-0.088,0.479-0.273,0.619c-0.117,0.086-0.296,0.236-0.203,0.396c0.059,0.117,0.205,0.15,0.328,0.117
			c0.264-0.076,0.506-0.309,0.755-0.086c0.106,0.1,0.269,0.307,0.333,0.355c0.263,0.213,0.584,0.248,0.866,0.084
			c0.227-0.143,0.329-0.436,0.085-0.615c-0.183-0.152-0.443-0.166-0.666-0.242c-0.377-0.127-0.847-0.416-0.651-0.881
			c0.178-0.432,0.651-0.367,0.979-0.145c0.411,0.266,0.568,0.771,0.952,1.063c0.279,0.217,0.654,0.229,0.997,0.158
			c0.396-0.08,0.537-0.359,0.251-0.682c-0.192-0.207-0.395-0.377-0.409-0.688c-0.003-0.254,0.112-0.506,0.28-0.699
			c0.253-0.281,1.39-0.902,1.462-0.156c0.051,0.52-0.636,1.016-0.367,1.531c0.322,0.619,1.201,0.256,1.727,0.432
			c0.235,0.078,0.54,0.256,0.561,0.529c0.026,0.281-0.248,0.5-0.49,0.559c-0.57,0.152-1.154-0.1-1.471,0.537
			c-0.134,0.258-0.293,0.547-0.629,0.357c-0.254-0.139-0.413-0.418-0.705-0.492c-0.311-0.078-0.534,0.166-0.629,0.428
			c-0.07,0.199-0.167,0.518-0.442,0.473c-0.266-0.049-0.426-0.365-0.589-0.547c-0.194-0.219-0.47-0.418-0.784-0.391
			c-0.737,0.072-0.462,0.881-0.216,1.279c0.228,0.375,0.646,1.178-0.062,1.352c-0.758,0.182-0.865-0.947-0.934-1.422
			c-0.084-0.529-0.387-1.186-1.057-1.027c-0.284,0.064-0.542,0.316-0.484,0.625c0.052,0.316,0.343,0.551,0.55,0.785
			c0.31,0.348,0.624,0.832,0.691,1.305c0.075,0.512-0.434,0.787-0.891,0.635c-0.346-0.115-0.351-0.428-0.392-0.732
			c-0.031-0.197-0.156-0.465-0.398-0.463c-0.383,0.012-0.675,0.529-0.923,0.764c-0.28,0.262-0.734,0.225-1.073,0.381
			c-0.175,0.076-0.317,0.217-0.312,0.426c0,0.277,0.206,0.424,0.454,0.508c0.337,0.113,0.572,0.26,0.852,0.479
			c0.27,0.213,0.452-0.008,0.554-0.256c0.114-0.27,0.267-0.445,0.569-0.502c0.342-0.066,0.689-0.051,1.037-0.119
			c0.372-0.072,0.735-0.201,1.113-0.072c0.296,0.107,0.544,0.32,0.849,0.396c0.802,0.217,0.782-0.713,0.962-1.219
			c0.128-0.373,0.244-0.74,0.355-1.115c0.09-0.277,0.243-0.541,0.497-0.695c0.576-0.348,1.143,0.232,1.101,0.805
			c-0.044,0.492-0.429,0.906-0.397,1.404c0.015,0.24,0.198,0.436,0.445,0.459c0.218,0.023,0.397-0.135,0.529-0.293
			c0.347-0.422,0.521-0.906,1.024-1.197c0.493-0.289,1.114-0.297,1.642-0.074c0.441,0.18,0.862,0.68,0.567,1.166
			c-0.23,0.385-0.803,0.457-1.208,0.422c-0.489-0.031-1.087-0.234-1.535,0.051c-0.656,0.43-0.167,1.125,0.253,1.504
			c0.155,0.139,1.213,0.879,0.671,1.072c-0.253,0.088-0.472-0.031-0.632-0.215c-0.191-0.219-0.347-0.322-0.611-0.432
			c-0.331-0.133-0.308-0.387-0.354-0.689c-0.042-0.281-0.234-0.473-0.478-0.592c-0.462-0.223-1.104-0.23-1.58-0.021
			c-0.303,0.139-0.366,0.465-0.164,0.729c0.183,0.244,0.473,0.385,0.726,0.557c0.304,0.199,0.622,0.379,0.991,0.443
			c0.293,0.063,0.631,0.076,0.856,0.295c0.182,0.166,0.311,0.488,0.032,0.643c-0.285,0.156-0.578-0.105-0.762-0.301
			c-0.208-0.205-0.474-0.391-0.761-0.189c-0.202,0.137-0.351,0.455-0.623,0.457c-0.276,0-0.404-0.336-0.516-0.525
			c-0.149-0.232-0.39-0.344-0.667-0.291c-0.51,0.111-0.609,0.715-0.325,1.09c0.432,0.564,1.208,0.346,1.819,0.523
			c0.173,0.059,1.25,0.32,0.727,0.621c-0.26,0.152-0.577,0.07-0.862,0.121c-0.308,0.043-0.492,0.285-0.532,0.574
			c-0.077,0.457,0.079,1.053,0.415,1.367c0.184,0.172,0.446,0.221,0.669,0.098c0.293-0.176,0.19-0.459-0.01-0.664
			c-0.188-0.189-0.432-0.355-0.451-0.65c-0.024-0.33,0.342-0.246,0.531-0.139c0.263,0.15,0.525,0.484,0.86,0.477
			c0.278-0.01,0.549-0.258,0.594-0.533c0.097-0.533-0.79-1.203-0.392-1.699c0.432-0.523,0.814,0.404,1.254,0.355
			c0.277-0.027,0.32-0.396,0.441-0.584c0.166-0.256,0.525-0.268,0.788-0.176c0.581,0.199,0.594,0.832,0.675,1.342
			c0.09,0.572,0.339,1.209,0.891,1.492c0.676,0.332,1.455,0.063,2.085-0.25c0.312-0.123,0.598,0.111,0.625,0.426
			C38.181,21.457,37.855,21.694,37.525,21.801 M35.91,23.387c0,0-0.612,0.508-1.013,0.596c-0.313,0.066-1.032,0.021-1.343-0.158
			c-0.313-0.178-0.391-0.451-0.291-0.727c0.132-0.381,0.533-0.65,0.929-0.736c0.206-0.055,0.423-0.041,0.625,0.037
			c0.198,0.082,0.335,0.242,0.521,0.334c0.392,0.201,0.652-0.172,0.947-0.359c0.138-0.086,0.616-0.178,0.553,0.125
			C36.748,22.893,36.202,23.166,35.91,23.387 M28.503,37.18c-0.068,0.186-0.171,0.359-0.306,0.51
			c-0.137,0.15-0.306,0.271-0.502,0.361c-0.197,0.09-0.428,0.137-0.687,0.137c-0.272,0-0.52-0.055-0.733-0.158
			c-0.212-0.105-0.39-0.248-0.537-0.426c-0.145-0.18-0.255-0.387-0.326-0.619c-0.072-0.23-0.109-0.479-0.109-0.742
			c0-0.449,0.092-0.85,0.273-1.188c0.183-0.332,0.409-0.623,0.676-0.859c0.266-0.236,0.55-0.428,0.848-0.564
			c0.294-0.145,0.564-0.248,0.802-0.314l0.049-0.012l0.124,0.344l-0.045,0.023c-0.175,0.078-0.345,0.168-0.504,0.27
			c-0.162,0.105-0.311,0.229-0.443,0.365c-0.133,0.137-0.249,0.299-0.343,0.48c-0.076,0.146-0.135,0.316-0.179,0.502
			c0.052-0.025,0.112-0.047,0.179-0.068c0.122-0.041,0.258-0.059,0.414-0.059c0.239,0,0.452,0.035,0.633,0.107
			c0.181,0.074,0.335,0.172,0.457,0.301c0.124,0.127,0.217,0.281,0.276,0.455c0.059,0.174,0.089,0.367,0.089,0.576
			C28.608,36.799,28.572,36.994,28.503,37.18 M24.7,37.307c-0.08,0.172-0.198,0.324-0.348,0.455
			c-0.148,0.131-0.327,0.234-0.535,0.309c-0.206,0.078-0.436,0.117-0.691,0.117c-0.225,0-0.434-0.029-0.626-0.082
			c-0.19-0.055-0.358-0.137-0.5-0.24c-0.141-0.105-0.254-0.238-0.333-0.379c-0.08-0.152-0.122-0.318-0.122-0.502
			c0-0.156,0.026-0.293,0.076-0.416c0.046-0.125,0.112-0.234,0.196-0.334c0.085-0.098,0.183-0.182,0.304-0.262
			c0.088-0.064,0.186-0.123,0.287-0.178c-0.226-0.15-0.4-0.314-0.519-0.486c-0.131-0.195-0.198-0.43-0.198-0.703
			c0-0.178,0.043-0.35,0.131-0.506c0.085-0.158,0.202-0.293,0.34-0.41c0.14-0.117,0.306-0.209,0.483-0.275
			c0.353-0.129,0.718-0.119,1.058-0.043c0.168,0.039,0.317,0.1,0.449,0.184s0.241,0.197,0.32,0.328
			c0.082,0.135,0.124,0.299,0.124,0.486c0,0.162-0.037,0.307-0.108,0.432c-0.07,0.121-0.154,0.223-0.249,0.311
			c-0.094,0.086-0.193,0.16-0.294,0.217c-0.055,0.029-0.104,0.055-0.143,0.074c0.122,0.066,0.244,0.139,0.36,0.215
			c0.126,0.082,0.24,0.178,0.339,0.285s0.177,0.232,0.234,0.371c0.059,0.141,0.089,0.303,0.089,0.484
			C24.825,36.953,24.782,37.135,24.7,37.307 M20.986,37.307c-0.084,0.172-0.2,0.324-0.349,0.455
			c-0.15,0.131-0.328,0.234-0.537,0.309c-0.206,0.078-0.437,0.117-0.69,0.117c-0.226,0-0.436-0.029-0.625-0.082
			c-0.192-0.055-0.359-0.137-0.502-0.24c-0.143-0.105-0.253-0.238-0.332-0.379c-0.079-0.152-0.12-0.318-0.12-0.502
			c0-0.15,0.023-0.291,0.071-0.416c0.049-0.127,0.116-0.236,0.201-0.334c0.081-0.098,0.18-0.182,0.3-0.262
			c0.089-0.064,0.188-0.123,0.29-0.178c-0.228-0.15-0.401-0.314-0.519-0.486c-0.134-0.195-0.2-0.43-0.2-0.703
			c0-0.178,0.045-0.35,0.133-0.506c0.084-0.158,0.199-0.293,0.339-0.41c0.142-0.117,0.302-0.209,0.484-0.275
			c0.353-0.129,0.721-0.119,1.058-0.043c0.167,0.039,0.319,0.1,0.449,0.184c0.131,0.084,0.24,0.195,0.322,0.328
			c0.079,0.135,0.12,0.299,0.12,0.486c0,0.162-0.035,0.307-0.106,0.432c-0.069,0.119-0.152,0.223-0.25,0.311
			c-0.096,0.088-0.192,0.16-0.293,0.217c-0.047,0.023-0.097,0.053-0.143,0.074c0.122,0.066,0.242,0.139,0.359,0.215
			c0.126,0.084,0.242,0.178,0.339,0.285c0.101,0.107,0.177,0.232,0.235,0.371c0.058,0.141,0.088,0.303,0.088,0.484
			C21.109,36.953,21.065,37.135,20.986,37.307 M17.344,38.069H14.72v-0.428l0.549-0.035c0.104-0.006,0.175-0.031,0.212-0.068
			c0.023-0.025,0.052-0.092,0.052-0.248v-2.51c0-0.129-0.038-0.221-0.112-0.271c-0.084-0.059-0.211-0.096-0.374-0.107l-0.332-0.025
			v-0.367l0.043-0.01c0.088-0.014,0.188-0.039,0.303-0.068c0.117-0.031,0.24-0.07,0.362-0.125c0.124-0.051,0.244-0.113,0.354-0.182
			c0.111-0.066,0.206-0.143,0.281-0.227l0.019-0.02h0.46v3.912c0,0.156,0.027,0.223,0.052,0.248c0.036,0.037,0.107,0.063,0.21,0.068
			l0.543,0.035V38.069z M6.158,19.938c0.082-0.184,0.333-0.201,0.501-0.145c0.31,0.105,0.626,0.201,0.934,0.318
			c0.193,0.076,0.438,0.059,0.583,0.23c0.15,0.18,0.091,0.443-0.019,0.631c-0.238,0.412-0.772,0.27-1.104,0.061
			c-0.23-0.135-0.425-0.336-0.625-0.525C6.271,20.369,6.052,20.17,6.158,19.938 M6.612,17.838c0.205-0.199,0.386-0.422,0.567-0.646
			c0.131-0.174,0.325-0.457,0.595-0.371c0.212,0.076,0.258,0.35,0.235,0.545c-0.026,0.27-0.23,0.473-0.35,0.711
			c-0.074,0.158,0.103,0.398-0.099,0.518c-0.274,0.146-0.599,0.039-0.896,0.049c-0.152,0.01-0.397-0.01-0.428-0.199
			C6.198,18.196,6.459,17.994,6.612,17.838 M14.319,5.002c0.327-0.377,0.896-0.285,1.307-0.098c0.528,0.25,0.929,0.693,1.37,1.07
			c0.472,0.408,0.976,0.789,1.369,1.289c0.193,0.096,0.223,0.375,0.097,0.535c-0.158,0.209-0.435,0.025-0.609-0.059
			c-0.537-0.281-1.173-0.012-1.72-0.26c-0.204-0.102-0.413-0.379-0.202-0.57c0.144-0.129,0.19-0.375-0.03-0.438
			c-0.503-0.158-1.112,0.154-1.535-0.26C14.056,5.897,14.031,5.34,14.319,5.002 M24.299,4.563c0.158-0.779,1.304-0.865,1.864-0.492
			c0.391,0.25,0.296,0.76,0.271,1.15c-0.022,0.486,0.303,0.877,0.51,1.291c0.074,0.363-0.024,0.848-0.413,1.002
			c-0.39,0.154-0.64-0.166-0.795-0.475C25.5,6.59,25.261,6.176,24.943,5.78C24.664,5.442,24.199,5.061,24.299,4.563 M27.613,5.281
			c0.132-0.205,0.404-0.193,0.619-0.193c0.577,0.006,1.142,0.246,1.522,0.674c0.167,0.195,0.411,0.469,0.27,0.746
			c-0.11,0.213-0.391,0.209-0.602,0.184c-0.595-0.049-1.135-0.355-1.569-0.762C27.685,5.77,27.447,5.52,27.613,5.281 M34.97,17.856
			c0.132-0.17,0.378-0.156,0.574-0.141c0.444,0.033,0.898,0.24,1.144,0.627c0.209,0.334-0.236,0.717-0.569,0.629
			c-0.201-0.068-0.268-0.275-0.418-0.404c-0.167-0.143-0.411-0.123-0.592-0.242C34.961,18.227,34.853,18.012,34.97,17.856
			 M37.576,19.024c0.179,0.172,0.322,0.518,0.068,0.682c-0.222,0.146-0.561,0.01-0.691-0.201
			C36.745,19.158,37.294,18.676,37.576,19.024 M21.26,0C9.518,0,0,9.518,0,21.258c0,11.738,9.518,21.26,21.26,21.26
			c11.743,0,21.26-9.521,21.26-21.26C42.519,9.518,33.003,0,21.26,0"/>
		<path fill="#026937" d="M26.897,35.656c-0.082,0-0.156,0.014-0.227,0.045c-0.065,0.023-0.119,0.049-0.17,0.09
			c-0.017,0.088-0.03,0.186-0.035,0.281c-0.011,0.107-0.015,0.211-0.015,0.32c0,0.189,0.009,0.373,0.026,0.539
			c0.017,0.164,0.048,0.314,0.091,0.438c0.04,0.125,0.099,0.221,0.171,0.287c0.068,0.066,0.16,0.1,0.269,0.1
			c0.162,0,0.283-0.074,0.363-0.225c0.087-0.164,0.132-0.42,0.132-0.768c0-0.334-0.048-0.611-0.14-0.818
			C27.276,35.75,27.123,35.656,26.897,35.656"/>
		<path fill="#026937" d="M22.74,34.75c0.056,0.057,0.121,0.109,0.201,0.156c0.075,0.053,0.157,0.102,0.256,0.152l0.215,0.119
			c0.082-0.072,0.154-0.164,0.217-0.285c0.066-0.129,0.103-0.293,0.103-0.479c0-0.232-0.05-0.4-0.154-0.5
			c-0.103-0.098-0.236-0.148-0.395-0.148c-0.181,0-0.331,0.047-0.446,0.139c-0.118,0.096-0.173,0.23-0.173,0.404
			c0,0.1,0.015,0.182,0.046,0.25C22.641,34.627,22.685,34.692,22.74,34.75"/>
		<path fill="#026937" d="M19.98,36.535c-0.073-0.061-0.152-0.117-0.242-0.168c-0.095-0.051-0.193-0.104-0.294-0.158l-0.361-0.188
			c-0.138,0.102-0.236,0.225-0.299,0.375c-0.07,0.162-0.104,0.34-0.104,0.535c0,0.26,0.07,0.451,0.217,0.586
			c0.145,0.135,0.328,0.205,0.547,0.205c0.216,0,0.401-0.059,0.549-0.168c0.143-0.109,0.216-0.287,0.216-0.529
			c0-0.104-0.021-0.197-0.062-0.277C20.104,36.67,20.047,36.598,19.98,36.535"/>
		<path fill="#026937" d="M23.696,36.535c-0.07-0.061-0.152-0.117-0.241-0.168c-0.094-0.051-0.192-0.104-0.292-0.158L22.8,36.022
			c-0.137,0.102-0.239,0.227-0.302,0.375c-0.066,0.162-0.101,0.34-0.101,0.535c0,0.26,0.071,0.451,0.215,0.586
			c0.146,0.135,0.329,0.205,0.548,0.205c0.219,0,0.401-0.059,0.548-0.168c0.145-0.109,0.217-0.287,0.217-0.529
			c0-0.104-0.022-0.197-0.064-0.277C23.821,36.67,23.764,36.598,23.696,36.535"/>
		<path fill="#026937" d="M19.023,34.75c0.058,0.059,0.123,0.111,0.202,0.156c0.074,0.053,0.157,0.102,0.253,0.152l0.215,0.119
			c0.083-0.072,0.156-0.164,0.219-0.285c0.068-0.131,0.104-0.293,0.104-0.479c0-0.232-0.052-0.4-0.154-0.5
			c-0.106-0.102-0.236-0.148-0.396-0.148c-0.178,0-0.33,0.047-0.449,0.139c-0.113,0.096-0.17,0.23-0.17,0.404
			c0,0.098,0.014,0.18,0.046,0.25C18.924,34.627,18.97,34.694,19.023,34.75"/>
	</g>
</g>
</svg>
