<?xml version="1.0" encoding="UTF-8" standalone="no"?>
<svg
   xmlns:dc="http://purl.org/dc/elements/1.1/"
   xmlns:cc="http://creativecommons.org/ns#"
   xmlns:rdf="http://www.w3.org/1999/02/22-rdf-syntax-ns#"
   xmlns:svg="http://www.w3.org/2000/svg"
   xmlns="http://www.w3.org/2000/svg"
   viewBox="0 0 957.71332 301.35199"
   height="301.35199"
   width="957.71332"
   xml:space="preserve"
   id="svg2"
   version="1.1"><metadata
     id="metadata8"><rdf:RDF><cc:Work
         rdf:about=""><dc:format>image/svg+xml</dc:format><dc:type
           rdf:resource="http://purl.org/dc/dcmitype/StillImage" /></cc:Work></rdf:RDF></metadata><defs
     id="defs6"><clipPath
       id="clipPath18"
       clipPathUnits="userSpaceOnUse"><path
         id="path16"
         d="M 0,226.014 H 718.285 V 0 H 0 Z" /></clipPath></defs><g
     transform="matrix(1.3333333,0,0,-1.3333333,0,301.352)"
     id="g10"><g
       id="g12"><g
         clip-path="url(#clipPath18)"
         id="g14"><g
           transform="translate(75.7258,39.8845)"
           id="g20"><path
             id="path22"
             style="fill:#6d6d6c;fill-opacity:1;fill-rule:nonzero;stroke:#c99212;stroke-width:8.37800026;stroke-linecap:round;stroke-linejoin:round;stroke-miterlimit:4;stroke-dasharray:none;stroke-opacity:1"
             d="m 0,0 c 1.59,2.382 29.553,18.676 29.553,18.676 35.162,23.521 33.033,57.717 33.033,57.717 l -0.106,56.11 -0.029,15.477 -62.57,1.406 -62.96,-1.406 v -0.345 h -0.134 v -15.132 -56.11 c 0,0 -2.139,-34.196 33.041,-57.717 0,0 28.017,-15.906 29.599,-18.306" /></g><g
           transform="translate(75.7258,39.8845)"
           id="g24"><path
             id="path26"
             style="fill:#79242f;fill-opacity:1;fill-rule:nonzero;stroke:#1d1d1b;stroke-width:3.94199991;stroke-linecap:round;stroke-linejoin:round;stroke-miterlimit:4;stroke-dasharray:none;stroke-opacity:1"
             d="m 0,0 c 1.59,2.382 29.553,18.676 29.553,18.676 35.162,23.521 33.033,57.717 33.033,57.717 l -0.106,56.11 -62.599,-5.588 V 0.067" /></g><g
           transform="translate(75.6071,39.9518)"
           id="g28"><path
             id="path30"
             style="fill:#c99212;fill-opacity:1;fill-rule:nonzero;stroke:#1d1d1b;stroke-width:3.94199991;stroke-linecap:round;stroke-linejoin:round;stroke-miterlimit:4;stroke-dasharray:none;stroke-opacity:1"
             d="m 0,0 v 126.848 l -63.095,5.588 V 76.325 c 0,0 -2.138,-34.195 33.041,-57.717 0,0 28.017,-15.906 29.6,-18.305" /></g><g
           transform="translate(75.6071,189.2702)"
           id="g32"><path
             id="path34"
             style="fill:#1d1d1b;fill-opacity:1;fill-rule:nonzero;stroke:none"
             d="m 0,0 v -22.471 l 62.599,5.588 -0.029,15.478 z" /></g><g
           transform="translate(75.6071,189.2702)"
           id="g36"><path
             id="path38"
             style="fill:none;stroke:#1d1d1b;stroke-width:3.94199991;stroke-linecap:round;stroke-linejoin:round;stroke-miterlimit:4;stroke-dasharray:none;stroke-opacity:1"
             d="m 0,0 v -22.471 l 62.599,5.588 -0.029,15.478 z" /></g><g
           transform="translate(75.6071,189.2702)"
           id="g40"><path
             id="path42"
             style="fill:#6d6d6c;fill-opacity:1;fill-rule:nonzero;stroke:none"
             d="m 0,0 -62.96,-1.405 v -0.346 h -0.135 V -16.883 L 0,-22.471 Z" /></g><g
           transform="translate(75.6071,189.2702)"
           id="g44"><path
             id="path46"
             style="fill:none;stroke:#1d1d1b;stroke-width:3.94199991;stroke-linecap:round;stroke-linejoin:round;stroke-miterlimit:4;stroke-dasharray:none;stroke-opacity:1"
             d="m 0,0 -62.96,-1.405 v -0.346 h -0.135 V -16.883 L 0,-22.471 Z" /></g><g
           transform="translate(75.7258,39.8845)"
           id="g48"><path
             id="path50"
             style="fill:#79242f;fill-opacity:1;fill-rule:nonzero;stroke:#1d1d1b;stroke-width:0.493;stroke-linecap:round;stroke-linejoin:round;stroke-miterlimit:4;stroke-dasharray:none;stroke-opacity:1"
             d="m 0,0 c 1.59,2.382 29.553,18.676 29.553,18.676 35.162,23.521 33.033,57.717 33.033,57.717 l -0.106,56.11 -62.599,-5.588 V 0.067" /></g><g
           transform="translate(75.6071,39.9518)"
           id="g52"><path
             id="path54"
             style="fill:#c99212;fill-opacity:1;fill-rule:nonzero;stroke:#1d1d1b;stroke-width:0.493;stroke-linecap:round;stroke-linejoin:round;stroke-miterlimit:4;stroke-dasharray:none;stroke-opacity:1"
             d="m 0,0 v 126.848 l -63.095,5.588 V 76.325 c 0,0 -2.138,-34.195 33.041,-57.717 0,0 28.017,-15.906 29.6,-18.305" /></g><g
           transform="translate(75.6071,189.2702)"
           id="g56"><path
             id="path58"
             style="fill:#1d1d1b;fill-opacity:1;fill-rule:nonzero;stroke:none"
             d="m 0,0 v -22.471 l 62.599,5.588 -0.029,15.478 z" /></g><g
           transform="translate(75.6071,189.2702)"
           id="g60"><path
             id="path62"
             style="fill:none;stroke:#1d1d1b;stroke-width:0.493;stroke-linecap:round;stroke-linejoin:round;stroke-miterlimit:4;stroke-dasharray:none;stroke-opacity:1"
             d="m 0,0 v -22.471 l 62.599,5.588 -0.029,15.478 z" /></g><g
           transform="translate(75.6071,189.2702)"
           id="g64"><path
             id="path66"
             style="fill:#6d6d6c;fill-opacity:1;fill-rule:nonzero;stroke:none"
             d="m 0,0 -62.96,-1.405 v -0.346 h -0.135 V -16.883 L 0,-22.471 Z" /></g><g
           transform="translate(75.6071,189.2702)"
           id="g68"><path
             id="path70"
             style="fill:none;stroke:#1d1d1b;stroke-width:0.493;stroke-linecap:round;stroke-linejoin:round;stroke-miterlimit:4;stroke-dasharray:none;stroke-opacity:1"
             d="m 0,0 -62.96,-1.405 v -0.346 h -0.135 V -16.883 L 0,-22.471 Z" /></g><g
           transform="translate(33.6447,140.322)"
           id="g72"><path
             id="path74"
             style="fill:#ffffff;fill-opacity:1;fill-rule:nonzero;stroke:none"
             d="m 0,0 c -1.077,0.521 -2.272,0.875 -3.467,0.875 -3.586,0 -5.648,-2.887 -5.648,-6.27 0,-3.383 2.105,-6.32 5.74,-6.32 1.12,0 2.18,0.261 3.236,0.682 L 0.564,-12.8 c -1.313,-0.582 -2.702,-0.91 -4.154,-0.91 -4.776,0 -7.894,3.779 -7.894,8.399 0,4.689 3.135,8.139 7.92,8.139 1.523,0 3.097,-0.496 4.405,-1.161 z" /></g><g
           transform="translate(33.6447,140.322)"
           id="g76"><path
             id="path78"
             style="fill:none;stroke:#1d1d1b;stroke-width:1.57700002;stroke-linecap:butt;stroke-linejoin:miter;stroke-miterlimit:10;stroke-dasharray:none;stroke-opacity:1"
             d="m 0,0 c -1.077,0.521 -2.272,0.875 -3.467,0.875 -3.586,0 -5.648,-2.887 -5.648,-6.27 0,-3.383 2.105,-6.32 5.74,-6.32 1.12,0 2.18,0.261 3.236,0.682 L 0.564,-12.8 c -1.313,-0.582 -2.702,-0.91 -4.154,-0.91 -4.776,0 -7.894,3.779 -7.894,8.399 0,4.689 3.135,8.139 7.92,8.139 1.523,0 3.097,-0.496 4.405,-1.161 z" /></g><g
           transform="translate(43.4367,129.3141)"
           id="g80"><path
             id="path82"
             style="fill:#ffffff;fill-opacity:1;fill-rule:nonzero;stroke:none"
             d="M 0,0 V 3.677 C -0.53,3.257 -1.473,3.097 -2.335,2.912 -3.703,2.608 -4.94,2.229 -4.94,0.917 c 0,-1.229 0.984,-1.784 2.554,-1.784 0.842,0 1.683,0.135 2.441,0.396 C 0.055,-0.471 0,-0.16 0,0 m -2.386,-2.702 c -2.861,0 -4.898,1.152 -4.898,3.459 0,2.566 2.108,3.274 4.032,3.67 1.687,0.353 3.231,0.547 3.231,1.691 0,1.356 -1.287,1.591 -2.293,1.591 -1.195,0 -2.605,-0.538 -3.097,-0.749 l -0.728,1.632 c 1.148,0.548 2.726,0.944 3.964,0.944 2.789,0 4.292,-1.288 4.292,-3.755 v -6.109 c 0,-0.498 0.16,-1.499 0.16,-1.499 -1.381,-0.446 -3.047,-0.875 -4.663,-0.875" /></g><g
           transform="translate(43.4367,129.3141)"
           id="g84"><path
             id="path86"
             style="fill:none;stroke:#1d1d1b;stroke-width:1.57700002;stroke-linecap:butt;stroke-linejoin:miter;stroke-miterlimit:10;stroke-dasharray:none;stroke-opacity:1"
             d="M 0,0 V 3.677 C -0.53,3.257 -1.473,3.097 -2.335,2.912 -3.703,2.608 -4.94,2.229 -4.94,0.917 c 0,-1.229 0.984,-1.784 2.554,-1.784 0.842,0 1.683,0.135 2.441,0.396 C 0.055,-0.471 0,-0.16 0,0 Z m -2.386,-2.702 c -2.861,0 -4.898,1.152 -4.898,3.459 0,2.566 2.108,3.274 4.032,3.67 1.687,0.353 3.231,0.547 3.231,1.691 0,1.356 -1.287,1.591 -2.293,1.591 -1.195,0 -2.605,-0.538 -3.097,-0.749 l -0.728,1.632 c 1.148,0.548 2.726,0.944 3.964,0.944 2.789,0 4.292,-1.288 4.292,-3.755 v -6.109 c 0,-0.498 0.16,-1.499 0.16,-1.499 -1.381,-0.446 -3.047,-0.875 -4.663,-0.875 z" /></g><g
           transform="translate(62.798,126.8737)"
           id="g88"><path
             id="path90"
             style="fill:#ffffff;fill-opacity:1;fill-rule:nonzero;stroke:none"
             d="m 0,0 v 7.549 c 0,1.565 -0.724,2.6 -2.39,2.6 -0.935,0 -1.805,-0.32 -2.643,-0.724 0.181,-0.513 0.227,-1.076 0.227,-1.623 V 0 H -6.91 v 7.574 c 0,1.565 -0.774,2.575 -2.394,2.575 -0.842,0 -1.713,-0.269 -2.504,-0.615 0,0 0.046,-0.395 0.046,-0.604 V 0 h -2.108 v 9.283 c 0,0.495 -0.143,1.523 -0.143,1.523 1.456,0.564 3.371,1.171 4.944,1.171 1.364,0 2.458,-0.253 3.262,-1.08 1.144,0.59 2.319,1.08 3.909,1.08 2.533,0 4.011,-1.407 4.011,-3.982 L 2.113,0 Z" /></g><g
           transform="translate(62.798,126.8737)"
           id="g92"><path
             id="path94"
             style="fill:none;stroke:#1d1d1b;stroke-width:1.57700002;stroke-linecap:butt;stroke-linejoin:miter;stroke-miterlimit:10;stroke-dasharray:none;stroke-opacity:1"
             d="m 0,0 v 7.549 c 0,1.565 -0.724,2.6 -2.39,2.6 -0.935,0 -1.805,-0.32 -2.643,-0.724 0.181,-0.513 0.227,-1.076 0.227,-1.623 V 0 H -6.91 v 7.574 c 0,1.565 -0.774,2.575 -2.394,2.575 -0.842,0 -1.713,-0.269 -2.504,-0.615 0,0 0.046,-0.395 0.046,-0.604 V 0 h -2.108 v 9.283 c 0,0.495 -0.143,1.523 -0.143,1.523 1.456,0.564 3.371,1.171 4.944,1.171 1.364,0 2.458,-0.253 3.262,-1.08 1.144,0.59 2.319,1.08 3.909,1.08 2.533,0 4.011,-1.407 4.011,-3.982 L 2.113,0 Z" /></g><g
           transform="translate(72.5226,137.0231)"
           id="g96"><path
             id="path98"
             style="fill:#ffffff;fill-opacity:1;fill-rule:nonzero;stroke:none"
             d="m 0,0 c -0.724,0 -1.616,-0.253 -2.221,-0.69 v -7.112 c 0,-0.261 -0.017,-0.428 -0.017,-0.428 0.555,-0.211 1.35,-0.346 1.94,-0.346 2.529,0 3.694,2.061 3.694,4.377 C 3.396,-2.036 2.42,0 0,0 m -0.324,-10.411 c -1.312,0 -2.903,0.311 -4.128,0.783 0,0 0.118,0.959 0.118,1.398 V 7.061 h 2.113 V 1.203 c 0.795,0.412 1.733,0.624 2.625,0.624 3.581,0 5.34,-2.711 5.34,-6.06 0,-3.569 -2.457,-6.178 -6.068,-6.178" /></g><g
           transform="translate(72.5226,137.0231)"
           id="g100"><path
             id="path102"
             style="fill:none;stroke:#1d1d1b;stroke-width:1.57700002;stroke-linecap:butt;stroke-linejoin:miter;stroke-miterlimit:10;stroke-dasharray:none;stroke-opacity:1"
             d="m 0,0 c -0.724,0 -1.616,-0.253 -2.221,-0.69 v -7.112 c 0,-0.261 -0.017,-0.428 -0.017,-0.428 0.555,-0.211 1.35,-0.346 1.94,-0.346 2.529,0 3.694,2.061 3.694,4.377 C 3.396,-2.036 2.42,0 0,0 Z m -0.324,-10.411 c -1.312,0 -2.903,0.311 -4.128,0.783 0,0 0.118,0.959 0.118,1.398 V 7.061 h 2.113 V 1.203 c 0.795,0.412 1.733,0.624 2.625,0.624 3.581,0 5.34,-2.711 5.34,-6.06 0,-3.569 -2.457,-6.178 -6.068,-6.178 z" /></g><g
           transform="translate(86.7292,136.7878)"
           id="g104"><path
             id="path106"
             style="fill:#ffffff;fill-opacity:1;fill-rule:nonzero;stroke:none"
             d="m 0,0 c -0.446,0.093 -0.913,0.143 -1.359,0.143 -0.77,0 -1.544,-0.143 -2.272,-0.404 0,0 0.021,-0.321 0.021,-0.488 V -9.914 H -5.715 V -0.8 c 0,0.539 -0.189,1.65 -0.189,1.65 1.524,0.648 3.139,1.213 4.831,1.213 0.589,0 1.14,-0.06 1.704,-0.212 z" /></g><g
           transform="translate(86.7292,136.7878)"
           id="g108"><path
             id="path110"
             style="fill:none;stroke:#1d1d1b;stroke-width:1.57700002;stroke-linecap:butt;stroke-linejoin:miter;stroke-miterlimit:10;stroke-dasharray:none;stroke-opacity:1"
             d="m 0,0 c -0.446,0.093 -0.913,0.143 -1.359,0.143 -0.77,0 -1.544,-0.143 -2.272,-0.404 0,0 0.021,-0.321 0.021,-0.488 V -9.914 H -5.715 V -0.8 c 0,0.539 -0.189,1.65 -0.189,1.65 1.524,0.648 3.139,1.213 4.831,1.213 0.589,0 1.14,-0.06 1.704,-0.212 z" /></g><path
           id="path112"
           style="fill:#ffffff;fill-opacity:1;fill-rule:nonzero;stroke:none"
           d="m 89.452,138.597 h 2.108 v -11.724 h -2.108 z m 1.002,2.717 c -0.754,0 -1.33,0.515 -1.33,1.288 0,0.75 0.576,1.315 1.33,1.315 0.757,0 1.387,-0.565 1.387,-1.315 0,-0.773 -0.63,-1.288 -1.387,-1.288" /><path
           id="path114"
           style="fill:none;stroke:#1d1d1b;stroke-width:1.57700002;stroke-linecap:butt;stroke-linejoin:miter;stroke-miterlimit:10;stroke-dasharray:none;stroke-opacity:1"
           d="m 89.452,138.597 h 2.108 v -11.724 h -2.108 z m 1.002,2.717 c -0.754,0 -1.33,0.515 -1.33,1.288 0,0.75 0.576,1.315 1.33,1.315 0.757,0 1.387,-0.565 1.387,-1.315 0,-0.773 -0.63,-1.288 -1.387,-1.288 z" /><g
           transform="translate(102.3874,129.2214)"
           id="g116"><path
             id="path118"
             style="fill:#ffffff;fill-opacity:1;fill-rule:nonzero;stroke:none"
             d="m 0,0 v 7.111 c -0.606,0.438 -1.494,0.691 -2.23,0.691 -2.412,0 -3.442,-2.036 -3.442,-4.199 0,-2.316 1.22,-4.377 3.754,-4.377 0.58,0 1.379,0.134 1.939,0.345 C 0.021,-0.429 0,-0.261 0,0 m -1.898,-2.609 c -3.606,0 -6.118,2.609 -6.118,6.177 0,3.35 1.805,6.061 5.394,6.061 0.884,0 1.823,-0.212 2.622,-0.624 v 5.857 H 2.112 V -0.429 c 0,-0.438 0.118,-1.397 0.118,-1.397 -1.229,-0.472 -2.819,-0.783 -4.128,-0.783" /></g><g
           transform="translate(102.3874,129.2214)"
           id="g120"><path
             id="path122"
             style="fill:none;stroke:#1d1d1b;stroke-width:1.57700002;stroke-linecap:butt;stroke-linejoin:miter;stroke-miterlimit:10;stroke-dasharray:none;stroke-opacity:1"
             d="m 0,0 v 7.111 c -0.606,0.438 -1.494,0.691 -2.23,0.691 -2.412,0 -3.442,-2.036 -3.442,-4.199 0,-2.316 1.22,-4.377 3.754,-4.377 0.58,0 1.379,0.134 1.939,0.345 C 0.021,-0.429 0,-0.261 0,0 Z m -1.898,-2.609 c -3.606,0 -6.118,2.609 -6.118,6.177 0,3.35 1.805,6.061 5.394,6.061 0.884,0 1.823,-0.212 2.622,-0.624 v 5.857 H 2.112 V -0.429 c 0,-0.438 0.118,-1.397 0.118,-1.397 -1.229,-0.472 -2.819,-0.783 -4.128,-0.783 z" /></g><g
           transform="translate(112.0656,137.0475)"
           id="g124"><path
             id="path126"
             style="fill:#ffffff;fill-opacity:1;fill-rule:nonzero;stroke:none"
             d="m 0,0 c -1.544,0 -2.65,-0.933 -2.65,-2.533 0,-1.59 1.106,-2.507 2.65,-2.507 1.544,0 2.647,0.917 2.647,2.507 C 2.647,-0.933 1.544,0 0,0 m -1.405,-10.174 c -0.959,-0.304 -2.037,-0.934 -2.037,-2.087 0,-1.499 2.365,-1.785 3.463,-1.785 1.149,0 3.434,0.311 3.434,1.852 0,1.716 -3.665,1.691 -4.86,2.02 m 1.426,-5.572 c -2.104,0 -5.482,0.656 -5.482,3.367 0,1.81 1.316,2.676 2.789,3.122 -0.324,0.328 -0.559,0.842 -0.559,1.339 0,0.647 0.445,1.245 0.963,1.59 -1.527,0.706 -2.445,2.13 -2.445,3.83 0,2.709 2.138,4.301 4.713,4.301 0.766,0 1.52,-0.253 2.298,-0.253 h 3.299 v -1.667 c -0.484,0 -1.355,0 -1.843,0.21 0,0 0,-0.051 -0.05,-0.051 0.564,-0.697 1.01,-1.657 1.01,-2.54 0,-2.425 -1.739,-3.99 -4.057,-4.259 -0.425,-0.034 -0.817,-0.034 -1.241,-0.034 -0.308,-0.152 -0.754,-0.403 -0.754,-0.816 0,-1.954 6.985,-0.102 6.985,-4.46 0,-2.896 -3.303,-3.679 -5.626,-3.679" /></g><g
           transform="translate(112.0656,137.0475)"
           id="g128"><path
             id="path130"
             style="fill:none;stroke:#1d1d1b;stroke-width:1.57700002;stroke-linecap:butt;stroke-linejoin:miter;stroke-miterlimit:10;stroke-dasharray:none;stroke-opacity:1"
             d="m 0,0 c -1.544,0 -2.65,-0.933 -2.65,-2.533 0,-1.59 1.106,-2.507 2.65,-2.507 1.544,0 2.647,0.917 2.647,2.507 C 2.647,-0.933 1.544,0 0,0 Z m -1.405,-10.174 c -0.959,-0.304 -2.037,-0.934 -2.037,-2.087 0,-1.499 2.365,-1.785 3.463,-1.785 1.149,0 3.434,0.311 3.434,1.852 0,1.716 -3.665,1.691 -4.86,2.02 z m 1.426,-5.572 c -2.104,0 -5.482,0.656 -5.482,3.367 0,1.81 1.316,2.676 2.789,3.122 -0.324,0.328 -0.559,0.842 -0.559,1.339 0,0.647 0.445,1.245 0.963,1.59 -1.527,0.706 -2.445,2.13 -2.445,3.83 0,2.709 2.138,4.301 4.713,4.301 0.766,0 1.52,-0.253 2.298,-0.253 h 3.299 v -1.667 c -0.484,0 -1.355,0 -1.843,0.21 0,0 0,-0.051 -0.05,-0.051 0.564,-0.697 1.01,-1.657 1.01,-2.54 0,-2.425 -1.739,-3.99 -4.057,-4.259 -0.425,-0.034 -0.817,-0.034 -1.241,-0.034 -0.308,-0.152 -0.754,-0.403 -0.754,-0.816 0,-1.954 6.985,-0.102 6.985,-4.46 0,-2.896 -3.303,-3.679 -5.626,-3.679 z" /></g><g
           transform="translate(124.4162,137.0475)"
           id="g132"><path
             id="path134"
             style="fill:#ffffff;fill-opacity:1;fill-rule:nonzero;stroke:none"
             d="M 0,0 C -1.826,0 -2.835,-1.506 -2.882,-3.332 H 2.811 C 2.79,-1.599 1.923,0 0,0 m 4.924,-5.04 h -7.806 c 0.122,-2.087 1.41,-3.561 3.657,-3.561 0.959,0 1.923,0.186 2.789,0.539 l 0.652,-1.59 c -1.119,-0.522 -2.381,-0.784 -3.622,-0.784 -3.594,0 -5.765,2.652 -5.765,6.144 0,3.215 1.658,6.095 5.147,6.095 3.286,0 5.066,-2.443 5.066,-5.556 0,-0.395 -0.051,-0.833 -0.118,-1.287" /></g><g
           transform="translate(124.4162,137.0475)"
           id="g136"><path
             id="path138"
             style="fill:none;stroke:#1d1d1b;stroke-width:1.57700002;stroke-linecap:butt;stroke-linejoin:miter;stroke-miterlimit:10;stroke-dasharray:none;stroke-opacity:1"
             d="M 0,0 C -1.826,0 -2.835,-1.506 -2.882,-3.332 H 2.811 C 2.79,-1.599 1.923,0 0,0 Z m 4.924,-5.04 h -7.806 c 0.122,-2.087 1.41,-3.561 3.657,-3.561 0.959,0 1.923,0.186 2.789,0.539 l 0.652,-1.59 c -1.119,-0.522 -2.381,-0.784 -3.622,-0.784 -3.594,0 -5.765,2.652 -5.765,6.144 0,3.215 1.658,6.095 5.147,6.095 3.286,0 5.066,-2.443 5.066,-5.556 0,-0.395 -0.051,-0.833 -0.118,-1.287 z" /></g><g
           transform="translate(33.6447,140.322)"
           id="g140"><path
             id="path142"
             style="fill:#ffffff;fill-opacity:1;fill-rule:nonzero;stroke:none"
             d="m 0,0 c -1.077,0.521 -2.272,0.875 -3.467,0.875 -3.586,0 -5.648,-2.887 -5.648,-6.27 0,-3.383 2.105,-6.32 5.74,-6.32 1.12,0 2.18,0.261 3.236,0.682 L 0.564,-12.8 c -1.313,-0.582 -2.702,-0.91 -4.154,-0.91 -4.776,0 -7.894,3.779 -7.894,8.399 0,4.689 3.135,8.139 7.92,8.139 1.523,0 3.097,-0.496 4.405,-1.161 z" /></g><g
           transform="translate(43.4367,129.3141)"
           id="g144"><path
             id="path146"
             style="fill:#ffffff;fill-opacity:1;fill-rule:nonzero;stroke:none"
             d="M 0,0 V 3.677 C -0.53,3.257 -1.473,3.097 -2.335,2.912 -3.703,2.608 -4.94,2.229 -4.94,0.917 c 0,-1.229 0.984,-1.784 2.554,-1.784 0.842,0 1.683,0.135 2.441,0.396 C 0.055,-0.471 0,-0.16 0,0 m -2.386,-2.702 c -2.861,0 -4.898,1.152 -4.898,3.459 0,2.566 2.108,3.274 4.032,3.67 1.687,0.353 3.231,0.547 3.231,1.691 0,1.356 -1.287,1.591 -2.293,1.591 -1.195,0 -2.605,-0.538 -3.097,-0.749 l -0.728,1.632 c 1.148,0.548 2.726,0.944 3.964,0.944 2.789,0 4.292,-1.288 4.292,-3.755 v -6.109 c 0,-0.498 0.16,-1.499 0.16,-1.499 -1.381,-0.446 -3.047,-0.875 -4.663,-0.875" /></g><g
           transform="translate(62.798,126.8737)"
           id="g148"><path
             id="path150"
             style="fill:#ffffff;fill-opacity:1;fill-rule:nonzero;stroke:none"
             d="m 0,0 v 7.549 c 0,1.565 -0.724,2.6 -2.39,2.6 -0.935,0 -1.805,-0.32 -2.643,-0.724 0.181,-0.513 0.227,-1.076 0.227,-1.623 V 0 H -6.91 v 7.574 c 0,1.565 -0.774,2.575 -2.394,2.575 -0.842,0 -1.713,-0.269 -2.504,-0.615 0,0 0.046,-0.395 0.046,-0.604 V 0 h -2.108 v 9.283 c 0,0.495 -0.143,1.523 -0.143,1.523 1.456,0.564 3.371,1.171 4.944,1.171 1.364,0 2.458,-0.253 3.262,-1.08 1.144,0.59 2.319,1.08 3.909,1.08 2.533,0 4.011,-1.407 4.011,-3.982 L 2.113,0 Z" /></g><g
           transform="translate(72.5226,137.0231)"
           id="g152"><path
             id="path154"
             style="fill:#ffffff;fill-opacity:1;fill-rule:nonzero;stroke:none"
             d="m 0,0 c -0.724,0 -1.616,-0.253 -2.221,-0.69 v -7.112 c 0,-0.261 -0.017,-0.428 -0.017,-0.428 0.555,-0.211 1.35,-0.346 1.94,-0.346 2.529,0 3.694,2.061 3.694,4.377 C 3.396,-2.036 2.42,0 0,0 m -0.324,-10.411 c -1.312,0 -2.903,0.311 -4.128,0.783 0,0 0.118,0.959 0.118,1.398 V 7.061 h 2.113 V 1.203 c 0.795,0.412 1.733,0.624 2.625,0.624 3.581,0 5.34,-2.711 5.34,-6.06 0,-3.569 -2.457,-6.178 -6.068,-6.178" /></g><g
           transform="translate(86.7292,136.7878)"
           id="g156"><path
             id="path158"
             style="fill:#ffffff;fill-opacity:1;fill-rule:nonzero;stroke:none"
             d="m 0,0 c -0.446,0.093 -0.913,0.143 -1.359,0.143 -0.77,0 -1.544,-0.143 -2.272,-0.404 0,0 0.021,-0.321 0.021,-0.488 V -9.914 H -5.715 V -0.8 c 0,0.539 -0.189,1.65 -0.189,1.65 1.524,0.648 3.139,1.213 4.831,1.213 0.589,0 1.14,-0.06 1.704,-0.212 z" /></g><path
           id="path160"
           style="fill:#ffffff;fill-opacity:1;fill-rule:nonzero;stroke:none"
           d="m 89.452,138.597 h 2.108 v -11.724 h -2.108 z m 1.002,2.717 c -0.754,0 -1.33,0.515 -1.33,1.288 0,0.75 0.576,1.315 1.33,1.315 0.757,0 1.387,-0.565 1.387,-1.315 0,-0.773 -0.63,-1.288 -1.387,-1.288" /><g
           transform="translate(102.3874,129.2214)"
           id="g162"><path
             id="path164"
             style="fill:#ffffff;fill-opacity:1;fill-rule:nonzero;stroke:none"
             d="m 0,0 v 7.111 c -0.606,0.438 -1.494,0.691 -2.23,0.691 -2.412,0 -3.442,-2.036 -3.442,-4.199 0,-2.316 1.22,-4.377 3.754,-4.377 0.58,0 1.379,0.134 1.939,0.345 C 0.021,-0.429 0,-0.261 0,0 m -1.898,-2.609 c -3.606,0 -6.118,2.609 -6.118,6.177 0,3.35 1.805,6.061 5.394,6.061 0.884,0 1.823,-0.212 2.622,-0.624 v 5.857 H 2.112 V -0.429 c 0,-0.438 0.118,-1.397 0.118,-1.397 -1.229,-0.472 -2.819,-0.783 -4.128,-0.783" /></g><g
           transform="translate(112.0656,137.0475)"
           id="g166"><path
             id="path168"
             style="fill:#ffffff;fill-opacity:1;fill-rule:nonzero;stroke:none"
             d="m 0,0 c -1.544,0 -2.65,-0.933 -2.65,-2.533 0,-1.59 1.106,-2.507 2.65,-2.507 1.544,0 2.647,0.917 2.647,2.507 C 2.647,-0.933 1.544,0 0,0 m -1.405,-10.174 c -0.959,-0.304 -2.037,-0.934 -2.037,-2.087 0,-1.499 2.365,-1.785 3.463,-1.785 1.149,0 3.434,0.311 3.434,1.852 0,1.716 -3.665,1.691 -4.86,2.02 m 1.426,-5.572 c -2.104,0 -5.482,0.656 -5.482,3.367 0,1.81 1.316,2.676 2.789,3.122 -0.324,0.328 -0.559,0.842 -0.559,1.339 0,0.647 0.445,1.245 0.963,1.59 -1.527,0.706 -2.445,2.13 -2.445,3.83 0,2.709 2.138,4.301 4.713,4.301 0.766,0 1.52,-0.253 2.298,-0.253 h 3.299 v -1.667 c -0.484,0 -1.355,0 -1.843,0.21 0,0 0,-0.051 -0.05,-0.051 0.564,-0.697 1.01,-1.657 1.01,-2.54 0,-2.425 -1.739,-3.99 -4.057,-4.259 -0.425,-0.034 -0.817,-0.034 -1.241,-0.034 -0.308,-0.152 -0.754,-0.403 -0.754,-0.816 0,-1.954 6.985,-0.102 6.985,-4.46 0,-2.896 -3.303,-3.679 -5.626,-3.679" /></g><g
           transform="translate(124.4162,137.0475)"
           id="g170"><path
             id="path172"
             style="fill:#ffffff;fill-opacity:1;fill-rule:nonzero;stroke:none"
             d="M 0,0 C -1.826,0 -2.835,-1.506 -2.882,-3.332 H 2.811 C 2.79,-1.599 1.923,0 0,0 m 4.924,-5.04 h -7.806 c 0.122,-2.087 1.41,-3.561 3.657,-3.561 0.959,0 1.923,0.186 2.789,0.539 l 0.652,-1.59 c -1.119,-0.522 -2.381,-0.784 -3.622,-0.784 -3.594,0 -5.765,2.652 -5.765,6.144 0,3.215 1.658,6.095 5.147,6.095 3.286,0 5.066,-2.443 5.066,-5.556 0,-0.395 -0.051,-0.833 -0.118,-1.287" /></g><g
           transform="translate(173.8737,85.2956)"
           id="g174"><path
             id="path176"
             style="fill:#1d1d1b;fill-opacity:1;fill-rule:nonzero;stroke:none"
             d="m 0,0 h 0.455 c 1.606,0 3.09,0.728 4.363,2.121 L 7.333,-0.151 C 5.333,-2.333 3.03,-3.303 0.455,-3.303 H 0 c -6.667,0 -9.606,5.758 -9.606,11.97 0,6.212 2.939,11.939 9.606,11.939 h 0.455 c 2.575,0 4.878,-0.969 6.878,-3.151 L 4.818,15.183 C 3.545,16.576 2.061,17.304 0.455,17.304 H 0 c -4.333,0 -6.182,-4.212 -6.182,-8.637 C -6.182,4.212 -4.333,0 0,0" /></g><g
           transform="translate(193.7555,89.9323)"
           id="g178"><path
             id="path180"
             style="fill:#1d1d1b;fill-opacity:1;fill-rule:nonzero;stroke:none"
             d="m 0,0 c -0.576,0.212 -1.606,0.484 -2.97,0.484 -2.242,0 -3,-1.635 -3,-2.696 0,-1.122 0.606,-2.455 2.697,-2.455 1.697,0 3.152,1.333 3.273,4.667 M 3.212,0.818 V -7.637 H 0 v 1.212 c -0.879,-1 -2.03,-1.393 -3.273,-1.393 -4.333,0 -5.939,2.727 -5.939,5.576 0,2.514 1.848,5.788 6.242,5.788 1.303,0 2.909,-0.455 2.909,-0.455 -0.242,1.576 -0.818,2.606 -2.666,2.606 -1.031,0 -2.576,-0.425 -3.879,-1.455 l -1.909,2.516 c 2,1.575 3.97,2.091 5.788,2.091 5.879,0 5.939,-4.667 5.939,-8.031" /></g><g
           transform="translate(216.8493,82.2956)"
           id="g182"><path
             id="path184"
             style="fill:#1d1d1b;fill-opacity:1;fill-rule:nonzero;stroke:none"
             d="m 0,0 v 10.182 c 0,1.546 -0.757,3.152 -2.576,3.152 -1.242,0 -2.151,-0.788 -2.454,-1.425 0.121,-0.545 0.121,-1 0.121,-1.727 V 0 h -3.213 v 10.182 c 0,1.546 -0.757,3.152 -2.575,3.152 -1.576,0 -2.334,-1.213 -2.334,-1.213 V 0 h -3.212 v 13.183 c 0,0 1.394,3.302 5.546,3.302 1.667,0 3,-0.576 3.969,-1.454 0.849,0.727 2.273,1.454 4.152,1.454 4.182,0 5.788,-3.242 5.788,-6.303 L 3.212,0 Z" /></g><g
           transform="translate(226.9137,90.447)"
           id="g186"><path
             id="path188"
             style="fill:#1d1d1b;fill-opacity:1;fill-rule:nonzero;stroke:none"
             d="m 0,0 c 0,-2.484 1.031,-5.182 3.667,-5.182 2.697,0 3.636,2.698 3.636,5.182 0,2.485 -0.939,5.183 -3.636,5.183 C 1.031,5.183 0,2.485 0,0 M 0,-6.818 V -8.151 H -3.212 V 15.152 H 0 V 6.818 c 0.788,0.849 2.031,1.516 3.667,1.516 4.879,0 6.849,-4.091 6.849,-8.334 0,-4.242 -1.97,-8.333 -6.849,-8.333 -1.636,0 -2.879,0.666 -3.667,1.515" /></g><g
           transform="translate(249.1593,94.5993)"
           id="g190"><path
             id="path192"
             style="fill:#1d1d1b;fill-opacity:1;fill-rule:nonzero;stroke:none"
             d="m 0,0 c -0.545,0.605 -1.333,1.03 -2.333,1.03 -1.849,0 -2.849,-1.213 -2.849,-1.213 V -12.304 H -8.394 V 0.879 c 0,0 2.061,3.303 6.061,3.303 1.575,0 2.848,-0.454 3.848,-1.182 z" /></g><path
           id="path194"
           style="fill:#1d1d1b;fill-opacity:1;fill-rule:nonzero;stroke:none"
           d="m 254.313,82.296 h 3.212 V 98.6 h -3.212 z m 1.607,21.727 c 1.06,0 1.939,-0.878 1.939,-1.939 0,-1.061 -0.879,-1.91 -1.939,-1.91 -1.061,0 -1.91,0.849 -1.91,1.91 0,1.061 0.849,1.939 1.91,1.939" /><g
           transform="translate(264.4055,90.447)"
           id="g196"><path
             id="path198"
             style="fill:#1d1d1b;fill-opacity:1;fill-rule:nonzero;stroke:none"
             d="m 0,0 c 0,-2.484 0.939,-5.182 3.636,-5.182 2.637,0 3.667,2.698 3.667,5.182 0,2.485 -1.03,5.183 -3.667,5.183 C 0.939,5.183 0,2.485 0,0 m -3.212,0 c 0,4.243 1.969,8.334 6.848,8.334 1.637,0 2.879,-0.667 3.667,-1.516 v 8.334 h 3.212 V -8.151 H 7.303 v 1.333 c -0.788,-0.849 -2.03,-1.515 -3.667,-1.515 -4.879,0 -6.848,4.091 -6.848,8.333" /></g><g
           transform="translate(288.7726,90.447)"
           id="g200"><path
             id="path202"
             style="fill:#1d1d1b;fill-opacity:1;fill-rule:nonzero;stroke:none"
             d="m 0,0 c 0,2.485 -1.03,5.183 -3.667,5.183 -2.697,0 -3.636,-2.698 -3.636,-5.183 0,-2.484 0.939,-5.182 3.636,-5.182 C -1.03,-5.182 0,-2.484 0,0 M 0,6.818 V 8.152 H 3.212 V -8.333 c -0.091,-4.091 -2.606,-6.818 -6.697,-6.818 h -0.394 c -1.758,0 -3.667,0.605 -5.667,1.545 l 1.424,2.878 c 2.273,-1.211 3.576,-1.302 4.243,-1.302 h 0.394 c 2.152,0 3.485,1.667 3.485,3.697 v 1.515 c -0.788,-0.849 -2.03,-1.515 -3.667,-1.515 -4.879,0 -6.849,4.091 -6.849,8.333 0,4.243 1.97,8.334 6.849,8.334 1.637,0 2.879,-0.667 3.667,-1.516" /></g><g
           transform="translate(298.6843,91.8718)"
           id="g204"><path
             id="path206"
             style="fill:#1d1d1b;fill-opacity:1;fill-rule:nonzero;stroke:none"
             d="M 0,0 H 6.364 C 6.152,2 5.303,3.758 3.182,3.758 1.061,3.758 0.212,2 0,0 m -3.364,-1.425 c 0,4.243 1.667,8.334 6.546,8.334 5.151,0 6.546,-4.667 6.546,-7.212 0,-2.061 -0.94,-2.848 -2.94,-2.848 H 0.03 c 0.273,-1.758 1.425,-3.455 3.909,-3.455 1.304,0 2.637,0.455 4.031,1.333 l 1.636,-2.545 c -2.212,-1.577 -4.151,-1.94 -5.667,-1.94 -5.606,0 -7.303,4.091 -7.303,8.333" /></g><path
           id="path208"
           style="fill:#1d1d1b;fill-opacity:1;fill-rule:nonzero;stroke:none"
           d="m 321.446,105.599 h 3.333 V 82.295 h -3.333 z" /><g
           transform="translate(338.2355,82.2956)"
           id="g210"><path
             id="path212"
             style="fill:#1d1d1b;fill-opacity:1;fill-rule:nonzero;stroke:none"
             d="m 0,0 v 10.182 c 0,1.485 -1.122,3.152 -3.152,3.152 C -5,13.334 -6,12.121 -6,12.121 V 0 h -3.212 v 13.183 c 0,0 2.06,3.302 6.06,3.302 4.213,0 6.364,-3.242 6.364,-6.303 L 3.212,0 Z" /></g><g
           transform="translate(351.9055,82.2956)"
           id="g214"><path
             id="path216"
             style="fill:#1d1d1b;fill-opacity:1;fill-rule:nonzero;stroke:none"
             d="m 0,0 c -3.152,0 -4.485,2.061 -4.485,4.697 v 8.455 h -2.637 v 3.152 h 2.637 v 3.879 h 3.212 V 16.304 H 2.394 V 13.152 H -1.273 V 4.697 c 0,-1 0.424,-1.515 1.273,-1.515 H 2.394 L 2.394,0 Z" /></g><g
           transform="translate(360.695,91.8718)"
           id="g218"><path
             id="path220"
             style="fill:#1d1d1b;fill-opacity:1;fill-rule:nonzero;stroke:none"
             d="M 0,0 H 6.364 C 6.152,2 5.303,3.758 3.182,3.758 1.061,3.758 0.212,2 0,0 m -3.364,-1.425 c 0,4.243 1.667,8.334 6.546,8.334 5.151,0 6.546,-4.667 6.546,-7.212 0,-2.061 -0.94,-2.848 -2.94,-2.848 H 0.03 c 0.273,-1.758 1.425,-3.455 3.909,-3.455 1.304,0 2.637,0.455 4.031,1.333 l 1.636,-2.545 c -2.212,-1.577 -4.151,-1.94 -5.667,-1.94 -5.606,0 -7.303,4.091 -7.303,8.333" /></g><g
           transform="translate(382.1525,94.5993)"
           id="g222"><path
             id="path224"
             style="fill:#1d1d1b;fill-opacity:1;fill-rule:nonzero;stroke:none"
             d="m 0,0 c -0.546,0.605 -1.333,1.03 -2.333,1.03 -1.849,0 -2.849,-1.213 -2.849,-1.213 V -12.304 H -8.394 V 0.879 c 0,0 2.061,3.303 6.061,3.303 1.575,0 2.849,-0.454 3.849,-1.182 z" /></g><g
           transform="translate(396.215,82.2956)"
           id="g226"><path
             id="path228"
             style="fill:#1d1d1b;fill-opacity:1;fill-rule:nonzero;stroke:none"
             d="m 0,0 v 10.182 c 0,1.485 -1.121,3.152 -3.151,3.152 C -5,13.334 -6,12.121 -6,12.121 V 0 h -3.212 v 13.183 c 0,0 2.061,3.302 6.061,3.302 4.212,0 6.364,-3.242 6.364,-6.303 V 0 Z" /></g><g
           transform="translate(411.9767,89.9323)"
           id="g230"><path
             id="path232"
             style="fill:#1d1d1b;fill-opacity:1;fill-rule:nonzero;stroke:none"
             d="m 0,0 c -0.576,0.212 -1.606,0.484 -2.97,0.484 -2.242,0 -3,-1.635 -3,-2.696 0,-1.122 0.607,-2.455 2.698,-2.455 1.696,0 3.151,1.333 3.272,4.667 M 3.212,0.818 V -7.637 H 0 v 1.212 c -0.879,-1 -2.03,-1.393 -3.272,-1.393 -4.334,0 -5.94,2.727 -5.94,5.576 0,2.514 1.848,5.788 6.242,5.788 1.303,0 2.909,-0.455 2.909,-0.455 -0.242,1.576 -0.818,2.606 -2.667,2.606 -1.03,0 -2.575,-0.425 -3.878,-1.455 l -1.91,2.516 c 2,1.575 3.97,2.091 5.788,2.091 5.879,0 5.94,-4.667 5.94,-8.031" /></g><g
           transform="translate(425.6457,82.2956)"
           id="g234"><path
             id="path236"
             style="fill:#1d1d1b;fill-opacity:1;fill-rule:nonzero;stroke:none"
             d="m 0,0 c -3.151,0 -4.485,2.061 -4.485,4.697 v 8.455 h -2.636 v 3.152 h 2.636 v 3.879 h 3.213 V 16.304 H 2.394 V 13.152 H -1.272 V 4.697 c 0,-1 0.423,-1.515 1.272,-1.515 H 2.394 V 0 Z" /></g><path
           id="path238"
           style="fill:#1d1d1b;fill-opacity:1;fill-rule:nonzero;stroke:none"
           d="m 431.678,82.296 h 3.213 V 98.6 h -3.213 z m 1.606,21.727 c 1.061,0 1.94,-0.878 1.94,-1.939 0,-1.061 -0.879,-1.91 -1.94,-1.91 -1.06,0 -1.909,0.849 -1.909,1.91 0,1.061 0.849,1.939 1.909,1.939" /><g
           transform="translate(449.0724,90.447)"
           id="g240"><path
             id="path242"
             style="fill:#1d1d1b;fill-opacity:1;fill-rule:nonzero;stroke:none"
             d="m 0,0 c 0,2.485 -0.97,5.183 -3.636,5.183 -2.636,0 -3.667,-2.698 -3.667,-5.183 0,-2.484 1.031,-5.182 3.667,-5.182 C -0.97,-5.182 0,-2.484 0,0 m -10.515,0 c 0,4.243 2.031,8.334 6.879,8.334 4.879,0 6.849,-4.091 6.849,-8.334 0,-4.242 -1.97,-8.333 -6.849,-8.333 -4.848,0 -6.879,4.091 -6.879,8.333" /></g><g
           transform="translate(464.8332,82.2956)"
           id="g244"><path
             id="path246"
             style="fill:#1d1d1b;fill-opacity:1;fill-rule:nonzero;stroke:none"
             d="m 0,0 v 10.182 c 0,1.485 -1.121,3.152 -3.151,3.152 C -5,13.334 -6,12.121 -6,12.121 V 0 h -3.212 v 13.183 c 0,0 2.061,3.302 6.061,3.302 4.212,0 6.364,-3.242 6.364,-6.303 V 0 Z" /></g><g
           transform="translate(480.5939,89.9323)"
           id="g248"><path
             id="path250"
             style="fill:#1d1d1b;fill-opacity:1;fill-rule:nonzero;stroke:none"
             d="m 0,0 c -0.576,0.212 -1.606,0.484 -2.97,0.484 -2.242,0 -3,-1.635 -3,-2.696 0,-1.122 0.607,-2.455 2.698,-2.455 1.696,0 3.151,1.333 3.272,4.667 M 3.212,0.818 V -7.637 H 0 v 1.212 c -0.879,-1 -2.03,-1.393 -3.272,-1.393 -4.334,0 -5.94,2.727 -5.94,5.576 0,2.514 1.848,5.788 6.242,5.788 1.303,0 2.909,-0.455 2.909,-0.455 -0.242,1.576 -0.818,2.606 -2.667,2.606 -1.03,0 -2.575,-0.425 -3.878,-1.455 l -1.91,2.516 c 2,1.575 3.97,2.091 5.788,2.091 5.879,0 5.94,-4.667 5.94,-8.031" /></g><path
           id="path252"
           style="fill:#1d1d1b;fill-opacity:1;fill-rule:nonzero;stroke:none"
           d="m 488.051,105.599 h 3.213 V 82.295 h -3.213 z" /><g
           transform="translate(513.2668,95.3874)"
           id="g254"><path
             id="path256"
             style="fill:#1d1d1b;fill-opacity:1;fill-rule:nonzero;stroke:none"
             d="M 0,0 C 2,0 3.667,1.182 3.667,3.454 3.667,5.696 2,6.909 0,6.909 H -5.334 V 0 Z M -8.667,10.212 H 0 c 4.272,0 7.061,-2.879 7.061,-6.758 0,-3.909 -2.789,-6.758 -7.061,-6.758 h -5.334 v -9.788 h -3.333 z" /></g><g
           transform="translate(532.0588,94.5993)"
           id="g258"><path
             id="path260"
             style="fill:#1d1d1b;fill-opacity:1;fill-rule:nonzero;stroke:none"
             d="m 0,0 c -0.546,0.605 -1.334,1.03 -2.334,1.03 -1.849,0 -2.849,-1.213 -2.849,-1.213 V -12.304 H -8.395 V 0.879 c 0,0 2.061,3.303 6.061,3.303 1.576,0 2.849,-0.454 3.849,-1.182 z" /></g><path
           id="path262"
           style="fill:#1d1d1b;fill-opacity:1;fill-rule:nonzero;stroke:none"
           d="m 537.211,82.296 h 3.213 V 98.6 h -3.213 z m 1.607,21.727 c 1.06,0 1.939,-0.878 1.939,-1.939 0,-1.061 -0.879,-1.91 -1.939,-1.91 -1.061,0 -1.91,0.849 -1.91,1.91 0,1.061 0.849,1.939 1.91,1.939" /><g
           transform="translate(551.5764,85.902)"
           id="g264"><path
             id="path266"
             style="fill:#1d1d1b;fill-opacity:1;fill-rule:nonzero;stroke:none"
             d="m 0,0 c 0.334,0.939 0.939,2.818 1.879,5.818 0.879,2.879 1.697,5.849 1.939,6.879 H 7.152 C 6.728,10.728 5.879,7.576 5.03,4.849 4.395,2.849 3.121,-0.788 2.606,-2.03 2,-3.546 0.304,-3.606 0,-3.606 c -0.333,0 -2.03,0.06 -2.636,1.576 -0.515,1.242 -1.788,4.879 -2.425,6.879 -0.848,2.727 -1.697,5.879 -2.121,7.848 h 3.333 c 0.244,-1.06 1.031,-3.909 1.94,-6.879 C -1,2.818 -0.363,0.939 0,0" /></g><g
           transform="translate(571.2766,89.9323)"
           id="g268"><path
             id="path270"
             style="fill:#1d1d1b;fill-opacity:1;fill-rule:nonzero;stroke:none"
             d="m 0,0 c -0.576,0.212 -1.606,0.484 -2.97,0.484 -2.242,0 -3,-1.635 -3,-2.696 0,-1.122 0.607,-2.455 2.698,-2.455 1.696,0 3.151,1.333 3.272,4.667 M 3.212,0.818 V -7.637 H 0 v 1.212 c -0.879,-1 -2.03,-1.393 -3.272,-1.393 -4.334,0 -5.94,2.727 -5.94,5.576 0,2.514 1.848,5.788 6.242,5.788 1.303,0 2.909,-0.455 2.909,-0.455 -0.242,1.576 -0.818,2.606 -2.667,2.606 -1.03,0 -2.575,-0.425 -3.878,-1.455 l -1.91,2.516 c 2,1.575 3.97,2.091 5.788,2.091 5.879,0 5.94,-4.667 5.94,-8.031" /></g><g
           transform="translate(584.9465,82.2956)"
           id="g272"><path
             id="path274"
             style="fill:#1d1d1b;fill-opacity:1;fill-rule:nonzero;stroke:none"
             d="m 0,0 c -3.151,0 -4.485,2.061 -4.485,4.697 v 8.455 h -2.636 v 3.152 h 2.636 v 3.879 h 3.213 V 16.304 H 2.394 V 13.152 H -1.272 V 4.697 c 0,-1 0.423,-1.515 1.272,-1.515 H 2.394 V 0 Z" /></g><g
           transform="translate(593.7355,91.8718)"
           id="g276"><path
             id="path278"
             style="fill:#1d1d1b;fill-opacity:1;fill-rule:nonzero;stroke:none"
             d="M 0,0 H 6.364 C 6.151,2 5.304,3.758 3.182,3.758 1.061,3.758 0.212,2 0,0 m -3.363,-1.425 c 0,4.243 1.666,8.334 6.545,8.334 5.152,0 6.546,-4.667 6.546,-7.212 0,-2.061 -0.94,-2.848 -2.94,-2.848 H 0.03 c 0.273,-1.758 1.425,-3.455 3.909,-3.455 1.303,0 2.637,0.455 4.031,1.333 l 1.636,-2.545 c -2.211,-1.577 -4.151,-1.94 -5.667,-1.94 -5.606,0 -7.302,4.091 -7.302,8.333" /></g><g
           transform="translate(615.8918,84.4772)"
           id="g280"><path
             id="path282"
             style="fill:#1d1d1b;fill-opacity:1;fill-rule:nonzero;stroke:none"
             d="m 0,0 1.121,3.213 c 2.576,-1.546 5,-2.395 6.97,-2.395 2.667,0 4.909,1.121 4.909,3.455 0,2.273 -3.151,3.364 -5.333,3.789 -3.788,0.817 -7.273,2.726 -7.273,7.06 0,3.849 3.243,6.303 7.939,6.303 2.425,0 5.728,-1.121 6.94,-1.636 l -1.03,-3.122 c -0.879,0.364 -3.758,1.455 -5.91,1.455 -3.666,0 -4.605,-1.97 -4.605,-3 0,-2.272 2.454,-3.273 4.484,-3.667 3.637,-0.849 8.061,-2.818 8.122,-7.182 0,-1.545 -0.576,-6.757 -8.243,-6.757 C 5.546,-2.454 2.818,-1.605 0,0" /></g><g
           transform="translate(642.259,82.114)"
           id="g284"><path
             id="path286"
             style="fill:#1d1d1b;fill-opacity:1;fill-rule:nonzero;stroke:none"
             d="m 0,0 c -4.817,0 -6.696,4.091 -6.696,8.333 0,4.243 1.879,8.334 6.696,8.334 H 0.425 C 2.152,16.667 3.94,15.849 5.758,14 L 3.516,11.758 C 1.909,13.334 0.97,13.516 0.425,13.516 H 0 c -2.575,0 -3.454,-2.698 -3.454,-5.183 0,-2.484 0.879,-5.182 3.454,-5.182 h 0.425 c 0.545,0 1.484,0.182 3.091,1.758 L 5.758,2.667 C 3.94,0.818 2.152,0 0.425,0 Z" /></g><g
           transform="translate(651.3527,82.2956)"
           id="g288"><path
             id="path290"
             style="fill:#1d1d1b;fill-opacity:1;fill-rule:nonzero;stroke:none"
             d="m 0,0 v 23.304 h 3.212 v -8.242 c 0.667,0.726 1.788,1.423 3.394,1.423 4.698,0 6.606,-4.06 6.606,-8.303 V 0 H 10.03 v 8.182 c 0,2.485 -0.879,5.152 -3.424,5.152 -2.545,0 -3.394,-2.667 -3.394,-5.152 L 3.212,0 Z" /></g><g
           transform="translate(678.4162,90.447)"
           id="g292"><path
             id="path294"
             style="fill:#1d1d1b;fill-opacity:1;fill-rule:nonzero;stroke:none"
             d="m 0,0 c 0,2.485 -0.97,5.183 -3.636,5.183 -2.636,0 -3.667,-2.698 -3.667,-5.183 0,-2.484 1.031,-5.182 3.667,-5.182 C -0.97,-5.182 0,-2.484 0,0 m -10.515,0 c 0,4.243 2.031,8.334 6.879,8.334 4.879,0 6.849,-4.091 6.849,-8.334 0,-4.242 -1.97,-8.333 -6.849,-8.333 -4.848,0 -6.879,4.091 -6.879,8.333" /></g><g
           transform="translate(695.1769,90.447)"
           id="g296"><path
             id="path298"
             style="fill:#1d1d1b;fill-opacity:1;fill-rule:nonzero;stroke:none"
             d="m 0,0 c 0,2.485 -0.97,5.183 -3.636,5.183 -2.636,0 -3.667,-2.698 -3.667,-5.183 0,-2.484 1.031,-5.182 3.667,-5.182 C -0.97,-5.182 0,-2.484 0,0 m -10.515,0 c 0,4.243 2.031,8.334 6.879,8.334 4.879,0 6.849,-4.091 6.849,-8.334 0,-4.242 -1.97,-8.333 -6.849,-8.333 -4.848,0 -6.879,4.091 -6.879,8.333" /></g><path
           id="path300"
           style="fill:#1d1d1b;fill-opacity:1;fill-rule:nonzero;stroke:none"
           d="m 702.332,105.599 h 3.212 V 82.295 h -3.212 z" /><g
           transform="translate(196.8527,171.4977)"
           id="g302"><path
             id="path304"
             style="fill:#79242f;fill-opacity:1;fill-rule:nonzero;stroke:none"
             d="M 0,0 C 0,2.158 -1.678,3.911 -3.755,3.911 L -16.544,3.918 C -18.611,3.911 -20.3,2.161 -20.3,0 v -4.64 h 11.117 v -1.52 c 0,-0.833 -0.657,-1.521 -1.463,-1.517 h -11.109 c -0.799,0 -1.46,0.684 -1.46,1.522 v 8.367 c 0,2.613 2.043,4.743 4.549,4.743 H -3.755 C -1.678,6.955 0,8.711 0,10.866 v 5.677 h -24.518 c -4.343,0 -7.886,-3.691 -7.886,-8.227 V -9.023 c 0,-4.538 3.543,-8.237 7.886,-8.237 h 20.763 c 2.071,0 3.755,1.755 3.755,3.914 L 0,0 m 14.479,-7.681 c -0.8,0 -1.453,0.688 -1.453,1.516 v 1.525 h 19.465 c 2.063,0 3.754,1.755 3.754,3.919 V 3.911 H 13.026 V 5.43 c 0,0.841 0.658,1.521 1.453,1.521 L 32.491,6.947 c 2.063,0 3.754,1.764 3.754,3.919 v 5.671 H 11.724 C 7.375,16.543 3.829,12.849 3.829,8.31 V -9.032 c 0,-4.537 3.546,-8.228 7.895,-8.228 l 20.767,-0.004 c 2.063,0 3.754,1.75 3.754,3.91 v 5.667 z m 33.485,24.218 c -4.35,0 -7.892,-3.69 -7.892,-8.236 v -25.565 h 5.432 c 2.069,0 3.76,1.75 3.76,3.91 V 5.43 c 0,0.841 0.656,1.517 1.453,1.517 h 1.453 v -24.211 h 4.457 c 2.067,0 3.744,1.75 3.744,3.91 V 5.43 c 0,0.833 0.655,1.517 1.455,1.517 h 1.461 v -24.211 h 5.44 c 2.067,-0.007 3.755,1.75 3.755,3.91 V 16.535 Z M 108.762,-0.01 v -9.036 c 0,-4.535 -3.537,-8.232 -7.892,-8.232 l -24.518,0.007 v 5.676 c 0,2.152 1.684,3.908 3.753,3.908 l 18.011,-0.006 c 0.806,0 1.453,0.685 1.453,1.522 v 1.52 l -19.464,0.004 c -2.069,0 -3.753,1.751 -3.753,3.919 v 9.029 c 0,4.542 3.546,8.234 7.897,8.234 h 24.513 v -5.678 c 0,-2.163 -1.676,-3.916 -3.746,-3.91 H 87.001 c -0.8,0 -1.455,-0.684 -1.455,-1.517 V 3.905 h 19.47 c 2.07,0 3.746,-1.764 3.746,-3.915" /></g><path
           id="path306"
           style="fill:#1d1d1b;fill-opacity:1;fill-rule:nonzero;stroke:none"
           d="m 174.417,133.929 h -1.801 v 2.155 h 1.801 z m -3.322,0 h -1.801 v 2.155 h 1.801 z m 2.662,-7.659 v 4.488 h -3.22 c -2.004,0 -3.373,-2.053 -3.373,-4.716 0,-2.587 1.344,-4.743 3.322,-4.743 2.13,0 3.221,1.649 3.271,4.971 m 6.036,-8.115 h -1.166 c -2.511,0 -4.108,1.242 -4.844,3.702 -0.761,-1.293 -2.054,-1.952 -3.88,-1.952 -2.587,0 -4.514,2.663 -4.514,6.035 0,3.602 1.927,6.138 4.818,6.138 h 5.377 v -8.141 c 0,-2.536 1.192,-4.032 3.246,-4.032 h 0.963 z" /><path
           id="path308"
           style="fill:#1d1d1b;fill-opacity:1;fill-rule:nonzero;stroke:none"
           d="m 190.752,131.495 h -1.8 v 2.155 h 1.8 z m -3.322,0 h -1.801 v 2.155 h 1.801 z m 4.083,-7.405 c 0,2.536 -1.141,4.083 -3.221,4.083 -2.257,0 -3.423,-1.7 -3.423,-4.388 0,-2.536 1.242,-4.159 3.322,-4.159 2.206,0 3.322,1.496 3.322,4.464 m 1.953,-0.178 c 0,-3.297 -2.054,-5.757 -5.275,-5.757 h -9.003 v 1.775 h 4.945 c -0.836,1.015 -1.268,2.333 -1.268,3.956 0,3.297 2.055,5.757 5.351,5.757 3.221,0 5.25,-2.282 5.25,-5.731" /><g
           transform="translate(200.6974,129.6686)"
           id="g310"><path
             id="path312"
             style="fill:#1d1d1b;fill-opacity:1;fill-rule:nonzero;stroke:none"
             d="m 0,0 v -9.358 c 0,-4.134 -1.598,-6.112 -5.326,-6.315 v 1.699 c 2.359,0 3.551,1.293 3.551,4.286 l 0,9.688 z" /></g><g
           transform="translate(209.6764,118.155)"
           id="g314"><path
             id="path316"
             style="fill:#1d1d1b;fill-opacity:1;fill-rule:nonzero;stroke:none"
             d="m 0,0 h -2.003 c -0.914,0 -1.674,0.33 -2.309,0.964 -0.735,0.71 -1.09,1.724 -1.09,3.068 v 12.376 h 1.826 V 5.098 c 0,-1.167 0.178,-2.004 0.507,-2.511 C -2.79,2.155 -2.308,1.902 -1.623,1.801 -1.446,1.775 -1.243,1.775 0,1.775 Z" /></g><path
           id="path318"
           style="fill:#1d1d1b;fill-opacity:1;fill-rule:nonzero;stroke:none"
           d="m 224.463,131.495 h -1.801 v 2.155 h 1.801 z m -1.7,2.814 h -1.8 v 2.155 h 1.8 z m -1.623,-2.814 h -1.8 v 2.155 h 1.8 z m 12.047,-13.34 h -24.093 v 1.775 h 2.359 c 1.623,0 2.662,1.09 2.662,3.246 v 6.493 h 1.801 v -7.051 c 0,-1.039 -0.152,-1.902 -0.431,-2.586 v -0.102 h 3.322 c 1.623,0 2.156,0.786 2.156,3.475 v 6.264 h 1.775 v -7.051 c 0,-1.09 -0.152,-2.003 -0.482,-2.688 h 3.043 c 1.902,0 2.537,0.786 2.537,3.475 v 6.264 h 1.775 v -7.051 c 0,-1.09 -0.178,-2.003 -0.507,-2.688 h 4.083 z" /><g
           transform="translate(238.6447,134.5632)"
           id="g320"><path
             id="path322"
             style="fill:#1d1d1b;fill-opacity:1;fill-rule:nonzero;stroke:none"
             d="m 0,0 v -11.945 c 0,-2.967 -1.243,-4.463 -3.728,-4.463 h -2.207 v 1.75 h 1.623 c 1.091,0 1.801,0.354 2.156,1.065 0.254,0.456 0.381,1.268 0.381,2.435 l 0,11.158 z" /></g><g
           transform="translate(247.6237,118.155)"
           id="g324"><path
             id="path326"
             style="fill:#1d1d1b;fill-opacity:1;fill-rule:nonzero;stroke:none"
             d="m 0,0 h -2.003 c -0.914,0 -1.674,0.33 -2.309,0.964 -0.735,0.71 -1.09,1.724 -1.09,3.068 v 12.376 h 1.826 V 5.098 c 0,-1.167 0.178,-2.004 0.507,-2.511 C -2.79,2.155 -2.308,1.902 -1.623,1.801 -1.446,1.775 -1.243,1.775 0,1.775 Z" /></g><path
           id="path328"
           style="fill:#1d1d1b;fill-opacity:1;fill-rule:nonzero;stroke:none"
           d="m 253.28,114.3 h -1.8 v 2.155 h 1.8 z m 0,15.369 v -7.051 c 0,-2.967 -1.242,-4.463 -3.727,-4.463 h -2.232 v 1.75 h 1.648 c 1.091,0 1.801,0.354 2.156,1.065 0.254,0.456 0.381,1.268 0.381,2.435 v 6.264 z" /><path
           id="path330"
           style="fill:#1d1d1b;fill-opacity:1;fill-rule:nonzero;stroke:none"
           d="m 267.738,133.929 h -1.801 v 2.155 h 1.801 z m -3.322,0 h -1.801 v 2.155 h 1.801 z m 2.662,-7.659 v 4.488 h -3.22 c -2.004,0 -3.373,-2.053 -3.373,-4.716 0,-2.587 1.344,-4.743 3.322,-4.743 2.13,0 3.221,1.649 3.271,4.971 m 6.036,-8.115 h -1.167 c -2.51,0 -4.108,1.242 -4.843,3.702 -0.761,-1.293 -2.055,-1.952 -3.88,-1.952 -2.587,0 -4.514,2.663 -4.514,6.035 0,3.602 1.927,6.138 4.818,6.138 h 5.376 v -8.141 c 0,-2.536 1.192,-4.032 3.247,-4.032 h 0.963 z" /><g
           transform="translate(291.3264,119.905)"
           id="g332"><path
             id="path334"
             style="fill:#1d1d1b;fill-opacity:1;fill-rule:nonzero;stroke:none"
             d="m 0,0 c 0.051,0.558 0.076,1.09 0.076,1.598 0,3.93 -1.623,6.568 -4.412,6.568 -3.094,0 -6.746,-3.602 -8.09,-7.735 V 0 Z m 1.75,-1.75 h -20.567 v 1.775 h 2.359 c 1.8,0 2.687,1.319 2.687,3.956 v 4.565 h 1.776 V 4.134 c 1.902,3.575 4.971,5.655 7.786,5.655 4.057,0 6.086,-2.892 6.086,-8.598 0,-0.887 -0.051,-1.876 -0.127,-2.941" /></g><g
           transform="translate(302.11,118.155)"
           id="g336"><path
             id="path338"
             style="fill:#1d1d1b;fill-opacity:1;fill-rule:nonzero;stroke:none"
             d="m 0,0 h -2.003 c -0.914,0 -1.674,0.33 -2.309,0.964 -0.735,0.71 -1.09,1.724 -1.09,3.068 v 12.376 h 1.826 V 5.098 c 0,-1.167 0.178,-2.004 0.507,-2.511 C -2.79,2.155 -2.308,1.902 -1.623,1.801 -1.446,1.775 -1.243,1.775 0,1.775 Z" /></g><path
           id="path340"
           style="fill:#1d1d1b;fill-opacity:1;fill-rule:nonzero;stroke:none"
           d="m 311.545,131.495 h -1.8 v 2.155 h 1.8 z m 10.322,-13.34 h -20.364 v 1.775 h 15.419 c 0.025,0.329 0.05,0.634 0.05,0.913 0,4.286 -2.257,6.746 -6.238,6.746 -2.156,0 -3.754,-0.837 -4.768,-2.511 -0.253,0.279 -0.761,0.786 -1.547,1.573 1.445,1.8 3.525,2.688 6.289,2.688 5.047,0 8.369,-3.348 8.369,-8.623 v -0.786 h 2.79 z" /><g
           transform="translate(327.2477,134.5632)"
           id="g342"><path
             id="path344"
             style="fill:#1d1d1b;fill-opacity:1;fill-rule:nonzero;stroke:none"
             d="m 0,0 v -11.945 c 0,-2.967 -1.243,-4.463 -3.728,-4.463 h -2.206 v 1.75 h 1.623 c 1.09,0 1.8,0.354 2.155,1.065 0.254,0.456 0.381,1.268 0.381,2.435 l 0,11.158 z" /></g><path
           id="path346"
           style="fill:#1d1d1b;fill-opacity:1;fill-rule:nonzero;stroke:none"
           d="m 332.423,118.155 h -1.775 v 16.408 h 1.775 z" /><g
           transform="translate(340.8952,123.0241)"
           id="g348"><path
             id="path350"
             style="fill:#1d1d1b;fill-opacity:1;fill-rule:nonzero;stroke:none"
             d="m 0,0 c 0,-2.004 0.431,-3.652 1.217,-4.971 0.964,-1.597 2.359,-2.383 4.184,-2.383 1.852,0 3.246,0.786 4.185,2.383 0.786,1.319 1.192,2.967 1.192,4.971 v 11.539 h 1.775 V -0.355 c 0,-2.561 -0.71,-4.666 -2.105,-6.315 -1.344,-1.598 -3.018,-2.409 -5.047,-2.409 -2.028,0 -3.728,0.811 -5.122,2.434 -1.37,1.624 -2.054,3.729 -2.054,6.29 v 2.434 l 1.775,0 z" /></g><g
           transform="translate(362.4304,118.155)"
           id="g352"><path
             id="path354"
             style="fill:#1d1d1b;fill-opacity:1;fill-rule:nonzero;stroke:none"
             d="m 0,0 h -2.003 c -0.914,0 -1.674,0.33 -2.309,0.964 -0.735,0.71 -1.09,1.724 -1.09,3.068 v 12.376 h 1.826 V 5.098 c 0,-1.167 0.178,-2.004 0.507,-2.511 C -2.79,2.155 -2.308,1.902 -1.623,1.801 -1.446,1.775 -1.243,1.775 0,1.775 Z" /></g><path
           id="path356"
           style="fill:#1d1d1b;fill-opacity:1;fill-rule:nonzero;stroke:none"
           d="m 367.935,131.495 h -1.801 v 2.155 h 1.801 z m 0,-1.826 v -7.051 c 0,-2.967 -1.243,-4.463 -3.728,-4.463 H 362 v 1.75 h 1.623 c 1.091,0 1.801,0.354 2.156,1.065 0.254,0.456 0.38,1.268 0.38,2.435 v 6.264 z" /><g
           transform="translate(378.4348,119.9304)"
           id="g358"><path
             id="path360"
             style="fill:#1d1d1b;fill-opacity:1;fill-rule:nonzero;stroke:none"
             d="M 0,0 V 5.351 C 0,6.086 -0.228,6.721 -0.685,7.228 -1.191,7.811 -1.901,8.115 -2.84,8.115 -3.804,8.115 -4.59,7.658 -5.198,6.771 -5.731,5.984 -6.01,5.098 -6.01,4.134 c 0,-1.015 0.228,-1.928 0.71,-2.714 0.583,-0.964 1.369,-1.445 2.359,-1.445 z m 5.123,-1.775 h -3.5 c -0.507,-2.613 -2.231,-3.982 -5.147,-4.16 v 1.7 h 0.228 c 1.623,0 2.662,0.837 3.093,2.46 h -2.764 c -1.42,0 -2.587,0.532 -3.499,1.623 -0.913,1.09 -1.37,2.46 -1.37,4.108 0,1.648 0.482,3.018 1.446,4.134 0.989,1.115 2.206,1.674 3.652,1.674 2.814,0 4.564,-1.725 4.564,-5.073 v -4.716 h 3.297 z" /></g><path
           id="path362"
           style="fill:#1d1d1b;fill-opacity:1;fill-rule:nonzero;stroke:none"
           d="m 398.27,131.495 h -1.8 v 2.155 h 1.8 z m -1.699,2.814 h -1.801 v 2.155 h 1.801 z m -1.623,-2.814 h -1.801 v 2.155 h 1.801 z m 8.496,-1.826 v -7.051 c 0,-2.967 -1.243,-4.463 -3.753,-4.463 h -16.789 v 1.775 h 2.359 c 1.623,0 2.51,1.09 2.687,3.246 v 6.493 h 1.776 v -7.051 c 0,-1.039 -0.153,-1.902 -0.431,-2.586 v -0.102 h 3.321 c 1.623,0 2.157,0.786 2.157,3.475 v 6.264 h 1.775 v -7.051 c 0,-1.09 -0.152,-2.003 -0.482,-2.688 h 3.043 c 1.902,0 2.536,0.786 2.536,3.475 v 6.264 z" /><g
           transform="translate(412.426,118.155)"
           id="g364"><path
             id="path366"
             style="fill:#1d1d1b;fill-opacity:1;fill-rule:nonzero;stroke:none"
             d="m 0,0 h -2.003 c -0.913,0 -1.674,0.33 -2.308,0.964 -0.736,0.71 -1.09,1.724 -1.09,3.068 v 12.376 h 1.826 V 5.098 c 0,-1.167 0.177,-2.004 0.507,-2.511 0.279,-0.432 0.76,-0.685 1.445,-0.786 C -1.445,1.775 -1.242,1.775 0,1.775 Z" /></g><path
           id="path368"
           style="fill:#1d1d1b;fill-opacity:1;fill-rule:nonzero;stroke:none"
           d="m 417.931,131.495 h -1.801 v 2.155 h 1.801 z m 0,-1.826 v -7.051 c 0,-2.967 -1.243,-4.463 -3.728,-4.463 h -2.207 v 1.75 h 1.623 c 1.091,0 1.801,0.354 2.157,1.065 0.253,0.456 0.379,1.268 0.379,2.435 v 6.264 z" /><g
           transform="translate(429.3439,118.155)"
           id="g370"><path
             id="path372"
             style="fill:#1d1d1b;fill-opacity:1;fill-rule:nonzero;stroke:none"
             d="M 0,0 H -4.361 C -4.844,-2.612 -6.568,-3.981 -9.51,-4.159 v 1.699 c 2.359,0 3.551,1.293 3.551,4.286 v 9.688 h 1.774 V 1.775 l 4.185,0 z" /></g><path
           id="path374"
           style="fill:#1d1d1b;fill-opacity:1;fill-rule:nonzero;stroke:none"
           d="m 434.697,131.495 h -1.801 v 2.155 h 1.801 z m -3.322,0 h -1.801 v 2.155 h 1.801 z m 6.162,-13.34 h -8.749 v 1.75 h 1.623 c 1.091,0 1.801,0.354 2.157,1.04 0.252,0.481 0.379,1.293 0.379,2.46 v 6.264 h 1.776 v -7.051 c 0,-1.09 -0.153,-2.003 -0.482,-2.688 h 3.296 z" /><path
           id="path376"
           style="fill:#1d1d1b;fill-opacity:1;fill-rule:nonzero;stroke:none"
           d="m 443.043,131.495 h -1.801 v 2.155 h 1.801 z m 0,-1.826 v -7.051 c 0,-2.967 -1.243,-4.463 -3.727,-4.463 h -2.207 v 1.75 h 1.623 c 1.09,0 1.8,0.354 2.156,1.065 0.253,0.456 0.38,1.268 0.38,2.435 v 6.264 z" /><path
           id="path378"
           style="fill:#1d1d1b;fill-opacity:1;fill-rule:nonzero;stroke:none"
           d="m 448.472,118.155 h -1.775 v 16.408 h 1.775 z m 1.14,-2.663 -0.989,-0.127 c -0.126,0.584 -0.43,0.888 -0.963,0.888 -0.685,0 -1.04,-0.456 -1.04,-1.37 0,-0.355 0.076,-0.659 0.254,-0.887 h 2.738 v -1.015 h -4.869 v 1.015 h 0.99 c -0.102,0.254 -0.153,0.557 -0.153,0.887 0,0.634 0.153,1.167 0.457,1.547 0.38,0.432 0.913,0.66 1.598,0.66 1.09,0 1.75,-0.533 1.977,-1.598" /><path
           id="path380"
           style="fill:#1d1d1b;fill-opacity:1;fill-rule:nonzero;stroke:none"
           d="m 462.346,118.789 h -1.801 v 2.156 h 1.801 z m 3.931,5.528 h -4.895 c -2.586,0 -4.285,-1.749 -4.285,-4.412 0,-2.435 1.572,-4.058 4.285,-4.058 h 2.638 v -1.877 h -2.638 c -3.626,0 -6.213,2.359 -6.213,6.062 0,2.992 1.852,6.086 5.681,6.086 h 3.652 c -0.254,3.221 -1.75,4.844 -4.388,4.844 -0.557,0 -0.989,-0.102 -1.47,-0.355 v 1.547 c 0.227,0.102 0.989,0.253 1.876,0.253 3.83,0 5.782,-2.561 5.782,-7.329 0,-0.253 0,-0.507 -0.025,-0.761" /><g
           transform="translate(483.4484,118.155)"
           id="g382"><path
             id="path384"
             style="fill:#1d1d1b;fill-opacity:1;fill-rule:nonzero;stroke:none"
             d="m 0,0 h -15.241 v 1.775 h 9.383 c 0,2.257 -0.406,4.083 -1.243,5.453 -1.014,1.648 -2.587,2.51 -4.691,2.637 h -0.685 v 1.674 c 5.351,0 8.166,-3.246 8.445,-9.764 l 4.032,0 z" /></g><path
           id="path386"
           style="fill:#1d1d1b;fill-opacity:1;fill-rule:nonzero;stroke:none"
           d="m 488.981,114.275 h -1.801 v 2.155 h 1.801 z m -3.323,0 h -1.801 v 2.155 h 1.801 z m 3.348,15.394 v -7.051 c 0,-2.967 -1.243,-4.463 -3.728,-4.463 h -2.232 v 1.75 h 1.649 c 1.09,0 1.8,0.354 2.155,1.065 0.254,0.456 0.381,1.268 0.381,2.435 v 6.264 z" /><g
           transform="translate(501.0783,118.155)"
           id="g388"><path
             id="path390"
             style="fill:#1d1d1b;fill-opacity:1;fill-rule:nonzero;stroke:none"
             d="M 0,0 H -4.361 C -4.844,-2.612 -6.568,-3.981 -9.51,-4.159 v 1.699 c 2.359,0 3.551,1.293 3.551,4.286 v 9.688 h 1.774 V 1.775 l 4.185,0 z" /></g><path
           id="path392"
           style="fill:#1d1d1b;fill-opacity:1;fill-rule:nonzero;stroke:none"
           d="m 506.457,114.3 h -1.801 v 2.155 h 1.801 z m 2.815,3.855 h -8.749 v 1.75 h 1.623 c 1.091,0 1.8,0.354 2.156,1.04 0.253,0.481 0.38,1.293 0.38,2.46 v 6.264 h 1.775 v -7.051 c 0,-1.09 -0.152,-2.003 -0.481,-2.688 h 3.296 z" /><g
           transform="translate(521.1174,121.8825)"
           id="g394"><path
             id="path396"
             style="fill:#1d1d1b;fill-opacity:1;fill-rule:nonzero;stroke:none"
             d="m 0,0 c 0,1.142 -0.229,2.055 -0.659,2.739 -0.558,0.837 -1.369,1.242 -2.435,1.242 -1.167,0 -2.029,-0.456 -2.612,-1.343 -0.481,-0.736 -0.735,-1.7 -0.735,-2.942 0,-1.141 0.254,-2.08 0.735,-2.79 0.583,-0.837 1.42,-1.242 2.511,-1.242 C -1.065,-4.336 0,-2.891 0,0 m 2.055,-0.177 c 0,-1.648 -0.457,-2.993 -1.37,-4.057 -0.964,-1.142 -2.257,-1.7 -3.88,-1.7 -1.953,0 -3.424,0.736 -4.388,2.206 h -4.894 v 1.776 h 4.159 c -0.152,0.532 -0.228,1.115 -0.228,1.75 0,1.674 0.482,3.043 1.445,4.134 0.964,1.089 2.283,1.623 3.931,1.623 1.649,0 2.967,-0.559 3.905,-1.649 0.888,-1.04 1.32,-2.409 1.32,-4.083" /></g><g
           transform="translate(532.1525,118.155)"
           id="g398"><path
             id="path400"
             style="fill:#1d1d1b;fill-opacity:1;fill-rule:nonzero;stroke:none"
             d="m 0,0 h -2.003 c -0.913,0 -1.674,0.33 -2.308,0.964 -0.736,0.71 -1.09,1.724 -1.09,3.068 v 12.376 h 1.826 V 5.098 c 0,-1.167 0.177,-2.004 0.507,-2.511 0.279,-0.432 0.76,-0.685 1.445,-0.786 C -1.445,1.775 -1.242,1.775 0,1.775 Z" /></g><g
           transform="translate(548.5871,120.7165)"
           id="g402"><path
             id="path404"
             style="fill:#1d1d1b;fill-opacity:1;fill-rule:nonzero;stroke:none"
             d="m 0,0 v -2.562 h -17.574 v 1.776 h 15.419 c 0.025,0.304 0.051,0.608 0.051,0.913 0,1.952 -0.457,3.524 -1.395,4.691 -1.091,1.369 -2.714,2.054 -4.869,2.054 h -5.225 c 0.913,1.649 2.207,3.957 3.88,6.949 h 2.106 l -3.018,-5.199 h 2.257 c 2.561,0 4.615,-0.786 6.137,-2.384 C -0.735,4.666 0,2.587 0,0" /></g><g
           transform="translate(586.5822,118.155)"
           id="g406"><path
             id="path408"
             style="fill:#1d1d1b;fill-opacity:1;fill-rule:nonzero;stroke:none"
             d="m 0,0 h -17.828 c 0,0.178 -0.026,0.381 -0.102,0.608 -1.115,-3.043 -3.651,-4.818 -6.466,-4.818 -4.033,0 -7.177,3.602 -7.177,8.724 v 7 h 1.775 V 4.869 c 0,-4.438 2.079,-7.354 5.402,-7.354 3.068,0 4.996,2.409 5.326,6.339 v 7.66 h 1.825 v -7 c 0,-0.989 -0.102,-1.902 -0.304,-2.739 h 3.17 c 1.623,0 2.155,0.787 2.155,3.475 v 6.264 h 1.776 V 4.463 c 0,-1.09 -0.153,-2.003 -0.482,-2.688 h 3.043 c 1.902,0 2.536,0.812 2.536,3.475 v 6.264 h 1.775 V 4.463 c 0,-1.09 -0.177,-2.003 -0.507,-2.688 l 4.083,0 z" /></g><g
           transform="translate(597.3928,121.8825)"
           id="g410"><path
             id="path412"
             style="fill:#1d1d1b;fill-opacity:1;fill-rule:nonzero;stroke:none"
             d="m 0,0 c 0,1.142 -0.228,2.055 -0.685,2.739 -0.532,0.837 -1.318,1.242 -2.409,1.242 -1.14,0 -2.028,-0.456 -2.612,-1.343 -0.481,-0.736 -0.71,-1.7 -0.71,-2.942 0,-1.141 0.229,-2.08 0.71,-2.79 0.584,-0.837 1.421,-1.242 2.511,-1.242 C -1.064,-4.336 0,-2.891 0,0 m 4.945,-3.728 h -3.88 c -0.963,-1.47 -2.383,-2.206 -4.26,-2.206 -1.952,0 -3.423,0.736 -4.362,2.206 h -3.754 v 1.776 h 2.994 c -0.127,0.532 -0.204,1.115 -0.204,1.75 0,1.674 0.482,3.043 1.42,4.134 0.964,1.089 2.283,1.623 3.931,1.623 1.649,0 2.968,-0.559 3.905,-1.649 0.888,-1.04 1.345,-2.409 1.345,-4.083 0,-0.635 -0.076,-1.218 -0.228,-1.775 h 3.093 z" /></g><path
           id="path414"
           style="fill:#1d1d1b;fill-opacity:1;fill-rule:nonzero;stroke:none"
           d="m 607.77,114.275 h -1.801 v 2.155 h 1.801 z m -3.323,0 h -1.801 v 2.155 h 1.801 z m 6.112,3.88 h -8.749 v 1.75 h 1.623 c 1.091,0 1.801,0.354 2.156,1.04 0.253,0.481 0.38,1.293 0.38,2.46 v 6.264 h 1.775 v -7.051 c 0,-1.09 -0.152,-2.003 -0.481,-2.688 h 3.296 z" /><path
           id="path416"
           style="fill:#1d1d1b;fill-opacity:1;fill-rule:nonzero;stroke:none"
           d="m 620.528,114.3 h -1.825 v 2.155 h 1.825 z m 7,6.416 v -2.561 h -17.576 v 1.775 h 15.419 c 0.026,0.329 0.051,0.634 0.051,0.913 0,4.286 -2.257,6.746 -6.238,6.746 -2.155,0 -3.753,-0.837 -4.768,-2.511 -0.254,0.279 -0.761,0.786 -1.547,1.573 1.446,1.8 3.526,2.688 6.289,2.688 5.047,0 8.37,-3.348 8.37,-8.623" /><path
           id="path418"
           style="fill:#1d1d1b;fill-opacity:1;fill-rule:nonzero;stroke:none"
           d="m 642.977,133.929 h -1.801 v 2.155 h 1.801 z m -3.323,0 h -1.801 v 2.155 h 1.801 z m 2.664,-7.659 v 4.488 h -3.221 c -2.004,0 -3.373,-2.053 -3.373,-4.716 0,-2.587 1.344,-4.743 3.322,-4.743 2.13,0 3.221,1.649 3.272,4.971 m 6.035,-8.115 h -1.166 c -2.511,0 -4.109,1.242 -4.844,3.702 -0.761,-1.293 -2.055,-1.952 -3.881,-1.952 -2.586,0 -4.514,2.663 -4.514,6.035 0,3.602 1.928,6.138 4.819,6.138 h 5.376 v -8.141 c 0,-2.536 1.192,-4.032 3.246,-4.032 h 0.964 z" /><g
           transform="translate(668.2892,129.6686)"
           id="g420"><path
             id="path422"
             style="fill:#1d1d1b;fill-opacity:1;fill-rule:nonzero;stroke:none"
             d="m 0,0 v -7.051 c 0,-2.967 -1.242,-4.463 -3.753,-4.463 h -16.789 v 1.776 h 2.359 c 1.623,0 2.51,1.09 2.688,3.246 V 0 h 1.775 v -7.051 c 0,-1.039 -0.152,-1.901 -0.43,-2.586 v -0.101 h 3.321 c 1.623,0 2.156,0.786 2.156,3.474 V 0 h 1.776 v -7.051 c 0,-1.09 -0.153,-2.003 -0.483,-2.687 h 3.043 c 1.902,0 2.536,0.786 2.536,3.474 l 0,6.264 z" /></g><g
           transform="translate(675.5217,129.6686)"
           id="g424"><path
             id="path426"
             style="fill:#1d1d1b;fill-opacity:1;fill-rule:nonzero;stroke:none"
             d="m 0,0 v -9.358 c 0,-4.134 -1.598,-6.112 -5.325,-6.315 v 1.699 c 2.358,0 3.551,1.293 3.551,4.286 V 0 Z" /></g><g
           transform="translate(692.6672,118.155)"
           id="g428"><path
             id="path430"
             style="fill:#1d1d1b;fill-opacity:1;fill-rule:nonzero;stroke:none"
             d="m 0,0 h -15.241 v 1.775 h 9.383 c 0,2.257 -0.406,4.083 -1.243,5.453 -1.014,1.648 -2.587,2.51 -4.691,2.637 h -0.685 v 1.674 c 5.351,0 8.166,-3.246 8.445,-9.764 l 4.032,0 z" /></g><g
           transform="translate(704.4123,121.8825)"
           id="g432"><path
             id="path434"
             style="fill:#1d1d1b;fill-opacity:1;fill-rule:nonzero;stroke:none"
             d="m 0,0 c 0,1.142 -0.229,2.055 -0.659,2.739 -0.558,0.837 -1.369,1.242 -2.435,1.242 -1.167,0 -2.029,-0.456 -2.612,-1.343 -0.481,-0.736 -0.735,-1.7 -0.735,-2.942 0,-1.141 0.254,-2.08 0.735,-2.79 0.583,-0.837 1.42,-1.242 2.511,-1.242 C -1.065,-4.336 0,-2.891 0,0 m 2.055,-0.177 c 0,-1.648 -0.457,-2.993 -1.37,-4.057 -0.964,-1.142 -2.257,-1.7 -3.88,-1.7 -1.953,0 -3.424,0.736 -4.388,2.206 h -4.894 v 1.776 h 4.159 c -0.152,0.532 -0.228,1.115 -0.228,1.75 0,1.674 0.482,3.043 1.445,4.134 0.964,1.089 2.283,1.623 3.931,1.623 1.649,0 2.967,-0.559 3.905,-1.649 0.888,-1.04 1.32,-2.409 1.32,-4.083" /></g><g
           transform="translate(165.547,50.987)"
           id="g436"><path
             id="path438"
             style="fill:#1d1d1b;fill-opacity:1;fill-rule:nonzero;stroke:none"
             d="M 0,0 0.729,1.473 C 1.97,0.646 3.229,0.215 4.372,0.215 5.944,0.215 7.385,0.894 7.583,2.317 7.782,3.709 6.01,4.338 4.769,4.603 2.782,5.033 1.043,6.061 1.357,8.396 c 0.299,2.052 2.236,3.359 4.769,3.359 1.358,0 2.98,-0.579 3.56,-0.827 L 9.007,9.487 C 8.561,9.686 7.153,10.232 5.911,10.232 3.725,10.232 2.997,9.041 2.897,8.396 2.716,7.021 4.073,6.407 5.249,6.177 7.169,5.712 9.421,4.637 9.124,2.317 9.007,1.473 8.295,-1.308 4.156,-1.308 2.749,-1.291 1.357,-0.845 0,0" /></g><g
           transform="translate(184.1759,55.6061)"
           id="g440"><path
             id="path442"
             style="fill:#1d1d1b;fill-opacity:1;fill-rule:nonzero;stroke:none"
             d="m 0,0 h -5.663 l -0.794,-5.762 h -1.54 l 1.788,12.733 h 1.54 L -5.448,1.523 h 5.663 l 0.779,5.448 h 1.54 L 0.745,-5.762 h -1.54 z" /></g><g
           transform="translate(194.8405,55.3913)"
           id="g444"><path
             id="path446"
             style="fill:#1d1d1b;fill-opacity:1;fill-rule:nonzero;stroke:none"
             d="M 0,0 C -0.298,1.971 -0.596,3.808 -0.96,5.397 -0.994,5.58 -1.093,5.662 -1.242,5.662 H -1.341 C -1.49,5.662 -1.623,5.58 -1.722,5.397 -2.517,3.808 -3.361,1.971 -4.189,0 Z m -4.818,-1.506 c -0.547,-1.324 -1.077,-2.683 -1.59,-4.041 h -1.689 c 0.265,0.761 3.163,8.179 5.15,11.707 0.381,0.678 1.06,1.026 1.788,1.026 h 0.165 C -0.265,7.186 0.315,6.838 0.497,6.16 1.424,2.814 2.318,-4.95 2.368,-5.547 H 0.679 C 0.53,-4.189 0.381,-2.83 0.215,-1.506 Z" /></g><g
           transform="translate(201.5485,56.8493)"
           id="g448"><path
             id="path450"
             style="fill:#1d1d1b;fill-opacity:1;fill-rule:nonzero;stroke:none"
             d="M 0,0 H 3.146 C 4.371,0 5.464,0.761 5.663,2.103 5.845,3.477 4.967,4.204 3.742,4.204 H 0.596 Z m 4.222,-7.005 0.464,3.378 c 0.198,1.342 -0.629,2.103 -1.755,2.103 h -3.146 l -0.762,-5.481 h -1.54 L -0.729,5.728 H 3.957 C 6.259,5.728 7.534,4.189 7.236,2.103 7.037,0.745 6.275,-0.265 5.397,-0.845 5.994,-1.426 6.424,-2.352 6.242,-3.627 L 5.779,-7.005 Z" /></g><g
           transform="translate(209.299,50.821)"
           id="g452"><path
             id="path454"
             style="fill:#1d1d1b;fill-opacity:1;fill-rule:nonzero;stroke:none"
             d="m 0,0 1.093,1.226 c 0.91,-0.795 1.556,-0.845 1.904,-0.845 1.44,0 2.434,0.961 2.633,2.317 l 1.274,9.058 h 1.54 L 7.169,2.698 C 6.838,0.331 5.033,-1.142 2.782,-1.142 1.789,-1.142 0.894,-0.729 0,0" /></g><g
           transform="translate(225.8742,55.3913)"
           id="g456"><path
             id="path458"
             style="fill:#1d1d1b;fill-opacity:1;fill-rule:nonzero;stroke:none"
             d="M 0,0 C -0.298,1.971 -0.596,3.808 -0.96,5.397 -0.994,5.58 -1.093,5.662 -1.242,5.662 H -1.341 C -1.49,5.662 -1.623,5.58 -1.722,5.397 -2.517,3.808 -3.361,1.971 -4.189,0 Z m -4.818,-1.506 c -0.547,-1.324 -1.077,-2.683 -1.59,-4.041 h -1.689 c 0.265,0.761 3.163,8.179 5.15,11.707 0.381,0.678 1.059,1.026 1.788,1.026 h 0.165 C -0.265,7.186 0.315,6.838 0.497,6.16 1.424,2.814 2.318,-4.95 2.368,-5.547 H 0.679 C 0.53,-4.189 0.38,-2.83 0.215,-1.506 Z" /></g><g
           transform="translate(238.0627,55.6061)"
           id="g460"><path
             id="path462"
             style="fill:#1d1d1b;fill-opacity:1;fill-rule:nonzero;stroke:none"
             d="m 0,0 h -5.663 l -0.795,-5.762 h -1.54 l 1.789,12.733 h 1.54 L -5.447,1.523 h 5.662 l 0.778,5.448 h 1.54 L 0.745,-5.762 h -1.54 z" /></g></g></g></g></svg>