<svg xmlns:dc="http://purl.org/dc/elements/1.1/"
   xmlns:cc="http://creativecommons.org/ns#"
   xmlns:rdf="http://www.w3.org/1999/02/22-rdf-syntax-ns#"
   xmlns:svg="http://www.w3.org/2000/svg"
   xmlns="http://www.w3.org/2000/svg"
   viewBox="0 0 300 45.57"
   height="141.33333"
   width="541.33331"
   xml:space="preserve"
   id="svg2"
   version="1.1"
>
   <defs>
      <style>.cls-1{fill:#231f20;}.cls-2{fill:#FB5058;}</style>
   </defs>
   <path class="cls-1" d="M9.49,22.25H7.75a2.67,2.67,0,0,1-2.61-2.08,2.23,2.23,0,0,1-1.85,1.06c-1.84,0-3-1.35-3-3.3,0-2.11,1.14-3.42,3-3.42H6.85V19a1.47,1.47,0,0,0,1.62,1.68h1ZM5.18,17.77v-2H3.72c-1.12,0-1.81.88-1.81,2.18,0,1.08.62,2,1.58,2S5.18,19,5.18,17.77ZM4,13.37H2.41V11.8H4Zm2.72,0H5.14V11.8H6.72Z"/>
   <path class="cls-1" d="M12.28,22.25H9.09v-1.6h3.19Z"/>
   <path class="cls-1" d="M15.13,22.25H12v-1.6h3.18Z"/>
   <path class="cls-1" d="M18,22.25H14.8v-1.6H18Z"/>
   <path class="cls-1" d="M20.84,22.25H17.66v-1.6h3.18Z"/>
   <path class="cls-1" d="M23.7,22.25H20.51v-1.6H23.7Z"/>
   <path class="cls-1" d="M26.56,22.25H23.37v-1.6h3.19Z"/>
   <path class="cls-1" d="M29.41,22.25H26.23v-1.6h3.18Z"/>
   <path class="cls-1" d="M32.27,22.25H29.08v-1.6h3.19Z"/>
   <path class="cls-1" d="M35.12,22.25H31.94v-1.6h3.18Z"/>
   <path class="cls-1" d="M36.22,25.33H34.63V23.76h1.59ZM39,19.71c0,1.7-.81,2.54-2.41,2.54h-1.7v-1.6h1.35c.54,0,.87-.15,1-.46a3.11,3.11,0,0,0,.11-1V15.87H39Zm-.05,5.62H37.36V23.76h1.58Z"/>
   <path class="cls-1" d="M49.7,22.25H40.34v-1.6h5.22c0-1.84-.73-2.91-2.19-3.22a7.44,7.44,0,0,0-1.46-.12V15.87c.8,0,1.3,0,1.51,0a3.7,3.7,0,0,1,.86.2q2.89.95,2.91,4.55H49.7Z"/>
   <path class="cls-1" d="M52.21,22.25H49v-1.6h3.18Z"/>
   <path class="cls-1" d="M55.07,22.25H51.88v-1.6h3.19Z"/>
   <path class="cls-1" d="M57.92,22.25H54.74v-1.6h3.18Z"/>
   <path class="cls-1" d="M60.78,22.25H57.59v-1.6h3.19Z"/>
   <path class="cls-1" d="M63.64,22.25H60.45v-1.6h3.19Z"/>
   <path class="cls-1" d="M70,22.25H63.29v-1.6h1.5a1,1,0,0,0,1-.48,2.29,2.29,0,0,0,.18-1.06V15.87h1.6V19a2.64,2.64,0,0,1-.35,1.63H70Zm-2.42-7.67H65.94V13h1.59Z"/>
   <path class="cls-1" d="M81.27,22.25H69.53v-1.6h2a3.9,3.9,0,0,1-.37-1.46,2.85,2.85,0,0,1,5.7,0,4,4,0,0,1-.38,1.46h1.9a3.17,3.17,0,0,0,0-.43,4.83,4.83,0,0,0-3.58-4.87l.2-1.5c3.13.62,5,3.26,5,6.8h1.28Zm-5.94-3.06a1.33,1.33,0,1,0-2.65,0A1.37,1.37,0,0,0,74,20.69,1.39,1.39,0,0,0,75.33,19.19Z"/>
   <path class="cls-1" d="M85,19.71c0,1.7-.81,2.54-2.42,2.54h-1.7v-1.6h1.37c.53,0,.86-.15,1-.46a3,3,0,0,0,.12-1v-6H85Z"/>
   <path class="cls-1" d="M88.06,22.25H86.47V13.17h1.59Z"/>
   <path class="cls-1" d="M97.27,22.25H95.38a2.19,2.19,0,0,1-1.79-.73A2.67,2.67,0,0,1,93,19.7V13.19h1.59v5.87a1.55,1.55,0,0,0,.47,1.35,2.21,2.21,0,0,0,1.23.24h1Z"/>
   <path class="cls-1" d="M103.41,22.25H96.75v-1.6h1.5a1,1,0,0,0,1-.48,2.29,2.29,0,0,0,.18-1.06V15.87H101V19a2.64,2.64,0,0,1-.35,1.63h2.77ZM101,14.58H99.4V13H101Z"/>
   <path class="cls-1" d="M104.47,14.57h-1.59V13h1.59Zm5.16,7.68H103v-1.6h1.5a1,1,0,0,0,1-.48,2.32,2.32,0,0,0,.17-1.06V15.87h1.6V19a2.65,2.65,0,0,1-.34,1.63h2.77Zm-2.43-7.68h-1.58V13h1.58Z"/>
   <path class="cls-1" d="M112.38,22.25H109.2v-1.6h3.18Z"/>
   <path class="cls-1" d="M115.24,22.25h-3.19v-1.6h3.19Z"/>
   <path class="cls-1" d="M118.09,22.25h-3.18v-1.6h3.18Z"/>
   <path class="cls-1" d="M121,22.25h-3.19v-1.6H121Z"/>
   <path class="cls-1" d="M123.8,22.25h-3.18v-1.6h3.18Z"/>
   <path class="cls-1" d="M126.66,22.25h-3.19v-1.6h3.19Z"/>
   <path class="cls-1" d="M129.52,22.25h-3.19v-1.6h3.19Z"/>
   <path class="cls-1" d="M132.37,22.25h-3.19v-1.6h3.19Z"/>
   <path class="cls-1" d="M135.23,22.25H132v-1.6h3.19Z"/>
   <path class="cls-1" d="M134.93,20.65h1.18c.82,0,1.22-.54,1.22-1.66V15.87H139v3.07a3.4,3.4,0,0,1-.26,1.63v.08h1.5q1.23,0,1.23-1.56V15.87h1.63v3.07a2.85,2.85,0,0,1-.33,1.71h1.57c.82,0,1.22-.52,1.22-1.54V15.87h1.63v3c0,2-1.15,3.34-2.79,3.34h-9.43Z"/>
   <path class="cls-1" d="M151.93,15.87V21c0,2.53-1.14,3.59-3.62,3.59V23.24a1.76,1.76,0,0,0,2-2V15.87Z"/>
   <path class="cls-1" d="M162.64,22.25h-9.36v-1.6h5.22c0-1.84-.73-2.91-2.19-3.22a7.47,7.47,0,0,0-1.45-.12V15.87c.79,0,1.29,0,1.5,0a3.7,3.7,0,0,1,.86.2q2.9.95,2.91,4.55h2.51Z"/>
   <path class="cls-1" d="M165.15,22.25H162v-1.6h3.18Z"/>
   <path class="cls-1" d="M168,22.25h-3.19v-1.6H168Z"/>
   <path class="cls-1" d="M176.08,20.26a3.26,3.26,0,0,1-5.84,2h-2.59v-1.6h2l0-.07c0-.13,0-.25,0-.38A3.12,3.12,0,0,1,172.85,17,3.16,3.16,0,0,1,176.08,20.26Zm-1.65,0a1.7,1.7,0,0,0-1.62-1.87,1.62,1.62,0,0,0-1.56,1.8A1.7,1.7,0,0,0,172.9,22,1.59,1.59,0,0,0,174.43,20.26Z"/>
   <path class="cls-1" d="M199.89,22.25H189a4.53,4.53,0,0,1-.68.9,4.2,4.2,0,0,1-3.22,1.44,4.31,4.31,0,0,1-3.2-1.38,4.75,4.75,0,0,1-1.37-3.43V15.87h1.64V19.6a4,4,0,0,0,.71,2.36,2.75,2.75,0,0,0,4.43,0A3.9,3.9,0,0,0,188,19.6V15.87h1.63v3.91a6.13,6.13,0,0,1-.07.87h1.31c.82,0,1.22-.52,1.22-1.56V15.87h1.63v3.07a2.77,2.77,0,0,1-.33,1.71h1.57c.82,0,1.23-.52,1.23-1.54V15.87h1.63v3a4,4,0,0,1-.36,1.74h2.46Z"/>
   <path class="cls-1" d="M202.77,22.25h-3.19v-1.6h3.19Z"/>
   <path class="cls-1" d="M205.62,22.25h-3.18v-1.6h3.18Z"/>
   <path class="cls-1" d="M208.48,22.25h-3.19v-1.6h3.19Z"/>
   <path class="cls-1" d="M211.33,22.25h-3.18v-1.6h3.18Z"/>
   <path class="cls-1" d="M214.19,22.25H211v-1.6h3.19Z"/>
   <path class="cls-1" d="M217,22.25h-3.18v-1.6H217Z"/>
   <path class="cls-1" d="M219.9,22.25h-3.19v-1.6h3.19Z"/>
   <path class="cls-1" d="M229,22.25h-2.06a3.07,3.07,0,0,1-2.61,1.23,3,3,0,0,1-2.58-1.23h-2.21v-1.6h1.56c0-.15,0-.31,0-.46A3.09,3.09,0,0,1,224.31,17a3,3,0,0,1,2.34.94,3.29,3.29,0,0,1,.89,2.35v.4H229Zm-3.1-2A2.18,2.18,0,0,0,225.5,19a1.52,1.52,0,0,0-1.23-.57,1.39,1.39,0,0,0-1.17.56,2,2,0,0,0-.37,1.23A1.69,1.69,0,0,0,224.35,22a1.41,1.41,0,0,0,1.16-.54A2,2,0,0,0,225.88,20.23Z"/>
   <path class="cls-1" d="M230,25.33h-1.59V23.76H230Zm5.13-3.08h-6.65v-1.6H230a1,1,0,0,0,1-.48,2.29,2.29,0,0,0,.18-1.06V15.87h1.6V19a2.56,2.56,0,0,1-.36,1.63h2.71Zm-2.41,3.08h-1.59V23.76h1.59Z"/>
   <path class="cls-1" d="M244.82,21.27v1H234.67v-1.6h8.4a3.43,3.43,0,0,0-.74-2.23,3,3,0,0,0-2.48-1.07,3.11,3.11,0,0,0-1.22.27,3.4,3.4,0,0,0-1.29.88c-.16-.29-.42-.7-.78-1.24a5.43,5.43,0,0,1,1.54-1,4.8,4.8,0,0,1,1.9-.4,4.87,4.87,0,0,1,2.77.78C244.14,17.53,244.82,19.06,244.82,21.27Zm-4,4.08h-1.59V23.77h1.59Z"/>
   <path class="cls-2" d="M280.32,27.23c1.33-7.81-1.31-13.41-6.47-13.41-4.91,0-9.92,7.05-11.26,14.85s1.56,13.41,6.47,13.41S279,35,280.32,27.23Z"/>
   <path class="cls-2" d="M277.21,0a22.75,22.75,0,0,0-20.63,32.41,21.54,21.54,0,0,1,.54-3.51c2.27-9.43,10.52-17.47,18.45-18s12.5,6.77,10.23,16.2c-2,8.22-8.5,15.37-15.38,17.4A22.79,22.79,0,1,0,277.21,0Z"/>
   <path d="M9.33,40.71a7.27,7.27,0,0,1-3.53.87A5.54,5.54,0,0,1,0,35.78a5.88,5.88,0,0,1,1.53-4.24A5.45,5.45,0,0,1,5.67,30a8.61,8.61,0,0,1,3.35.7L8.49,32a7.16,7.16,0,0,0-2.84-.61,3.71,3.71,0,0,0-3,1.22,4.52,4.52,0,0,0-1,3.1,4.62,4.62,0,0,0,1.16,3.27,3.91,3.91,0,0,0,3,1.24,5.23,5.23,0,0,0,2-.39,3.46,3.46,0,0,1-.08-.66V35.45H9.33Z"/>
   <path d="M18.17,41.4H11.92V30.13H18v1.4H13.5v3.29h3.77v1.41H13.5V40h4.67Z"/>
   <path d="M31.27,41.4H29.69V31.63h0a2.38,2.38,0,0,1-.18.49l-3.41,6.76c-.56,0-1-.39-1.42-1.15l-2.77-5.61a2.89,2.89,0,0,1-.18-.49h0V41.4H20.08V30.13h2.4l3,6,.22.51h.05c0-.11.1-.28.2-.52l3-6h2.39Z"/>
   <path d="M40.32,38.33a2.85,2.85,0,0,1-1.25,2.46,4.57,4.57,0,0,1-2.74.79,8.38,8.38,0,0,1-3-.54l.4-1.35a7.86,7.86,0,0,0,2.61.49,2.79,2.79,0,0,0,1.54-.38,1.47,1.47,0,0,0,.73-1.33c0-.66-.45-1.24-1.35-1.73l-2.51-1.32a2.93,2.93,0,0,1-1.35-2.49,2.64,2.64,0,0,1,1.15-2.28,4.41,4.41,0,0,1,2.56-.7,8.26,8.26,0,0,1,2.7.52l-.47,1.31a6.55,6.55,0,0,0-2.23-.43c-1.35,0-2,.51-2,1.55,0,.57.45,1.08,1.35,1.54,1.58.81,2.42,1.25,2.53,1.32A3.05,3.05,0,0,1,40.32,38.33Z"/>
   <path d="M56.16,35.78A6.27,6.27,0,0,1,54.8,40a5.15,5.15,0,0,1-7.44,0A6.22,6.22,0,0,1,46,35.78a6.36,6.36,0,0,1,1.35-4.24,5.17,5.17,0,0,1,7.5,0A6.29,6.29,0,0,1,56.16,35.78Zm-1.67,0a5.35,5.35,0,0,0-.84-3.16,2.93,2.93,0,0,0-2.57-1.27,3,3,0,0,0-2.59,1.27,5.35,5.35,0,0,0-.84,3.16,5.4,5.4,0,0,0,.78,3,3.24,3.24,0,0,0,5.31,0A5.56,5.56,0,0,0,54.49,35.78Z"/>
   <path d="M67,37.63a3.69,3.69,0,0,1-1.23,3,5.45,5.45,0,0,1-6.21,0,3.65,3.65,0,0,1-1.24-3v-7.5h1.59v7.35c0,1.8.91,2.7,2.75,2.7s2.75-.9,2.75-2.7V30.13H67Z"/>
   <path d="M77.34,41.4H75.48L73.2,37.51a3,3,0,0,0-.69-.89l-.41,0a6.14,6.14,0,0,1-1-.09V41.4H69.54V30.26A12.42,12.42,0,0,1,72.23,30a5.05,5.05,0,0,1,2.85.7,3,3,0,0,1,1.24,2.61,3,3,0,0,1-.68,2,3,3,0,0,1-1.75,1.07v0c.28,0,.59.3.94.89Zm-2.65-8.17c0-1.27-.81-1.9-2.41-1.9a5.3,5.3,0,0,0-1.16.12v3.8a6.27,6.27,0,0,0,1.11.1A2.84,2.84,0,0,0,74,34.82,1.9,1.9,0,0,0,74.69,33.23Z"/>
   <path d="M92.62,35.78A6.27,6.27,0,0,1,91.26,40a5.15,5.15,0,0,1-7.44,0,6.22,6.22,0,0,1-1.37-4.21,6.36,6.36,0,0,1,1.35-4.24,5.17,5.17,0,0,1,7.5,0A6.29,6.29,0,0,1,92.62,35.78Zm-1.67,0a5.28,5.28,0,0,0-.84-3.16,2.93,2.93,0,0,0-2.57-1.27A3,3,0,0,0,85,32.62a5.35,5.35,0,0,0-.84,3.16,5.4,5.4,0,0,0,.78,3,3.24,3.24,0,0,0,5.31,0A5.56,5.56,0,0,0,91,35.78Z"/>
   <path d="M109.23,30.13l-3.36,11.44a2,2,0,0,1-2.16-1.52l-2.17-7.43a3.3,3.3,0,0,1-.09-.35h0a3.44,3.44,0,0,0-.08.36l-2.67,8.94a2,2,0,0,1-2.08-1.52l-3-9.92h1.76l2.58,9.16h0c0-.15.09-.4.18-.74l2.44-8.42h1.86l2.66,9.16h.05c0-.15.08-.39.16-.72l2.34-8.44Z"/>
   <path d="M120.08,41.3a2.43,2.43,0,0,1-.91.19,2.26,2.26,0,0,1-2-1.24l-4.66-8a3.6,3.6,0,0,1-.22-.49h0V41.4h-1.58V30.13H113l5.19,9c.06.09.14.26.27.5h0V30.13h1.58Z"/>
   <path d="M128.37,41.4h-1.58V30.13h1.58Z"/>
   <path d="M140.39,41.3a2.43,2.43,0,0,1-.91.19,2.24,2.24,0,0,1-2-1.24l-4.66-8a3.6,3.6,0,0,1-.22-.49h-.05V41.4H131V30.13h2.36l5.19,9,.26.5h0V30.13h1.58Z"/>
   <path d="M152,35.48A6,6,0,0,1,150.38,40a6.42,6.42,0,0,1-4.62,1.57,16.22,16.22,0,0,1-2.78-.24V30.28a13,13,0,0,1,3.14-.33,6,6,0,0,1,4.35,1.49A5.31,5.31,0,0,1,152,35.48Zm-1.66,0a4.25,4.25,0,0,0-1.07-3.09,4.19,4.19,0,0,0-3.1-1.08,7.6,7.6,0,0,0-1.63.15v8.55a7,7,0,0,0,1.43.13Q150.36,40.18,150.36,35.52Z"/>
   <path d="M155.73,41.4h-1.58V30.13h1.58Z"/>
   <path d="M167.82,41.4h-1.75l-1.2-3.08H160.1l-1.19,3.08h-1.66l4.6-11.27h1.53ZM164.36,37l-1.84-4.8h0a2.8,2.8,0,0,1-.1.33L160.68,37Z"/>
   <path d="M178.66,41.3a2.42,2.42,0,0,1-.9.19,2.26,2.26,0,0,1-2-1.24l-4.66-8a3.6,3.6,0,0,1-.22-.49h0V41.4h-1.59V30.13h2.36l5.19,9c.06.09.14.26.26.5h0V30.13h1.58Z"/>
   <path d="M191.75,38.33a2.85,2.85,0,0,1-1.25,2.46,4.57,4.57,0,0,1-2.74.79,8.29,8.29,0,0,1-3-.54l.39-1.35a7.81,7.81,0,0,0,2.6.49,2.86,2.86,0,0,0,1.56-.38,1.48,1.48,0,0,0,.72-1.33c0-.66-.45-1.24-1.35-1.73l-2.51-1.32a2.93,2.93,0,0,1-1.35-2.49A2.63,2.63,0,0,1,186,30.65a4.38,4.38,0,0,1,2.55-.7,8.26,8.26,0,0,1,2.7.52l-.47,1.31a6.55,6.55,0,0,0-2.23-.43c-1.35,0-2,.51-2,1.55,0,.57.45,1.08,1.36,1.54q2.35,1.22,2.52,1.32A3.05,3.05,0,0,1,191.75,38.33Z"/>
   <path d="M202,30.77l-.59,1.17a5.64,5.64,0,0,0-2.45-.61,3.69,3.69,0,0,0-2.93,1.3,5.13,5.13,0,0,0,0,6.22,3.72,3.72,0,0,0,3,1.33,6.06,6.06,0,0,0,2.28-.48l.49,1.24a7.06,7.06,0,0,1-2.92.64,5.2,5.2,0,0,1-4-1.73,6,6,0,0,1-1.51-4.17,5.68,5.68,0,0,1,1.54-4.11,5.34,5.34,0,0,1,4-1.61A6.92,6.92,0,0,1,202,30.77Z"/>
   <path d="M212.35,41.4h-1.58V36.21h-5.46V41.4h-1.58V30.13h1.58v4.68h5.46V30.13h1.58Z"/>
   <path d="M224.65,35.78A6.27,6.27,0,0,1,223.29,40a5.15,5.15,0,0,1-7.44,0,6.27,6.27,0,0,1-1.37-4.21,6.36,6.36,0,0,1,1.35-4.24,5.17,5.17,0,0,1,7.5,0A6.29,6.29,0,0,1,224.65,35.78Zm-1.67,0a5.35,5.35,0,0,0-.84-3.16,3.25,3.25,0,0,0-5.15,0,5.28,5.28,0,0,0-.85,3.16,5.4,5.4,0,0,0,.78,3,3.24,3.24,0,0,0,5.31,0A5.56,5.56,0,0,0,223,35.78Z"/>
   <path d="M236.4,35.78A6.27,6.27,0,0,1,235,40a5.15,5.15,0,0,1-7.44,0,6.27,6.27,0,0,1-1.37-4.21,6.36,6.36,0,0,1,1.35-4.24,5.17,5.17,0,0,1,7.5,0A6.29,6.29,0,0,1,236.4,35.78Zm-1.66,0a5.35,5.35,0,0,0-.84-3.16,3.26,3.26,0,0,0-5.16,0,5.35,5.35,0,0,0-.84,3.16,5.48,5.48,0,0,0,.77,3,3.24,3.24,0,0,0,5.31,0A5.56,5.56,0,0,0,234.74,35.78Z"/>
   <path d="M244.78,41.4h-6.25V30.13h1.58V40h4.67Z"/>
</svg>