<?xml version="1.0" encoding="UTF-8" standalone="no"?>
<svg
   xmlns:dc="http://purl.org/dc/elements/1.1/"
   xmlns:cc="http://creativecommons.org/ns#"
   xmlns:rdf="http://www.w3.org/1999/02/22-rdf-syntax-ns#"
   xmlns:svg="http://www.w3.org/2000/svg"
   xmlns="http://www.w3.org/2000/svg"
   viewBox="0 0 541.33331 141.33333"
   height="141.33333"
   width="541.33331"
   xml:space="preserve"
   id="svg2"
   version="1.1"><metadata
     id="metadata8"><rdf:RDF><cc:Work
         rdf:about=""><dc:format>image/svg+xml</dc:format><dc:type
           rdf:resource="http://purl.org/dc/dcmitype/StillImage" /></cc:Work></rdf:RDF></metadata><defs
     id="defs6"><clipPath
       id="clipPath18"
       clipPathUnits="userSpaceOnUse"><path
         id="path16"
         d="M 0,106 H 406 V 0 H 0 Z" /></clipPath></defs><g
     transform="matrix(1.3333333,0,0,-1.3333333,0,141.33333)"
     id="g10"><g
       id="g12"><g
         clip-path="url(#clipPath18)"
         id="g14"><g
           transform="translate(92.5996,59.7354)"
           id="g20"><path
             id="path22"
             style="fill:#231f20;fill-opacity:1;fill-rule:nonzero;stroke:none"
             d="m 0,0 c -6.16,0 -10.473,4.29 -10.473,10.479 0,6.275 3.867,10.525 10.235,10.525 2.08,0 4.136,-0.469 6.04,-1.279 l -0.95,-2.351 c -1.607,0.689 -3.363,1.106 -5.12,1.106 -4.759,0 -7.199,-3.242 -7.199,-7.799 0,-4.909 3.064,-8.151 7.528,-8.151 1.249,0 2.44,0.237 3.596,0.718 C 3.572,3.63 3.51,4.046 3.51,4.435 v 6.634 H 6.365 V 1.58 C 4.464,0.532 2.172,0 0,0" /></g><g
           transform="translate(103.9365,60.0596)"
           id="g24"><path
             id="path26"
             style="fill:#231f20;fill-opacity:1;fill-rule:nonzero;stroke:none"
             d="M 0,0 V 20.355 H 11.009 V 17.826 H 2.856 V 11.88 H 9.67 V 9.35 H 2.856 V 2.53 h 8.419 V 0 Z" /></g><g
           transform="translate(136.3057,60.0596)"
           id="g28"><path
             id="path30"
             style="fill:#231f20;fill-opacity:1;fill-rule:nonzero;stroke:none"
             d="m 0,0 v 17.646 h -0.058 c 0,0 -0.089,-0.417 -0.327,-0.892 L -6.546,4.556 c -1.188,0 -1.902,0.741 -2.558,2.084 l -4.999,10.114 c -0.178,0.359 -0.326,0.892 -0.326,0.892 h -0.059 V 0 h -2.857 v 20.355 h 4.344 l 5.326,-10.86 c 0.088,-0.18 0.418,-0.921 0.418,-0.921 h 0.089 c 0,0 0.174,0.596 0.357,0.955 l 5.356,10.826 H 2.859 L 2.859,0 Z" /></g><g
           transform="translate(148.5937,59.7354)"
           id="g32"><path
             id="path34"
             style="fill:#231f20;fill-opacity:1;fill-rule:nonzero;stroke:none"
             d="m 0,0 c -1.812,0 -3.689,0.324 -5.381,0.984 l 0.714,2.437 C -3.064,2.86 -1.575,2.53 0.031,2.53 c 1.962,0 4.107,0.804 4.107,3.092 0,4.44 -9.405,3.485 -9.405,9.998 0,3.78 3.335,5.384 6.697,5.384 1.696,0 3.271,-0.382 4.881,-0.949 L 5.445,17.704 C 4.289,18.121 2.796,18.48 1.43,18.48 c -1.845,0 -3.66,-0.683 -3.66,-2.802 0,-3.862 9.432,-3.178 9.432,-9.813 C 7.202,1.847 3.603,0 0,0" /></g><g
           transform="translate(178.2129,67.8232)"
           id="g36"><path
             id="path38"
             style="fill:#231f20;fill-opacity:1;fill-rule:nonzero;stroke:none"
             d="M 0,0 -3.84,10.125 H -3.867 L -4.102,9.483 -7.765,0 Z M 4.975,-7.475 H 2.911 L 0.64,-1.691 h -9.132 l -2.24,-5.784 h -1.95 l 7.998,19.893 h 1.949 z" /></g><g
           transform="translate(205.1211,60.3486)"
           id="g40"><path
             id="path42"
             style="fill:#231f20;fill-opacity:1;fill-rule:nonzero;stroke:none"
             d="m 0,0 h -1.749 v 9.599 c 0,2.484 -1.143,3.723 -3.43,3.723 -1.221,0 -2.523,-0.33 -3.897,-0.99 0.289,-0.66 0.436,-1.43 0.436,-2.328 V 0 h -1.776 v 9.599 c 0,2.484 -1.143,3.723 -3.433,3.723 -0.874,0 -2.064,-0.296 -3.577,-0.875 0.04,-0.422 0.057,-0.723 0.057,-0.903 V 0 h -1.774 v 11.492 c 0,0.365 -0.055,0.996 -0.172,1.888 2.52,0.99 4.42,1.482 5.701,1.482 1.646,0 2.906,-0.446 3.781,-1.338 1.861,0.892 3.479,1.338 4.858,1.338 3.316,0 4.975,-1.621 4.975,-4.858 z" /></g><g
           transform="translate(218.4707,68.6104)"
           id="g44"><path
             id="path46"
             style="fill:#231f20;fill-opacity:1;fill-rule:nonzero;stroke:none"
             d="M 0,0 C 0,1.378 -0.312,2.53 -0.93,3.462 -1.668,4.527 -2.695,5.06 -4.013,5.06 -5.295,5.06 -6.298,4.58 -7.024,3.625 -7.754,2.663 -8.113,1.453 -8.113,0 Z M 1.95,-0.237 C 1.95,-0.608 1.919,-1.042 1.86,-1.54 H -8.145 c 0.038,-1.783 0.582,-3.178 1.631,-4.168 0.949,-0.886 2.19,-1.332 3.723,-1.332 1.006,0 2.033,0.203 3.083,0.608 L 0.787,-7.734 C -0.397,-8.302 -1.728,-8.58 -3.2,-8.58 c -2.132,0 -3.83,0.753 -5.093,2.264 -1.199,1.418 -1.802,3.225 -1.802,5.413 0,2.078 0.487,3.792 1.455,5.147 1.086,1.574 2.619,2.356 4.597,2.356 1.897,0 3.393,-0.677 4.48,-2.038 C 1.445,3.3 1.95,1.708 1.95,-0.237" /></g><g
           transform="translate(230.6875,75.0366)"
           id="g48"><path
             id="path50"
             style="fill:#231f20;fill-opacity:1;fill-rule:nonzero;stroke:none"
             d="m 0,0 -0.495,-1.569 c -0.541,0.092 -1.038,0.145 -1.484,0.145 -1.104,0 -2.162,-0.226 -3.17,-0.666 0.039,-0.469 0.057,-0.799 0.057,-0.99 v -11.608 h -1.771 v 11.544 c 0,0.388 -0.06,1.025 -0.177,1.894 2.153,0.949 3.957,1.424 5.409,1.424 C -1.065,0.174 -0.522,0.116 0,0" /></g><path
           id="path52"
           style="fill:#231f20;fill-opacity:1;fill-rule:nonzero;stroke:none"
           d="m 236.127,60.349 h -1.774 v 14.543 h 1.774 z m 0.35,19.522 c 0,-0.353 -0.129,-0.637 -0.38,-0.851 -0.252,-0.208 -0.552,-0.312 -0.903,-0.312 -0.834,0 -1.249,0.387 -1.249,1.163 0,0.764 0.415,1.158 1.249,1.158 0.351,0 0.651,-0.11 0.903,-0.319 0.251,-0.214 0.38,-0.498 0.38,-0.839" /><g
           transform="translate(250.9619,60.876)"
           id="g54"><path
             id="path56"
             style="fill:#231f20;fill-opacity:1;fill-rule:nonzero;stroke:none"
             d="m 0,0 c -1.181,-0.544 -2.465,-0.822 -3.84,-0.822 -1.998,0 -3.684,0.66 -5.064,1.98 -1.47,1.418 -2.208,3.276 -2.208,5.581 0,2.252 0.625,4.075 1.877,5.47 1.249,1.402 2.954,2.103 5.103,2.103 1.32,0 2.695,-0.284 4.132,-0.852 l -0.522,-1.453 c -1.224,0.504 -2.397,0.759 -3.52,0.759 -1.708,0 -3.018,-0.643 -3.93,-1.922 -0.774,-1.089 -1.165,-2.455 -1.165,-4.105 0,-1.859 0.544,-3.341 1.631,-4.447 1.009,-1.047 2.297,-1.569 3.87,-1.569 1.045,0 2.095,0.209 3.141,0.643 z" /></g><g
           transform="translate(262.8291,62.1553)"
           id="g58"><path
             id="path60"
             style="fill:#231f20;fill-opacity:1;fill-rule:nonzero;stroke:none"
             d="M 0,0 C -0.06,0.347 -0.087,0.66 -0.087,0.955 V 6.281 C -0.478,5.969 -1.087,5.691 -1.921,5.436 -2.656,5.257 -3.384,5.089 -4.102,4.915 -5.034,4.661 -5.729,4.348 -6.196,3.977 -6.818,3.491 -7.128,2.854 -7.128,2.061 c 0,-1.76 1.279,-2.646 3.838,-2.646 1.32,0 2.416,0.197 3.29,0.585 m 1.889,-1.048 c -1.899,-0.718 -3.682,-1.077 -5.351,-1.077 -1.572,0 -2.851,0.301 -3.839,0.897 -1.204,0.701 -1.803,1.754 -1.803,3.173 0,2.212 1.511,3.665 4.535,4.366 1.689,0.387 2.716,0.66 3.086,0.81 0.928,0.428 1.396,1.06 1.396,1.893 0,1.668 -1.099,2.501 -3.288,2.501 -1.047,0 -2.249,-0.301 -3.605,-0.903 l -0.555,1.43 c 1.493,0.677 2.938,1.013 4.335,1.013 3.259,0 4.887,-1.493 4.887,-4.481 V 0.839 c 0,-0.347 0.066,-0.978 0.202,-1.887" /></g><g
           transform="translate(280.2236,60.3486)"
           id="g62"><path
             id="path64"
             style="fill:#231f20;fill-opacity:1;fill-rule:nonzero;stroke:none"
             d="m 0,0 h -1.774 v 9.599 c 0,2.484 -1.186,3.723 -3.55,3.723 -1.339,0 -2.714,-0.313 -4.13,-0.932 0.037,-0.406 0.059,-0.695 0.059,-0.869 V 0 h -1.776 v 11.458 c 0,0.387 -0.058,1.013 -0.172,1.864 2.345,1.03 4.422,1.54 6.224,1.54 1.591,0 2.84,-0.411 3.75,-1.239 C -0.457,12.801 0,11.596 0,10.004 Z" /></g><g
           transform="translate(302.5918,67.8232)"
           id="g66"><path
             id="path68"
             style="fill:#231f20;fill-opacity:1;fill-rule:nonzero;stroke:none"
             d="M 0,0 -3.84,10.125 H -3.868 L -4.103,9.483 -7.769,0 Z M 4.975,-7.475 H 2.907 L 0.64,-1.691 h -9.135 l -2.24,-5.784 h -1.95 l 7.998,19.893 h 1.951 z" /></g><g
           transform="translate(320.2754,60.876)"
           id="g70"><path
             id="path72"
             style="fill:#231f20;fill-opacity:1;fill-rule:nonzero;stroke:none"
             d="m 0,0 c -1.181,-0.544 -2.461,-0.822 -3.84,-0.822 -1.996,0 -3.681,0.66 -5.059,1.98 -1.476,1.418 -2.21,3.276 -2.21,5.581 0,2.252 0.625,4.075 1.874,5.47 1.252,1.402 2.954,2.103 5.106,2.103 1.316,0 2.692,-0.284 4.129,-0.852 l -0.522,-1.453 c -1.222,0.504 -2.394,0.759 -3.521,0.759 -1.707,0 -3.015,-0.643 -3.928,-1.922 -0.772,-1.089 -1.163,-2.455 -1.163,-4.105 0,-1.859 0.541,-3.341 1.631,-4.447 1.009,-1.047 2.299,-1.569 3.87,-1.569 1.047,0 2.092,0.209 3.138,0.643 z" /></g><g
           transform="translate(332.1426,62.1553)"
           id="g74"><path
             id="path76"
             style="fill:#231f20;fill-opacity:1;fill-rule:nonzero;stroke:none"
             d="M 0,0 C -0.055,0.347 -0.087,0.66 -0.087,0.955 V 6.281 C -0.475,5.969 -1.086,5.691 -1.921,5.436 -2.656,5.257 -3.384,5.089 -4.102,4.915 -5.031,4.661 -5.729,4.348 -6.193,3.977 -6.814,3.491 -7.123,2.854 -7.123,2.061 c 0,-1.76 1.277,-2.646 3.837,-2.646 1.32,0 2.415,0.197 3.286,0.585 m 1.892,-1.048 c -1.901,-0.718 -3.685,-1.077 -5.354,-1.077 -1.569,0 -2.851,0.301 -3.839,0.897 -1.204,0.701 -1.801,1.754 -1.801,3.173 0,2.212 1.509,3.665 4.536,4.366 1.686,0.387 2.713,0.66 3.083,0.81 0.931,0.428 1.396,1.06 1.396,1.893 0,1.668 -1.094,2.501 -3.285,2.501 -1.05,0 -2.252,-0.301 -3.608,-0.903 l -0.552,1.43 c 1.492,0.677 2.938,1.013 4.332,1.013 3.261,0 4.889,-1.493 4.889,-4.481 V 0.839 c 0,-0.347 0.068,-0.978 0.203,-1.887" /></g><g
           transform="translate(347.2109,62.0913)"
           id="g78"><path
             id="path80"
             style="fill:#231f20;fill-opacity:1;fill-rule:nonzero;stroke:none"
             d="m 0,0 c -0.018,0.214 -0.027,0.411 -0.027,0.585 v 10.062 c -0.815,0.62 -1.865,0.932 -3.141,0.932 -1.612,0 -2.855,-0.614 -3.726,-1.829 -0.776,-1.065 -1.164,-2.438 -1.164,-4.105 0,-1.743 0.438,-3.184 1.312,-4.302 0.966,-1.244 2.305,-1.864 4.013,-1.864 1.047,0 1.959,0.18 2.733,0.521 m 1.889,-1.1 c -1.743,-0.643 -3.313,-0.961 -4.709,-0.961 -2.212,0 -3.975,0.729 -5.295,2.212 -1.28,1.412 -1.921,3.247 -1.921,5.494 0,2.171 0.573,3.937 1.719,5.297 1.219,1.454 2.897,2.177 5.032,2.177 1.219,0 2.306,-0.254 3.258,-0.759 v 7.244 H 1.749 V 0.643 c 0,-0.371 0.046,-0.95 0.14,-1.743" /></g><g
           transform="translate(362.6562,68.6104)"
           id="g82"><path
             id="path84"
             style="fill:#231f20;fill-opacity:1;fill-rule:nonzero;stroke:none"
             d="M 0,0 C 0,1.378 -0.31,2.53 -0.93,3.462 -1.668,4.527 -2.695,5.06 -4.012,5.06 -5.292,5.06 -6.298,4.58 -7.024,3.625 -7.75,2.663 -8.115,1.453 -8.115,0 Z m 1.951,-0.237 c 0,-0.371 -0.031,-0.805 -0.09,-1.303 H -8.144 c 0.04,-1.783 0.582,-3.178 1.63,-4.168 0.949,-0.886 2.189,-1.332 3.723,-1.332 1.006,0 2.034,0.203 3.083,0.608 l 0.495,-1.302 c -1.183,-0.568 -2.513,-0.846 -3.986,-0.846 -2.133,0 -3.828,0.753 -5.089,2.264 -1.204,1.418 -1.803,3.225 -1.803,5.413 0,2.078 0.484,3.792 1.451,5.147 1.087,1.574 2.619,2.356 4.597,2.356 1.899,0 3.395,-0.677 4.48,-2.038 C 1.442,3.3 1.951,1.708 1.951,-0.237" /></g><g
           transform="translate(387.3252,60.3486)"
           id="g86"><path
             id="path88"
             style="fill:#231f20;fill-opacity:1;fill-rule:nonzero;stroke:none"
             d="m 0,0 h -1.749 v 9.599 c 0,2.484 -1.143,3.723 -3.433,3.723 -1.218,0 -2.519,-0.33 -3.897,-0.99 0.292,-0.66 0.439,-1.43 0.439,-2.328 V 0 h -1.775 v 9.599 c 0,2.484 -1.144,3.723 -3.434,3.723 -0.874,0 -2.066,-0.296 -3.578,-0.875 0.041,-0.422 0.059,-0.723 0.059,-0.903 V 0 h -1.776 v 11.492 c 0,0.365 -0.054,0.996 -0.171,1.888 2.519,0.99 4.419,1.482 5.701,1.482 1.645,0 2.906,-0.446 3.781,-1.338 1.86,0.892 3.479,1.338 4.858,1.338 3.313,0 4.975,-1.621 4.975,-4.858 z" /></g><g
           transform="translate(403,74.8921)"
           id="g90"><path
             id="path92"
             style="fill:#231f20;fill-opacity:1;fill-rule:nonzero;stroke:none"
             d="m 0,0 -4.854,-14.925 c -0.508,-1.529 -1.213,-2.866 -2.126,-4.012 -0.989,-1.257 -2.096,-2.073 -3.318,-2.444 l -0.695,1.402 c 1.993,0.694 3.449,2.419 4.36,5.175 -0.153,0.017 -0.29,0.064 -0.407,0.145 -0.328,0.174 -0.591,0.509 -0.784,1.013 L -13.204,0 h 2.009 l 4.971,-13.119 h 0.058 L -1.889,0 Z" /></g><g
           transform="translate(172.6133,37.1797)"
           id="g94"><path
             id="path96"
             style="fill:#231f20;fill-opacity:1;fill-rule:nonzero;stroke:none"
             d="M 0,0 -2.077,5.5 H -2.092 L -2.219,5.146 -4.196,0 Z M 2.689,-4.07 H 1.571 L 0.344,-0.921 H -4.591 L -5.803,-4.07 h -1.052 l 4.323,10.82 h 1.055 z" /></g><g
           transform="translate(182.2832,35.9863)"
           id="g98"><path
             id="path100"
             style="fill:#231f20;fill-opacity:1;fill-rule:nonzero;stroke:none"
             d="M 0,0 C 0,1.465 -0.967,2.2 -2.895,2.2 H -4.323 V -2.003 C -3.936,-2.09 -3.507,-2.13 -3.034,-2.13 -1.012,-2.13 0,-1.418 0,0 m -0.44,5.17 c 0,1.35 -0.872,2.026 -2.613,2.026 -0.5,0 -0.926,-0.04 -1.27,-0.127 V 3.115 h 1.366 c 1.677,0 2.517,0.689 2.517,2.055 M 1.068,0.023 c 0,-1.105 -0.407,-1.911 -1.225,-2.425 -0.671,-0.429 -1.581,-0.649 -2.738,-0.649 -0.868,0 -1.699,0.081 -2.484,0.243 V 7.845 c 0.828,0.174 1.646,0.266 2.452,0.266 2.369,0 3.555,-0.978 3.555,-2.941 C 0.628,4.592 0.476,4.088 0.172,3.653 -0.132,3.219 -0.558,2.924 -1.102,2.768 V 2.732 c 1.446,-0.34 2.17,-1.244 2.17,-2.709" /></g><g
           transform="translate(193.2729,36.6523)"
           id="g102"><path
             id="path104"
             style="fill:#231f20;fill-opacity:1;fill-rule:nonzero;stroke:none"
             d="m 0,0 c 0,-1.198 -0.352,-2.119 -1.052,-2.756 -0.702,-0.637 -1.659,-0.961 -2.862,-0.961 -1.197,0 -2.137,0.324 -2.831,0.949 -0.722,0.655 -1.086,1.576 -1.086,2.768 v 7.277 h 1.056 V 0.162 c 0,-0.943 0.243,-1.667 0.73,-2.183 0.485,-0.52 1.196,-0.775 2.131,-0.775 0.932,0 1.64,0.255 2.129,0.775 0.487,0.516 0.733,1.24 0.733,2.183 V 7.277 H 0 Z" /></g><g
           transform="translate(206.9668,38.7891)"
           id="g106"><path
             id="path108"
             style="fill:#231f20;fill-opacity:1;fill-rule:nonzero;stroke:none"
             d="m 0,0 c 0,1.389 -0.375,2.466 -1.132,3.236 -0.754,0.77 -1.818,1.158 -3.19,1.158 -0.65,0 -1.238,-0.058 -1.763,-0.174 v -8.996 c 0.482,-0.105 0.99,-0.157 1.525,-0.157 1.468,0 2.606,0.457 3.412,1.378 C -0.381,-2.669 0,-1.488 0,0 m 1.071,0 c 0,-1.801 -0.509,-3.231 -1.526,-4.279 -1.019,-1.041 -2.421,-1.575 -4.216,-1.575 -0.827,0 -1.648,0.082 -2.466,0.244 V 5.025 c 0.932,0.191 1.87,0.284 2.815,0.284 1.684,0 3.005,-0.457 3.962,-1.384 C 0.593,3.005 1.071,1.696 1.071,0" /></g><g
           transform="translate(218.0518,33.1094)"
           id="g110"><path
             id="path112"
             style="fill:#231f20;fill-opacity:1;fill-rule:nonzero;stroke:none"
             d="M 0,0 H -1.052 V 5.251 H -6.744 V 0 h -1.053 v 10.82 h 1.053 V 6.166 h 5.692 V 10.82 H 0 Z" /></g><g
           transform="translate(226.5088,37.1797)"
           id="g114"><path
             id="path116"
             style="fill:#231f20;fill-opacity:1;fill-rule:nonzero;stroke:none"
             d="M 0,0 -2.072,5.5 H -2.089 L -2.215,5.146 -4.195,0 Z M 2.689,-4.07 H 1.576 L 0.349,-0.921 H -4.589 L -5.803,-4.07 h -1.051 l 4.326,10.82 h 1.052 z" /></g><g
           transform="translate(236.1787,35.9863)"
           id="g118"><path
             id="path120"
             style="fill:#231f20;fill-opacity:1;fill-rule:nonzero;stroke:none"
             d="M 0,0 C 0,1.465 -0.963,2.2 -2.892,2.2 H -4.321 V -2.003 C -3.934,-2.09 -3.504,-2.13 -3.033,-2.13 -1.012,-2.13 0,-1.418 0,0 m -0.439,5.17 c 0,1.35 -0.868,2.026 -2.609,2.026 -0.502,0 -0.927,-0.04 -1.273,-0.127 V 3.115 h 1.366 c 1.679,0 2.516,0.689 2.516,2.055 m 1.51,-5.147 c 0,-1.105 -0.409,-1.911 -1.227,-2.425 -0.672,-0.429 -1.582,-0.649 -2.736,-0.649 -0.87,0 -1.698,0.081 -2.482,0.243 V 7.845 c 0.828,0.174 1.645,0.266 2.452,0.266 2.369,0 3.553,-0.978 3.553,-2.941 C 0.631,4.592 0.478,4.088 0.175,3.653 -0.129,3.219 -0.553,2.924 -1.102,2.768 V 2.732 C 0.348,2.392 1.071,1.488 1.071,0.023" /></g><path
           id="path122"
           style="fill:#231f20;fill-opacity:1;fill-rule:nonzero;stroke:none"
           d="m 240.379,33.109 h -1.055 v 10.82 h 1.055 z" /><path
           id="path124"
           style="fill:#231f20;fill-opacity:1;fill-rule:nonzero;stroke:none"
           d="m 168.986,94.547 h -0.833 v 1.007 h 0.833 z m -1.542,0 h -0.836 v 1.007 h 0.836 z m 1.237,-3.554 v 2.084 h -1.495 c -0.933,0 -1.566,-0.95 -1.566,-2.188 0,-1.205 0.625,-2.201 1.541,-2.201 0.991,0 1.495,0.759 1.52,2.305 m 2.803,-3.769 h -0.544 c -1.167,0 -1.905,0.578 -2.247,1.719 -0.354,-0.602 -0.953,-0.903 -1.803,-0.903 -1.2,0 -2.094,1.239 -2.094,2.802 0,1.673 0.894,2.848 2.236,2.848 h 2.495 v -3.78 c 0,-1.181 0.555,-1.87 1.508,-1.87 h 0.449 z" /><g
           transform="translate(179.9385,88.04)"
           id="g126"><path
             id="path128"
             style="fill:#231f20;fill-opacity:1;fill-rule:nonzero;stroke:none"
             d="m 0,0 c 0.024,0.26 0.035,0.503 0.035,0.741 0,1.823 -0.752,3.051 -2.047,3.051 -1.437,0 -3.135,-1.673 -3.756,-3.595 V 0 Z m 0.812,-0.816 h -9.55 v 0.827 h 1.095 c 0.837,0 1.249,0.608 1.249,1.836 v 2.125 h 0.826 v -2.05 c 0.882,1.65 2.304,2.617 3.614,2.617 1.883,0 2.825,-1.337 2.825,-3.983 0,-0.417 -0.024,-0.874 -0.059,-1.372" /></g><g
           transform="translate(184.9419,87.2236)"
           id="g130"><path
             id="path132"
             style="fill:#231f20;fill-opacity:1;fill-rule:nonzero;stroke:none"
             d="M 0,0 H -0.929 C -1.355,0 -1.708,0.156 -2,0.446 -2.342,0.782 -2.508,1.25 -2.508,1.875 v 5.744 h 0.849 V 2.368 c 0,-0.544 0.083,-0.932 0.236,-1.164 C -1.292,1.001 -1.068,0.886 -0.754,0.839 -0.668,0.828 -0.576,0.828 0,0.828 Z" /></g><path
           id="path134"
           style="fill:#231f20;fill-opacity:1;fill-rule:nonzero;stroke:none"
           d="m 189.326,93.418 h -0.838 v 1.001 h 0.838 z m 4.789,-6.194 h -9.454 v 0.827 h 7.159 c 0.01,0.157 0.021,0.29 0.021,0.423 0,1.992 -1.045,3.132 -2.894,3.132 -1.001,0 -1.744,-0.394 -2.212,-1.169 -0.12,0.133 -0.358,0.365 -0.72,0.735 0.671,0.84 1.636,1.25 2.92,1.25 2.344,0 3.885,-1.557 3.885,-4.005 v -0.366 h 1.295 z" /><g
           transform="translate(196.6138,94.8423)"
           id="g136"><path
             id="path138"
             style="fill:#231f20;fill-opacity:1;fill-rule:nonzero;stroke:none"
             d="m 0,0 v -5.54 c 0,-1.378 -0.575,-2.079 -1.731,-2.079 h -1.025 v 0.817 h 0.753 c 0.504,0 0.837,0.168 1,0.491 0.12,0.209 0.179,0.591 0.179,1.135 l 0,5.176 z" /></g><path
           id="path140"
           style="fill:#231f20;fill-opacity:1;fill-rule:nonzero;stroke:none"
           d="m 199.016,87.224 h -0.824 v 7.619 h 0.824 z" /><path
           id="path142"
           style="fill:#231f20;fill-opacity:1;fill-rule:nonzero;stroke:none"
           d="m 207.223,83.426 h -0.834 v 0.996 h 0.834 z m -1.542,0 h -0.838 v 0.996 h 0.838 z m 6.369,3.798 h -0.175 c -1.084,0 -1.918,0.613 -2.191,1.627 0,-1.969 -1.742,-3.532 -3.745,-3.532 -2.166,0 -3.815,1.835 -3.815,4.191 v 1.176 h 0.838 v -1.019 c 0,-2.125 1.141,-3.521 3.015,-3.521 1.574,0 2.952,1.315 2.952,2.733 0,1.054 -0.563,1.599 -1.529,1.599 v 0.734 h -0.015 c 0,0.018 0.216,0.03 0.639,0.03 0.718,0 1.705,-0.742 2.072,-1.679 0.434,-1.135 0.825,-1.512 1.708,-1.512 h 0.246 z" /><path
           id="path144"
           style="fill:#231f20;fill-opacity:1;fill-rule:nonzero;stroke:none"
           d="m 214.584,85.435 h -0.837 v 1.001 h 0.837 z m 1.306,1.789 h -4.062 v 0.816 h 0.753 c 0.508,0 0.838,0.168 1.003,0.481 0.114,0.219 0.177,0.602 0.177,1.146 v 2.9 h 0.823 v -3.265 c 0,-0.51 -0.071,-0.938 -0.225,-1.251 h 1.531 z" /><path
           id="path146"
           style="fill:#231f20;fill-opacity:1;fill-rule:nonzero;stroke:none"
           d="m 222.297,93.418 h -0.836 v 1.001 h 0.836 z m 1.729,-5.378 c 0.022,0.26 0.034,0.503 0.034,0.741 0,1.864 -0.775,3.051 -2.045,3.051 -1.495,0 -3.261,-1.818 -3.816,-3.792 z m 0.813,-0.816 h -9.501 v 0.816 h 2.176 v 6.791 h 0.861 l -0.188,-5.477 c 0.8,1.945 2.366,3.225 3.899,3.225 1.883,0 2.824,-1.337 2.824,-3.983 0,-0.417 -0.022,-0.874 -0.071,-1.372" /><g
           transform="translate(231.8818,88.0513)"
           id="g148"><path
             id="path150"
             style="fill:#231f20;fill-opacity:1;fill-rule:nonzero;stroke:none"
             d="m 0,0 v 2.478 c 0,0.347 -0.105,0.643 -0.317,0.875 -0.238,0.272 -0.566,0.416 -1.003,0.416 -0.446,0 -0.812,-0.214 -1.093,-0.625 -0.249,-0.371 -0.378,-0.782 -0.378,-1.227 0,-0.469 0.104,-0.892 0.329,-1.257 0.271,-0.452 0.637,-0.671 1.096,-0.671 z M 2.378,-0.828 H 0.754 c -0.237,-1.21 -1.038,-1.846 -2.391,-1.928 v 0.788 h 0.107 c 0.754,0 1.234,0.387 1.437,1.14 H -1.38 c -0.657,0 -1.199,0.249 -1.624,0.753 -0.424,0.51 -0.637,1.146 -0.637,1.91 0,0.765 0.225,1.401 0.675,1.916 0.457,0.522 1.024,0.777 1.695,0.777 1.307,0 2.119,-0.799 2.119,-2.351 v -2.188 h 1.53 z" /></g><path
           id="path152"
           style="fill:#231f20;fill-opacity:1;fill-rule:nonzero;stroke:none"
           d="m 236.851,85.435 h -0.834 v 1.001 h 0.834 z m 0,7.132 v -3.265 c 0,-1.378 -0.577,-2.078 -1.73,-2.078 h -1.036 v 0.816 h 0.766 c 0.504,0 0.833,0.168 1,0.492 0.12,0.208 0.174,0.591 0.174,1.135 v 2.9 z" /><path
           id="path154"
           style="fill:#231f20;fill-opacity:1;fill-rule:nonzero;stroke:none"
           d="m 238.794,87.224 h -0.825 v 7.619 h 0.825 z" /><path
           id="path156"
           style="fill:#231f20;fill-opacity:1;fill-rule:nonzero;stroke:none"
           d="m 246.095,94.547 h -0.837 v 1.007 h 0.837 z m -1.541,0 h -0.837 v 1.007 h 0.837 z m 1.234,-3.554 v 2.084 h -1.492 c -0.933,0 -1.569,-0.95 -1.569,-2.188 0,-1.205 0.624,-2.201 1.544,-2.201 0.987,0 1.496,0.759 1.517,2.305 m 2.805,-3.769 h -0.544 c -1.167,0 -1.907,0.578 -2.249,1.719 -0.354,-0.602 -0.954,-0.903 -1.8,-0.903 -1.202,0 -2.096,1.239 -2.096,2.802 0,1.673 0.894,2.848 2.239,2.848 h 2.493 v -3.78 c 0,-1.181 0.554,-1.87 1.509,-1.87 h 0.448 z" /><path
           id="path158"
           style="fill:#231f20;fill-opacity:1;fill-rule:nonzero;stroke:none"
           d="m 251.147,85.423 h -0.838 v 0.996 h 0.838 z m -1.543,0 h -0.835 v 0.996 h 0.835 z m 2.838,1.801 h -4.06 v 0.816 h 0.749 c 0.509,0 0.839,0.168 1.004,0.481 0.117,0.219 0.175,0.602 0.175,1.146 v 2.9 h 0.825 v -3.265 c 0,-0.51 -0.072,-0.938 -0.225,-1.251 h 1.532 z" /><g
           transform="translate(261.5449,87.2236)"
           id="g160"><path
             id="path162"
             style="fill:#231f20;fill-opacity:1;fill-rule:nonzero;stroke:none"
             d="m 0,0 h -9.773 v 0.828 h 7.16 c 0.011,0.133 0.024,0.283 0.024,0.422 0,0.909 -0.213,1.639 -0.649,2.177 -0.506,0.637 -1.258,0.955 -2.261,0.955 h -2.425 c 0.424,0.765 1.025,1.836 1.802,3.225 h 0.978 L -6.546,5.199 h 1.047 c 1.189,0 2.144,-0.371 2.851,-1.112 0.692,-0.729 1.034,-1.696 1.034,-2.894 V 0.828 l 1.614,0 z" /></g><path
           id="path164"
           style="fill:#231f20;fill-opacity:1;fill-rule:nonzero;stroke:none"
           d="m 263.982,85.423 h -0.836 v 0.996 h 0.836 z m -1.544,0 h -0.834 v 0.996 h 0.834 z m 1.556,7.144 v -3.265 c 0,-1.378 -0.577,-2.078 -1.73,-2.078 h -1.038 v 0.816 h 0.767 c 0.506,0 0.836,0.168 1.003,0.492 0.115,0.208 0.175,0.591 0.175,1.135 v 2.9 z" /><g
           transform="translate(269.5996,87.2236)"
           id="g166"><path
             id="path168"
             style="fill:#231f20;fill-opacity:1;fill-rule:nonzero;stroke:none"
             d="m 0,0 h -2.026 c -0.221,-1.21 -1.025,-1.847 -2.388,-1.928 v 0.787 c 1.093,0 1.645,0.602 1.645,1.986 v 4.499 h 0.826 V 0.828 l 1.943,0 z" /></g><g
           transform="translate(275.041,88.9546)"
           id="g170"><path
             id="path172"
             style="fill:#231f20;fill-opacity:1;fill-rule:nonzero;stroke:none"
             d="M 0,0 C 0,0.533 -0.105,0.956 -0.309,1.274 -0.567,1.662 -0.942,1.847 -1.437,1.847 -1.979,1.847 -2.38,1.638 -2.65,1.228 -2.875,0.886 -2.992,0.44 -2.992,-0.139 c 0,-0.527 0.117,-0.966 0.342,-1.291 0.27,-0.394 0.658,-0.579 1.167,-0.579 C -0.497,-2.009 0,-1.337 0,0 m 0.952,-0.075 c 0,-0.77 -0.211,-1.396 -0.637,-1.893 -0.446,-0.527 -1.044,-0.788 -1.798,-0.788 -0.909,0 -1.591,0.348 -2.038,1.025 h -2.273 v 0.828 h 1.932 c -0.071,0.249 -0.109,0.515 -0.109,0.811 0,0.775 0.227,1.412 0.675,1.922 0.445,0.503 1.059,0.752 1.824,0.752 0.767,0 1.376,-0.26 1.814,-0.764 0.411,-0.486 0.61,-1.123 0.61,-1.893" /></g><g
           transform="translate(282.4365,94.8423)"
           id="g174"><path
             id="path176"
             style="fill:#231f20;fill-opacity:1;fill-rule:nonzero;stroke:none"
             d="m 0,0 v -5.54 c 0,-1.378 -0.578,-2.079 -1.732,-2.079 h -3.403 v 0.817 h 1.919 l -1.516,5.893 h 0.892 l 1.483,-5.893 h 0.354 c 0.495,0 0.825,0.168 1,0.491 0.12,0.209 0.179,0.591 0.179,1.135 l 0,5.176 z" /></g><path
           id="path178"
           style="fill:#231f20;fill-opacity:1;fill-rule:nonzero;stroke:none"
           d="m 284.84,87.224 h -0.825 v 7.619 h 0.825 z" /><g
           transform="translate(302.6104,87.2236)"
           id="g180"><path
             id="path182"
             style="fill:#231f20;fill-opacity:1;fill-rule:nonzero;stroke:none"
             d="m 0,0 h -8.28 c 0,0.087 -0.012,0.174 -0.05,0.29 -0.517,-1.419 -1.694,-2.241 -2.998,-2.241 -1.875,0 -3.335,1.673 -3.335,4.047 v 3.248 h 0.823 v -3.08 c 0,-2.061 0.967,-3.416 2.512,-3.416 1.421,0 2.316,1.117 2.471,2.947 V 5.344 H -8.01 V 2.096 c 0,-0.457 -0.049,-0.88 -0.14,-1.268 h 1.47 c 0.754,0 1.003,0.365 1.003,1.615 v 2.901 h 0.823 V 2.079 c 0,-0.51 -0.069,-0.938 -0.223,-1.251 h 1.412 c 0.883,0 1.179,0.376 1.179,1.615 v 2.901 h 0.821 V 2.079 c 0,-0.51 -0.08,-0.938 -0.234,-1.251 l 1.899,0 z" /></g><g
           transform="translate(307.624,88.9546)"
           id="g184"><path
             id="path186"
             style="fill:#231f20;fill-opacity:1;fill-rule:nonzero;stroke:none"
             d="m 0,0 c 0,0.533 -0.104,0.956 -0.315,1.274 -0.251,0.388 -0.614,0.573 -1.121,0.573 -0.53,0 -0.942,-0.209 -1.212,-0.619 -0.225,-0.342 -0.33,-0.788 -0.33,-1.367 0,-0.527 0.105,-0.966 0.33,-1.291 0.27,-0.394 0.658,-0.579 1.163,-0.579 C -0.495,-2.009 0,-1.337 0,0 m 2.296,-1.731 h -1.8 c -0.449,-0.677 -1.108,-1.025 -1.981,-1.025 -0.905,0 -1.588,0.348 -2.025,1.025 h -1.741 v 0.828 h 1.388 c -0.06,0.249 -0.093,0.515 -0.093,0.811 0,0.775 0.225,1.412 0.659,1.922 0.445,0.503 1.061,0.752 1.823,0.752 0.768,0 1.38,-0.26 1.816,-0.764 0.412,-0.486 0.625,-1.123 0.625,-1.893 0,-0.296 -0.035,-0.568 -0.108,-0.828 h 1.437 z" /></g><path
           id="path188"
           style="fill:#231f20;fill-opacity:1;fill-rule:nonzero;stroke:none"
           d="m 312.442,85.423 h -0.84 v 0.996 h 0.84 z m -1.545,0 h -0.836 v 0.996 h 0.836 z m 2.841,1.801 h -4.064 v 0.816 h 0.754 c 0.508,0 0.837,0.168 1,0.481 0.12,0.219 0.175,0.602 0.175,1.146 v 2.9 h 0.828 v -3.265 c 0,-0.51 -0.075,-0.938 -0.225,-1.251 h 1.532 z" /><path
           id="path190"
           style="fill:#231f20;fill-opacity:1;fill-rule:nonzero;stroke:none"
           d="m 318.365,85.435 h -0.85 v 1.001 h 0.85 z m 3.249,2.982 v -1.193 h -8.159 v 0.827 h 7.159 c 0.009,0.157 0.022,0.29 0.022,0.423 0,1.992 -1.046,3.132 -2.895,3.132 -1.003,0 -1.745,-0.394 -2.216,-1.169 -0.117,0.133 -0.35,0.365 -0.716,0.735 0.67,0.84 1.636,1.25 2.919,1.25 2.345,0 3.886,-1.557 3.886,-4.005" /><path
           id="path192"
           style="fill:#231f20;fill-opacity:1;fill-rule:nonzero;stroke:none"
           d="m 328.786,94.547 h -0.837 v 1.007 h 0.837 z m -1.541,0 h -0.837 v 1.007 h 0.837 z m 1.235,-3.554 v 2.084 h -1.495 c -0.931,0 -1.568,-0.95 -1.568,-2.188 0,-1.205 0.628,-2.201 1.544,-2.201 0.988,0 1.495,0.759 1.519,2.305 m 2.801,-3.769 h -0.541 c -1.167,0 -1.908,0.578 -2.246,1.719 -0.355,-0.602 -0.957,-0.903 -1.804,-0.903 -1.203,0 -2.097,1.239 -2.097,2.802 0,1.673 0.894,2.848 2.239,2.848 h 2.495 v -3.78 c 0,-1.181 0.555,-1.87 1.507,-1.87 h 0.447 z" /><path
           id="path194"
           style="fill:#231f20;fill-opacity:1;fill-rule:nonzero;stroke:none"
           d="m 333.837,85.423 h -0.836 v 0.996 h 0.836 z m -1.544,0 h -0.834 v 0.996 h 0.834 z m 2.84,1.801 h -4.065 v 0.816 h 0.757 c 0.506,0 0.834,0.168 1.001,0.481 0.115,0.219 0.175,0.602 0.175,1.146 v 2.9 h 0.825 v -3.265 c 0,-0.51 -0.071,-0.938 -0.226,-1.251 h 1.533 z" /><g
           transform="translate(340.1592,88.9546)"
           id="g196"><path
             id="path198"
             style="fill:#231f20;fill-opacity:1;fill-rule:nonzero;stroke:none"
             d="m 0,0 c 0,0.533 -0.104,0.956 -0.316,1.274 -0.246,0.388 -0.613,0.573 -1.117,0.573 -0.532,0 -0.945,-0.209 -1.215,-0.619 -0.222,-0.342 -0.329,-0.788 -0.329,-1.367 0,-0.527 0.107,-0.966 0.329,-1.291 0.27,-0.394 0.661,-0.579 1.167,-0.579 C -0.495,-2.009 0,-1.337 0,0 M 2.299,-1.731 H 0.497 c -0.447,-0.677 -1.105,-1.025 -1.978,-1.025 -0.908,0 -1.591,0.348 -2.026,1.025 h -1.744 v 0.828 h 1.392 c -0.063,0.249 -0.096,0.515 -0.096,0.811 0,0.775 0.224,1.412 0.661,1.922 0.446,0.503 1.058,0.752 1.823,0.752 0.768,0 1.38,-0.26 1.813,-0.764 C 0.754,1.332 0.97,0.695 0.97,-0.075 0.97,-0.371 0.93,-0.643 0.861,-0.903 h 1.438 z" /></g><path
           id="path200"
           style="fill:#231f20;fill-opacity:1;fill-rule:nonzero;stroke:none"
           d="m 345.024,85.423 h -0.834 v 0.996 h 0.834 z m -1.542,0 h -0.836 v 0.996 h 0.836 z m 1.553,7.144 v -3.265 c 0,-1.378 -0.574,-2.078 -1.73,-2.078 h -1.034 v 0.816 h 0.763 c 0.507,0 0.837,0.168 1.003,0.492 0.116,0.208 0.175,0.591 0.175,1.135 v 2.9 z" /><g
           transform="translate(351.6904,87.2236)"
           id="g202"><path
             id="path204"
             style="fill:#231f20;fill-opacity:1;fill-rule:nonzero;stroke:none"
             d="m 0,0 h -5.229 v 0.828 h 4.36 c 0,1.047 -0.192,1.893 -0.579,2.53 -0.471,0.77 -1.203,1.163 -2.182,1.221 h -0.316 v 0.776 c 1.661,0 2.802,-0.654 3.405,-1.974 C -0.175,2.594 0,1.477 0,0" /></g><g
           transform="translate(355.8564,87.2236)"
           id="g206"><path
             id="path208"
             style="fill:#231f20;fill-opacity:1;fill-rule:nonzero;stroke:none"
             d="M 0,0 H -0.93 C -1.354,0 -1.706,0.156 -1.999,0.446 -2.341,0.782 -2.507,1.25 -2.507,1.875 v 5.744 h 0.85 V 2.368 c 0,-0.544 0.079,-0.932 0.235,-1.164 C -1.291,1.001 -1.069,0.886 -0.75,0.839 -0.668,0.828 -0.575,0.828 0,0.828 Z" /></g><g
           transform="translate(363.4893,88.4165)"
           id="g210"><path
             id="path212"
             style="fill:#231f20;fill-opacity:1;fill-rule:nonzero;stroke:none"
             d="m 0,0 v -1.193 h -8.161 v 0.828 h 7.159 c 0.013,0.133 0.024,0.283 0.024,0.423 0,0.908 -0.211,1.638 -0.648,2.176 -0.506,0.637 -1.26,0.955 -2.258,0.955 h -2.429 c 0.425,0.765 1.025,1.836 1.803,3.226 h 0.979 L -4.934,4.006 h 1.05 c 1.187,0 2.141,-0.371 2.848,-1.111 C -0.341,2.165 0,1.198 0,0" /></g><path
           id="path214"
           style="fill:#231f20;fill-opacity:1;fill-rule:nonzero;stroke:none"
           d="m 365.893,87.224 h -0.824 v 7.619 h 0.824 z" /><path
           id="path216"
           style="fill:#231f20;fill-opacity:1;fill-rule:nonzero;stroke:none"
           d="m 373.194,94.547 h -0.838 v 1.007 h 0.838 z m -1.542,0 h -0.838 v 1.007 h 0.838 z m 1.234,-3.554 v 2.084 h -1.495 c -0.929,0 -1.566,-0.95 -1.566,-2.188 0,-1.205 0.623,-2.201 1.544,-2.201 0.987,0 1.492,0.759 1.517,2.305 m 2.802,-3.769 h -0.542 c -1.162,0 -1.907,0.578 -2.249,1.719 -0.353,-0.602 -0.952,-0.903 -1.801,-0.903 -1.2,0 -2.096,1.239 -2.096,2.802 0,1.673 0.896,2.848 2.237,2.848 h 2.498 v -3.78 c 0,-1.181 0.553,-1.87 1.507,-1.87 h 0.446 z" /><g
           transform="translate(384.9424,92.5674)"
           id="g218"><path
             id="path220"
             style="fill:#231f20;fill-opacity:1;fill-rule:nonzero;stroke:none"
             d="m 0,0 v -3.265 c 0,-1.378 -0.574,-2.079 -1.741,-2.079 h -7.795 v 0.828 h 1.096 c 0.752,0 1.165,0.504 1.249,1.511 V 0 h 0.823 v -3.265 c 0,-0.487 -0.071,-0.886 -0.2,-1.205 v -0.046 h 1.542 c 0.754,0 1.003,0.365 1.003,1.615 V 0 h 0.825 v -3.265 c 0,-0.51 -0.074,-0.938 -0.225,-1.251 h 1.411 c 0.883,0 1.179,0.365 1.179,1.615 l 0,2.901 z" /></g><g
           transform="translate(388.3008,92.5674)"
           id="g222"><path
             id="path224"
             style="fill:#231f20;fill-opacity:1;fill-rule:nonzero;stroke:none"
             d="m 0,0 v -4.342 c 0,-1.922 -0.742,-2.837 -2.471,-2.93 v 0.788 c 1.094,0 1.646,0.602 1.646,1.985 l 0,4.499 z" /></g><g
           transform="translate(396.2627,87.2236)"
           id="g226"><path
             id="path228"
             style="fill:#231f20;fill-opacity:1;fill-rule:nonzero;stroke:none"
             d="m 0,0 h -7.076 v 0.828 h 4.356 c 0,1.047 -0.188,1.893 -0.579,2.53 -0.471,0.77 -1.2,1.163 -2.179,1.221 h -0.316 v 0.776 c 2.483,0 3.791,-1.499 3.92,-4.527 l 1.874,0 z" /></g><g
           transform="translate(401.7139,88.9546)"
           id="g230"><path
             id="path232"
             style="fill:#231f20;fill-opacity:1;fill-rule:nonzero;stroke:none"
             d="M 0,0 C 0,0.533 -0.107,0.956 -0.308,1.274 -0.566,1.662 -0.941,1.847 -1.437,1.847 -1.978,1.847 -2.379,1.638 -2.649,1.228 -2.874,0.886 -2.99,0.44 -2.99,-0.139 c 0,-0.527 0.116,-0.966 0.341,-1.291 0.27,-0.394 0.659,-0.579 1.164,-0.579 C -0.495,-2.009 0,-1.337 0,0 m 0.953,-0.075 c 0,-0.77 -0.211,-1.396 -0.637,-1.893 -0.445,-0.527 -1.045,-0.788 -1.801,-0.788 -0.905,0 -1.588,0.348 -2.036,1.025 h -2.272 v 0.828 h 1.933 c -0.075,0.249 -0.109,0.515 -0.109,0.811 0,0.775 0.226,1.412 0.671,1.922 0.449,0.503 1.062,0.752 1.824,0.752 0.767,0 1.382,-0.26 1.815,-0.764 0.413,-0.486 0.612,-1.123 0.612,-1.893" /></g><g
           transform="translate(27.4404,102.0391)"
           id="g234"><path
             id="path236"
             style="fill:#00b6f1;fill-opacity:1;fill-rule:nonzero;stroke:none"
             d="m 0,0 -24.44,-70.198 c 0,0 19.416,10.375 23.887,14.283 0,0 9.706,6.253 9.706,20.31 0,0 0.664,9.048 -9.153,35.605" /></g><g
           transform="translate(36.8149,73.5776)"
           id="g238"><path
             id="path240"
             style="fill:#13284c;fill-opacity:1;fill-rule:nonzero;stroke:none"
             d="M 0,0 C 0,0 4.692,-17.629 -9.036,-27.673 L -13.95,-43.08 c 0,0 10.154,17.641 20.088,21.769 0,0 4.8,2.79 11.051,-0.666 0,0 8.59,-4.243 13.054,-7.932 L 9.199,29.422 Z" /></g></g></g></g></svg>