<?xml version="1.0" encoding="UTF-8" standalone="no"?>
<svg
   xmlns:dc="http://purl.org/dc/elements/1.1/"
   xmlns:cc="http://creativecommons.org/ns#"
   xmlns:rdf="http://www.w3.org/1999/02/22-rdf-syntax-ns#"
   xmlns:svg="http://www.w3.org/2000/svg"
   xmlns="http://www.w3.org/2000/svg"
   viewBox="0 0 541.33331 141.33333"
   height="141.33333"
   width="541.33331"
   xml:space="preserve"
   id="svg2"
   version="1.1"><metadata
     id="metadata8"><rdf:RDF><cc:Work
         rdf:about=""><dc:format>image/svg+xml</dc:format><dc:type
           rdf:resource="http://purl.org/dc/dcmitype/StillImage" /></cc:Work></rdf:RDF></metadata><defs
     id="defs6"><clipPath
       id="clipPath18"
       clipPathUnits="userSpaceOnUse"><path
         id="path16"
         d="M 0,106 H 406 V 0 H 0 Z" /></clipPath></defs><g
     transform="matrix(1.3333333,0,0,-1.3333333,0,141.33333)"
     id="g10"><g
       id="g12"><g
         clip-path="url(#clipPath18)"
         id="g14"><path
           id="path20"
           style="fill:#231f20;fill-opacity:1;fill-rule:nonzero;stroke:none"
           d="m 193.048,96.735 h -1.072 v 1.232 h 1.072 z m -1.977,0 h -1.072 v 1.232 h 1.072 z m 1.583,-4.377 v 2.564 h -1.916 c -1.191,0 -2.004,-1.172 -2.004,-2.694 0,-1.482 0.798,-2.714 1.976,-2.714 1.266,0 1.916,0.946 1.944,2.844 m 3.592,-4.637 h -0.693 c -1.494,0 -2.444,0.706 -2.884,2.113 -0.452,-0.736 -1.222,-1.116 -2.307,-1.116 -1.539,0 -2.685,1.522 -2.685,3.45 0,2.058 1.146,3.505 2.866,3.505 h 3.198 v -4.647 c 0,-1.452 0.709,-2.308 1.931,-2.308 h 0.574 z" /><path
           id="path22"
           style="fill:#231f20;fill-opacity:1;fill-rule:nonzero;stroke:none"
           d="m 202.762,95.343 h -1.072 v 1.231 h 1.072 z m -1.976,0 h -1.072 v 1.231 h 1.072 z m 2.428,-4.232 c 0,1.448 -0.678,2.334 -1.915,2.334 -1.344,0 -2.037,-0.971 -2.037,-2.509 0,-1.447 0.739,-2.378 1.976,-2.378 1.313,0 1.976,0.856 1.976,2.553 m 1.162,-0.1 c 0,-1.888 -1.222,-3.29 -3.138,-3.29 h -5.355 v 1.012 h 2.942 c -0.498,0.58 -0.755,1.337 -0.755,2.263 0,1.883 1.222,3.291 3.183,3.291 1.916,0 3.123,-1.308 3.123,-3.276" /><g
           transform="translate(208.6738,94.3013)"
           id="g24"><path
             id="path26"
             style="fill:#231f20;fill-opacity:1;fill-rule:nonzero;stroke:none"
             d="m 0,0 v -5.348 c 0,-2.364 -0.95,-3.496 -3.168,-3.611 v 0.972 c 1.405,0 2.114,0.736 2.114,2.448 l 0,5.539 z" /></g><g
           transform="translate(214.0166,87.7212)"
           id="g28"><path
             id="path30"
             style="fill:#231f20;fill-opacity:1;fill-rule:nonzero;stroke:none"
             d="m 0,0 h -1.194 c -0.543,0 -0.995,0.185 -1.372,0.551 -0.437,0.406 -0.648,0.981 -0.648,1.753 v 7.071 h 1.085 V 2.91 c 0,-0.667 0.107,-1.142 0.302,-1.433 C -1.661,1.232 -1.374,1.086 -0.966,1.026 -0.861,1.012 -0.739,1.012 0,1.012 Z" /></g><path
           id="path32"
           style="fill:#231f20;fill-opacity:1;fill-rule:nonzero;stroke:none"
           d="m 222.812,95.343 h -1.072 v 1.231 h 1.072 z m -1.011,1.608 h -1.072 v 1.232 h 1.072 z m -0.966,-1.608 h -1.072 v 1.231 h 1.072 z m 7.164,-7.622 h -14.33 v 1.012 h 1.401 c 0.966,0 1.583,0.625 1.583,1.858 v 3.71 h 1.073 V 90.27 c 0,-0.596 -0.089,-1.087 -0.257,-1.477 v -0.06 h 1.976 c 0.966,0 1.284,0.45 1.284,1.988 v 3.58 h 1.056 V 90.27 c 0,-0.621 -0.092,-1.147 -0.287,-1.537 h 1.809 c 1.132,0 1.508,0.45 1.508,1.988 v 3.58 h 1.058 V 90.27 c 0,-0.621 -0.106,-1.147 -0.303,-1.537 h 2.429 z" /><g
           transform="translate(231.2412,97.0957)"
           id="g34"><path
             id="path36"
             style="fill:#231f20;fill-opacity:1;fill-rule:nonzero;stroke:none"
             d="m 0,0 v -6.826 c 0,-1.697 -0.737,-2.549 -2.219,-2.549 h -1.31 v 0.997 h 0.966 c 0.647,0 1.071,0.205 1.282,0.611 0.15,0.26 0.226,0.726 0.226,1.392 l 0,6.375 z" /></g><path
           id="path38"
           style="fill:#231f20;fill-opacity:1;fill-rule:nonzero;stroke:none"
           d="m 234.319,87.721 h -1.057 v 9.375 h 1.057 z" /><g
           transform="translate(243.958,87.7212)"
           id="g40"><path
             id="path42"
             style="fill:#231f20;fill-opacity:1;fill-rule:nonzero;stroke:none"
             d="m 0,0 h -2.594 c -0.287,-1.493 -1.313,-2.279 -3.063,-2.379 v 0.972 c 1.404,0 2.111,0.736 2.111,2.449 V 6.58 h 1.057 V 1.012 l 2.489,0 z" /></g><path
           id="path44"
           style="fill:#231f20;fill-opacity:1;fill-rule:nonzero;stroke:none"
           d="m 247.142,95.343 h -1.07 v 1.231 h 1.07 z m -1.977,0 h -1.069 v 1.231 h 1.069 z m 3.666,-7.622 h -5.206 v 0.997 h 0.966 c 0.65,0 1.072,0.205 1.283,0.595 0.152,0.276 0.226,0.742 0.226,1.408 v 3.58 h 1.056 V 90.27 c 0,-0.621 -0.091,-1.147 -0.287,-1.537 h 1.962 z" /><g
           transform="translate(262.8164,87.7212)"
           id="g46"><path
             id="path48"
             style="fill:#231f20;fill-opacity:1;fill-rule:nonzero;stroke:none"
             d="m 0,0 h -14.334 v 1.012 h 1.402 c 0.968,0 1.585,0.625 1.585,1.858 v 3.71 h 1.073 V 2.549 c 0,-0.596 -0.091,-1.087 -0.256,-1.477 v -0.06 h 1.976 c 0.965,0 1.281,0.45 1.281,1.988 v 3.58 h 1.056 V 2.549 c 0,-0.621 -0.092,-1.147 -0.287,-1.537 h 1.812 c 1.129,0 1.508,0.45 1.508,1.988 v 3.58 h 1.057 V 2.549 c 0,-0.621 -0.106,-1.147 -0.302,-1.537 l 2.429,0 z" /></g><path
           id="path50"
           style="fill:#231f20;fill-opacity:1;fill-rule:nonzero;stroke:none"
           d="m 266.072,95.343 h -1.071 v 1.231 h 1.071 z m 1.659,-7.622 h -5.205 v 0.997 h 0.965 c 0.651,0 1.072,0.205 1.283,0.595 0.153,0.276 0.227,0.742 0.227,1.408 v 3.58 h 1.057 V 90.27 c 0,-0.621 -0.089,-1.147 -0.287,-1.537 h 1.96 z" /><path
           id="path52"
           style="fill:#231f20;fill-opacity:1;fill-rule:nonzero;stroke:none"
           d="m 271.021,85.502 h -1.072 v 1.232 h 1.072 z m -1.976,0 h -1.072 v 1.232 h 1.072 z m 3.636,2.219 h -5.206 v 0.997 h 0.965 c 0.651,0 1.07,0.205 1.284,0.595 0.152,0.276 0.225,0.742 0.225,1.408 v 3.58 h 1.055 V 90.27 c 0,-0.621 -0.089,-1.147 -0.284,-1.537 h 1.961 z" /><path
           id="path54"
           style="fill:#231f20;fill-opacity:1;fill-rule:nonzero;stroke:none"
           d="m 275.652,87.721 h -3.183 v 1.012 h 3.183 z" /><g
           transform="translate(282.1084,89.8496)"
           id="g56"><path
             id="path58"
             style="fill:#231f20;fill-opacity:1;fill-rule:nonzero;stroke:none"
             d="m 0,0 c 0,0.651 -0.135,1.177 -0.407,1.567 -0.318,0.476 -0.784,0.706 -1.435,0.706 -0.676,0 -1.205,-0.26 -1.553,-0.766 -0.287,-0.421 -0.421,-0.971 -0.421,-1.683 0,-0.651 0.134,-1.186 0.421,-1.592 0.348,-0.481 0.846,-0.711 1.495,-0.711 1.267,0 1.9,0.826 1.9,2.479 M 2.941,-2.128 H 0.635 C 0.061,-2.97 -0.785,-3.391 -1.9,-3.391 c -1.162,0 -2.038,0.421 -2.594,1.263 h -2.234 v 1.011 h 1.779 c -0.073,0.305 -0.119,0.636 -0.119,1.002 0,0.956 0.287,1.737 0.843,2.364 0.574,0.62 1.359,0.926 2.339,0.926 0.981,0 1.766,-0.321 2.323,-0.942 0.528,-0.596 0.8,-1.377 0.8,-2.334 0,-0.365 -0.046,-0.695 -0.137,-1.016 h 1.841 z" /></g><path
           id="path60"
           style="fill:#231f20;fill-opacity:1;fill-rule:nonzero;stroke:none"
           d="m 288.248,95.343 h -1.072 v 1.231 h 1.072 z m -1.977,0 H 285.2 v 1.231 h 1.071 z m 3.666,-7.622 h -5.205 v 0.997 h 0.965 c 0.651,0 1.073,0.205 1.283,0.595 0.15,0.276 0.226,0.742 0.226,1.408 v 3.58 h 1.055 V 90.27 c 0,-0.621 -0.089,-1.147 -0.284,-1.537 h 1.96 z" /><g
           transform="translate(301.8086,94.3013)"
           id="g62"><path
             id="path64"
             style="fill:#231f20;fill-opacity:1;fill-rule:nonzero;stroke:none"
             d="M 0,0 V -4.031 C 0,-5.729 -0.739,-6.58 -2.232,-6.58 h -9.987 v 1.012 h 1.403 c 0.964,0 1.493,0.625 1.6,1.858 V 0 h 1.057 v -4.031 c 0,-0.596 -0.092,-1.087 -0.26,-1.477 v -0.06 h 1.977 c 0.965,0 1.283,0.45 1.283,1.987 V 0 h 1.056 v -4.031 c 0,-0.621 -0.09,-1.147 -0.287,-1.537 h 1.809 c 1.134,0 1.51,0.45 1.51,1.987 l 0,3.581 z" /></g><g
           transform="translate(308.084,91.1113)"
           id="g66"><path
             id="path68"
             style="fill:#231f20;fill-opacity:1;fill-rule:nonzero;stroke:none"
             d="m 0,0 c 0,1.302 -0.755,2.333 -1.87,2.333 -1.103,0 -1.78,-1.016 -1.78,-2.278 0,-1.317 0.754,-2.319 1.854,-2.319 C -0.693,-2.264 0,-1.262 0,0 m 1.026,0 v -2.158 c 0,-2.364 -0.965,-3.496 -3.183,-3.611 v 0.972 c 1.387,0 2.096,0.811 2.127,2.448 -0.33,-0.55 -0.92,-0.826 -1.779,-0.826 -1.662,0 -2.883,1.332 -2.883,3.215 0,1.858 1.161,3.19 2.883,3.19 1.641,0 2.835,-1.347 2.835,-3.23" /></g><g
           transform="translate(331.708,87.7212)"
           id="g70"><path
             id="path72"
             style="fill:#231f20;fill-opacity:1;fill-rule:nonzero;stroke:none"
             d="m 0,0 h -10.607 c 0,0.1 -0.012,0.215 -0.058,0.345 -0.663,-1.737 -2.172,-2.754 -3.849,-2.754 -2.398,0 -4.268,2.058 -4.268,4.988 V 6.58 h 1.056 V 2.779 c 0,-2.534 1.236,-4.201 3.212,-4.201 1.826,0 2.972,1.377 3.168,3.625 V 6.58 h 1.087 V 2.579 c 0,-0.566 -0.058,-1.087 -0.18,-1.567 h 1.885 c 0.965,0 1.283,0.45 1.283,1.988 v 3.58 h 1.054 V 2.549 c 0,-0.621 -0.089,-1.147 -0.284,-1.537 h 1.809 c 1.132,0 1.508,0.465 1.508,1.988 v 3.58 h 1.057 V 2.549 c 0,-0.621 -0.106,-1.147 -0.302,-1.537 l 2.429,0 z" /></g><g
           transform="translate(338.1348,89.8496)"
           id="g74"><path
             id="path76"
             style="fill:#231f20;fill-opacity:1;fill-rule:nonzero;stroke:none"
             d="m 0,0 c 0,0.651 -0.137,1.177 -0.409,1.567 -0.315,0.476 -0.785,0.706 -1.433,0.706 -0.679,0 -1.207,-0.26 -1.554,-0.766 -0.285,-0.421 -0.422,-0.971 -0.422,-1.683 0,-0.651 0.137,-1.186 0.422,-1.592 0.347,-0.481 0.845,-0.711 1.493,-0.711 C -0.635,-2.479 0,-1.653 0,0 M 2.941,-2.128 H 0.633 c -0.574,-0.842 -1.418,-1.263 -2.536,-1.263 -1.16,0 -2.035,0.421 -2.593,1.263 h -2.233 v 1.011 h 1.78 c -0.076,0.305 -0.121,0.636 -0.121,1.002 0,0.956 0.287,1.737 0.845,2.364 0.572,0.62 1.357,0.926 2.337,0.926 0.981,0 1.766,-0.321 2.325,-0.942 0.529,-0.596 0.8,-1.377 0.8,-2.334 0,-0.365 -0.046,-0.695 -0.137,-1.016 h 1.841 z" /></g><path
           id="path78"
           style="fill:#231f20;fill-opacity:1;fill-rule:nonzero;stroke:none"
           d="m 344.303,85.502 h -1.071 v 1.232 h 1.071 z m -1.977,0 h -1.069 v 1.232 h 1.069 z m 3.636,2.219 h -5.205 v 0.997 h 0.965 c 0.65,0 1.072,0.205 1.283,0.595 0.152,0.276 0.226,0.742 0.226,1.408 v 3.58 h 1.057 V 90.27 c 0,-0.621 -0.092,-1.147 -0.287,-1.537 h 1.961 z" /><path
           id="path80"
           style="fill:#231f20;fill-opacity:1;fill-rule:nonzero;stroke:none"
           d="m 351.892,85.518 h -1.088 v 1.232 h 1.088 z m 4.164,3.665 v -1.462 h -10.454 v 1.012 h 9.17 c 0.015,0.19 0.031,0.365 0.031,0.52 0,2.45 -1.342,3.856 -3.712,3.856 -1.282,0 -2.233,-0.475 -2.838,-1.432 -0.149,0.16 -0.452,0.446 -0.919,0.897 0.861,1.031 2.099,1.537 3.742,1.537 3.003,0 4.98,-1.913 4.98,-4.928" /><path
           id="path82"
           style="fill:#231f20;fill-opacity:1;fill-rule:nonzero;stroke:none"
           d="m 365.241,96.735 h -1.072 v 1.232 h 1.072 z m -1.976,0 h -1.072 v 1.232 h 1.072 z m 1.585,-4.377 v 2.564 h -1.918 c -1.192,0 -2.007,-1.172 -2.007,-2.694 0,-1.482 0.803,-2.714 1.976,-2.714 1.268,0 1.918,0.946 1.949,2.844 m 3.589,-4.637 h -0.693 c -1.493,0 -2.444,0.706 -2.884,2.113 -0.451,-0.736 -1.221,-1.116 -2.306,-1.116 -1.539,0 -2.685,1.522 -2.685,3.45 0,2.058 1.146,3.505 2.865,3.505 h 3.199 v -4.647 c 0,-1.452 0.709,-2.308 1.93,-2.308 h 0.574 z" /><g
           transform="translate(380.2959,94.3013)"
           id="g84"><path
             id="path86"
             style="fill:#231f20;fill-opacity:1;fill-rule:nonzero;stroke:none"
             d="M 0,0 V -4.031 C 0,-5.729 -0.739,-6.58 -2.233,-6.58 h -9.987 v 1.012 h 1.403 c 0.965,0 1.494,0.625 1.6,1.858 V 0 h 1.055 v -4.031 c 0,-0.596 -0.089,-1.087 -0.257,-1.477 v -0.06 h 1.977 c 0.965,0 1.283,0.45 1.283,1.987 V 0 h 1.056 v -4.031 c 0,-0.621 -0.091,-1.147 -0.287,-1.537 h 1.812 c 1.13,0 1.506,0.45 1.506,1.987 l 0,3.581 z" /></g><g
           transform="translate(384.5947,94.3013)"
           id="g88"><path
             id="path90"
             style="fill:#231f20;fill-opacity:1;fill-rule:nonzero;stroke:none"
             d="m 0,0 v -5.348 c 0,-2.364 -0.95,-3.496 -3.168,-3.611 v 0.972 c 1.402,0 2.11,0.736 2.11,2.448 l 0,5.539 z" /></g><g
           transform="translate(394.792,87.7212)"
           id="g92"><path
             id="path94"
             style="fill:#231f20;fill-opacity:1;fill-rule:nonzero;stroke:none"
             d="m 0,0 h -9.067 v 1.012 h 5.584 c 0,1.292 -0.244,2.333 -0.742,3.119 -0.602,0.942 -1.537,1.432 -2.79,1.503 H -7.421 V 6.59 c 3.184,0 4.858,-1.853 5.023,-5.578 l 2.398,0 z" /></g><g
           transform="translate(401.7754,89.8496)"
           id="g96"><path
             id="path98"
             style="fill:#231f20;fill-opacity:1;fill-rule:nonzero;stroke:none"
             d="m 0,0 c 0,0.651 -0.135,1.177 -0.392,1.567 -0.332,0.476 -0.815,0.706 -1.447,0.706 -0.694,0 -1.207,-0.26 -1.555,-0.766 -0.285,-0.421 -0.437,-0.971 -0.437,-1.683 0,-0.651 0.152,-1.186 0.437,-1.592 0.348,-0.481 0.846,-0.711 1.494,-0.711 1.267,0 1.9,0.826 1.9,2.479 m 1.225,-0.101 c 0,-0.941 -0.272,-1.712 -0.816,-2.318 -0.574,-0.651 -1.344,-0.972 -2.309,-0.972 -1.162,0 -2.038,0.421 -2.609,1.263 h -2.912 v 1.011 h 2.475 c -0.092,0.305 -0.137,0.636 -0.137,1.002 0,0.956 0.287,1.737 0.86,2.364 0.575,0.62 1.358,0.926 2.338,0.926 0.981,0 1.766,-0.321 2.324,-0.942 0.527,-0.596 0.786,-1.377 0.786,-2.334" /></g><g
           transform="translate(121.6284,60.5034)"
           id="g100"><path
             id="path102"
             style="fill:#000000;fill-opacity:1;fill-rule:nonzero;stroke:none"
             d="m 0,0 c -5.467,0 -9.295,3.751 -9.295,9.165 0,5.493 3.432,9.209 9.082,9.209 1.849,0 3.671,-0.416 5.362,-1.117 L 4.303,15.199 c -1.425,0.601 -2.985,0.967 -4.542,0.967 -4.225,0 -6.389,-2.84 -6.389,-6.821 0,-4.292 2.718,-7.132 6.681,-7.132 1.108,0 2.165,0.211 3.194,0.626 C 3.168,3.18 3.114,3.541 3.114,3.881 V 9.685 H 5.647 V 1.382 C 3.96,0.471 1.926,0 0,0" /></g><g
           transform="translate(131.686,60.7939)"
           id="g104"><path
             id="path106"
             style="fill:#000000;fill-opacity:1;fill-rule:nonzero;stroke:none"
             d="M 0,0 V 17.803 H 9.771 V 15.589 H 2.535 V 10.381 H 8.582 V 8.173 H 2.535 v -5.96 h 7.472 l 0,-2.213 z" /></g><g
           transform="translate(160.4131,60.7939)"
           id="g108"><path
             id="path110"
             style="fill:#000000;fill-opacity:1;fill-rule:nonzero;stroke:none"
             d="m 0,0 v 15.434 h -0.053 c 0,0 -0.079,-0.366 -0.29,-0.781 L -5.807,3.981 c -1.057,0 -1.69,0.651 -2.272,1.823 l -4.435,8.849 c -0.157,0.31 -0.29,0.781 -0.29,0.781 H -12.86 V 0 h -2.533 v 17.803 h 3.857 L -6.813,8.298 C -6.732,8.143 -6.44,7.497 -6.44,7.497 h 0.079 c 0,0 0.157,0.516 0.315,0.831 l 4.753,9.475 H 2.538 V 0 Z" /></g><g
           transform="translate(171.3193,60.5034)"
           id="g112"><path
             id="path114"
             style="fill:#000000;fill-opacity:1;fill-rule:nonzero;stroke:none"
             d="m 0,0 c -1.611,0 -3.274,0.291 -4.778,0.861 l 0.632,2.134 C -2.721,2.504 -1.4,2.213 0.025,2.213 c 1.743,0 3.643,0.706 3.643,2.71 0,3.876 -8.342,3.044 -8.342,8.744 0,3.305 2.957,4.707 5.942,4.707 1.503,0 2.903,-0.336 4.329,-0.832 L 4.829,15.489 c -1.026,0.366 -2.347,0.677 -3.561,0.677 -1.639,0 -3.249,-0.602 -3.249,-2.45 0,-3.38 8.37,-2.784 8.37,-8.583 C 6.389,1.617 3.196,0 0,0" /></g><g
           transform="translate(209.8145,78.2915)"
           id="g116"><path
             id="path118"
             style="fill:#000000;fill-opacity:1;fill-rule:nonzero;stroke:none"
             d="m 0,0 -5.375,-17.673 c -1.205,0 -2.015,0.721 -2.429,2.169 l -3.77,12.91 c -0.053,0.185 -0.096,0.39 -0.132,0.611 h -0.025 l -0.13,-0.611 -4.519,-15.079 c -1.139,0 -1.931,0.721 -2.378,2.169 L -23.54,0 h 1.863 l 4.519,-15.304 h 0.054 c 0.032,0.22 0.111,0.606 0.23,1.147 L -12.687,0 h 2.094 l 4.417,-15.304 H -6.1 c 0.036,0.325 0.112,0.696 0.234,1.121 L -1.653,0 Z" /></g><g
           transform="translate(220.2529,68.105)"
           id="g120"><path
             id="path122"
             style="fill:#000000;fill-opacity:1;fill-rule:nonzero;stroke:none"
             d="M 0,0 C 0,1.207 -0.276,2.219 -0.828,3.035 -1.483,3.966 -2.396,4.432 -3.566,4.432 -4.702,4.432 -5.594,4.012 -6.241,3.17 -6.887,2.334 -7.209,1.277 -7.209,0 Z m 1.73,-0.2 c 0,-0.325 -0.025,-0.706 -0.076,-1.147 h -8.888 c 0.032,-1.562 0.515,-2.774 1.445,-3.641 0.844,-0.781 1.948,-1.171 3.308,-1.171 0.896,0 1.808,0.175 2.738,0.535 l 0.439,-1.147 c -1.049,-0.495 -2.23,-0.741 -3.538,-0.741 -1.895,0 -3.404,0.662 -4.522,1.989 -1.068,1.237 -1.601,2.819 -1.601,4.737 0,1.813 0.43,3.315 1.29,4.507 0.966,1.372 2.325,2.063 4.083,2.063 1.687,0 3.013,-0.596 3.979,-1.783 C 1.283,2.895 1.73,1.498 1.73,-0.2" /></g><g
           transform="translate(232.1631,64.1089)"
           id="g124"><path
             id="path126"
             style="fill:#000000;fill-opacity:1;fill-rule:nonzero;stroke:none"
             d="m 0,0 c 0,-1.157 -0.483,-2.048 -1.445,-2.674 -0.829,-0.541 -1.861,-0.816 -3.103,-0.816 -1.222,0 -2.375,0.215 -3.462,0.636 l 0.413,1.302 c 1.035,-0.391 2.034,-0.586 2.998,-0.586 1.896,0 2.843,0.711 2.843,2.138 0,0.832 -0.525,1.553 -1.577,2.164 -0.966,0.51 -1.938,1.021 -2.919,1.527 -1.052,0.716 -1.575,1.607 -1.575,2.674 0,1.107 0.411,1.963 1.239,2.574 0.758,0.541 1.705,0.816 2.841,0.816 0.896,0 1.888,-0.205 2.972,-0.61 L -1.161,7.842 C -2.23,8.218 -3.1,8.403 -3.772,8.403 c -1.655,0 -2.48,-0.651 -2.48,-1.958 0,-0.731 0.543,-1.387 1.628,-1.963 C -3.625,3.957 -2.627,3.431 -1.629,2.905 -0.541,2.139 0,1.172 0,0" /></g><g
           transform="translate(241.9307,61.1797)"
           id="g128"><path
             id="path130"
             style="fill:#000000;fill-opacity:1;fill-rule:nonzero;stroke:none"
             d="m 0,0 c -1.087,-0.391 -2.032,-0.586 -2.843,-0.586 -2.154,0 -3.228,1.011 -3.228,3.03 v 8.633 l -1.474,0.08 v 1.197 l 1.474,0.075 v 3.49 h 1.575 v -3.49 h 3.901 V 11.077 H -4.496 V 2.444 c 0,-1.117 0.551,-1.678 1.653,-1.678 0.638,0 1.456,0.17 2.454,0.511 z" /></g><g
           transform="translate(261.127,60.874)"
           id="g132"><path
             id="path134"
             style="fill:#000000;fill-opacity:1;fill-rule:nonzero;stroke:none"
             d="m 0,0 h -1.551 v 8.403 c 0,2.174 -1.015,3.26 -3.048,3.26 -1.085,0 -2.241,-0.285 -3.463,-0.866 0.259,-0.576 0.389,-1.257 0.389,-2.038 V 0 H -9.25 v 8.403 c 0,2.174 -1.017,3.26 -3.049,3.26 -0.774,0 -1.834,-0.255 -3.178,-0.761 0.036,-0.376 0.053,-0.636 0.053,-0.791 V 0 h -1.577 v 10.061 c 0,0.32 -0.051,0.871 -0.155,1.652 2.238,0.867 3.927,1.302 5.063,1.302 1.466,0 2.586,-0.39 3.359,-1.171 1.656,0.781 3.093,1.171 4.316,1.171 C -1.472,13.015 0,11.598 0,8.759 Z" /></g><path
           id="path136"
           style="fill:#000000;fill-opacity:1;fill-rule:nonzero;stroke:none"
           d="m 266.967,60.874 h -1.577 v 12.735 h 1.577 z m 0.309,17.087 c 0,-0.306 -0.111,-0.551 -0.335,-0.736 -0.223,-0.186 -0.49,-0.281 -0.799,-0.281 -0.743,0 -1.114,0.341 -1.114,1.017 0,0.681 0.371,1.021 1.114,1.021 0.309,0 0.576,-0.095 0.799,-0.28 0.224,-0.185 0.335,-0.436 0.335,-0.741" /><g
           transform="translate(281.2549,60.874)"
           id="g138"><path
             id="path140"
             style="fill:#000000;fill-opacity:1;fill-rule:nonzero;stroke:none"
             d="m 0,0 h -1.575 v 8.403 c 0,2.174 -1.052,3.26 -3.154,3.26 -1.188,0 -2.413,-0.27 -3.667,-0.816 0.033,-0.356 0.05,-0.606 0.05,-0.761 V 0 h -1.575 v 10.036 c 0,0.34 -0.054,0.881 -0.155,1.627 2.083,0.901 3.925,1.352 5.528,1.352 1.412,0 2.523,-0.36 3.333,-1.081 C -0.404,11.212 0,10.151 0,8.759 Z" /></g><g
           transform="translate(292.1582,64.1089)"
           id="g142"><path
             id="path144"
             style="fill:#000000;fill-opacity:1;fill-rule:nonzero;stroke:none"
             d="m 0,0 c 0,-1.157 -0.483,-2.048 -1.448,-2.674 -0.826,-0.541 -1.86,-0.816 -3.1,-0.816 -1.224,0 -2.378,0.215 -3.462,0.636 l 0.413,1.302 c 1.035,-0.391 2.034,-0.586 2.998,-0.586 1.893,0 2.843,0.711 2.843,2.138 0,0.832 -0.528,1.553 -1.577,2.164 -0.966,0.51 -1.938,1.021 -2.919,1.527 -1.052,0.716 -1.578,1.607 -1.578,2.674 0,1.107 0.414,1.963 1.242,2.574 0.758,0.541 1.705,0.816 2.841,0.816 0.896,0 1.887,-0.205 2.972,-0.61 L -1.161,7.842 c -1.069,0.376 -1.942,0.561 -2.611,0.561 -1.655,0 -2.48,-0.651 -2.48,-1.958 0,-0.731 0.541,-1.387 1.625,-1.963 1.001,-0.525 2,-1.051 2.998,-1.577 C -0.544,2.139 0,1.172 0,0" /></g><g
           transform="translate(301.9258,61.1797)"
           id="g146"><path
             id="path148"
             style="fill:#000000;fill-opacity:1;fill-rule:nonzero;stroke:none"
             d="m 0,0 c -1.087,-0.391 -2.035,-0.586 -2.843,-0.586 -2.154,0 -3.228,1.011 -3.228,3.03 v 8.633 l -1.474,0.08 v 1.197 l 1.474,0.075 v 3.49 h 1.575 v -3.49 h 3.901 V 11.077 H -4.496 V 2.444 c 0,-1.117 0.551,-1.678 1.653,-1.678 0.638,0 1.456,0.17 2.454,0.511 z" /></g><g
           transform="translate(312.0771,68.105)"
           id="g150"><path
             id="path152"
             style="fill:#000000;fill-opacity:1;fill-rule:nonzero;stroke:none"
             d="M 0,0 C 0,1.207 -0.274,2.219 -0.825,3.035 -1.48,3.966 -2.393,4.432 -3.563,4.432 -4.702,4.432 -5.591,4.012 -6.239,3.17 -6.884,2.334 -7.207,1.277 -7.207,0 Z m 1.733,-0.2 c 0,-0.325 -0.026,-0.706 -0.077,-1.147 h -8.888 c 0.033,-1.562 0.515,-2.774 1.445,-3.641 0.844,-0.781 1.946,-1.171 3.308,-1.171 0.897,0 1.809,0.175 2.739,0.535 l 0.439,-1.147 c -1.05,-0.495 -2.23,-0.741 -3.539,-0.741 -1.895,0 -3.404,0.662 -4.522,1.989 -1.07,1.237 -1.603,2.819 -1.603,4.737 0,1.813 0.432,3.315 1.293,4.507 0.966,1.372 2.324,2.063 4.083,2.063 1.687,0 3.013,-0.596 3.978,-1.783 C 1.286,2.895 1.733,1.498 1.733,-0.2" /></g><g
           transform="translate(322.9307,73.7339)"
           id="g154"><path
             id="path156"
             style="fill:#000000;fill-opacity:1;fill-rule:nonzero;stroke:none"
             d="m 0,0 -0.439,-1.372 c -0.484,0.085 -0.923,0.125 -1.32,0.125 -0.98,0 -1.92,-0.195 -2.814,-0.586 0.033,-0.405 0.051,-0.696 0.051,-0.866 V -12.86 h -1.576 v 10.111 c 0,0.34 -0.05,0.891 -0.155,1.658 1.913,0.831 3.514,1.246 4.805,1.246 0.5,0 0.983,-0.05 1.448,-0.155" /></g><g
           transform="translate(341.4551,65.4063)"
           id="g158"><path
             id="path160"
             style="fill:#000000;fill-opacity:1;fill-rule:nonzero;stroke:none"
             d="m 0,0 c 0,-1.578 -0.595,-2.8 -1.78,-3.666 -1.052,-0.766 -2.404,-1.147 -4.058,-1.147 -1.516,0 -2.936,0.256 -4.263,0.767 l 0.412,1.427 c 1.484,-0.476 2.785,-0.716 3.902,-0.716 1.12,0 2.043,0.265 2.764,0.791 0.81,0.576 1.214,1.402 1.214,2.469 0,1.137 -0.706,2.133 -2.116,2.979 -1.329,0.712 -2.654,1.432 -3.98,2.164 -1.413,0.986 -2.119,2.218 -2.119,3.696 0,1.442 0.558,2.564 1.678,3.36 0.984,0.696 2.232,1.042 3.748,1.042 1.171,0 2.418,-0.246 3.747,-0.737 l -0.515,-1.377 c -1.261,0.426 -2.363,0.641 -3.308,0.641 -1.034,0 -1.87,-0.23 -2.508,-0.691 -0.706,-0.506 -1.059,-1.262 -1.059,-2.264 0,-1.001 0.714,-1.917 2.144,-2.754 C -4.786,5.273 -3.47,4.552 -2.145,3.821 -0.714,2.784 0,1.512 0,0" /></g><g
           transform="translate(353.5732,61.3345)"
           id="g162"><path
             id="path164"
             style="fill:#000000;fill-opacity:1;fill-rule:nonzero;stroke:none"
             d="m 0,0 c -1.05,-0.476 -2.188,-0.716 -3.409,-0.716 -1.774,0 -3.273,0.581 -4.497,1.733 -1.308,1.242 -1.964,2.869 -1.964,4.893 0,1.967 0.557,3.56 1.667,4.787 1.11,1.222 2.624,1.833 4.534,1.833 1.172,0 2.394,-0.25 3.669,-0.741 l -0.465,-1.272 c -1.085,0.441 -2.127,0.661 -3.128,0.661 -1.513,0 -2.677,-0.561 -3.485,-1.678 -0.691,-0.951 -1.033,-2.148 -1.033,-3.59 0,-1.633 0.482,-2.93 1.445,-3.902 0.896,-0.916 2.042,-1.372 3.437,-1.372 0.93,0 1.862,0.185 2.792,0.561 z" /></g><g
           transform="translate(366.8037,60.874)"
           id="g166"><path
             id="path168"
             style="fill:#000000;fill-opacity:1;fill-rule:nonzero;stroke:none"
             d="m 0,0 h -1.577 v 8.403 c 0,2.174 -1.017,3.26 -3.049,3.26 -1.326,0 -2.576,-0.365 -3.747,-1.091 V 0 h -1.575 v 18.694 h 1.575 v -6.62 c 1.326,0.626 2.637,0.941 3.927,0.941 1.413,0 2.508,-0.36 3.282,-1.081 C -0.389,11.212 0,10.151 0,8.759 Z" /></g><g
           transform="translate(379.9531,67.2441)"
           id="g170"><path
             id="path172"
             style="fill:#000000;fill-opacity:1;fill-rule:nonzero;stroke:none"
             d="m 0,0 c 0,1.592 -0.384,2.875 -1.148,3.841 -0.767,0.971 -1.814,1.452 -3.14,1.452 -1.326,0 -2.373,-0.481 -3.141,-1.452 C -8.195,2.875 -8.576,1.592 -8.576,0 c 0,-1.598 0.381,-2.88 1.147,-3.846 0.768,-0.972 1.815,-1.452 3.141,-1.452 1.326,0 2.373,0.48 3.14,1.452 C -0.384,-2.88 0,-1.598 0,0 m 1.758,0 c 0,-1.953 -0.559,-3.551 -1.679,-4.788 -1.121,-1.242 -2.576,-1.863 -4.367,-1.863 -1.791,0 -3.247,0.621 -4.367,1.863 -1.12,1.237 -1.68,2.835 -1.68,4.788 0,1.948 0.56,3.545 1.68,4.788 1.12,1.236 2.576,1.857 4.367,1.857 1.791,0 3.246,-0.621 4.367,-1.857 C 1.199,3.545 1.758,1.948 1.758,0" /></g><g
           transform="translate(394.1641,67.2441)"
           id="g174"><path
             id="path176"
             style="fill:#000000;fill-opacity:1;fill-rule:nonzero;stroke:none"
             d="m 0,0 c 0,1.592 -0.384,2.875 -1.15,3.841 -0.765,0.971 -1.812,1.452 -3.138,1.452 -1.326,0 -2.373,-0.481 -3.14,-1.452 C -8.195,2.875 -8.579,1.592 -8.579,0 c 0,-1.598 0.384,-2.88 1.151,-3.846 0.767,-0.972 1.814,-1.452 3.14,-1.452 1.326,0 2.373,0.48 3.138,1.452 C -0.384,-2.88 0,-1.598 0,0 m 1.758,0 c 0,-1.953 -0.562,-3.551 -1.682,-4.788 -1.117,-1.242 -2.573,-1.863 -4.364,-1.863 -1.794,0 -3.247,0.621 -4.367,1.863 -1.12,1.237 -1.679,2.835 -1.679,4.788 0,1.948 0.559,3.545 1.679,4.788 1.12,1.236 2.573,1.857 4.367,1.857 1.791,0 3.247,-0.621 4.364,-1.857 C 1.196,3.545 1.758,1.948 1.758,0" /></g><g
           transform="translate(402.8701,60.874)"
           id="g178"><path
             id="path180"
             style="fill:#000000;fill-opacity:1;fill-rule:nonzero;stroke:none"
             d="m 0,0 c -0.516,-0.185 -1.023,-0.281 -1.524,-0.281 -1.499,0 -2.248,0.747 -2.248,2.244 v 16.731 h 1.578 V 2.088 c 0,-0.696 0.317,-1.042 0.955,-1.042 0.327,0 0.62,0.051 0.879,0.151 z" /></g><g
           transform="translate(187.0952,38.834)"
           id="g182"><path
             id="path184"
             style="fill:#000000;fill-opacity:1;fill-rule:nonzero;stroke:none"
             d="m 0,0 c 0.559,-0.34 1.377,-0.621 2.238,-0.621 1.278,0 2.025,0.667 2.025,1.628 0,0.891 -0.515,1.397 -1.822,1.893 -1.58,0.551 -2.555,1.357 -2.555,2.704 0,1.483 1.247,2.589 3.127,2.589 0.991,0 1.71,-0.23 2.139,-0.47 L 4.81,6.721 C 4.492,6.892 3.847,7.172 2.97,7.172 1.651,7.172 1.148,6.396 1.148,5.744 1.148,4.854 1.735,4.412 3.072,3.906 4.708,3.28 5.541,2.504 5.541,1.103 c 0,-1.468 -1.108,-2.741 -3.389,-2.741 -0.932,0 -1.951,0.266 -2.467,0.607 z" /></g><g
           transform="translate(195.5933,46.8672)"
           id="g186"><path
             id="path188"
             style="fill:#000000;fill-opacity:1;fill-rule:nonzero;stroke:none"
             d="M 0,0 V -3.986 H 4.68 V 0 H 5.939 V -9.53 H 4.68 v 4.467 H 0 V -9.53 H -1.25 V 0 Z" /></g><g
           transform="translate(208.4375,41.2988)"
           id="g190"><path
             id="path192"
             style="fill:#000000;fill-opacity:1;fill-rule:nonzero;stroke:none"
             d="M 0,0 -0.944,2.744 C -1.161,3.365 -1.306,3.931 -1.448,4.481 H -1.476 C -1.62,3.916 -1.778,3.335 -1.964,2.754 L -2.911,0 Z m -3.17,-0.962 -1.004,-3 h -1.293 l 3.287,9.53 h 1.507 l 3.3,-9.53 H 1.293 l -1.033,3 z" /></g><g
           transform="translate(213.7373,42.3994)"
           id="g194"><path
             id="path196"
             style="fill:#000000;fill-opacity:1;fill-rule:nonzero;stroke:none"
             d="M 0,0 H 1.277 C 2.611,0 3.46,0.722 3.46,1.809 3.46,3.04 2.556,3.581 1.234,3.591 0.632,3.591 0.2,3.536 0,3.481 Z m -1.247,4.343 c 0.629,0.125 1.534,0.2 2.395,0.2 1.333,0 2.195,-0.24 2.797,-0.781 C 4.433,3.341 4.707,2.689 4.707,1.954 4.707,0.691 3.904,-0.14 2.883,-0.48 V -0.525 C 3.63,-0.775 4.075,-1.457 4.306,-2.448 4.621,-3.775 4.85,-4.697 5.05,-5.062 H 3.76 C 3.603,-4.797 3.386,-3.976 3.114,-2.784 2.827,-1.472 2.312,-0.976 1.176,-0.936 H 0 v -4.126 h -1.247 z" /></g><g
           transform="translate(222.1914,46.8672)"
           id="g198"><path
             id="path200"
             style="fill:#000000;fill-opacity:1;fill-rule:nonzero;stroke:none"
             d="m 0,0 h 1.247 v -6.375 c 0,-2.534 -1.262,-3.311 -2.926,-3.311 -0.46,0 -1.019,0.096 -1.334,0.226 l 0.186,1.002 c 0.259,-0.096 0.633,-0.181 1.049,-0.181 1.118,0 1.778,0.495 1.778,2.359 z" /></g><g
           transform="translate(230.2578,41.2988)"
           id="g202"><path
             id="path204"
             style="fill:#000000;fill-opacity:1;fill-rule:nonzero;stroke:none"
             d="m 0,0 -0.948,2.744 c -0.213,0.621 -0.358,1.187 -0.5,1.737 H -1.479 C -1.621,3.916 -1.778,3.335 -1.967,2.754 L -2.914,0 Z m -3.171,-0.962 -1.006,-3 h -1.29 l 3.284,9.53 h 1.509 l 3.301,-9.53 H 1.293 l -1.034,3 z" /></g><g
           transform="translate(235.5547,46.8672)"
           id="g206"><path
             id="path208"
             style="fill:#000000;fill-opacity:1;fill-rule:nonzero;stroke:none"
             d="M 0,0 V -3.986 H 4.679 V 0 H 5.942 V -9.53 H 4.679 v 4.467 H 0 V -9.53 H -1.248 V 0 Z" /></g><g
           transform="translate(50.3867,103)"
           id="g210"><path
             id="path212"
             style="fill:#1a2d60;fill-opacity:1;fill-rule:nonzero;stroke:none"
             d="m 0,0 h -1.151 -46.236 v -42.036 c 0,-41.14 46.805,-52.652 46.805,-52.652 0,0 46.818,11.512 46.818,52.652 V 0 Z" /></g><g
           transform="translate(90.5132,60.9644)"
           id="g214"><path
             id="path216"
             style="fill:#8d9091;fill-opacity:1;fill-rule:nonzero;stroke:none"
             d="M 0,0 C 0,-31.996 -33.407,-43.904 -40.721,-46.132 -48.233,-43.899 -81.403,-32.241 -81.403,0 V 35.721 H 0 Z m -40.126,42.036 h -1.151 -46.236 V 0 c 0,-41.14 46.805,-52.653 46.805,-52.653 0,0 46.817,11.513 46.817,52.653 v 42.036 z" /></g><g
           transform="translate(75.6489,74.8657)"
           id="g218"><path
             id="path220"
             style="fill:#58b7de;fill-opacity:1;fill-rule:nonzero;stroke:none"
             d="m 0,0 v 0.912 c 0,1.377 -0.635,2.499 -1.893,3.37 -1.267,0.866 -3.117,1.307 -5.566,1.307 -0.927,0 -1.778,-0.1 -2.545,-0.3 -0.762,-0.206 -1.418,-0.486 -1.959,-0.857 -0.536,-0.37 -0.955,-0.801 -1.258,-1.312 -0.299,-0.506 -0.449,-1.052 -0.449,-1.662 0,-0.606 0.132,-1.097 0.386,-1.473 0.262,-0.376 0.699,-0.701 1.305,-0.977 0.616,-0.279 1.421,-0.55 2.424,-0.816 1.001,-0.265 2.264,-0.59 3.773,-0.976 h -0.064 c 0.836,-0.186 1.774,-0.396 2.833,-0.631 1.055,-0.24 2.202,-0.536 3.448,-0.887 0.723,-0.2 1.43,-0.531 2.11,-0.986 0.684,-0.466 1.293,-1.006 1.82,-1.628 0.525,-0.621 0.965,-1.297 1.305,-2.013 0.341,-0.711 0.531,-1.432 0.574,-2.143 v -0.451 c 0,-1.337 -0.34,-2.564 -1.011,-3.701 -0.671,-1.127 -1.575,-2.098 -2.703,-2.899 -1.128,-0.807 -2.444,-1.442 -3.943,-1.903 -1.504,-0.456 -3.091,-0.696 -4.771,-0.696 h -0.619 c -1.347,0.045 -2.544,0.13 -3.59,0.28 -1.044,0.145 -1.987,0.376 -2.828,0.676 -0.833,0.306 -1.588,0.681 -2.248,1.142 -0.665,0.466 -1.295,1.021 -1.898,1.683 -0.477,0.495 -0.873,0.966 -1.175,1.417 -0.316,0.45 -0.56,0.936 -0.748,1.457 -0.188,0.531 -0.32,1.122 -0.394,1.798 -0.068,0.661 -0.106,1.482 -0.106,2.434 h 5.035 v -0.771 c 0,-1.929 0.739,-3.381 2.22,-4.352 1.481,-0.977 3.491,-1.458 6.041,-1.458 h 1.019 c 1.08,0 2.013,0.145 2.805,0.451 0.785,0.305 1.433,0.676 1.954,1.127 0.52,0.451 0.904,0.937 1.166,1.463 0.256,0.525 0.388,1.016 0.388,1.477 0,0.561 -0.119,1.051 -0.355,1.457 -0.242,0.4 -0.676,0.776 -1.306,1.116 -0.635,0.336 -1.491,0.672 -2.576,0.992 -1.09,0.32 -2.49,0.686 -4.182,1.112 -0.866,0.15 -1.585,0.285 -2.144,0.401 -0.559,0.12 -0.963,0.225 -1.209,0.315 h 0.056 c -0.892,0.285 -1.796,0.571 -2.728,0.886 -0.936,0.311 -1.787,0.731 -2.543,1.277 -0.773,0.546 -1.4,1.238 -1.888,2.078 -0.483,0.852 -0.732,1.944 -0.732,3.281 0,1.287 0.28,2.463 0.831,3.545 0.541,1.067 1.316,1.994 2.309,2.765 0.993,0.771 2.183,1.367 3.574,1.793 1.39,0.415 2.92,0.63 4.596,0.63 2.05,0 3.875,-0.22 5.457,-0.67 C -0.419,8.624 0.912,8.013 1.984,7.236 3.064,6.45 3.887,5.539 4.443,4.487 5,3.446 5.282,2.324 5.282,1.132 V 0.912 C 5.282,0.741 5.256,0.591 5.218,0.466 5.178,0.341 5.05,0.181 4.845,0 Z" /></g><g
           transform="translate(33.1245,54.499)"
           id="g222"><path
             id="path224"
             style="fill:#008cd2;fill-opacity:1;fill-rule:nonzero;stroke:none"
             d="M 0,0 H -6.138 L -17.75,30.022 h 6.135 z" /></g><g
           transform="translate(33.1245,54.499)"
           id="g226"><path
             id="path228"
             style="fill:#008cd2;fill-opacity:1;fill-rule:nonzero;stroke:none"
             d="M 0,0 H -6.138 L 3.95,30.022 h 6.128 z" /></g><g
           transform="translate(54.8325,54.499)"
           id="g230"><path
             id="path232"
             style="fill:#008cd2;fill-opacity:1;fill-rule:nonzero;stroke:none"
             d="m 0,0 h -6.138 l -11.614,30.022 h 6.14 z" /></g><g
           transform="translate(54.8325,54.499)"
           id="g234"><path
             id="path236"
             style="fill:#008cd2;fill-opacity:1;fill-rule:nonzero;stroke:none"
             d="M 0,0 H -6.138 L 3.938,30.022 h 6.14 z" /></g></g></g></g></svg>