<?xml version="1.0" encoding="UTF-8" standalone="no"?>
<svg
   xmlns:dc="http://purl.org/dc/elements/1.1/"
   xmlns:cc="http://creativecommons.org/ns#"
   xmlns:rdf="http://www.w3.org/1999/02/22-rdf-syntax-ns#"
   xmlns:svg="http://www.w3.org/2000/svg"
   xmlns="http://www.w3.org/2000/svg"
   viewBox="0 0 541.33331 141.33333"
   height="141.33333"
   width="541.33331"
   xml:space="preserve"
   id="svg2"
   version="1.1"><metadata
     id="metadata8"><rdf:RDF><cc:Work
         rdf:about=""><dc:format>image/svg+xml</dc:format><dc:type
           rdf:resource="http://purl.org/dc/dcmitype/StillImage" /></cc:Work></rdf:RDF></metadata><defs
     id="defs6"><clipPath
       id="clipPath18"
       clipPathUnits="userSpaceOnUse"><path
         id="path16"
         d="M 0,106 H 406 V 0 H 0 Z" /></clipPath><clipPath
       id="clipPath182"
       clipPathUnits="userSpaceOnUse"><path
         id="path180"
         d="m 28.605,60.235 c 0,-9.505 7.698,-17.2 17.2,-17.2 v 0 c 9.5,0 17.193,7.695 17.193,17.2 v 0 c 0,9.5 -7.693,17.196 -17.188,17.196 v 0 c -9.507,0 -17.205,-7.696 -17.205,-17.196" /></clipPath><radialGradient
       id="radialGradient192"
       spreadMethod="pad"
       gradientTransform="matrix(19.300436,0,0,19.300436,47.032955,46.402256)"
       gradientUnits="userSpaceOnUse"
       r="1"
       cy="0"
       cx="0"
       fy="0"
       fx="0"><stop
         id="stop188"
         offset="0"
         style="stop-opacity:1;stop-color:#c5e4f8" /><stop
         id="stop190"
         offset="1"
         style="stop-opacity:1;stop-color:#12b5ea" /></radialGradient><clipPath
       id="clipPath202"
       clipPathUnits="userSpaceOnUse"><path
         id="path200"
         d="M 0,106 H 406 V 0 H 0 Z" /></clipPath></defs><g
     transform="matrix(1.3333333,0,0,-1.3333333,0,141.33333)"
     id="g10"><g
       id="g12"><g
         clip-path="url(#clipPath18)"
         id="g14"><g
           transform="translate(215.29,43.918)"
           id="g20"><path
             id="path22"
             style="fill:#231f20;fill-opacity:1;fill-rule:nonzero;stroke:none"
             d="m 0,0 c -0.672,0 -2.24,0.062 -3.007,2.716 l -4.675,16.223 c -0.129,0.385 -0.157,0.766 -0.157,0.766 h -0.033 c 0,0 -0.03,-0.352 -0.159,-0.766 L -13.629,0 c -0.545,0 -2.145,0.062 -2.944,2.716 L -22.49,22.2 h 2.3 l 5.6,-19.225 h 0.066 c 0.028,0.187 0.094,0.831 0.284,1.437 L -9.056,22.2 h 2.591 L -0.991,2.975 h 0.094 c 0.033,0.346 0.16,0.924 0.289,1.409 L 4.606,22.2 h 2.049 z" /></g><g
           transform="translate(229.6807,58.8916)"
           id="g24"><path
             id="path26"
             style="fill:#231f20;fill-opacity:1;fill-rule:nonzero;stroke:none"
             d="m 0,0 c -3.295,0 -5.311,-2.659 -5.311,-6.658 0,-3.997 2.016,-6.657 5.311,-6.657 3.294,0 5.31,2.66 5.31,6.657 C 5.31,-2.659 3.294,0 0,0 m 0,-15.007 c -4.418,0 -7.486,3.421 -7.486,8.349 0,4.929 3.068,8.349 7.486,8.349 4.417,0 7.484,-3.42 7.484,-8.349 0,-4.928 -3.067,-8.349 -7.484,-8.349" /></g><g
           transform="translate(247.4355,58.666)"
           id="g28"><path
             id="path30"
             style="fill:#231f20;fill-opacity:1;fill-rule:nonzero;stroke:none"
             d="m 0,0 c -0.547,0.094 -1.088,0.155 -1.632,0.155 -1.184,0 -2.396,-0.254 -3.484,-0.733 0,0 0.061,-0.733 0.061,-1.085 v -12.766 h -1.952 v 12.7 c 0,0.705 -0.19,2.081 -0.19,2.081 1.888,0.832 3.866,1.565 5.952,1.565 0.606,0 1.215,-0.061 1.788,-0.193 z" /></g><g
           transform="translate(253.8682,43.8848)"
           id="g32"><path
             id="path34"
             style="fill:#231f20;fill-opacity:1;fill-rule:nonzero;stroke:none"
             d="m 0,0 c -1.952,0 -2.786,0.897 -2.786,2.814 v 21.021 h 1.954 V 2.975 c 0,-0.738 0.416,-1.311 1.184,-1.311 0.35,0 0.768,0.061 1.085,0.192 L 1.884,0.353 C 1.279,0.127 0.639,0 0,0" /></g><g
           transform="translate(268.5547,46.7979)"
           id="g36"><path
             id="path38"
             style="fill:#231f20;fill-opacity:1;fill-rule:nonzero;stroke:none"
             d="m 0,0 v 11.069 c -0.963,0.733 -2.37,1.025 -3.453,1.025 -3.78,0 -5.382,-3.167 -5.382,-6.531 0,-3.581 1.919,-6.785 5.856,-6.785 0.96,0 2.147,0.198 3.007,0.578 C 0.028,-0.644 0,-0.324 0,0 m -3.073,-2.913 c -4.994,0 -7.935,3.68 -7.935,8.476 0,4.576 2.556,8.222 7.423,8.222 1.184,0 2.495,-0.254 3.585,-0.831 v 7.968 H 1.949 V 0.062 c 0,-0.639 0.16,-1.922 0.16,-1.922 -1.663,-0.607 -3.392,-1.053 -5.182,-1.053" /></g><g
           transform="translate(290.3076,63.5898)"
           id="g40"><path
             id="path42"
             style="fill:#231f20;fill-opacity:1;fill-rule:nonzero;stroke:none"
             d="M 0,0 H -0.031 C -0.16,-0.348 -0.287,-0.7 -0.287,-0.7 l -4.028,-10.43 h 8.539 z m 7.426,-19.353 -2.495,6.367 H -5.116 l -2.465,-6.367 h -2.145 l 8.798,21.881 h 2.145 l 8.477,-21.881 z" /></g><g
           transform="translate(309.2793,43.918)"
           id="g44"><path
             id="path46"
             style="fill:#231f20;fill-opacity:1;fill-rule:nonzero;stroke:none"
             d="m 0,0 c -4.188,0 -7.994,3.04 -7.994,8.316 0,4.863 2.878,8.321 7.677,8.321 1.534,0 3.072,-0.353 4.543,-0.93 L 3.65,14.104 c -0.543,0.23 -2.208,0.836 -3.874,0.836 -4.061,0 -5.599,-3.392 -5.599,-6.624 0,-4.256 2.755,-6.625 6.049,-6.625 1.118,0 2.273,0.226 3.455,0.705 L 4.226,0.893 C 2.979,0.319 1.475,0 0,0" /></g><g
           transform="translate(325.9814,47.2725)"
           id="g48"><path
             id="path50"
             style="fill:#231f20;fill-opacity:1;fill-rule:nonzero;stroke:none"
             d="M 0,0 V 5.859 C -0.606,5.347 -1.212,5.154 -2.016,4.934 -4.093,4.322 -7.743,4.13 -7.743,1.222 c 0,-2.307 2.082,-2.918 4.223,-2.918 1.312,0 2.756,0.259 3.617,0.644 C 0.097,-1.052 0,-0.512 0,0 m -3.712,-3.388 c -3.007,0 -6.206,1.118 -6.206,4.478 0,3.167 2.495,4.224 4.994,4.802 C -2.462,6.47 0,6.751 0,8.866 c 0,2.175 -1.76,2.753 -3.615,2.753 -1.279,0 -2.878,-0.517 -3.966,-0.991 l -0.61,1.564 c 1.409,0.639 3.232,1.119 4.768,1.119 3.331,0 5.375,-1.438 5.375,-4.929 v -8.509 c 0,-0.605 0.223,-2.081 0.223,-2.081 -1.851,-0.7 -3.902,-1.18 -5.887,-1.18" /></g><g
           transform="translate(342.1387,46.7979)"
           id="g52"><path
             id="path54"
             style="fill:#231f20;fill-opacity:1;fill-rule:nonzero;stroke:none"
             d="m 0,0 v 11.069 c -0.961,0.733 -2.365,1.025 -3.453,1.025 -3.776,0 -5.375,-3.167 -5.375,-6.531 0,-3.581 1.919,-6.785 5.854,-6.785 0.958,0 2.147,0.198 3.007,0.578 C 0.033,-0.644 0,-0.324 0,0 m -3.07,-2.913 c -4.99,0 -7.933,3.68 -7.933,8.476 0,4.576 2.561,8.222 7.418,8.222 1.187,0 2.497,-0.254 3.585,-0.831 v 7.968 H 1.954 V 0.062 c 0,-0.639 0.157,-1.922 0.157,-1.922 -1.663,-0.607 -3.386,-1.053 -5.181,-1.053" /></g><g
           transform="translate(354.2646,58.8916)"
           id="g56"><path
             id="path58"
             style="fill:#231f20;fill-opacity:1;fill-rule:nonzero;stroke:none"
             d="m 0,0 c -2.945,0 -4.513,-2.528 -4.513,-5.567 h 8.93 C 4.417,-2.852 3.141,0 0,0 M 6.465,-7.264 H -4.543 c 0.099,-4.13 2.721,-6.051 5.89,-6.051 1.088,0 2.24,0.23 3.389,0.676 l 0.545,-1.442 c -1.343,-0.639 -2.883,-0.926 -4.384,-0.926 -4.865,0 -7.584,3.839 -7.584,8.444 0,4.129 2.015,8.254 6.657,8.254 4.381,0 6.589,-3.486 6.589,-7.517 0,-0.418 -0.031,-0.898 -0.094,-1.438" /></g><g
           transform="translate(383.4131,44.2373)"
           id="g60"><path
             id="path62"
             style="fill:#231f20;fill-opacity:1;fill-rule:nonzero;stroke:none"
             d="m 0,0 v 10.553 c 0,2.532 -1.151,4.101 -3.775,4.101 -1.506,0 -2.944,-0.451 -4.289,-1.09 0.349,-0.798 0.481,-1.696 0.481,-2.561 V 0 h -1.952 v 10.553 c 0,2.532 -1.152,4.101 -3.776,4.101 -1.343,0 -2.687,-0.484 -3.934,-0.963 0,0 0.063,-0.672 0.063,-0.991 V 0 h -1.952 v 12.634 c 0,0.643 -0.192,2.081 -0.192,2.081 1.952,0.766 4.16,1.631 6.272,1.631 1.501,0 3.073,-0.348 4.156,-1.471 1.668,0.803 3.458,1.471 5.346,1.471 3.453,0 5.471,-1.824 5.471,-5.343 L 1.919,0 Z" /></g><g
           transform="translate(396.751,43.8193)"
           id="g64"><path
             id="path66"
             style="fill:#231f20;fill-opacity:1;fill-rule:nonzero;stroke:none"
             d="m 0,0 c -1.021,-3.167 -3.164,-6.239 -5.98,-7.104 l -0.769,1.537 c 2.657,0.93 4.066,3.453 4.804,5.694 0,0 -0.803,-0.028 -1.318,1.282 l -5.913,15.007 h 2.204 L -1.498,1.987 h 0.063 l 4.703,14.429 h 2.079 z" /></g><g
           transform="translate(116.7021,43.9746)"
           id="g68"><path
             id="path70"
             style="fill:#231f20;fill-opacity:1;fill-rule:nonzero;stroke:none"
             d="m 0,0 c -6.634,0 -11.276,4.613 -11.276,11.271 0,6.766 4.163,11.342 11.02,11.342 2.243,0 4.456,-0.512 6.505,-1.372 L 5.222,18.704 c -1.731,0.733 -3.622,1.184 -5.511,1.184 -5.124,0 -7.75,-3.487 -7.75,-8.391 0,-5.286 3.301,-8.776 8.105,-8.776 1.348,0 2.621,0.249 3.876,0.765 C 3.846,3.904 3.784,4.355 3.784,4.769 v 7.146 h 3.07 V 1.696 C 4.806,0.573 2.34,0 0,0" /></g><g
           transform="translate(128.9082,44.3223)"
           id="g72"><path
             id="path74"
             style="fill:#231f20;fill-opacity:1;fill-rule:nonzero;stroke:none"
             d="M 0,0 V 21.913 H 11.854 V 19.187 H 3.075 v -6.403 h 7.336 V 10.063 H 3.075 V 2.725 h 9.07 V 0 Z" /></g><g
           transform="translate(163.7646,44.3223)"
           id="g76"><path
             id="path78"
             style="fill:#231f20;fill-opacity:1;fill-rule:nonzero;stroke:none"
             d="m 0,0 v 19.004 h -0.061 c 0,0 -0.099,-0.455 -0.357,-0.963 L -7.052,4.9 c -1.278,0 -2.049,0.808 -2.749,2.246 l -5.387,10.895 c -0.194,0.381 -0.349,0.963 -0.349,0.963 h -0.066 V 0 h -3.075 v 21.913 h 4.679 l 5.737,-11.694 c 0.092,-0.188 0.444,-0.991 0.444,-0.991 h 0.099 c 0,0 0.195,0.643 0.38,1.023 l 5.772,11.662 H 3.077 V 0 Z" /></g><g
           transform="translate(176.9971,43.9746)"
           id="g80"><path
             id="path82"
             style="fill:#231f20;fill-opacity:1;fill-rule:nonzero;stroke:none"
             d="m 0,0 c -1.954,0 -3.977,0.348 -5.8,1.053 l 0.766,2.631 c 1.731,-0.617 3.333,-0.963 5.064,-0.963 2.115,0 4.424,0.869 4.424,3.335 0,4.769 -10.125,3.74 -10.125,10.759 0,4.069 3.589,5.798 7.21,5.798 1.825,0 3.519,-0.414 5.253,-1.025 L 5.864,19.056 c -1.253,0.446 -2.85,0.832 -4.325,0.832 -1.988,0 -3.944,-0.738 -3.944,-3.007 C -2.405,12.713 7.75,13.451 7.75,6.305 7.75,1.982 3.876,0 0,0" /></g><path
           id="path84"
           style="fill:#231f20;fill-opacity:1;fill-rule:nonzero;stroke:none"
           d="m 199.866,88.876 h -1.47 v 1.776 h 1.47 z m -2.716,0 h -1.471 v 1.776 h 1.471 z m 2.178,-6.31 v 3.698 h -2.634 c -1.637,0 -2.757,-1.692 -2.757,-3.89 0,-2.129 1.099,-3.905 2.715,-3.905 1.744,0 2.634,1.358 2.676,4.097 m 4.933,-6.686 h -0.953 c -2.054,0 -3.36,1.02 -3.964,3.049 -0.62,-1.066 -1.677,-1.611 -3.166,-1.611 -2.119,0 -3.693,2.194 -3.693,4.975 0,2.965 1.574,5.056 3.937,5.056 h 4.398 v -6.704 c 0,-2.091 0.972,-3.327 2.649,-3.327 h 0.792 z" /><path
           id="path86"
           style="fill:#231f20;fill-opacity:1;fill-rule:nonzero;stroke:none"
           d="m 208.762,72.681 h -1.473 v 1.776 h 1.473 z m -2.718,0 h -1.471 v 1.776 h 1.471 z m 4.997,3.199 h -7.151 v 1.438 h 1.327 c 0.89,0 1.47,0.296 1.762,0.86 0.205,0.394 0.31,1.066 0.31,2.025 v 5.163 h 1.452 v -5.812 c 0,-0.897 -0.127,-1.649 -0.394,-2.212 h 2.694 z" /><g
           transform="translate(219.8945,78.9482)"
           id="g88"><path
             id="path90"
             style="fill:#231f20;fill-opacity:1;fill-rule:nonzero;stroke:none"
             d="m 0,0 c 0,0.94 -0.187,1.696 -0.562,2.26 -0.434,0.686 -1.078,1.019 -1.968,1.019 -0.935,0 -1.658,-0.371 -2.135,-1.104 -0.395,-0.606 -0.583,-1.4 -0.583,-2.424 0,-0.939 0.188,-1.715 0.583,-2.302 0.477,-0.686 1.16,-1.019 2.053,-1.019 C -0.871,-3.57 0,-2.377 0,0 M 4.04,-3.068 H 0.872 c -0.79,-1.217 -1.953,-1.823 -3.484,-1.823 -1.597,0 -2.8,0.606 -3.569,1.823 h -3.067 v 1.462 h 2.447 c -0.103,0.436 -0.167,0.916 -0.167,1.441 0,1.377 0.395,2.505 1.161,3.407 0.786,0.897 1.866,1.334 3.213,1.334 1.352,0 2.427,-0.46 3.194,-1.358 0.727,-0.855 1.098,-1.982 1.098,-3.364 0,-0.521 -0.063,-1.005 -0.185,-1.46 H 4.04 Z" /></g><g
           transform="translate(228.3516,89.3975)"
           id="g92"><path
             id="path94"
             style="fill:#231f20;fill-opacity:1;fill-rule:nonzero;stroke:none"
             d="m 0,0 v -9.843 c 0,-2.443 -1.015,-3.674 -3.047,-3.674 h -1.802 v 1.437 h 1.328 c 0.89,0 1.47,0.297 1.756,0.879 0.209,0.376 0.313,1.048 0.313,2.006 V 0 Z" /></g><g
           transform="translate(235.6904,75.8804)"
           id="g96"><path
             id="path98"
             style="fill:#231f20;fill-opacity:1;fill-rule:nonzero;stroke:none"
             d="m 0,0 h -1.635 c -0.748,0 -1.37,0.268 -1.886,0.79 -0.604,0.586 -0.893,1.423 -0.893,2.532 v 10.195 h 1.491 V 4.2 c 0,-0.963 0.147,-1.654 0.414,-2.072 C -2.279,1.776 -1.884,1.564 -1.327,1.48 -1.182,1.461 -1.015,1.461 0,1.461 Z" /></g><g
           transform="translate(246.7217,83.1909)"
           id="g100"><path
             id="path102"
             style="fill:#231f20;fill-opacity:1;fill-rule:nonzero;stroke:none"
             d="m 0,0 c -0.893,0.437 -1.433,0.69 -1.574,0.756 -0.707,0.268 -1.414,0.395 -2.119,0.395 -1.221,0 -2.528,-0.395 -3.958,-1.193 0.932,-0.353 1.722,-0.836 2.384,-1.4 0.58,-0.48 1.203,-1.208 1.886,-2.152 C -1.889,-2.57 -0.769,-1.376 0,0 m 3.566,-7.311 h -4.022 c -1.264,0 -2.302,0.545 -3.091,1.631 -1.264,-1.086 -2.819,-1.631 -4.666,-1.631 h -3.253 v 1.462 h 3.211 c 0.752,0 1.391,0.079 1.91,0.272 0.517,0.183 1.142,0.54 1.846,1.043 -1.142,1.734 -2.612,2.97 -4.437,3.679 l -0.019,1.649 c 1.698,1.109 3.416,1.672 5.18,1.672 1.992,0 3.815,-0.667 5.453,-2.006 C 1.16,-0.541 0.724,-1.315 0.353,-1.837 -0.376,-2.861 -1.285,-3.824 -2.385,-4.68 c 0.478,-0.587 0.973,-0.939 1.471,-1.066 0.227,-0.061 0.787,-0.103 1.68,-0.103 h 2.8 z" /></g><g
           transform="translate(254.7656,89.3975)"
           id="g104"><path
             id="path106"
             style="fill:#231f20;fill-opacity:1;fill-rule:nonzero;stroke:none"
             d="m 0,0 v -9.843 c 0,-2.443 -1.016,-3.674 -3.047,-3.674 h -1.807 v 1.437 h 1.33 c 0.892,0 1.47,0.297 1.759,0.879 0.209,0.376 0.315,1.048 0.315,2.006 l 0,9.195 z" /></g><path
           id="path108"
           style="fill:#231f20;fill-opacity:1;fill-rule:nonzero;stroke:none"
           d="m 258.993,75.88 h -1.451 v 13.517 h 1.451 z" /><g
           transform="translate(290.2793,75.8804)"
           id="g110"><path
             id="path112"
             style="fill:#231f20;fill-opacity:1;fill-rule:nonzero;stroke:none"
             d="m 0,0 h -14.574 c 0,0.146 -0.024,0.31 -0.084,0.498 -0.912,-2.509 -2.987,-3.97 -5.286,-3.97 -3.298,0 -5.866,2.97 -5.866,7.188 v 5.77 h 1.45 V 4.008 c 0,-3.655 1.7,-6.061 4.416,-6.061 2.507,0 4.083,1.987 4.35,5.224 v 6.315 h 1.497 v -5.77 c 0,-0.813 -0.083,-1.569 -0.252,-2.255 h 2.594 c 1.327,0 1.762,0.648 1.762,2.861 v 5.164 h 1.451 V 3.674 c 0,-0.897 -0.126,-1.649 -0.395,-2.213 h 2.489 c 1.554,0 2.074,0.667 2.074,2.861 v 5.164 h 1.449 V 3.674 c 0,-0.897 -0.145,-1.649 -0.411,-2.213 l 3.336,0 z" /></g><g
           transform="translate(299.1094,78.9482)"
           id="g114"><path
             id="path116"
             style="fill:#231f20;fill-opacity:1;fill-rule:nonzero;stroke:none"
             d="m 0,0 c 0,0.94 -0.186,1.696 -0.559,2.26 -0.434,0.686 -1.078,1.019 -1.968,1.019 -0.931,0 -1.661,-0.371 -2.138,-1.104 -0.393,-0.606 -0.58,-1.4 -0.58,-2.424 0,-0.939 0.187,-1.715 0.58,-2.302 0.477,-0.686 1.163,-1.019 2.056,-1.019 C -0.871,-3.57 0,-2.377 0,0 M 4.046,-3.068 H 0.869 c -0.784,-1.217 -1.944,-1.823 -3.478,-1.823 -1.598,0 -2.801,0.606 -3.567,1.823 h -3.068 v 1.462 h 2.443 c -0.103,0.436 -0.164,0.916 -0.164,1.441 0,1.377 0.395,2.505 1.163,3.407 0.787,0.897 1.863,1.334 3.214,1.334 1.346,0 2.424,-0.46 3.192,-1.358 0.723,-0.855 1.099,-1.982 1.099,-3.364 0,-0.521 -0.06,-1.005 -0.187,-1.46 h 2.53 z" /></g><path
           id="path118"
           style="fill:#231f20;fill-opacity:1;fill-rule:nonzero;stroke:none"
           d="m 307.593,72.681 h -1.476 v 1.776 h 1.476 z m -2.721,0 h -1.471 v 1.776 h 1.471 z m 4.999,3.199 h -7.153 v 1.438 h 1.327 c 0.892,0 1.471,0.296 1.765,0.86 0.204,0.394 0.307,1.066 0.307,2.025 v 5.163 h 1.454 v -5.812 c 0,-0.897 -0.125,-1.649 -0.394,-2.212 h 2.694 z" /><path
           id="path120"
           style="fill:#231f20;fill-opacity:1;fill-rule:nonzero;stroke:none"
           d="m 318.021,72.7 h -1.497 v 1.776 h 1.497 z m 5.719,5.29 v -2.11 h -14.367 v 1.462 h 12.604 c 0.022,0.272 0.042,0.521 0.042,0.751 0,3.533 -1.844,5.558 -5.103,5.558 -1.76,0 -3.065,-0.686 -3.895,-2.071 -0.207,0.234 -0.623,0.648 -1.266,1.296 1.183,1.485 2.885,2.218 5.147,2.218 4.122,0 6.838,-2.758 6.838,-7.104" /><path
           id="path122"
           style="fill:#231f20;fill-opacity:1;fill-rule:nonzero;stroke:none"
           d="m 336.364,88.876 h -1.468 v 1.776 h 1.468 z m -2.716,0 h -1.47 v 1.776 h 1.47 z m 2.178,-6.31 v 3.698 h -2.633 c -1.634,0 -2.757,-1.692 -2.757,-3.89 0,-2.129 1.101,-3.905 2.717,-3.905 1.743,0 2.634,1.358 2.673,4.097 m 4.937,-6.686 h -0.952 c -2.056,0 -3.36,1.02 -3.963,3.049 -0.62,-1.066 -1.68,-1.611 -3.171,-1.611 -2.115,0 -3.689,2.194 -3.689,4.975 0,2.965 1.574,5.056 3.938,5.056 h 4.394 v -6.704 c 0,-2.091 0.976,-3.327 2.656,-3.327 h 0.787 z" /><path
           id="path124"
           style="fill:#231f20;fill-opacity:1;fill-rule:nonzero;stroke:none"
           d="m 345.261,72.681 h -1.471 v 1.776 h 1.471 z m -2.714,0 h -1.475 v 1.776 h 1.475 z m 4.997,3.199 h -7.155 v 1.438 h 1.327 c 0.892,0 1.472,0.296 1.762,0.86 0.209,0.394 0.312,1.066 0.312,2.025 v 5.163 h 1.447 v -5.812 c 0,-0.897 -0.12,-1.649 -0.392,-2.212 h 2.699 z" /><g
           transform="translate(356.3936,78.9482)"
           id="g126"><path
             id="path128"
             style="fill:#231f20;fill-opacity:1;fill-rule:nonzero;stroke:none"
             d="m 0,0 c 0,0.94 -0.186,1.696 -0.56,2.26 -0.434,0.686 -1.078,1.019 -1.97,1.019 -0.933,0 -1.655,-0.371 -2.136,-1.104 -0.395,-0.606 -0.577,-1.4 -0.577,-2.424 0,-0.939 0.182,-1.715 0.577,-2.302 C -4.185,-3.237 -3.503,-3.57 -2.61,-3.57 -0.869,-3.57 0,-2.377 0,0 M 4.043,-3.068 H 0.874 c -0.792,-1.217 -1.95,-1.823 -3.484,-1.823 -1.6,0 -2.803,0.606 -3.566,1.823 h -3.071 v 1.462 h 2.446 c -0.101,0.436 -0.165,0.916 -0.165,1.441 0,1.377 0.396,2.505 1.161,3.407 0.787,0.897 1.867,1.334 3.214,1.334 1.346,0 2.426,-0.46 3.192,-1.358 C 1.327,2.363 1.7,1.236 1.7,-0.146 1.7,-0.667 1.637,-1.151 1.513,-1.606 h 2.53 z" /></g><path
           id="path130"
           style="fill:#231f20;fill-opacity:1;fill-rule:nonzero;stroke:none"
           d="m 364.956,72.681 h -1.473 v 1.776 h 1.473 z m -2.714,0 h -1.473 v 1.776 h 1.473 z m 2.736,12.685 v -5.812 c 0,-2.443 -1.018,-3.674 -3.05,-3.674 h -1.824 v 1.438 h 1.349 c 0.891,0 1.471,0.296 1.76,0.879 0.209,0.375 0.312,1.047 0.312,2.006 v 5.163 z" /><g
           transform="translate(376.6895,75.8804)"
           id="g132"><path
             id="path134"
             style="fill:#231f20;fill-opacity:1;fill-rule:nonzero;stroke:none"
             d="m 0,0 h -9.204 v 1.461 h 7.67 c 0,1.861 -0.331,3.364 -1.015,4.492 -0.829,1.358 -2.116,2.071 -3.838,2.175 h -0.556 v 1.376 c 2.922,0 4.932,-1.17 5.99,-3.509 C -0.31,4.595 0,2.612 0,0" /></g><g
           transform="translate(384.0283,75.8804)"
           id="g136"><path
             id="path138"
             style="fill:#231f20;fill-opacity:1;fill-rule:nonzero;stroke:none"
             d="m 0,0 h -1.638 c -0.746,0 -1.366,0.268 -1.887,0.79 -0.602,0.586 -0.889,1.423 -0.889,2.532 v 10.195 h 1.492 V 4.2 c 0,-0.963 0.146,-1.654 0.415,-2.072 0.229,-0.352 0.62,-0.564 1.18,-0.648 C -1.18,1.461 -1.015,1.461 0,1.461 Z" /></g><g
           transform="translate(397.4629,77.9897)"
           id="g140"><path
             id="path142"
             style="fill:#231f20;fill-opacity:1;fill-rule:nonzero;stroke:none"
             d="m 0,0 v -2.109 h -14.367 v 1.461 h 12.603 c 0.021,0.249 0.042,0.502 0.042,0.752 0,1.606 -0.371,2.903 -1.141,3.866 -0.888,1.128 -2.216,1.692 -3.978,1.692 h -4.27 c 0.745,1.358 1.804,3.26 3.172,5.727 h 1.716 L -8.687,7.104 h 1.846 c 2.096,0 3.776,-0.648 5.018,-1.964 C -0.602,3.843 0,2.128 0,0" /></g><path
           id="path144"
           style="fill:#231f20;fill-opacity:1;fill-rule:nonzero;stroke:none"
           d="m 401.691,75.88 h -1.449 v 13.517 h 1.449 z M 403,92.409 402.149,92.324 c -0.082,0.479 -0.333,0.733 -0.765,0.733 -0.562,0 -0.853,-0.38 -0.853,-1.127 0,-0.296 0.064,-0.545 0.209,-0.757 h 2.218 v -0.836 h -3.959 v 0.836 h 0.827 c -0.103,0.23 -0.143,0.484 -0.143,0.733 0,1.067 0.538,1.837 1.701,1.837 0.89,0 1.43,-0.437 1.616,-1.334" /><g
           transform="translate(199.1279,22.0684)"
           id="g146"><path
             id="path148"
             style="fill:#231f20;fill-opacity:1;fill-rule:nonzero;stroke:none"
             d="M 0,0 -1.733,4.543 H -1.764 C -1.774,4.502 -1.806,4.397 -1.858,4.231 L -3.481,0 Z M 3.278,-4.215 H 1.624 l -1.14,2.919 h -4.512 l -1.124,-2.919 h -1.577 l 4.356,10.679 h 1.452 z" /></g><g
           transform="translate(209.0566,20.8193)"
           id="g150"><path
             id="path152"
             style="fill:#231f20;fill-opacity:1;fill-rule:nonzero;stroke:none"
             d="m 0,0 c 0,1.229 -0.843,1.843 -2.529,1.843 h -1.202 v -3.56 c 0.364,-0.062 0.734,-0.094 1.108,-0.094 C -0.874,-1.811 0,-1.207 0,0 m -0.406,4.902 c 0,1.124 -0.723,1.687 -2.17,1.687 -0.374,0 -0.76,-0.042 -1.155,-0.125 V 3.17 h 1.155 c 1.447,0 2.17,0.577 2.17,1.732 m 1.983,-4.964 c 0,-1.125 -0.448,-1.941 -1.343,-2.451 -0.717,-0.417 -1.68,-0.625 -2.888,-0.625 -0.885,0 -1.743,0.089 -2.575,0.266 V 7.604 c 0.905,0.187 1.763,0.281 2.575,0.281 2.55,0 3.825,-0.985 3.825,-2.951 C 1.171,4.393 1.021,3.911 0.719,3.489 0.416,3.068 0.011,2.769 -0.499,2.592 V 2.561 C 0.156,2.404 0.666,2.098 1.03,1.64 1.395,1.182 1.577,0.614 1.577,-0.062" /></g><g
           transform="translate(220.7344,21.4287)"
           id="g154"><path
             id="path156"
             style="fill:#231f20;fill-opacity:1;fill-rule:nonzero;stroke:none"
             d="m 0,0 c 0,-1.229 -0.386,-2.17 -1.155,-2.826 -0.73,-0.614 -1.713,-0.921 -2.951,-0.921 -1.239,0 -2.217,0.307 -2.935,0.921 -0.781,0.645 -1.171,1.587 -1.171,2.826 v 7.104 h 1.498 V 0.141 c 0,-1.707 0.869,-2.561 2.608,-2.561 1.738,0 2.607,0.854 2.607,2.561 v 6.963 l 1.499,0 z" /></g><g
           transform="translate(234.082,23.4268)"
           id="g158"><path
             id="path160"
             style="fill:#231f20;fill-opacity:1;fill-rule:nonzero;stroke:none"
             d="m 0,0 c 0,1.26 -0.338,2.232 -1.015,2.92 -0.676,0.686 -1.655,1.03 -2.934,1.03 -0.605,0 -1.119,-0.047 -1.546,-0.14 v -8.103 c 0.406,-0.084 0.858,-0.125 1.358,-0.125 C -1.379,-4.418 0,-2.945 0,0 m 1.577,0.031 c 0,-1.863 -0.52,-3.291 -1.561,-4.285 -1.041,-0.994 -2.498,-1.491 -4.371,-1.491 -0.885,0 -1.765,0.078 -2.639,0.234 V 4.965 c 0.833,0.208 1.827,0.312 2.982,0.312 1.759,0 3.13,-0.471 4.114,-1.413 C 1.085,2.922 1.577,1.645 1.577,0.031" /></g><g
           transform="translate(245.8379,17.8535)"
           id="g162"><path
             id="path164"
             style="fill:#231f20;fill-opacity:1;fill-rule:nonzero;stroke:none"
             d="M 0,0 H -1.499 V 4.918 H -6.666 V 0 h -1.499 v 10.679 h 1.499 V 6.245 h 5.167 v 4.434 H 0 Z" /></g><g
           transform="translate(254.0029,22.0684)"
           id="g166"><path
             id="path168"
             style="fill:#231f20;fill-opacity:1;fill-rule:nonzero;stroke:none"
             d="M 0,0 -1.732,4.543 H -1.764 C -1.774,4.502 -1.806,4.397 -1.857,4.231 L -3.481,0 Z M 3.278,-4.215 H 1.624 l -1.14,2.919 h -4.511 l -1.125,-2.919 h -1.577 l 4.356,10.679 h 1.452 z" /></g><g
           transform="translate(263.9316,20.8193)"
           id="g170"><path
             id="path172"
             style="fill:#231f20;fill-opacity:1;fill-rule:nonzero;stroke:none"
             d="M 0,0 C 0,1.229 -0.843,1.843 -2.528,1.843 H -3.73 v -3.56 c 0.364,-0.062 0.733,-0.094 1.108,-0.094 C -0.874,-1.811 0,-1.207 0,0 m -0.405,4.902 c 0,1.124 -0.724,1.687 -2.17,1.687 -0.375,0 -0.76,-0.042 -1.155,-0.125 V 3.17 h 1.155 c 1.446,0 2.17,0.577 2.17,1.732 m 1.982,-4.964 c 0,-1.125 -0.447,-1.941 -1.343,-2.451 -0.717,-0.417 -1.68,-0.625 -2.887,-0.625 -0.885,0 -1.744,0.089 -2.576,0.266 V 7.604 c 0.905,0.187 1.763,0.281 2.576,0.281 2.549,0 3.824,-0.985 3.824,-2.951 C 1.171,4.393 1.021,3.911 0.719,3.489 0.417,3.068 0.011,2.769 -0.499,2.592 V 2.561 C 0.156,2.404 0.666,2.098 1.031,1.64 1.395,1.182 1.577,0.614 1.577,-0.062" /></g><path
           id="path174"
           style="fill:#231f20;fill-opacity:1;fill-rule:nonzero;stroke:none"
           d="m 268.896,17.854 h -1.499 v 10.679 h 1.499 z" /></g></g><g
       id="g176"><g
         clip-path="url(#clipPath182)"
         id="g178"><g
           id="g184"><g
             id="g186"><path
               id="path194"
               style="fill:url(#radialGradient192);stroke:none"
               d="m 28.605,60.235 c 0,-9.505 7.698,-17.2 17.2,-17.2 v 0 c 9.5,0 17.193,7.695 17.193,17.2 v 0 c 0,9.5 -7.693,17.196 -17.188,17.196 v 0 c -9.507,0 -17.205,-7.696 -17.205,-17.196" /></g></g></g></g><g
       id="g196"><g
         clip-path="url(#clipPath202)"
         id="g198"><g
           transform="translate(39.8501,35.9736)"
           id="g204"><path
             id="path206"
             style="fill:#fdb924;fill-opacity:1;fill-rule:nonzero;stroke:none"
             d="M 0,0 C 0.061,0 0.12,0 0.176,0.005 -0.655,-0.479 -1.428,-1.066 -2.149,-1.771 -3.007,-2.646 -3.697,-3.608 -4.233,-4.643 -12.497,-1.734 -19.16,4.585 -22.488,12.638 -17.858,5.069 -9.509,0 0,0" /></g><g
           transform="translate(65.8574,61.4614)"
           id="g208"><path
             id="path210"
             style="fill:#fdb924;fill-opacity:1;fill-rule:nonzero;stroke:none"
             d="m 0,0 c 0.698,-2.213 1.083,-4.553 1.083,-6.996 0,-9.011 -5.164,-16.815 -12.681,-20.663 -0.122,0.136 -0.233,0.273 -0.347,0.4 -1.647,1.649 -3.684,2.687 -5.801,3.115 6.7,2.236 12.197,7.09 15.298,13.348 1.591,2.879 2.5,6.187 2.5,9.706 C 0.052,-0.719 0.019,-0.366 0,0" /></g><g
           transform="translate(51.9058,20.0039)"
           id="g212"><path
             id="path214"
             style="fill:#fdb924;fill-opacity:1;fill-rule:nonzero;stroke:none"
             d="m 0,0 c -3.366,-3.378 -8.818,-3.378 -12.204,0 -2.839,2.843 -3.276,7.184 -1.308,10.496 0.359,0.602 0.796,1.184 1.308,1.701 3.386,3.368 8.838,3.368 12.204,0 C 0.526,11.68 0.949,11.098 1.311,10.496 3.284,7.184 2.852,2.843 0,0" /></g><g
           transform="translate(70.1069,54.3013)"
           id="g216"><path
             id="path218"
             style="fill:#0096d7;fill-opacity:1;fill-rule:nonzero;stroke:none"
             d="M 0,0 C 0,0.052 0,0.118 -0.009,0.174 0.477,-0.658 1.06,-1.437 1.759,-2.147 2.633,-3.006 3.604,-3.703 4.635,-4.238 1.724,-12.502 -4.595,-19.16 -12.647,-22.486 -5.074,-17.853 0,-9.509 0,0" /></g><g
           transform="translate(44.6094,80.3062)"
           id="g220"><path
             id="path222"
             style="fill:#0096d7;fill-opacity:1;fill-rule:nonzero;stroke:none"
             d="m 0,0 c 2.213,0.695 4.567,1.081 7.003,1.081 9.004,0 16.812,-5.164 20.651,-12.676 -0.129,-0.118 -0.268,-0.231 -0.397,-0.357 -1.647,-1.645 -2.683,-3.67 -3.112,-5.798 -2.237,6.7 -7.092,12.192 -13.348,15.302 C 7.921,-0.86 4.614,0.052 1.09,0.052 0.719,0.052 0.367,0.019 0,0" /></g><g
           transform="translate(86.0718,66.3569)"
           id="g224"><path
             id="path226"
             style="fill:#0096d7;fill-opacity:1;fill-rule:nonzero;stroke:none"
             d="m 0,0 c 3.378,-3.374 3.378,-8.823 0,-12.197 -2.845,-2.846 -7.184,-3.284 -10.496,-1.315 -0.599,0.362 -1.191,0.794 -1.708,1.315 -3.366,3.374 -3.366,8.823 0,12.197 0.517,0.526 1.109,0.949 1.708,1.316 C -7.184,3.279 -2.845,2.852 0,0" /></g><g
           transform="translate(21.5034,66.1831)"
           id="g228"><path
             id="path230"
             style="fill:#d31145;fill-opacity:1;fill-rule:nonzero;stroke:none"
             d="M 0,0 C 0,-0.056 0,-0.117 0.009,-0.174 -0.479,0.653 -1.06,1.438 -1.771,2.147 -2.643,3.012 -3.601,3.702 -4.64,4.238 -1.734,12.502 4.59,19.155 12.647,22.491 5.072,17.854 0,9.514 0,0" /></g><g
           transform="translate(46.9893,40.1787)"
           id="g232"><path
             id="path234"
             style="fill:#d31145;fill-opacity:1;fill-rule:nonzero;stroke:none"
             d="m 0,0 c -2.204,-0.7 -4.555,-1.086 -6.991,-1.086 -9.011,0 -16.811,5.173 -20.658,12.681 0.129,0.122 0.265,0.225 0.392,0.347 1.647,1.654 2.695,3.684 3.117,5.808 2.234,-6.705 7.095,-12.197 13.348,-15.298 2.877,-1.593 6.19,-2.504 9.704,-2.504 0.374,0 0.729,0.028 1.088,0.052" /></g><g
           transform="translate(5.5317,54.1274)"
           id="g236"><path
             id="path238"
             style="fill:#d31145;fill-opacity:1;fill-rule:nonzero;stroke:none"
             d="m 0,0 c -3.375,3.364 -3.375,8.828 0,12.202 2.845,2.842 7.19,3.278 10.498,1.315 0.604,-0.367 1.189,-0.799 1.701,-1.315 C 15.565,8.828 15.565,3.364 12.199,0 11.687,-0.521 11.102,-0.954 10.498,-1.311 7.19,-3.284 2.845,-2.852 0,0" /></g><g
           transform="translate(51.6665,84.4971)"
           id="g240"><path
             id="path242"
             style="fill:#00a389;fill-opacity:1;fill-rule:nonzero;stroke:none"
             d="M 0,0 C -0.062,0 -0.12,0 -0.179,-0.005 0.646,0.479 1.428,1.066 2.149,1.771 3.007,2.636 3.7,3.604 4.224,4.642 12.5,1.738 19.159,-4.586 22.479,-12.643 17.849,-5.074 9.507,0 0,0" /></g><g
           transform="translate(25.6543,59.0039)"
           id="g244"><path
             id="path246"
             style="fill:#00a389;fill-opacity:1;fill-rule:nonzero;stroke:none"
             d="m 0,0 c -0.69,2.213 -1.081,4.567 -1.081,7.005 0,9.012 5.162,16.811 12.674,20.654 0.122,-0.132 0.233,-0.268 0.362,-0.395 1.642,-1.649 3.671,-2.692 5.802,-3.115 C 11.05,21.913 5.558,17.05 2.455,10.792 0.862,7.921 -0.054,4.614 -0.054,1.09 -0.054,0.719 -0.016,0.372 0,0" /></g><g
           transform="translate(39.6011,100.4663)"
           id="g248"><path
             id="path250"
             style="fill:#00a389;fill-opacity:1;fill-rule:nonzero;stroke:none"
             d="m 0,0 c 3.378,3.378 8.837,3.378 12.204,0 2.852,-2.842 3.284,-7.184 1.313,-10.496 -0.362,-0.606 -0.792,-1.184 -1.313,-1.7 -3.367,-3.369 -8.826,-3.369 -12.204,0 -0.526,0.516 -0.942,1.094 -1.311,1.7 C -3.275,-7.184 -2.845,-2.842 0,0" /></g></g></g></g></svg>