<?xml version="1.0" encoding="utf-8"?>
<!-- Generator: Adobe Illustrator 18.0.0, SVG Export Plug-In . SVG Version: 6.00 Build 0)  -->
<!DOCTYPE svg PUBLIC "-//W3C//DTD SVG 1.1//EN" "http://www.w3.org/Graphics/SVG/1.1/DTD/svg11.dtd">
<svg version="1.1" id="Layer_1" xmlns="http://www.w3.org/2000/svg" xmlns:xlink="http://www.w3.org/1999/xlink" x="0px" y="0px"
	 viewBox="0 0 2924.8 682.2" enable-background="new 0 0 2924.8 682.2" xml:space="preserve">
<g>
	<path fill="#337AB7" d="M919.1,9.5v560.9H756.4V9.5H919.1z"/>
	<path fill="#337AB7" d="M1235.9,267.5h230.9v302.8h-51.8l-17.7-38.6c-45.2,32-93,48.1-143.4,48.1c-83,0-147.4-24.9-193.3-74.6
		c-45.9-49.7-68.8-119.8-68.8-210.2c0-87.9,24.3-159.1,72.9-213.5C1113.4,27.2,1177,0,1255.6,0c103.5,0,166.5,52.9,189,158.6
		l-76.4,34.9V180l-1.2-30.4c-5.2-66-35.7-99-91.6-99c-41.1,0-69.2,17.5-84.2,52.6c-15.1,35.1-22.6,100.4-22.6,196
		c0,89.3,6.1,150,18.3,182c12.2,32,35.4,48.1,69.6,48.1c40.3,0,60.4-22.5,60.4-67.4V323.8h-80.9V267.5z"/>
	<path fill="#337AB7" d="M1912.7,9.5v56.3h-203.4v187h172.6V309h-172.6v261.3h-162.7V9.5H1912.7z"/>
	<path fill="#337AB7" d="M2399.2,9.5L2259,186.5l206.7,383.8h-181.2L2153,324.6l-23.4,26.3v219.4h-162.7V9.5h162.7v249.8L2322.7,9.5
		H2399.2z"/>
</g>
<g>
	<path fill-rule="evenodd" clip-rule="evenodd" d="M2398.3,8.9c2.9,0,5.9,0,8.8,0c30.1,15.8,61.4,25.8,93.3,40.6
		c11.7,5.4,21,12.4,30.7,19.8c9.1,6.9,17.3,16.8,27.4,23.1c12,7.5,27.6,9,35.1,22c25.1,7.1,36.1,28.3,63.7,32.9
		c-4.5-10.9-24.4-15.8-35.1-24.1c-1.1-8.5,4.4-10.2,4.4-17.6c-18.5-8.5-12.6-32,1.1-41.7c17.3-2.5,24.6,9,20.9,24.1
		c11.7,9.5,25.9,13.3,41.7,20.9c6.7,3.2,14.2,8,20.9,9.9c26.2,7.5,62.4-6.7,97.7-2.2c8.9,1.1,17.2,10.2,25.2,15.4
		c2.1-5.6,2-16-3.3-17.6c6.1-11.1,18.6-25.9,11-40.6c23.1-21.2,73.4-5.6,81.2,16.5c6.8,18.9-7,35.3-15.4,48.3
		c1.3,11.9-3.9,17.4-8.8,23.1c5.1,5.7-0.8,11.1-1.1,16.5c-1.2,24.5,18.6,47.8,2.2,68.1c-4.8,5.9-12.4,10.3-18.7,15.4
		c-5.3,4.3-13.3,12.8-18.7,15.4c-11.8,5.6-33.7,4.1-48.3-1.1c-2-6.1-1.9-14.2-4.4-19.8c-7.3,5.6-17,4.9-27.4,7.7
		c-8.6,2.3-15.9,9.2-24.1,7.7c-5.6-1-7.6-7.3-13.2-13.2c-8.4-8.8-15.1-12.2-20.9-25.2c-10.1-22.8-18.3-52.8-28.5-68.1
		c-11.5,17.3-3.7,44.8,6.6,60.4c-17.5,34.8-19.1,85.6-26.3,130.6c10.3-2.6,9.1-16,11-24.1c5.9-26.3,15.6-56.2,23.1-82.3
		c36.5,23.5,9.2,85.7,12.1,132.8c-1.8,5.4,3.8,3.5,3.3,7.7c-0.5,29.2-5.3,57-9.9,82.3c-2.7,14.7-1.9,29.8-3.3,42.8
		c-0.5,5-3.4,9.1-2.2,14.3c1.3,5.5,24.4,26.7,30.7,29.6c7.3,3.3,17,0.3,18.7,7.7c1,3.5-2.8,2.3-3.3,4.4c-11.3,0-22.7,0-34,0
		c-7.1-12.8-28.8,1.5-37.3-8.8c-1.5-12.1,5.2-27.7,1.1-42.8c-16-4.5-33-8-46.1-15.4c2.1-49.8,11.7-92.2,19.8-136.1
		c-9.8-52.5-10.4-103.7-40.6-139.4c-13.9-16.4-32.9-26.3-50.5-41.7c-6.8-5.9-14.8-14.8-23.1-23.1c-7.3-7.3-16.1-20.8-23.1-24.1
		c-8.2-4-18.7-2.5-26.3-5.5c-11.6-4.6-18.3-16.1-29.6-22c-9.1-4.7-20.8-4.2-29.6-11c-0.2-15.9,6-25.5,4.4-42.8
		c-5.6-5.4-9.9-12-19.8-13.2c-8.2,2-3.9,16.6-11,19.8c-7.1-6-10.6-17.9-7.7-30.7C2398.6,27.7,2392,16.4,2398.3,8.9z"/>
	<path fill="#FFFFFF" d="M2758.2,573.5h-37.5l-0.7-1.3c-1.7-3.1-4.6-4.4-9.8-4.4c-2.2,0-4.5,0.2-7,0.5c-2.5,0.2-5,0.5-7.4,0.5
		c-3.8,0-9.2-0.5-12.8-4.9l-0.5-0.6l-0.1-0.7c-0.7-5.4,0.2-11.2,1-17.4c1.1-7.8,2.3-15.8,0.5-23.7c-2.7-0.7-5.3-1.4-8-2.1
		c-13-3.4-26.4-7-37.3-13.1l-1.3-0.8l0.1-1.5c1.8-41.5,8.8-78.3,15.6-114c1.4-7.2,2.8-14.6,4.1-22c-2.1-11.4-3.8-22.9-5.5-33.9
		c-5.9-39.4-11.4-76.6-34.5-103.9c-8.3-9.8-18.5-17.3-29.3-25.1c-6.9-5-14-10.2-21-16.3c-4.5-4-9.6-9.2-14.9-14.7
		c-2.7-2.8-5.5-5.7-8.3-8.5c-2.7-2.7-5.4-6-8.3-9.6c-4.9-6-10-12.2-14-14.1c-4.1-2-9-2.5-13.7-3c-4.2-0.5-8.6-0.9-12.4-2.4
		c-6.7-2.6-11.7-7.3-16.6-11.9c-4.1-3.8-8.2-7.6-13.2-10.2c-3.6-1.8-7.6-2.8-11.9-3.9c-6.2-1.5-12.6-3.1-18.1-7.3l-1-0.7l0-1.2
		c-0.1-7.5,1.2-13.6,2.4-19.5c1.4-6.9,2.8-13.5,2.1-22.2c-0.8-0.8-1.7-1.7-2.4-2.5c-4.1-4.3-7.9-8.3-14.7-9.3
		c-2.3,0.8-2.9,3.6-3.8,8c-0.8,4.5-1.8,9.5-6.4,11.5l-1.4,0.6l-1.2-1c-8-6.8-11.3-19.3-8.7-32.2c-3.6-5.7-11.1-18.6-3.6-27.3
		l0.7-0.9h10.6l0.5,0.3c17.3,9.1,34.7,16.1,53.1,23.6c13.1,5.3,26.6,10.7,40,17c12.2,5.7,21.8,13,31.2,20c3.9,2.9,7.7,6.4,11.3,9.8
		c5,4.7,10.3,9.5,16,13.1c3.8,2.4,8.2,4.2,12.4,6c8.6,3.6,17.5,7.3,23,16c11.5,3.4,20.2,9.8,28.6,15.9c8.5,6.2,16.7,12.2,27.6,15.3
		c-3.9-3.7-10-6.7-16-9.7c-5.2-2.6-10.6-5.3-14.8-8.5l-0.8-0.6l-0.1-1c-0.7-5.4,0.9-8.6,2.4-11.4c0.9-1.6,1.6-3.1,1.9-5
		c-6.7-3.6-10.8-9.6-11.4-17c-0.9-10.2,4.7-21.8,13.7-28.2l0.5-0.3l0.6-0.1c9.1-1.3,16.4,1,20.7,6.4c3.7,4.7,4.9,11.5,3.3,19.2
		c7.4,5.7,15.7,9.1,25.3,13.1c4.7,2,9.6,4,14.7,6.5c2.1,1,4.4,2.2,6.6,3.4c4.7,2.5,9.6,5.1,13.9,6.3c5,1.4,10.8,2.1,17.6,2.1
		c9.1,0,18.9-1.2,29.2-2.5c11.4-1.4,23.1-2.9,35-2.9c5.5,0,10.6,0.3,15.5,0.9c6.9,0.9,13,5.7,19,10.4c1.5,1.2,3,2.3,4.4,3.4
		c0.5-3.2,0.4-7-0.8-9.3c-0.7-1.4-1.5-1.7-1.7-1.7l-3-0.9l1.5-2.7c1.1-2,2.3-4,3.6-6.1c6.1-10,13-21.2,7.3-32.1l-0.9-1.7l1.4-1.3
		c7.6-7,18.5-10.7,31.3-10.7c23.8,0,48.5,12.9,53.9,28.2c6.4,17.9-4.1,33.3-12.5,45.8c-0.9,1.4-1.8,2.7-2.7,4
		c1,11.3-3.7,17.4-8.2,22.6c2.6,4.4,0.9,8.6-0.4,11.9c-0.7,1.7-1.3,3.2-1.4,4.6c-0.4,8.8,2,17.7,4.4,26.2
		c4.1,14.6,8.3,29.7-2.8,43.3c-3.5,4.3-8.4,7.9-13.2,11.4c-2,1.4-4,2.9-5.9,4.4c-1.8,1.4-3.8,3.3-6.1,5.4
		c-4.5,4.2-9.2,8.5-13.1,10.3c-5.2,2.5-12.5,3.8-21,3.8c-9.9,0-20.5-1.8-29.2-4.8l-1.2-0.4l-0.4-1.2c-0.9-2.9-1.4-6.1-1.9-9.2
		c-0.4-2.6-0.8-5.2-1.4-7.5c-4.7,2.6-10.1,3.5-15.6,4.4c-3.2,0.5-6.5,1-9.9,1.9c-3,0.8-5.9,2.2-8.7,3.6c-4.3,2.1-8.8,4.3-13.7,4.3
		c-0.9,0-1.9-0.1-2.8-0.3c-4.6-0.8-7.2-4.4-9.9-8.2c-1.4-1.9-2.8-3.8-4.6-5.7c-2.2-2.3-4.3-4.2-6.3-6.1c-5.7-5.3-10.7-9.9-15.1-19.9
		c-3.8-8.7-7.4-18.4-10.9-27.9c-5.1-13.9-9.9-27.1-15.3-36.3c-7.4,15.6-1.5,38.9,8.6,54.1l0.8,1.2l-0.7,1.3
		c-12.7,25.2-17,59.9-21.2,93.4c-1.3,10.4-2.6,21.1-4.2,31.5c2.7-2.8,3.5-7.7,4.3-13.8c0.3-2.2,0.5-4.4,1-6.3
		c4.2-18.8,10.3-39.3,16.2-59.1c2.4-8.2,4.7-15.9,6.9-23.4l0.9-3.2l2.8,1.8c25.9,16.7,21.2,52.2,16.7,86.4
		c-2.2,16.4-4.4,33.3-3.5,48.4l0,0.5l-0.2,0.5c-0.3,0.9-0.2,1.2-0.2,1.2c0,0,0.4,0.3,0.7,0.4c1.1,0.7,3.3,2.1,3,5.5
		c-0.6,29.3-5.2,56.9-9.9,82.6c-1.6,8.7-1.9,17.6-2.3,26.2c-0.2,5.8-0.4,11.2-1,16.4c-0.2,2.1-0.8,3.9-1.3,5.7
		c-0.8,2.7-1.5,5.1-0.9,7.7c1,4.1,22.9,25,29.3,27.9c2.3,1.1,5.1,1.4,7.8,1.7c5.1,0.6,10.8,1.3,12.3,7.6c1.1,4.2-2.1,5.4-3.1,5.8
		c-0.1,0-0.2,0.1-0.3,0.1L2758.2,573.5L2758.2,573.5z M2723.5,568.5h31.3c0.7-0.7,1.6-1.1,2.2-1.3c0,0,0,0,0.1,0l0,0
		c-0.6-2.7-2.7-3.2-8-3.8c-2.9-0.4-6.2-0.8-9.3-2.1c-6.7-3.1-30.6-24.8-32.1-31.3c-0.9-3.9,0.1-7.3,1-10.3c0.5-1.6,1-3.2,1.1-4.8
		c0.5-5.1,0.8-10.4,1-16.1c0.3-8.8,0.7-17.8,2.3-26.9c4.7-25.6,9.3-53,9.8-81.9l0-0.3c0-0.2,0-0.3,0-0.3c0,0-0.4-0.3-0.7-0.4
		c-1.3-0.8-3.9-2.5-2.7-6.9c-0.9-15.4,1.4-32.4,3.6-48.9c4.3-32.8,8.5-63.8-11.7-79.6c-1.9,6.5-3.8,13.1-5.9,20
		c-5.9,19.7-11.9,40.2-16.1,58.8c-0.4,1.7-0.6,3.7-0.9,5.8c-1,7.9-2.2,17.7-11.9,20.2l-3.7,0.9l0.6-3.8c1.9-11.8,3.4-24.3,4.9-36.3
		c4.1-33.4,8.4-67.9,21-93.8c-11.2-17.8-17-45.1-5.8-61.9l2.1-3.1l2.1,3.1c6.6,9.7,12.1,24.9,18,40.9c3.4,9.4,7,19,10.8,27.6
		c4,9.1,8.4,13.1,13.9,18.2c2.1,1.9,4.2,3.9,6.5,6.3c2,2.2,3.6,4.3,5,6.3c2.6,3.6,4.3,5.7,6.8,6.2c0.6,0.1,1.3,0.2,1.9,0.2
		c3.7,0,7.5-1.9,11.5-3.8c3.1-1.5,6.2-3.1,9.7-4c3.6-1,7-1.5,10.4-2c6.3-1,11.8-1.9,16.2-5.2l2.5-1.9l1.3,2.9
		c1.5,3.4,2.2,7.5,2.8,11.5c0.4,2.6,0.8,5.1,1.4,7.3c7.8,2.6,17.5,4.1,26.3,4.1c7.8,0,14.3-1.1,18.9-3.3c3.2-1.5,7.8-5.8,11.9-9.5
		c2.3-2.1,4.4-4.1,6.3-5.6c1.9-1.6,4-3.1,6-4.5c4.5-3.3,9.1-6.6,12.2-10.5c9.5-11.6,5.9-24.2,1.9-38.8c-2.5-9-5.1-18.2-4.6-27.8
		c0.1-2.2,0.9-4.3,1.7-6.2c1.5-3.8,2.2-5.9,0-8.5l-1.5-1.6l2-2.3c4.7-5.4,8.8-10.1,7.6-20.5l-0.1-0.9l0.5-0.7c1-1.6,2.1-3.2,3.2-4.8
		c8.2-12.1,17.4-25.8,11.9-41.3c-4.7-13.2-27.7-24.9-49.2-24.9c-7.7,0-18.3,1.5-26.6,8.2c5.4,12.8-2.2,25.2-8.3,35.2
		c-0.8,1.3-1.6,2.6-2.3,3.8c0.8,0.7,1.5,1.7,2.1,2.8c2.3,4.7,1.8,12,0.1,16.5l-1.1,2.9l-2.6-1.7c-2.6-1.6-5.1-3.7-7.6-5.6
		c-5.4-4.3-11.1-8.7-16.6-9.4c-4.7-0.6-9.5-0.9-14.8-0.9c-11.6,0-23.2,1.4-34.4,2.8c-10.5,1.3-20.5,2.5-29.8,2.5
		c-7.3,0-13.5-0.8-19-2.3c-4.8-1.4-9.9-4.1-14.8-6.7c-2.2-1.2-4.4-2.3-6.4-3.3c-5-2.4-9.8-4.4-14.5-6.4c-10-4.2-19.5-8.1-27.7-14.8
		l-1.2-1l0.4-1.5c1.7-6.8,0.9-12.7-2.1-16.5c-3-3.9-8.4-5.5-15.4-4.6c-7.2,5.4-11.9,15.1-11.1,23.3c0.4,4.3,2.5,10.2,10.1,13.7
		l1.5,0.7v1.6c0,3.9-1.4,6.5-2.6,8.8c-1.2,2.3-2.2,4.2-2,7.4c3.7,2.7,8.5,5.1,13.1,7.4c9.2,4.6,18.8,9.4,21.9,17.1l1.7,4.2l-4.4-0.7
		c-15.4-2.6-25.9-10.2-36-17.6c-8.6-6.3-16.8-12.2-27.9-15.4l-1-0.3l-0.5-0.9c-4.6-7.9-12.6-11.2-21.1-14.8c-4.4-1.8-9-3.7-13.2-6.3
		c-6.1-3.8-11.5-8.8-16.7-13.7c-3.7-3.5-7.2-6.7-10.9-9.5c-9.1-6.9-18.6-14.1-30.3-19.5c-13.4-6.2-26.8-11.6-39.8-16.9
		c-18.4-7.4-35.7-14.4-53.1-23.5h-6.9c-3.7,5.7,0.8,14.4,5.3,21.4l0.6,0.9l-0.2,1c-2.4,10.4-0.2,20.9,5.5,26.9
		c1.2-1.5,1.8-4.2,2.3-6.9c0.9-4.7,2-10.6,7.9-12l0.4-0.1l0.4,0.1c8.9,1,13.8,6.2,18.2,10.8c1,1.1,2,2.1,3,3l0.7,0.6l0.1,0.9
		c0.9,9.9-0.6,17.3-2.1,24.6c-1.1,5.6-2.2,10.8-2.3,17.2c4.5,3.1,9.7,4.4,15.3,5.7c4.4,1.1,8.9,2.2,13,4.3c5.6,2.9,10,7,14.3,11
		c4.8,4.4,9.3,8.6,15.1,10.9c3.2,1.3,7,1.7,11.1,2.1c5.2,0.6,10.5,1.1,15.4,3.5c5,2.4,10.4,9,15.7,15.4c2.8,3.4,5.5,6.7,8,9.2
		c2.8,2.8,5.6,5.7,8.3,8.5c5.2,5.4,10.2,10.6,14.6,14.4c6.8,5.9,13.8,11.1,20.6,16c11,8.1,21.5,15.7,30.1,25.9
		c24,28.4,29.7,66.3,35.6,106.4c1.7,11.2,3.4,22.7,5.5,34.2l0.1,0.5l-0.1,0.5c-1.4,7.5-2.8,15.1-4.2,22.5
		c-6.7,35-13.6,71.2-15.4,111.7c10.1,5.4,22.6,8.7,34.7,11.9c3.2,0.8,6.3,1.7,9.5,2.5l1.4,0.4l0.4,1.4c2.5,9.3,1.2,18.8,0,27.1
		c-0.8,5.5-1.5,10.7-1.1,15.3c1.8,1.8,4.4,2.6,8.5,2.6c2.2,0,4.5-0.2,7-0.5c2.5-0.2,5-0.5,7.4-0.5
		C2714.2,562.7,2720,563.4,2723.5,568.5L2723.5,568.5z"/>
</g>
<g>
	<path fill-rule="evenodd" clip-rule="evenodd" d="M2682.4,254.9c8.4,7.7,9.5,32.5,0,39C2680,282.5,2681.9,266.7,2682.4,254.9z"/>
</g>
<text transform="matrix(1 0 0 1 756.4185 682.166)" font-family="'ArialMT'" font-size="94.7801">INTERNATIONAL GOLDEN FALCON KARATE-DO</text>
<g>
	<g>
		<path d="M667.2,81.8c-14.7,0-26.7-12-26.7-26.7s12-26.7,26.7-26.7s26.7,12,26.7,26.7S681.9,81.8,667.2,81.8L667.2,81.8z
			 M667.2,31.7c-12.9,0-23.4,10.5-23.4,23.4s10.5,23.4,23.4,23.4c12.9,0,23.4-10.5,23.4-23.4S680.1,31.7,667.2,31.7L667.2,31.7z"/>
	</g>
	<g>
		<path d="M658.7,38.6c2-0.4,4.7-0.6,7.4-0.6c4.1,0,6.8,0.8,8.6,2.4c1.5,1.3,2.3,3.4,2.3,5.7c0,3.9-2.5,6.6-5.6,7.6v0.1
			c2.3,0.8,3.7,2.9,4.4,6c1,4.2,1.7,7,2.3,8.2h-4c-0.5-0.8-1.2-3.4-2-7.1c-0.9-4.1-2.5-5.7-6-5.8h-3.6v12.9h-3.9V38.6z M662.5,52.3
			h3.9c4.1,0,6.7-2.3,6.7-5.7c0-3.9-2.8-5.5-6.9-5.6c-1.9,0-3.2,0.2-3.8,0.4V52.3z"/>
	</g>
</g>
<g>
	<path fill="#007DC5" d="M677,331.4c0,175.5-142.3,317.8-317.8,317.8c-175.5,0-317.8-142.3-317.8-317.8
		c0-175.5,142.3-317.8,317.8-317.8C534.7,13.5,677,155.8,677,331.4z M359.2,84.3c-136.5,0-247.1,110.6-247.1,247.1
		c0,136.5,110.6,247.1,247.1,247.1c136.5,0,247.1-110.6,247.1-247.1C606.2,194.9,495.6,84.3,359.2,84.3z"/>
	<g>
		<linearGradient id="SVGID_1_" gradientUnits="userSpaceOnUse" x1="312.2143" y1="163.7551" x2="412.6372" y2="163.7551">
			<stop  offset="0" style="stop-color:#C59329"/>
			<stop  offset="0.4909" style="stop-color:#E7C519"/>
			<stop  offset="1" style="stop-color:#C59329"/>
		</linearGradient>
		<path fill="url(#SVGID_1_)" d="M411.4,167.1c-2.5-2.7-6.7-4.2-5-6.9c1.7-2.7,6.3-8.1,4.1-12.7c-2.2-4.5-7-10.6-11-11
			c-4-0.4-10.5-2.3-14-5.7c-3.5-3.4-13.7-8.7-21.2-4.3c-6.3,3.5-8.3,1.7-13.3,1.6c-5-0.1-11.5-0.1-14.5,2.8c-3,3-3.1,3.4-6.6,3.5
			c-3.5,0.1-4.3,1.6-6.6,3.5c-2.3,1.9-8.1,2.8-9.6,7.4c-1.4,4.5-2.1,13.2-1.2,15.6c0.9,2.5,5,9.9,7.9,12c2.8,2.1,6.2,8.1,11.1,11.2
			c4.9,3.1,9.3,5.6,14.1,5.3c4.8-0.3,4.1-1,7.7-1.6c3.6-0.5,8.3-2,7.2-0.5c-2.6,2.3-4.3,13.6,2.3,13.4c6.6-0.1,8.8,0.1,9.9-0.5
			c1.2-0.6,2.2-1,3,0.5c0.8,1.5,12.1,2.1,13.9,1c1.8-1,6.1-3.5,6.8-5.6c0.8-2.1,5.2-5.9,6.5-7.2c1.3-1.3,3.7-3.1,3.5-4.6
			c-0.3-1.5,3.1-4.4,4.3-5.8C412.1,177.3,413.9,169.9,411.4,167.1z M363.4,179.8c-0.8-7.7-3.6-19.2-5-22c-1.4-2.7-7.1-4-5.7,4.4
			c1.4,8.4,2.8,12.9,3.6,14.7c0.8,1.8-1.2,7-4.5,1.8c-3.4-5.2-8.8-18.5-10.6-20.1c-1.8-1.7-10.5-3.2-6.3,4.3
			c4.1,7.5,9.7,15.9,9.2,17.6c-0.5,1.7-3.2,1-7-1.8c-3.7-2.8-14.8-14.1-16.3-19c-1.4-4.9,2.8-10.3,5.3-12.5
			c2.5-2.2,11.1-7.7,11.1-7.7s7.4-2.5,10.7-2.3c3.4,0.1,15.1-0.8,15.1-0.8s9.7-3.7,13.6-1.2c3.9,2.6,9.8,6.3,13.2,6.7
			c3.4,0.4,8.9,3.4,10.1,4.4c1.2,1,3.7,5.9,1.2,8.7c-2.6,2.7-12.9,18.2-15.8,22.9c0,0-2.6,2.8-4,4.4c-1.4,1.6-4.3,3-4.8-1.2
			c-0.5-4.1,0.9-9.2,1.4-11c0.5-1.8,2.9-7.1,2.9-10.7c0.1-3.6-8-10.1-9.2,0c-1.3,10.1-1.5,16.5-1.9,19.5
			C369.2,181.7,364.2,187.5,363.4,179.8z M401.7,180.1c-2.6,4-12.9,15.1-19.2,16.1c-9.7,1.5-8.7-2.3-11.2-5.6
			c-2.6-3.2,1.9-1.9,4-1.5c5,2.2,9.7-0.8,11.4-2.7c1.7-1.9,10.1-12.7,12.9-16.1c2.8-3.5,4.4-0.5,5.2,1.6
			C405.5,173.9,404.3,176.1,401.7,180.1z"/>
		<g>
			<linearGradient id="SVGID_2_" gradientUnits="userSpaceOnUse" x1="347.9799" y1="252.2697" x2="383.3223" y2="252.2697">
				<stop  offset="0" style="stop-color:#C59329"/>
				<stop  offset="0.4909" style="stop-color:#E7C519"/>
				<stop  offset="1" style="stop-color:#C59329"/>
			</linearGradient>
			<path fill="url(#SVGID_2_)" d="M361.8,224.8v4.1h7.8v-5.6h2.9c0.8,0.2,0.9,0.7,0.2,1.5v4.1h7.6v4.8h-7.6v5.3h10.7v4.8h-16v3.6
				h10.5v21.1h-6.4c3.1,3.4,6.8,5.6,11.2,6.6l-1.4,5.3c-5.1-1.2-9.1-3.9-12.2-8.1l1.7-3.8h-10.7l1.7,3.8c0.5,1,0.3,1.4-0.8,1.3
				c-2.5,2.7-6,5.3-10.5,7.6l-1.2-5.3c3.8-1.5,7.2-4,10.2-7.4h-6.2v-21.1h11v-3.6H348V239h10.7v-5.3h-7.6v-4.8h7.6v-5.6h2.9
				C362.4,223.4,362.5,223.9,361.8,224.8z M364.3,256.1v-4.6h-7.9v4.6H364.3z M364.3,260.2h-7.9v4.3h7.9V260.2z M369.5,239v-5.3
				h-7.8v5.3H369.5z M374.8,256.1v-4.6h-7.4v4.6H374.8z M374.8,264.5v-4.3h-7.4v4.3H374.8z"/>
			<linearGradient id="SVGID_3_" gradientUnits="userSpaceOnUse" x1="347.67" y1="333.1819" x2="383.4754" y2="333.1819">
				<stop  offset="0" style="stop-color:#C59329"/>
				<stop  offset="0.4909" style="stop-color:#E7C519"/>
				<stop  offset="1" style="stop-color:#C59329"/>
			</linearGradient>
			<path fill="url(#SVGID_3_)" d="M364.1,356.3v-16.5h-13V335h13v-6.6h-6v-3.6c-2.5,3.2-5.4,5.8-8.8,7.6l-1.6-5.6
				c8-4.2,13.4-11.5,16.3-21.6l3.9,0.8c0.5,0.2,0.5,0.7-0.2,1.5c3.5,8.1,8.8,14,15.8,17.6l-1.7,5.9c-3-1.7-5.8-4-8.4-6.9v4.3h-6.2
				v6.6h13.2v4.8h-13.2v16.5h14.4v4.8h-31.5v-4.8H364.1z M357.9,355.1c-1-3.9-2.1-7.2-3.1-9.9l3.1-2.5c1.1,2.7,2.2,5.9,3.1,9.7
				L357.9,355.1z M372.9,323.5c-2.4-2.4-4.8-6.6-7.3-12.7c-2.2,5.8-4.4,10-6.7,12.7H372.9z M370.5,352.8c0.9-3,1.8-6.8,2.6-11.2
				l2.9,1.5c1.3,0.5,1.4,1.1,0.3,1.8c-0.7,3.2-1.6,6.5-2.6,9.7L370.5,352.8z"/>
			<linearGradient id="SVGID_4_" gradientUnits="userSpaceOnUse" x1="349.2211" y1="409.3832" x2="381.9263" y2="409.3832">
				<stop  offset="0" style="stop-color:#C59329"/>
				<stop  offset="0.4909" style="stop-color:#E7C519"/>
				<stop  offset="1" style="stop-color:#C59329"/>
			</linearGradient>
			<path fill="url(#SVGID_4_)" d="M361,427.1c-1.3,2.2-2.7,3.3-4.2,3.3c-1.7,0-2.9-0.8-3.9-2.3c-2.5-4.1-3.7-9.2-3.7-15.3
				c0-7.5,1.6-13.8,4.8-19.1c3.5-5.8,7.8-8.7,12.9-8.7c4.5,0,8.1,2.1,10.7,6.4c2.9,4.8,4.3,10.4,4.3,16.8c0,7-1.3,12.6-4,17.1
				c-1.8,2.9-4.4,5.7-8.1,8.4l-3.3-5.3c3.6-1.9,6.5-4.5,8.5-7.9c2-3.2,2.9-7.1,2.9-11.7c0-5.4-1.1-9.9-3.3-13.5
				c-2.2-3.6-5.6-5.2-10.2-4.8l2.8,2.3c1.2,0.9,1.2,1.8,0,2.8C365.6,412.5,363.5,423,361,427.1z M356.8,397c-2.7,4.4-4,9.8-4,16.3
				c0,3.9,0.8,7.1,2.3,9.7c0.3,0.5,0.8,0.8,1.4,0.8c0.6,0,1.3-0.6,2-1.8c2.4-3.9,4.1-14.3,5.3-31.3
				C361.1,391.7,358.8,393.8,356.8,397z"/>
			<linearGradient id="SVGID_5_" gradientUnits="userSpaceOnUse" x1="347.5169" y1="487.3666" x2="383.1656" y2="487.3666">
				<stop  offset="0" style="stop-color:#C59329"/>
				<stop  offset="0.4909" style="stop-color:#E7C519"/>
				<stop  offset="1" style="stop-color:#C59329"/>
			</linearGradient>
			<path fill="url(#SVGID_5_)" d="M350,516.4l-2.5-4.1c2-4.8,2.9-10.2,2.9-16.3v-33.3h14.3v-5.1h2.9c0.8,0.2,0.9,0.7,0.2,1.5v3.6
				h14.7v4.1h-29v29.8C353.6,504.2,352.4,510.8,350,516.4z M360.2,472.9v14.3h-2.6v-8.7c-0.7,1.5-1.6,2.9-2.6,4.1l-1.2-3.6
				c2.3-2.7,4.2-6.4,5.7-11.2l2.2,1.5c0.4,0.7,0.3,1.1-0.5,1.3L360.2,472.9z M353.9,515.1c0.8-2,1.3-4.2,1.6-6.4l2.8,1.5
				c-0.2,2.4-0.7,4.7-1.6,6.9L353.9,515.1z M379.3,511l0.5-3.1h-21.7v-19.6h7.9l0.6-2.8h-2v-8.9c-0.6,1.2-1.4,2.4-2.3,3.6l-1.4-3.1
				c2-2.5,3.7-5.8,5.1-9.7l2,1.3c0.4,0.7,0.3,1.1-0.5,1.3l-0.6,1.5h4.7l1.2-4.1l2.2,1c0.4,0.7,0.2,1.1-0.5,1.3l-0.8,1.8h8.1v1.8
				h-7.6v2.3h6v1.8h-6v2.3h6v1.8h-6v2.3h8.5v1.8h-13.6l-0.6,2.8h9.1v10.2h-16.9v2.3h22.5v1.8h-22.5v2.3h22l-0.8,6.9
				c-0.4,3.2-1.3,4.8-2.6,4.8h-2.8l-0.5-4.1h1.7C378.7,512.6,379.2,512.1,379.3,511z M363.3,510c0.7,1.9,1.1,3.7,1.1,5.6l-3.1,1.3
				c-0.1-2.2-0.4-4.2-0.8-5.9L363.3,510z M360.7,492.7H375v-2.5h-14.3V492.7z M375,494.5h-14.3v2.3H375V494.5z M370.1,514.9
				l-2.9,1.3c-0.3-2.2-0.7-4-1.1-5.4l2.6-1.3C369.4,510.9,369.8,512.7,370.1,514.9z M371.5,473.4h-4.3v2.3h4.3V473.4z M371.5,479.7
				v-2.3h-4.3v2.3H371.5z M371.5,483.8v-2.3h-4.3v2.3H371.5z M375.6,513.8l-2.8,1.8c-0.4-2.2-0.8-4-1.2-5.3l2.5-1.5
				C374.7,510.5,375.3,512.1,375.6,513.8z"/>
		</g>
	</g>
	<g>
		<path fill="#007DC5" d="M245.6,471.4c-1.6,2.7-5.5,3.4-9.7,0.9c-4.1-2.5-10.7-12.2-4.1-17.2c6.6-5,14.3-9.7,17.2-10.4
			c2.9-0.7,6.4-1.1,14.7,4.1c8.2,5.2,17.2,15.7,12.9,23.4c-4.3,7.7-24.7,36.3-29.2,40.1c-4.5,3.8-10.6,0.5-18.4-4.7
			c-7.7-5.2-16.3-11.8-18.7-15.9c-2.3-4.1-4.1-6.3-5-8.2c-0.9-2-4.8-9.8-1.6-14.3c3.2-4.5,5.8-5.1,10.7-5.4c4.3-0.2,5.5,2.5,7.9,6.7
			c1.2,2,1.1,2.2,2.4,4.8c1.4,2.8,2.5,8.7,6.2,13.4c3.5,4.3,4.6,2.9,10.2-0.4c5.5-3.2,12.3-10,15.2-13.2c2.9-3.2,2.3-6.8,0.9-8.4
			C255.8,465.1,251.4,462.8,245.6,471.4z"/>
		<path fill="#007DC5" d="M191,353.7c0-1.7,0.6-5.2,3.9-5.4c3.3-0.2,10.1-2.3,13.6,5.4c3.5,7.8,2.1,13,2.9,17.6
			c0.8,4.7,3.1,11.2-12.4,14.3c-15.5,3.1-43.6,7.6-47.2,7.6c-3.6,0-7.3-3.7-7.3-8.5c0-4.9-0.5-10.3,7.3-11.1
			c7.8-0.8,27.4-0.8,32.5-1.2c5-0.4,7.9-2.1,7.4-8.7C191.1,357.2,191,353.7,191,353.7z"/>
		<path fill="#007DC5" d="M527.4,319.7c0.1,1.8,1.5,5.9-1.8,7.2c-3.1,1.2-11.2,5-13.8-6.5c-1.9-8.3-2.7-13-3.7-17.6
			c-1-4.6-3.6-11.2,11.8-15c15.4-3.8,43.5-9.2,47.1-9.6c5.4-0.7,6.7,3.5,7.7,8.3c1.1,5.3,0.7,9-7.1,10.1c-7.8,1.1-27.2,3.3-32.3,3.9
			c-5,0.6-10.8,2.7-10,9.3C526.1,316.4,527.4,319.7,527.4,319.7z"/>
		<path fill="#007DC5" d="M140.1,322.4c-0.3-3.2,0.1-10.5,1.6-27.2c1.5-16.7,17.3-14.5,28-11.4c10.7,3.1,28.1,15.2,34.3,19.8
			c6.2,4.5,3.4,26.1,2.4,29c-1,2.9-10.4,2-14.4,2.2c-4,0.2-43.6-1.6-43.6-1.6C140.9,332.1,140.3,325.7,140.1,322.4z M157.5,320.5
			c1.9,0,27.7,1.9,30.3,2.5c4,0.9,6.4-11.8-1.3-14.8c-7.8-3-20.4-6.6-23.4-6.4C160,301.9,155.4,308.2,157.5,320.5z"/>
		<path fill="#007DC5" d="M223.6,239.9c0,0,3.6,2.7,5.8,4.6c2.2,1.9,2.7,5.2-0.6,9.7c-3.3,4.6-14.1,21-15.9,23.4
			c-1.7,2.4-8.2,1.9-17.4-1.7c-9.3-3.6-33.8-13.7-37.5-16c-3.8-2.4-3.9-9.9-1.9-13.8c2-3.9,12.7-23.6,15.2-26.8
			c2.5-3.3,3.8-3.8,7.9-2.2c4.1,1.6,6.1,3.9,7.2,4.6c1.1,0.6,2.7,2.2-0.2,5.5c-2.8,3.3-7.9,8.2-10.5,11.3c-2.7,3.1-5.3,8.8-2.4,10.7
			c3,1.9,8.5,6.1,12.8,2.6c4.2-3.5,5.7-8,7.6-12.7c1.7-4.2,2-10.6,6.8-9c4.9,1.6,7.4,4.2,5,9.8c-2.2,4.9-4.9,11.6-6,14.2
			c-1.1,2.5,1.4,4.8,3.7,5.7c2.4,0.9,5.8,0.5,7.9-3.4c2-3.9,3.3-7.7,4.7-11C218.2,239.8,220.3,236.8,223.6,239.9z"/>
		<path fill="#007DC5" d="M246.5,220.8c1.4,1.2,3.4,4.6,2.5,6.4c-0.9,1.5-2.8,3.9-6.6,3.4c-1.9-0.3-8.1-2.3-14.2-6.5
			c-10.9-7.4-27.9-20.2-31.2-23.2c-3.4-3-4.3-12.8,1.7-17.9c5.5-4.7,9.2-5.1,15.2-3.2c6,1.9,14.9,6.3,17.7,7.1
			c2.8,0.8,10.7,0.7,8.5-5.2c-1.6-4.2-9.1-12.4-10.8-14.8c-1.7-2.3-3.8-8-0.7-11.4c3.1-3.4,5.7-8.9,13.7-3.1
			c7.2,5.3,19.2,33.1,22.7,38.3c3.5,5.2,6.5,14.5,4.3,17.6c-2.2,3.1-2.5,6-11.9,0.8c-7.4-4-8.5-3.8-13.4-5.1
			c-4.5-1.2-12.4,0.2-6.9,6.1C243.9,217.2,246.5,220.8,246.5,220.8z"/>
		<path fill="#007DC5" d="M478,435.5c-1.5-1.1-3.7-4.4-3-6.3c0.8-1.5,2.6-4.1,6.4-3.8c1.9,0.1,8.3,1.9,14.8,5.7
			c11.5,6.8,29.5,18.7,33.1,21.5c3.6,2.8,5.2,12.7-0.6,18.3c-5.3,5.1-9,5.7-15.2,4.2c-6.3-1.6-15.5-5.4-18.4-6.1
			c-2.9-0.6-10.9,0-8.3,5.8c1.9,4.2,10,12,11.9,14.3c1.8,2.2,4.3,7.9,1.4,11.5c-2.9,3.6-5.3,9.4-13.7,4
			c-7.6-4.9-21.5-32.4-25.4-37.4c-3.8-5-7.5-14.3-5.5-17.6c2-3.3,2.2-6.2,12.1-1.6c7.7,3.6,8.9,3.3,13.9,4.3c4.6,1,12.6-1,6.6-6.6
			C480.8,439,478,435.5,478,435.5z"/>
		<path fill="#007DC5" d="M497.4,393c3.6-6.4,8.5-8.3,12.9-8.3c4.4,0,17.4,0.2,37,6.3c19.5,6.1,15.7,26.2,11.6,35.6
			c-4.2,9.5-15.9,12.2-25,10.4c-7.5-1.5-28.8-14.2-32.1-16.1C488.5,412.3,493.8,399.4,497.4,393z M513,411.4
			c3.7,3.6,10.3,7.9,18.5,10.4c8.3,2.4,12.6,0.6,14.4-3.4c1.9-4-2.4-10.9-7.4-14.2c-5.1-3.3-14.9-5.4-18.5-6
			C507.6,397.2,509.2,407.8,513,411.4z"/>
		<path fill="#007DC5" d="M232,417.8c1.6,7.1-0.9,11.7-4.1,14.6c-3.2,2.8-13,11.2-31.4,19.5c-18.4,8.3-28.7-9.1-31.8-18.8
			c-3.1-9.7,3.8-19.4,11.7-24c6.5-3.8,30.6-8.3,34.2-9C225.9,397.8,230.4,410.7,232,417.8z M208.4,414.4c-5.1-0.3-12.8,0.9-20.4,4.4
			c-7.7,3.6-9.7,7.8-8.4,11.9c1.2,4.1,8.8,6.5,14.7,5.6c5.9-0.9,14.5-5.7,17.6-7.7C221.6,421.4,213.5,414.6,208.4,414.4z"/>
		<path fill="#007DC5" d="M549.7,367.7c-1.5-0.2-6.1-0.1-6,3.1c0.1,3.2-1.9,9.4,9,10.6c11,1.2,22.2,0.6,23.5-9.7
			c1.4-10.3,5.8-30.9-15.9-33.7c-16.1-0.5-35.4-1.1-38.5-1.1c-3.1,0-12.1,1.4-12.3,10.9c-0.2,9.5,0,17.2,0,19.9
			c0,2.7,1.5,6.7,7.9,7.1c6.4,0.4,14.1,0.5,15.9,0.6c2.5,0.1,3.1-9-1.1-10c-4.2-1-6.7-1-7.1-4.1c-0.4-3.1-0.7-9.7,11-8.8
			c11.7,1,18,0.7,19.9,1.3c1.9,0.6,5.5,3.7,5.5,6.9c0,3.2-1.4,7.6-3.8,9c-2.4,1.4-6.9,1.2-6.9-0.4
			C550.8,367.7,550.5,367.7,549.7,367.7z"/>
		<path fill="#007DC5" d="M496.4,228.4c7.2-2.7,36.3-10.5,41.3-11.4c4.9-0.8,11.5,0.7,15.2,8.7c3.7,8.1-0.2,13.4-4.3,18.5
			c-4.1,5.1-27.2,24.8-32.1,30.3c-4.9,5.4-12.1,7.6-15.2,2.6c-3-5-3.3-8.6-0.8-11.5c2.5-2.9,4.4-5.8,2.8-11.2
			c-1.6-5.3-3-7.3-6.8-6.2c-3.8,1-9.3,3.1-12-3.3c-2.7-6.4-1.4-12.1,3.3-13.7C492.5,229.6,496.4,228.4,496.4,228.4z M514.1,236.8
			c-4.4,2.8-5.5,7.2-3.8,11c1.7,3.8,4.9,5.8,9.3,3.7c3.7-1.8,6.5-5.9,9.5-11.1c0.5-0.9,0.9-2,1.4-2.9c3.7-6.5-4.4-6-8.6-4.5
			C521.9,232.9,518.5,234,514.1,236.8z"/>
		<path fill="#007DC5" d="M461,211.3c2.4-3.5,25.6-40.7,29-43.8c3.4-3.1,8.6-7.4,17.2,0.3c8.6,7.7,15.1,15.7,18.4,18.7
			c6.9,6.2,4.5,11.9,1.6,14.9c-3.9,4.2-8.5,2.1-10.9-1.2c-2.4-3.4-3.8-6-5.4-8.1c-1.5-2-5.5-6-8.2-6.2c-2.7-0.2-7.8,3.1-7.5,6.9
			c0.3,3.8,1.9,4.7,3.3,6c1.4,1.3,10.2,8.2,7.7,12.6c-2.8,4.7-8,8.4-13,2c-3.9-5-7.8-11-9.4-9.1c-1.6,1.9-7.2,14-9.6,16.8
			c-3.5,4-5.4,3.2-8.5,1.7C462.7,221.3,456.1,217.2,461,211.3z"/>
		<path fill="#007DC5" d="M251,328.8c1.5-0.5,17.6-9.2,19.1-10.8c1.5-1.7,2.9-6.5-4.7-3.3c-7.6,3.2-16.2,8-17.3,8.2
			c-1.1,0.1-3.7,2.2-4.6-3.3c-0.9-5.5-4.7-12.3-5.1-4.9c-0.4,7.4,1.6,10.9-0.9,11.6c-1.7,0.5-5.4,1.3-8.2,2.9
			c-0.3,0.2-1.7,2.2-0.1,3.4c1.2,0.9,5.1,0.7,6.8,1.9c1.5,1.1,1,3.6,0.9,5.1c-0.2,4.6-0.1,7.9,0.1,10.6c0.2,2.7,4.8,7.3,5.2,1.4
			c0.4-5.9-0.4-14.4,6.5-7.8c6.8,6.6,9.6,10.3,11.1,11.5c1.5,1.1,8.7,0.1,3.4-5.4c-5.3-5.5-11.8-10.8-13.9-14.2
			C247.2,332.4,247,330.8,251,328.8z"/>
		<path fill="#007DC5" d="M288.1,316.1c1.2-6,5.4-5.6,7.1-0.8c2.1,6.1,5,10.8,7.5,15.8c2.8,5.5,4.6,10.6,5.6,12.2
			c1.1,1.6,5.1,7.2,3.8,9.2c-1.3,2-3.2,3-7.5-1.8c-2.9-3.3-6.9-5.3-9.5-5.5c-2.6-0.2-6-0.2-8.4,2.9c-1.6,2.1-4.7,5.2-5.2,6.4
			c-0.6,1.3-9,2.4-5.3-5c3.7-7.4,5.1-11.7,5.8-14.3c0.8-2.6,4-10.1,4.4-13.3C286.7,318.8,288.1,316.1,288.1,316.1z M288.3,336.9
			c-0.1,4,4.7,4.7,6.1,4.5c1.5-0.2,4.6-2.7,4.4-5.5c-0.6-6.6-5.3-8.1-5.3-8.1C288.1,328,288.3,332.9,288.3,336.9z"/>
		<path fill="#007DC5" d="M397.6,315.9c1.2-6.1,5.4-5.7,7.1-0.8c2.1,6.1,5,10.9,7.5,16c2.8,5.5,4.6,10.8,5.6,12.4
			c1.1,1.6,5.1,7.3,3.8,9.4c-1.3,2.1-3.2,3-7.5-1.8c-2.9-3.3-6.9-5.3-9.5-5.6c-2.6-0.2-6-0.2-8.4,2.9c-1.6,2.1-4.7,5.2-5.2,6.5
			c-0.6,1.3-9,2.4-5.3-5.1c3.7-7.5,5.1-11.9,5.8-14.5c0.8-2.6,4-10.2,4.4-13.5C396.2,318.6,397.6,315.9,397.6,315.9z M397.8,336.9
			c-0.1,4,4.7,4.8,6.1,4.6c1.5-0.2,4.6-2.7,4.4-5.6c-0.6-6.6-5.3-8.2-5.3-8.2C397.6,327.9,397.9,332.9,397.8,336.9z"/>
		<path fill="#007DC5" d="M319,346.1c0-0.9,0.9-5.8,0.6-7.6c-0.3-1.8-2.3-11.4-3.1-14.3c-0.9-2.9-0.2-8.5,2.7-10.2
			c2.9-1.7,7.1-4.3,14.3-1.6c7.1,2.7,9.9,8.9,7.3,13.7c-2.6,4.8-9.1,7.1-11.7,8.4c-2.6,1.3-0.8,3.4,1.2,5.7c2,2.3,8.2,7.6,10.6,10
			c2.4,2.4-1.8,5.8-3.9,5.8c-2.1,0-2.7-4.6-4.3-7.3c-1.5-2.7-2.1-2-5.5-2c-3.3,0-3.3,2.7-3.9,5.3c-0.6,2.6-1.5,2.3-4.3,2.3
			c-2.7,0-1.2-5.1-1.2-5.1L319,346.1z M323.9,328.9c2.7,2.2,7.3,0.4,9.6-1.3c2.3-1.8,2.1-6.5-0.8-8.8c-2.8-2.4-6.3-0.7-8.4,0.3
			C320.6,321.1,321.2,326.7,323.9,328.9z"/>
		<path fill="#007DC5" d="M430.5,347.1c0,1.3,0,2.5,0,4.1c0,4.6,8.4,7.8,8.7,0c0-2.1,0-30.4,0-30.4s4.8-0.1,6.3,0
			c1.5,0.1,3.3-1.5,3.3-4.7c0-3.3-1.3-4.4-5.9-4.4c-4.6,0-18.2,0-19.9,0s-3.1,0.6-3.1,3.3c0,2.7,0,5.8,3.6,5.8c2.2,0,6.8-0.9,7,0.8
			L430.5,347.1z"/>
		<path fill="#007DC5" d="M482.6,311.8c6-0.5,11.1,6.3,1.2,7.3c-7.9-0.3-7.3,0-9.4,0c-2.1,0-4.1,2.2-4.2,4.5
			c-0.1,2.3-0.2,7.3,2.4,7.1c4.9-0.3,9.5,0,11.9,0s7.5,6.4,0.6,6.5c-7.1,0-9.6,0-11.5,0c-1.9,0-3.5,3.6-3.1,5.9
			c0.3,2.2-0.2,5.7,3.5,5.7c5,0,9.2,0,12,0c2.8,0,6.6,7.1-3.8,7.1c-11.6,0-15.2,0-17.6,0c-0.6,0-1.9,0.2-2.9-0.3
			c-2.6-1.3-4.6-5.1,0.5-6.5c1-0.1,1.5-0.4,2.5-0.9c2.5-1.4,2.2-8.8-1.3-9c-1.9-0.1-4.4,0.5-5.7-0.8c-2.8-2.9-2.3-7.2,1.8-7.3
			c1.4,0,2.4-0.5,3.4-1.2c3.5-2.4,2.8-7.9-1.4-8.9c-1.2-0.3-1.6-0.6-2.5-1c-5.2-2.2-5.5-7.6,1.6-8.2
			C468.1,311.2,482.6,311.8,482.6,311.8z"/>
	</g>
	<g>
		<path fill="#FFFFFF" d="M194.5,123.2l-19.9-25.7l5.1-4l19.9,25.7L194.5,123.2z"/>
		<path fill="#FFFFFF" d="M204.7,115.1L187,87.8l5.3-3.4l22.8,11.1l-11.8-18.2l5.1-3.3l17.6,27.3l-5.5,3.5L198.3,94l11.5,17.8
			L204.7,115.1z"/>
		<path fill="#FFFFFF" d="M238.7,94.7l-12-24.2l-8.6,4.2l-2.4-4.9l22.9-11.3l2.4,4.9l-8.5,4.2l12,24.2L238.7,94.7z"/>
		<path fill="#FFFFFF" d="M257,86l-11.2-30.5l22.4-8.2l1.9,5.2l-16.3,6l2.5,6.8l15.2-5.5l1.9,5.1l-15.2,5.5l3,8.3l16.9-6.2l1.9,5.1
			L257,86z"/>
		<path fill="#FFFFFF" d="M285.3,76l-7.5-31.6l13.3-3.2c3.3-0.8,5.8-1.1,7.5-0.9c1.7,0.2,3.1,0.9,4.4,2.2c1.3,1.2,2.1,2.8,2.5,4.7
			c0.6,2.4,0.3,4.5-0.7,6.4c-1,1.9-2.8,3.3-5.5,4.4c1.6,0.5,2.9,1.1,4,1.9c1.1,0.8,2.7,2.2,4.8,4.3l5.3,5.3l-7.6,1.8l-6.2-5.8
			c-2.2-2.1-3.7-3.4-4.4-3.9c-0.7-0.5-1.5-0.8-2.2-0.9c-0.7-0.1-1.8,0.1-3.3,0.4l-1.3,0.3l3.1,13.2L285.3,76z M287.3,56.2l4.7-1.1
			c3-0.7,4.9-1.3,5.6-1.7c0.7-0.4,1.2-1,1.5-1.8c0.3-0.7,0.3-1.6,0.1-2.5c-0.3-1.1-0.7-1.9-1.5-2.4c-0.7-0.5-1.6-0.7-2.7-0.7
			c-0.5,0.1-2.1,0.4-4.6,1l-4.9,1.2L287.3,56.2z"/>
		<path fill="#FFFFFF" d="M317,68.9l-3.6-32.3l6.3-0.7L335.2,56l-2.4-21.6l6-0.7l3.6,32.3l-6.5,0.7l-15.3-19.6l2.4,21.1L317,68.9z"
			/>
		<path fill="#FFFFFF" d="M378.3,65.9l-7.1-0.1l-2.7-7.4l-12.9-0.1l-2.7,7.4l-6.9-0.1l12.8-32.4l6.9,0.1L378.3,65.9z M366.4,52.9
			l-4.3-12.1l-4.5,12L366.4,52.9z"/>
		<path fill="#FFFFFF" d="M385.7,67l3-26.8l-9.5-1l0.6-5.5l25.4,2.8l-0.6,5.5l-9.5-1l-3,26.8L385.7,67z"/>
		<path fill="#FFFFFF" d="M405.9,69.8l6-32l6.4,1.2l-6,32L405.9,69.8z"/>
		<path fill="#FFFFFF" d="M421.7,56.1c0.9-3.2,2.1-5.7,3.7-7.6c1.2-1.4,2.5-2.6,4.1-3.5c1.6-0.9,3.2-1.5,4.8-1.7
			c2.2-0.3,4.5-0.1,7,0.7c4.6,1.3,7.8,3.8,9.7,7.4c1.9,3.6,2.2,8,0.7,13.1c-1.4,5-3.9,8.6-7.4,10.7c-3.5,2.1-7.6,2.5-12.1,1.2
			c-4.6-1.3-7.9-3.8-9.8-7.4C420.5,65.4,420.3,61.1,421.7,56.1z M428.2,57.8c-1,3.5-1,6.5,0.1,8.7c1.1,2.3,2.9,3.8,5.4,4.5
			c2.5,0.7,4.8,0.4,6.9-1c2.1-1.4,3.7-3.9,4.7-7.5c1-3.6,1-6.5-0.1-8.7c-1.1-2.2-2.9-3.7-5.5-4.4c-2.6-0.7-4.9-0.4-7,0.9
			C430.8,51.7,429.2,54.2,428.2,57.8z"/>
		<path fill="#FFFFFF" d="M452.1,82l12.8-29.9l5.8,2.5l3.6,25.1l8.5-20l5.6,2.4L475.6,92l-6-2.6L466,64.8l-8.3,19.5L452.1,82z"/>
		<path fill="#FFFFFF" d="M506.8,109.6l-6.1-3.6l1.3-7.8l-11.1-6.5l-6,5.1l-6-3.5l27.2-21.8L512,75L506.8,109.6z M502.9,92.5
			l2.2-12.7l-9.8,8.3L502.9,92.5z"/>
		<path fill="#FFFFFF" d="M509.7,111.9L529,86l5.2,3.9l-16,21.5l13,9.6l-3.3,4.4L509.7,111.9z"/>
	</g>
</g>
</svg>
