<?xml version="1.0" encoding="UTF-8" standalone="no"?>
<svg
   xmlns:dc="http://purl.org/dc/elements/1.1/"
   xmlns:cc="http://creativecommons.org/ns#"
   xmlns:rdf="http://www.w3.org/1999/02/22-rdf-syntax-ns#"
   xmlns:svg="http://www.w3.org/2000/svg"
   xmlns="http://www.w3.org/2000/svg"
   viewBox="0 0 541.33331 141.33333"
   height="141.33333"
   width="541.33331"
   xml:space="preserve"
   id="svg2"
   version="1.1"><metadata
     id="metadata8"><rdf:RDF><cc:Work
         rdf:about=""><dc:format>image/svg+xml</dc:format><dc:type
           rdf:resource="http://purl.org/dc/dcmitype/StillImage" /></cc:Work></rdf:RDF></metadata><defs
     id="defs6"><clipPath
       id="clipPath18"
       clipPathUnits="userSpaceOnUse"><path
         id="path16"
         d="M 0,106 H 406 V 0 H 0 Z" /></clipPath></defs><g
     transform="matrix(1.3333333,0,0,-1.3333333,0,141.33333)"
     id="g10"><g
       id="g12"><g
         clip-path="url(#clipPath18)"
         id="g14"><g
           transform="translate(84.5098,95.6855)"
           id="g20"><path
             id="path22"
             style="fill:#3a3338;fill-opacity:1;fill-rule:evenodd;stroke:none"
             d="m 0,0 c 0.032,-0.016 0.054,-0.038 0.085,-0.07 0.652,-0.6 1.929,-0.6 2.837,-0.617 0.684,0 1.197,-0.005 1.411,-0.128 0.416,-0.349 0.654,-0.601 0.654,-0.944 0.022,-0.096 -0.019,-0.204 -0.034,-0.327 -0.148,-0.44 -0.62,-0.848 -1.014,-0.858 -0.094,0 -0.185,0.016 -0.279,0.053 -1.362,0.665 -2.743,1.282 -4.138,1.872 z m -65.737,-0.338 0.538,-1.137 c -0.989,-0.461 -1.981,-0.944 -2.968,-1.453 -0.633,-0.322 -1.3,-0.531 -1.78,-0.542 -0.446,-0.016 -0.644,0.134 -0.724,0.338 -0.076,0.198 -0.105,0.376 -0.105,0.536 -0.008,0.526 0.338,0.955 0.917,1.293 0.292,0.166 0.719,0.214 1.274,0.22 h 0.305 l 0.317,0.01 c 0.751,0.011 1.649,0.065 2.226,0.735 m -2.94,-7.449 c -0.874,-1.545 -2.123,-2.971 -3.555,-3.974 -1.132,-0.788 -2.26,-1.49 -3.497,-1.887 0.566,0.691 1.049,1.512 1.44,2.327 0.435,0.874 0.901,1.942 1.046,2.944 l 0.046,0.429 -0.427,-0.032 c -0.456,-0.027 -0.936,-0.054 -1.389,-0.064 -0.609,-0.011 -1.201,0.01 -1.742,0.064 -0.979,0.123 -1.945,0.29 -2.851,0.627 1.826,0.773 3.556,1.877 5.052,3.159 0.853,0.729 1.622,1.748 2.346,2.719 0.928,1.239 1.78,2.36 2.706,2.885 0.625,0.36 1.558,0.649 2.322,0.665 0.627,0.006 1.032,-0.16 1.19,-0.455 0.183,-0.344 0.276,-0.542 0.276,-0.757 0,-0.144 -0.032,-0.316 -0.163,-0.584 -0.311,-0.628 -0.963,-0.735 -1.885,-0.751 -0.096,-0.006 -0.206,0 -0.303,0 l -0.314,-0.006 c -0.536,-0.005 -1.14,-0.043 -1.609,-0.321 -0.686,-0.397 -1.348,-0.982 -1.341,-1.883 0.006,-0.252 0.116,-0.708 0.247,-0.863 0.132,-0.187 0.223,-0.284 0.328,-0.423 0.608,-0.859 1.145,-1.77 1.603,-2.714 0.164,-0.37 0.324,-0.735 0.474,-1.105 M 3.354,-8.05 c 0.097,0.446 0.107,0.595 0.242,1.019 0.447,1.539 1.643,3.261 1.952,4.36 0.246,0.917 -0.089,1.915 -0.928,2.398 -0.413,0.235 -1.193,0.187 -1.818,0.192 -1.024,0.006 -1.944,0.043 -2.365,0.424 -0.432,0.403 -0.584,0.746 -0.595,1.035 0,0.177 0.054,0.375 0.193,0.59 0.19,0.284 0.622,0.456 1.29,0.461 0.665,0.011 1.44,-0.15 2.08,-0.386 1.142,-0.418 2.247,-1.727 3.4,-3.126 0.62,-0.746 1.25,-1.502 1.88,-2.081 0.086,-0.081 0.174,-0.156 0.268,-0.247 1.422,-1.308 3.047,-2.81 4.851,-3.69 -0.853,-0.3 -1.63,-0.546 -2.534,-0.622 -0.346,-0.016 -0.663,-0.037 -0.963,-0.043 -0.574,-0.005 -1.14,0.022 -1.769,0.119 l -0.505,0.069 0.108,-0.499 c 0.284,-1.238 0.613,-2.434 1.292,-3.56 0.405,-0.693 0.874,-1.33 1.395,-1.92 -1.478,0.472 -3.17,1.297 -4.492,2.322 -1.046,0.804 -2.041,1.743 -2.762,2.756 -0.083,0.107 -0.15,0.306 -0.22,0.429 m 0.912,4.355 C 3.756,-4.521 3.344,-5.406 3.017,-6.328 2.577,-7.604 2.429,-9.305 2.236,-10.227 c -0.094,-0.338 -0.26,-0.66 -0.552,-0.74 -0.059,-0.011 -0.129,-0.016 -0.18,-0.016 -0.201,0 -0.4,0.075 -0.721,0.247 -10.501,5.62 -22.264,8.467 -34.167,8.253 h -0.26 c -11.627,-0.242 -22.285,-3.309 -32.276,-8.699 -0.341,-0.193 -0.582,-0.257 -0.756,-0.257 -0.472,-0.011 -0.59,0.783 -0.751,1.727 -0.04,0.649 -0.49,1.775 -0.81,2.531 -0.418,0.997 -0.954,1.931 -1.6,2.8 0.64,0.005 1.407,0.273 2.083,0.621 10.482,5.374 21.837,8.292 33.462,8.608 l 0.694,0.01 c 12.825,0.226 25.382,-2.981 36.834,-8.489 0.196,-0.091 0.41,-0.155 0.609,-0.15 0.153,0 0.274,0.016 0.421,0.086 m -1.322,-6.671 c 0.051,0.509 0.065,0.825 0.15,1.324 0.773,-1.04 1.792,-1.962 2.808,-2.762 1.802,-1.378 4.207,-2.407 6.022,-2.767 l 1.244,-0.231 -0.946,0.848 c -0.867,0.772 -1.598,1.673 -2.191,2.665 -0.536,0.906 -0.834,1.851 -1.086,2.88 0.472,-0.048 0.928,-0.07 1.378,-0.059 0.322,0.005 0.652,0.032 0.992,0.053 1.188,0.092 2.188,0.457 3.237,0.837 0.11,0.049 0.212,0.086 0.327,0.129 l 0.922,0.327 -0.922,0.338 C 12.887,-6.076 11.099,-4.43 9.428,-2.891 9.337,-2.805 9.246,-2.725 9.152,-2.633 8.575,-2.103 7.975,-1.389 7.35,-0.627 6.248,0.702 5.012,2.209 3.646,2.708 2.944,2.96 2.083,3.143 1.314,3.137 0.601,3.121 -0.158,2.944 -0.542,2.354 -0.748,2.043 -0.853,1.893 -0.96,1.582 L -1.7,-0.665 C -11.791,3.438 -22.594,5.759 -33.609,5.572 -33.84,5.561 -34.076,5.561 -34.309,5.556 -44.582,5.271 -54.65,2.977 -64.091,-1.234 l -1.003,2.215 -0.094,0.226 c -0.121,0.316 -0.158,0.391 -0.295,0.638 -0.365,0.659 -1.118,0.836 -1.826,0.825 -0.899,-0.021 -1.939,-0.343 -2.657,-0.75 -1.076,-0.628 -2.025,-1.883 -2.915,-3.084 -0.743,-0.986 -1.456,-1.936 -2.244,-2.611 -1.66,-1.411 -3.602,-2.591 -5.626,-3.342 l -0.759,-0.273 0.724,-0.376 c 1.209,-0.611 2.537,-0.858 3.846,-1.013 0.573,-0.075 1.187,-0.086 1.823,-0.08 0.322,0.005 0.649,0.021 0.971,0.031 -0.172,-0.75 -0.521,-1.56 -0.885,-2.295 -0.569,-1.152 -1.266,-2.273 -2.137,-3.008 l -0.971,-0.821 1.258,0.204 c 1.863,0.306 3.45,1.271 4.942,2.295 1.37,0.955 2.565,2.285 3.456,3.706 0.104,-0.306 0.257,-0.708 0.316,-1.191 0.107,-0.9 0.309,-2.22 1.504,-2.198 0.322,0.005 0.676,0.123 1.078,0.332 9.897,5.347 20.446,8.383 31.955,8.624 h 0.257 c 11.796,0.214 23.419,-2.612 33.818,-8.168 0.33,-0.182 0.673,-0.348 1.078,-0.332 0.107,0 0.22,0.011 0.338,0.043 0.509,0.123 1.061,0.659 1.083,1.271 m -35.835,2.439 c -4.59,-5.121 -10.679,-8.762 -17.608,-9.958 -6.554,-1.132 -13.3,-0.081 -19.189,3.025 -1.812,-15.542 -0.401,-30.483 5.458,-44.619 6.258,-13.724 14.959,-25.619 31.315,-31.474 16.757,5.732 25.359,17.413 31.62,31.131 5.853,14.141 7.06,29.383 5.253,44.924 -5.889,-3.1 -12.641,-4.162 -19.191,-3.025 -6.924,1.196 -13.088,4.666 -17.658,9.996 m -28.417,-11.282 c -0.292,-2.248 -0.429,-4.57 -0.429,-6.924 0,-10.892 2.832,-22.551 5.757,-29.679 4.62,-11.266 11.211,-22.078 22.661,-27.043 l 0.391,-0.172 0.405,0.155 c 11.332,4.279 17.931,14.362 22.961,26.53 2.995,7.218 5.105,16.126 5.105,28.836 0,2.467 -0.107,5.427 -0.265,8.189 2.587,0.456 5.119,1.217 7.543,2.306 0.386,-3.813 0.592,-7.605 0.592,-11.359 0,-10.741 -1.716,-21.166 -5.955,-30.905 -5.873,-13.488 -14.373,-24.616 -30.343,-30.242 -15.595,5.749 -24.205,17.076 -30.072,30.574 -4.309,9.926 -6.127,20.39 -6.127,31.228 0,3.539 0.193,7.116 0.555,10.736 2.32,-1.035 4.746,-1.78 7.221,-2.23 m 29.447,-2.87 -0.002,11.058 c 4.509,-4.36 10.176,-7.208 16.423,-8.296 1.786,-0.306 3.593,-0.456 5.393,-0.456 1.432,0 2.855,0.097 4.276,0.279 0.11,-2.016 0.202,-4.671 0.242,-6.537 0.062,-5.138 -0.193,-9.685 -0.716,-13.761 -0.003,0.016 -0.003,0.091 -0.003,0.102 -0.662,-0.338 -1.33,-0.778 -1.925,-1.298 -0.472,-0.418 -0.981,-1.014 -1.287,-1.582 -0.241,-0.424 -0.373,-0.901 -0.389,-1.406 -0.091,-0.053 -0.182,-0.117 -0.268,-0.176 -0.483,-0.322 -0.923,-0.627 -1.405,-0.794 -0.201,-0.07 -0.424,-0.145 -0.641,-0.209 0.56,0.402 1.07,1.093 1.159,1.812 0.05,0.312 0.131,0.773 0.05,1.089 -0.595,-0.316 -1.346,-0.552 -1.997,-0.767 -0.26,-0.01 -1.218,-0.316 -1.711,-0.595 -0.392,-0.214 -0.687,-0.547 -0.992,-0.879 -0.327,-0.359 -0.628,-0.768 -0.866,-1.181 -0.459,-0.02 -0.925,-0.02 -1.387,-0.02 0.845,0.289 1.588,0.825 2.14,1.533 0.236,0.301 0.443,0.627 0.603,0.987 -0.38,-0.022 -0.78,-0.043 -1.155,-0.054 -0.56,-0.016 -1.11,0.07 -1.663,0 -0.515,-0.064 -1.029,-0.177 -1.501,-0.386 -0.507,-0.22 -0.971,-0.547 -1.371,-0.939 -0.372,-0.332 -0.672,-0.734 -0.933,-1.158 -0.23,-0.011 -0.466,-0.021 -0.686,-0.037 h -0.3 c 0.686,0.369 1.271,0.917 1.694,1.587 0.207,0.327 0.427,0.703 0.566,0.976 -0.542,0 -1.112,-0.027 -1.644,-0.097 -0.702,-0.086 -1.445,-0.074 -2.072,-0.385 -0.558,-0.269 -0.998,-0.698 -1.443,-1.11 -0.354,-0.328 -0.686,-0.682 -0.976,-1.052 -0.354,-0.032 -0.686,-0.065 -1.04,-0.102 0.456,0.263 0.826,0.644 1.078,1.1 0.176,0.327 0.286,0.681 0.327,1.051 -0.215,-0.113 -0.451,-0.091 -0.671,-0.177 -0.536,-0.081 -1.257,-0.193 -1.858,-0.44 -0.55,-0.204 -1.046,-0.58 -1.456,-0.987 -0.418,-0.424 -0.753,-0.933 -0.968,-1.485 -0.539,-0.241 -1.035,-0.521 -1.507,-0.831 -0.488,0.327 -1,0.627 -1.549,0.863 -0.207,0.558 -0.545,1.062 -0.966,1.48 -0.41,0.413 -0.909,0.789 -1.453,0.982 -0.609,0.257 -1.325,0.364 -1.864,0.45 -0.222,0.08 -0.459,0.065 -0.673,0.166 0.048,-0.359 0.161,-0.718 0.338,-1.04 0.249,-0.467 0.622,-0.843 1.07,-1.11 -0.348,0.037 -0.689,0.08 -1.041,0.101 -0.289,0.381 -0.624,0.724 -0.968,1.057 -0.45,0.418 -0.887,0.837 -1.442,1.116 -0.636,0.3 -1.381,0.294 -2.081,0.381 -0.531,0.069 -1.102,0.096 -1.641,0.096 0.15,-0.279 0.359,-0.644 0.566,-0.982 0.424,-0.659 1.008,-1.201 1.697,-1.582 h -0.306 c -0.219,0.017 -0.45,0.028 -0.686,0.033 -0.258,0.428 -0.569,0.82 -0.93,1.164 -0.403,0.385 -0.864,0.723 -1.373,0.943 -0.477,0.214 -0.984,0.317 -1.504,0.386 -0.539,0.065 -1.097,-0.021 -1.647,0 -0.397,0.006 -0.786,0.022 -1.166,0.049 0.155,-0.36 0.364,-0.687 0.603,-0.993 0.563,-0.702 1.303,-1.239 2.134,-1.528 -0.463,0 -0.928,0 -1.383,0.016 -0.242,0.424 -0.534,0.821 -0.864,1.18 -0.306,0.332 -0.598,0.67 -0.992,0.89 -0.493,0.273 -1.456,0.58 -1.719,0.595 -0.648,0.204 -1.396,0.446 -1.998,0.762 -0.077,-0.316 0.014,-0.777 0.062,-1.094 0.086,-0.713 0.599,-1.406 1.159,-1.802 -0.223,0.06 -0.434,0.14 -0.639,0.204 -0.482,0.166 -0.925,0.472 -1.404,0.799 -0.095,0.058 -0.18,0.118 -0.274,0.177 -0.013,0.499 -0.15,0.971 -0.389,1.4 -0.316,0.568 -0.817,1.164 -1.279,1.571 -0.158,0.139 -0.319,0.263 -0.477,0.381 h 7.747 v 3.11 h -2.073 v 2.725 l 3.105,-3.143 -0.644,-2.725 h 0.663 l 1.04,4.248 c 0.249,-0.386 0.55,-0.756 0.893,-1.057 0.917,-0.815 2.006,-1.19 3.102,-1.238 1.926,-0.092 3.822,0.97 4.76,2.837 l 1.102,-4.79 h 3.411 l -1.116,0.783 v 13.788 h 0.965 v 0.52 h -0.965 v 1.057 h -0.74 v -1.057 h -5.783 v 2.628 c 0.557,0.049 0.452,0.509 0,0.509 h -0.333 c -0.26,0 -0.26,-0.305 -0.26,-0.509 v -2.354 c -0.384,-0.274 -0.349,-0.794 0,-1.056 v -3.004 c 0.593,-0.112 1.405,-0.488 1.968,-0.975 0.587,-0.516 1.102,-1.073 1.279,-1.835 -0.148,-0.171 -0.357,-0.295 -0.598,-0.349 -0.368,-0.085 -0.729,0.424 -1.124,0.381 -0.322,-0.037 -0.654,-0.381 -0.984,-0.402 -0.394,-0.037 -0.716,0.429 -1.123,0.44 -0.376,0.005 -0.741,-0.419 -1.124,-0.419 -0.41,-0.016 -0.686,0.387 -1.096,0.419 -0.499,0.021 -0.799,-0.504 -1.285,-0.408 -0.292,0.054 -0.547,0.263 -0.745,0.472 0.573,1.641 1.869,2.473 3.505,2.762 v 2.928 c 0.394,0.252 0.413,0.772 0,1.073 v 2.274 c 0,0.214 0,0.562 -0.245,0.562 h -0.356 c -0.641,0 -0.59,-0.509 0,-0.546 v -2.591 h -2.076 v -0.52 h 2.076 v -2.718 c -1.432,-0.312 -2.62,-1.143 -3.293,-2.441 -0.574,-1.072 -0.652,-2.156 -0.477,-3.335 l -0.405,-0.038 0.544,-1.003 -0.298,-1.282 -3.343,10.351 v 5.845 h -2.301 v -3.239 l -5.773,-2.692 5.773,-5.83 v -5.046 h -4.593 v -2.376 c -0.038,0.048 -0.153,0.097 -0.236,0.129 -0.035,-0.23 -0.051,-0.472 -0.051,-0.702 -1.247,6.832 -1.791,14.345 -0.92,21.027 1.51,-0.22 3.068,-0.338 4.612,-0.338 1.797,0 3.598,0.156 5.39,0.462 6.4,1.104 12.109,4.204 16.649,8.58 v -35.464 h 0.606 L -33,-10.125 c 0.035,0.043 0.078,0.085 0.115,0.123 0.164,-0.187 0.303,-0.364 0.483,-0.541 v -35.609 h 0.541 v 13.036 10.12 z m 14.85,-46.576 c -0.059,0.145 -0.096,0.295 -0.166,0.429 -0.29,0.686 -0.705,1.314 -1.204,1.872 l -0.035,0.359 c 0.158,0.027 0,0.134 0.223,0.225 0.388,0.268 0.391,0.741 0.496,1.153 0.12,0.44 0.184,1.132 0.23,1.582 -0.072,0.676 -0.421,1.287 -0.97,1.684 -0.631,0.461 -1.357,0.317 -2.1,0.332 -0.416,0.017 -0.989,0.226 -1.357,-0.085 -0.238,-0.209 -0.41,-0.413 -0.439,-0.767 -0.111,-0.364 0.136,-0.376 0.222,-0.536 l -0.086,-1.052 0.118,-0.235 -0.378,-0.67 c -0.069,-0.06 -0.142,-0.215 -0.15,-0.307 0,-0.08 0.081,-0.155 0.123,-0.225 l 0.338,-0.214 0.059,-0.151 -0.029,-0.177 c -0.014,-0.08 0.061,-0.128 0.144,-0.171 -0.07,-0.037 -0.112,-0.043 -0.115,-0.156 -0.014,-0.118 0.118,-0.166 0.148,-0.31 0.045,-0.317 -0.148,-0.392 0.112,-0.725 0.107,-0.075 0.177,-0.134 0.365,-0.096 l 0.051,-0.665 c -0.113,-0.161 -0.201,-0.322 -0.295,-0.483 -0.266,-0.466 -0.491,-0.949 -0.673,-1.447 l -0.134,-0.183 -0.118,-0.344 c -0.065,-0.262 -0.228,-0.45 -0.402,-0.209 -0.349,0.537 -0.574,1.191 -0.674,1.754 0.043,0.065 0.089,0.129 0.126,0.188 0.062,0.091 0.14,0.172 0.178,0.301 0.053,0.16 0,0.316 0,0.476 0,0.151 0.053,0.296 0,0.43 -0.054,0.134 -0.161,0.241 -0.304,0.289 l -0.179,0.617 -0.309,0.3 0.073,1.508 c 0.303,-0.06 0.614,0.123 0.719,0.428 0.053,0.129 -0.009,0.274 0,0.418 0.034,0.515 0.45,0.939 0.479,1.454 0.035,0.38 -0.005,0.766 -0.109,1.131 -0.057,-0.086 -0.092,-0.187 -0.132,-0.284 -0.104,-0.338 0.231,-0.799 -0.115,-1.03 -0.123,-0.091 -0.274,-0.128 -0.427,-0.128 0.033,0.097 0.076,0.166 0.126,0.246 0.108,0.183 0.354,0.274 0.416,0.478 0.104,0.338 -0.195,0.611 -0.297,0.912 -0.129,0.385 -0.282,0.756 -0.424,1.141 0.04,-0.138 0.04,-0.278 0,-0.418 -0.038,-0.187 -0.161,-0.321 -0.236,-0.477 -0.083,-0.171 -0.22,-0.3 -0.25,-0.487 -0.026,-0.124 0,-0.237 0,-0.371 0,-0.107 0.126,-0.273 0,-0.354 -0.093,-0.069 -0.265,-0.08 -0.305,0.054 -0.016,0.075 0.043,0.124 0.07,0.193 0.019,0.091 0.04,0.193 0.056,0.289 0.037,0.263 -0.056,0.531 0,0.794 0.059,0.236 0.263,0.418 0.305,0.654 0.065,0.392 -0.016,0.778 -0.238,1.094 -0.03,-0.182 -0.075,-0.364 -0.123,-0.547 -0.086,-0.284 -0.207,-0.547 -0.365,-0.783 -0.166,-0.252 -0.515,-0.364 -0.604,-0.665 -0.056,-0.171 -0.056,-0.369 0,-0.547 -0.069,0.092 -0.133,0.204 -0.176,0.312 -0.191,0.418 0.273,0.836 0.176,1.259 -0.056,0.243 -0.16,0.467 -0.305,0.671 -0.024,-0.252 -0.08,-0.493 -0.174,-0.729 -0.158,-0.343 -0.579,-0.532 -0.679,-0.896 -0.113,-0.445 0.137,-0.858 0.244,-1.276 0.092,-0.301 0.218,-0.601 0.303,-0.901 0.097,-0.322 0.075,-0.681 0.244,-0.965 0.191,-0.306 0.464,-0.542 0.791,-0.67 l 0.137,-1.797 c -0.257,-0.193 -0.257,-0.306 -0.032,-0.596 -0.263,-0.204 -0.099,-0.364 -0.035,-0.665 -0.145,-0.134 -0.153,-0.396 0.011,-0.504 0.099,-0.058 0.112,-0.144 0.268,-0.252 l 0.126,-0.585 0.204,-3.582 c 0.021,-0.761 0.565,-1.072 0.909,-0.96 l 0.533,-0.31 0.196,-1.743 0.124,-0.129 c -1.25,-1.18 -2.575,-2.252 -3.993,-3.212 0.08,0.466 0.233,0.917 0.281,1.373 0.065,0.723 0.105,1.549 0.121,2.273 0.037,1.662 0.485,2.736 0.19,4.719 -0.115,1.271 -0.2,2.72 -0.713,3.883 -0.403,0.912 -0.941,1.759 -1.614,2.494 l -0.043,0.482 c 0.201,0.038 0,0.177 0.297,0.312 0.518,0.348 0.526,0.981 0.665,1.533 0.153,0.585 0.236,1.507 0.292,2.113 -0.085,0.89 -0.557,1.711 -1.289,2.247 -0.828,0.601 -1.799,0.423 -2.783,0.446 -0.561,0.005 -1.33,0.289 -1.813,-0.118 -0.327,-0.29 -0.557,-0.553 -0.593,-1.036 -0.134,-0.493 0.194,-0.493 0.309,-0.723 l -0.115,-1.384 0.158,-0.327 -0.51,-0.886 c -0.088,-0.069 -0.19,-0.294 -0.193,-0.407 -0.013,-0.112 0.099,-0.203 0.156,-0.3 l 0.45,-0.273 0.07,-0.221 -0.019,-0.23 c -0.024,-0.107 0.075,-0.171 0.18,-0.231 -0.075,-0.043 -0.153,-0.048 -0.161,-0.187 0,-0.172 0.174,-0.248 0.201,-0.424 0.067,-0.424 -0.201,-0.536 0.15,-0.976 0.145,-0.097 0.231,-0.172 0.478,-0.135 l 0.083,-0.884 c -0.145,-0.204 -0.274,-0.423 -0.405,-0.644 -0.346,-0.611 -0.652,-1.26 -0.885,-1.925 l -0.174,-0.247 -0.145,-0.444 c -0.108,-0.36 -0.324,-0.617 -0.561,-0.285 -0.466,0.708 -0.764,1.598 -0.887,2.333 0.053,0.086 0.118,0.167 0.158,0.247 0.08,0.134 0.201,0.246 0.242,0.402 0.063,0.22 0,0.429 0,0.644 0,0.187 0.072,0.396 0,0.568 -0.07,0.183 -0.21,0.332 -0.4,0.396 l -0.236,0.799 -0.405,0.409 0.081,2.015 c 0.418,-0.069 0.828,0.167 0.96,0.569 0.063,0.182 -0.017,0.375 0,0.558 0.05,0.687 0.592,1.244 0.648,1.942 0.048,0.503 -0.021,1.024 -0.161,1.528 -0.064,-0.14 -0.117,-0.274 -0.166,-0.408 -0.139,-0.445 0.306,-1.051 -0.158,-1.362 -0.166,-0.118 -0.359,-0.172 -0.563,-0.167 0.046,0.103 0.096,0.215 0.158,0.327 0.145,0.242 0.477,0.355 0.563,0.644 0.145,0.445 -0.265,0.805 -0.399,1.201 -0.18,0.516 -0.37,1.025 -0.558,1.529 0.037,-0.188 0.037,-0.38 0,-0.563 -0.048,-0.241 -0.22,-0.429 -0.324,-0.638 -0.113,-0.225 -0.28,-0.402 -0.322,-0.649 -0.035,-0.155 0,-0.322 0,-0.483 0,-0.161 0.169,-0.376 0,-0.477 -0.132,-0.097 -0.362,-0.112 -0.408,0.08 -0.027,0.086 0.057,0.156 0.081,0.236 0.045,0.129 0.061,0.258 0.083,0.397 0.048,0.348 -0.083,0.708 0,1.052 0.069,0.327 0.351,0.568 0.402,0.884 0.088,0.51 -0.027,1.035 -0.322,1.449 -0.032,-0.247 -0.088,-0.489 -0.163,-0.725 -0.11,-0.375 -0.274,-0.724 -0.478,-1.04 -0.222,-0.338 -0.694,-0.488 -0.807,-0.891 -0.067,-0.23 -0.067,-0.487 0,-0.729 -0.102,0.124 -0.179,0.268 -0.241,0.408 -0.239,0.568 0.367,1.115 0.241,1.689 -0.072,0.322 -0.206,0.612 -0.399,0.89 -0.04,-0.332 -0.119,-0.665 -0.242,-0.971 -0.096,-0.235 -0.289,-0.418 -0.474,-0.6 -0.188,-0.188 -0.352,-0.364 -0.419,-0.606 -0.093,-0.376 0,-0.718 0.124,-1.089 0.072,-0.198 0.147,-0.402 0.201,-0.589 0.11,-0.419 0.279,-0.816 0.405,-1.218 0.115,-0.424 0.086,-0.901 0.324,-1.292 0.25,-0.402 0.606,-0.708 1.041,-0.886 l 0.201,-2.396 c -0.351,-0.263 -0.351,-0.413 -0.07,-0.788 -0.343,-0.274 -0.113,-0.489 -0.035,-0.88 -0.19,-0.183 -0.209,-0.542 0.022,-0.681 0.128,-0.075 0.142,-0.188 0.345,-0.338 l 0.18,-0.789 0.263,-4.762 c 0.032,-1.029 0.761,-1.437 1.217,-1.282 l 0.713,-0.418 0.269,-2.322 0.343,-0.375 -0.488,-0.762 0.22,-0.525 -1.105,-3.084 c -1.051,0.563 -2.051,1.196 -3.003,1.855 -0.151,0.81 -0.193,1.631 -0.137,2.451 0.059,0.638 0.298,1.25 0.365,1.877 0.072,0.81 0.112,1.722 0.131,2.521 0.046,1.855 0.534,3.041 0.206,5.256 -0.125,1.399 -0.214,3.003 -0.788,4.301 -0.45,1.013 -1.045,1.952 -1.788,2.778 l -0.054,0.519 c 0.22,0.049 0,0.215 0.332,0.349 0.499,0.355 0.566,0.934 0.69,1.491 l 0.051,0.215 c 0.109,0.401 0.179,0.949 0.231,1.469 0.034,0.322 0.064,0.617 0.088,0.869 -0.088,1.003 -0.612,1.909 -1.429,2.504 -0.934,0.671 -1.995,0.467 -3.092,0.494 -0.62,0.005 -1.481,0.321 -2.011,-0.135 -0.367,-0.316 -0.617,-0.611 -0.657,-1.147 -0.156,-0.53 0.209,-0.542 0.338,-0.794 l -0.129,-1.544 0.18,-0.359 -0.572,-0.988 c -0.096,-0.085 -0.206,-0.316 -0.216,-0.455 -0.006,-0.118 0.112,-0.221 0.182,-0.333 l 0.499,-0.31 0.08,-0.232 -0.038,-0.252 c -0.016,-0.128 0.092,-0.192 0.207,-0.257 -0.091,-0.048 -0.158,-0.07 -0.169,-0.225 -0.008,-0.188 0.185,-0.247 0.228,-0.461 0.067,-0.461 -0.228,-0.59 0.155,-1.083 0.164,-0.113 0.26,-0.199 0.531,-0.146 l 0.097,-0.981 c -0.161,-0.231 -0.303,-0.472 -0.448,-0.708 -0.394,-0.681 -0.721,-1.41 -0.984,-2.155 l -0.193,-0.263 -0.172,-0.505 c -0.11,-0.391 -0.351,-0.664 -0.617,-0.305 -0.517,0.793 -0.841,1.764 -0.981,2.595 0.062,0.086 0.126,0.178 0.183,0.263 0.083,0.145 0.209,0.284 0.259,0.451 0.076,0.235 0,0.477 0,0.713 0,0.215 0.081,0.434 0,0.628 -0.074,0.209 -0.233,0.37 -0.442,0.456 l -0.268,0.889 -0.45,0.451 0.096,2.225 c 0.455,-0.074 0.914,0.183 1.064,0.628 0.076,0.209 -0.013,0.424 0,0.627 0.062,0.757 0.658,1.39 0.717,2.14 0.045,0.58 -0.019,1.148 -0.178,1.7 -0.072,-0.134 -0.128,-0.295 -0.174,-0.44 -0.166,-0.488 0.327,-1.174 -0.185,-1.517 -0.19,-0.134 -0.402,-0.188 -0.622,-0.183 0.054,0.124 0.107,0.252 0.183,0.36 0.155,0.268 0.52,0.402 0.624,0.708 0.153,0.504 -0.3,0.901 -0.453,1.345 -0.201,0.575 -0.413,1.138 -0.622,1.701 0.048,-0.204 0.048,-0.424 0,-0.622 -0.056,-0.274 -0.244,-0.478 -0.354,-0.724 -0.118,-0.241 -0.311,-0.445 -0.365,-0.714 -0.034,-0.177 0,-0.354 0,-0.536 0,-0.182 0.188,-0.407 0,-0.536 -0.153,-0.097 -0.394,-0.113 -0.445,0.086 -0.035,0.101 0.07,0.182 0.089,0.268 0.037,0.145 0.072,0.3 0.091,0.45 0.051,0.386 -0.091,0.784 0,1.164 0.075,0.365 0.383,0.627 0.445,0.987 0.104,0.553 -0.029,1.142 -0.36,1.603 -0.034,-0.273 -0.093,-0.542 -0.176,-0.798 -0.129,-0.414 -0.306,-0.805 -0.539,-1.165 -0.242,-0.375 -0.762,-0.536 -0.888,-0.981 -0.075,-0.263 -0.075,-0.547 0,-0.81 -0.112,0.134 -0.196,0.289 -0.268,0.446 -0.274,0.633 0.408,1.244 0.268,1.882 -0.083,0.359 -0.233,0.681 -0.45,0.981 -0.038,-0.364 -0.126,-0.729 -0.277,-1.072 -0.203,-0.515 -0.836,-0.788 -0.973,-1.341 -0.171,-0.644 0.185,-1.266 0.357,-1.883 0.126,-0.45 0.308,-0.879 0.45,-1.34 0.134,-0.472 0.094,-0.992 0.351,-1.426 0.282,-0.452 0.682,-0.789 1.162,-0.988 l 0.214,-2.665 c -0.386,-0.278 -0.386,-0.45 -0.062,-0.874 -0.394,-0.295 -0.126,-0.536 -0.043,-0.971 -0.217,-0.209 -0.23,-0.6 0.027,-0.755 0.132,-0.081 0.151,-0.22 0.384,-0.387 l 0.198,-0.858 0.161,-3.352 c -2.153,3.486 -3.936,7.262 -5.454,11.149 -1.528,3.513 -2.976,8.222 -4.033,13.402 0.027,-0.053 0.056,-0.123 0.078,-0.182 0.595,-1.303 1.784,-2.247 3.188,-2.516 -0.177,0 -0.287,-0.052 -0.466,-0.074 -0.652,-0.086 -1.193,-0.472 -1.781,-0.719 0.413,-0.37 0.874,-0.675 1.386,-0.879 0.974,-0.429 2.068,-0.521 3.106,-0.285 0.498,0.119 0.978,0.312 1.429,0.569 0.139,-0.022 0.289,-0.048 0.45,-0.065 -0.244,-0.085 -0.49,-0.176 -0.724,-0.284 -0.378,-0.172 -0.745,-0.434 -1.137,-0.573 -0.198,-0.075 -0.37,-0.156 -0.576,-0.199 0.528,-0.338 1.113,-0.579 1.713,-0.713 0.96,-0.214 1.942,-0.102 2.883,0.161 0.989,0.263 1.898,0.751 2.667,1.416 h 0.505 c 0.134,0 0.268,0.005 0.397,0.005 -0.346,-0.161 -0.671,-0.364 -0.971,-0.595 -0.381,-0.29 -0.652,-0.708 -0.997,-1.035 -0.142,-0.14 -0.285,-0.274 -0.434,-0.398 0.89,-0.187 1.798,-0.235 2.705,-0.166 1.19,0.102 2.378,0.349 3.427,0.945 0.584,0.316 1.115,0.718 1.59,1.184 0.34,-0.01 0.67,-0.015 1,-0.032 -0.563,-0.182 -0.845,-0.429 -1.164,-0.633 -0.41,-0.295 -0.767,-0.756 -1.105,-1.04 -0.279,-0.187 -0.504,-0.434 -0.82,-0.542 0.82,-0.064 1.657,-0.23 2.47,-0.235 0.884,-0.006 1.769,-0.081 2.63,0.187 0.56,0.177 1.073,0.44 1.59,0.713 0.348,0.199 0.654,0.51 0.992,0.698 0.579,-0.226 1.118,-0.499 1.625,-0.821 -1.046,-0.783 -1.949,-1.732 -2.805,-2.703 -0.123,-0.155 -0.104,-0.37 0.032,-0.499 0.156,-0.123 0.384,-0.107 0.504,0.027 0.886,1.041 1.824,1.99 2.899,2.751 1.054,-0.761 1.979,-1.71 2.859,-2.713 0.123,-0.15 0.345,-0.166 0.504,-0.038 0.145,0.129 0.158,0.343 0.035,0.499 -0.845,0.965 -1.738,1.893 -2.776,2.676 0.504,0.3 1.03,0.569 1.59,0.794 0.341,-0.182 0.647,-0.499 0.992,-0.692 0.52,-0.284 1.033,-0.547 1.593,-0.724 0.861,-0.262 1.746,-0.193 2.636,-0.187 0.81,0.01 1.646,0.181 2.467,0.246 -0.322,0.101 -0.539,0.344 -0.821,0.537 -0.348,0.284 -0.694,0.75 -1.104,1.034 -0.314,0.215 -0.598,0.456 -1.161,0.639 0.324,0.015 0.657,0.026 1,0.032 0.469,-0.462 0.997,-0.869 1.579,-1.186 1.051,-0.595 2.242,-0.841 3.427,-0.938 0.909,-0.075 1.821,-0.022 2.719,0.161 -0.158,0.118 -0.295,0.258 -0.442,0.392 -0.354,0.327 -0.612,0.75 -1.009,1.045 -0.284,0.236 -0.616,0.429 -0.96,0.585 h 0.4 0.49 c 0.776,-0.67 1.692,-1.148 2.677,-1.416 0.938,-0.263 1.922,-0.375 2.88,-0.161 0.608,0.134 1.19,0.375 1.718,0.713 -0.214,0.049 -0.375,0.129 -0.573,0.194 -0.392,0.149 -0.759,0.407 -1.145,0.579 -0.234,0.107 -0.475,0.209 -0.719,0.284 0.156,0.011 0.308,0.043 0.453,0.059 0.44,-0.252 0.928,-0.446 1.429,-0.558 1.033,-0.241 2.121,-0.145 3.103,0.273 0.506,0.215 0.973,0.521 1.381,0.885 -0.583,0.241 -1.132,0.639 -1.775,0.714 -0.183,0.032 -0.285,0.086 -0.467,0.086 1.373,0.268 2.56,1.179 3.156,2.445 -0.877,-5.336 -2.234,-9.803 -3.915,-13.665 -1.855,-4.655 -3.971,-8.934 -6.489,-12.688 m -42.012,41.83 5.402,2.52 3.841,-11.862 z m 19.555,-6.913 c -0.185,-0.134 -0.424,-0.22 -0.646,-0.268 -0.375,-0.075 -0.756,0.429 -1.164,0.386 -0.341,-0.037 -0.681,-0.375 -1.018,-0.407 -0.413,-0.016 -0.749,0.434 -1.167,0.44 -0.394,0.01 -0.759,-0.408 -1.156,-0.419 -0.434,-0.011 -0.721,0.397 -1.139,0.419 -0.526,0.026 -0.829,-0.494 -1.354,-0.397 -0.311,0.059 -0.676,0.225 -0.931,0.45 0,0.139 0.003,0.279 0.024,0.424 0.231,-0.242 0.477,-0.408 0.805,-0.477 0.527,-0.097 0.85,0.428 1.359,0.407 0.435,-0.032 0.724,-0.429 1.153,-0.424 0.405,0.011 0.783,0.429 1.188,0.424 0.413,-0.01 0.751,-0.466 1.159,-0.44 0.358,0.027 0.707,0.365 1.037,0.397 0.41,0.048 0.829,-0.402 1.156,-0.364 0.249,0.047 0.49,0.155 0.675,0.332 0.019,-0.156 0.019,-0.322 0.019,-0.483 m -0.094,-0.82 c -0.168,-0.097 -0.356,-0.167 -0.528,-0.198 -0.378,-0.081 -0.756,0.428 -1.164,0.385 -0.337,-0.031 -0.681,-0.38 -1.018,-0.402 -0.419,-0.032 -0.751,0.424 -1.156,0.435 -0.405,0.01 -0.773,-0.413 -1.172,-0.418 -0.429,-0.006 -0.716,0.391 -1.145,0.418 -0.512,0.026 -0.815,-0.499 -1.33,-0.392 -0.314,0.054 -0.652,0.204 -0.906,0.418 -0.014,0.103 -0.014,0.215 -0.038,0.317 0.198,-0.193 0.429,-0.322 0.729,-0.376 0.537,-0.096 0.858,0.424 1.403,0.397 0.434,-0.021 0.743,-0.423 1.204,-0.413 0.408,0.011 0.786,0.429 1.217,0.413 0.435,0 0.775,-0.461 1.207,-0.428 0.362,0.026 0.724,0.364 1.072,0.396 0.429,0.048 0.864,-0.413 1.199,-0.365 0.172,0.022 0.348,0.086 0.483,0.172 -0.011,-0.129 -0.03,-0.241 -0.057,-0.359 m -0.037,2.08 c 0.021,-0.106 0.045,-0.225 0.064,-0.354 -0.195,-0.192 -0.485,-0.321 -0.745,-0.375 -0.367,-0.075 -0.73,0.429 -1.126,0.386 -0.317,-0.037 -0.652,-0.369 -0.982,-0.407 -0.397,-0.022 -0.721,0.429 -1.115,0.445 -0.394,0.005 -0.743,-0.407 -1.121,-0.424 -0.418,-0.005 -0.7,0.397 -1.1,0.424 -0.498,0.021 -0.798,-0.499 -1.3,-0.403 -0.316,0.065 -0.694,0.248 -0.934,0.489 0.033,0.123 0.052,0.219 0.079,0.354 0.23,-0.279 0.563,-0.419 0.908,-0.494 0.494,-0.101 0.797,0.435 1.285,0.402 0.418,-0.026 0.686,-0.434 1.102,-0.423 0.383,0.011 0.745,0.434 1.121,0.423 0.407,-0.016 0.727,-0.466 1.123,-0.44 0.328,0.028 0.657,0.365 0.976,0.397 0.4,0.054 0.762,-0.46 1.132,-0.38 0.252,0.048 0.459,0.182 0.625,0.38 z m -0.26,-2.998 c -0.094,-0.037 -0.169,-0.058 -0.271,-0.085 -0.37,-0.075 -0.74,0.435 -1.164,0.386 -0.332,-0.032 -0.665,-0.375 -1.016,-0.397 -0.416,-0.027 -0.746,0.429 -1.159,0.435 -0.388,0.011 -0.772,-0.413 -1.163,-0.424 -0.43,0 -0.719,0.402 -1.137,0.424 -0.523,0.032 -0.832,-0.499 -1.343,-0.397 -0.199,0.032 -0.397,0.113 -0.588,0.225 -0.064,0.134 -0.107,0.279 -0.158,0.434 0.171,-0.139 0.362,-0.22 0.59,-0.262 0.539,-0.097 0.869,0.434 1.408,0.407 0.447,-0.032 0.756,-0.429 1.193,-0.423 0.421,0.01 0.81,0.428 1.228,0.423 0.432,-0.016 0.78,-0.466 1.214,-0.445 0.365,0.032 0.72,0.37 1.068,0.408 0.431,0.042 0.874,-0.408 1.199,-0.37 0.099,0.016 0.185,0.037 0.257,0.07 -0.04,-0.14 -0.091,-0.269 -0.158,-0.409 m 31.396,3.819 -3.295,-4.665 -2.526,-3.551 -0.11,-0.247 -1.239,-1.683 1.167,0.397 0.536,1.158 h 0.418 l 0.885,1.378 0.306,0.467 0.206,0.01 v -0.176 l -0.498,-0.285 -0.014,-1.898 h 2.644 v 1.893 l -0.509,0.279 v 0.177 h 0.351 v 0.729 l -1.713,0.016 3.834,6.001 z m -31.914,-4.692 c -0.29,0.118 -0.563,0.381 -0.877,0.348 -0.337,-0.037 -0.681,-0.375 -1.024,-0.407 -0.405,-0.022 -0.745,0.429 -1.145,0.44 -0.41,0.01 -0.778,-0.408 -1.169,-0.419 -0.44,-0.005 -0.721,0.391 -1.145,0.419 -0.517,0.026 -0.823,-0.499 -1.338,-0.403 -0.056,0.054 -0.089,0.102 -0.132,0.156 -0.072,0.096 -0.144,0.203 -0.198,0.316 0.032,-0.016 0.065,-0.016 0.105,-0.032 0.536,-0.102 0.863,0.429 1.405,0.397 0.439,-0.027 0.743,-0.424 1.198,-0.413 0.419,0.005 0.794,0.429 1.22,0.413 0.432,0 0.786,-0.462 1.215,-0.434 0.359,0.026 0.727,0.369 1.067,0.407 0.4,0.043 0.791,-0.333 1.113,-0.37 -0.096,-0.145 -0.198,-0.284 -0.295,-0.418 m -6.674,-33.915 0.928,2.28 v 0.992 c 0.233,0.846 0.325,1.645 0.625,2.467 0.386,1.04 0.512,2.434 1.533,3.083 0.37,0.241 0.802,0.397 1.25,0.451 0.483,-0.531 0.874,-1.138 1.164,-1.792 0.273,-0.621 0.383,-1.303 0.536,-1.968 0.276,-1.206 0.437,-2.725 0.515,-3.958 l -3.609,-0.106 0.051,3.786 c 0.072,0.504 0.225,0.986 0.453,1.442 0.201,0.429 0.475,0.82 0.796,1.163 l -0.174,0.086 c -0.469,-0.177 -0.874,-0.487 -1.164,-0.89 -0.359,-0.499 -0.52,-1.105 -0.456,-1.71 l -0.174,-5.004 h 0.544 l -1.523,-1.99 c -0.442,0.542 -0.874,1.094 -1.295,1.668 m 6.143,33.368 c -0.102,0.048 -0.214,0.069 -0.327,0.059 -0.332,-0.033 -0.678,-0.365 -1.014,-0.397 -0.412,-0.027 -0.758,0.423 -1.163,0.434 -0.4,0.011 -0.773,-0.402 -1.167,-0.424 -0.426,0 -0.715,0.397 -1.139,0.424 -0.261,0.016 -0.48,-0.113 -0.7,-0.242 -0.131,0.108 -0.255,0.215 -0.365,0.339 0.287,0.128 0.561,0.364 0.923,0.343 0.447,-0.027 0.756,-0.429 1.193,-0.424 0.421,0.006 0.81,0.435 1.228,0.424 0.432,-0.011 0.78,-0.467 1.214,-0.44 0.365,0.022 0.72,0.37 1.068,0.408 0.199,0.016 0.41,-0.07 0.609,-0.161 -0.111,-0.118 -0.231,-0.236 -0.36,-0.343 m 4.347,-2.95 -0.874,-0.552 -1.167,4.944 0.285,0.858 h -0.47 c 0.188,1.212 -0.099,2.677 -0.672,3.727 -0.679,1.03 -1.706,1.722 -2.892,2.06 v 2.74 h 5.79 z m 4.341,-41.793 c 0.842,0.939 2.555,3.717 2.955,4.285 0.911,1.368 0.598,1.416 0.869,2.58 l 0.051,1.652 0.844,0.032 -0.603,3.99 c -0.056,0.933 -0.309,1.839 -0.729,2.67 -0.29,0.59 -0.668,1.121 -1.129,1.604 l 0.89,0.563 0.92,-1.142 c 0.67,-0.836 0.85,-1.942 1.169,-2.955 0.641,-1.99 0.126,-4.693 -0.159,-7.015 -0.252,-0.278 -0.123,-0.123 -0.437,-0.043 -0.144,0.312 -0.375,0.832 -0.56,0.231 l 0.341,-1.088 -0.483,-0.751 -0.711,-0.756 0.159,-0.253 c 0.362,0.064 0.611,0.344 0.887,0.569 0.124,0.171 0.18,0.214 0.41,0.321 0.48,0.285 0.014,-0.729 0.046,-1.11 0.046,-0.381 -0.062,-0.605 0.019,-0.954 -1.483,-0.944 -3.071,-1.759 -4.749,-2.43 m -1.845,8.115 0.467,2.096 v 0.885 c 0.209,0.768 0.286,1.48 0.56,2.226 0.351,0.933 0.456,2.188 1.376,2.772 0.34,0.221 0.721,0.359 1.123,0.402 0.435,-0.466 0.797,-1.018 1.051,-1.614 0.253,-0.557 0.349,-1.169 0.483,-1.769 0.252,-1.078 0.394,-2.451 0.466,-3.561 l -3.249,-0.097 0.045,3.411 c 0.067,0.456 0.199,0.885 0.405,1.297 0.185,0.392 0.435,0.741 0.719,1.052 l -0.153,0.07 c -0.429,-0.156 -0.793,-0.435 -1.048,-0.799 -0.322,-0.446 -0.472,-0.993 -0.413,-1.539 l -0.159,-4.505 h 0.494 l -0.335,-2.671 -0.502,1.009 c -0.22,0.461 -0.286,-0.172 -0.303,-0.333 l -0.152,-1.931 z m -9.42,-0.971 c 0.545,0.343 1.078,0.724 1.564,1.142 0.335,0.274 0.654,0.569 0.952,0.874 0.421,0.435 0.753,0.976 0.718,1.593 l -0.056,1.019 0.938,0.038 -0.67,4.44 c -0.065,1.025 -0.338,2.033 -0.804,2.95 -0.325,0.654 -0.754,1.254 -1.255,1.786 l 0.981,0.632 1.027,-1.277 c 0.751,-0.937 0.942,-2.161 1.3,-3.281 0.703,-2.21 0.137,-5.207 -0.176,-7.793 -0.504,-4.107 -0.014,0.72 -0.36,0.81 -0.244,0.059 -0.496,-0.048 -0.627,-0.273 v -0.719 l -0.354,-1.421 -0.716,-1.078 0.18,-0.268 c 0.391,0.075 0.753,0.29 0.984,0.628 0.129,0.176 0.219,0.396 0.268,0.627 0.07,-0.413 0.132,-0.831 0.179,-1.255 0.059,-0.59 0.073,-1.191 0.086,-1.781 0.008,-0.364 0.008,-0.718 0.008,-1.067 -1.491,1.11 -2.871,2.339 -4.167,3.674 m 9.444,-6.881 2.529,5.766 0.113,1.517 -0.03,0.944 2.47,0.01 -0.159,-1.485 c -0.075,-0.831 -0.147,-1.132 -0.573,-2.043 -0.421,-0.359 -2.572,-4.172 -3.368,-5.176 -0.338,0.161 -0.652,0.301 -0.982,0.467 m -23.178,54.24 5.076,-5.122 -2.107,6.5 z m 11.873,-45.289 1.647,1.941 0.394,0.558 2.317,0.054 v -1.175 c -0.027,-0.467 -0.344,-0.852 -0.681,-1.169 -0.314,-0.295 -0.627,-0.579 -0.957,-0.858 -0.405,-0.343 -0.826,-0.681 -1.253,-0.992 -0.501,0.531 -0.989,1.084 -1.467,1.641 m -0.281,31.796 h 3.829 l -0.557,0.971 c 0.077,0.139 -0.135,0.129 0,0.225 0.115,0.086 0.115,0.236 0.235,0.322 0.26,0.177 0.308,0.381 0.368,0.697 -0.123,-0.048 -0.26,-0.075 -0.387,-0.118 -0.351,-0.129 -0.493,0 -0.809,-0.252 -0.129,-0.108 -0.247,-0.252 -0.336,-0.402 0.038,0.112 0.076,0.225 0.092,0.343 0.016,0.037 0.016,0.08 0.021,0.113 -0.126,0.032 -0.249,0 -0.349,-0.076 -0.077,-0.069 -0.061,-0.203 -0.149,-0.246 -0.03,-0.011 -0.067,-0.022 -0.089,-0.022 -0.046,0.022 -0.089,0.059 -0.132,0.102 -0.058,0.054 -0.107,0.134 -0.128,0.225 -0.04,-0.037 -0.062,-0.091 -0.073,-0.134 -0.032,-0.08 -0.032,-0.171 0,-0.246 -0.056,0.075 -0.117,0.155 -0.184,0.209 -0.105,0.091 -0.226,0.134 -0.349,0.188 -0.084,0.037 -0.161,0.064 -0.257,0.085 -0.033,-0.102 -0.033,-0.214 0,-0.316 0.037,-0.113 0.12,-0.209 0.227,-0.268 -0.16,0.069 -0.297,0.171 -0.423,0.295 -0.102,0.118 -0.143,0.289 -0.269,0.386 -0.126,0.107 -0.313,0.123 -0.48,0.188 -0.153,0.064 -0.045,0.005 -0.187,0.08 0.043,-0.225 0.043,-0.359 0.187,-0.526 0.167,-0.203 0.188,-0.257 0.328,-0.477 0.085,-0.113 0.174,-0.182 0.268,-0.289 0.145,-0.161 -0.081,-0.252 0.134,-0.215 z m 2.928,2.789 c -0.241,0.123 -0.493,0.321 -0.764,0.327 -0.37,0.016 -0.722,-0.354 -1.075,-0.413 -0.33,0.037 -0.636,0.113 -0.955,0.252 -0.217,0.112 -0.486,0.263 -0.673,0.424 0.094,0.037 0.193,0.053 0.311,0.048 0.456,-0.032 0.751,-0.429 1.191,-0.424 0.423,0.016 0.812,0.429 1.236,0.424 0.437,-0.011 0.782,-0.472 1.209,-0.44 0.056,0 0.292,0.032 0.354,0.043 -0.099,-0.043 -0.394,-0.107 -0.499,-0.139 -0.102,-0.038 -0.219,-0.065 -0.338,-0.092 z m 20.468,-37.191 -0.363,1.507 0.349,1.56 v 0.67 c 0.158,0.574 0.214,1.11 0.424,1.663 0.257,0.702 0.345,1.647 1.029,2.091 0.255,0.156 0.547,0.253 0.85,0.301 0.327,-0.36 0.593,-0.773 0.78,-1.212 0.188,-0.424 0.261,-0.88 0.365,-1.324 0.081,-0.349 0.142,-0.73 0.196,-1.111 -0.421,-0.568 -0.85,-1.094 -1.29,-1.614 l -0.992,-0.021 0.032,2.557 c 0.051,0.333 0.15,0.66 0.303,0.971 0.148,0.29 0.33,0.542 0.545,0.783 l -0.121,0.06 c -0.316,-0.124 -0.595,-0.329 -0.786,-0.602 -0.241,-0.332 -0.357,-0.739 -0.311,-1.158 l -0.123,-3.378 h 0.37 l -0.056,-0.505 c -0.392,-0.418 -0.791,-0.836 -1.201,-1.238 m -23.018,21.193 1.081,-0.263 c 0.244,-0.112 0.432,-0.295 0.539,-0.536 0.126,-0.289 -0.116,-0.611 0,-0.895 0.118,-0.289 0.509,-0.343 0.622,-0.628 0.145,-0.354 0.117,-0.75 -0.086,-1.072 l 0.265,-0.274 0.536,0.542 c 0.119,-0.07 0.21,-0.15 0.269,-0.268 0.128,-0.236 0.04,-0.553 -0.019,-0.789 -0.097,-0.322 -0.309,-0.557 -0.515,-0.815 -0.364,-0.268 -0.761,-0.519 -1.164,-0.724 -0.48,-0.247 -1.499,-0.97 -1.544,0.043 l 0.016,0.494 0.091,0.096 0.748,0.3 -0.313,0.333 -0.427,0.166 -0.187,0.086 -0.295,0.306 c 0.281,0.09 0.381,0.364 0.104,0.622 l -0.313,0.241 0.335,0.66 0.362,-0.097 0.576,-0.102 0.322,-0.177 c 0.394,-0.187 0.233,0.483 0.045,0.687 -0.225,0.247 -0.362,0.606 -0.707,0.686 l -0.443,0.118 z m -9.21,13.997 h -3.851 v 1.7 h 3.851 z m 21.671,-18.883 0.976,-0.24 c 0.214,-0.092 0.386,-0.258 0.479,-0.477 0.111,-0.263 -0.102,-0.553 0,-0.805 0.103,-0.258 0.462,-0.306 0.569,-0.568 0.126,-0.317 0.102,-0.676 -0.08,-0.966 l 0.239,-0.241 0.479,0.488 c 0.105,-0.059 0.19,-0.134 0.244,-0.247 0.11,-0.203 0.03,-0.493 -0.027,-0.702 -0.08,-0.29 -0.273,-0.499 -0.455,-0.746 -0.327,-0.242 -0.684,-0.456 -1.046,-0.638 -0.437,-0.22 -1.36,-0.879 -1.395,0.027 l 0.017,0.455 0.085,0.075 0.671,0.274 -0.279,0.301 -0.389,0.15 -0.169,0.085 -0.268,0.269 c 0.255,0.08 0.343,0.337 0.099,0.563 l -0.281,0.214 0.298,0.596 0.326,-0.097 0.513,-0.086 0.292,-0.161 c 0.359,-0.166 0.214,0.434 0.043,0.623 -0.198,0.224 -0.322,0.541 -0.631,0.621 l -0.404,0.103 z m -11.721,-1.662 3.312,0.982 -3.218,-1.529 z m 4.02,12.2 c 0.085,0.189 0.19,0.328 0.316,0.499 0.381,0.317 0.939,0.703 1.512,0.703 -0.158,-0.032 -0.292,-0.107 -0.405,-0.23 -0.126,-0.118 -0.118,-0.145 -0.26,-0.307 0.225,-0.047 0.346,-0.047 0.585,-0.004 0.351,0.043 1.265,0.289 1.611,0.456 -0.305,-0.473 -0.852,-0.843 -1.359,-1.02 -0.659,-0.171 -1.287,-0.203 -2,-0.097 m 15.452,-0.037 c -0.71,-0.107 -1.343,-0.069 -2.003,0.102 -0.512,0.172 -1.059,0.547 -1.356,1.014 0.348,-0.162 1.254,-0.414 1.608,-0.467 0.236,-0.027 0.365,-0.027 0.588,0.021 -0.142,0.161 -0.134,0.183 -0.26,0.301 -0.11,0.123 -0.252,0.193 -0.402,0.226 0.573,0 1.126,-0.376 1.501,-0.698 0.129,-0.172 0.241,-0.311 0.324,-0.499 m -21.073,0.279 c 0.07,0.188 0.169,0.349 0.284,0.515 0.365,0.354 0.88,0.767 1.454,0.815 -0.158,-0.048 -0.282,-0.123 -0.386,-0.268 -0.123,-0.107 -0.097,-0.134 -0.234,-0.311 0.223,-0.037 0.352,-0.021 0.582,0.027 0.344,0.08 1.234,0.392 1.577,0.579 -0.276,-0.499 -0.807,-0.842 -1.306,-1.046 -0.665,-0.155 -1.158,-0.332 -1.971,-0.311 m 26.68,-0.037 c -0.815,-0.016 -1.303,0.144 -1.97,0.316 -0.502,0.209 -1.03,0.547 -1.298,1.04 0.33,-0.182 1.225,-0.493 1.571,-0.579 0.228,-0.048 0.354,-0.059 0.579,-0.032 -0.131,0.182 -0.104,0.21 -0.233,0.322 -0.099,0.14 -0.231,0.22 -0.389,0.268 0.577,-0.048 1.091,-0.466 1.459,-0.81 0.112,-0.177 0.214,-0.338 0.281,-0.525 m -32.737,0.617 c 0.062,0.15 0.324,0.343 0.56,0.471 0.29,0.156 1.076,0.418 1.491,0.392 -0.118,-0.038 -0.324,-0.113 -0.405,-0.198 -0.099,-0.097 -0.128,-0.092 -0.241,-0.215 0.169,-0.048 0.344,-0.065 0.528,-0.022 0.266,0.038 1.089,0.188 1.371,0.322 -0.239,-0.365 -1.105,-0.638 -1.489,-0.793 -0.517,-0.167 -1.211,-0.071 -1.815,0.043 m 38.768,-0.011 c -0.593,-0.118 -1.295,-0.199 -1.808,-0.038 -0.385,0.144 -1.254,0.429 -1.487,0.788 0.27,-0.134 1.102,-0.289 1.364,-0.321 0.177,-0.038 0.365,-0.033 0.528,0.016 -0.101,0.123 -0.141,0.123 -0.241,0.219 -0.078,0.086 -0.287,0.156 -0.399,0.199 0.404,0.022 1.193,-0.236 1.496,-0.386 0.222,-0.128 0.488,-0.338 0.547,-0.477 m -35.108,3.41 c 0.606,0.017 1.571,-0.224 2.046,-0.461 0.362,-0.215 0.732,-0.595 0.904,-0.981 -0.263,0.177 -0.92,0.52 -1.191,0.611 -0.169,0.059 -0.271,0.08 -0.45,0.08 0.086,-0.138 0.067,-0.16 0.158,-0.278 0.069,-0.097 0.158,-0.188 0.271,-0.236 -0.445,0.107 -1.097,0.472 -1.36,0.767 -0.067,0.145 -0.273,0.332 -0.378,0.498 m 31.491,-0.037 c -0.105,-0.172 -0.314,-0.359 -0.384,-0.504 -0.26,-0.29 -0.917,-0.654 -1.365,-0.762 0.124,0.048 0.212,0.145 0.285,0.247 0.077,0.107 0.059,0.124 0.15,0.268 -0.18,0 -0.279,-0.026 -0.445,-0.08 -0.268,-0.086 -0.928,-0.435 -1.188,-0.611 0.169,0.391 0.533,0.777 0.89,0.986 0.485,0.23 1.445,0.478 2.057,0.456 m -15.129,-20.594 2.982,0.88 -2.899,-1.368 z m 23.092,18.846 c -0.461,-0.221 -1.021,-0.445 -1.469,-0.413 -0.335,0.048 -1.107,0.097 -1.375,0.349 0.268,-0.049 0.962,-0.011 1.192,0.015 0.148,0 0.29,0.06 0.416,0.129 -0.118,0.086 -0.139,0.075 -0.233,0.123 -0.083,0.07 -0.271,0.07 -0.365,0.092 0.319,0.101 1.014,0.048 1.285,-0.022 0.22,-0.059 0.477,-0.167 0.549,-0.273 m -47.42,0.026 c 0.072,0.102 0.329,0.209 0.552,0.28 0.263,0.058 0.963,0.112 1.281,0.015 -0.09,-0.015 -0.284,-0.026 -0.366,-0.091 -0.097,-0.053 -0.116,-0.038 -0.228,-0.124 0.123,-0.069 0.265,-0.123 0.418,-0.133 0.225,-0.033 0.917,-0.059 1.182,-0.011 -0.271,-0.258 -1.029,-0.3 -1.372,-0.349 -0.451,-0.032 -1.004,0.194 -1.467,0.413 m 34.818,-16.726 0.732,-0.177 c 0.163,-0.07 0.287,-0.198 0.362,-0.365 0.085,-0.194 -0.078,-0.412 0,-0.595 0.083,-0.198 0.343,-0.236 0.423,-0.43 0.097,-0.23 0.076,-0.508 -0.056,-0.717 l 0.169,-0.183 0.365,0.359 c 0.086,-0.038 0.142,-0.102 0.187,-0.176 0.092,-0.162 0.022,-0.381 -0.021,-0.537 -0.056,-0.214 -0.204,-0.371 -0.349,-0.552 -0.238,-0.183 -0.509,-0.349 -0.782,-0.484 -0.325,-0.166 -1.014,-0.665 -1.041,0.017 l 0.011,0.343 0.061,0.064 0.512,0.199 -0.222,0.225 -0.287,0.118 -0.129,0.059 -0.193,0.204 c 0.185,0.064 0.252,0.252 0.073,0.418 l -0.215,0.161 0.228,0.45 0.244,-0.063 0.384,-0.071 0.217,-0.129 c 0.268,-0.118 0.163,0.328 0.032,0.473 -0.15,0.166 -0.241,0.402 -0.475,0.461 l -0.303,0.08 z m -0.984,18.384 c -0.027,-0.151 -0.072,-0.301 -0.134,-0.44 -0.226,-0.327 -0.561,-0.724 -0.998,-0.858 0.104,0.064 0.19,0.155 0.255,0.257 0.075,0.124 0.054,0.134 0.134,0.29 -0.182,-0.011 -0.282,-0.054 -0.451,-0.119 -0.254,-0.101 -0.89,-0.493 -1.134,-0.697 0.134,0.413 0.483,0.816 0.829,1.063 0.464,0.267 0.888,0.471 1.499,0.504 m -4.899,-0.687 c -0.024,-0.155 -0.067,-0.295 -0.129,-0.439 -0.23,-0.328 -0.568,-0.725 -1.002,-0.859 0.107,0.054 0.198,0.151 0.252,0.252 0.074,0.123 0.058,0.14 0.141,0.295 -0.182,-0.011 -0.279,-0.043 -0.445,-0.118 -0.257,-0.112 -0.904,-0.498 -1.137,-0.697 0.132,0.408 0.475,0.815 0.818,1.051 0.467,0.274 0.893,0.483 1.502,0.515 m -25.587,1.035 c 0.612,-0.038 1.044,-0.247 1.508,-0.514 0.346,-0.242 0.686,-0.644 0.828,-1.057 -0.249,0.198 -0.882,0.59 -1.139,0.702 -0.177,0.07 -0.274,0.108 -0.446,0.113 0.073,-0.15 0.054,-0.172 0.124,-0.284 0.07,-0.113 0.155,-0.199 0.26,-0.263 -0.437,0.134 -0.772,0.526 -0.995,0.858 -0.064,0.144 -0.104,0.29 -0.14,0.445 m 40.71,0 c -0.032,-0.155 -0.075,-0.301 -0.137,-0.445 -0.228,-0.332 -0.566,-0.724 -1,-0.858 0.107,0.064 0.193,0.15 0.258,0.263 0.074,0.112 0.053,0.134 0.136,0.284 -0.182,-0.005 -0.276,-0.043 -0.445,-0.113 -0.265,-0.112 -0.901,-0.504 -1.14,-0.702 0.14,0.413 0.475,0.815 0.824,1.057 0.461,0.267 0.89,0.476 1.504,0.514 m -25.575,-1.029 c 0.611,-0.022 1.04,-0.236 1.498,-0.505 0.352,-0.241 0.69,-0.644 0.824,-1.057 -0.242,0.205 -0.869,0.591 -1.132,0.704 -0.166,0.064 -0.273,0.101 -0.45,0.112 0.085,-0.151 0.064,-0.166 0.139,-0.284 0.062,-0.113 0.145,-0.199 0.26,-0.263 -0.44,0.14 -0.78,0.525 -1.005,0.858 -0.059,0.145 -0.105,0.285 -0.134,0.435 m -4.931,0.728 c 0.603,-0.021 1.032,-0.241 1.498,-0.508 0.349,-0.242 0.69,-0.639 0.823,-1.057 -0.243,0.198 -0.876,0.59 -1.131,0.697 -0.172,0.07 -0.276,0.108 -0.45,0.118 0.083,-0.15 0.061,-0.177 0.139,-0.284 0.059,-0.107 0.147,-0.199 0.257,-0.262 -0.44,0.133 -0.777,0.525 -1.002,0.857 -0.067,0.14 -0.108,0.295 -0.134,0.439 m -13.089,16.647 1.33,0.611 0.945,-2.927 z m 34.848,-39.486 2.245,0.659 -2.18,-1.019 z m 3.089,-3.33 c -0.083,0.653 -0.319,1.425 -0.606,1.978 -0.222,0.435 -0.504,0.837 -0.842,1.201 l 0.668,0.429 0.689,-0.863 c 0.41,-0.52 0.58,-1.159 0.751,-1.796 -0.226,-0.323 -0.443,-0.639 -0.66,-0.949 m 11.091,29.108 c 0.013,-0.348 -0.057,-0.686 -0.204,-0.997 -0.217,-0.493 -0.596,-0.895 -1.073,-1.142 0.107,0.123 0.206,0.273 0.279,0.434 0.075,0.172 0.129,0.37 0.161,0.558 -0.172,-0.091 -0.333,-0.198 -0.474,-0.333 -0.223,-0.187 -0.422,-0.434 -0.569,-0.702 0.153,0.477 0.407,0.922 0.727,1.287 0.324,0.381 0.713,0.681 1.153,0.895 m -51.548,0.017 c 0.44,-0.22 0.826,-0.52 1.148,-0.896 0.321,-0.381 0.573,-0.815 0.726,-1.287 -0.145,0.263 -0.34,0.51 -0.563,0.708 -0.139,0.123 -0.303,0.236 -0.472,0.327 0.024,-0.198 0.078,-0.386 0.158,-0.563 0.078,-0.156 0.175,-0.3 0.282,-0.434 -0.478,0.246 -0.861,0.648 -1.078,1.142 -0.142,0.311 -0.209,0.649 -0.201,1.003 m 10.09,-27.254 0.072,2.569 1.43,-1.523 -0.673,-2.252 c -0.282,0.39 -0.558,0.798 -0.829,1.206 m -2.292,28.476 h -1.411 v 1.7 h 1.411 z m 15.241,-31.871 -0.102,2.279 1.281,-1.362 -0.08,-1.137 c -0.274,-0.992 -0.949,-0.423 -1.099,0.22 m -18.282,38.596 0.96,-0.965 v -3.395 h -0.96 z m -0.017,9.509 v 2.118 h 0.956 v -2.966 l -0.363,1.121 z m 30.083,-48.566 -0.077,1.716 0.971,-1.019 -0.065,-0.858 c -0.209,-0.74 -0.713,-0.322 -0.829,0.161 m -29.117,32.332 h -0.952 v 1.7 h 0.952 z m 9.61,1.894 c -0.128,-0.027 -0.23,-0.038 -0.356,-0.049 -0.099,-0.005 -0.188,0.049 -0.282,0.059 0.131,0.054 0.271,0.038 0.397,0.038 0.083,0 0.161,-0.027 0.241,-0.048 m 23.741,3.738 0.904,-0.854 c -0.07,-0.262 -0.228,-0.482 -0.485,-0.573 -0.252,-0.113 -0.526,0.005 -0.738,0.156 z m 1.773,-0.188 c 0.818,0.643 1.622,1.201 2.588,1.416 0.884,0.149 1.962,0.278 2.844,0.043 z m -8.79,-2.317 c 0.823,0.638 1.832,1.314 2.872,1.48 0.89,0.15 1.923,0.284 2.799,0.038 z m 8.862,10.302 0.137,-0.365 c 0.804,0.22 1.662,0.274 2.499,0.118 l -0.08,0.397 c -0.161,0.027 -0.325,0.049 -0.496,0.059 -0.698,0.064 -1.392,-0.01 -2.06,-0.209 m -7.505,-1.839 0.113,-0.381 c 0.815,0.225 1.675,0.284 2.518,0.118 0.088,-0.011 0.192,-0.038 0.275,-0.065 l -0.112,0.424 c -0.255,0.053 -0.491,0.086 -0.729,0.102 -0.698,0.07 -1.4,-0.016 -2.065,-0.198 m 0.702,-2.634 0.132,-0.391 c 0.797,0.231 1.66,0.279 2.499,0.134 0.086,-0.022 0.161,-0.048 0.241,-0.065 l -0.112,0.419 c -0.231,0.048 -0.461,0.075 -0.692,0.091 -0.698,0.07 -1.4,-0.005 -2.068,-0.188 m 4.136,5.379 0.123,-0.396 c 0.715,0.547 1.558,0.906 2.443,1.056 0.755,0.118 1.52,0.091 2.257,-0.096 l -0.118,0.401 c -0.936,0.209 -1.909,0.194 -2.831,-0.064 -0.679,-0.187 -1.301,-0.482 -1.874,-0.901 m 1.356,-4.489 c 0.681,0.499 1.461,0.832 2.301,0.966 0.809,0.139 1.652,0.086 2.45,-0.129 l -0.125,0.397 c -0.987,0.258 -2.03,0.258 -3.017,-0.027 -0.614,-0.161 -1.21,-0.445 -1.732,-0.799 z m -1.145,3.69 0.142,-0.391 c 0.703,0.536 1.545,0.89 2.427,1.051 0.767,0.118 1.539,0.086 2.298,-0.097 l -0.137,0.397 c -0.936,0.209 -1.92,0.193 -2.858,-0.064 -0.665,-0.177 -1.285,-0.483 -1.84,-0.885 z m 1.352,-4.462 c 0.668,0.473 1.418,0.772 2.238,0.912 0.848,0.15 1.722,0.081 2.526,-0.166 l -0.107,0.407 c -1.019,0.284 -2.097,0.295 -3.118,0.006 -0.59,-0.161 -1.153,-0.43 -1.658,-0.767 z m -1.668,5.663 c 0.702,0.521 1.515,0.869 2.383,1.014 0.786,0.129 1.575,0.097 2.333,-0.102 l -0.118,0.392 c -0.951,0.23 -1.957,0.23 -2.914,-0.054 -0.644,-0.167 -1.253,-0.461 -1.797,-0.836 z m -6.135,-6.113 c 0.686,0.499 1.477,0.831 2.322,0.96 0.826,0.15 1.654,0.091 2.451,-0.118 l -0.113,0.391 c -0.984,0.258 -2.041,0.252 -3.033,-0.026 -0.619,-0.167 -1.225,-0.456 -1.756,-0.81 z m -1.346,4.167 c 0.697,0.514 1.517,0.868 2.383,1.019 0.877,0.139 1.781,0.08 2.609,-0.199 l -0.115,0.413 c -1.04,0.3 -2.153,0.311 -3.191,0.011 -0.643,-0.172 -1.268,-0.472 -1.818,-0.853 z m 0.26,-0.805 c 0.691,0.504 1.498,0.842 2.343,0.982 0.88,0.15 1.767,0.085 2.62,-0.183 l -0.113,0.408 c -1.043,0.306 -2.164,0.316 -3.207,0.016 -0.619,-0.166 -1.233,-0.445 -1.772,-0.826 z m 0.855,-2.601 c 0.711,0.537 1.542,0.885 2.411,1.046 0.801,0.123 1.611,0.091 2.383,-0.129 l -0.102,0.397 c -0.97,0.252 -2.003,0.242 -2.97,-0.037 -0.665,-0.183 -1.274,-0.488 -1.851,-0.88 z m -0.611,1.834 c 0.702,0.526 1.517,0.874 2.373,1.014 0.855,0.15 1.724,0.086 2.536,-0.166 l -0.11,0.407 c -1.003,0.295 -2.086,0.29 -3.118,0.011 -0.646,-0.177 -1.258,-0.477 -1.799,-0.858 z m 8.017,-4.494 -2.306,8.967 c 0.617,0.89 1.143,1.539 2.156,1.931 1.545,0.6 3.03,0.836 4.467,0.027 l 2.475,-9.225 c -1.217,0.354 -2.499,0.145 -3.735,-0.149 -1.118,-0.269 -2.17,-0.805 -3.057,-1.551 m -7.462,-1.812 -2.649,9.047 c 0.63,0.89 1.485,1.453 2.493,1.845 1.547,0.611 3.271,0.482 4.717,-0.322 l 2.25,-9.122 c -1.223,0.364 -2.529,0.397 -3.76,0.096 -1.123,-0.273 -2.172,-0.793 -3.051,-1.544 m -4.564,6.274 2.515,-9.385 8.232,2.081 c 0.4,-0.525 1.083,-0.638 1.729,-0.482 0.668,0.16 1.145,0.627 1.237,1.314 l 7.752,2.166 -2.357,9.047 -2.086,1.517 -0.218,0.934 c -1.416,0.466 -2.981,0.477 -4.405,-0.011 -1.252,-0.44 -2.368,-1.223 -3.178,-2.268 -1.308,0.584 -2.737,0.777 -4.143,0.461 -1.549,-0.36 -2.986,-1.228 -3.912,-2.521 l 0.282,-0.906 z m -22.811,-39.835 1.303,1.566 -1.968,-0.557 z m 1.778,2.494 0.547,-0.842 -2.915,-3.76 -0.528,0.811 0.635,0.75 -0.895,1.379 -0.957,-0.269 -0.529,0.799 z m 19.923,-21.135 c 0.641,-0.006 1.107,0.375 1.129,1.367 -0.016,0.596 -0.158,0.971 -0.324,1.201 -0.228,0.252 -0.467,0.419 -1.03,0.419 l -0.633,0.005 -0.019,-2.992 z m -1.805,3.733 1.945,-0.005 c 0.973,-0.011 1.892,-0.773 1.881,-2.296 -0.01,-1.432 -0.935,-2.21 -1.887,-2.21 l -1.963,0.022 z m -17.842,10.645 c 0.399,-0.493 1.003,-0.628 1.783,0 0.459,0.37 0.652,0.719 0.703,1.003 0.077,0.332 0.04,0.611 -0.311,1.051 l -0.403,0.488 -2.316,-1.866 z m 1.754,3.732 1.233,-1.528 c 0.609,-0.757 0.579,-1.958 -0.595,-2.896 -1.113,-0.896 -2.298,-0.681 -2.898,0.064 l -1.242,1.534 z m 7.32,-14.152 0.797,-0.52 2.456,3.769 -0.805,0.516 z m 29.281,7.883 0.625,0.714 -3.405,2.938 -0.617,-0.713 z m -47.657,16.651 1.317,-2.831 0.708,0.338 -0.928,1.979 3.37,1.577 -0.399,0.842 z m 38.195,-25.36 0.777,0.525 -0.952,1.416 -0.282,3.154 -0.814,-0.542 0.281,-2.188 -1.89,1.115 -0.834,-0.563 2.764,-1.49 z m -4.824,-2.676 2.742,1.507 -0.372,0.681 -1.931,-1.051 -1.78,3.261 -0.818,-0.446 z m 22.926,25.393 0.38,0.847 -3.413,1.539 0.56,1.255 -0.686,0.306 -1.507,-3.336 0.681,-0.31 0.569,1.244 z m -11.927,-17.515 2.203,2.231 -0.551,0.552 -1.556,-1.571 -2.641,2.622 -0.649,-0.665 z m 5.03,8.634 0.665,0.906 c 0.308,-0.267 0.614,-0.954 0.161,-1.593 -0.386,-0.536 -1.156,-0.734 -2.049,-0.09 -0.74,0.541 -1.059,1.377 -0.592,2.01 0.318,0.435 0.828,0.569 1.278,0.381 l 0.516,0.751 c -0.424,0.198 -0.786,0.226 -1.148,0.151 -0.467,-0.086 -0.917,-0.36 -1.298,-0.88 -0.804,-1.111 -0.338,-2.424 0.705,-3.181 0.644,-0.466 1.266,-0.595 1.84,-0.482 0.576,0.091 0.976,0.37 1.262,0.755 0.175,0.243 0.301,0.505 0.357,0.794 0.041,0.323 -0.016,0.575 -0.12,0.789 l 0.501,-0.311 0.413,0.563 -1.928,1.394 -1.131,-1.555 z m -28.881,-14.57 0.796,-0.441 1.504,2.623 0.097,-3.551 0.839,-0.477 2.22,3.899 -0.788,0.461 -1.51,-2.649 -0.139,3.598 -0.783,0.441 z m -18.502,21.933 1.609,-2.966 0.681,0.376 -1.161,2.129 1.08,0.59 1.014,-1.866 0.654,0.353 -1.013,1.867 0.868,0.471 1.148,-2.101 0.668,0.359 -1.596,2.934 z m 51.016,-4.666 0.448,0.805 -1.732,0.966 0.882,1.565 1.727,-0.965 0.453,0.804 -3.928,2.199 -0.454,-0.815 1.553,-0.864 -0.871,-1.571 -1.537,0.88 -0.472,-0.81 z m -39.017,-12.222 0.735,-0.573 1.008,1.286 0.665,0.092 -0.161,-2.569 0.888,-0.702 0.163,3.336 2.441,0.338 -0.907,0.707 -2.427,-0.365 1.092,1.41 -0.714,0.575 z" /></g><g
           transform="translate(29.0342,91.7437)"
           id="g24"><path
             id="path26"
             style="fill:#3a3338;fill-opacity:1;fill-rule:nonzero;stroke:none"
             d="M 0,0 C 0.399,0.145 0.56,0.542 0.37,1.094 0.142,1.748 -0.298,2.043 -0.713,1.898 -1.105,1.765 -1.274,1.362 -1.083,0.815 -0.85,0.161 -0.416,-0.145 0,0 m -1.821,0.466 c -0.123,0.349 -0.086,0.767 0.121,1.138 0.179,0.332 0.485,0.579 0.866,0.713 0.86,0.3 1.649,-0.048 1.931,-0.842 C 1.22,1.126 1.187,0.697 0.979,0.338 0.799,0 0.493,-0.247 0.107,-0.381 -0.746,-0.676 -1.544,-0.322 -1.821,0.466" /></g><g
           transform="translate(31.9888,92.7627)"
           id="g28"><path
             id="path30"
             style="fill:#3a3338;fill-opacity:1;fill-rule:nonzero;stroke:none"
             d="M 0,0 C 0.271,0.081 0.356,0.29 0.257,0.638 L -0.118,1.904 C -0.209,2.215 -0.306,2.263 -0.405,2.312 L 0.633,2.623 C 0.523,2.44 0.561,2.301 0.62,2.113 L 1.118,0.418 C 1.172,0.236 1.22,0.097 1.402,0 L 0.539,-0.257 0.453,0.021 c -0.142,-0.3 -0.343,-0.482 -0.651,-0.568 -0.266,-0.075 -0.496,-0.054 -0.692,0.07 -0.204,0.139 -0.293,0.337 -0.381,0.644 L -1.649,1.448 C -1.708,1.636 -1.743,1.77 -1.933,1.861 l 1.032,0.306 C -1.005,1.984 -0.971,1.855 -0.912,1.663 L -0.544,0.408 C -0.442,0.059 -0.25,-0.075 0,0" /></g><g
           transform="translate(34.5654,95.0313)"
           id="g32"><path
             id="path34"
             style="fill:#3a3338;fill-opacity:1;fill-rule:nonzero;stroke:none"
             d="m 0,0 c -0.059,0.241 -0.238,0.359 -0.474,0.3 -0.019,0 -0.035,-0.01 -0.054,-0.016 l 0.225,-0.906 C -0.032,-0.472 0.067,-0.258 0,0 m -0.858,-2.188 c 0.113,0.177 0.083,0.322 0.032,0.504 l -0.428,1.716 c -0.049,0.193 -0.084,0.327 -0.269,0.429 l 1.03,0.258 C 0.19,0.89 0.593,0.746 0.708,0.268 0.783,-0.016 0.679,-0.258 0.386,-0.494 L 1.075,-1.201 C 1.183,-1.303 1.333,-1.421 1.54,-1.544 L 1.107,-1.7 C 1.073,-1.716 1.038,-1.722 1.003,-1.732 0.708,-1.807 0.521,-1.7 0.263,-1.411 l -0.515,0.585 0.169,-0.67 c 0.051,-0.188 0.089,-0.328 0.271,-0.429 z" /></g><g
           transform="translate(38.9043,94.3608)"
           id="g36"><path
             id="path38"
             style="fill:#3a3338;fill-opacity:1;fill-rule:nonzero;stroke:none"
             d="M 0,0 C 0.416,0.08 0.638,0.45 0.525,1.024 0.396,1.705 0.008,2.059 -0.421,1.979 -0.834,1.904 -1.054,1.534 -0.947,0.965 -0.818,0.284 -0.432,-0.081 0,0 m -1.727,0.724 c -0.072,0.37 0.027,0.777 0.282,1.115 0.23,0.295 0.57,0.494 0.965,0.575 C 0.418,2.585 1.147,2.118 1.303,1.292 1.373,0.928 1.276,0.509 1.019,0.177 0.788,-0.124 0.448,-0.322 0.051,-0.397 -0.839,-0.563 -1.58,-0.091 -1.727,0.724" /></g><g
           transform="translate(41.3794,94.6235)"
           id="g40"><path
             id="path42"
             style="fill:#3a3338;fill-opacity:1;fill-rule:nonzero;stroke:none"
             d="M 0,0 C -0.25,0.161 -0.309,0.365 -0.405,0.579 L -1,1.947 C -1.033,2.022 -1.081,2.172 -1.306,2.402 L -0.458,2.515 0.295,0.719 0.432,1.882 C 0.445,2.006 0.45,2.113 0.442,2.183 0.421,2.349 0.33,2.461 0.222,2.617 l 0.85,0.118 C 1.072,2.676 1.075,2.633 1.078,2.623 1.102,2.451 1.153,2.354 1.179,2.301 L 1.762,0.928 1.912,2.285 C 1.922,2.381 1.92,2.461 1.914,2.515 1.896,2.644 1.815,2.719 1.729,2.821 L 2.408,2.917 2.059,0.054 C 1.791,0.064 1.592,0.102 1.451,0.193 1.236,0.333 1.179,0.52 1.083,0.724 L 0.745,1.486 0.549,-0.155 C 0.313,-0.134 0.134,-0.091 0,0" /></g><g
           transform="translate(44.2964,94.8433)"
           id="g44"><path
             id="path46"
             style="fill:#3a3338;fill-opacity:1;fill-rule:nonzero;stroke:none"
             d="M 0,0 0.794,0.075 C 0.614,0.22 0.582,0.37 0.566,0.58 0.558,0.633 0.555,0.681 0.547,0.735 L 0.458,1.732 1.378,0.74 C 1.655,0.44 1.88,0.172 2.48,0.161 L 2.282,2.236 C 2.279,2.274 2.274,2.312 2.271,2.344 2.252,2.526 2.252,2.703 2.373,2.96 L 1.598,2.885 C 1.797,2.682 1.829,2.504 1.845,2.322 1.848,2.279 1.853,2.242 1.855,2.194 L 1.941,1.245 0.555,2.794 -0.284,2.714 c 0.233,-0.21 0.255,-0.36 0.268,-0.553 L 0.124,0.703 C 0.15,0.413 0.169,0.22 0,0" /></g><g
           transform="translate(50.3486,96.9028)"
           id="g48"><path
             id="path50"
             style="fill:#3a3338;fill-opacity:1;fill-rule:nonzero;stroke:none"
             d="m 0,0 -0.891,-0.027 -0.013,0.595 c -0.005,0.199 -0.005,0.333 0.145,0.483 L -1.84,1.024 c 0.164,-0.139 0.164,-0.279 0.17,-0.472 l 0.047,-1.769 c 0,-0.193 0,-0.344 -0.147,-0.489 l 1.081,0.027 c -0.161,0.14 -0.166,0.284 -0.169,0.478 l -0.024,0.751 0.89,0.021 0.013,-0.745 c 0.008,-0.188 0.005,-0.344 -0.145,-0.489 l 1.086,0.027 c -0.161,0.14 -0.166,0.284 -0.174,0.478 L 0.745,0.611 c -0.005,0.193 0,0.338 0.145,0.483 L -0.193,1.067 c 0.158,-0.145 0.169,-0.279 0.171,-0.483 z" /></g><g
           transform="translate(52.8047,95.251)"
           id="g52"><path
             id="path54"
             style="fill:#3a3338;fill-opacity:1;fill-rule:nonzero;stroke:none"
             d="m 0,0 -1.078,0.005 c 0.153,0.145 0.156,0.295 0.156,0.483 l 0.01,1.77 c 0,0.193 0,0.338 -0.155,0.477 L 0.014,2.729 C -0.137,2.59 -0.145,2.451 -0.145,2.252 L -0.156,0.488 C -0.156,0.29 -0.153,0.145 0,0" /></g><g
           transform="translate(54.7461,96.6187)"
           id="g56"><path
             id="path58"
             style="fill:#3a3338;fill-opacity:1;fill-rule:nonzero;stroke:none"
             d="M 0,0 0.853,-0.021 0.807,-1.389 C 0.522,-1.454 0.252,-1.491 0,-1.485 -0.968,-1.448 -1.566,-0.837 -1.539,0 -1.51,0.82 -0.89,1.41 0.091,1.373 0.284,1.368 0.469,1.335 0.654,1.276 L 0.686,0.718 C 0.453,0.853 0.252,0.933 0.035,0.938 -0.437,0.955 -0.743,0.633 -0.767,0.032 c -0.022,-0.638 0.268,-1.046 0.719,-1.062 0.059,0 0.11,0 0.174,0.011 l 0.016,0.536 C 0.147,-0.284 0.155,-0.14 0,0" /></g><g
           transform="translate(57.958,97.2676)"
           id="g60"><path
             id="path62"
             style="fill:#3a3338;fill-opacity:1;fill-rule:nonzero;stroke:none"
             d="m 0,0 c 0.014,0.198 0.014,0.343 -0.128,0.493 l 1.08,-0.08 C 0.797,0.284 0.772,0.15 0.759,-0.059 L 0.639,-1.818 C 0.625,-2.011 0.623,-2.151 0.762,-2.312 l -1.086,0.081 c 0.166,0.134 0.182,0.273 0.198,0.472 l 0.051,0.745 -0.879,0.065 -0.059,-0.751 c -0.014,-0.188 -0.016,-0.338 0.126,-0.493 l -1.075,0.08 c 0.163,0.134 0.177,0.273 0.187,0.472 l 0.129,1.759 c 0.011,0.198 0.021,0.338 -0.124,0.488 L -0.694,0.531 C -0.855,0.402 -0.871,0.263 -0.887,0.064 l -0.04,-0.59 0.885,-0.064 z" /></g><g
           transform="translate(60.377,95.4707)"
           id="g64"><path
             id="path66"
             style="fill:#3a3338;fill-opacity:1;fill-rule:nonzero;stroke:none"
             d="m 0,0 0.07,-0.59 c 0.263,-0.123 0.517,-0.214 0.783,-0.241 0.648,-0.075 1.11,0.22 1.168,0.724 C 2.067,0.22 1.952,0.478 1.66,0.687 1.223,1.003 0.946,1.116 0.973,1.335 0.99,1.48 1.145,1.582 1.359,1.555 1.51,1.54 1.689,1.448 1.901,1.309 l 0.054,0.45 C 1.735,1.877 1.526,1.947 1.295,1.974 0.67,2.049 0.26,1.77 0.204,1.304 0.164,0.987 0.322,0.687 0.681,0.445 1.035,0.204 1.303,0.097 1.274,-0.15 1.252,-0.321 1.081,-0.434 0.826,-0.402 0.547,-0.37 0.292,-0.23 0,0" /></g><g
           transform="translate(64.147,94.2109)"
           id="g68"><path
             id="path70"
             style="fill:#3a3338;fill-opacity:1;fill-rule:nonzero;stroke:none"
             d="m 0,0 c -0.957,0.15 -1.478,0.831 -1.349,1.657 0.126,0.81 0.829,1.319 1.732,1.18 C 0.571,2.804 0.762,2.751 0.971,2.66 L 0.944,2.113 C 0.727,2.273 0.534,2.37 0.322,2.402 -0.115,2.467 -0.445,2.193 -0.531,1.635 -0.635,0.954 -0.378,0.504 0.196,0.413 0.469,0.375 0.748,0.418 1.07,0.525 L 0.812,0.005 C 0.52,-0.033 0.252,-0.038 0,0" /></g><g
           transform="translate(67.4316,95.3853)"
           id="g72"><path
             id="path74"
             style="fill:#3a3338;fill-opacity:1;fill-rule:nonzero;stroke:none"
             d="m 0,0 -0.866,0.166 0.11,0.579 c 0.035,0.193 0.067,0.327 0.244,0.44 L -1.574,1.389 C -1.445,1.217 -1.477,1.078 -1.51,0.885 l -0.329,-1.733 c -0.035,-0.193 -0.067,-0.332 -0.244,-0.45 l 1.062,-0.198 c -0.129,0.171 -0.102,0.311 -0.065,0.504 l 0.14,0.734 0.868,-0.16 -0.142,-0.741 C -0.252,-1.346 -0.29,-1.485 -0.466,-1.598 L 0.601,-1.797 C 0.48,-1.636 0.499,-1.485 0.534,-1.298 l 0.332,1.732 c 0.032,0.199 0.07,0.333 0.247,0.445 L 0.041,1.078 C 0.169,0.912 0.145,0.772 0.115,0.574 Z" /></g><g
           transform="translate(69.8691,93.5083)"
           id="g76"><path
             id="path78"
             style="fill:#3a3338;fill-opacity:1;fill-rule:nonzero;stroke:none"
             d="M 0,0 C 0.413,-0.097 0.764,0.155 0.896,0.724 1.048,1.399 0.839,1.882 0.41,1.984 0.005,2.075 -0.346,1.834 -0.477,1.265 -0.633,0.59 -0.426,0.102 0,0 m -1.29,1.356 c 0.083,0.365 0.338,0.703 0.706,0.907 C -0.254,2.44 0.14,2.494 0.531,2.402 1.421,2.193 1.907,1.48 1.716,0.665 1.636,0.3 1.378,-0.043 1.005,-0.242 0.673,-0.424 0.287,-0.472 -0.11,-0.381 -0.992,-0.177 -1.478,0.547 -1.29,1.356" /></g><g
           transform="translate(72.9849,92.7251)"
           id="g80"><path
             id="path82"
             style="fill:#3a3338;fill-opacity:1;fill-rule:nonzero;stroke:none"
             d="M 0,0 C 0.405,-0.113 0.764,0.124 0.92,0.687 1.102,1.357 0.912,1.85 0.485,1.963 0.083,2.076 -0.276,1.839 -0.434,1.282 -0.617,0.611 -0.429,0.118 0,0 m -1.242,1.416 c 0.103,0.354 0.37,0.681 0.743,0.869 0.341,0.161 0.735,0.198 1.124,0.091 C 1.507,2.14 1.958,1.4 1.738,0.59 1.641,0.23 1.37,-0.102 0.992,-0.279 0.652,-0.456 0.26,-0.482 -0.129,-0.375 -1.005,-0.139 -1.461,0.606 -1.242,1.416" /></g><g
           transform="translate(74.7759,92.3657)"
           id="g84"><path
             id="path86"
             style="fill:#3a3338;fill-opacity:1;fill-rule:nonzero;stroke:none"
             d="M 0,0 0.528,1.684 C 0.59,1.877 0.63,2.011 0.521,2.193 L 1.553,1.872 C 1.362,1.78 1.319,1.652 1.26,1.458 L 0.727,-0.241 c 0.126,-0.097 0.255,-0.161 0.394,-0.204 0.196,-0.059 0.373,-0.059 0.585,0.011 L 1.397,-0.938 -0.289,-0.413 C -0.102,-0.322 -0.053,-0.182 0,0" /></g><g
           transform="translate(123.9478,63.2456)"
           id="g88"><path
             id="path90"
             style="fill:#231f20;fill-opacity:1;fill-rule:nonzero;stroke:none"
             d="M 0,0 C 0,1.33 -0.281,2.392 -0.847,3.186 -1.445,4.038 -2.306,4.462 -3.435,4.462 -4.563,4.462 -5.433,4.038 -6.039,3.186 -6.604,2.392 -6.886,1.33 -6.886,0 c 0,-1.228 0.261,-2.236 0.781,-3.035 0.608,-0.928 1.499,-1.395 2.67,-1.395 1.172,0 2.062,0.467 2.671,1.395 C -0.254,-2.236 0,-1.228 0,0 m 1.676,0 c 0,-1.748 -0.456,-3.159 -1.37,-4.231 -0.912,-1.073 -2.159,-1.609 -3.741,-1.609 -1.582,0 -2.831,0.536 -3.749,1.609 -0.919,1.072 -1.378,2.483 -1.378,4.231 0,1.77 0.454,3.191 1.36,4.264 0.909,1.072 2.164,1.609 3.767,1.609 1.593,0 2.853,-0.548 3.784,-1.642 C 1.233,3.18 1.676,1.77 1.676,0" /></g><g
           transform="translate(136.4917,61.3901)"
           id="g92"><path
             id="path94"
             style="fill:#231f20;fill-opacity:1;fill-rule:nonzero;stroke:none"
             d="m 0,0 c 0,-1.309 -0.41,-2.306 -1.228,-3.003 -0.775,-0.654 -1.821,-0.981 -3.135,-0.981 -1.316,0 -2.357,0.327 -3.121,0.981 -0.829,0.686 -1.244,1.684 -1.244,3.003 v 7.545 h 1.593 V 0.15 c 0,-1.818 0.925,-2.724 2.772,-2.724 1.845,0 2.77,0.906 2.77,2.724 V 7.545 H 0 Z" /></g><g
           transform="translate(144.2729,65.8198)"
           id="g96"><path
             id="path98"
             style="fill:#231f20;fill-opacity:1;fill-rule:nonzero;stroke:none"
             d="m 0,0 c 0,1.271 -0.807,1.909 -2.424,1.909 -0.418,0 -0.807,-0.043 -1.161,-0.118 v -3.834 c 0.389,-0.064 0.759,-0.097 1.113,-0.097 0.729,0 1.325,0.177 1.783,0.536 C -0.23,-1.244 0,-0.708 0,0 M 2.671,-8.232 H 0.796 l -2.29,3.915 c -0.254,0.445 -0.487,0.745 -0.696,0.896 -0.089,-0.011 -0.228,-0.017 -0.416,-0.017 -0.287,0 -0.614,0.027 -0.979,0.086 v -4.88 H -5.178 V 2.987 c 0.952,0.209 1.853,0.311 2.706,0.311 1.204,0 2.161,-0.236 2.869,-0.713 0.831,-0.574 1.244,-1.448 1.244,-2.617 0,-0.767 -0.225,-1.421 -0.678,-1.979 -0.456,-0.552 -1.041,-0.912 -1.759,-1.078 v -0.032 c 0.276,-0.011 0.589,-0.311 0.943,-0.896 z" /></g><g
           transform="translate(160.6484,63.2456)"
           id="g100"><path
             id="path102"
             style="fill:#231f20;fill-opacity:1;fill-rule:nonzero;stroke:none"
             d="M 0,0 C 0,1.33 -0.282,2.392 -0.847,3.186 -1.445,4.038 -2.306,4.462 -3.435,4.462 -4.564,4.462 -5.433,4.038 -6.039,3.186 -6.604,2.392 -6.886,1.33 -6.886,0 c 0,-1.228 0.26,-2.236 0.781,-3.035 0.608,-0.928 1.499,-1.395 2.67,-1.395 1.172,0 2.062,0.467 2.671,1.395 C -0.255,-2.236 0,-1.228 0,0 m 1.676,0 c 0,-1.748 -0.456,-3.159 -1.37,-4.231 -0.912,-1.073 -2.159,-1.609 -3.741,-1.609 -1.582,0 -2.832,0.536 -3.749,1.609 -0.919,1.072 -1.378,2.483 -1.378,4.231 0,1.77 0.454,3.191 1.36,4.264 0.909,1.072 2.163,1.609 3.767,1.609 1.593,0 2.853,-0.548 3.784,-1.642 C 1.233,3.18 1.676,1.77 1.676,0" /></g><g
           transform="translate(179.0454,68.9355)"
           id="g104"><path
             id="path106"
             style="fill:#231f20;fill-opacity:1;fill-rule:nonzero;stroke:none"
             d="m 0,0 -3.384,-11.514 c -1.15,0 -1.874,0.51 -2.175,1.529 l -2.19,7.481 c -0.022,0.069 -0.048,0.182 -0.081,0.348 H -7.848 C -7.87,-2.242 -7.896,-2.365 -7.932,-2.521 l -2.686,-8.993 c -1.084,0 -1.78,0.51 -2.091,1.529 L -15.745,0 h 1.775 l 2.588,-9.224 h 0.034 c 0.033,0.156 0.094,0.408 0.183,0.745 L -8.709,0 h 1.874 l 2.671,-9.224 h 0.051 c 0.032,0.156 0.086,0.402 0.163,0.729 L -1.593,0 Z" /></g><g
           transform="translate(189.9644,57.6899)"
           id="g108"><path
             id="path110"
             style="fill:#231f20;fill-opacity:1;fill-rule:nonzero;stroke:none"
             d="m 0,0 c -0.3,-0.124 -0.604,-0.183 -0.915,-0.183 -0.863,0 -1.536,0.413 -2.024,1.245 L -7.634,9.058 C -7.687,9.16 -7.76,9.326 -7.849,9.557 h -0.05 v -9.659 h -1.593 v 11.348 h 2.373 l 5.226,-9.074 c 0.056,-0.097 0.144,-0.268 0.266,-0.515 h 0.034 v 9.589 H 0 Z" /></g><g
           transform="translate(205.3936,57.5879)"
           id="g112"><path
             id="path114"
             style="fill:#231f20;fill-opacity:1;fill-rule:nonzero;stroke:none"
             d="M 0,0 H -1.593 V 5.229 H -7.084 V 0 h -1.593 v 11.348 h 1.593 V 6.639 h 5.491 v 4.709 H 0 Z" /></g><path
           id="path116"
           style="fill:#231f20;fill-opacity:1;fill-rule:nonzero;stroke:none"
           d="m 209.673,57.588 h -1.593 v 11.348 h 1.593 z" /><g
           transform="translate(221.2051,58.2852)"
           id="g118"><path
             id="path120"
             style="fill:#231f20;fill-opacity:1;fill-rule:nonzero;stroke:none"
             d="m 0,0 c -1.072,-0.584 -2.255,-0.879 -3.55,-0.879 -1.714,0 -3.116,0.541 -4.207,1.624 -1.089,1.089 -1.633,2.489 -1.633,4.215 0,1.77 0.512,3.191 1.534,4.264 1.024,1.072 2.416,1.609 4.174,1.609 1.117,0 2.24,-0.236 3.369,-0.713 L -0.845,8.811 C -1.807,9.219 -2.759,9.422 -3.7,9.422 -4.992,9.422 -5.995,9.015 -6.703,8.2 -7.376,7.433 -7.714,6.393 -7.714,5.079 c 0,-1.363 0.386,-2.462 1.161,-3.293 0.775,-0.837 1.785,-1.255 3.035,-1.255 0.698,0 1.368,0.134 2.009,0.397 -0.056,0.246 -0.084,0.466 -0.084,0.665 v 3.7 H 0 Z" /></g><g
           transform="translate(232.4863,57.5879)"
           id="g122"><path
             id="path124"
             style="fill:#231f20;fill-opacity:1;fill-rule:nonzero;stroke:none"
             d="M 0,0 H -1.593 V 5.229 H -7.084 V 0 h -1.593 v 11.348 h 1.593 V 6.639 h 5.491 v 4.709 H 0 Z" /></g><g
           transform="translate(245.7432,60.6768)"
           id="g126"><path
             id="path128"
             style="fill:#231f20;fill-opacity:1;fill-rule:nonzero;stroke:none"
             d="m 0,0 c 0,-1.051 -0.421,-1.877 -1.261,-2.472 -0.742,-0.531 -1.659,-0.799 -2.756,-0.799 -1.051,0 -2.051,0.182 -3.003,0.547 l 0.4,1.362 c 0.94,-0.332 1.812,-0.499 2.622,-0.499 0.63,0 1.15,0.129 1.558,0.381 0.488,0.311 0.729,0.762 0.729,1.346 0,0.665 -0.453,1.244 -1.359,1.743 -0.839,0.44 -1.682,0.885 -2.521,1.325 -0.909,0.643 -1.362,1.48 -1.362,2.504 0,0.987 0.389,1.749 1.161,2.29 0.687,0.477 1.545,0.713 2.571,0.713 0.808,0 1.717,-0.177 2.722,-0.531 l -0.48,-1.308 c -0.796,0.29 -1.544,0.429 -2.242,0.429 -1.359,0 -2.04,-0.52 -2.04,-1.555 0,-0.58 0.453,-1.1 1.363,-1.561 1.582,-0.81 2.426,-1.249 2.536,-1.33 C -0.453,1.925 0,1.062 0,0" /></g><g
           transform="translate(256.0312,68.292)"
           id="g130"><path
             id="path132"
             style="fill:#231f20;fill-opacity:1;fill-rule:nonzero;stroke:none"
             d="m 0,0 -0.598,-1.18 c -0.852,0.408 -1.67,0.617 -2.456,0.617 -1.228,0 -2.212,-0.44 -2.952,-1.314 -0.697,-0.831 -1.046,-1.866 -1.046,-3.116 0,-1.255 0.355,-2.295 1.062,-3.137 0.764,-0.895 1.764,-1.346 3.004,-1.346 0.729,0 1.493,0.161 2.29,0.483 l 0.496,-1.244 c -0.96,-0.435 -1.942,-0.649 -2.937,-0.649 -1.66,0 -3.013,0.584 -4.065,1.742 -1.016,1.127 -1.526,2.526 -1.526,4.2 0,1.678 0.518,3.062 1.553,4.14 1.032,1.077 2.384,1.614 4.054,1.614 C -2.123,0.81 -1.086,0.542 0,0" /></g><g
           transform="translate(266.4814,57.5879)"
           id="g134"><path
             id="path136"
             style="fill:#231f20;fill-opacity:1;fill-rule:nonzero;stroke:none"
             d="M 0,0 H -1.593 V 5.229 H -7.085 V 0 h -1.593 v 11.348 h 1.593 V 6.639 h 5.492 v 4.709 H 0 Z" /></g><g
           transform="translate(277.1855,63.2456)"
           id="g138"><path
             id="path140"
             style="fill:#231f20;fill-opacity:1;fill-rule:nonzero;stroke:none"
             d="M 0,0 C 0,1.33 -0.281,2.392 -0.848,3.186 -1.445,4.038 -2.307,4.462 -3.436,4.462 -4.563,4.462 -5.433,4.038 -6.039,3.186 -6.604,2.392 -6.886,1.33 -6.886,0 c 0,-1.228 0.26,-2.236 0.781,-3.035 0.608,-0.928 1.499,-1.395 2.669,-1.395 1.172,0 2.063,0.467 2.671,1.395 C -0.255,-2.236 0,-1.228 0,0 m 1.676,0 c 0,-1.748 -0.456,-3.159 -1.37,-4.231 -0.912,-1.073 -2.16,-1.609 -3.742,-1.609 -1.582,0 -2.831,0.536 -3.748,1.609 -0.92,1.072 -1.378,2.483 -1.378,4.231 0,1.77 0.454,3.191 1.36,4.264 0.908,1.072 2.164,1.609 3.766,1.609 1.593,0 2.854,-0.548 3.785,-1.642 C 1.233,3.18 1.676,1.77 1.676,0" /></g><g
           transform="translate(289.0127,63.2456)"
           id="g142"><path
             id="path144"
             style="fill:#231f20;fill-opacity:1;fill-rule:nonzero;stroke:none"
             d="M 0,0 C 0,1.33 -0.281,2.392 -0.847,3.186 -1.445,4.038 -2.306,4.462 -3.435,4.462 -4.563,4.462 -5.433,4.038 -6.038,3.186 -6.604,2.392 -6.886,1.33 -6.886,0 c 0,-1.228 0.261,-2.236 0.781,-3.035 0.609,-0.928 1.499,-1.395 2.67,-1.395 1.172,0 2.063,0.467 2.671,1.395 C -0.254,-2.236 0,-1.228 0,0 m 1.677,0 c 0,-1.748 -0.456,-3.159 -1.371,-4.231 -0.911,-1.073 -2.159,-1.609 -3.741,-1.609 -1.582,0 -2.831,0.536 -3.749,1.609 -0.919,1.072 -1.378,2.483 -1.378,4.231 0,1.77 0.454,3.191 1.36,4.264 0.909,1.072 2.164,1.609 3.767,1.609 1.593,0 2.854,-0.548 3.784,-1.642 C 1.233,3.18 1.677,1.77 1.677,0" /></g><g
           transform="translate(299.1162,57.5879)"
           id="g146"><path
             id="path148"
             style="fill:#231f20;fill-opacity:1;fill-rule:nonzero;stroke:none"
             d="m 0,0 h -6.287 v 11.348 h 1.593 V 1.411 l 4.694,0 z" /></g><g
           transform="translate(302.417,58.4834)"
           id="g150"><path
             id="path152"
             style="fill:#231f20;fill-opacity:1;fill-rule:nonzero;stroke:none"
             d="m 0,0 c 0,-0.145 -0.016,-0.247 -0.048,-0.311 l -1.279,-2.756 -0.845,0.262 0.496,3.004 c 0.068,0.412 0.338,0.616 0.813,0.616 0.244,0 0.448,-0.08 0.614,-0.231 C -0.083,0.429 0,0.236 0,0" /></g><g
           transform="translate(314.9453,62.0713)"
           id="g154"><path
             id="path156"
             style="fill:#231f20;fill-opacity:1;fill-rule:nonzero;stroke:none"
             d="M 0,0 -1.843,4.827 H -1.875 C -1.886,4.784 -1.92,4.671 -1.974,4.494 L -3.7,0 Z M 3.482,-4.483 H 1.724 L 0.515,-1.378 H -4.28 l -1.196,-3.105 h -1.675 l 4.628,11.347 h 1.544 z" /></g><g
           transform="translate(326.2256,57.5879)"
           id="g158"><path
             id="path160"
             style="fill:#231f20;fill-opacity:1;fill-rule:nonzero;stroke:none"
             d="m 0,0 h -6.288 v 11.348 h 1.593 V 1.411 l 4.695,0 z" /></g><g
           transform="translate(346.5029,68.9355)"
           id="g162"><path
             id="path164"
             style="fill:#231f20;fill-opacity:1;fill-rule:nonzero;stroke:none"
             d="m 0,0 -3.384,-11.514 c -1.15,0 -1.875,0.51 -2.175,1.529 l -2.191,7.481 c -0.021,0.069 -0.048,0.182 -0.08,0.348 H -7.849 C -7.87,-2.242 -7.897,-2.365 -7.932,-2.521 l -2.687,-8.993 c -1.083,0 -1.78,0.51 -2.091,1.529 L -15.745,0 h 1.774 l 2.588,-9.224 h 0.035 c 0.033,0.156 0.094,0.408 0.182,0.745 L -8.71,0 h 1.875 l 2.67,-9.224 h 0.052 c 0.032,0.156 0.086,0.402 0.163,0.729 L -1.593,0 Z" /></g><g
           transform="translate(352.9893,62.0713)"
           id="g166"><path
             id="path168"
             style="fill:#231f20;fill-opacity:1;fill-rule:nonzero;stroke:none"
             d="M 0,0 -1.843,4.827 H -1.875 C -1.886,4.784 -1.92,4.671 -1.974,4.494 L -3.7,0 Z M 3.482,-4.483 H 1.724 L 0.515,-1.378 H -4.28 l -1.196,-3.105 h -1.675 l 4.628,11.347 h 1.544 z" /></g><g
           transform="translate(363.1592,65.8198)"
           id="g170"><path
             id="path172"
             style="fill:#231f20;fill-opacity:1;fill-rule:nonzero;stroke:none"
             d="m 0,0 c 0,1.271 -0.807,1.909 -2.424,1.909 -0.418,0 -0.806,-0.043 -1.161,-0.118 v -3.834 c 0.389,-0.064 0.759,-0.097 1.113,-0.097 0.73,0 1.325,0.177 1.784,0.536 C -0.23,-1.244 0,-0.708 0,0 M 2.671,-8.232 H 0.797 l -2.29,3.915 c -0.255,0.445 -0.488,0.745 -0.697,0.896 -0.089,-0.011 -0.228,-0.017 -0.416,-0.017 -0.287,0 -0.614,0.027 -0.979,0.086 v -4.88 H -5.178 V 2.987 c 0.952,0.209 1.854,0.311 2.706,0.311 1.204,0 2.161,-0.236 2.869,-0.713 0.832,-0.574 1.245,-1.448 1.245,-2.617 0,-0.767 -0.226,-1.421 -0.679,-1.979 -0.456,-0.552 -1.04,-0.912 -1.759,-1.078 v -0.032 c 0.276,-0.011 0.59,-0.311 0.943,-0.896 z" /></g><g
           transform="translate(375.3867,63.2456)"
           id="g174"><path
             id="path176"
             style="fill:#231f20;fill-opacity:1;fill-rule:nonzero;stroke:none"
             d="m 0,0 c 0,1.25 -0.255,2.269 -0.764,3.052 -0.598,0.944 -1.488,1.41 -2.671,1.41 -1.182,0 -2.081,-0.466 -2.687,-1.41 C -6.631,2.269 -6.886,1.25 -6.886,0 c 0,-1.228 0.26,-2.236 0.781,-3.035 0.608,-0.928 1.499,-1.395 2.67,-1.395 1.172,0 2.062,0.467 2.671,1.395 C -0.255,-2.236 0,-1.228 0,0 m 1.759,-7.712 h -2.175 c -0.321,0.365 -0.646,0.735 -0.979,1.11 -0.453,0.499 -0.828,0.778 -1.128,0.848 -0.33,-0.059 -0.635,-0.086 -0.912,-0.086 -1.638,0 -2.919,0.574 -3.85,1.727 -0.851,1.072 -1.277,2.445 -1.277,4.113 0,1.706 0.421,3.083 1.26,4.135 0.92,1.158 2.207,1.738 3.867,1.738 1.66,0 2.942,-0.58 3.848,-1.738 C 1.255,3.083 1.676,1.706 1.676,0 c 0,-1.115 -0.196,-2.107 -0.582,-2.971 -0.453,-1.003 -1.123,-1.748 -2.008,-2.236 0.278,-0.07 0.555,-0.252 0.831,-0.547 z" /></g><g
           transform="translate(385.3916,62.0713)"
           id="g178"><path
             id="path180"
             style="fill:#231f20;fill-opacity:1;fill-rule:nonzero;stroke:none"
             d="M 0,0 -1.843,4.827 H -1.875 C -1.886,4.784 -1.92,4.671 -1.974,4.494 L -3.701,0 Z M 3.482,-4.483 H 1.724 L 0.515,-1.378 H -4.28 l -1.196,-3.105 h -1.675 l 4.628,11.347 h 1.544 z" /></g><g
           transform="translate(391.0137,68.3887)"
           id="g182"><path
             id="path184"
             style="fill:#231f20;fill-opacity:1;fill-rule:nonzero;stroke:none"
             d="m 0,0 c 0,-0.107 -0.011,-0.193 -0.032,-0.247 l -1.077,-2.59 -0.797,0.214 0.381,2.773 c 0.053,0.397 0.302,0.601 0.745,0.601 0.222,0 0.408,-0.075 0.558,-0.22 C -0.074,0.386 0,0.209 0,0" /></g><g
           transform="translate(399.4766,62.0713)"
           id="g186"><path
             id="path188"
             style="fill:#231f20;fill-opacity:1;fill-rule:nonzero;stroke:none"
             d="M 0,0 -1.842,4.827 H -1.874 C -1.885,4.784 -1.92,4.671 -1.974,4.494 L -3.7,0 Z M 3.483,-4.483 H 1.725 l -1.21,3.105 h -4.794 l -1.197,-3.105 h -1.675 l 4.628,11.347 h 1.544 z" /></g><g
           transform="translate(121.7866,79.4146)"
           id="g190"><path
             id="path192"
             style="fill:#121114;fill-opacity:1;fill-rule:nonzero;stroke:none"
             d="m 0,0 -1.292,-0.145 c -0.132,0.751 -0.545,1.121 -1.218,1.121 -0.879,0 -1.33,-0.59 -1.33,-1.748 0,-0.461 0.094,-0.826 0.3,-1.121 h 3.521 V -3.18 h -6.255 v 1.287 h 1.311 c -0.15,0.349 -0.225,0.719 -0.225,1.121 0,0.81 0.206,1.453 0.619,1.952 0.466,0.547 1.142,0.826 2.022,0.826 C -1.142,2.006 -0.3,1.341 0,0" /></g><g
           transform="translate(128.4072,76.2344)"
           id="g194"><path
             id="path196"
             style="fill:#121114;fill-opacity:1;fill-rule:nonzero;stroke:none"
             d="M 0,0 H -1.48 C -2.153,0 -2.716,0.236 -3.183,0.697 -3.727,1.212 -3.99,1.947 -3.99,2.923 V 11.9 h 1.349 V 3.695 c 0,-0.847 0.131,-1.453 0.375,-1.818 C -2.06,1.561 -1.703,1.378 -1.199,1.303 -1.067,1.287 -0.917,1.287 0,1.287 Z" /></g><path
           id="path198"
           style="fill:#121114;fill-opacity:1;fill-rule:nonzero;stroke:none"
           d="m 132.091,76.234 h -3.952 v 1.287 h 3.952 z" /><path
           id="path200"
           style="fill:#121114;fill-opacity:1;fill-rule:nonzero;stroke:none"
           d="m 135.797,76.234 h -3.952 v 1.287 h 3.952 z" /><path
           id="path202"
           style="fill:#121114;fill-opacity:1;fill-rule:nonzero;stroke:none"
           d="m 139.5,76.234 h -3.952 v 1.287 h 3.952 z" /><path
           id="path204"
           style="fill:#121114;fill-opacity:1;fill-rule:nonzero;stroke:none"
           d="m 147.625,85.909 h -1.33 v 1.561 h 1.33 z m -2.454,0 h -1.33 v 1.561 h 1.33 z m 3.017,-5.373 c 0,1.839 -0.845,2.96 -2.378,2.96 -1.668,0 -2.529,-1.228 -2.529,-3.181 0,-1.839 0.917,-3.013 2.453,-3.013 1.628,0 2.454,1.083 2.454,3.234 m 1.44,-0.129 c 0,-2.392 -1.515,-4.173 -3.894,-4.173 h -6.65 v 1.287 h 3.653 c -0.617,0.735 -0.936,1.69 -0.936,2.87 0,2.391 1.517,4.172 3.952,4.172 2.378,0 3.875,-1.652 3.875,-4.156" /><g
           transform="translate(154.9531,84.5845)"
           id="g206"><path
             id="path208"
             style="fill:#121114;fill-opacity:1;fill-rule:nonzero;stroke:none"
             d="m 0,0 v -6.79 c 0,-2.997 -1.18,-4.429 -3.934,-4.579 v 1.233 c 1.743,0 2.623,0.939 2.623,3.111 V 0 Z" /></g><g
           transform="translate(162.7021,77.5215)"
           id="g210"><path
             id="path212"
             style="fill:#121114;fill-opacity:1;fill-rule:nonzero;stroke:none"
             d="m 0,0 v 3.877 c 0,0.537 -0.168,0.998 -0.504,1.363 -0.375,0.423 -0.901,0.643 -1.593,0.643 -0.71,0 -1.292,-0.327 -1.742,-0.97 -0.392,-0.575 -0.598,-1.218 -0.598,-1.915 0,-0.735 0.168,-1.4 0.522,-1.968 0.432,-0.697 1.014,-1.051 1.743,-1.051 z M 3.784,-1.287 H 1.199 C 0.826,-3.186 -0.448,-4.178 -2.604,-4.306 v 1.233 h 0.169 c 1.199,0 1.969,0.606 2.285,1.786 h -2.04 c -1.049,0 -1.91,0.386 -2.585,1.174 -0.673,0.794 -1.011,1.786 -1.011,2.982 0,1.196 0.356,2.188 1.067,2.998 0.732,0.81 1.63,1.212 2.698,1.212 2.078,0 3.37,-1.249 3.37,-3.679 v -3.421 h 2.435 z" /></g><path
           id="path214"
           style="fill:#121114;fill-opacity:1;fill-rule:nonzero;stroke:none"
           d="m 170.108,76.234 h -3.952 v 1.287 h 3.952 z" /><path
           id="path216"
           style="fill:#121114;fill-opacity:1;fill-rule:nonzero;stroke:none"
           d="m 173.812,76.234 h -3.953 v 1.287 h 3.953 z" /><path
           id="path218"
           style="fill:#121114;fill-opacity:1;fill-rule:nonzero;stroke:none"
           d="m 177.517,76.234 h -3.952 v 1.287 h 3.952 z" /><g
           transform="translate(181.5928,88.1348)"
           id="g220"><path
             id="path222"
             style="fill:#121114;fill-opacity:1;fill-rule:nonzero;stroke:none"
             d="m 0,0 v -8.667 c 0,-2.15 -0.917,-3.233 -2.751,-3.233 h -1.63 v 1.265 h 1.198 c 0.805,0 1.33,0.258 1.593,0.773 0.188,0.332 0.281,0.922 0.281,1.769 l 0,8.093 z" /></g><path
           id="path224"
           style="fill:#121114;fill-opacity:1;fill-rule:nonzero;stroke:none"
           d="M 185.409,76.234 H 184.1 v 11.9 h 1.309 z" /><g
           transform="translate(191.9189,76.2344)"
           id="g226"><path
             id="path228"
             style="fill:#121114;fill-opacity:1;fill-rule:nonzero;stroke:none"
             d="m 0,0 h -1.703 v 1.008 c 0,1.196 0.242,2.376 0.711,3.497 h 0.805 C -0.56,3.421 -0.748,2.537 -0.748,1.855 H 0 Z" /></g><path
           id="path230"
           style="fill:#121114;fill-opacity:1;fill-rule:nonzero;stroke:none"
           d="m 200.307,87.673 h -1.33 v 1.566 h 1.33 z m -2.454,0 h -1.33 v 1.566 h 1.33 z m 1.965,-5.555 v 3.255 h -2.378 c -1.477,0 -2.491,-1.491 -2.491,-3.422 0,-1.871 0.995,-3.437 2.453,-3.437 1.575,0 2.379,1.195 2.416,3.604 m 4.459,-5.884 h -0.863 c -1.852,0 -3.032,0.901 -3.577,2.682 -0.56,-0.933 -1.515,-1.416 -2.863,-1.416 -1.912,0 -3.336,1.936 -3.336,4.381 0,2.612 1.424,4.452 3.561,4.452 h 3.968 v -5.905 c 0,-1.839 0.88,-2.928 2.397,-2.928 h 0.713 z" /><path
           id="path232"
           style="fill:#121114;fill-opacity:1;fill-rule:nonzero;stroke:none"
           d="m 207.937,76.234 h -3.952 v 1.287 h 3.952 z" /><path
           id="path234"
           style="fill:#121114;fill-opacity:1;fill-rule:nonzero;stroke:none"
           d="m 211.641,76.234 h -3.952 v 1.287 h 3.952 z" /><path
           id="path236"
           style="fill:#121114;fill-opacity:1;fill-rule:nonzero;stroke:none"
           d="m 215.347,76.234 h -3.952 v 1.287 h 3.952 z" /><path
           id="path238"
           style="fill:#121114;fill-opacity:1;fill-rule:nonzero;stroke:none"
           d="m 219.05,76.234 h -3.952 v 1.287 h 3.952 z" /><path
           id="path240"
           style="fill:#121114;fill-opacity:1;fill-rule:nonzero;stroke:none"
           d="m 223.222,73.419 h -1.327 v 1.566 h 1.327 z m -2.453,0 h -1.327 v 1.566 h 1.327 z m 2.471,11.165 v -5.116 c 0,-2.15 -0.917,-3.234 -2.751,-3.234 h -1.648 V 77.5 h 1.217 c 0.804,0 1.33,0.257 1.592,0.772 0.188,0.333 0.28,0.923 0.28,1.77 v 4.542 z" /><g
           transform="translate(231.4756,77.5215)"
           id="g242"><path
             id="path244"
             style="fill:#121114;fill-opacity:1;fill-rule:nonzero;stroke:none"
             d="M 0,0 V 3.877 C 0,4.414 -0.169,4.875 -0.504,5.24 -0.88,5.663 -1.405,5.883 -2.097,5.883 -2.808,5.883 -3.39,5.556 -3.84,4.913 -4.231,4.338 -4.438,3.695 -4.438,2.998 c 0,-0.735 0.168,-1.4 0.523,-1.968 0.432,-0.697 1.014,-1.051 1.743,-1.051 z M 3.783,-1.287 H 1.198 C 0.825,-3.186 -0.448,-4.178 -2.604,-4.306 v 1.233 h 0.169 c 1.199,0 1.968,0.606 2.285,1.786 h -2.041 c -1.048,0 -1.91,0.386 -2.585,1.174 -0.673,0.794 -1.011,1.786 -1.011,2.982 0,1.196 0.357,2.188 1.067,2.998 0.733,0.81 1.631,1.212 2.698,1.212 2.078,0 3.371,-1.249 3.371,-3.679 v -3.421 h 2.434 z" /></g><path
           id="path246"
           style="fill:#121114;fill-opacity:1;fill-rule:nonzero;stroke:none"
           d="m 238.882,76.234 h -3.953 v 1.287 h 3.953 z" /><path
           id="path248"
           style="fill:#121114;fill-opacity:1;fill-rule:nonzero;stroke:none"
           d="m 242.587,76.234 h -3.952 v 1.287 h 3.952 z" /><path
           id="path250"
           style="fill:#121114;fill-opacity:1;fill-rule:nonzero;stroke:none"
           d="m 246.29,76.234 h -3.952 v 1.287 h 3.952 z" /><path
           id="path252"
           style="fill:#121114;fill-opacity:1;fill-rule:nonzero;stroke:none"
           d="m 250.368,85.909 h -1.327 v 1.561 h 1.327 z m 0,-1.325 v -5.116 c 0,-2.15 -0.917,-3.234 -2.751,-3.234 h -1.63 V 77.5 h 1.199 c 0.804,0 1.33,0.257 1.592,0.772 0.188,0.333 0.282,0.923 0.282,1.77 v 4.542 z" /><g
           transform="translate(256.9912,76.2344)"
           id="g254"><path
             id="path256"
             style="fill:#121114;fill-opacity:1;fill-rule:nonzero;stroke:none"
             d="m 0,0 h -1.479 c -0.673,0 -1.237,0.236 -1.704,0.697 -0.544,0.515 -0.806,1.25 -0.806,2.226 V 11.9 h 1.348 V 3.695 c 0,-0.847 0.131,-1.453 0.375,-1.818 C -2.059,1.561 -1.702,1.378 -1.198,1.303 -1.066,1.287 -0.917,1.287 0,1.287 Z" /></g><path
           id="path258"
           style="fill:#121114;fill-opacity:1;fill-rule:nonzero;stroke:none"
           d="m 260.679,76.234 h -3.952 v 1.287 h 3.952 z" /><path
           id="path260"
           style="fill:#121114;fill-opacity:1;fill-rule:nonzero;stroke:none"
           d="m 264.382,76.234 h -3.952 v 1.287 h 3.952 z" /><path
           id="path262"
           style="fill:#121114;fill-opacity:1;fill-rule:nonzero;stroke:none"
           d="m 268.087,76.234 h -3.952 v 1.287 h 3.952 z" /><path
           id="path264"
           style="fill:#121114;fill-opacity:1;fill-rule:nonzero;stroke:none"
           d="m 272.128,85.909 h -1.33 v 1.561 h 1.33 z m -1.217,2.038 h -1.33 v 1.566 h 1.33 z m -1.236,-2.038 h -1.33 v 1.561 h 1.33 z m 4.569,-9.675 h -6.463 V 77.5 h 1.199 c 0.804,0 1.331,0.257 1.593,0.756 0.188,0.349 0.281,0.939 0.281,1.786 v 4.542 h 1.309 v -5.116 c 0,-0.788 -0.11,-1.453 -0.353,-1.947 h 2.434 z" /><path
           id="path266"
           style="fill:#121114;fill-opacity:1;fill-rule:nonzero;stroke:none"
           d="m 277.926,76.234 h -3.953 v 1.287 h 3.953 z" /><path
           id="path268"
           style="fill:#121114;fill-opacity:1;fill-rule:nonzero;stroke:none"
           d="m 281.631,76.234 h -3.952 v 1.287 h 3.952 z" /><path
           id="path270"
           style="fill:#121114;fill-opacity:1;fill-rule:nonzero;stroke:none"
           d="m 285.334,76.234 h -3.952 v 1.287 h 3.952 z" /><g
           transform="translate(289.4131,88.1348)"
           id="g272"><path
             id="path274"
             style="fill:#121114;fill-opacity:1;fill-rule:nonzero;stroke:none"
             d="m 0,0 v -8.667 c 0,-2.15 -0.918,-3.233 -2.752,-3.233 h -1.63 v 1.265 h 1.198 c 0.805,0 1.33,0.258 1.593,0.773 0.188,0.332 0.282,0.922 0.282,1.769 l 0,8.093 z" /></g><path
           id="path276"
           style="fill:#121114;fill-opacity:1;fill-rule:nonzero;stroke:none"
           d="m 293.229,76.234 h -1.309 v 11.9 h 1.309 z" /><g
           transform="translate(303.3906,76.2344)"
           id="g278"><path
             id="path280"
             style="fill:#121114;fill-opacity:1;fill-rule:nonzero;stroke:none"
             d="m 0,0 h -1.479 c -0.674,0 -1.237,0.236 -1.704,0.697 -0.544,0.515 -0.806,1.25 -0.806,2.226 V 11.9 h 1.348 V 3.695 c 0,-0.847 0.131,-1.453 0.375,-1.818 C -2.06,1.561 -1.702,1.378 -1.198,1.303 -1.067,1.287 -0.917,1.287 0,1.287 Z" /></g><path
           id="path282"
           style="fill:#121114;fill-opacity:1;fill-rule:nonzero;stroke:none"
           d="m 307.075,76.234 h -3.952 v 1.287 h 3.952 z" /><path
           id="path284"
           style="fill:#121114;fill-opacity:1;fill-rule:nonzero;stroke:none"
           d="m 310.778,76.234 h -3.952 v 1.287 h 3.952 z" /><path
           id="path286"
           style="fill:#121114;fill-opacity:1;fill-rule:nonzero;stroke:none"
           d="m 314.483,76.234 h -3.952 v 1.287 h 3.952 z" /><path
           id="path288"
           style="fill:#121114;fill-opacity:1;fill-rule:nonzero;stroke:none"
           d="m 318.578,85.909 h -1.327 v 1.561 h 1.327 z m 2.063,-9.675 h -6.463 V 77.5 h 1.199 c 0.805,0 1.33,0.257 1.593,0.756 0.187,0.349 0.281,0.939 0.281,1.786 v 4.542 h 1.309 v -5.116 c 0,-0.788 -0.111,-1.453 -0.354,-1.947 h 2.435 z" /><path
           id="path290"
           style="fill:#121114;fill-opacity:1;fill-rule:nonzero;stroke:none"
           d="m 324.324,76.234 h -3.952 v 1.287 h 3.952 z" /><path
           id="path292"
           style="fill:#121114;fill-opacity:1;fill-rule:nonzero;stroke:none"
           d="m 328.027,76.234 h -3.952 v 1.287 h 3.952 z" /><path
           id="path294"
           style="fill:#121114;fill-opacity:1;fill-rule:nonzero;stroke:none"
           d="m 331.733,76.234 h -3.952 v 1.287 h 3.952 z" /><path
           id="path296"
           style="fill:#121114;fill-opacity:1;fill-rule:nonzero;stroke:none"
           d="m 335.79,85.909 h -1.327 v 1.561 h 1.327 z m -2.45,0 h -1.33 v 1.561 h 1.33 z m 4.55,-9.675 h -6.462 V 77.5 h 1.198 c 0.805,0 1.33,0.257 1.593,0.756 0.188,0.349 0.282,0.939 0.282,1.786 v 4.542 h 1.309 v -5.116 c 0,-0.788 -0.111,-1.453 -0.355,-1.947 h 2.435 z" /><path
           id="path298"
           style="fill:#121114;fill-opacity:1;fill-rule:nonzero;stroke:none"
           d="m 341.574,76.234 h -3.952 v 1.287 h 3.952 z" /><path
           id="path300"
           style="fill:#121114;fill-opacity:1;fill-rule:nonzero;stroke:none"
           d="m 345.277,76.234 h -3.952 v 1.287 h 3.952 z" /><path
           id="path302"
           style="fill:#121114;fill-opacity:1;fill-rule:nonzero;stroke:none"
           d="m 348.983,76.234 h -3.953 v 1.287 h 3.953 z" /><g
           transform="translate(363.7363,84.5845)"
           id="g304"><path
             id="path306"
             style="fill:#121114;fill-opacity:1;fill-rule:nonzero;stroke:none"
             d="M 0,0 V -5.116 C 0,-7.267 -0.92,-8.35 -2.772,-8.35 h -12.4 v 1.287 h 1.743 c 1.199,0 1.853,0.789 1.985,2.355 V 0 h 1.31 v -5.116 c 0,-0.751 -0.112,-1.379 -0.318,-1.872 v -0.075 h 2.453 c 1.198,0 1.593,0.568 1.593,2.521 V 0 h 1.311 v -5.116 c 0,-0.789 -0.113,-1.453 -0.356,-1.947 h 2.247 c 1.404,0 1.874,0.568 1.874,2.521 l 0,4.542 z" /></g><g
           transform="translate(369.0557,84.5845)"
           id="g308"><path
             id="path310"
             style="fill:#121114;fill-opacity:1;fill-rule:nonzero;stroke:none"
             d="m 0,0 v -6.79 c 0,-2.997 -1.18,-4.429 -3.931,-4.579 v 1.233 c 1.741,0 2.62,0.939 2.62,3.111 V 0 Z" /></g><g
           transform="translate(381.7119,76.2344)"
           id="g312"><path
             id="path314"
             style="fill:#121114;fill-opacity:1;fill-rule:nonzero;stroke:none"
             d="m 0,0 h -11.256 v 1.287 h 6.931 c 0,1.636 -0.3,2.961 -0.919,3.953 -0.748,1.196 -1.909,1.823 -3.465,1.914 h -0.504 v 1.212 c 3.952,0 6.03,-2.354 6.237,-7.079 H 0 Z" /></g><path
           id="path316"
           style="fill:#121114;fill-opacity:1;fill-rule:nonzero;stroke:none"
           d="m 385.313,76.234 h -3.952 v 1.287 h 3.952 z" /><path
           id="path318"
           style="fill:#121114;fill-opacity:1;fill-rule:nonzero;stroke:none"
           d="m 389.02,76.234 h -3.953 v 1.287 h 3.953 z" /><path
           id="path320"
           style="fill:#121114;fill-opacity:1;fill-rule:nonzero;stroke:none"
           d="m 392.722,76.234 h -3.952 v 1.287 h 3.952 z" /><g
           transform="translate(401.4854,78.9375)"
           id="g322"><path
             id="path324"
             style="fill:#121114;fill-opacity:1;fill-rule:nonzero;stroke:none"
             d="m 0,0 c 0,0.826 -0.169,1.491 -0.488,1.984 -0.413,0.606 -1.011,0.901 -1.799,0.901 -0.861,0 -1.497,-0.327 -1.929,-0.97 -0.356,-0.537 -0.541,-1.234 -0.541,-2.135 0,-0.831 0.185,-1.507 0.541,-2.027 0.432,-0.606 1.049,-0.901 1.856,-0.901 C -0.789,-3.148 0,-2.097 0,0 m 1.515,-0.129 c 0,-1.196 -0.335,-2.172 -1.011,-2.944 -0.711,-0.826 -1.665,-1.234 -2.864,-1.234 -1.443,0 -2.529,0.537 -3.242,1.604 h -3.615 v 1.287 h 3.073 c -0.112,0.386 -0.168,0.81 -0.168,1.266 0,1.217 0.356,2.209 1.067,3.003 0.711,0.788 1.686,1.174 2.904,1.174 1.214,0 2.191,-0.402 2.882,-1.195 0.657,-0.757 0.974,-1.749 0.974,-2.961" /></g></g></g></g></svg>