<?xml version="1.0" encoding="UTF-8"?>
<!-- Generator: Adobe Illustrator 24.2.1, SVG Export Plug-In . SVG Version: 6.00 Build 0)  -->
<svg xmlns="http://www.w3.org/2000/svg" xmlns:xlink="http://www.w3.org/1999/xlink" id="Layer_1" x="0px" y="0px" viewBox="0 0 216 153" style="enable-background:new 0 0 216 153;" xml:space="preserve">
<style type="text/css">
	.st0{fill:#11662E;}
</style>
<path class="st0" d="M212.5,80.8c-15-57.6-74-92.3-131.6-77.3C53,10.7,29.6,28.4,15,53.3s-18.7,53.9-11.4,81.8  c1.5,5.9,3.6,11.7,6.1,17.3c0.1,0.3,0.4,0.5,0.7,0.5h0.4c0.3,0,0.5-0.1,0.6-0.3c0.1-0.2,0.2-0.5,0.1-0.7  c-8.4-21.5-9.7-46.2-3.6-66.1c0.5-1.3,6.5-8.1,8.9-10.6C29.4,62.3,42,55.9,54.5,56.1c12.9,0.1,26,7.3,39,21.2  c2.2,2.3,4.4,4.8,6.7,7.4c15.2,17.2,34.2,38.5,60.3,31.7c15.3-4,21.2-8.4,31-15.7c1.3-1,2.7-2,4.2-3.1c2.1-1.5,4.9-4,7.6-6.4  c2.2-2,4.5-4,5.9-5c4.8,19.5,3.1,43.9-4.5,65.6c-0.1,0.2,0,0.5,0.1,0.7c0.1,0.2,0.4,0.3,0.6,0.3h0.2c0.3,0,0.6-0.2,0.7-0.5  C216.6,130.1,218.7,104.6,212.5,80.8z M205.8,74.8c-0.9,0.7-2.4,2.1-4.3,4c-8.5,8.3-26.1,25.7-44.8,27.2  c-21.1,1.8-34.7-14.5-49.1-31.7C93.7,57.9,79.4,40.8,57.7,40.8c-0.4,0-0.7,0-1.1,0c-17.7,0.5-30.9,12.5-37.3,18.3  c-0.1,0.1-0.2,0.2-0.3,0.3c3.4-6,10.7-15,14.4-18.8c17.7-18,38.5-28.3,63.7-31.4c31.2-3.8,62.8,7.7,86.7,31.5  c10.5,10.5,14.7,19.2,20.6,31.3C204.9,73,205.3,73.9,205.8,74.8z"></path>
</svg>
