<?xml version="1.0" encoding="utf-8"?>
<!-- Generator: Adobe Illustrator 22.1.0, SVG Export Plug-In . SVG Version: 6.00 Build 0)  -->
<svg version="1.1" id="Layer_1" xmlns="http://www.w3.org/2000/svg" xmlns:xlink="http://www.w3.org/1999/xlink" x="0px" y="0px"
	 viewBox="0 0 348 61" style="enable-background:new 0 0 348 61;" xml:space="preserve">
<style type="text/css">
	.st0{fill:#006938;}
</style>
<g>
	<g>
		<path class="st0" d="M36.5,25.9c-0.4-0.1-1.3-0.4-1.5,0.2c-0.1,0.5,0.3,0.8,0.4,1.3c0.1,0.5-0.1,1,0.2,1.4
			c0.5,0.6,1.2-0.3,1.5-0.6c0.3-0.3,0.2-0.8,0.1-1.2C37.1,26.5,37,26.1,36.5,25.9"/>
		<path class="st0" d="M33.2,26.1c-0.6,0.2-1.2,0.1-1.7,0.3c-0.5,0.3-0.7,1.4-0.1,1.7c0.3,0.2,0.5-0.3,0.7-0.5
			c0.2-0.2,0.5-0.1,0.6,0.2c0.3,0.7,0,1.5,0,2.2c0,0.3,0.1,0.5,0.4,0.6c0.2,0.1,0.4,0,0.5-0.2c0.7-1-0.2-2.4,0.8-3.4
			c0.2-0.3,0.1-0.7-0.2-0.9C33.9,25.9,33.6,26,33.2,26.1"/>
		<path class="st0" d="M38.5,22.2c-0.3-0.2-0.4,0.1-0.5,0.4c-0.1,0.4-0.4,0.4-0.6,0.7c-0.5,0.4-0.3,1.3,0.2,1.6
			c0.8,0.3,1.7,0.1,1.6-0.8C39.1,23.4,39.1,22.6,38.5,22.2"/>
		<path class="st0" d="M33.4,11c-0.4-0.3-0.9-0.3-1.3,0c-0.2,0.1-0.4,0.2-0.6,0.3c-0.2,0-0.4,0.1-0.4,0.3c-0.1,0.4,0.4,0.7,0.6,1
			c0.3,0.4,0.5,0.8,0.9,1c0.6,0.4,1.6,0.3,2.1-0.3c0.1-0.4-0.2-0.8-0.5-1.1C33.9,11.8,33.8,11.3,33.4,11"/>
		<path class="st0" d="M40.4,27.2c-0.4-0.3-1,0-1.2,0.5c-0.2,0.4-0.2,1,0.3,1.2c0.4,0.2,0.9,0,1-0.4C40.5,28,40.8,27.4,40.4,27.2"/>
		<path class="st0" d="M29.7,27.2c-0.2,0.2-0.1,0.7,0,1c0,0.4-0.3,0.9-0.5,1.2c-0.2,0.4-0.4,0.9-0.2,1.4c0.3,0.7,1.5,1,1.9,0.2
			c0.4-1.2,0.1-2.4-0.4-3.4C30.4,27.4,30,26.9,29.7,27.2"/>
		<path class="st0" d="M29.1,25.7c0.3-0.1,0.8-0.4,0.4-0.7c-0.4-0.3-0.8,0-1.2-0.1c-0.4-0.1-1.3-0.8-1.6-0.1
			C26.3,26,28.4,25.9,29.1,25.7"/>
		<path class="st0" d="M27.7,15c-0.5-0.3-1.2-0.2-1.8-0.3c-0.6-0.1-1.1-0.4-1.6-0.6c-0.4-0.1-0.8,0-1,0.3c-0.2,0.3-0.2,0.6,0.1,0.9
			c0.6,0.5,1.5,0.1,2.2,0.5c0.4,0.3,0,0.7-0.3,0.8c-0.4,0.1-0.8,0-1.2,0c-0.7-0.1-1.5,0.3-0.8,1c0.2,0.2,0.5,0.4,0.8,0.6
			c0.2,0.2,0.3,0.4,0.5,0.6c0.3,0.4,1.2,1.2,1.5,0.4c0.2-0.6-0.3-1.5,0.5-1.8c0.6-0.3,1.4,0.3,2,0C29.3,16.9,28.2,15.3,27.7,15"/>
		<path class="st0" d="M21,15.7c-0.4-0.1-0.3-0.5-0.1-0.7c0.2-0.3,0.2-0.5-0.1-0.7c-0.3-0.2-0.7-0.3-1-0.4c-0.3-0.1-0.6-0.4-0.9-0.5
			c-0.6-0.2-1.5,0.1-1.3,0.9c0.2,0.6,0.9,0.7,1.4,1c0.6,0.4,0.5,1.2,0.7,1.9c0.3,0.6,0.9,1.1,1.6,1c0.6-0.1,0.9-0.7,0.9-1.3
			c0-0.3,0-0.6-0.2-0.8C21.6,15.8,21.3,15.8,21,15.7"/>
		<path class="st0" d="M28.4,32.3c-0.2-0.1-0.4-0.2-0.7-0.2c-0.4,0-0.8,0.2-1.2,0.3c0,0,0.1,0.2,0.1,0.3c0.1,0.4,0.3,0.8,0.5,1.2
			c0.2,0.3,0.6,0.7,1,0.7c0.4,0,0.7-0.4,0.9-0.7c0.2-0.4,0.3-0.8,0.6-1.1c0.1-0.1,0.2-0.2,0.3-0.3c0,0-0.5-0.1-0.8-0.1
			C29,32.4,28.7,32.5,28.4,32.3"/>
		<path class="st0" d="M26.8,29.3c0-0.3-0.1-0.6-0.1-0.8c-0.1-0.2-0.1-0.5-0.2-0.7c-0.1-0.2-0.3-0.2-0.5-0.2c-0.3,0-0.5-0.1-0.8-0.2
			c-0.6-0.1-1.2-0.4-1.6-0.1c-0.1,0-0.1,0.5,0,0.7c0.1,0.2,0.3,0.4,0.4,0.6c0.3,0.5,0.6,0.9,0.9,1.4c0.2,0.2,0.3,0.5,0.4,0.7
			c0.1,0.2,0.2,0.4,0.4,0.5c0.2,0.1,0.4,0.2,0.6,0.2c0.1,0,0.2,0,0.3,0C27,31.2,26.8,29.3,26.8,29.3"/>
		<path class="st0" d="M27.8,27.3c-0.5,0.5,0.1,1.2,0.2,1.7c0,0.2,0.2,1,0.5,0.7c0.5-0.4,0.3-1.1,0.3-1.6c0-0.3,0-0.7-0.3-0.9
			C28.3,27.1,28,27.1,27.8,27.3"/>
		<path class="st0" d="M49.6,23.9c-0.2,0.2-0.5,0.1-0.8,0c-0.4-0.1-0.9-0.2-1-0.7c-0.1-0.4,0.4-0.8,0.8-0.8c0.3,0,0.4,0.2,0.6,0.4
			c0.1,0.1,0.4,0.1,0.4,0.4C49.6,23.4,49.8,23.7,49.6,23.9 M13.5,25.5c0.6-0.1,0.5-0.8,0.9-1.1c0.4-0.5,0.7,0.4,1.1,0.5
			c0.2,0,0.6,0,0.5,0.4c-0.1,0.4-0.4,0.6-0.7,0.7C14.7,26.1,13.9,26,13.5,25.5 M53.5,31.3c-1.2,0.4-2.7-0.1-3.7-0.7
			c-0.4-0.3-0.8-0.7-1.1-1.1c-0.2-0.3-0.3-0.7-0.7-0.8c-0.6-0.2-0.2,0.9-0.1,1.2c0.2,0.4,0.5,1.2,0,1.5c-0.7,0.3-0.9-0.6-1.1-1.1
			c-0.7-1.9-2.4,1-3,1.5c-0.7,0.6-1.5,0.8-2.3,0.2c-0.7-0.5-1.1-1.3-1.8-1.9c-1.6-1.2-7.2,1.5-6.3,7.3c0.1,0.6,0.2,1.1,0.2,1.6
			c0.5,2.3,1.6,3.6,2.2,4c0.8,0.7,2.7,0.5,2.6,1.3c0,0.3-0.4,0.4-0.6,0.5c-0.2,0.1-0.8,0.3-1.3,0c-0.8-0.7-1.4,0-1.7-0.3
			c-0.7-0.6-1.2-1.7-1.8-3c0.1,0.4-1.4-3.9-1.5-4.2c-0.3-0.6-0.5-1.2-0.9-1.7c-0.4-0.4-1.1-0.6-1.6-0.3c-0.6,0.3-0.5,1.2-0.3,1.7
			c0.2,1,0.7,1.9,1.1,2.8c0.4,1,0.6,2.1,0.9,3.1c0.1,0.4,0.8,2.2-0.3,1.9c-0.5-0.1-0.9-0.6-1.2-1C29,43.5,29,43,29,42.5
			c0-0.4,0.2-1.6-0.6-1.6c-0.6,0-1.3,0.7-1.4,1.3c-0.2,0.7,0.7,1.1,0.8,1.8c0.1,0.4-0.3,0.8-0.7,0.9c-0.5,0.1-0.9-0.2-1.3-0.4
			c-0.1,0.4-0.6,0.9-1.1,0.7c-0.4-0.2-0.5-0.6-0.9-0.8c-0.7-0.3-1.4,1.2-2.2,0.2c-0.6-0.7,1.6-0.9,2.5-1.4c0.9-0.5,1.5-1.2,2.1-2
			c0.6-0.9,0.6-1.9,0.6-2.9c-0.1-1.2-0.2-2.3-0.3-3.5c-0.1-0.7-0.1-1.6-0.6-2.2c-0.4,0-0.8,0-1.2,0.1c-0.5,0.1-0.9,0.2-1.4,0.3
			c-0.3,0.1-0.8,0.2-1.1-0.1c-0.3-0.3,0-0.6,0.3-0.7c0.3-0.2,0.8-0.3,1-0.6c0.3-0.3,0.3-0.8,0.2-1.3c-0.3-0.9-1.1-1.6-1.9-2.1
			c-0.6-0.4-1.6-0.7-2.2-0.1c-0.6,0.6-0.3,1.7,0.3,2.2c0.3,0.3,0.8,0.5,1.1,0.8c0.3,0.2,0.7,0.7,0.2,0.9c-0.5,0.1-0.8-0.3-1.2-0.5
			c-0.4-0.3-0.9-0.4-1.4-0.4c-0.8-0.1-1.8,0.1-2.2,0.9c-0.1,0.2-0.2,0.5-0.2,0.7c0,0.2,0.2,0.4,0,0.6c-0.1,0.1-0.4,0.1-0.5,0.2
			c-0.4,0.1-1,0.3-1.1,0.4c-0.5,0.1-0.8,0.4-1.2,0.7c-0.7,0.5-1.5,0.6-1.9-0.3c-0.3-0.6-0.4-1.8-1.3-1.8c-0.5,0-0.9,0.4-1.4,0.4
			c-0.4,0-0.8-0.2-1.1-0.4c-0.5-0.4-1.1-1.2-1-1.9c0.2-1,1.4-0.6,2-0.3c0.9,0.5,1.6,1.3,2.3,1.9c0.6,0.5,1.3,0.9,2.1,1.1
			c0.5,0.1,1.5-0.1,1.3-0.8c-0.2-0.5-0.8-0.7-0.9-1.2c-0.3-0.8,0.9-0.8,1.4-0.7c0.5,0.1,1.6,0.3,1.6-0.5c0-0.8-0.9-1.3-1.6-1.4
			c-0.8-0.1-2,0.1-2.5-0.7c-0.6-0.9,0.9-1.3,1.5-1.3c0.5,0,0.9,0.2,1.3,0.5c0.4,0.2,0.7,0.6,1.1,0.8c0.4,0.2,0.8,0.4,1.2,0.1
			c0.3-0.2,0.4-0.6,0.2-0.9c-0.2-0.6-1-0.8-1.2-1.4c-0.2-0.4,0-0.8,0.4-1c0.4-0.2,0.9,0,1.2,0.3c0.7,0.6,1,1.5,1.8,1.9
			c0.4,0.2,1,0.2,1.2-0.2c0.2-0.3,0-0.7-0.4-0.8c-0.5-0.2-1.3-0.4-1.3-1.1c0-0.9,0.8-0.9,1.4-0.5c0.4,0.2,1.9,1.4,2.2,0.8
			c0.2-0.3-0.1-0.7-0.2-1c-0.1-0.3-0.1-0.8,0.4-0.8c0.6,0.1,0.8,1.4,1.4,1.2c0.2-0.1,0.3-0.3,0.5-0.4c0.2-0.1,0.4-0.1,0.6-0.2
			c0.5-0.1,0.8-0.5,1.2-0.6c0.4-0.2,0.9-0.1,1.3-0.1c0.5,0,0.6-0.4,0.9-0.6c0.4-0.3,0.8,0,1.2,0.2c0.4,0.1,0.7,0,0.8-0.4
			c0.1-0.3,0-0.7,0.1-1.1c0.1-0.4,0.3-0.7,0-1.1c-0.3-0.3-0.7-0.6-0.9-1c-0.2-0.3-0.5-0.7-0.9-0.8c-0.5-0.1-1.4,0-1.4,0.7
			c0,0.5,0.4,0.8,0.8,0.9c0.2,0.1,0.4,0.1,0.5,0.2c0.1,0.1,0.2,0.1,0.1,0.3c-0.2,0.5-0.7,0.8-1.2,0.8c-0.2,0-0.5-0.2-0.7-0.1
			c-0.2,0.1-0.2,0.4-0.3,0.5c-0.3,0.4-0.8-0.1-1-0.3c-0.2-0.2-0.2-0.5-0.4-0.7c-0.1-0.1-0.4-0.1-0.5-0.3c-0.5-0.4-0.9-0.3-1.5-0.3
			c-0.5,0-1.2,0.2-1.1,0.8c0.1,0.5,0.7,1.1,0,1.6c-0.5,0.4-1.1,0.3-1.6,0c-0.4-0.3-0.8-0.7-1.3-0.6c-0.5,0.1-0.1,0.5,0,0.7
			c0.3,0.5-0.3,0.6-0.7,0.6c-0.6,0-1.1-0.1-1.7-0.3c-0.4-0.2-0.9-0.4-1.3-0.5c-0.5-0.1-0.9,0-1.4,0.1c-0.6,0.1-1.1,0.2-1.6-0.1
			c-0.4-0.2-0.8-0.5-1.3-0.8c-0.4-0.2-1-0.3-1.4-0.6c-0.3-0.3-0.3-0.7-0.2-1c0.2-0.5,0.8-0.3,1.1-0.7c0.3-0.4,0.6-0.5,1.1-0.4
			c0.4,0.1,0.7,0.3,0.9,0.7c0.1,0.4,0.1,0.7,0.3,1.1c0.3,0.5,0.8,0.4,1.3,0.4c0.5-0.1,0.9,0,1.4,0.2c0.4,0.1,0.9,0.1,1.2-0.2
			c0.2-0.2,0.3-0.5,0.2-0.8c-0.3-0.5-1-0.6-1.5-0.6c-0.9-0.1-1.5-0.8-2.3-1c-0.5-0.1-1.7-0.2-1.5-1.1c0.3-0.9,1.7-0.9,2.2-0.3
			c0.3,0.3,0.5,0.8,0.9,0.9c0.4,0.1,0.8-0.1,1.2,0c0.3,0.1,1.6,0.9,1.8,0.3c0.1-0.4-0.3-0.7-0.6-1.1c-0.3-0.4-0.3-0.8-0.3-1.2
			c0-0.4-0.1-0.8-0.5-1.1c-0.4-0.3-0.9-0.3-1.2-0.6c-0.7-0.6-0.7-1.6-0.2-2.3c0.6-0.8,1.6-0.7,2.4-0.2c0.4,0.2,0.9,0.6,1.4,0.5
			c0.4-0.1,0.7-0.4,0.6-0.8c-0.1-0.7-1.3-0.5-1.8-0.7c-0.4-0.2-0.5-0.7-0.2-1.1c0.3-0.3,0.7-0.5,1.1-0.5c0.8-0.1,1.7,0.1,1.9,1
			c0.1,0.5-0.2,1.9,0.5,2c0.4,0,0.7-0.4,1.1-0.4c0.3,0,0.5,0.4,0.7,0.6c0.8,0.9,1.5-0.5,2.2-0.6c1-0.1,1.5,1.1,2.4,1.2
			c0.4,0.1,1-0.1,1.3,0.2c0.2,0.2,0.2,0.6,0.2,1c0,0.5,0,0.9,0.2,1.3c0.2,0.4,0.5,0.7,0.6,1.1c0,0.4-0.2,0.8,0.1,1.2
			c0.3,0.3,0.8,0.3,1.2,0.2c0.5-0.2,0.7-0.6,0.7-1c0-0.3-0.1-0.7-0.1-1c0.1-0.4,0.7-0.2,0.9-0.1c0.3,0.2,0.6,0.5,1,0.3
			c0.7-0.3,0.8-1.4,0.3-1.9c-0.7-0.6-1.4,0.2-1.9,0.6c-0.4,0.4-1.4,0.9-1.9,0.3c-0.6-0.7,0.9-1,0.9-1.6c0-0.7-1.1-0.9-1.4-1.4
			c-0.3-0.4-0.2-0.8-0.3-1.2c-0.1-0.4-0.4-0.5-0.8-0.6c-0.5-0.1-0.9-0.4-1.2-0.7c-0.3-0.3-0.7-0.5-1-0.7c-0.3-0.2-0.6-0.5-0.5-0.9
			c0.1-0.4,0.5-0.5,0.9-0.4c0.6,0.2,1.2,1.2,1.9,0.8c0.3-0.2,0.5-0.6,0.5-0.9c-0.1-0.4-0.4-0.6-0.7-0.6c-0.4-0.1-0.8-0.1-1-0.4
			c-0.2-0.3-0.2-0.8,0.2-1c0.4-0.2,0.9-0.3,1.3-0.3C30,6,30.4,6.3,30.8,6.5c0.5,0.2,1,0.3,1.5,0.1c0.4-0.1,0.9-0.3,1.3-0.1
			c0.4,0.2,0.4,0.7,0.2,1c-0.2,0.3-0.6,0.3-0.9,0.1c-0.4-0.2-0.7-0.2-1.2-0.1c-0.3,0.1-1,0.1-1,0.5c-0.1,0.4,0.5,0.6,0.7,0.8
			c0.2,0.3,0.1,0.7,0.3,1c0.3,0.5,1-0.3,1.3-0.5c0.4-0.4,1.3-1,1.4,0c0,0.5,0,0.8,0.5,1c0.4,0.2,0.6,0.6,0.8,1
			c0.2,0.6-0.2,1.6,0.3,2c0.6,0.6,1.1-0.4,1.5-0.7c0.3-0.2,0.7-0.2,0.9,0.1c0.3,0.4-0.1,0.7-0.4,0.9c-0.2,0.1-0.4,0.3-0.3,0.6
			c0.1,0.2,0.3,0.2,0.5,0.2c0.4-0.1,0.7-0.4,1.1-0.1c0.1,0.1,0.4,0.4,0.5,0.5c0.4,0.3,0.8,0.3,1.2,0.1c0.3-0.2,0.5-0.6,0.1-0.9
			c-0.3-0.2-0.6-0.2-0.9-0.3c-0.5-0.2-1.2-0.6-0.9-1.2c0.3-0.6,0.9-0.5,1.4-0.2c0.6,0.4,0.8,1.1,1.3,1.5c0.4,0.3,0.9,0.3,1.4,0.2
			c0.6-0.1,0.8-0.5,0.4-1c-0.3-0.3-0.6-0.5-0.6-1c0-0.4,0.2-0.7,0.4-1c0.4-0.4,2-1.3,2.1-0.2c0.1,0.7-0.9,1.4-0.5,2.2
			c0.5,0.9,1.7,0.4,2.4,0.6c0.3,0.1,0.8,0.4,0.8,0.7c0,0.4-0.3,0.7-0.7,0.8c-0.8,0.2-1.6-0.1-2.1,0.8c-0.2,0.4-0.4,0.8-0.9,0.5
			c-0.4-0.2-0.6-0.6-1-0.7c-0.4-0.1-0.8,0.2-0.9,0.6c-0.1,0.3-0.2,0.7-0.6,0.7c-0.4-0.1-0.6-0.5-0.8-0.8c-0.3-0.3-0.7-0.6-1.1-0.6
			c-1,0.1-0.7,1.2-0.3,1.8c0.3,0.5,0.9,1.7-0.1,1.9c-1.1,0.3-1.2-1.3-1.3-2c-0.1-0.7-0.5-1.7-1.5-1.5c-0.4,0.1-0.8,0.4-0.7,0.9
			c0.1,0.4,0.5,0.8,0.8,1.1c0.4,0.5,0.9,1.2,1,1.8c0.1,0.7-0.6,1.1-1.3,0.9c-0.5-0.2-0.5-0.6-0.6-1c0-0.3-0.2-0.7-0.6-0.7
			c-0.5,0-1,0.7-1.3,1.1c-0.4,0.4-1,0.3-1.5,0.5c-0.2,0.1-0.4,0.3-0.4,0.6c0,0.4,0.3,0.6,0.6,0.7c0.5,0.2,0.8,0.4,1.2,0.7
			c0.4,0.3,0.6,0,0.8-0.4c0.2-0.4,0.4-0.6,0.8-0.7c0.5-0.1,1-0.1,1.5-0.2c0.5-0.1,1-0.3,1.6-0.1c0.4,0.2,0.8,0.5,1.2,0.6
			c1.1,0.3,1.1-1,1.4-1.7c0.2-0.5,0.3-1,0.5-1.6c0.1-0.4,0.3-0.8,0.7-1c0.8-0.5,1.6,0.3,1.6,1.1c-0.1,0.7-0.6,1.3-0.6,2
			c0,0.3,0.3,0.6,0.6,0.7c0.3,0,0.6-0.2,0.7-0.4c0.5-0.6,0.7-1.3,1.4-1.7c0.7-0.4,1.6-0.4,2.3-0.1c0.6,0.3,1.2,1,0.8,1.6
			c-0.3,0.5-1.1,0.6-1.7,0.6c-0.7,0-1.5-0.3-2.2,0.1c-0.9,0.6-0.2,1.6,0.4,2.1c0.2,0.2,1.7,1.2,0.9,1.5c-0.4,0.1-0.7,0-0.9-0.3
			c-0.3-0.3-0.5-0.5-0.9-0.6c-0.5-0.2-0.4-0.5-0.5-1c-0.1-0.4-0.3-0.7-0.7-0.8c-0.7-0.3-1.6-0.3-2.2,0c-0.4,0.2-0.5,0.7-0.2,1
			c0.3,0.3,0.7,0.5,1,0.8c0.4,0.3,0.9,0.5,1.4,0.6c0.4,0.1,0.9,0.1,1.2,0.4c0.3,0.2,0.4,0.7,0,0.9c-0.4,0.2-0.8-0.1-1.1-0.4
			c-0.3-0.3-0.7-0.5-1.1-0.3c-0.3,0.2-0.5,0.6-0.9,0.6c-0.4,0-0.6-0.5-0.7-0.7c-0.2-0.3-0.5-0.5-0.9-0.4c-0.7,0.2-0.9,1-0.5,1.5
			c0.6,0.8,1.7,0.5,2.6,0.7c0.2,0.1,1.8,0.5,1,0.9c-0.4,0.2-0.8,0.1-1.2,0.2c-0.4,0.1-0.7,0.4-0.8,0.8c-0.1,0.6,0.1,1.5,0.6,1.9
			c0.3,0.2,0.6,0.3,0.9,0.1c0.4-0.3,0.3-0.7,0-0.9c-0.3-0.3-0.6-0.5-0.6-0.9c0-0.5,0.5-0.3,0.7-0.2c0.4,0.2,0.7,0.7,1.2,0.7
			c0.4,0,0.8-0.4,0.8-0.8c0.1-0.8-1.1-1.7-0.6-2.4c0.6-0.7,1.1,0.6,1.8,0.5c0.4,0,0.4-0.6,0.6-0.8c0.2-0.4,0.7-0.4,1.1-0.2
			c0.8,0.3,0.8,1.2,1,1.9c0.1,0.8,0.5,1.7,1.3,2.1c1,0.5,2.1,0.1,2.9-0.4c0.4-0.2,0.8,0.2,0.9,0.6C54.5,30.8,54,31.1,53.5,31.3
			 M51.3,33.5c0,0-0.9,0.7-1.4,0.8c-0.4,0.1-1.5,0-1.9-0.2c-0.4-0.3-0.6-0.6-0.4-1c0.2-0.5,0.8-0.9,1.3-1c0.3-0.1,0.6-0.1,0.9,0.1
			c0.3,0.1,0.5,0.3,0.7,0.5c0.6,0.3,0.9-0.2,1.3-0.5c0.2-0.1,0.9-0.3,0.8,0.2C52.4,32.8,51.7,33.2,51.3,33.5 M40.8,53
			c-0.1,0.3-0.2,0.5-0.4,0.7c-0.2,0.2-0.4,0.4-0.7,0.5c-0.3,0.1-0.6,0.2-1,0.2c-0.4,0-0.7-0.1-1-0.2c-0.3-0.1-0.6-0.3-0.8-0.6
			c-0.2-0.3-0.4-0.5-0.5-0.9c-0.1-0.3-0.2-0.7-0.2-1.1c0-0.6,0.1-1.2,0.4-1.7c0.3-0.5,0.6-0.9,1-1.2c0.4-0.3,0.8-0.6,1.2-0.8
			c0.4-0.2,0.8-0.3,1.1-0.4l0.1,0l0.2,0.5l-0.1,0c-0.2,0.1-0.5,0.2-0.7,0.4c-0.2,0.1-0.4,0.3-0.6,0.5c-0.2,0.2-0.4,0.4-0.5,0.7
			c-0.1,0.2-0.2,0.4-0.3,0.7c0.1,0,0.2-0.1,0.3-0.1c0.2-0.1,0.4-0.1,0.6-0.1c0.3,0,0.6,0.1,0.9,0.2c0.3,0.1,0.5,0.2,0.6,0.4
			c0.2,0.2,0.3,0.4,0.4,0.6c0.1,0.2,0.1,0.5,0.1,0.8C41,52.4,40.9,52.7,40.8,53 M35.4,53.1c-0.1,0.2-0.3,0.5-0.5,0.6
			c-0.2,0.2-0.5,0.3-0.8,0.4c-0.3,0.1-0.6,0.2-1,0.2c-0.3,0-0.6,0-0.9-0.1c-0.3-0.1-0.5-0.2-0.7-0.3c-0.2-0.1-0.4-0.3-0.5-0.5
			C31,53.2,31,53,31,52.7c0-0.2,0-0.4,0.1-0.6c0.1-0.2,0.2-0.3,0.3-0.5c0.1-0.1,0.3-0.3,0.4-0.4c0.1-0.1,0.3-0.2,0.4-0.2
			c-0.3-0.2-0.6-0.4-0.7-0.7c-0.2-0.3-0.3-0.6-0.3-1c0-0.3,0.1-0.5,0.2-0.7c0.1-0.2,0.3-0.4,0.5-0.6c0.2-0.2,0.4-0.3,0.7-0.4
			c0.5-0.2,1-0.2,1.5-0.1c0.2,0.1,0.4,0.1,0.6,0.3c0.2,0.1,0.3,0.3,0.5,0.5c0.1,0.2,0.2,0.4,0.2,0.7c0,0.2-0.1,0.4-0.2,0.6
			c-0.1,0.2-0.2,0.3-0.4,0.4c-0.1,0.1-0.3,0.2-0.4,0.3c-0.1,0-0.1,0.1-0.2,0.1c0.2,0.1,0.3,0.2,0.5,0.3c0.2,0.1,0.3,0.2,0.5,0.4
			c0.1,0.2,0.3,0.3,0.3,0.5c0.1,0.2,0.1,0.4,0.1,0.7C35.6,52.6,35.6,52.9,35.4,53.1 M30.2,53.1c-0.1,0.2-0.3,0.5-0.5,0.6
			c-0.2,0.2-0.5,0.3-0.8,0.4c-0.3,0.1-0.6,0.2-1,0.2c-0.3,0-0.6,0-0.9-0.1c-0.3-0.1-0.5-0.2-0.7-0.3c-0.2-0.1-0.4-0.3-0.5-0.5
			c-0.1-0.2-0.2-0.4-0.2-0.7c0-0.2,0-0.4,0.1-0.6c0.1-0.2,0.2-0.3,0.3-0.5c0.1-0.1,0.3-0.3,0.4-0.4c0.1-0.1,0.3-0.2,0.4-0.2
			c-0.3-0.2-0.6-0.4-0.7-0.7c-0.2-0.3-0.3-0.6-0.3-1c0-0.3,0.1-0.5,0.2-0.7c0.1-0.2,0.3-0.4,0.5-0.6c0.2-0.2,0.4-0.3,0.7-0.4
			c0.5-0.2,1-0.2,1.5-0.1c0.2,0.1,0.5,0.1,0.6,0.3c0.2,0.1,0.3,0.3,0.5,0.5C30,48.5,30,48.7,30,49c0,0.2,0,0.4-0.2,0.6
			c-0.1,0.2-0.2,0.3-0.4,0.4c-0.1,0.1-0.3,0.2-0.4,0.3c-0.1,0-0.1,0.1-0.2,0.1c0.2,0.1,0.3,0.2,0.5,0.3c0.2,0.1,0.3,0.2,0.5,0.4
			c0.1,0.2,0.2,0.3,0.3,0.5c0.1,0.2,0.1,0.4,0.1,0.7C30.4,52.6,30.3,52.9,30.2,53.1 M25.1,54.2h-3.7v-0.6l0.8-0.1
			c0.1,0,0.2,0,0.3-0.1c0,0,0.1-0.1,0.1-0.4v-3.5c0-0.2-0.1-0.3-0.2-0.4c-0.1-0.1-0.3-0.1-0.5-0.2l-0.5,0v-0.5l0.1,0
			c0.1,0,0.3-0.1,0.4-0.1c0.2,0,0.3-0.1,0.5-0.2c0.2-0.1,0.3-0.2,0.5-0.3c0.2-0.1,0.3-0.2,0.4-0.3l0,0h0.7v5.5c0,0.2,0,0.3,0.1,0.4
			c0.1,0.1,0.2,0.1,0.3,0.1l0.8,0.1V54.2z M9.3,28.6c0.1-0.3,0.5-0.3,0.7-0.2c0.4,0.1,0.9,0.3,1.3,0.5c0.3,0.1,0.6,0.1,0.8,0.3
			c0.2,0.3,0.1,0.6,0,0.9c-0.3,0.6-1.1,0.4-1.6,0.1c-0.3-0.2-0.6-0.5-0.9-0.7C9.4,29.2,9.1,29,9.3,28.6 M9.9,25.7
			c0.3-0.3,0.5-0.6,0.8-0.9c0.2-0.2,0.5-0.6,0.8-0.5c0.3,0.1,0.4,0.5,0.3,0.8c0,0.4-0.3,0.7-0.5,1c-0.1,0.2,0.1,0.6-0.1,0.7
			c-0.4,0.2-0.8,0.1-1.3,0.1c-0.2,0-0.6,0-0.6-0.3C9.3,26.2,9.7,25.9,9.9,25.7 M20.8,7.6c0.5-0.5,1.3-0.4,1.8-0.1
			c0.7,0.3,1.3,1,1.9,1.5c0.7,0.6,1.4,1.1,1.9,1.8c0.3,0.1,0.3,0.5,0.1,0.8c-0.2,0.3-0.6,0-0.9-0.1c-0.8-0.4-1.7,0-2.4-0.4
			c-0.3-0.1-0.6-0.5-0.3-0.8c0.2-0.2,0.3-0.5,0-0.6c-0.7-0.2-1.6,0.2-2.2-0.4C20.4,8.8,20.4,8,20.8,7.6 M34.9,6.9
			c0.2-1.1,1.8-1.2,2.6-0.7c0.5,0.4,0.4,1.1,0.4,1.6c0,0.7,0.4,1.2,0.7,1.8c0.1,0.5,0,1.2-0.6,1.4c-0.6,0.2-0.9-0.2-1.1-0.7
			c-0.3-0.6-0.7-1.2-1.1-1.8C35.4,8.2,34.7,7.6,34.9,6.9 M39.5,7.9c0.2-0.3,0.6-0.3,0.9-0.3c0.8,0,1.6,0.3,2.1,0.9
			c0.2,0.3,0.6,0.7,0.4,1.1c-0.2,0.3-0.6,0.3-0.8,0.3c-0.8-0.1-1.6-0.5-2.2-1.1C39.7,8.6,39.3,8.3,39.5,7.9 M49.9,25.7
			c0.2-0.2,0.5-0.2,0.8-0.2c0.6,0,1.3,0.3,1.6,0.9c0.3,0.5-0.3,1-0.8,0.9c-0.3-0.1-0.4-0.4-0.6-0.6c-0.2-0.2-0.6-0.2-0.8-0.3
			C49.9,26.2,49.8,25.9,49.9,25.7 M53.6,27.3c0.3,0.2,0.5,0.7,0.1,1c-0.3,0.2-0.8,0-1-0.3C52.4,27.5,53.2,26.9,53.6,27.3 M30.6,0.5
			c-16.6,0-30,13.4-30,30c0,16.6,13.4,30,30,30c16.6,0,30-13.4,30-30C60.6,13.9,47.2,0.5,30.6,0.5"/>
		<path class="st0" d="M38.5,50.8c-0.1,0-0.2,0-0.3,0.1c-0.1,0-0.2,0.1-0.2,0.1c0,0.1,0,0.3-0.1,0.4c0,0.1,0,0.3,0,0.5
			c0,0.3,0,0.5,0,0.8c0,0.2,0.1,0.4,0.1,0.6c0.1,0.2,0.1,0.3,0.2,0.4c0.1,0.1,0.2,0.1,0.4,0.1c0.2,0,0.4-0.1,0.5-0.3
			c0.1-0.2,0.2-0.6,0.2-1.1c0-0.5-0.1-0.9-0.2-1.2C39.1,51,38.9,50.8,38.5,50.8"/>
		<path class="st0" d="M32.7,49.5c0.1,0.1,0.2,0.2,0.3,0.2c0.1,0.1,0.2,0.1,0.4,0.2l0.3,0.2c0.1-0.1,0.2-0.2,0.3-0.4
			c0.1-0.2,0.1-0.4,0.1-0.7c0-0.3-0.1-0.6-0.2-0.7c-0.1-0.1-0.3-0.2-0.6-0.2c-0.3,0-0.5,0.1-0.6,0.2c-0.2,0.1-0.2,0.3-0.2,0.6
			c0,0.1,0,0.3,0.1,0.4C32.5,49.4,32.6,49.5,32.7,49.5"/>
		<path class="st0" d="M28.8,52.1c-0.1-0.1-0.2-0.2-0.3-0.2c-0.1-0.1-0.3-0.1-0.4-0.2l-0.5-0.3c-0.2,0.1-0.3,0.3-0.4,0.5
			c-0.1,0.2-0.1,0.5-0.1,0.8c0,0.4,0.1,0.6,0.3,0.8c0.2,0.2,0.5,0.3,0.8,0.3c0.3,0,0.6-0.1,0.8-0.2c0.2-0.2,0.3-0.4,0.3-0.7
			c0-0.1,0-0.3-0.1-0.4C29,52.2,28.9,52.1,28.8,52.1"/>
		<path class="st0" d="M34,52.1c-0.1-0.1-0.2-0.2-0.3-0.2c-0.1-0.1-0.3-0.1-0.4-0.2l-0.5-0.3c-0.2,0.1-0.3,0.3-0.4,0.5
			c-0.1,0.2-0.1,0.5-0.1,0.8c0,0.4,0.1,0.6,0.3,0.8c0.2,0.2,0.5,0.3,0.8,0.3c0.3,0,0.6-0.1,0.8-0.2c0.2-0.2,0.3-0.4,0.3-0.7
			c0-0.1,0-0.3-0.1-0.4C34.2,52.2,34.1,52.1,34,52.1"/>
		<path class="st0" d="M27.4,49.5c0.1,0.1,0.2,0.2,0.3,0.2c0.1,0.1,0.2,0.1,0.4,0.2l0.3,0.2c0.1-0.1,0.2-0.2,0.3-0.4
			c0.1-0.2,0.1-0.4,0.1-0.7c0-0.3-0.1-0.6-0.2-0.7c-0.2-0.1-0.3-0.2-0.6-0.2c-0.3,0-0.5,0.1-0.6,0.2c-0.2,0.1-0.2,0.3-0.2,0.6
			c0,0.1,0,0.3,0.1,0.4C27.3,49.4,27.4,49.5,27.4,49.5"/>
	</g>
	<path class="st0" d="M168.3,13.7c0-0.1,0-0.2,0-0.2c0-0.1,0.1-0.1,0.2-0.1h0.1c0.3,0,0.5,0.1,0.6,0.2c0.2,0.1,0.2,0.3,0.2,0.6
		c0,0.1,0,0.3-0.1,0.4c-0.1,0.1-0.1,0.2-0.2,0.2c-0.1,0.1-0.2,0.1-0.3,0.1c-0.1,0-0.2,0-0.3,0h-0.3V13.7z M168.8,16.7v-0.2
		c-0.1,0-0.1,0-0.2,0c0,0-0.1,0-0.1,0c-0.1,0-0.1,0-0.1,0c0,0,0-0.1,0-0.2v-1.1c0.2,0,0.4,0.1,0.6,0.2c0.2,0.1,0.3,0.3,0.4,0.4
		l0.5,0.8h0.9v-0.2c-0.1,0-0.2,0-0.3-0.1c-0.1,0-0.1-0.1-0.2-0.1c-0.1-0.1-0.1-0.1-0.2-0.3c-0.1-0.1-0.1-0.2-0.2-0.3
		c-0.1-0.1-0.2-0.2-0.2-0.3c-0.1-0.1-0.1-0.1-0.2-0.2c0,0-0.1-0.1-0.1-0.1c0,0-0.1-0.1-0.1-0.1c0.1,0,0.1,0,0.2-0.1
		c0.1,0,0.2-0.1,0.3-0.2c0.1-0.1,0.2-0.2,0.2-0.3c0.1-0.1,0.1-0.2,0.1-0.4c0-0.2,0-0.3-0.1-0.5c-0.1-0.1-0.2-0.2-0.3-0.3
		c-0.1-0.1-0.3-0.1-0.4-0.2c-0.2,0-0.3-0.1-0.5-0.1h-1.6v0.2l0.3,0c0.1,0,0.1,0,0.2,0c0,0,0,0.1,0,0.2v2.6c0,0.1,0,0.2,0,0.2
		c0,0-0.1,0-0.1,0l-0.3,0v0.2H168.8z M166.1,16.1c-0.2-0.4-0.2-0.8-0.2-1.2c0-0.4,0.1-0.8,0.2-1.2c0.2-0.4,0.4-0.7,0.6-1
		c0.3-0.3,0.6-0.5,1-0.7c0.4-0.2,0.8-0.2,1.2-0.2c0.4,0,0.8,0.1,1.2,0.2c0.4,0.2,0.7,0.4,1,0.7c0.3,0.3,0.5,0.6,0.6,1
		c0.2,0.4,0.2,0.8,0.2,1.2c0,0.4-0.1,0.8-0.2,1.2c-0.2,0.4-0.4,0.7-0.6,1c-0.3,0.3-0.6,0.5-1,0.7c-0.4,0.2-0.8,0.2-1.2,0.2
		c-0.4,0-0.8-0.1-1.2-0.2c-0.4-0.2-0.7-0.4-1-0.7C166.4,16.8,166.2,16.5,166.1,16.1 M167.5,18.1c0.4,0.2,0.9,0.3,1.3,0.3
		c0.5,0,0.9-0.1,1.3-0.3c0.4-0.2,0.8-0.4,1.1-0.7c0.3-0.3,0.6-0.7,0.7-1.1c0.2-0.4,0.3-0.9,0.3-1.3c0-0.5-0.1-0.9-0.3-1.3
		c-0.2-0.4-0.4-0.8-0.7-1.1c-0.3-0.3-0.7-0.6-1.1-0.7c-0.4-0.2-0.9-0.3-1.3-0.3c-0.5,0-0.9,0.1-1.3,0.3c-0.4,0.2-0.8,0.4-1.1,0.7
		c-0.3,0.3-0.6,0.7-0.7,1.1c-0.2,0.4-0.3,0.9-0.3,1.3c0,0.5,0.1,0.9,0.3,1.3c0.2,0.4,0.4,0.8,0.7,1.1
		C166.7,17.7,167.1,17.9,167.5,18.1 M148.7,33.9l0.3-1.2c0.3,0.1,0.6,0.3,1,0.5c0.4,0.2,0.8,0.4,1.2,0.6c0.5,0.2,1,0.3,1.6,0.5
		c0.6,0.1,1.3,0.2,2.1,0.2c1.1,0,2.2-0.2,3.2-0.5c1-0.3,1.9-0.8,2.6-1.4c0.7-0.6,1.3-1.3,1.7-2.1c0.4-0.8,0.6-1.7,0.6-2.7
		c0-1-0.2-1.9-0.6-2.6c-0.4-0.7-0.9-1.3-1.4-1.8c-0.6-0.5-1.2-0.9-1.9-1.1c-0.7-0.3-1.4-0.5-2-0.7l-2.6-0.8
		c-1.3-0.4-2.3-0.9-2.9-1.5c-0.6-0.6-1-1.5-1-2.6c0-1.3,0.4-2.4,1.2-3.2c0.8-0.8,1.9-1.2,3.2-1.2c1.2,0,2.2,0.2,2.9,0.6
		c0.7,0.4,1.4,0.9,1.8,1.5c0.5,0.6,0.8,1.2,1.1,2c0.3,0.7,0.5,1.4,0.6,2h1l-0.3-6.8h-1l-0.4,1c-0.3-0.1-0.6-0.3-0.9-0.5
		c-0.3-0.2-0.7-0.3-1.2-0.5c-0.5-0.1-1-0.3-1.6-0.4c-0.6-0.1-1.2-0.2-1.9-0.2c-0.8,0-1.7,0.1-2.6,0.3c-0.9,0.2-1.7,0.6-2.4,1.2
		c-0.7,0.5-1.3,1.2-1.8,2.1c-0.5,0.9-0.7,1.9-0.7,3.2c0,1.1,0.2,2,0.6,2.7c0.4,0.7,0.9,1.3,1.5,1.8c0.6,0.5,1.2,0.8,1.9,1
		c0.6,0.2,1.2,0.4,1.6,0.5l2.3,0.7c0.9,0.3,1.7,0.6,2.3,0.9c0.6,0.3,1,0.6,1.4,1c0.3,0.4,0.5,0.8,0.6,1.2c0.1,0.4,0.2,0.9,0.2,1.4
		c0,0.5-0.1,1-0.3,1.5c-0.2,0.5-0.5,0.9-0.9,1.3c-0.4,0.4-0.9,0.7-1.6,1c-0.7,0.2-1.4,0.4-2.4,0.4c-1.1,0-2-0.2-2.8-0.5
		c-0.7-0.4-1.4-0.8-1.8-1.4c-0.5-0.6-0.9-1.2-1.2-1.9c-0.3-0.7-0.5-1.4-0.7-2.1h-1l0.2,6.8H148.7z M144.6,33.9v-1.1l-1.6-0.1
		c-0.6,0-1-0.2-1.2-0.4c-0.2-0.3-0.3-0.7-0.3-1.4V14.6c0-0.7,0.1-1.2,0.3-1.4c0.2-0.3,0.6-0.4,1.2-0.4l1.6-0.1v-1.1h-9.2v1.1
		l1.4,0.1c0.6,0,1,0.2,1.2,0.4c0.2,0.3,0.3,0.7,0.3,1.4v16.2c0,0.7-0.1,1.2-0.3,1.4c-0.2,0.3-0.6,0.4-1.2,0.4l-1.4,0.1v1.1H144.6z
		 M120.1,12.9h1.7c2.1,0,3.7,0.3,4.7,1c1,0.7,1.5,1.7,1.5,3c0,0.8-0.1,1.5-0.3,2c-0.2,0.6-0.5,1-0.9,1.3c-0.4,0.3-0.8,0.6-1.3,0.8
		c-0.5,0.2-0.9,0.3-1.4,0.4c-0.4,0.1-0.8,0.1-1.4,0.2c-0.6,0.1-1.2,0.1-1.9,0.1h-0.8V12.9z M120.1,23h2.5c0.8,0,1.6,0.1,2.4,0.2
		c0.8,0.1,1.5,0.4,2.2,0.7c0.6,0.4,1.1,0.9,1.5,1.5c0.4,0.6,0.6,1.4,0.6,2.4c0,0.9-0.1,1.6-0.4,2.2c-0.3,0.6-0.7,1.1-1.3,1.5
		c-0.5,0.4-1.2,0.6-1.9,0.8c-0.8,0.2-1.6,0.2-2.4,0.2c-0.7,0-1.3-0.1-1.7-0.2c-0.4-0.1-0.7-0.4-0.9-0.6c-0.2-0.3-0.3-0.6-0.4-1
		c-0.1-0.4-0.1-0.8-0.1-1.3V23z M122.2,33.9c3.5,0,6.1-0.5,7.9-1.5c1.8-1,2.7-2.6,2.7-4.8c0-0.7-0.1-1.3-0.4-1.9
		c-0.3-0.6-0.6-1.1-1-1.5c-0.4-0.4-0.8-0.8-1.3-1.1c-0.5-0.3-0.9-0.5-1.4-0.7c-0.5-0.2-0.9-0.3-1.3-0.4c-0.4-0.1-0.7-0.1-0.9-0.1
		c0.3-0.1,0.7-0.2,1.2-0.4c0.5-0.2,1-0.5,1.5-0.9c0.5-0.4,0.9-0.9,1.3-1.5c0.4-0.6,0.5-1.4,0.5-2.3c0-1.2-0.3-2.1-0.8-2.8
		c-0.5-0.7-1.2-1.2-2.1-1.6c-0.8-0.3-1.7-0.6-2.7-0.7c-0.9-0.1-1.8-0.1-2.6-0.1H114v1.1l1.4,0.1c0.6,0,1,0.2,1.2,0.4
		c0.2,0.2,0.3,0.6,0.3,1.3V31c0,0.7-0.1,1.1-0.3,1.3c-0.2,0.2-0.6,0.3-1.2,0.4l-1.4,0.1v1.1H122.2z M98.9,15.7l4,9.1h-7.7L98.9,15.7
		z M94.9,33.9v-1.1l-0.9-0.1c-0.4,0-0.7-0.1-1-0.3c-0.2-0.1-0.4-0.4-0.4-0.8c0-0.2,0-0.4,0.1-0.6c0.1-0.3,0.2-0.5,0.3-0.8l1.6-3.9
		h8.8l1.6,3.7c0.2,0.6,0.4,1.1,0.4,1.5c0,0.8-0.5,1.2-1.6,1.3l-1.1,0.1v1.1h9.4v-1.1l-1-0.1c-0.6,0-1-0.2-1.2-0.5
		c-0.2-0.3-0.5-0.8-0.7-1.3l-8.4-19.5h-1.6l-7.9,18.9C91,31,90.6,31.5,90.3,32c-0.4,0.4-0.8,0.7-1.4,0.8L88,32.8v1.1H94.9z
		 M73.5,33.9l0.3-1.2c0.3,0.1,0.6,0.3,1,0.5c0.4,0.2,0.8,0.4,1.2,0.6c0.5,0.2,1,0.3,1.6,0.5c0.6,0.1,1.3,0.2,2.1,0.2
		c1.1,0,2.2-0.2,3.2-0.5c1-0.3,1.9-0.8,2.6-1.4c0.7-0.6,1.3-1.3,1.7-2.1c0.4-0.8,0.6-1.7,0.6-2.7c0-1-0.2-1.9-0.6-2.6
		c-0.4-0.7-0.9-1.3-1.4-1.8c-0.6-0.5-1.2-0.9-1.9-1.1c-0.7-0.3-1.4-0.5-2-0.7l-2.6-0.8c-1.3-0.4-2.3-0.9-2.9-1.5
		c-0.7-0.6-1-1.5-1-2.6c0-1.3,0.4-2.4,1.2-3.2c0.8-0.8,1.9-1.2,3.2-1.2c1.2,0,2.2,0.2,2.9,0.6c0.8,0.4,1.4,0.9,1.8,1.5
		c0.5,0.6,0.8,1.2,1.1,2c0.3,0.7,0.5,1.4,0.6,2h1L87,11.5h-1l-0.4,1c-0.3-0.1-0.6-0.3-0.9-0.5c-0.3-0.2-0.7-0.3-1.2-0.5
		c-0.5-0.1-1-0.3-1.6-0.4C81.3,11.1,80.7,11,80,11c-0.8,0-1.7,0.1-2.6,0.3c-0.9,0.2-1.7,0.6-2.4,1.2c-0.7,0.5-1.3,1.2-1.8,2.1
		c-0.5,0.9-0.7,1.9-0.7,3.2c0,1.1,0.2,2,0.6,2.7c0.4,0.7,0.9,1.3,1.5,1.8c0.6,0.5,1.2,0.8,1.9,1c0.6,0.2,1.2,0.4,1.6,0.5l2.3,0.7
		c1,0.3,1.7,0.6,2.3,0.9c0.6,0.3,1,0.6,1.4,1c0.3,0.4,0.5,0.8,0.6,1.2c0.1,0.4,0.2,0.9,0.2,1.4c0,0.5-0.1,1-0.3,1.5
		c-0.2,0.5-0.5,0.9-0.9,1.3c-0.4,0.4-0.9,0.7-1.6,1c-0.6,0.2-1.4,0.4-2.4,0.4c-1.1,0-2-0.2-2.8-0.5c-0.7-0.4-1.4-0.8-1.8-1.4
		c-0.5-0.6-0.9-1.2-1.2-1.9c-0.3-0.7-0.5-1.4-0.7-2.1h-1l0.2,6.8H73.5z"/>
	<g>
		<path class="st0" d="M72.6,41.2h2.1c0.1,0,0.2,0,0.3,0c1,0,1.7,0,2.3,0.5c0.6,0.5,0.9,1.3,0.9,2.2c0,1.7-0.9,2.5-2.7,2.5
			c-0.1,0-0.1,0-0.2,0l3.9,4.8h-1.5l-3.7-4.8h-0.2v4.8h-1.2V41.2z M73.7,45.6h0.9c1.6,0,2.4-0.2,2.4-1.6c0-1.5-0.8-1.7-2.4-1.7h-0.9
			V45.6z"/>
		<path class="st0" d="M81,48.1c0,1.7,0.4,2.4,1.8,2.4s1.7-0.8,1.7-2.4V45h1.1v3.7c0,1.9-1,2.9-2.9,2.9c-1.9,0-2.9-1-2.9-2.9V45H81
			V48.1z"/>
		<path class="st0" d="M93.5,49.3l1.7-4.3h1.2l-2.8,6.7l-2.1-4.8l-2.1,4.8L86.6,45h1.2l1.7,4.3l1.9-4.5h0.2L93.5,49.3z"/>
		<path class="st0" d="M103.4,51.3h-1v-1.1c-0.5,0.9-1.3,1.4-2.3,1.4c-1.8,0-3-1.3-3-3.4c0-2.1,1.2-3.4,3-3.4c1.1,0,1.8,0.5,2.3,1.4
			V45h1.1V51.3z M100.2,45.8c-1.3,0-2.1,0.8-2.1,2.3c0,1.5,0.8,2.4,2.1,2.4c1.3,0,2.1-0.8,2.1-2.3C102.3,46.7,101.4,45.8,100.2,45.8
			z"/>
		<path class="st0" d="M106.1,41.1c0.4,0,0.8,0.4,0.8,0.8c0,0.4-0.4,0.8-0.8,0.8c-0.4,0-0.8-0.3-0.8-0.8
			C105.3,41.5,105.7,41.1,106.1,41.1z M105.6,45h1.1v6.3h-1.1V45z"/>
		<path class="st0" d="M109.2,49.6c0.4,0.7,0.9,1,1.6,1c0.7,0,1.2-0.4,1.2-0.9c0-0.5-0.3-0.7-1-1c-1.6-0.5-2.5-0.8-2.5-2
			c0-1.1,0.9-1.9,2.2-1.9c1.1,0,1.9,0.5,2.2,1.3l-0.9,0.5c-0.3-0.6-0.8-0.9-1.4-0.9c-0.6,0-1.1,0.4-1.1,0.9c0,0.7,0.6,0.7,1.6,1.1
			c1.2,0.4,1.8,0.8,1.8,1.9c0,1.2-0.9,2-2.3,2c-1.2,0-2-0.4-2.5-1.3L109.2,49.6z"/>
		<path class="st0" d="M121.9,47.6v1.1h-3.2v-1.1H121.9z"/>
		<path class="st0" d="M136,51.3h-1.3l-1.3-3.1h-3.9l-1.3,3.1h-1.3l4.6-10.5L136,51.3z M129.9,47.1h3.2l-1.6-3.7L129.9,47.1z"/>
		<path class="st0" d="M138.1,40.6v5.6c0.5-0.9,1.3-1.4,2.3-1.4c1.8,0,3,1.3,3,3.4c0,2.1-1.2,3.4-3,3.4c-1,0-1.8-0.5-2.3-1.4v1.1h-1
			V40.6H138.1z M140.1,50.5c1.3,0,2.1-0.9,2.1-2.5c0-1.4-0.8-2.2-2-2.2c-1.3,0-2.1,0.9-2.1,2.3C138,49.6,138.8,50.5,140.1,50.5z"/>
		<path class="st0" d="M146.1,48.1c0,1.7,0.4,2.4,1.8,2.4c1.4,0,1.7-0.8,1.7-2.4V45h1.1v3.7c0,1.9-1,2.9-2.9,2.9
			c-1.9,0-2.9-1-2.9-2.9V45h1.1V48.1z"/>
		<path class="st0" d="M157,41.2h1.9c1.9,0,3.3,0,4.6,0.9c1.2,0.9,1.8,2.3,1.8,4.1s-0.6,3.2-1.8,4.1c-1.2,0.9-2.5,0.9-4.1,0.9
			c-0.1,0-0.3,0-0.4,0H157V41.2z M159,50.1c1.7,0,2.9,0,3.8-0.7c0.8-0.7,1.3-1.8,1.3-3.2c0-1.4-0.4-2.5-1.3-3.2
			c-0.8-0.7-2-0.7-3.8-0.7h-0.8v7.8H159z"/>
		<path class="st0" d="M167.2,40.6h1.1v5.3c0.5-0.8,1.3-1.2,2.3-1.2c1.5,0,2.4,0.8,2.4,2.2v4.3h-1.1v-3.7c0-1.3-0.5-1.9-1.7-1.9
			c-0.6,0-1.2,0.2-1.5,0.7c-0.4,0.5-0.4,1-0.4,1.7v3.3h-1.1V40.6z"/>
		<path class="st0" d="M180.9,51.3h-1v-1.1c-0.5,0.9-1.3,1.4-2.3,1.4c-1.8,0-3-1.3-3-3.4c0-2.1,1.2-3.4,3-3.4c1.1,0,1.8,0.5,2.3,1.4
			V45h1.1V51.3z M177.7,45.8c-1.3,0-2.1,0.8-2.1,2.3c0,1.5,0.8,2.4,2.1,2.4c1.3,0,2.1-0.8,2.1-2.3C179.8,46.7,179,45.8,177.7,45.8z"
			/>
		<path class="st0" d="M184.1,40.6v5.6c0.5-0.9,1.3-1.4,2.3-1.4c1.8,0,3,1.3,3,3.4c0,2.1-1.2,3.4-3,3.4c-1,0-1.8-0.5-2.3-1.4v1.1h-1
			V40.6H184.1z M186.2,50.5c1.3,0,2.1-0.9,2.1-2.5c0-1.4-0.8-2.2-2-2.2c-1.3,0-2.1,0.9-2.1,2.3C184.1,49.6,184.9,50.5,186.2,50.5z"
			/>
		<path class="st0" d="M191.7,41.1c0.4,0,0.8,0.4,0.8,0.8c0,0.4-0.4,0.8-0.8,0.8c-0.4,0-0.8-0.3-0.8-0.8
			C190.9,41.5,191.3,41.1,191.7,41.1z M191.2,45h1.1v6.3h-1.1V45z"/>
		<path class="st0" d="M195.6,49.5l1.2,0.4l-1.7,3.7l-0.8-0.3L195.6,49.5z"/>
		<path class="st0" d="M204.1,41.2v6.3c0,2,0.8,3,2.7,3c1.9,0,2.7-0.9,2.7-3v-6.3h1.2v6.3c0,2.7-1.3,4.1-3.9,4.1
			c-2.6,0-3.9-1.4-3.9-4.1v-6.3H204.1z"/>
		<path class="st0" d="M213.1,49.8c0.5,0,0.8,0.4,0.8,0.8c0,0.5-0.4,0.8-0.8,0.8s-0.8-0.4-0.8-0.8C212.3,50.1,212.7,49.8,213.1,49.8
			z"/>
		<path class="st0" d="M224.2,51.3h-1.3l-1.3-3.1h-3.9l-1.3,3.1h-1.3l4.6-10.5L224.2,51.3z M218,47.1h3.2l-1.6-3.7L218,47.1z"/>
		<path class="st0" d="M226.6,49.8c0.5,0,0.8,0.4,0.8,0.8c0,0.5-0.4,0.8-0.8,0.8c-0.5,0-0.8-0.4-0.8-0.8
			C225.8,50.1,226.1,49.8,226.6,49.8z"/>
		<path class="st0" d="M229.9,41.2h5.3v1.1h-4.1v2.9h4.1v1.1h-4.1v3.9h4.1v1.1h-5.3V41.2z"/>
		<path class="st0" d="M238.3,49.8c0.5,0,0.8,0.4,0.8,0.8c0,0.5-0.4,0.8-0.8,0.8s-0.8-0.4-0.8-0.8C237.5,50.1,237.9,49.8,238.3,49.8
			z"/>
	</g>
	<g>
		<path class="st0" d="M176.9,18.7h1.8v15.1h-1.8V18.7z"/>
		<path class="st0" d="M181.7,24.4h1.6v1.5c0.8-1.2,2-1.8,3.5-1.8c2.2,0,3.6,1.2,3.6,3.4v6.4h-1.7v-5.6c0-1.9-0.8-2.8-2.5-2.8
			c-1,0-1.8,0.4-2.3,1c-0.5,0.7-0.5,1.5-0.5,2.5v4.9h-1.6V24.4z"/>
		<path class="st0" d="M191.5,25.7v-1.3h1.7v-3.8h1.7v3.8h1.7v1.3h-1.7v8.1h-1.7v-8.1H191.5z"/>
		<path class="st0" d="M198.9,29.4c0,0,0,0.1,0,0.1c0,2.1,1.3,3.4,3.1,3.4c1.3,0,2.3-0.7,3.1-2.1l1.2,0.8c-1,1.7-2.4,2.6-4.4,2.6
			c-2.9,0-4.8-2.1-4.8-5.2c0-3,2-5.1,4.7-5.1c2.8,0,4.6,1.9,4.6,5c0,0.1,0,0.2,0,0.3H198.9z M201.7,25.5c-1.5,0-2.7,1-2.9,2.6h5.8
			C204.5,26.4,203.4,25.5,201.7,25.5z"/>
		<path class="st0" d="M208.3,24.4h1.4v2c0.8-1.6,1.7-2.3,3.2-2.3c0.4,0,0.7,0.1,1.1,0.2l-0.5,1.5c-0.4-0.1-0.7-0.2-1-0.2
			c-1.7,0-2.6,1.2-2.6,3.7v4.6h-1.6V24.4z"/>
		<path class="st0" d="M215.2,24.4h1.6v1.5c0.8-1.2,2-1.8,3.4-1.8c2.2,0,3.6,1.2,3.6,3.4v6.4h-1.7v-5.6c0-1.9-0.8-2.8-2.5-2.8
			c-1,0-1.8,0.4-2.3,1c-0.5,0.7-0.5,1.5-0.5,2.5v4.9h-1.6V24.4z"/>
		<path class="st0" d="M235.2,33.9h-1.6v-1.7c-0.8,1.4-2,2.1-3.4,2.1c-2.7,0-4.5-2-4.5-5.1c0-3.2,1.8-5.1,4.4-5.1
			c1.6,0,2.8,0.7,3.5,2.1v-1.8h1.6V33.9z M230.5,25.7c-1.9,0-3.1,1.2-3.1,3.4c0,2.3,1.1,3.6,3.2,3.6c1.9,0,3.1-1.2,3.1-3.4
			C233.6,27,232.3,25.7,230.5,25.7z"/>
		<path class="st0" d="M236.4,25.7v-1.3h1.7v-3.8h1.7v3.8h1.7v1.3h-1.7v8.1h-1.7v-8.1H236.4z"/>
		<path class="st0" d="M243.8,18.7c0.7,0,1.2,0.6,1.2,1.2c0,0.7-0.5,1.2-1.2,1.2c-0.7,0-1.2-0.5-1.2-1.2
			C242.6,19.2,243.1,18.7,243.8,18.7z M243,24.4h1.6v9.5H243V24.4z"/>
		<path class="st0" d="M248.2,25.6c1-1,2.2-1.5,3.6-1.5s2.6,0.5,3.6,1.5c1,1,1.5,2.2,1.5,3.6c0,1.4-0.5,2.6-1.5,3.6
			c-1,1-2.3,1.5-3.6,1.5c-1.4,0-2.7-0.5-3.6-1.5c-1-1-1.5-2.2-1.5-3.6C246.7,27.8,247.2,26.5,248.2,25.6z M251.9,32.8
			c1.9,0,3.4-1.6,3.4-3.6c0-2-1.5-3.6-3.4-3.6c-1.9,0-3.4,1.6-3.4,3.6C248.4,31.2,250,32.8,251.9,32.8z"/>
		<path class="st0" d="M259,24.4h1.6v1.5c0.8-1.2,2-1.8,3.4-1.8c2.2,0,3.6,1.2,3.6,3.4v6.4h-1.7v-5.6c0-1.9-0.8-2.8-2.5-2.8
			c-1,0-1.8,0.4-2.3,1c-0.5,0.7-0.5,1.5-0.5,2.5v4.9H259V24.4z"/>
		<path class="st0" d="M279.1,33.9h-1.6v-1.7c-0.8,1.4-2,2.1-3.4,2.1c-2.7,0-4.5-2-4.5-5.1c0-3.2,1.8-5.1,4.4-5.1
			c1.6,0,2.8,0.7,3.5,2.1v-1.8h1.6V33.9z M274.3,25.7c-1.9,0-3.1,1.2-3.1,3.4c0,2.3,1.1,3.6,3.2,3.6c1.9,0,3.1-1.2,3.1-3.4
			C277.5,27,276.2,25.7,274.3,25.7z"/>
		<path class="st0" d="M281.8,17.9h1.7v16h-1.7V17.9z"/>
		<path class="st0" d="M300.7,29.6c0,2.8-1.9,4.6-4.8,4.6c-2.4,0-4.1-1.3-4.6-3.5l1.6-0.8c0.4,1.8,1.5,2.8,3,2.8c1.8,0,3-1.2,3-2.8
			c0-1.4-0.8-2.3-2.3-3l-1.8-0.8c-2-0.8-3-2.2-3-4c0-2.1,1.7-3.7,4.3-3.7c1.8,0,3.2,0.8,3.9,2.3l-1.5,1c-0.7-1.1-1.5-1.7-2.6-1.7
			c-1.4,0-2.3,0.9-2.3,2.2c0,1.1,0.7,1.8,2,2.4l2.2,1C299.7,26.3,300.7,27.7,300.7,29.6z"/>
		<path class="st0" d="M309.7,33.5c-0.9,0.5-1.9,0.8-3.2,0.8c-2.9,0-4.9-2.1-4.9-5c0-3.1,2.1-5.2,4.9-5.2c1.1,0,2.1,0.2,2.9,0.7v1.7
			c-0.8-0.5-1.7-0.8-2.6-0.8c-2.1,0-3.5,1.4-3.5,3.6c0,1.9,1.4,3.4,3.4,3.4c1,0,1.9-0.4,2.9-1.1V33.5z"/>
		<path class="st0" d="M311.4,17.9h1.6v8c0.8-1.2,2-1.8,3.5-1.8c2.2,0,3.6,1.2,3.6,3.4v6.4h-1.7v-5.6c0-1.9-0.8-2.8-2.5-2.8
			c-1,0-1.8,0.4-2.3,1c-0.5,0.7-0.5,1.5-0.5,2.5v4.9h-1.6V17.9z"/>
		<path class="st0" d="M323.4,25.6c1-1,2.2-1.5,3.6-1.5s2.6,0.5,3.6,1.5c1,1,1.5,2.2,1.5,3.6c0,1.4-0.5,2.6-1.5,3.6
			c-1,1-2.3,1.5-3.6,1.5c-1.4,0-2.7-0.5-3.6-1.5c-1-1-1.5-2.2-1.5-3.6C321.9,27.8,322.4,26.5,323.4,25.6z M327,32.8
			c1.9,0,3.4-1.6,3.4-3.6c0-2-1.5-3.6-3.4-3.6c-1.9,0-3.4,1.6-3.4,3.6C323.6,31.2,325.2,32.8,327,32.8z"/>
		<path class="st0" d="M334.9,25.6c1-1,2.2-1.5,3.6-1.5c1.4,0,2.6,0.5,3.6,1.5c1,1,1.5,2.2,1.5,3.6c0,1.4-0.5,2.6-1.5,3.6
			c-1,1-2.3,1.5-3.6,1.5c-1.4,0-2.7-0.5-3.6-1.5c-1-1-1.5-2.2-1.5-3.6C333.4,27.8,333.9,26.5,334.9,25.6z M338.5,32.8
			c1.9,0,3.4-1.6,3.4-3.6c0-2-1.5-3.6-3.4-3.6c-1.9,0-3.4,1.6-3.4,3.6C335.1,31.2,336.7,32.8,338.5,32.8z"/>
		<path class="st0" d="M345.8,17.9h1.7v16h-1.7V17.9z"/>
	</g>
</g>
</svg>
