<?xml version="1.0" encoding="utf-8"?>
<!-- Generator: Adobe Illustrator 22.1.0, SVG Export Plug-In . SVG Version: 6.00 Build 0)  -->
<svg version="1.1" id="Layer_1" xmlns="http://www.w3.org/2000/svg" xmlns:xlink="http://www.w3.org/1999/xlink" x="0px" y="0px"
	 viewBox="0 0 183.776 199.663" style="enable-background:new 0 0 183.776 199.663;" xml:space="preserve">
<style type="text/css">
	.st0{fill:#00304F;}
	.st1{fill:#FFFFFF;}
	.st2{fill:#0083C4;}
	.st3{clip-path:url(#SVGID_2_);}
	.st4{fill:#BE1E2D;}
	.st5{fill:#7A0511;}
</style>
<g>
	<g>
		<path class="st0" d="M141.625,159.779c-13.079,15.492-29.154,28.219-47.484,36.655l-2.253,1.03l-2.257-1.03
			c-18.328-8.436-34.394-21.163-47.482-36.655C15.421,128.296,2,86.942,2,45.591C2,35.553,2.789,25.515,4.367,15.59l0.566-3.726
			l3.608-0.802C35.889,4.923,63.917,2,91.888,2c27.969,0,55.998,2.923,83.345,9.062l3.609,0.802l0.567,3.726
			c1.576,9.925,2.367,19.963,2.367,30.001C181.776,86.942,168.357,128.296,141.625,159.779"/>
	</g>
	<g>
		<path class="st1" d="M91.888,199.663l-3.088-1.41c-18.205-8.379-34.413-20.888-48.179-37.184C14.427,130.216,0,89.204,0,45.591
			c0-10.132,0.805-20.332,2.392-30.315l0.77-5.067L8.107,9.11C35.033,3.065,63.222,0,91.888,0c28.665,0,56.854,3.065,83.783,9.11
			l4.942,1.098l0.773,5.081c1.585,9.981,2.39,20.181,2.39,30.302c0,43.616-14.428,84.628-40.626,115.482
			c-13.751,16.287-29.958,28.794-48.172,37.177L91.888,199.663z M6.705,13.519l-0.361,2.372C4.788,25.68,4,35.668,4,45.591
			c0,42.666,14.09,82.758,39.673,112.894c13.388,15.848,29.131,28.003,46.793,36.132l1.42,0.648l1.422-0.65
			c17.674-8.134,33.417-20.289,46.787-36.126l0.004-0.004c25.585-30.132,39.675-70.225,39.675-112.894
			c0-9.912-0.788-19.9-2.342-29.688l-0.363-2.384l-2.271-0.505C148.153,7.033,120.259,4,91.888,4
			C63.516,4,35.622,7.033,8.979,13.014L6.705,13.519z"/>
	</g>
	<g>
		<path class="st0" d="M141.625,159.779c-13.079,15.492-29.154,28.219-47.484,36.655l-2.253,1.03l-2.257-1.03
			c-18.328-8.436-34.394-21.163-47.482-36.655C15.421,128.296,2,86.942,2,45.591C2,35.553,2.789,25.515,4.367,15.59l0.566-3.726
			l3.608-0.802C35.889,4.923,63.917,2,91.888,2c27.969,0,55.998,2.923,83.345,9.062l3.609,0.802l0.567,3.726
			c1.576,9.925,2.367,19.963,2.367,30.001C181.776,86.942,168.357,128.296,141.625,159.779"/>
	</g>
	<g>
		<path class="st1" d="M136.042,148.708c-12.444,14.465-27.45,25.93-44.154,33.464c-16.703-7.534-31.711-18.999-44.158-33.464
			C24.534,121.805,10.185,84.579,10.185,43.484c0-9.5,0.762-18.726,2.18-27.729C37.254,10.297,64,7.292,91.888,7.292
			c27.889,0,54.635,3.005,79.523,8.463c1.422,9.003,2.186,18.229,2.186,27.729C173.597,84.579,159.242,121.805,136.042,148.708"/>
	</g>
	<g>
		<path class="st2" d="M166.721,20.178c-24.563-5.132-49.725-7.59-74.833-7.59c-25.106,0-50.273,2.458-74.828,7.59
			c-1.094,7.693-1.589,15.499-1.589,23.306c0,36.84,12.068,73.68,36.248,101.789c11.186,12.938,24.726,23.693,40.169,31.114
			c15.448-7.421,28.981-18.176,40.113-31.114c24.238-28.109,36.301-64.949,36.301-101.789
			C168.302,35.677,167.81,27.871,166.721,20.178"/>
	</g>
</g>
<g>
	<defs>
		<path id="SVGID_1_" d="M17.547,21.98c-1.086,7.655-1.579,15.422-1.579,23.19c0,36.657,12.008,73.318,36.069,101.287
			c11.13,12.876,24.604,23.578,39.971,30.962c15.37-7.384,28.84-18.086,39.918-30.962c24.116-27.969,36.12-64.63,36.12-101.287
			c0-7.768-0.493-15.535-1.572-23.19c-24.444-5.107-49.482-7.551-74.466-7.551C67.028,14.429,41.986,16.873,17.547,21.98"/>
	</defs>
	<clipPath id="SVGID_2_">
		<use xlink:href="#SVGID_1_"  style="overflow:visible;"/>
	</clipPath>
	<g class="st3">
		<path class="st4" d="M38.637,149.078c-8.488-28.376,8.791-57.932,38.585-66.01c29.798-8.083,60.829,8.368,69.316,36.745
			c8.487,28.372-8.789,57.928-38.586,66.009C78.158,193.899,47.125,177.45,38.637,149.078"/>
	</g>
	<g class="st3">
		<path class="st5" d="M48.83,136.386c0,0,14.746-57.851,75.642-42.197c0,0-28.554-24.024-62.878-2.496
			C61.594,91.693,40.644,110.986,48.83,136.386"/>
	</g>
	<g class="st3">
		<path class="st1" d="M120.204,175.914c7.627-5.821,13.522-14.469,17.333-28.354c-0.692,0.646-11.605,23.699-37.257,30.843
			c-8.554,2.381-16.31,4.247-26.838,1.612c-14.306-5.47-25.914-16.938-30.453-32.117c-6.031-20.163,2.148-41.023,18.837-52.863
			c-5.134,5.124-9.297,12.771-12.481,26.987c5.956-12.06,18.724-26.247,31.809-30.6c12.016-4.008,24.906-4.955,36.574,0.169
			c11.505,6.122,20.573,16.405,24.462,29.402C148.585,142.38,138.984,164.56,120.204,175.914 M150.891,118.633
			c-9.157-30.617-42.759-48.428-74.909-39.709c-32.147,8.719-50.852,40.718-41.696,71.335c9.155,30.61,42.758,48.423,74.905,39.706
			C141.342,181.245,160.048,149.243,150.891,118.633"/>
	</g>
	<g class="st3">
		<path class="st1" d="M61.268,183.852c-1.073,1.076-2.035,2.647-2.548,4.076c-9.969-7.256-17.641-17.539-21.003-28.931
			C42.63,169.11,51.179,177.861,61.268,183.852"/>
	</g>
	<g class="st3">
		<path class="st1" d="M41.027,154.708c0,0,53.167,7.064,87.104-47.837c0,0-8.246,55.805-78.416,59.092"/>
	</g>
	<g class="st3">
		<path class="st1" d="M32.296,142.667c0,0,49.178,11.26,88.898-32.403c0,0-20.549,39.909-81.395,40.744"/>
	</g>
	<g class="st3">
		<path class="st1" d="M52.001,172.137c0,0,50.451-0.58,78.829-52.335c0,0-10.621,43.616-69.579,58.686"/>
	</g>
</g>
<g>
	<path class="st1" d="M43.153,36.461l-1.936-4.725l-1.935,4.725H43.153z M39.781,27.885h2.956l6.245,14.675H45.63l-1.332-3.268
		h-6.161l-1.333,3.268h-3.268L39.781,27.885z"/>
</g>
<g>
	<g>
		<path class="st1" d="M58.161,39.75c1.415,0,2.269-0.499,2.269-1.582v-0.041c0-0.979-0.729-1.583-2.373-1.583h-3.706v3.206H58.161z
			 M57.307,33.88c1.416,0,2.311-0.458,2.311-1.541v-0.041c0-0.958-0.75-1.499-2.103-1.499h-3.164v3.081H57.307z M51.229,27.989
			h6.765c1.665,0,2.977,0.458,3.809,1.291c0.667,0.666,1,1.477,1,2.477v0.041c0,1.645-0.875,2.561-1.916,3.144
			c1.686,0.645,2.727,1.623,2.727,3.58v0.042c0,2.664-2.165,3.996-5.453,3.996h-6.932V27.989z"/>
	</g>
	<g>
		<path class="st1" d="M66.028,36.315v-8.326h3.206v8.243c0,2.373,1.186,3.601,3.143,3.601s3.143-1.187,3.143-3.497v-8.347h3.206
			v8.222c0,4.413-2.477,6.578-6.391,6.578C68.422,42.789,66.028,40.603,66.028,36.315"/>
	</g>
	<g>
		<path class="st1" d="M93.92,39.667c2.623,0,4.392-1.77,4.392-4.351v-0.041c0-2.581-1.769-4.393-4.392-4.393h-2.477v8.785H93.92z
			 M88.237,27.989h5.683c4.579,0,7.743,3.143,7.743,7.244v0.042c0,4.1-3.164,7.285-7.743,7.285h-5.683V27.989z"/>
	</g>
</g>
<g>
	<polygon class="st1" points="104.515,27.989 107.721,27.989 107.721,33.755 113.632,33.755 113.632,27.989 116.838,27.989 
		116.838,42.56 113.632,42.56 113.632,36.711 107.721,36.711 107.721,42.56 104.515,42.56 	"/>
</g>
<g>
	<path class="st1" d="M128.702,36.461l-1.936-4.725l-1.936,4.725H128.702z M125.329,27.885h2.956l6.245,14.675h-3.351l-1.333-3.268
		h-6.161l-1.332,3.268h-3.268L125.329,27.885z"/>
</g>
<g>
	<g>
		<path class="st1" d="M143.709,39.75c1.415,0,2.269-0.499,2.269-1.582v-0.041c0-0.979-0.729-1.583-2.373-1.583H139.9v3.206H143.709
			z M142.855,33.88c1.416,0,2.311-0.458,2.311-1.541v-0.041c0-0.958-0.75-1.499-2.102-1.499H139.9v3.081H142.855z M136.777,27.989
			h6.765c1.666,0,2.977,0.458,3.81,1.291c0.665,0.666,0.999,1.477,0.999,2.477v0.041c0,1.645-0.874,2.561-1.915,3.144
			c1.686,0.645,2.727,1.623,2.727,3.58v0.042c0,2.664-2.165,3.996-5.454,3.996h-6.932V27.989z"/>
	</g>
</g>
<g>
	<rect x="151.951" y="27.989" class="st1" width="3.205" height="14.571"/>
</g>
<g>
	<g>
		<path class="st1" d="M49.356,56.134v-0.042c0-4.121,3.081-7.535,7.369-7.535c2.644,0,4.226,0.937,5.683,2.311l-1.124,1.207
			c-1.228-1.166-2.602-1.998-4.58-1.998c-3.226,0-5.641,2.622-5.641,5.974v0.041c0,3.373,2.436,6.016,5.641,6.016
			c1.998,0,3.31-0.77,4.704-2.102l1.083,1.061c-1.52,1.541-3.185,2.561-5.828,2.561C52.458,63.628,49.356,60.318,49.356,56.134"/>
	</g>
	<g>
		<path class="st1" d="M71.482,56.238c2.186,0,3.747-1.124,3.747-2.997v-0.042c0-1.79-1.374-2.872-3.726-2.872h-4.497v5.911H71.482z
			 M65.362,48.807h6.265c1.791,0,3.227,0.541,4.143,1.457c0.708,0.708,1.124,1.728,1.124,2.873v0.041
			c0,2.415-1.665,3.83-3.955,4.247l4.475,5.953h-2.019l-4.226-5.662h-0.041h-4.122v5.662h-1.644V48.807z"/>
	</g>
</g>
<g>
	<rect x="80.557" y="48.806" class="st1" width="1.645" height="14.571"/>
</g>
<g>
	<g>
		<path class="st1" d="M85.823,56.134v-0.042c0-4.121,3.081-7.535,7.369-7.535c2.643,0,4.226,0.937,5.682,2.311l-1.124,1.207
			c-1.227-1.166-2.601-1.998-4.579-1.998c-3.226,0-5.641,2.622-5.641,5.974v0.041c0,3.373,2.436,6.016,5.641,6.016
			c1.999,0,3.31-0.77,4.704-2.102l1.083,1.061c-1.52,1.541-3.185,2.561-5.829,2.561C88.925,63.628,85.823,60.318,85.823,56.134"/>
	</g>
</g>
<g>
	<polygon class="st1" points="101.829,48.807 103.474,48.807 103.474,57.508 111.842,48.807 113.965,48.807 107.72,55.177 
		114.236,63.378 112.175,63.378 106.575,56.322 103.474,59.465 103.474,63.378 101.829,63.378 	"/>
</g>
<g>
	<polygon class="st1" points="116.795,48.807 127.328,48.807 127.328,50.306 118.439,50.306 118.439,55.281 126.391,55.281 
		126.391,56.78 118.439,56.78 118.439,61.879 127.432,61.879 127.432,63.378 116.795,63.378 	"/>
</g>
<g>
	<polygon class="st1" points="134.592,50.326 129.7,50.326 129.7,48.806 141.149,48.806 141.149,50.326 136.257,50.326 
		136.257,63.377 134.592,63.377 	"/>
</g>
<g>
	<g>
		<path class="st1" d="M132.77,144.708c-11.522,13.394-25.416,24.009-40.882,30.984c-15.465-6.975-29.361-17.59-40.887-30.984
			c-21.476-24.909-34.762-59.377-34.762-97.427c0-8.797,0.705-17.338,2.018-25.675c23.046-5.054,47.809-7.835,73.631-7.835
			c25.823,0,50.587,2.781,73.631,7.835c1.316,8.337,2.024,16.878,2.024,25.675C167.543,85.331,154.251,119.799,132.77,144.708
			 M171.411,15.754c-24.888-5.458-51.634-8.463-79.524-8.463c-27.887,0-54.633,3.005-79.523,8.463
			c-1.417,9.004-2.18,18.229-2.18,27.73c0,41.094,14.35,78.321,37.545,105.223c12.448,14.466,27.456,25.931,44.158,33.465
			c16.705-7.534,31.711-18.999,44.155-33.465c23.199-26.902,37.555-64.129,37.555-105.223
			C173.597,33.983,172.832,24.758,171.411,15.754"/>
	</g>
</g>
</svg>
