<?xml version="1.0" encoding="utf-8"?>
<!-- Generator: Adobe Illustrator 16.0.0, SVG Export Plug-In . SVG Version: 6.00 Build 0)  -->
<!DOCTYPE svg PUBLIC "-//W3C//DTD SVG 1.1//EN" "http://www.w3.org/Graphics/SVG/1.1/DTD/svg11.dtd">
<svg version="1.1" id="Layer_1" xmlns="http://www.w3.org/2000/svg" xmlns:xlink="http://www.w3.org/1999/xlink" x="0px" y="0px"
	 width="115px" height="101px" viewBox="0 0 115 101" enable-background="new 0 0 115 101" xml:space="preserve">
<g>
	<path fill="#00703C" d="M34.581,6.984c-18.143,7.5-28.604,25.723-27.087,44.294l77.542-32.056C73,5.001,52.725-0.515,34.581,6.984"
		/>
	<path fill="#00703C" d="M8.1,55.785c0.552,2.94,1.411,5.868,2.599,8.742c6.305,15.248,20.181,25.069,35.473,26.914L28.026,47.547
		L8.1,55.785z"/>
	<path fill="#00703C" d="M92.123,30.866c-1.188-2.874-2.646-5.553-4.331-8.024L36.153,44.189l19.575,47.357
		c4.2-0.415,8.411-1.442,12.512-3.138C90.724,79.115,101.417,53.352,92.123,30.866"/>
	<path fill="#FFFFFF" d="M87.792,22.842c-0.862-1.262-1.781-2.468-2.754-3.619L7.495,51.277c0.124,1.502,0.323,3.006,0.605,4.507
		l19.927-8.237l18.146,43.894c3.143,0.38,6.346,0.422,9.556,0.104L36.153,44.19L87.792,22.842z"/>
	<polygon fill="#72CCD2" points="20.47,34.234 17.724,35.37 16.806,33.146 24.834,29.828 25.753,32.05 23.006,33.185 25.872,40.116 
		23.335,41.165 	"/>
	<polygon fill="#72CCD2" points="25.742,29.452 33.103,26.409 33.996,28.565 29.145,30.572 29.718,31.958 34.112,30.142 
		34.938,32.142 30.544,33.956 31.144,35.41 36.062,33.375 36.951,35.535 29.527,38.604 	"/>
	<polygon fill="#72CCD2" points="34.679,25.759 37.045,24.78 42.809,28.06 40.81,23.223 43.321,22.184 47.104,31.338 44.882,32.257 
		38.896,28.852 40.972,33.873 38.461,34.911 	"/>
	<polygon fill="#72CCD2" points="45.084,21.455 47.452,20.478 53.218,23.759 51.217,18.92 53.727,17.882 57.511,27.036 
		55.289,27.955 49.304,24.55 51.379,29.571 48.869,30.608 	"/>
	
		<rect x="57.302" y="16.242" transform="matrix(-0.9242 0.382 -0.382 -0.9242 121.0049 18.3668)" fill="#72CCD2" width="2.755" height="9.904"/>
	<path fill="#72CCD2" d="M62.343,23.446l0.715-2.27c1.2,0.347,2.361,0.309,3.422-0.127c0.679-0.282,0.948-0.67,0.785-1.062
		l-0.011-0.025c-0.156-0.379-0.545-0.464-1.905-0.238c-2.13,0.361-3.864,0.433-4.641-1.45l-0.011-0.027
		c-0.703-1.7,0.136-3.485,2.333-4.395c1.558-0.642,2.946-0.726,4.269-0.339l-0.527,2.316c-1.083-0.241-2.125-0.178-2.937,0.157
		c-0.615,0.255-0.807,0.641-0.674,0.966l0.013,0.027c0.172,0.419,0.562,0.473,1.95,0.235c2.294-0.412,3.883-0.273,4.591,1.439
		l0.011,0.027c0.772,1.869-0.246,3.592-2.468,4.511C65.636,23.859,63.882,23.988,62.343,23.446"/>
	<path fill="#F58426" d="M45.841,62.465l1.449-3.168c2.04,1.053,3.947,1.322,6.085,0.438c1.891-0.781,2.839-2.521,2.114-4.275
		l-0.024-0.055c-0.779-1.891-2.949-2.246-5.634-1.137l-1.562,0.647l-1.42-1.884l2.902-7.648l-8.304,3.433l-1.211-2.933l12.687-5.245
		l1.042,2.521l-3.078,7.69c3.064-0.817,6.405-0.497,7.878,3.064c0,0,0.011,0.028,0.021,0.054c1.462,3.535-0.237,7.189-4.21,8.833
		C51.234,64.18,48.272,63.769,45.841,62.465"/>
	<path fill="#F58426" d="M71.55,48.307l-0.023-0.056c-0.792-1.917-2.916-2.708-5.3-1.724c-2.383,0.987-3.258,3.144-2.498,4.978
		l0.023,0.057c0.803,1.945,2.989,2.807,5.399,1.809C71.537,52.387,72.365,50.278,71.55,48.307 M64.264,56.451
		c-2.064-0.877-3.769-2.517-5.363-6.38l-0.023-0.054c-2.425-5.865-1.521-11.596,3.904-13.84c2.495-1.03,4.521-0.938,6.747-0.286
		l-0.73,3.35c-1.774-0.485-3.185-0.642-4.857,0.049c-2.849,1.179-3.374,4.413-2.089,7.988c0.606-1.406,1.538-2.881,3.783-3.81
		c3.728-1.541,7.621-0.583,9.207,3.253l0.021,0.056c1.577,3.808-0.4,7.8-4.428,9.467C68.079,57.218,66.074,57.18,64.264,56.451"/>
	<path fill="#F58426" d="M87.982,37.439l-0.021-0.055c-1.565-3.783-4.79-6.074-7.749-4.851c-2.958,1.223-3.603,5.019-2.028,8.828
		l0.02,0.055c1.567,3.78,4.763,6.084,7.75,4.85C88.941,45.032,89.545,41.22,87.982,37.439 M74.747,42.91l-0.021-0.056
		c-2.265-5.479-0.758-11.301,4.283-13.384c5.015-2.075,10.144,0.94,12.409,6.42l0.023,0.055c2.265,5.48,0.758,11.302-4.283,13.385
		C82.113,51.416,77.014,48.392,74.747,42.91"/>
	<path fill="#FFF16E" d="M97.594,16.307c-0.86-0.521-1.601-1.169-2.209-1.903c-0.858,0.602-1.611,1.386-2.189,2.341
		c-1.425,2.357-1.45,5.168-0.317,7.467c2.781-2.805,7.214-3.456,10.743-1.32c1.038,0.628,1.899,1.438,2.568,2.365
		c0.105-0.151,0.209-0.304,0.304-0.463c1.604-2.65,1.439-5.875-0.158-8.301C103.689,17.943,100.363,17.982,97.594,16.307"/>
	<path fill="#FFFFFF" d="M92.878,24.212c0.184,0.374,0.4,0.736,0.645,1.079c2.376-2.607,6.338-3.261,9.471-1.365
		c0.989,0.599,1.792,1.39,2.389,2.295c0.291-0.295,0.559-0.617,0.805-0.964c-0.667-0.927-1.528-1.737-2.566-2.366
		C100.092,20.756,95.659,21.407,92.878,24.212"/>
	<path fill="#FFF16E" d="M105.382,26.222c-0.597-0.905-1.399-1.697-2.389-2.295c-3.132-1.896-7.095-1.242-9.473,1.365
		c0.597,0.834,1.367,1.563,2.299,2.127C98.963,29.321,102.915,28.732,105.382,26.222"/>
	<path fill="#FFFFFF" d="M98.221,15.272c-0.684-0.414-1.278-0.919-1.776-1.49c-0.367,0.178-0.722,0.385-1.061,0.622
		c0.609,0.734,1.348,1.381,2.209,1.903c2.769,1.676,6.095,1.636,8.741,0.187c-0.224-0.341-0.477-0.665-0.756-0.97
		C103.329,16.682,100.546,16.679,98.221,15.272"/>
	<path fill="#FFF16E" d="M105.58,15.524c-0.49-0.534-1.06-1.01-1.709-1.403c-2.344-1.418-5.133-1.452-7.425-0.339
		c0.5,0.571,1.094,1.076,1.776,1.49C100.546,16.679,103.329,16.682,105.58,15.524"/>
</g>
</svg>
