<?xml version="1.0" encoding="UTF-8" standalone="no"?>
<svg
   xmlns:dc="http://purl.org/dc/elements/1.1/"
   xmlns:cc="http://creativecommons.org/ns#"
   xmlns:rdf="http://www.w3.org/1999/02/22-rdf-syntax-ns#"
   xmlns:svg="http://www.w3.org/2000/svg"
   xmlns="http://www.w3.org/2000/svg"
   viewBox="0 0 541.33331 141.33333"
   height="141.33333"
   width="541.33331"
   xml:space="preserve"
   id="svg2"
   version="1.1"><metadata
     id="metadata8"><rdf:RDF><cc:Work
         rdf:about=""><dc:format>image/svg+xml</dc:format><dc:type
           rdf:resource="http://purl.org/dc/dcmitype/StillImage" /></cc:Work></rdf:RDF></metadata><defs
     id="defs6"><clipPath
       id="clipPath18"
       clipPathUnits="userSpaceOnUse"><path
         id="path16"
         d="M 0,106 H 406 V 0 H 0 Z" /></clipPath></defs><g
     transform="matrix(1.3333333,0,0,-1.3333333,0,141.33333)"
     id="g10"><g
       id="g12"><g
         clip-path="url(#clipPath18)"
         id="g14"><g
           transform="translate(66.7734,52.9004)"
           id="g20"><path
             id="path22"
             style="fill:#6b6c6f;fill-opacity:1;fill-rule:nonzero;stroke:none"
             d="m 0,0 -0.047,27.193 -0.015,7.505 -30.324,0.678 -30.509,-0.678 v -0.175 l -0.066,0.003 V 27.193 0 c 0,0 -1.036,-16.57 16.012,-27.967 0,0 13.577,-7.714 14.345,-8.873 l 0.218,-0.143 0.058,-0.038 c 0.771,1.156 14.32,9.054 14.32,9.054 C 1.038,-16.57 0,0 0,0" /></g><g
           transform="translate(66.7734,52.9004)"
           id="g24"><path
             id="path26"
             style="fill:none;stroke:#c99212;stroke-width:4.05999994;stroke-linecap:round;stroke-linejoin:round;stroke-miterlimit:4;stroke-dasharray:none;stroke-opacity:1"
             d="m 0,0 -0.047,27.193 -0.015,7.505 -30.324,0.678 -30.509,-0.678 v -0.175 l -0.066,0.003 V 27.193 0 c 0,0 -1.036,-16.57 16.012,-27.967 0,0 13.577,-7.714 14.345,-8.873 l 0.218,-0.143 0.058,-0.038 c 0.771,1.156 14.32,9.054 14.32,9.054 C 1.038,-16.57 0,0 0,0 Z" /></g><g
           transform="translate(36.3872,15.917)"
           id="g28"><path
             id="path30"
             style="fill:#79242f;fill-opacity:1;fill-rule:nonzero;stroke:none"
             d="m 0,0 0.058,-0.038 c 0.771,1.156 14.32,9.055 14.32,9.055 17.046,11.396 16.008,27.966 16.008,27.966 L 30.339,64.177 0,61.469 Z" /></g><g
           transform="translate(36.3872,15.917)"
           id="g32"><path
             id="path34"
             style="fill:none;stroke:#231f20;stroke-width:1.91100001;stroke-linecap:round;stroke-linejoin:round;stroke-miterlimit:4;stroke-dasharray:none;stroke-opacity:1"
             d="m 0,0 0.058,-0.038 c 0.771,1.156 14.32,9.055 14.32,9.055 17.046,11.396 16.008,27.966 16.008,27.966 L 30.339,64.177 0,61.469 Z" /></g><g
           transform="translate(5.812,80.0938)"
           id="g36"><path
             id="path38"
             style="fill:#c99212;fill-opacity:1;fill-rule:nonzero;stroke:none"
             d="m 0,0 v -27.193 c 0,0 -1.036,-16.571 16.013,-27.967 0,0 13.576,-7.714 14.344,-8.873 l 0.218,-0.144 v 61.469 z" /></g><g
           transform="translate(5.812,80.0938)"
           id="g40"><path
             id="path42"
             style="fill:none;stroke:#231f20;stroke-width:1.91100001;stroke-linecap:round;stroke-linejoin:round;stroke-miterlimit:4;stroke-dasharray:none;stroke-opacity:1"
             d="m 0,0 v -27.193 c 0,0 -1.036,-16.571 16.013,-27.967 0,0 13.576,-7.714 14.344,-8.873 l 0.218,-0.144 v 61.469 z" /></g><g
           transform="translate(36.3872,88.2764)"
           id="g44"><path
             id="path46"
             style="fill:#231f20;fill-opacity:1;fill-rule:nonzero;stroke:none"
             d="m 0,0 v -10.891 l 30.339,2.708 -0.014,7.505 z" /></g><g
           transform="translate(36.3872,88.2764)"
           id="g48"><path
             id="path50"
             style="fill:none;stroke:#231f20;stroke-width:1.91100001;stroke-linecap:round;stroke-linejoin:round;stroke-miterlimit:4;stroke-dasharray:none;stroke-opacity:1"
             d="m 0,0 v -10.891 l 30.339,2.708 -0.014,7.505 z" /></g><g
           transform="translate(36.3872,88.2764)"
           id="g52"><path
             id="path54"
             style="fill:#6b6c6f;fill-opacity:1;fill-rule:nonzero;stroke:none"
             d="m 0,0 -30.509,-0.678 v -0.175 l -0.066,0.003 V -8.183 L 0,-10.891 Z" /></g><g
           transform="translate(36.3872,88.2764)"
           id="g56"><path
             id="path58"
             style="fill:none;stroke:#231f20;stroke-width:1.91100001;stroke-linecap:round;stroke-linejoin:round;stroke-miterlimit:4;stroke-dasharray:none;stroke-opacity:1"
             d="m 0,0 -30.509,-0.678 v -0.175 l -0.066,0.003 V -8.183 L 0,-10.891 Z" /></g><g
           transform="translate(36.3872,15.917)"
           id="g60"><path
             id="path62"
             style="fill:#79242f;fill-opacity:1;fill-rule:nonzero;stroke:none"
             d="m 0,0 0.058,-0.038 c 0.771,1.156 14.32,9.055 14.32,9.055 17.046,11.396 16.008,27.966 16.008,27.966 L 30.339,64.177 0,61.469 Z" /></g><g
           transform="translate(36.3872,15.917)"
           id="g64"><path
             id="path66"
             style="fill:none;stroke:#231f20;stroke-width:0.23899999;stroke-linecap:round;stroke-linejoin:round;stroke-miterlimit:4;stroke-dasharray:none;stroke-opacity:1"
             d="m 0,0 0.058,-0.038 c 0.771,1.156 14.32,9.055 14.32,9.055 17.046,11.396 16.008,27.966 16.008,27.966 L 30.339,64.177 0,61.469 Z" /></g><g
           transform="translate(5.812,80.0938)"
           id="g68"><path
             id="path70"
             style="fill:#c99212;fill-opacity:1;fill-rule:nonzero;stroke:none"
             d="m 0,0 v -27.193 c 0,0 -1.036,-16.571 16.013,-27.967 0,0 13.576,-7.714 14.344,-8.873 l 0.218,-0.144 v 61.469 z" /></g><g
           transform="translate(5.812,80.0938)"
           id="g72"><path
             id="path74"
             style="fill:none;stroke:#231f20;stroke-width:0.23899999;stroke-linecap:round;stroke-linejoin:round;stroke-miterlimit:4;stroke-dasharray:none;stroke-opacity:1"
             d="m 0,0 v -27.193 c 0,0 -1.036,-16.571 16.013,-27.967 0,0 13.576,-7.714 14.344,-8.873 l 0.218,-0.144 v 61.469 z" /></g><g
           transform="translate(36.3872,88.2764)"
           id="g76"><path
             id="path78"
             style="fill:#231f20;fill-opacity:1;fill-rule:nonzero;stroke:none"
             d="m 0,0 v -10.891 l 30.339,2.708 -0.014,7.505 z" /></g><g
           transform="translate(36.3872,88.2764)"
           id="g80"><path
             id="path82"
             style="fill:none;stroke:#231f20;stroke-width:0.23899999;stroke-linecap:round;stroke-linejoin:round;stroke-miterlimit:4;stroke-dasharray:none;stroke-opacity:1"
             d="m 0,0 v -10.891 l 30.339,2.708 -0.014,7.505 z" /></g><g
           transform="translate(36.3872,88.2764)"
           id="g84"><path
             id="path86"
             style="fill:#6b6c6f;fill-opacity:1;fill-rule:nonzero;stroke:none"
             d="m 0,0 -30.509,-0.678 v -0.175 l -0.066,0.003 V -8.183 L 0,-10.891 Z" /></g><g
           transform="translate(36.3872,88.2764)"
           id="g88"><path
             id="path90"
             style="fill:none;stroke:#231f20;stroke-width:0.23899999;stroke-linecap:round;stroke-linejoin:round;stroke-miterlimit:4;stroke-dasharray:none;stroke-opacity:1"
             d="m 0,0 -30.509,-0.678 v -0.175 l -0.066,0.003 V -8.183 L 0,-10.891 Z" /></g><g
           transform="translate(16.0527,64.5571)"
           id="g92"><path
             id="path94"
             style="fill:#ffffff;fill-opacity:1;fill-rule:nonzero;stroke:none"
             d="m 0,0 c -0.523,0.25 -1.103,0.42 -1.681,0.42 -1.737,0 -2.738,-1.397 -2.738,-3.033 0,-1.645 1.023,-3.065 2.783,-3.065 0.546,0 1.057,0.125 1.568,0.329 l 0.34,-0.853 c -0.635,-0.282 -1.306,-0.441 -2.011,-0.441 -2.315,0 -3.826,1.83 -3.826,4.065 0,2.273 1.522,3.943 3.838,3.943 0.738,0 1.5,-0.24 2.136,-0.558 z" /></g><g
           transform="translate(16.0527,64.5571)"
           id="g96"><path
             id="path98"
             style="fill:none;stroke:#231f20;stroke-width:0.764;stroke-linecap:butt;stroke-linejoin:miter;stroke-miterlimit:10;stroke-dasharray:none;stroke-opacity:1"
             d="m 0,0 c -0.523,0.25 -1.103,0.42 -1.681,0.42 -1.737,0 -2.738,-1.397 -2.738,-3.033 0,-1.645 1.023,-3.065 2.783,-3.065 0.546,0 1.057,0.125 1.568,0.329 l 0.34,-0.853 c -0.635,-0.282 -1.306,-0.441 -2.011,-0.441 -2.315,0 -3.826,1.83 -3.826,4.065 0,2.273 1.522,3.943 3.838,3.943 0.738,0 1.5,-0.24 2.136,-0.558 z" /></g><g
           transform="translate(20.8003,59.2188)"
           id="g100"><path
             id="path102"
             style="fill:#ffffff;fill-opacity:1;fill-rule:nonzero;stroke:none"
             d="M 0,0 V 1.784 C -0.261,1.579 -0.715,1.499 -1.136,1.409 -1.794,1.261 -2.396,1.08 -2.396,0.442 c 0,-0.588 0.477,-0.86 1.238,-0.86 0.409,0 0.817,0.066 1.181,0.192 C 0.023,-0.226 0,-0.079 0,0 m -1.158,-1.304 c -1.386,0 -2.374,0.555 -2.374,1.668 0,1.249 1.022,1.59 1.953,1.785 0.819,0.168 1.568,0.261 1.568,0.816 0,0.66 -0.624,0.771 -1.113,0.771 -0.581,0 -1.26,-0.26 -1.5,-0.363 l -0.351,0.796 c 0.556,0.261 1.317,0.455 1.919,0.455 1.351,0 2.079,-0.627 2.079,-1.818 v -2.964 c 0,-0.238 0.079,-0.727 0.079,-0.727 -0.671,-0.216 -1.477,-0.419 -2.26,-0.419" /></g><g
           transform="translate(20.8003,59.2188)"
           id="g104"><path
             id="path106"
             style="fill:none;stroke:#231f20;stroke-width:0.764;stroke-linecap:butt;stroke-linejoin:miter;stroke-miterlimit:10;stroke-dasharray:none;stroke-opacity:1"
             d="M 0,0 V 1.784 C -0.261,1.579 -0.715,1.499 -1.136,1.409 -1.794,1.261 -2.396,1.08 -2.396,0.442 c 0,-0.588 0.477,-0.86 1.238,-0.86 0.409,0 0.817,0.066 1.181,0.192 C 0.023,-0.226 0,-0.079 0,0 Z m -1.158,-1.304 c -1.386,0 -2.374,0.555 -2.374,1.668 0,1.249 1.022,1.59 1.953,1.785 0.819,0.168 1.568,0.261 1.568,0.816 0,0.66 -0.624,0.771 -1.113,0.771 -0.581,0 -1.26,-0.26 -1.5,-0.363 l -0.351,0.796 c 0.556,0.261 1.317,0.455 1.919,0.455 1.351,0 2.079,-0.627 2.079,-1.818 v -2.964 c 0,-0.238 0.079,-0.727 0.079,-0.727 -0.671,-0.216 -1.477,-0.419 -2.26,-0.419 z" /></g><g
           transform="translate(30.1821,58.0371)"
           id="g108"><path
             id="path110"
             style="fill:#ffffff;fill-opacity:1;fill-rule:nonzero;stroke:none"
             d="m 0,0 v 3.658 c 0,0.76 -0.352,1.26 -1.159,1.26 -0.453,0 -0.874,-0.157 -1.282,-0.352 0.089,-0.247 0.112,-0.52 0.112,-0.782 V 0 H -3.35 v 3.669 c 0,0.762 -0.376,1.249 -1.16,1.249 -0.409,0 -0.828,-0.134 -1.214,-0.295 0,0 0.022,-0.192 0.022,-0.295 V 0 h -1.021 v 4.499 c 0,0.238 -0.069,0.738 -0.069,0.738 0.705,0.272 1.636,0.568 2.396,0.568 0.66,0 1.193,-0.124 1.58,-0.523 0.555,0.284 1.123,0.523 1.895,0.523 1.228,0 1.942,-0.682 1.942,-1.93 L 1.021,0 Z" /></g><g
           transform="translate(30.1821,58.0371)"
           id="g112"><path
             id="path114"
             style="fill:none;stroke:#231f20;stroke-width:0.764;stroke-linecap:butt;stroke-linejoin:miter;stroke-miterlimit:10;stroke-dasharray:none;stroke-opacity:1"
             d="m 0,0 v 3.658 c 0,0.76 -0.352,1.26 -1.159,1.26 -0.453,0 -0.874,-0.157 -1.282,-0.352 0.089,-0.247 0.112,-0.52 0.112,-0.782 V 0 H -3.35 v 3.669 c 0,0.762 -0.376,1.249 -1.16,1.249 -0.409,0 -0.828,-0.134 -1.214,-0.295 0,0 0.022,-0.192 0.022,-0.295 V 0 h -1.021 v 4.499 c 0,0.238 -0.069,0.738 -0.069,0.738 0.705,0.272 1.636,0.568 2.396,0.568 0.66,0 1.193,-0.124 1.58,-0.523 0.555,0.284 1.123,0.523 1.895,0.523 1.228,0 1.942,-0.682 1.942,-1.93 L 1.021,0 Z" /></g><g
           transform="translate(34.8965,62.9551)"
           id="g116"><path
             id="path118"
             style="fill:#ffffff;fill-opacity:1;fill-rule:nonzero;stroke:none"
             d="m 0,0 c -0.352,0 -0.785,-0.124 -1.079,-0.33 v -3.451 c 0,-0.125 -0.01,-0.204 -0.01,-0.204 0.27,-0.103 0.656,-0.17 0.941,-0.17 1.227,0 1.794,1 1.794,2.123 C 1.646,-0.986 1.17,0 0,0 m -0.159,-5.041 c -0.637,0 -1.408,0.148 -1.999,0.374 0,0 0.056,0.467 0.056,0.682 V 3.42 h 1.023 V 0.581 c 0.385,0.204 0.839,0.306 1.272,0.306 1.736,0 2.59,-1.317 2.59,-2.941 0,-1.727 -1.193,-2.987 -2.942,-2.987" /></g><g
           transform="translate(34.8965,62.9551)"
           id="g120"><path
             id="path122"
             style="fill:none;stroke:#231f20;stroke-width:0.764;stroke-linecap:butt;stroke-linejoin:miter;stroke-miterlimit:10;stroke-dasharray:none;stroke-opacity:1"
             d="m 0,0 c -0.352,0 -0.785,-0.124 -1.079,-0.33 v -3.451 c 0,-0.125 -0.01,-0.204 -0.01,-0.204 0.27,-0.103 0.656,-0.17 0.941,-0.17 1.227,0 1.794,1 1.794,2.123 C 1.646,-0.986 1.17,0 0,0 Z m -0.159,-5.041 c -0.637,0 -1.408,0.148 -1.999,0.374 0,0 0.056,0.467 0.056,0.682 V 3.42 h 1.023 V 0.581 c 0.385,0.204 0.839,0.306 1.272,0.306 1.736,0 2.59,-1.317 2.59,-2.941 0,-1.727 -1.193,-2.987 -2.942,-2.987 z" /></g><g
           transform="translate(41.7793,62.8433)"
           id="g124"><path
             id="path126"
             style="fill:#ffffff;fill-opacity:1;fill-rule:nonzero;stroke:none"
             d="m 0,0 c -0.217,0.045 -0.443,0.067 -0.66,0.067 -0.374,0 -0.75,-0.067 -1.102,-0.193 0,0 0.012,-0.159 0.012,-0.239 v -4.441 h -1.021 v 4.418 c 0,0.262 -0.09,0.796 -0.09,0.796 0.736,0.32 1.52,0.591 2.339,0.591 0.283,0 0.556,-0.033 0.829,-0.102 z" /></g><g
           transform="translate(41.7793,62.8433)"
           id="g128"><path
             id="path130"
             style="fill:none;stroke:#231f20;stroke-width:0.764;stroke-linecap:butt;stroke-linejoin:miter;stroke-miterlimit:10;stroke-dasharray:none;stroke-opacity:1"
             d="m 0,0 c -0.217,0.045 -0.443,0.067 -0.66,0.067 -0.374,0 -0.75,-0.067 -1.102,-0.193 0,0 0.012,-0.159 0.012,-0.239 v -4.441 h -1.021 v 4.418 c 0,0.262 -0.09,0.796 -0.09,0.796 0.736,0.32 1.52,0.591 2.339,0.591 0.283,0 0.556,-0.033 0.829,-0.102 z" /></g><path
           id="path132"
           style="fill:#ffffff;fill-opacity:1;fill-rule:nonzero;stroke:none"
           d="m 43.097,63.718 h 1.022 v -5.681 h -1.022 z m 0.488,1.317 c -0.364,0 -0.647,0.249 -0.647,0.625 0,0.361 0.283,0.634 0.647,0.634 0.364,0 0.671,-0.273 0.671,-0.634 0,-0.376 -0.307,-0.625 -0.671,-0.625" /><path
           id="path134"
           style="fill:none;stroke:#231f20;stroke-width:0.764;stroke-linecap:butt;stroke-linejoin:miter;stroke-miterlimit:10;stroke-dasharray:none;stroke-opacity:1"
           d="m 43.097,63.718 h 1.022 v -5.681 h -1.022 z m 0.488,1.317 c -0.364,0 -0.647,0.249 -0.647,0.625 0,0.361 0.283,0.634 0.647,0.634 0.364,0 0.671,-0.273 0.671,-0.634 0,-0.376 -0.307,-0.625 -0.671,-0.625 z" /><g
           transform="translate(49.3667,59.1743)"
           id="g136"><path
             id="path138"
             style="fill:#ffffff;fill-opacity:1;fill-rule:nonzero;stroke:none"
             d="m 0,0 v 3.451 c -0.294,0.206 -0.727,0.33 -1.079,0.33 -1.171,0 -1.669,-0.987 -1.669,-2.032 0,-1.124 0.589,-2.123 1.817,-2.123 0.283,0 0.671,0.067 0.943,0.169 C 0.012,-0.205 0,-0.125 0,0 m -0.921,-1.26 c -1.749,0 -2.963,1.26 -2.963,2.987 0,1.624 0.874,2.941 2.612,2.941 0.431,0 0.886,-0.102 1.272,-0.306 v 2.839 h 1.022 v -7.406 c 0,-0.214 0.057,-0.681 0.057,-0.681 -0.591,-0.226 -1.363,-0.374 -2,-0.374" /></g><g
           transform="translate(49.3667,59.1743)"
           id="g140"><path
             id="path142"
             style="fill:none;stroke:#231f20;stroke-width:0.764;stroke-linecap:butt;stroke-linejoin:miter;stroke-miterlimit:10;stroke-dasharray:none;stroke-opacity:1"
             d="m 0,0 v 3.451 c -0.294,0.206 -0.727,0.33 -1.079,0.33 -1.171,0 -1.669,-0.987 -1.669,-2.032 0,-1.124 0.589,-2.123 1.817,-2.123 0.283,0 0.671,0.067 0.943,0.169 C 0.012,-0.205 0,-0.125 0,0 Z m -0.921,-1.26 c -1.749,0 -2.963,1.26 -2.963,2.987 0,1.624 0.874,2.941 2.612,2.941 0.431,0 0.886,-0.102 1.272,-0.306 v 2.839 h 1.022 v -7.406 c 0,-0.214 0.057,-0.681 0.057,-0.681 -0.591,-0.226 -1.363,-0.374 -2,-0.374 z" /></g><g
           transform="translate(54.0566,62.9697)"
           id="g144"><path
             id="path146"
             style="fill:#ffffff;fill-opacity:1;fill-rule:nonzero;stroke:none"
             d="m 0,0 c -0.748,0 -1.282,-0.456 -1.282,-1.23 0,-0.771 0.534,-1.213 1.282,-1.213 0.751,0 1.284,0.442 1.284,1.213 C 1.284,-0.456 0.751,0 0,0 m -0.681,-4.933 c -0.465,-0.148 -0.989,-0.453 -0.989,-1.011 0,-0.726 1.149,-0.861 1.682,-0.861 0.557,0 1.657,0.146 1.657,0.897 0,0.827 -1.77,0.817 -2.35,0.975 m 0.693,-2.702 c -1.021,0 -2.657,0.319 -2.657,1.635 0,0.875 0.635,1.296 1.351,1.511 -0.159,0.16 -0.273,0.409 -0.273,0.649 0,0.316 0.216,0.6 0.466,0.771 -0.738,0.341 -1.181,1.034 -1.181,1.851 0,1.318 1.034,2.091 2.282,2.091 0.375,0 0.738,-0.124 1.114,-0.124 h 1.602 v -0.808 c -0.239,0 -0.659,0 -0.898,0.103 0,0 0,-0.024 -0.023,-0.024 0.273,-0.341 0.488,-0.806 0.488,-1.238 0,-1.169 -0.841,-1.932 -1.963,-2.055 -0.206,-0.023 -0.399,-0.023 -0.603,-0.023 -0.148,-0.069 -0.363,-0.194 -0.363,-0.397 0,-0.943 3.384,-0.047 3.384,-2.159 0,-1.397 -1.602,-1.783 -2.726,-1.783" /></g><g
           transform="translate(54.0566,62.9697)"
           id="g148"><path
             id="path150"
             style="fill:none;stroke:#231f20;stroke-width:0.764;stroke-linecap:butt;stroke-linejoin:miter;stroke-miterlimit:10;stroke-dasharray:none;stroke-opacity:1"
             d="m 0,0 c -0.748,0 -1.282,-0.456 -1.282,-1.23 0,-0.771 0.534,-1.213 1.282,-1.213 0.751,0 1.284,0.442 1.284,1.213 C 1.284,-0.456 0.751,0 0,0 Z m -0.681,-4.933 c -0.465,-0.148 -0.989,-0.453 -0.989,-1.011 0,-0.726 1.149,-0.861 1.682,-0.861 0.557,0 1.657,0.146 1.657,0.897 0,0.827 -1.77,0.817 -2.35,0.975 z m 0.693,-2.702 c -1.021,0 -2.657,0.319 -2.657,1.635 0,0.875 0.635,1.296 1.351,1.511 -0.159,0.16 -0.273,0.409 -0.273,0.649 0,0.316 0.216,0.6 0.466,0.771 -0.738,0.341 -1.181,1.034 -1.181,1.851 0,1.318 1.034,2.091 2.282,2.091 0.375,0 0.738,-0.124 1.114,-0.124 h 1.602 v -0.808 c -0.239,0 -0.659,0 -0.898,0.103 0,0 0,-0.024 -0.023,-0.024 0.273,-0.341 0.488,-0.806 0.488,-1.238 0,-1.169 -0.841,-1.932 -1.963,-2.055 -0.206,-0.023 -0.399,-0.023 -0.603,-0.023 -0.148,-0.069 -0.363,-0.194 -0.363,-0.397 0,-0.943 3.384,-0.047 3.384,-2.159 0,-1.397 -1.602,-1.783 -2.726,-1.783 z" /></g><g
           transform="translate(60.0439,62.9697)"
           id="g152"><path
             id="path154"
             style="fill:#ffffff;fill-opacity:1;fill-rule:nonzero;stroke:none"
             d="M 0,0 C -0.887,0 -1.375,-0.73 -1.397,-1.615 H 1.362 C 1.352,-0.775 0.931,0 0,0 m 2.385,-2.443 h -3.782 c 0.056,-1.011 0.682,-1.726 1.771,-1.726 0.465,0 0.931,0.089 1.352,0.26 l 0.317,-0.772 c -0.544,-0.252 -1.157,-0.374 -1.76,-0.374 -1.738,0 -2.793,1.283 -2.793,2.972 0,1.558 0.805,2.956 2.498,2.956 1.59,0 2.453,-1.183 2.453,-2.692 0,-0.194 -0.023,-0.41 -0.056,-0.624" /></g><g
           transform="translate(60.0439,62.9697)"
           id="g156"><path
             id="path158"
             style="fill:none;stroke:#231f20;stroke-width:0.764;stroke-linecap:butt;stroke-linejoin:miter;stroke-miterlimit:10;stroke-dasharray:none;stroke-opacity:1"
             d="M 0,0 C -0.887,0 -1.375,-0.73 -1.397,-1.615 H 1.362 C 1.352,-0.775 0.931,0 0,0 Z m 2.385,-2.443 h -3.782 c 0.056,-1.011 0.682,-1.726 1.771,-1.726 0.465,0 0.931,0.089 1.352,0.26 l 0.317,-0.772 c -0.544,-0.252 -1.157,-0.374 -1.76,-0.374 -1.738,0 -2.793,1.283 -2.793,2.972 0,1.558 0.805,2.956 2.498,2.956 1.59,0 2.453,-1.183 2.453,-2.692 0,-0.194 -0.023,-0.41 -0.056,-0.624 z" /></g><g
           transform="translate(16.0527,64.5571)"
           id="g160"><path
             id="path162"
             style="fill:#ffffff;fill-opacity:1;fill-rule:nonzero;stroke:none"
             d="m 0,0 c -0.523,0.25 -1.103,0.42 -1.681,0.42 -1.737,0 -2.738,-1.397 -2.738,-3.033 0,-1.645 1.023,-3.065 2.783,-3.065 0.546,0 1.057,0.125 1.568,0.329 l 0.34,-0.853 c -0.635,-0.282 -1.306,-0.441 -2.011,-0.441 -2.315,0 -3.826,1.83 -3.826,4.065 0,2.273 1.522,3.943 3.838,3.943 0.738,0 1.5,-0.24 2.136,-0.558 z" /></g><g
           transform="translate(20.8003,59.2188)"
           id="g164"><path
             id="path166"
             style="fill:#ffffff;fill-opacity:1;fill-rule:nonzero;stroke:none"
             d="M 0,0 V 1.784 C -0.261,1.579 -0.715,1.499 -1.136,1.409 -1.794,1.261 -2.396,1.08 -2.396,0.442 c 0,-0.588 0.477,-0.86 1.238,-0.86 0.409,0 0.817,0.066 1.181,0.192 C 0.023,-0.226 0,-0.079 0,0 m -1.158,-1.304 c -1.386,0 -2.374,0.555 -2.374,1.668 0,1.249 1.022,1.59 1.953,1.785 0.819,0.168 1.568,0.261 1.568,0.816 0,0.66 -0.624,0.771 -1.113,0.771 -0.581,0 -1.26,-0.26 -1.5,-0.363 l -0.351,0.796 c 0.556,0.261 1.317,0.455 1.919,0.455 1.351,0 2.079,-0.627 2.079,-1.818 v -2.964 c 0,-0.238 0.079,-0.727 0.079,-0.727 -0.671,-0.216 -1.477,-0.419 -2.26,-0.419" /></g><g
           transform="translate(30.1821,58.0371)"
           id="g168"><path
             id="path170"
             style="fill:#ffffff;fill-opacity:1;fill-rule:nonzero;stroke:none"
             d="m 0,0 v 3.658 c 0,0.76 -0.352,1.26 -1.159,1.26 -0.453,0 -0.874,-0.157 -1.282,-0.352 0.089,-0.247 0.112,-0.52 0.112,-0.782 V 0 H -3.35 v 3.669 c 0,0.762 -0.376,1.249 -1.16,1.249 -0.409,0 -0.828,-0.134 -1.214,-0.295 0,0 0.022,-0.192 0.022,-0.295 V 0 h -1.021 v 4.499 c 0,0.238 -0.069,0.738 -0.069,0.738 0.705,0.272 1.636,0.568 2.396,0.568 0.66,0 1.193,-0.124 1.58,-0.523 0.555,0.284 1.123,0.523 1.895,0.523 1.228,0 1.942,-0.682 1.942,-1.93 L 1.021,0 Z" /></g><g
           transform="translate(34.8965,62.9551)"
           id="g172"><path
             id="path174"
             style="fill:#ffffff;fill-opacity:1;fill-rule:nonzero;stroke:none"
             d="m 0,0 c -0.352,0 -0.785,-0.124 -1.079,-0.33 v -3.451 c 0,-0.125 -0.01,-0.204 -0.01,-0.204 0.27,-0.103 0.656,-0.17 0.941,-0.17 1.227,0 1.794,1 1.794,2.123 C 1.646,-0.986 1.17,0 0,0 m -0.159,-5.041 c -0.637,0 -1.408,0.148 -1.999,0.374 0,0 0.056,0.467 0.056,0.682 V 3.42 h 1.023 V 0.581 c 0.385,0.204 0.839,0.306 1.272,0.306 1.736,0 2.59,-1.317 2.59,-2.941 0,-1.727 -1.193,-2.987 -2.942,-2.987" /></g><g
           transform="translate(41.7793,62.8433)"
           id="g176"><path
             id="path178"
             style="fill:#ffffff;fill-opacity:1;fill-rule:nonzero;stroke:none"
             d="m 0,0 c -0.217,0.045 -0.443,0.067 -0.66,0.067 -0.374,0 -0.75,-0.067 -1.102,-0.193 0,0 0.012,-0.159 0.012,-0.239 v -4.441 h -1.021 v 4.418 c 0,0.262 -0.09,0.796 -0.09,0.796 0.736,0.32 1.52,0.591 2.339,0.591 0.283,0 0.556,-0.033 0.829,-0.102 z" /></g><path
           id="path180"
           style="fill:#ffffff;fill-opacity:1;fill-rule:nonzero;stroke:none"
           d="m 43.097,63.718 h 1.022 v -5.681 h -1.022 z m 0.488,1.317 c -0.364,0 -0.647,0.249 -0.647,0.625 0,0.361 0.283,0.634 0.647,0.634 0.364,0 0.671,-0.273 0.671,-0.634 0,-0.376 -0.307,-0.625 -0.671,-0.625" /><g
           transform="translate(49.3667,59.1743)"
           id="g182"><path
             id="path184"
             style="fill:#ffffff;fill-opacity:1;fill-rule:nonzero;stroke:none"
             d="m 0,0 v 3.451 c -0.294,0.206 -0.727,0.33 -1.079,0.33 -1.171,0 -1.669,-0.987 -1.669,-2.032 0,-1.124 0.589,-2.123 1.817,-2.123 0.283,0 0.671,0.067 0.943,0.169 C 0.012,-0.205 0,-0.125 0,0 m -0.921,-1.26 c -1.749,0 -2.963,1.26 -2.963,2.987 0,1.624 0.874,2.941 2.612,2.941 0.431,0 0.886,-0.102 1.272,-0.306 v 2.839 h 1.022 v -7.406 c 0,-0.214 0.057,-0.681 0.057,-0.681 -0.591,-0.226 -1.363,-0.374 -2,-0.374" /></g><g
           transform="translate(54.0566,62.9697)"
           id="g186"><path
             id="path188"
             style="fill:#ffffff;fill-opacity:1;fill-rule:nonzero;stroke:none"
             d="m 0,0 c -0.748,0 -1.282,-0.456 -1.282,-1.23 0,-0.771 0.534,-1.213 1.282,-1.213 0.751,0 1.284,0.442 1.284,1.213 C 1.284,-0.456 0.751,0 0,0 m -0.681,-4.933 c -0.465,-0.148 -0.989,-0.453 -0.989,-1.011 0,-0.726 1.149,-0.861 1.682,-0.861 0.557,0 1.657,0.146 1.657,0.897 0,0.827 -1.77,0.817 -2.35,0.975 m 0.693,-2.702 c -1.021,0 -2.657,0.319 -2.657,1.635 0,0.875 0.635,1.296 1.351,1.511 -0.159,0.16 -0.273,0.409 -0.273,0.649 0,0.316 0.216,0.6 0.466,0.771 -0.738,0.341 -1.181,1.034 -1.181,1.851 0,1.318 1.034,2.091 2.282,2.091 0.375,0 0.738,-0.124 1.114,-0.124 h 1.602 v -0.808 c -0.239,0 -0.659,0 -0.898,0.103 0,0 0,-0.024 -0.023,-0.024 0.273,-0.341 0.488,-0.806 0.488,-1.238 0,-1.169 -0.841,-1.932 -1.963,-2.055 -0.206,-0.023 -0.399,-0.023 -0.603,-0.023 -0.148,-0.069 -0.363,-0.194 -0.363,-0.397 0,-0.943 3.384,-0.047 3.384,-2.159 0,-1.397 -1.602,-1.783 -2.726,-1.783" /></g><g
           transform="translate(60.0439,62.9697)"
           id="g190"><path
             id="path192"
             style="fill:#ffffff;fill-opacity:1;fill-rule:nonzero;stroke:none"
             d="M 0,0 C -0.887,0 -1.375,-0.73 -1.397,-1.615 H 1.362 C 1.352,-0.775 0.931,0 0,0 m 2.385,-2.443 h -3.782 c 0.056,-1.011 0.682,-1.726 1.771,-1.726 0.465,0 0.931,0.089 1.352,0.26 l 0.317,-0.772 c -0.544,-0.252 -1.157,-0.374 -1.76,-0.374 -1.738,0 -2.793,1.283 -2.793,2.972 0,1.558 0.805,2.956 2.498,2.956 1.59,0 2.453,-1.183 2.453,-2.692 0,-0.194 -0.023,-0.41 -0.056,-0.624" /></g><g
           transform="translate(93.3496,54.1641)"
           id="g194"><path
             id="path196"
             style="fill:#79242f;fill-opacity:1;fill-rule:nonzero;stroke:none"
             d="m 0,0 c 0,-0.443 0.015,-0.696 0.169,-0.836 0.242,-0.213 0.592,-0.261 0.592,-0.596 0,-0.256 -0.228,-0.366 -0.67,-0.366 h -2.358 c -0.441,0 -0.671,0.11 -0.671,0.366 0,0.276 0.211,0.335 0.425,0.474 0.304,0.198 0.336,0.38 0.336,0.763 V 0.229 8.332 C -3.031,8.317 -3.686,8.167 -4.202,7.799 -4.662,7.478 -4.83,6.931 -5.359,6.931 c -0.259,0 -0.305,0.121 -0.305,0.412 0,0.807 0.166,1.415 0.381,1.643 0.167,0.198 0.501,0.217 1.048,0.217 H 2.194 C 2.695,9.203 2.987,9.171 3.125,8.986 3.291,8.777 3.487,8.134 3.487,7.343 3.487,7.052 3.443,6.931 3.186,6.931 2.637,6.931 2.483,7.478 2.028,7.799 1.509,8.167 0.854,8.317 0,8.332 V 0.229 Z" /></g><g
           transform="translate(100.3589,54.1641)"
           id="g198"><path
             id="path200"
             style="fill:#79242f;fill-opacity:1;fill-rule:nonzero;stroke:none"
             d="M 0,0 C 0,-0.443 0.012,-0.696 0.166,-0.836 0.408,-1.049 0.76,-1.097 0.76,-1.432 0.76,-1.688 0.529,-1.798 0.087,-1.798 h -2.346 c -0.441,0 -0.668,0.11 -0.668,0.366 0,0.276 0.214,0.335 0.426,0.474 0.306,0.198 0.335,0.38 0.335,0.763 v 0.424 6.945 0.225 c 0,0.444 -0.014,0.703 -0.167,0.842 -0.243,0.211 -0.594,0.258 -0.594,0.595 0,0.256 0.227,0.367 0.668,0.367 H 0.087 C 0.529,9.203 0.76,9.092 0.76,8.836 0.76,8.56 0.547,8.499 0.332,8.36 0.027,8.167 0,7.984 0,7.598 V 7.174 4.584 h 5.13 v 2.59 0.225 c 0,0.444 0,0.703 -0.154,0.842 -0.241,0.211 -0.593,0.258 -0.593,0.595 0,0.256 0.214,0.367 0.656,0.367 h 2.359 c 0.44,0 0.654,-0.111 0.654,-0.367 C 8.052,8.56 7.856,8.499 7.642,8.36 7.323,8.15 7.292,7.967 7.292,7.527 V 7.174 0.229 0 c 0,-0.443 0.017,-0.696 0.167,-0.836 0.245,-0.213 0.593,-0.261 0.593,-0.596 0,-0.256 -0.214,-0.366 -0.654,-0.366 H 5.039 c -0.442,0 -0.656,0.11 -0.656,0.366 0,0.276 0.197,0.335 0.411,0.474 0.32,0.215 0.336,0.398 0.336,0.834 V 0.229 3.535 H 0 V 0.229 Z" /></g><g
           transform="translate(117.9443,61.751)"
           id="g202"><path
             id="path204"
             style="fill:#79242f;fill-opacity:1;fill-rule:nonzero;stroke:none"
             d="m 0,0 c 0,-0.293 -0.09,-0.413 -0.347,-0.413 -0.381,0 -0.579,0.424 -1.035,0.763 -0.445,0.335 -1.114,0.413 -2.073,0.413 h -1.128 c -0.958,0 -0.99,-0.183 -0.99,-1.037 v -0.153 -2.467 h 2.118 c 0.518,0 0.9,0.03 1.157,0.106 0.228,0.059 0.471,0.351 0.777,0.351 0.352,0 0.412,-0.168 0.412,-0.747 v -0.471 c 0,-0.548 -0.031,-0.764 -0.441,-0.764 -0.336,0 -0.52,0.262 -0.779,0.395 -0.136,0.077 -0.503,0.123 -1.112,0.123 h -2.132 v -3.226 c 0,-1.068 0,-1.338 1.084,-1.338 h 1.581 c 0.887,0 1.507,0.135 1.951,0.483 0.382,0.305 0.61,0.959 1.082,0.959 0.228,0 0.347,-0.152 0.347,-0.47 0,-0.517 -0.181,-1.298 -0.347,-1.629 C 0,-9.367 -0.393,-9.385 -1.14,-9.385 h -6.687 c -0.441,0 -0.672,0.11 -0.672,0.366 0,0.276 0.217,0.335 0.43,0.475 0.303,0.197 0.333,0.379 0.333,0.762 v 0.425 6.944 0.226 c 0,0.443 -0.015,0.702 -0.168,0.841 -0.242,0.211 -0.595,0.258 -0.595,0.595 0,0.256 0.231,0.367 0.672,0.367 h 6.93 C -0.165,1.616 0,1.369 0,0" /></g><g
           transform="translate(133.4976,60.7007)"
           id="g206"><path
             id="path208"
             style="fill:#79242f;fill-opacity:1;fill-rule:nonzero;stroke:none"
             d="m 0,0 c 0,-0.352 -0.096,-0.505 -0.383,-0.505 -0.488,0 -0.563,0.579 -0.974,1.22 -0.564,0.85 -1.491,1.341 -2.574,1.341 -2.071,0 -3.35,-1.828 -3.35,-5.104 0,-2.938 1.31,-4.554 3.518,-4.554 1.232,0 2.085,0.472 2.954,1.402 0.274,0.288 0.442,0.549 0.764,0.549 0.271,0 0.44,-0.17 0.44,-0.442 0,-0.26 -0.228,-0.73 -0.733,-1.186 -1.005,-0.931 -2.236,-1.402 -3.727,-1.402 -1.541,0 -2.913,0.534 -3.873,1.461 -1.109,1.08 -1.688,2.515 -1.688,4.311 0,1.703 0.455,3.014 1.522,4.126 1.05,1.112 2.484,1.705 4.173,1.705 1.436,0 2.679,-0.412 3.382,-0.915 C -0.184,1.75 0,1.381 0,0.897 Z" /></g><g
           transform="translate(138.6753,61.6724)"
           id="g210"><path
             id="path212"
             style="fill:#79242f;fill-opacity:1;fill-rule:nonzero;stroke:none"
             d="M 0,0 C -0.628,-1.397 -1.201,-2.907 -1.739,-4.523 H 1.874 C 1.311,-2.982 0.699,-1.477 0,0 m -4.071,-9.307 c -0.424,0 -0.652,0.11 -0.652,0.367 0,0.259 0.228,0.355 0.458,0.565 0.397,0.363 0.562,1.311 1.004,2.68 0.855,2.617 1.601,4.476 2.102,5.574 0.654,1.418 0.899,1.996 1.707,1.996 0.729,0 0.896,-0.37 1.308,-1.233 0.823,-1.755 1.614,-3.72 2.316,-5.834 0.564,-1.704 0.851,-2.692 1.005,-2.939 0.29,-0.474 0.732,-0.412 0.732,-0.777 0,-0.32 -0.245,-0.399 -0.823,-0.399 H 3.015 c -0.55,0 -0.807,0.11 -0.807,0.399 0,0.169 0.091,0.259 0.257,0.351 0.277,0.149 0.396,0.136 0.396,0.594 0,0.364 -0.227,1.141 -0.64,2.33 h -4.294 c -0.458,-1.222 -0.655,-1.999 -0.655,-2.299 0,-0.185 0.077,-0.352 0.228,-0.489 0.154,-0.136 0.474,-0.184 0.474,-0.503 0,-0.335 -0.291,-0.383 -0.854,-0.383 z" /></g><g
           transform="translate(145.4683,52.3657)"
           id="g214"><path
             id="path216"
             style="fill:#79242f;fill-opacity:1;fill-rule:nonzero;stroke:none"
             d="m 0,0 c -0.52,0 -0.779,0.11 -0.779,0.431 0,0.319 0.229,0.332 0.46,0.454 0.454,0.258 0.515,0.611 0.528,1.295 l 0.216,6.87 c 0,0.136 0.014,0.245 0.014,0.346 0,0.278 -0.061,0.447 -0.364,0.569 -0.394,0.15 -0.686,0.211 -0.686,0.577 0,0.288 0.243,0.459 0.702,0.459 h 1.98 c 0.408,0 0.683,-0.019 0.867,-0.156 0.165,-0.137 0.303,-0.503 0.546,-1.095 l 2.103,-5.133 2.226,5.468 c 0.316,0.76 0.208,0.916 1.126,0.916 h 1.782 c 0.577,0 0.79,-0.067 0.79,-0.445 0,-0.291 -0.123,-0.364 -0.425,-0.456 C 10.658,9.979 10.597,9.843 10.597,9.474 V 9.232 l 0.107,-6.565 c 0.017,-0.897 0,-1.428 0.292,-1.674 C 11.223,0.795 11.542,0.81 11.542,0.431 11.542,0.11 11.283,0 10.734,0 H 8.59 C 7.933,0 7.658,0.034 7.658,0.414 c 0,0.364 0.363,0.364 0.61,0.592 0.228,0.199 0.274,0.569 0.274,1.109 0,0.188 -0.015,0.399 -0.015,0.645 L 8.482,9.05 C 6.698,4.617 5.74,2.242 5.587,1.922 5.42,1.575 5.281,1.386 5.04,1.386 4.658,1.386 4.507,1.843 4.17,2.656 L 1.505,9.129 1.414,2.286 C 1.414,2.075 1.399,1.892 1.399,1.739 1.399,1.355 1.462,1.143 1.81,1.023 2.268,0.869 2.588,0.825 2.588,0.431 2.588,0.048 2.285,0 1.582,0 Z" /></g><g
           transform="translate(161.7178,53.2861)"
           id="g218"><path
             id="path220"
             style="fill:#79242f;fill-opacity:1;fill-rule:nonzero;stroke:none"
             d="m 0,0 h 0.714 c 1.798,0 2.774,0.834 2.774,2.246 0,1.235 -0.626,1.863 -2.134,2.29 C 0.622,4.335 -0.095,4.165 -0.795,4.018 V 0.892 C -0.795,0.15 -0.718,0 0,0 M 2.787,7.536 C 2.787,8.585 2.146,9.18 0.974,9.18 H 0.256 C -0.64,9.18 -0.795,9.07 -0.795,8.191 V 5.02 c 2.454,0.535 3.582,1.161 3.582,2.516 m -6.506,-8.09 c 0,0.276 0.214,0.335 0.429,0.474 0.303,0.198 0.334,0.38 0.334,0.763 v 0.424 6.945 0.225 c 0,0.444 -0.015,0.703 -0.167,0.842 -0.245,0.211 -0.596,0.258 -0.596,0.595 0,0.256 0.229,0.367 0.674,0.367 h 4.356 c 2.584,0 3.836,-0.688 3.836,-2.408 C 5.147,6.287 4.202,5.375 2.36,5.009 4.598,4.93 5.878,3.787 5.878,2.115 5.878,1.337 5.575,0.603 5.024,0.058 4.219,-0.764 3.105,-0.92 1.521,-0.92 h -4.566 c -0.445,0 -0.674,0.109 -0.674,0.366" /></g><g
           transform="translate(175.6499,60.6836)"
           id="g222"><path
             id="path224"
             style="fill:#79242f;fill-opacity:1;fill-rule:nonzero;stroke:none"
             d="m 0,0 c 0,1.324 -0.727,1.84 -2.284,1.84 -1.399,0 -1.719,-0.226 -1.719,-1.533 V -2.667 C -1.292,-2.314 0,-1.508 0,0 m -4.003,-6.29 v -0.23 c 0,-0.442 0.015,-0.695 0.166,-0.836 0.243,-0.212 0.595,-0.261 0.595,-0.595 0,-0.257 -0.229,-0.367 -0.67,-0.367 h -2.343 c -0.443,0 -0.671,0.11 -0.671,0.367 0,0.276 0.211,0.334 0.427,0.474 0.302,0.197 0.332,0.379 0.332,0.763 V -6.29 0.654 0.88 c 0,0.444 -0.015,0.703 -0.167,0.842 -0.242,0.21 -0.592,0.257 -0.592,0.594 0,0.257 0.228,0.368 0.671,0.368 h 4.566 c 2.695,0 3.99,-0.737 3.99,-2.593 0,-1.231 -0.733,-1.982 -2.329,-2.65 1.202,-1.548 1.612,-3.12 2.117,-4.313 0.169,-0.375 0.259,-0.525 0.64,-0.713 0.212,-0.09 0.365,-0.12 0.365,-0.351 0,-0.303 -0.213,-0.382 -0.746,-0.382 h -2.392 c -0.563,0 -0.823,0.048 -0.823,0.382 0,0.123 0.046,0.202 0.11,0.231 0.333,0.165 0.56,0.256 0.56,0.53 0,0.7 -0.593,2.15 -1.996,3.932 -0.593,-0.137 -1.187,-0.262 -1.81,-0.352 z" /></g><g
           transform="translate(183.2021,63)"
           id="g226"><path
             id="path228"
             style="fill:#79242f;fill-opacity:1;fill-rule:nonzero;stroke:none"
             d="m 0,0 c 0,-0.276 -0.21,-0.337 -0.421,-0.476 -0.305,-0.193 -0.336,-0.376 -0.336,-0.762 v -0.424 -6.944 -0.23 c 0,-0.443 0.012,-0.696 0.167,-0.836 0.244,-0.213 0.59,-0.261 0.59,-0.596 0,-0.256 -0.226,-0.366 -0.669,-0.366 h -2.39 c -0.441,0 -0.653,0.11 -0.653,0.366 0,0.276 0.199,0.335 0.409,0.475 0.319,0.214 0.354,0.397 0.354,0.834 v 0.353 6.944 0.225 c 0,0.444 -0.019,0.703 -0.17,0.842 -0.244,0.211 -0.593,0.258 -0.593,0.595 0,0.256 0.212,0.367 0.653,0.367 h 2.39 C -0.226,0.367 0,0.256 0,0" /></g><g
           transform="translate(188.3809,53.2065)"
           id="g230"><path
             id="path232"
             style="fill:#79242f;fill-opacity:1;fill-rule:nonzero;stroke:none"
             d="m 0,0 c 2.454,0 4.25,1.815 4.25,4.506 0,2.821 -1.828,4.738 -4.383,4.738 -0.9,0 -0.991,-0.242 -0.991,-1.191 V 1.662 C -1.124,0.379 -1.048,0 0,0 m -4.063,-0.474 c 0,0.276 0.213,0.334 0.425,0.474 0.306,0.197 0.337,0.379 0.337,0.763 v 0.424 6.944 0.226 c 0,0.444 -0.014,0.703 -0.168,0.842 -0.245,0.21 -0.594,0.258 -0.594,0.594 0,0.257 0.228,0.368 0.667,0.368 h 2.867 c 4.642,0 7.098,-1.983 7.098,-5.486 C 6.569,2.632 5.684,0.971 4.129,0.058 2.895,-0.67 1.497,-0.841 -0.257,-0.841 h -3.139 c -0.439,0 -0.667,0.11 -0.667,0.367" /></g><g
           transform="translate(204.3311,55.9316)"
           id="g234"><path
             id="path236"
             style="fill:#79242f;fill-opacity:1;fill-rule:nonzero;stroke:none"
             d="m 0,0 c 0,0.809 -0.2,1.038 -1.067,1.038 -0.17,0 -0.353,-0.019 -0.532,-0.019 -0.52,0 -0.75,0.138 -0.75,0.519 0,0.488 0.444,0.52 1.465,0.52 h 1.567 c 1.188,0 1.614,-0.019 1.614,-0.538 0,-0.211 -0.122,-0.744 -0.122,-1.629 v -0.713 c 0,-0.629 0.201,-1.036 0.201,-1.221 0,-0.303 -0.445,-0.654 -1.312,-1.033 -1.188,-0.534 -2.316,-0.807 -3.596,-0.807 -3.576,0 -5.694,2.099 -5.694,5.743 0,1.703 0.49,3.015 1.567,4.126 1.083,1.112 2.559,1.705 4.298,1.705 1.462,0 2.738,-0.394 3.484,-0.915 C 1.509,6.519 1.687,6.15 1.687,5.666 V 4.769 c 0,-0.352 -0.103,-0.505 -0.396,-0.505 -0.502,0 -0.577,0.596 -1.004,1.22 -0.577,0.85 -1.524,1.341 -2.648,1.341 -2.133,0 -3.46,-1.847 -3.46,-5.104 0,-2.954 1.435,-4.783 3.502,-4.783 1.465,0 2.319,0.749 2.319,2.101 z" /></g><g
           transform="translate(216.3311,61.751)"
           id="g238"><path
             id="path240"
             style="fill:#79242f;fill-opacity:1;fill-rule:nonzero;stroke:none"
             d="m 0,0 c 0,-0.293 -0.094,-0.413 -0.351,-0.413 -0.382,0 -0.58,0.424 -1.035,0.763 -0.443,0.335 -1.112,0.413 -2.069,0.413 h -1.131 c -0.959,0 -0.99,-0.183 -0.99,-1.037 v -0.153 -2.467 h 2.121 c 0.514,0 0.894,0.03 1.154,0.106 0.227,0.059 0.472,0.351 0.779,0.351 0.346,0 0.411,-0.168 0.411,-0.747 v -0.471 c 0,-0.548 -0.031,-0.764 -0.445,-0.764 -0.331,0 -0.518,0.262 -0.776,0.395 -0.137,0.077 -0.501,0.123 -1.109,0.123 h -2.135 v -3.226 c 0,-1.068 0,-1.338 1.083,-1.338 h 1.584 c 0.881,0 1.508,0.135 1.949,0.483 0.379,0.305 0.609,0.959 1.082,0.959 0.226,0 0.351,-0.152 0.351,-0.47 C 0.473,-8.01 0.29,-8.791 0.122,-9.122 0,-9.367 -0.397,-9.385 -1.142,-9.385 h -6.687 c -0.442,0 -0.671,0.11 -0.671,0.366 0,0.276 0.217,0.335 0.428,0.475 0.304,0.197 0.333,0.379 0.333,0.762 v 0.425 6.944 0.226 c 0,0.443 -0.014,0.702 -0.165,0.841 -0.245,0.211 -0.596,0.258 -0.596,0.595 0,0.256 0.229,0.367 0.671,0.367 h 6.931 C -0.169,1.616 0,1.369 0,0" /></g><g
           transform="translate(225.1172,54.1641)"
           id="g242"><path
             id="path244"
             style="fill:#79242f;fill-opacity:1;fill-rule:nonzero;stroke:none"
             d="m 0,0 c 0,-0.443 0.018,-0.696 0.17,-0.836 0.244,-0.213 0.593,-0.261 0.593,-0.596 0,-0.256 -0.231,-0.366 -0.669,-0.366 h -2.347 c -0.441,0 -0.67,0.11 -0.67,0.366 0,0.276 0.212,0.335 0.427,0.474 0.305,0.198 0.336,0.38 0.336,0.763 v 0.424 6.945 0.225 c 0,0.444 -0.017,0.703 -0.168,0.842 -0.245,0.211 -0.595,0.258 -0.595,0.595 0,0.256 0.229,0.367 0.67,0.367 H 0.094 C 0.532,9.203 0.763,9.092 0.763,8.836 0.763,8.56 0.55,8.499 0.337,8.36 0.031,8.167 0,7.984 0,7.598 V 7.174 4.584 h 5.132 v 2.59 0.225 c 0,0.444 0,0.703 -0.151,0.842 -0.245,0.211 -0.594,0.258 -0.594,0.595 0,0.256 0.215,0.367 0.656,0.367 H 7.401 C 7.844,9.203 8.057,9.092 8.057,8.836 8.057,8.56 7.86,8.499 7.646,8.36 7.326,8.15 7.296,7.967 7.296,7.527 V 7.174 0.229 0 c 0,-0.443 0.013,-0.696 0.169,-0.836 0.24,-0.213 0.592,-0.261 0.592,-0.596 0,-0.256 -0.213,-0.366 -0.656,-0.366 H 5.043 c -0.441,0 -0.656,0.11 -0.656,0.366 0,0.276 0.196,0.335 0.412,0.474 0.319,0.215 0.333,0.398 0.333,0.834 V 0.229 3.535 H 0 V 0.229 Z" /></g><g
           transform="translate(238.001,63)"
           id="g246"><path
             id="path248"
             style="fill:#79242f;fill-opacity:1;fill-rule:nonzero;stroke:none"
             d="M 0,0 C 0,-0.276 -0.215,-0.337 -0.425,-0.476 -0.729,-0.669 -0.76,-0.852 -0.76,-1.238 v -0.424 -6.944 -0.23 c 0,-0.443 0.015,-0.696 0.168,-0.836 C -0.351,-9.885 0,-9.933 0,-10.268 c 0,-0.256 -0.229,-0.366 -0.668,-0.366 h -2.393 c -0.439,0 -0.655,0.11 -0.655,0.366 0,0.276 0.196,0.335 0.413,0.475 0.319,0.214 0.348,0.397 0.348,0.834 v 0.353 6.944 0.225 c 0,0.444 -0.014,0.703 -0.169,0.842 -0.242,0.211 -0.592,0.258 -0.592,0.595 0,0.256 0.216,0.367 0.655,0.367 h 2.393 C -0.229,0.367 0,0.256 0,0" /></g><g
           transform="translate(247.3848,55.9316)"
           id="g250"><path
             id="path252"
             style="fill:#79242f;fill-opacity:1;fill-rule:nonzero;stroke:none"
             d="m 0,0 c 0,0.809 -0.197,1.038 -1.067,1.038 -0.166,0 -0.347,-0.019 -0.535,-0.019 -0.516,0 -0.747,0.138 -0.747,0.519 0,0.488 0.444,0.52 1.463,0.52 h 1.569 c 1.19,0 1.615,-0.019 1.615,-0.538 0,-0.211 -0.121,-0.744 -0.121,-1.629 v -0.713 c 0,-0.629 0.198,-1.036 0.198,-1.221 0,-0.303 -0.443,-0.654 -1.31,-1.033 -1.188,-0.534 -2.315,-0.807 -3.593,-0.807 -3.579,0 -5.699,2.099 -5.699,5.743 0,1.703 0.487,3.015 1.571,4.126 1.081,1.112 2.558,1.705 4.295,1.705 1.462,0 2.743,-0.394 3.487,-0.915 C 1.507,6.519 1.688,6.15 1.688,5.666 V 4.769 c 0,-0.352 -0.103,-0.505 -0.394,-0.505 -0.502,0 -0.579,0.596 -1.004,1.22 -0.584,0.85 -1.523,1.341 -2.651,1.341 -2.133,0 -3.458,-1.847 -3.458,-5.104 0,-2.954 1.429,-4.783 3.502,-4.783 1.462,0 2.317,0.749 2.317,2.101 z" /></g><g
           transform="translate(253.8096,54.1641)"
           id="g254"><path
             id="path256"
             style="fill:#79242f;fill-opacity:1;fill-rule:nonzero;stroke:none"
             d="m 0,0 c 0,-0.443 0.016,-0.696 0.168,-0.836 0.244,-0.213 0.594,-0.261 0.594,-0.596 0,-0.256 -0.229,-0.366 -0.668,-0.366 h -2.347 c -0.443,0 -0.669,0.11 -0.669,0.366 0,0.276 0.212,0.335 0.425,0.474 0.304,0.198 0.336,0.38 0.336,0.763 v 0.424 6.945 0.225 c 0,0.444 -0.016,0.703 -0.167,0.842 -0.245,0.211 -0.594,0.258 -0.594,0.595 0,0.256 0.226,0.367 0.669,0.367 H 0.094 C 0.533,9.203 0.762,9.092 0.762,8.836 0.762,8.56 0.548,8.499 0.337,8.36 0.032,8.167 0,7.984 0,7.598 V 7.174 4.584 h 5.132 v 2.59 0.225 c 0,0.444 0,0.703 -0.153,0.842 -0.243,0.211 -0.591,0.258 -0.591,0.595 0,0.256 0.209,0.367 0.652,0.367 H 7.403 C 7.844,9.203 8.059,9.092 8.059,8.836 8.059,8.56 7.859,8.499 7.645,8.36 7.326,8.15 7.298,7.967 7.298,7.527 V 7.174 0.229 0 c 0,-0.443 0.013,-0.696 0.169,-0.836 0.242,-0.213 0.592,-0.261 0.592,-0.596 0,-0.256 -0.215,-0.366 -0.656,-0.366 H 5.04 c -0.443,0 -0.652,0.11 -0.652,0.366 0,0.276 0.196,0.335 0.41,0.474 0.32,0.215 0.334,0.398 0.334,0.834 V 0.229 3.535 H 0 V 0.229 Z" /></g><g
           transform="translate(271.9023,63.6226)"
           id="g258"><path
             id="path260"
             style="fill:#79242f;fill-opacity:1;fill-rule:nonzero;stroke:none"
             d="m 0,0 c 1.464,0 2.62,-0.394 3.186,-0.882 0.257,-0.217 0.303,-0.625 0.303,-1.283 0,-0.44 -0.108,-0.666 -0.44,-0.666 -0.383,0 -0.489,0.425 -0.856,0.959 -0.487,0.715 -1.126,1.051 -2.009,1.051 -1.448,0 -2.343,-0.794 -2.343,-1.905 0,-1.384 0.956,-1.614 2.783,-1.979 1.142,-0.228 2.028,-0.427 2.606,-0.913 0.684,-0.579 1.049,-1.374 1.049,-2.316 0,-2.103 -1.691,-3.64 -4.324,-3.64 -2.682,0 -4.369,1.46 -4.369,2.768 0,0.445 0.257,0.716 0.64,0.716 0.486,0 0.514,-0.483 0.88,-1.159 0.46,-0.832 1.478,-1.334 2.849,-1.334 1.493,0 2.329,0.712 2.329,1.92 0,0.59 -0.198,1.017 -0.592,1.295 -0.683,0.468 -1.554,0.468 -2.575,0.669 -2.16,0.423 -3.182,1.402 -3.182,3.182 C -4.065,-1.383 -2.512,0 0,0" /></g><g
           transform="translate(287.0254,60.7007)"
           id="g262"><path
             id="path264"
             style="fill:#79242f;fill-opacity:1;fill-rule:nonzero;stroke:none"
             d="m 0,0 c 0,-0.352 -0.089,-0.505 -0.38,-0.505 -0.486,0 -0.561,0.579 -0.974,1.22 -0.564,0.85 -1.493,1.341 -2.575,1.341 -2.071,0 -3.349,-1.828 -3.349,-5.104 0,-2.938 1.306,-4.554 3.518,-4.554 1.233,0 2.087,0.472 2.954,1.402 0.274,0.288 0.441,0.549 0.761,0.549 0.273,0 0.443,-0.17 0.443,-0.442 0,-0.26 -0.228,-0.73 -0.732,-1.186 -1.007,-0.931 -2.239,-1.402 -3.732,-1.402 -1.538,0 -2.91,0.534 -3.867,1.461 -1.114,1.08 -1.69,2.515 -1.69,4.311 0,1.703 0.456,3.014 1.521,4.126 1.053,1.112 2.483,1.705 4.173,1.705 1.433,0 2.683,-0.412 3.383,-0.915 C -0.18,1.75 0,1.381 0,0.897 Z" /></g><g
           transform="translate(291.1953,54.1641)"
           id="g266"><path
             id="path268"
             style="fill:#79242f;fill-opacity:1;fill-rule:nonzero;stroke:none"
             d="m 0,0 c 0,-0.443 0.021,-0.696 0.172,-0.836 0.245,-0.213 0.594,-0.261 0.594,-0.596 0,-0.256 -0.23,-0.366 -0.668,-0.366 h -2.349 c -0.439,0 -0.67,0.11 -0.67,0.366 0,0.276 0.215,0.335 0.426,0.474 0.307,0.198 0.335,0.38 0.335,0.763 v 0.424 6.945 0.225 c 0,0.444 -0.015,0.703 -0.166,0.842 -0.243,0.211 -0.595,0.258 -0.595,0.595 0,0.256 0.231,0.367 0.67,0.367 H 0.098 C 0.536,9.203 0.766,9.092 0.766,8.836 0.766,8.56 0.553,8.499 0.339,8.36 0.034,8.167 0,7.984 0,7.598 V 7.174 4.584 h 5.137 v 2.59 0.225 c 0,0.444 0,0.703 -0.153,0.842 -0.244,0.211 -0.592,0.258 -0.592,0.595 0,0.256 0.212,0.367 0.652,0.367 h 2.36 C 7.849,9.203 8.062,9.092 8.062,8.836 8.062,8.56 7.862,8.499 7.648,8.36 7.328,8.15 7.299,7.967 7.299,7.527 V 7.174 0.229 0 c 0,-0.443 0.018,-0.696 0.169,-0.836 0.241,-0.213 0.594,-0.261 0.594,-0.596 0,-0.256 -0.213,-0.366 -0.658,-0.366 h -2.36 c -0.44,0 -0.652,0.11 -0.652,0.366 0,0.276 0.195,0.335 0.407,0.474 0.323,0.215 0.338,0.398 0.338,0.834 V 0.229 3.535 H 0 V 0.229 Z" /></g><g
           transform="translate(305.9414,52.8701)"
           id="g270"><path
             id="path272"
             style="fill:#79242f;fill-opacity:1;fill-rule:nonzero;stroke:none"
             d="m 0,0 c 1.919,0 3.304,1.829 3.304,4.782 0,3.258 -1.293,5.117 -3.199,5.117 -1.931,0 -3.364,-1.904 -3.364,-4.9 C -3.259,1.845 -1.919,0 0,0 m -3.854,9.093 c 1.054,1.078 2.438,1.659 3.975,1.659 1.494,0 2.774,-0.549 3.825,-1.629 C 5.041,7.995 5.62,6.564 5.62,5.043 5.62,3.384 5.086,2.042 3.961,0.871 2.832,-0.288 1.493,-0.835 -0.166,-0.835 c -1.523,0 -2.865,0.62 -3.963,1.854 -0.943,1.052 -1.459,2.439 -1.459,3.81 0,1.658 0.577,3.076 1.734,4.264" /></g><g
           transform="translate(318.3096,52.8701)"
           id="g274"><path
             id="path276"
             style="fill:#79242f;fill-opacity:1;fill-rule:nonzero;stroke:none"
             d="m 0,0 c 1.916,0 3.304,1.829 3.304,4.782 0,3.258 -1.295,5.117 -3.2,5.117 -1.93,0 -3.364,-1.904 -3.364,-4.9 C -3.26,1.845 -1.922,0 0,0 m -3.856,9.093 c 1.051,1.078 2.439,1.659 3.977,1.659 1.49,0 2.772,-0.549 3.821,-1.629 C 5.039,7.995 5.62,6.564 5.62,5.043 5.62,3.384 5.088,2.042 3.959,0.871 2.83,-0.288 1.491,-0.835 -0.168,-0.835 c -1.522,0 -2.862,0.62 -3.962,1.854 -0.943,1.052 -1.46,2.439 -1.46,3.81 0,1.658 0.577,3.076 1.734,4.264" /></g><g
           transform="translate(329.0303,53.2861)"
           id="g278"><path
             id="path280"
             style="fill:#79242f;fill-opacity:1;fill-rule:nonzero;stroke:none"
             d="m 0,0 h 1.142 c 0.883,0 1.523,0.15 1.951,0.482 0.38,0.306 0.595,0.959 1.079,0.959 0.247,0 0.351,-0.151 0.351,-0.455 0,-0.551 -0.166,-1.312 -0.334,-1.643 C 4.084,-0.886 3.688,-0.92 2.921,-0.92 h -6.257 c -0.44,0 -0.669,0.109 -0.669,0.366 0,0.276 0.212,0.335 0.427,0.474 0.301,0.198 0.335,0.38 0.335,0.763 v 0.424 6.945 0.225 c 0,0.444 -0.018,0.703 -0.169,0.842 -0.243,0.211 -0.593,0.258 -0.593,0.595 0,0.256 0.229,0.367 0.669,0.367 h 2.344 c 0.443,0 0.675,-0.111 0.675,-0.367 0,-0.276 -0.217,-0.337 -0.43,-0.476 C -1.049,9.045 -1.081,8.862 -1.081,8.476 V 8.052 1.61 C -1.081,0.27 -1.068,0 0,0" /></g><g
           transform="translate(335.0166,52.3218)"
           id="g282"><path
             id="path284"
             style="fill:#79242f;fill-opacity:1;fill-rule:nonzero;stroke:none"
             d="m 0,0 c -0.411,0.062 -0.611,0.333 -0.611,0.777 0,0.61 0.49,1.079 1.189,1.079 0.686,0 1.189,-0.498 1.189,-1.228 0,-0.55 -0.294,-1.19 -0.868,-1.845 -0.52,-0.594 -0.946,-0.881 -1.188,-0.881 -0.183,0 -0.322,0.119 -0.322,0.304 0,0.195 0.229,0.377 0.502,0.681 0.38,0.434 0.564,0.717 0.564,0.918 C 0.455,-0.016 0.259,-0.046 0,0" /></g><g
           transform="translate(345.46,58.7339)"
           id="g286"><path
             id="path288"
             style="fill:#79242f;fill-opacity:1;fill-rule:nonzero;stroke:none"
             d="M 0,0 C -0.424,-0.958 -0.824,-1.986 -1.187,-3.096 H 1.282 C 0.897,-2.041 0.478,-1.009 0,0 m -2.785,-6.368 c -0.289,0 -0.445,0.074 -0.445,0.254 0,0.177 0.156,0.238 0.311,0.382 0.273,0.254 0.386,0.895 0.689,1.835 0.584,1.793 1.096,3.066 1.437,3.814 0.449,0.972 0.617,1.367 1.168,1.367 0.5,0 0.614,-0.249 0.896,-0.845 0.562,-1.198 1.105,-2.543 1.584,-3.994 0.386,-1.165 0.583,-1.841 0.689,-2.007 0.197,-0.322 0.5,-0.281 0.5,-0.532 0,-0.221 -0.168,-0.274 -0.565,-0.274 H 2.061 c -0.373,0 -0.548,0.074 -0.548,0.274 0,0.118 0.058,0.174 0.175,0.24 0.189,0.102 0.271,0.094 0.271,0.406 0,0.25 -0.156,0.781 -0.438,1.594 h -2.939 c -0.312,-0.833 -0.448,-1.365 -0.448,-1.571 0,-0.129 0.052,-0.242 0.157,-0.335 0.105,-0.094 0.324,-0.124 0.324,-0.345 0,-0.229 -0.198,-0.263 -0.587,-0.263 z" /></g><g
           transform="translate(352.3076,52.9917)"
           id="g290"><path
             id="path292"
             style="fill:#79242f;fill-opacity:1;fill-rule:nonzero;stroke:none"
             d="M 0,0 H 0.491 C 1.718,0 2.385,0.575 2.385,1.546 2.385,2.39 1.958,2.818 0.926,3.107 0.428,2.974 -0.063,2.857 -0.544,2.753 V 0.62 C -0.544,0.107 -0.489,0 0,0 m 1.906,5.161 c 0,0.716 -0.437,1.124 -1.239,1.124 H 0.176 c -0.615,0 -0.72,-0.074 -0.72,-0.678 V 3.441 c 1.677,0.363 2.45,0.792 2.45,1.72 m -4.452,-5.533 c 0,0.185 0.15,0.23 0.294,0.325 0.205,0.131 0.231,0.257 0.231,0.518 v 0.289 4.752 0.16 c 0,0.303 -0.014,0.476 -0.115,0.572 -0.168,0.145 -0.41,0.178 -0.41,0.405 0,0.179 0.156,0.252 0.46,0.252 h 2.98 C 2.668,6.901 3.52,6.434 3.52,5.255 3.52,4.308 2.875,3.678 1.613,3.431 3.146,3.379 4.021,2.599 4.021,1.449 4.021,0.918 3.813,0.417 3.436,0.043 2.885,-0.521 2.127,-0.626 1.04,-0.626 h -3.126 c -0.304,0 -0.46,0.074 -0.46,0.254" /></g><g
           transform="translate(363.7998,59.8926)"
           id="g294"><path
             id="path296"
             style="fill:#79242f;fill-opacity:1;fill-rule:nonzero;stroke:none"
             d="m 0,0 c 0.365,0 0.531,-0.031 0.531,-0.263 0,-0.123 -0.06,-0.189 -0.187,-0.249 -0.219,-0.113 -0.365,-0.137 -0.365,-0.647 0,-0.696 0.228,-1.904 0.228,-3.602 0,-1.899 -1.186,-2.983 -3.27,-2.983 -2.272,0 -3.314,0.993 -3.314,3.115 0,1.731 0.22,2.889 0.22,3.428 0,0.26 -0.032,0.409 -0.22,0.552 -0.127,0.107 -0.259,0.145 -0.259,0.365 0,0.239 0.184,0.284 0.634,0.284 h 1.396 c 0.366,0 0.53,-0.083 0.53,-0.305 0,-0.311 -0.373,-0.32 -0.501,-0.521 -0.101,-0.144 -0.299,-1.319 -0.299,-3.408 0,-1.987 0.519,-2.853 2.063,-2.853 1.544,0 2.095,0.866 2.095,2.686 0,2.192 -0.231,3.46 -0.261,3.555 -0.116,0.327 -0.594,0.313 -0.594,0.625 0,0.19 0.125,0.221 0.44,0.221 z" /></g><g
           transform="translate(370.918,52.9448)"
           id="g298"><path
             id="path300"
             style="fill:#79242f;fill-opacity:1;fill-rule:nonzero;stroke:none"
             d="m 0,0 c 1.678,0 2.906,1.236 2.906,3.08 0,1.928 -1.25,3.242 -3.002,3.242 -0.615,0 -0.675,-0.166 -0.675,-0.816 V 1.132 C -0.771,0.257 -0.72,0 0,0 m -2.784,-0.325 c 0,0.185 0.146,0.23 0.291,0.325 0.211,0.131 0.232,0.257 0.232,0.518 v 0.289 4.752 0.16 c 0,0.302 -0.011,0.476 -0.116,0.572 -0.167,0.145 -0.407,0.178 -0.407,0.405 0,0.179 0.157,0.252 0.46,0.252 h 1.958 C 2.812,6.948 4.488,5.589 4.488,3.195 4.488,1.797 3.886,0.667 2.823,0.037 1.979,-0.465 1.021,-0.579 -0.179,-0.579 h -2.145 c -0.303,0 -0.46,0.074 -0.46,0.254" /></g><g
           transform="translate(378.1689,53.5981)"
           id="g302"><path
             id="path304"
             style="fill:#79242f;fill-opacity:1;fill-rule:nonzero;stroke:none"
             d="m 0,0 c 0,-0.301 0.013,-0.479 0.114,-0.575 0.168,-0.144 0.409,-0.173 0.409,-0.404 0,-0.179 -0.158,-0.253 -0.461,-0.253 h -1.607 c -0.299,0 -0.452,0.074 -0.452,0.253 0,0.186 0.143,0.231 0.287,0.326 0.209,0.131 0.23,0.257 0.23,0.517 v 0.29 4.751 0.161 c 0,0.302 -0.009,0.476 -0.115,0.572 -0.165,0.145 -0.402,0.177 -0.402,0.404 0,0.18 0.153,0.252 0.452,0.252 H 0.062 C 0.365,6.294 0.523,6.222 0.523,6.042 0.523,5.856 0.374,5.815 0.23,5.723 0.021,5.586 0,5.457 0,5.194 V 4.905 3.136 h 3.512 v 1.769 0.161 c 0,0.302 0,0.476 -0.103,0.572 -0.165,0.145 -0.405,0.177 -0.405,0.404 0,0.18 0.142,0.252 0.444,0.252 H 5.066 C 5.368,6.294 5.514,6.222 5.514,6.042 5.514,5.856 5.378,5.815 5.232,5.723 5.011,5.575 4.992,5.449 4.992,5.146 V 4.905 0.154 0 c 0,-0.301 0.009,-0.479 0.116,-0.575 0.165,-0.144 0.406,-0.173 0.406,-0.404 0,-0.179 -0.146,-0.253 -0.448,-0.253 H 3.448 c -0.302,0 -0.444,0.074 -0.444,0.253 0,0.186 0.133,0.231 0.281,0.326 0.215,0.143 0.227,0.267 0.227,0.57 v 0.237 2.26 L 0,2.414 v -2.26 z" /></g><g
           transform="translate(387.0801,58.7339)"
           id="g306"><path
             id="path308"
             style="fill:#79242f;fill-opacity:1;fill-rule:nonzero;stroke:none"
             d="M 0,0 C -0.428,-0.958 -0.823,-1.986 -1.189,-3.096 H 1.277 C 0.896,-2.041 0.479,-1.009 0,0 m -2.781,-6.368 c -0.295,0 -0.451,0.074 -0.451,0.254 0,0.177 0.156,0.238 0.313,0.382 0.27,0.254 0.383,0.895 0.689,1.835 0.582,1.793 1.093,3.066 1.435,3.814 0.448,0.972 0.615,1.367 1.169,1.367 0.5,0 0.616,-0.249 0.895,-0.845 0.561,-1.198 1.106,-2.543 1.586,-3.994 0.386,-1.165 0.582,-1.841 0.685,-2.007 0.201,-0.322 0.502,-0.281 0.502,-0.532 0,-0.221 -0.167,-0.274 -0.563,-0.274 H 2.062 c -0.375,0 -0.554,0.074 -0.554,0.274 0,0.118 0.065,0.174 0.179,0.24 0.188,0.102 0.271,0.094 0.271,0.406 0,0.25 -0.155,0.781 -0.439,1.594 h -2.936 c -0.312,-0.833 -0.448,-1.365 -0.448,-1.571 0,-0.129 0.051,-0.242 0.155,-0.335 0.105,-0.094 0.321,-0.124 0.321,-0.345 0,-0.229 -0.194,-0.263 -0.581,-0.263 z" /></g><g
           transform="translate(393.9229,52.9917)"
           id="g310"><path
             id="path312"
             style="fill:#79242f;fill-opacity:1;fill-rule:nonzero;stroke:none"
             d="M 0,0 H 0.49 C 1.722,0 2.389,0.575 2.389,1.546 2.389,2.39 1.96,2.818 0.932,3.107 0.43,2.974 -0.061,2.857 -0.538,2.753 V 0.62 C -0.538,0.107 -0.487,0 0,0 m 1.908,5.161 c 0,0.716 -0.437,1.124 -1.242,1.124 H 0.181 c -0.618,0 -0.719,-0.074 -0.719,-0.678 V 3.441 c 1.675,0.363 2.446,0.792 2.446,1.72 M -2.54,-0.372 c 0,0.185 0.148,0.23 0.289,0.325 0.212,0.131 0.231,0.257 0.231,0.518 v 0.289 4.752 0.16 c 0,0.303 -0.009,0.476 -0.115,0.572 -0.165,0.145 -0.405,0.178 -0.405,0.405 0,0.179 0.156,0.252 0.458,0.252 h 2.98 C 2.67,6.901 3.524,6.434 3.524,5.255 3.524,4.308 2.88,3.678 1.617,3.431 3.149,3.379 4.023,2.599 4.023,1.449 4.023,0.918 3.817,0.417 3.439,0.043 2.889,-0.521 2.129,-0.626 1.044,-0.626 h -3.126 c -0.302,0 -0.458,0.074 -0.458,0.254" /></g><g
           transform="translate(401.3125,59.6406)"
           id="g314"><path
             id="path316"
             style="fill:#79242f;fill-opacity:1;fill-rule:nonzero;stroke:none"
             d="m 0,0 c 0,-0.186 -0.147,-0.227 -0.289,-0.32 -0.212,-0.136 -0.233,-0.265 -0.233,-0.528 v -0.289 -4.752 -0.153 c 0,-0.301 0.012,-0.48 0.118,-0.575 C -0.239,-6.761 0,-6.791 0,-7.021 0,-7.201 -0.155,-7.275 -0.46,-7.275 h -1.634 c -0.302,0 -0.45,0.074 -0.45,0.254 0,0.186 0.139,0.23 0.283,0.325 0.218,0.143 0.24,0.267 0.24,0.57 v 0.237 4.752 0.16 c 0,0.303 -0.007,0.476 -0.114,0.572 -0.169,0.145 -0.409,0.178 -0.409,0.405 0,0.179 0.148,0.252 0.45,0.252 H -0.46 C -0.155,0.252 0,0.179 0,0" /></g><g
           transform="translate(91.123,87.8999)"
           id="g318"><path
             id="path320"
             style="fill:#79242f;fill-opacity:1;fill-rule:nonzero;stroke:none"
             d="m 0,0 c 0.547,-0.329 1.45,-0.85 1.587,-0.85 0.138,0 0.875,0.904 1.232,1.261 l -1.67,0.96 C 0.849,1.124 0.247,0.494 0.165,0.494 0.027,0.494 -0.821,1.042 -1.258,1.371 -1.67,0.877 -2.161,0.411 -2.38,0.054 c 0.491,-0.329 1.368,-0.849 1.504,-0.849 0.082,0 0.603,0.492 0.876,0.795" /></g><g
           transform="translate(94.106,81.1255)"
           id="g322"><path
             id="path324"
             style="fill:#79242f;fill-opacity:1;fill-rule:nonzero;stroke:none"
             d="m 0,0 h -1.231 c -0.137,0 -1.122,0.248 -1.669,0.412 0.547,0.302 1.724,0.521 2.107,1.672 0.026,0.11 0.218,0.33 0.41,0.385 C -0.219,1.811 0,0.549 0,0.412 Z M 27.337,3.621 26.214,1.728 c 0.439,-0.548 0.767,-1.124 1.013,-1.59 0.137,-0.302 0.356,-0.713 0.356,-0.824 0,-0.136 -0.028,-0.136 -0.028,-0.136 H 22.767 22 21.098 20.604 19.428 18.936 17.76 17.267 16.09 15.597 14.421 13.929 12.752 12.259 11.083 10.59 9.413 8.922 7.745 7.251 6.075 5.583 4.406 3.914 2.736 2.244 2.162 C 1.779,-0.822 1.422,-0.85 1.34,-0.465 0.821,1.646 0.603,4.06 0.246,5.924 -0.137,5.266 -0.931,4.114 -0.931,3.977 c 0,-0.138 0.164,-0.438 0.22,-0.658 C -1.258,2.962 -1.861,2.578 -2.408,2.277 -2.792,2.058 -3.749,1.481 -3.941,0.905 -4.214,0.083 -4.761,-1.343 -4.761,-1.452 v -0.303 l 3.31,-0.658 c 0.848,0.082 0.822,1.427 1.533,1.755 0.164,-0.548 0.219,-1.152 0.383,-1.673 0.055,-0.191 0.274,-0.438 0.438,-0.548 0.082,-0.082 0.164,-0.137 0.274,-0.137 h 1.067 0.492 1.178 0.492 1.177 0.492 1.176 0.494 1.177 0.491 1.177 0.493 1.176 0.493 1.177 0.492 1.176 0.493 1.177 0.493 1.176 0.492 1.176 0.494 0.902 0.767 5.637 c 0.164,1.097 0.438,3.182 0.438,3.319 0,0.163 -0.109,0.822 -0.192,1.096 -0.164,0.659 -0.875,1.784 -1.313,2.222" /></g><g
           transform="translate(119.2539,74.9834)"
           id="g326"><path
             id="path328"
             style="fill:#79242f;fill-opacity:1;fill-rule:nonzero;stroke:none"
             d="m 0,0 c -0.137,0 -0.876,0.412 -1.259,0.713 -0.11,0.082 -0.218,0.22 -0.302,0.192 -0.464,-0.548 -0.875,-0.987 -1.204,-1.454 0.548,-0.384 1.177,-0.741 1.724,-1.014 0.329,0.329 0.658,0.658 0.876,0.932 0.547,-0.328 1.532,-0.932 1.67,-0.932 0.137,0 0.602,0.576 0.848,0.904 0.108,0.138 0.328,0.412 0.356,0.577 C 2.162,0.247 1.149,0.933 1.013,0.933 0.848,0.933 0.137,0 0,0" /></g><g
           transform="translate(130.2002,80.6602)"
           id="g330"><path
             id="path332"
             style="fill:#79242f;fill-opacity:1;fill-rule:nonzero;stroke:none"
             d="m 0,0 c -0.137,-0.083 -0.437,-0.083 -0.575,-0.083 -0.136,0 -0.328,0 -0.41,0.028 -0.219,0.027 -0.739,0.246 -0.931,0.52 -0.054,0.056 -0.19,0.33 -0.19,0.467 0,0.137 0.164,0.33 0.3,0.494 0.191,0.164 0.548,0.411 0.712,0.411 0.109,0 0.383,-0.137 0.519,-0.274 C -0.191,1.207 0,0.686 0.191,0.164 0.137,0.109 0.055,0.055 0,0 M 20.277,2.413 C 21.043,1.7 21.564,0.548 21.701,-0.357 H 17.54 16.774 15.872 15.378 14.202 13.71 12.533 12.041 10.864 10.371 9.195 8.703 7.526 7.033 5.857 5.364 4.187 3.696 2.6 2.025 1.97 C 1.861,0.822 1.56,2.029 0.849,3.318 0.685,3.593 0.109,4.031 -0.055,4.113 c -0.054,0.028 -0.109,0.028 -0.246,0.028 -0.164,0 -0.575,-0.11 -0.766,-0.274 -1.039,-0.824 -1.56,-2.249 -1.888,-3.099 -0.191,-0.466 -0.438,-1.481 -0.438,-1.619 0,-0.136 0.028,-0.273 0.028,-0.3 0.082,-0.577 0.984,-1.098 1.34,-1.153 0.794,-0.165 1.669,-0.246 2.381,-0.302 -1.149,-1.343 -2.709,-2.412 -3.94,-2.714 -0.275,-0.055 -0.794,-0.138 -0.931,-0.138 -0.137,0 -1.97,0.521 -2.107,0.521 -0.164,0 -0.274,0 -0.329,-0.054 v -0.193 c 0.493,-0.548 1.423,-0.904 1.807,-1.042 0.738,-0.301 1.504,-0.575 2.189,-0.768 0.137,-0.026 0.41,-0.053 0.547,-0.053 0.137,0 0.548,0.027 0.739,0.109 0.411,0.191 0.93,0.521 1.204,0.768 1.122,0.959 1.697,2.414 2.189,3.62 h 0.301 0.575 1.096 0.491 1.177 0.493 1.176 0.493 1.177 0.492 1.176 0.493 1.177 0.492 1.177 0.492 1.176 0.494 0.902 0.766 4.926 c 0.357,1.316 0.658,2.357 0.658,3.372 0,1.179 -0.575,2.468 -1.616,3.703 z" /></g><g
           transform="translate(151.6265,87.3784)"
           id="g334"><path
             id="path336"
             style="fill:#79242f;fill-opacity:1;fill-rule:nonzero;stroke:none"
             d="m 0,0 c -0.602,0.274 -1.231,0.603 -1.833,0.988 l -1.505,-1.564 1.97,-0.96 C -1.013,-1.234 -0.219,-0.384 0,0" /></g><g
           transform="translate(178.6626,88.0913)"
           id="g338"><path
             id="path340"
             style="fill:#79242f;fill-opacity:1;fill-rule:nonzero;stroke:none"
             d="M 0,0 -1.176,1.015 C -1.56,0.631 -1.97,0.248 -2.298,-0.137 l 1.231,-0.96 C -0.684,-0.768 -0.273,-0.329 0,0" /></g><g
           transform="translate(176.6655,84.9648)"
           id="g342"><path
             id="path344"
             style="fill:#79242f;fill-opacity:1;fill-rule:nonzero;stroke:none"
             d="m 0,0 c 0.273,0.33 0.766,0.877 0.875,0.877 0.138,0 1.15,-0.656 1.698,-0.931 0.382,0.438 0.738,0.905 1.012,1.316 L 2.079,2.14 C 1.806,2.085 1.423,1.262 1.013,1.262 0.712,1.262 -0.274,2.002 -0.493,2.085 -0.876,1.702 -1.231,1.234 -1.505,0.851 -1.067,0.577 -0.301,0 -0.165,0 Z" /></g><g
           transform="translate(199.7339,88.832)"
           id="g346"><path
             id="path348"
             style="fill:#79242f;fill-opacity:1;fill-rule:nonzero;stroke:none"
             d="m 0,0 c -0.164,0.246 -0.191,0.604 -0.191,0.877 -0.712,-0.96 -1.067,-1.672 -1.532,-2.632 0.3,-0.247 0.738,-0.467 0.792,-0.63 0.356,-1.18 0.603,-2.825 0.74,-3.647 0.109,-0.605 0.245,-1.702 0.245,-1.838 0,-0.138 -0.028,-0.33 -0.082,-0.659 h -3.283 -0.767 -0.902 -0.492 -1.176 -0.495 -1.176 -0.492 -1.177 -0.492 -1.177 -0.493 -1.176 -0.492 -1.177 -0.492 -1.177 -0.493 -0.959 c -0.246,0 -1.696,0.028 -1.696,0.933 0,0.137 0.165,0.987 0.165,1.124 v 1.453 c -0.576,-0.603 -1.205,-1.124 -1.451,-1.782 -0.246,-0.63 0.082,-1.069 -0.246,-1.728 h -3.831 -0.493 -1.177 -0.492 -1.177 -0.493 -1.176 -0.492 -1.178 -0.491 -1.177 -0.494 -1.176 -0.492 -1.176 -0.494 -1.176 -0.493 -1.121 -0.465 c -0.274,0 -0.521,0.22 -0.794,0.275 -0.11,0.027 -0.247,0.137 -0.247,0.191 -0.272,1.81 -0.601,5.184 -0.793,7.405 -0.055,0.631 -0.109,1.316 -0.191,1.947 -0.383,-0.412 -0.904,-0.933 -1.259,-1.399 -0.11,-0.109 -0.301,-0.328 -0.301,-0.466 l 0.957,-10.146 h 2.546 0.547 1.121 0.493 1.176 0.494 1.176 0.492 1.176 0.494 1.177 0.491 1.178 0.492 1.176 0.493 1.177 0.492 1.177 0.493 3.448 c 0.219,0.438 0.465,0.877 0.738,1.261 0.165,-0.659 0.712,-1.261 1.205,-1.261 h 0.959 0.709 0.959 0.493 1.177 0.492 1.177 0.492 1.176 0.493 1.177 0.492 1.177 0.492 1.176 0.495 1.176 0.492 0.902 0.767 3.913 c 0.136,0 0.247,0.109 0.383,0.109 l 0.52,2.743 -0.465,3.784 c 0,0.137 0,0.192 0.054,0.247 0.356,0.439 0.794,1.042 1.068,1.371 0.191,0.219 0.383,0.494 0.492,0.713 -0.52,0.301 -1.039,0.63 -1.506,0.932 C 0.738,-0.576 0.246,-0.33 0,0" /></g><g
           transform="translate(205.2617,86.583)"
           id="g350"><path
             id="path352"
             style="fill:#79242f;fill-opacity:1;fill-rule:nonzero;stroke:none"
             d="m 0,0 1.013,-8.473 c 0.985,1.48 1.122,2.66 1.122,4.085 L 1.587,2.688 C 1.313,2.359 0,0.357 0,0" /></g><g
           transform="translate(213.3896,76.3262)"
           id="g354"><path
             id="path356"
             style="fill:#79242f;fill-opacity:1;fill-rule:nonzero;stroke:none"
             d="m 0,0 c 0,0.138 0.082,0.905 0.22,1.317 0.328,0.878 0.902,1.646 1.559,2.222 0.849,0.685 1.668,0.904 2.298,1.068 0.822,0.22 1.725,0.384 2.546,0.495 0.356,0.767 0.602,1.344 0.875,2.002 H 4.406 C 4.27,7.104 2.601,7.46 1.725,7.652 1.505,7.679 0.931,7.707 0.822,7.707 c -0.137,0 -0.384,0.027 -0.549,0 C -0.437,7.46 -0.984,6.418 -1.149,5.897 -1.231,5.622 -1.368,5.211 -1.368,5.102 l 0.055,-0.165 c 0,0.138 0.218,0 0.3,0.054 0.274,0.111 0.604,0.44 0.876,0.494 0.164,0.056 0.383,0.083 0.52,0.083 0.138,0 0.848,-0.11 1.232,-0.193 0.082,0 0.192,-0.054 0.246,-0.109 C 1.204,4.607 0.576,4.005 0.164,3.374 -0.137,2.853 -0.465,2.03 -0.603,1.646 -0.848,0.905 -0.984,0.028 -1.013,-0.657 c -0.026,-0.165 -0.026,-0.467 -0.026,-0.576 0,-3.182 2.6,-4.195 4.98,-4.195 0.164,0 0.931,0.054 1.231,0.081 0.602,0.055 1.559,0.329 2.053,0.604 0.465,0.246 0.876,0.549 1.314,1.069 H 6.321 C 4.872,-3.647 0,-3.208 0,0" /></g><g
           transform="translate(216.2363,76.3262)"
           id="g358"><path
             id="path360"
             style="fill:#79242f;fill-opacity:1;fill-rule:nonzero;stroke:none"
             d="m 0,0 c 0,-0.108 0.957,-0.877 1.395,-1.178 0.411,0.411 0.93,1.042 1.177,1.453 C 2.079,0.659 1.177,1.29 1.039,1.29 0.794,1.29 0,0.083 0,0" /></g><g
           transform="translate(227.6191,80.7148)"
           id="g362"><path
             id="path364"
             style="fill:#79242f;fill-opacity:1;fill-rule:nonzero;stroke:none"
             d="M 0,0 C 0,0.137 -0.082,0.795 -0.136,1.097 -0.354,2.413 -1.668,4.278 -3.228,4.854 L -3.774,2.55 c 0.902,-0.465 1.968,-1.151 2.326,-2.112 0.082,-0.219 0.19,-0.548 0.19,-0.658 0,-0.136 0.028,-0.136 -0.026,-0.192 H -5.69 l -0.219,-2.193 h 5.363 c 0.192,0.247 0.328,0.521 0.356,0.74 C -0.082,-1.344 0,-0.137 0,0" /></g><g
           transform="translate(265.1377,74.874)"
           id="g366"><path
             id="path368"
             style="fill:#79242f;fill-opacity:1;fill-rule:nonzero;stroke:none"
             d="m 0,0 c -0.52,0.466 -1.424,1.233 -1.561,1.233 -0.136,0 -0.272,-0.109 -0.299,-0.137 -0.466,-0.384 -1.096,-1.014 -1.369,-1.426 0.301,-0.301 0.629,-0.604 0.848,-0.767 0.273,-0.193 0.712,-0.549 0.82,-0.549 0.165,0 0.193,0.055 0.248,0.083 0.382,0.246 0.958,0.657 1.259,0.932 0.081,0.11 0.245,0.22 0.245,0.329 C 0.191,-0.165 0.055,-0.056 0,0" /></g><g
           transform="translate(294.9912,82.1685)"
           id="g370"><path
             id="path372"
             style="fill:#79242f;fill-opacity:1;fill-rule:nonzero;stroke:none"
             d="m 0,0 c 0,0.055 0.137,0.137 0.191,0.192 0.219,0.137 0.465,0.246 0.684,0.329 0.137,0.055 0.466,0.136 0.604,0.136 0.136,0 0.19,0.028 0.299,-0.081 0.521,-0.412 0.549,-0.988 0.686,-1.563 z M 3.364,2.66 C 3.339,2.742 3.256,2.796 3.201,2.852 2.299,2.907 1.231,2.276 0.712,2.028 -0.41,1.508 -1.396,0 -1.697,-0.96 -1.752,-1.235 -1.888,-1.481 -2.052,-1.865 h -2.928 -0.767 -0.901 -0.494 -1.176 -0.494 -1.175 -0.492 -1.177 -0.494 -1.176 -0.492 -1.177 -0.493 -1.176 -0.493 -1.177 -0.491 -1.178 -0.492 -1.176 -0.493 -1.177 -0.492 -1.176 -0.494 -1.177 -0.492 -0.547 -1.094 c -0.193,0 -0.439,0.357 -0.576,0.494 -0.165,0.192 -0.355,0.548 -0.355,0.685 0,0.137 0.19,1.071 0.19,1.234 v 1.536 c -0.601,-0.63 -1.284,-1.206 -1.559,-1.892 -0.246,-0.521 0.083,-1.235 -0.246,-2.057 h -4.023 -0.492 -1.177 -0.492 -1.177 -0.493 -1.177 -0.491 -1.177 -0.493 -1.177 -0.493 -1.175 -0.493 -1.175 -0.495 -1.176 -0.493 -1.175 -0.493 -1.177 -0.492 -1.177 -0.492 -1.177 -0.492 -1.124 c -0.192,0 -0.411,0.028 -0.601,0 -1.26,0.494 -2.601,1.947 -3.257,2.797 l -1.178,-1.947 c 0.193,-0.22 1.37,-1.617 1.37,-2.111 0,-1.042 -3.311,-3.895 -4.817,-3.895 -0.765,0 -1.888,0.658 -2.106,0.658 -0.137,0 -0.137,-0.027 -0.192,-0.082 v -0.192 c 0.437,-0.521 3.311,-1.865 4.35,-1.865 2.08,0 3.832,3.894 3.995,4.827 0.138,-0.165 0.44,-0.384 0.575,-0.384 h 1.315 0.546 1.124 0.492 1.177 0.492 1.177 0.492 1.177 0.493 1.175 0.493 1.176 0.495 1.175 0.493 1.175 0.493 1.177 0.493 1.177 0.491 1.177 0.493 1.177 0.492 1.177 0.492 3.585 c 0.301,0.467 0.52,0.933 0.793,1.344 0.055,-0.247 0.138,-0.466 0.302,-0.686 0.164,-0.246 0.547,-0.493 0.765,-0.576 0.055,-0.027 0.083,-0.082 0.248,-0.082 h 0.848 1.122 0.547 0.492 1.177 0.494 1.176 0.492 1.177 0.493 1.176 0.492 1.178 0.491 1.177 0.493 1.176 0.493 1.177 0.492 1.176 0.494 1.177 0.492 1.175 0.494 1.176 0.494 0.901 0.767 2.654 c 0.656,0.575 0.465,1.399 1.259,1.727 L 3.092,-3.84 c 0.411,0.631 0.848,1.289 1.204,1.92 0.082,0.165 0.192,0.439 0.192,0.576 0,0.109 -0.028,0.521 -0.082,0.658 C 4.132,0.411 3.64,1.782 3.364,2.66" /></g><g
           transform="translate(320.1133,89.3525)"
           id="g374"><path
             id="path376"
             style="fill:#79242f;fill-opacity:1;fill-rule:nonzero;stroke:none"
             d="m 0,0 c -2.243,-0.685 -4.516,-1.398 -6.704,-2.056 -0.247,-0.905 -0.767,-2.66 -0.767,-2.797 0,-0.138 0.63,-0.85 1.013,-1.262 0.246,-0.274 0.574,-0.576 0.738,-0.74 0.056,0.109 0.246,0.274 0.302,0.383 l 3.064,-2.577 h -5.308 -0.493 -1.176 -0.492 -1.178 -0.492 -1.177 -0.492 -1.122 -0.465 c -0.273,0 -0.521,0.219 -0.794,0.274 -0.108,0.027 -0.246,0.137 -0.246,0.192 -0.274,1.81 -0.603,5.183 -0.793,7.404 -0.056,0.632 -0.11,1.317 -0.192,1.948 -0.384,-0.413 -0.903,-0.933 -1.259,-1.399 -0.11,-0.11 -0.301,-0.329 -0.301,-0.467 l 0.957,-10.146 h 2.545 0.548 1.122 0.492 1.177 0.492 1.178 0.492 1.176 0.493 6.458 l 0.629,2.577 c 0,0.165 -0.082,0.384 -0.191,0.522 -1.369,1.81 -3.148,3.125 -4.57,4.415 1.615,0.521 3.201,1.043 4.734,1.563 C -0.329,-1.48 -0.11,-0.63 0,0" /></g><g
           transform="translate(327.9668,87.8999)"
           id="g378"><path
             id="path380"
             style="fill:#79242f;fill-opacity:1;fill-rule:nonzero;stroke:none"
             d="m 0,0 c 0.549,-0.329 1.452,-0.85 1.589,-0.85 0.136,0 0.875,0.904 1.23,1.261 L 1.15,1.371 C 0.849,1.124 0.247,0.494 0.165,0.494 0.028,0.494 -0.82,1.042 -1.258,1.371 -1.667,0.877 -2.161,0.411 -2.38,0.054 c 0.493,-0.329 1.368,-0.849 1.505,-0.849 0.082,0 0.602,0.492 0.875,0.795" /></g><g
           transform="translate(330.9502,81.1255)"
           id="g382"><path
             id="path384"
             style="fill:#79242f;fill-opacity:1;fill-rule:nonzero;stroke:none"
             d="m 0,0 h -1.231 c -0.137,0 -1.123,0.248 -1.67,0.412 0.547,0.302 1.724,0.521 2.107,1.672 0.028,0.11 0.22,0.33 0.411,0.385 C -0.219,1.811 0,0.549 0,0.412 Z m 35.876,2.469 c -0.41,-0.385 -1.587,-1.783 -1.587,-1.92 0,-0.11 0.191,-0.932 0.219,-1.371 h -1.752 v 0.686 L 33.275,2.14 C 32.729,1.591 32.045,1.125 31.689,0.494 31.471,0.11 31.498,-0.328 31.442,-0.822 h -1.587 c 0.082,0 0.137,0.192 0.191,0.192 -0.137,0 -0.301,-0.192 -0.465,-0.192 -0.329,0 -0.629,0.247 -0.875,0.466 0.273,1.098 0.767,2.167 0.738,2.961 C 28.788,1.975 28.104,1.262 27.666,0.659 27.611,0.604 27.693,-0.822 27.2,-0.822 H 24.437 23.67 22.768 22.274 21.099 20.605 19.43 18.937 17.761 17.267 16.091 15.599 14.423 13.93 12.752 12.26 11.083 10.592 9.415 8.922 7.745 7.252 6.076 5.584 4.407 3.914 2.737 2.246 2.162 c -0.384,0 -0.738,-0.028 -0.82,0.357 C 0.821,1.646 0.603,4.06 0.246,5.924 -0.136,5.266 -0.931,4.114 -0.931,3.977 c 0,-0.138 0.165,-0.438 0.22,-0.658 C -1.259,2.962 -1.861,2.578 -2.408,2.277 -2.791,2.058 -3.749,1.481 -3.94,0.905 -4.214,0.083 -4.761,-1.343 -4.761,-1.452 v -0.303 l 3.312,-0.658 c 0.848,0.082 0.819,1.427 1.532,1.755 0.163,-0.548 0.218,-1.152 0.382,-1.673 0.056,-0.191 0.274,-0.438 0.438,-0.548 0.082,-0.082 0.164,-0.137 0.274,-0.137 h 1.069 0.491 1.177 0.493 1.177 0.492 1.176 0.493 1.177 0.493 1.177 0.491 1.177 0.492 1.178 0.493 1.176 0.492 1.176 0.494 1.176 0.493 1.175 0.494 1.175 0.494 0.902 0.767 1.998 c 0.273,0 0.875,0.603 1.012,0.768 0.055,-0.274 0.465,-0.768 0.821,-0.768 h 0.876 0.711 1.177 c 0.41,0 0.547,0.494 0.711,0.494 0.111,0 0.22,-0.329 0.302,-0.494 l 2.818,-0.056 c 0.137,0 0.192,0.056 0.219,0.056 0.384,1.015 0.794,1.591 0.794,2.277 z" /></g><g
           transform="translate(372.792,84.1968)"
           id="g386"><path
             id="path388"
             style="fill:#79242f;fill-opacity:1;fill-rule:nonzero;stroke:none"
             d="m 0,0 -0.766,-2.221 c 0.164,-0.081 2.134,-1.7 2.134,-2.331 0,-1.508 -3.667,-4.168 -4.679,-4.168 -0.684,0 -2.271,0.658 -2.518,0.658 -0.136,0 -0.136,-0.027 -0.218,-0.083 v -0.246 c 0.301,-0.384 3.639,-1.755 4.597,-1.755 2.516,0 3.858,4.498 3.858,5.979 C 2.408,-2.742 1.588,-0.932 0,0" /></g><g
           transform="translate(397.3115,82.1685)"
           id="g390"><path
             id="path392"
             style="fill:#79242f;fill-opacity:1;fill-rule:nonzero;stroke:none"
             d="m 0,0 c 0,0.055 0.138,0.137 0.191,0.192 0.219,0.137 0.466,0.246 0.685,0.329 0.138,0.055 0.465,0.136 0.602,0.136 0.137,0 0.191,0.028 0.301,-0.081 0.52,-0.412 0.547,-0.988 0.685,-1.563 z M 4.406,-0.686 C 4.133,0.411 3.64,1.782 3.366,2.66 3.339,2.742 3.257,2.796 3.201,2.852 2.299,2.907 1.232,2.276 0.711,2.028 -0.41,1.508 -1.396,0 -1.697,-0.96 -1.751,-1.235 -1.888,-1.481 -2.052,-1.865 h -2.928 -0.767 -0.902 -0.494 -1.175 -0.493 -1.176 -0.492 -1.015 -0.573 c -0.384,0 -0.823,0.247 -0.905,0.576 -0.382,1.59 -0.902,3.592 -1.34,5.375 l -1.122,-2.194 c 0.028,-0.192 0.876,-2.687 0.876,-3.428 0,-0.137 -0.055,-0.165 -0.11,-0.274 h -4.624 c -0.138,0 -0.328,0.192 -0.356,0.302 -0.109,0.357 -0.082,1.041 -0.028,1.481 -0.054,0.054 -0.136,0.136 -0.136,0.136 -0.302,-0.41 -0.548,-1.096 -0.602,-1.453 -0.165,-0.685 -0.302,-2.112 -0.302,-2.221 0,-0.027 0.165,-0.494 0.384,-0.494 h 4.98 c 0.52,0.494 0.494,1.344 1.012,1.48 0.219,-0.493 0.384,-0.986 0.602,-1.48 h 1.589 0.655 1.015 0.492 1.176 0.493 1.175 0.494 0.902 0.767 2.654 c 0.657,0.575 0.466,1.399 1.258,1.727 L 3.093,-3.84 c 0.41,0.631 0.848,1.289 1.204,1.92 0.082,0.165 0.191,0.439 0.191,0.576 0,0.109 -0.028,0.521 -0.082,0.658" /></g></g></g></g></svg>