<?xml version="1.0" encoding="utf-8"?>
<!-- Generator: Adobe Illustrator 16.0.0, SVG Export Plug-In . SVG Version: 6.00 Build 0)  -->
<!DOCTYPE svg PUBLIC "-//W3C//DTD SVG 1.1//EN" "http://www.w3.org/Graphics/SVG/1.1/DTD/svg11.dtd">
<svg version="1.1" id="Layer_1" xmlns="http://www.w3.org/2000/svg" xmlns:xlink="http://www.w3.org/1999/xlink" x="0px" y="0px"
	 width="199.904px" height="42.52px" viewBox="0 0 199.904 42.52" enable-background="new 0 0 199.904 42.52" xml:space="preserve">
<g>
	<g>
		<path fill="#026937" d="M54.347,11h-3.03V9.785h7.335V11h-3.015v9.51h-1.29V11z"/>
		<path fill="#026937" d="M59.582,9.154h1.125v5.686c0.585-0.87,1.395-1.275,2.445-1.275c1.56,0,2.52,0.87,2.52,2.385v4.561h-1.17
			v-3.945c0-1.35-0.555-2.01-1.755-2.01c-0.675,0-1.26,0.255-1.635,0.72c-0.39,0.479-0.39,1.035-0.39,1.771v3.465h-1.14V9.154z"/>
		<path fill="#026937" d="M68.236,17.33c0,0.029,0,0.074,0,0.104c0,1.454,0.93,2.399,2.22,2.399c0.9,0,1.62-0.479,2.175-1.455
			l0.87,0.586c-0.675,1.215-1.725,1.83-3.105,1.83c-2.04,0-3.42-1.471-3.42-3.66c0-2.115,1.395-3.585,3.345-3.585
			c1.965,0,3.225,1.335,3.225,3.555c0,0.075,0,0.149,0,0.226H68.236z M70.276,14.555c-1.095,0-1.92,0.705-2.04,1.845h4.08
			C72.241,15.215,71.491,14.555,70.276,14.555z"/>
		<path fill="#026937" d="M79.082,9.785h1.275V20.51h-1.275V9.785z"/>
		<path fill="#026937" d="M82.457,13.805h1.125v1.035c0.586-0.87,1.395-1.275,2.445-1.275c1.561,0,2.52,0.87,2.52,2.385v4.561h-1.17
			v-3.945c0-1.35-0.555-2.01-1.754-2.01c-0.676,0-1.262,0.255-1.637,0.72c-0.389,0.479-0.389,1.035-0.389,1.771v3.465h-1.141V13.805
			z"/>
		<path fill="#026937" d="M89.386,14.75v-0.945h1.23v-2.7h1.17v2.7h1.23v0.945h-1.23v5.76h-1.17v-5.76H89.386z"/>
		<path fill="#026937" d="M94.621,17.33c0,0.029,0,0.074,0,0.104c0,1.454,0.932,2.399,2.221,2.399c0.9,0,1.619-0.479,2.176-1.455
			l0.869,0.586c-0.676,1.215-1.725,1.83-3.105,1.83c-2.039,0-3.42-1.471-3.42-3.66c0-2.115,1.396-3.585,3.346-3.585
			c1.965,0,3.225,1.335,3.225,3.555c0,0.075,0,0.149,0,0.226H94.621z M96.662,14.555c-1.096,0-1.92,0.705-2.041,1.845h4.08
			C98.626,15.215,97.876,14.555,96.662,14.555z"/>
		<path fill="#026937" d="M101.296,13.805h1.02v1.395c0.6-1.14,1.23-1.619,2.25-1.619c0.27,0,0.525,0.045,0.779,0.135l-0.389,1.035
			c-0.256-0.09-0.496-0.135-0.705-0.135c-1.215,0-1.816,0.869-1.816,2.624v3.271h-1.139V13.805z"/>
		<path fill="#026937" d="M106.171,13.805h1.125v1.035c0.584-0.87,1.395-1.275,2.445-1.275c1.559,0,2.52,0.87,2.52,2.385v4.561
			h-1.17v-3.945c0-1.35-0.555-2.01-1.756-2.01c-0.674,0-1.26,0.255-1.635,0.72c-0.389,0.479-0.389,1.035-0.389,1.771v3.465h-1.141
			V13.805z"/>
		<path fill="#026937" d="M120.39,20.51h-1.109v-1.215c-0.539,0.975-1.395,1.5-2.43,1.5c-1.92,0-3.209-1.426-3.209-3.615
			c0-2.25,1.273-3.615,3.148-3.615c1.125,0,1.951,0.51,2.461,1.5v-1.26h1.139V20.51z M117.046,14.705
			c-1.381,0-2.189,0.885-2.189,2.414c0,1.62,0.809,2.535,2.234,2.535c1.35,0,2.189-0.885,2.189-2.43
			C119.281,15.664,118.335,14.705,117.046,14.705z"/>
		<path fill="#026937" d="M121.261,14.75v-0.945h1.23v-2.7h1.17v2.7h1.229v0.945h-1.229v5.76h-1.17v-5.76H121.261z"/>
		<path fill="#026937" d="M126.451,9.74c0.465,0,0.84,0.39,0.84,0.854s-0.375,0.825-0.84,0.825s-0.84-0.36-0.84-0.84
			C125.611,10.115,125.986,9.74,126.451,9.74z M125.88,13.805h1.154v6.705h-1.154V13.805z"/>
		<path fill="#026937" d="M129.601,14.615c0.689-0.691,1.59-1.051,2.58-1.051c0.988,0,1.875,0.375,2.578,1.064
			c0.691,0.676,1.066,1.576,1.066,2.551s-0.375,1.859-1.066,2.535c-0.703,0.689-1.604,1.08-2.578,1.08
			c-0.99,0-1.891-0.375-2.58-1.065c-0.705-0.705-1.066-1.575-1.066-2.55S128.896,15.305,129.601,14.615z M132.181,19.715
			c1.334,0,2.414-1.11,2.414-2.535c0-1.426-1.08-2.535-2.414-2.535c-1.352,0-2.432,1.109-2.432,2.535
			C129.75,18.604,130.845,19.715,132.181,19.715z"/>
		<path fill="#026937" d="M137.236,13.805h1.125v1.035c0.584-0.87,1.395-1.275,2.443-1.275c1.561,0,2.521,0.87,2.521,2.385v4.561
			h-1.17v-3.945c0-1.35-0.557-2.01-1.756-2.01c-0.676,0-1.26,0.255-1.635,0.72c-0.391,0.479-0.391,1.035-0.391,1.771v3.465h-1.139
			V13.805z"/>
		<path fill="#026937" d="M151.455,20.51h-1.109v-1.215c-0.541,0.975-1.395,1.5-2.43,1.5c-1.92,0-3.211-1.426-3.211-3.615
			c0-2.25,1.275-3.615,3.15-3.615c1.125,0,1.949,0.51,2.459,1.5v-1.26h1.141V20.51z M148.111,14.705
			c-1.381,0-2.191,0.885-2.191,2.414c0,1.62,0.811,2.535,2.236,2.535c1.35,0,2.189-0.885,2.189-2.43
			C150.345,15.664,149.4,14.705,148.111,14.705z"/>
		<path fill="#026937" d="M153.435,9.154h1.17V20.51h-1.17V9.154z"/>
		<path fill="#026937" d="M166.814,17.494c0,1.965-1.363,3.285-3.434,3.285c-1.695,0-2.881-0.9-3.285-2.49l1.154-0.57
			c0.314,1.306,1.051,1.98,2.131,1.98c1.289,0,2.145-0.824,2.145-1.994c0-0.961-0.555-1.666-1.666-2.146l-1.305-0.556
			c-1.424-0.6-2.113-1.529-2.113-2.834c0-1.5,1.229-2.641,3.014-2.641c1.291,0,2.25,0.555,2.775,1.62l-1.051,0.675
			c-0.465-0.81-1.049-1.229-1.814-1.229c-0.959,0-1.635,0.646-1.635,1.56c0,0.766,0.465,1.305,1.439,1.725l1.531,0.676
			C166.109,15.154,166.814,16.145,166.814,17.494z"/>
		<path fill="#026937" d="M173.16,20.254c-0.615,0.36-1.381,0.541-2.25,0.541c-2.086,0-3.451-1.455-3.451-3.57
			c0-2.189,1.486-3.66,3.496-3.66c0.75,0,1.469,0.165,2.084,0.465v1.23c-0.568-0.375-1.199-0.586-1.859-0.586
			c-1.471,0-2.49,0.99-2.49,2.58c0,1.351,1.006,2.43,2.4,2.43c0.721,0,1.365-0.254,2.07-0.764V20.254z"/>
		<path fill="#026937" d="M174.375,9.154h1.125v5.686c0.584-0.87,1.395-1.275,2.445-1.275c1.559,0,2.52,0.87,2.52,2.385v4.561h-1.17
			v-3.945c0-1.35-0.555-2.01-1.756-2.01c-0.674,0-1.26,0.255-1.635,0.72c-0.389,0.479-0.389,1.035-0.389,1.771v3.465h-1.141V9.154z"
			/>
		<path fill="#026937" d="M182.878,14.615c0.691-0.691,1.59-1.051,2.58-1.051s1.875,0.375,2.58,1.064
			c0.689,0.676,1.064,1.576,1.064,2.551s-0.375,1.859-1.064,2.535c-0.705,0.689-1.605,1.08-2.58,1.08
			c-0.99,0-1.889-0.375-2.58-1.065c-0.705-0.705-1.064-1.575-1.064-2.55S182.173,15.305,182.878,14.615z M185.458,19.715
			c1.336,0,2.416-1.11,2.416-2.535c0-1.426-1.08-2.535-2.416-2.535c-1.35,0-2.43,1.109-2.43,2.535
			C183.029,18.604,184.125,19.715,185.458,19.715z"/>
		<path fill="#026937" d="M191.039,14.615c0.689-0.691,1.59-1.051,2.58-1.051s1.875,0.375,2.58,1.064
			c0.689,0.676,1.064,1.576,1.064,2.551s-0.375,1.859-1.064,2.535c-0.705,0.689-1.605,1.08-2.58,1.08
			c-0.99,0-1.891-0.375-2.58-1.065c-0.705-0.705-1.064-1.575-1.064-2.55S190.333,15.305,191.039,14.615z M193.619,19.715
			c1.334,0,2.414-1.11,2.414-2.535c0-1.426-1.08-2.535-2.414-2.535c-1.35,0-2.43,1.109-2.43,2.535
			C191.189,18.604,192.283,19.715,193.619,19.715z"/>
		<path fill="#026937" d="M198.734,9.154h1.17V20.51h-1.17V9.154z"/>
		<path fill="#026937" d="M52.312,28.582c0.46-0.461,1.06-0.7,1.719-0.7s1.249,0.25,1.719,0.71c0.46,0.449,0.709,1.049,0.709,1.699
			c0,0.648-0.25,1.238-0.709,1.688c-0.47,0.46-1.069,0.72-1.719,0.72c-0.66,0-1.259-0.25-1.719-0.709
			c-0.47-0.471-0.709-1.051-0.709-1.699C51.602,29.641,51.842,29.041,52.312,28.582z M54.031,31.979
			c0.889,0,1.609-0.739,1.609-1.688c0-0.95-0.72-1.689-1.609-1.689c-0.9,0-1.619,0.739-1.619,1.689
			C52.412,31.24,53.141,31.979,54.031,31.979z"/>
		<path fill="#026937" d="M57.852,28.672h-0.859v-0.631h0.859v-1.289c0-1.339,0.22-1.898,1.289-1.898c0.23,0,0.45,0.029,0.66,0.1
			v0.79c-0.2-0.11-0.399-0.16-0.6-0.16c-0.57,0-0.589,0.409-0.589,1.27v1.188H59.8v0.631h-1.169v3.838h-0.779V28.672z"/>
		<path fill="#026937" d="M66.99,25.982c-0.75,0-1.509,0.32-2.039,0.87c-0.55,0.569-0.819,1.269-0.819,2.108
			c0,0.66,0.16,1.22,0.49,1.689c0.569,0.81,1.439,1.27,2.408,1.27c0.9,0,1.689-0.37,2.339-1.13v1.13
			c-0.709,0.51-1.539,0.779-2.409,0.779c-0.759,0-1.489-0.23-2.109-0.66c-1.039-0.719-1.609-1.799-1.609-3.068
			c0-1.109,0.37-1.998,1.119-2.729c0.73-0.699,1.609-1.049,2.659-1.049c0.85,0,1.609,0.26,2.349,0.77v1.109
			C68.679,26.322,67.919,25.982,66.99,25.982z"/>
		<path fill="#026937" d="M70.742,24.943h0.75v3.788c0.39-0.579,0.929-0.85,1.629-0.85c1.04,0,1.679,0.579,1.679,1.589v3.039h-0.78
			v-2.629c0-0.899-0.37-1.34-1.169-1.34c-0.45,0-0.839,0.17-1.089,0.48c-0.26,0.319-0.26,0.689-0.26,1.18v2.309h-0.759V24.943z"/>
		<path fill="#026937" d="M76.661,28.582c0.46-0.461,1.059-0.7,1.719-0.7s1.25,0.25,1.719,0.71c0.461,0.449,0.709,1.049,0.709,1.699
			c0,0.648-0.248,1.238-0.709,1.688c-0.469,0.46-1.068,0.72-1.719,0.72c-0.66,0-1.259-0.25-1.719-0.709
			c-0.47-0.471-0.709-1.051-0.709-1.699C75.952,29.641,76.191,29.041,76.661,28.582z M78.38,31.979c0.889,0,1.609-0.739,1.609-1.688
			c0-0.95-0.721-1.689-1.609-1.689c-0.9,0-1.62,0.739-1.62,1.689C76.761,31.24,77.492,31.979,78.38,31.979z"/>
		<path fill="#026937" d="M82.72,30.24c0,1.18,0.271,1.729,1.25,1.729c0.98,0,1.24-0.55,1.24-1.729v-2.199h0.779v2.609
			c0,1.35-0.699,2.049-2.039,2.049c-1.32,0-2.029-0.699-2.029-2.049v-2.609h0.799V30.24z"/>
		<path fill="#026937" d="M87.921,30.391c0,0.02,0,0.05,0,0.07c0,0.969,0.619,1.599,1.479,1.599c0.6,0,1.08-0.319,1.449-0.97
			l0.58,0.391c-0.449,0.809-1.15,1.219-2.068,1.219c-1.359,0-2.279-0.979-2.279-2.438c0-1.409,0.93-2.389,2.229-2.389
			c1.309,0,2.148,0.89,2.148,2.368c0,0.051,0,0.1,0,0.15H87.921z M89.281,28.541c-0.73,0-1.279,0.471-1.359,1.23h2.719
			C90.589,28.981,90.089,28.541,89.281,28.541z"/>
		<path fill="#026937" d="M93.031,25.333c0.311,0,0.561,0.261,0.561,0.569c0,0.311-0.25,0.551-0.561,0.551
			c-0.309,0-0.559-0.24-0.559-0.561C92.472,25.583,92.722,25.333,93.031,25.333z M92.652,28.041h0.77v4.469h-0.77V28.041z"/>
		<path fill="#026937" d="M95.232,28.672h-0.859v-0.631h0.859v-1.289c0-1.339,0.219-1.898,1.289-1.898
			c0.229,0,0.449,0.029,0.658,0.1v0.79c-0.199-0.11-0.398-0.16-0.6-0.16c-0.568,0-0.588,0.409-0.588,1.27v1.188h1.188v0.631h-1.168
			v3.838h-0.779V28.672z"/>
		<path fill="#026937" d="M102.08,32.51h-0.74v-0.811c-0.359,0.65-0.93,1-1.619,1c-1.279,0-2.139-0.949-2.139-2.408
			c0-1.5,0.85-2.409,2.098-2.409c0.75,0,1.301,0.34,1.641,0.999v-0.84h0.76V32.51z M99.849,28.642c-0.918,0-1.459,0.589-1.459,1.608
			c0,1.08,0.541,1.689,1.49,1.689c0.898,0,1.459-0.59,1.459-1.619C101.339,29.281,100.708,28.642,99.849,28.642z"/>
		<path fill="#026937" d="M102.912,28.672v-0.631h0.818v-1.799h0.781v1.799h0.818v0.631h-0.818v3.838h-0.781v-3.838H102.912z"/>
		<path fill="#026937" d="M111.339,29.9v0.77h-2.279V29.9H111.339z"/>
		<path fill="#026937" d="M116.669,25.363v4.447c0,1.43,0.58,2.1,1.91,2.1c1.328,0,1.908-0.67,1.908-2.1v-4.447h0.859v4.447
			c0,1.93-0.908,2.889-2.768,2.889s-2.77-0.959-2.77-2.889v-4.447H116.669z"/>
		<path fill="#026937" d="M129.177,29.881c0-0.899-0.35-1.34-1.109-1.34c-0.41,0-0.77,0.17-1.01,0.48
			c-0.24,0.31-0.25,0.68-0.25,1.18v2.309h-0.74v-2.629c0-0.899-0.35-1.34-1.109-1.34c-0.408,0-0.779,0.17-1.02,0.48
			c-0.238,0.31-0.238,0.68-0.238,1.18v2.309h-0.74v-4.469h0.75v0.69c0.369-0.569,0.879-0.85,1.549-0.85
			c0.719,0,1.238,0.31,1.5,0.909c0.389-0.619,0.908-0.909,1.588-0.909c0.99,0,1.59,0.579,1.59,1.589v3.039h-0.76V29.881z"/>
		<path fill="#026937" d="M137.658,29.881c0-0.899-0.35-1.34-1.109-1.34c-0.41,0-0.77,0.17-1.01,0.48
			c-0.24,0.31-0.25,0.68-0.25,1.18v2.309h-0.74v-2.629c0-0.899-0.35-1.34-1.109-1.34c-0.41,0-0.779,0.17-1.02,0.48
			c-0.24,0.31-0.24,0.68-0.24,1.18v2.309h-0.738v-4.469h0.75v0.69c0.369-0.569,0.879-0.85,1.549-0.85
			c0.719,0,1.238,0.31,1.498,0.909c0.391-0.619,0.91-0.909,1.59-0.909c0.99,0,1.59,0.579,1.59,1.589v3.039h-0.76V29.881z"/>
		<path fill="#026937" d="M148.457,32.51h-0.92l-0.928-2.189h-2.789l-0.93,2.189h-0.92l3.238-7.426L148.457,32.51z M144.07,29.591
			h2.279l-1.141-2.628L144.07,29.591z"/>
		<path fill="#026937" d="M149.16,24.943h0.779v7.566h-0.779V24.943z"/>
		<path fill="#026937" d="M160.917,33.199l-0.951-1.02c-0.568,0.33-1.238,0.489-2.027,0.489c-0.811,0-1.549-0.239-2.17-0.699
			c-0.998-0.739-1.529-1.789-1.529-3.028c0-1,0.4-1.939,1.119-2.648c0.73-0.71,1.68-1.09,2.699-1.09s1.92,0.34,2.639,0.99
			c0.77,0.699,1.189,1.668,1.189,2.758c0,1.14-0.439,2.109-1.279,2.778l1.359,1.47H160.917z M160.017,31.1
			c0.6-0.479,0.949-1.238,0.949-2.118c0-0.59-0.139-1.13-0.398-1.56c-0.541-0.889-1.449-1.398-2.51-1.398
			c-0.779,0-1.52,0.299-2.068,0.85c-0.551,0.549-0.85,1.289-0.85,2.068c0,1.01,0.41,1.818,1.219,2.408
			c0.461,0.33,1.02,0.51,1.629,0.51c0.529,0,0.98-0.1,1.379-0.319l-1.459-1.579h1.051L160.017,31.1z"/>
		<path fill="#026937" d="M163.91,30.24c0,1.18,0.27,1.729,1.25,1.729c0.979,0,1.238-0.55,1.238-1.729v-2.199h0.779v2.609
			c0,1.35-0.699,2.049-2.039,2.049c-1.318,0-2.027-0.699-2.027-2.049v-2.609h0.799V30.24z"/>
		<path fill="#026937" d="M172.738,31.09l1.199-3.049h0.859l-1.988,4.748l-1.469-3.428l-1.471,3.428l-1.988-4.748h0.85l1.189,3.049
			l1.359-3.208h0.119L172.738,31.09z"/>
		<path fill="#026937" d="M179.738,32.51h-0.74v-0.811c-0.359,0.65-0.93,1-1.619,1c-1.279,0-2.139-0.949-2.139-2.408
			c0-1.5,0.85-2.409,2.1-2.409c0.75,0,1.299,0.34,1.639,0.999v-0.84h0.76V32.51z M177.509,28.642c-0.92,0-1.459,0.589-1.459,1.608
			c0,1.08,0.539,1.689,1.488,1.689c0.9,0,1.459-0.59,1.459-1.619C178.998,29.281,178.369,28.642,177.509,28.642z"/>
		<path fill="#026937" d="M181.689,25.333c0.311,0,0.561,0.261,0.561,0.569c0,0.311-0.25,0.551-0.561,0.551
			c-0.309,0-0.559-0.24-0.559-0.561C181.13,25.583,181.38,25.333,181.689,25.333z M181.31,28.041h0.77v4.469h-0.77V28.041z"/>
		<path fill="#026937" d="M183.689,28.041h0.75v0.69c0.391-0.579,0.93-0.85,1.629-0.85c1.039,0,1.68,0.579,1.68,1.589v3.039h-0.779
			v-2.629c0-0.899-0.371-1.34-1.17-1.34c-0.449,0-0.84,0.17-1.09,0.48c-0.26,0.319-0.26,0.689-0.26,1.18v2.309h-0.76V28.041z"/>
	</g>
	<g>
		<path fill="#026937" d="M25.475,18.012c-0.27-0.1-0.928-0.314-1.031,0.113c-0.08,0.324,0.208,0.598,0.279,0.891
			c0.073,0.33-0.054,0.715,0.171,1.014c0.327,0.426,0.829-0.227,1.065-0.441c0.212-0.242,0.115-0.602,0.037-0.865
			C25.91,18.428,25.781,18.125,25.475,18.012"/>
		<path fill="#026937" d="M23.118,18.125c-0.393,0.125-0.863,0.039-1.222,0.244c-0.332,0.191-0.482,0.977-0.066,1.174
			c0.239,0.115,0.383-0.215,0.511-0.354c0.174-0.174,0.383-0.084,0.458,0.139c0.178,0.492-0.031,1.029-0.009,1.541
			c0.004,0.176,0.058,0.369,0.25,0.422c0.156,0.055,0.293-0.01,0.389-0.137c0.508-0.713-0.114-1.736,0.558-2.402
			c0.172-0.205,0.053-0.461-0.139-0.607C23.629,17.977,23.365,18.051,23.118,18.125"/>
		<path fill="#026937" d="M26.84,15.408c-0.228-0.127-0.309,0.074-0.364,0.262c-0.077,0.246-0.263,0.311-0.455,0.469
			c-0.375,0.291-0.236,0.918,0.163,1.123c0.534,0.201,1.202,0.1,1.15-0.58C27.295,16.242,27.276,15.65,26.84,15.408"/>
		<path fill="#026937" d="M23.287,7.408c-0.256-0.246-0.619-0.193-0.905-0.031c-0.149,0.082-0.287,0.174-0.454,0.229
			c-0.124,0.035-0.265,0.088-0.289,0.23c-0.074,0.285,0.255,0.48,0.396,0.682c0.198,0.258,0.349,0.566,0.637,0.746
			c0.447,0.271,1.142,0.229,1.46-0.234c0.102-0.303-0.176-0.547-0.348-0.752C23.576,8.01,23.526,7.654,23.287,7.408"/>
		<path fill="#026937" d="M28.191,18.895c-0.312-0.213-0.739,0.027-0.879,0.346c-0.114,0.275-0.114,0.689,0.195,0.846
			c0.271,0.145,0.66-0.014,0.739-0.313C28.315,19.504,28.49,19.098,28.191,18.895"/>
		<path fill="#026937" d="M20.635,18.922c-0.162,0.162-0.036,0.52-0.021,0.721c0.018,0.297-0.209,0.609-0.335,0.877
			c-0.156,0.311-0.289,0.672-0.131,1.01c0.229,0.488,1.092,0.709,1.379,0.15c0.248-0.818,0.104-1.666-0.288-2.42
			C21.148,19.088,20.881,18.682,20.635,18.922"/>
		<path fill="#026937" d="M20.198,17.838c0.208-0.061,0.575-0.299,0.272-0.502c-0.249-0.178-0.584,0.006-0.864-0.086
			c-0.276-0.102-0.944-0.535-1.107-0.059C18.188,18.086,19.709,17.969,20.198,17.838"/>
		<path fill="#026937" d="M19.225,10.268c-0.367-0.238-0.837-0.164-1.255-0.201c-0.433-0.045-0.762-0.295-1.168-0.414
			c-0.269-0.08-0.543-0.008-0.713,0.217c-0.158,0.207-0.118,0.455,0.087,0.609c0.447,0.33,1.098,0.074,1.542,0.387
			c0.284,0.207-0.004,0.48-0.234,0.566c-0.266,0.102-0.569,0.02-0.849-0.006c-0.466-0.049-1.048,0.232-0.571,0.682
			c0.164,0.156,0.356,0.277,0.536,0.41c0.147,0.107,0.246,0.258,0.36,0.406c0.215,0.273,0.821,0.885,1.051,0.244
			c0.141-0.396-0.188-1.076,0.329-1.285c0.447-0.182,0.958,0.215,1.399,0C20.318,11.59,19.54,10.479,19.225,10.268"/>
		<path fill="#026937" d="M14.451,10.793c-0.272-0.105-0.184-0.326-0.064-0.502c0.132-0.201,0.114-0.387-0.095-0.52
			c-0.214-0.148-0.5-0.178-0.743-0.275c-0.231-0.08-0.418-0.248-0.654-0.332c-0.396-0.154-1.043,0.1-0.906,0.607
			c0.118,0.449,0.638,0.496,0.963,0.734c0.428,0.314,0.325,0.883,0.526,1.309c0.192,0.412,0.625,0.795,1.111,0.68
			c0.436-0.041,0.611-0.521,0.603-0.898c0-0.201-0.028-0.432-0.167-0.596C14.882,10.826,14.649,10.865,14.451,10.793"/>
		<path fill="#026937" d="M19.709,22.561c-0.153-0.061-0.294-0.145-0.468-0.154c-0.293-0.018-0.563,0.109-0.825,0.238
			c0,0,0.053,0.146,0.067,0.203c0.056,0.291,0.208,0.586,0.375,0.826c0.166,0.24,0.414,0.506,0.731,0.465
			c0.296-0.037,0.482-0.285,0.62-0.521c0.15-0.27,0.238-0.576,0.449-0.803c0.074-0.09,0.15-0.15,0.242-0.191
			c0.019,0.004-0.356-0.059-0.567-0.045C20.11,22.584,19.925,22.646,19.709,22.561"/>
		<path fill="#026937" d="M18.58,20.441c-0.008-0.203-0.038-0.402-0.085-0.59c-0.043-0.178-0.06-0.367-0.155-0.523
			c-0.072-0.137-0.245-0.115-0.376-0.137c-0.19-0.033-0.378-0.088-0.575-0.119c-0.428-0.066-0.844-0.25-1.155-0.043
			c-0.064,0.029-0.088,0.33,0.014,0.475c0.098,0.143,0.211,0.275,0.308,0.412c0.217,0.332,0.424,0.66,0.635,0.992
			c0.105,0.164,0.212,0.33,0.31,0.5c0.074,0.137,0.15,0.281,0.273,0.383c0.114,0.086,0.261,0.127,0.408,0.141
			c0.063,0.006,0.134,0.02,0.195-0.016C18.74,21.75,18.58,20.441,18.58,20.441"/>
		<path fill="#026937" d="M19.271,19.012c-0.346,0.363,0.056,0.832,0.167,1.207c0.033,0.109,0.168,0.697,0.369,0.504
			c0.382-0.256,0.245-0.777,0.212-1.158c-0.014-0.219-0.014-0.467-0.192-0.619C19.659,18.816,19.407,18.859,19.271,19.012"/>
		<path fill="#026937" d="M34.703,16.561c-0.146,0.125-0.381,0.041-0.556,0.014c-0.28-0.045-0.643-0.131-0.692-0.467
			c-0.051-0.309,0.301-0.557,0.587-0.537c0.19,0.014,0.283,0.174,0.423,0.275c0.102,0.074,0.294,0.09,0.294,0.256
			C34.76,16.258,34.853,16.443,34.703,16.561 M9.168,17.732c0.408-0.051,0.386-0.559,0.604-0.813
			c0.271-0.324,0.529,0.273,0.769,0.342c0.169,0.037,0.396,0.02,0.348,0.258c-0.044,0.258-0.267,0.412-0.502,0.477
			C9.977,18.115,9.45,18.104,9.168,17.732 M37.525,21.801c-0.841,0.273-1.892-0.051-2.6-0.529c-0.302-0.213-0.572-0.477-0.761-0.791
			c-0.116-0.193-0.219-0.486-0.461-0.553c-0.446-0.125-0.115,0.672-0.043,0.83c0.124,0.281,0.366,0.875-0.03,1.057
			c-0.495,0.219-0.665-0.424-0.783-0.758c-0.488-1.375-1.694,0.674-2.118,1.07c-0.464,0.424-1.079,0.537-1.617,0.162
			c-0.501-0.371-0.796-0.943-1.292-1.322c-1.102-0.848-5.123,1.063-4.482,5.172c0.067,0.438,0.114,0.801,0.15,1.113
			c0.383,1.598,1.137,2.543,1.541,2.867c0.585,0.479,1.931,0.367,1.865,0.939c-0.023,0.223-0.282,0.293-0.412,0.34
			c-0.129,0.047-0.554,0.205-0.908,0.035c-0.6-0.498-0.996-0.029-1.209-0.221c-0.474-0.428-0.872-1.207-1.273-2.139
			c0.045,0.32-0.967-2.742-1.077-2.951c-0.212-0.391-0.376-0.875-0.673-1.201c-0.257-0.287-0.762-0.408-1.122-0.246
			c-0.44,0.205-0.336,0.838-0.234,1.207c0.168,0.691,0.484,1.336,0.749,1.996c0.292,0.727,0.409,1.49,0.647,2.227
			c0.096,0.285,0.563,1.586-0.234,1.35c-0.335-0.092-0.638-0.408-0.827-0.691c-0.206-0.309-0.212-0.645-0.182-1.006
			c0.015-0.316,0.12-1.121-0.4-1.104c-0.411,0.006-0.91,0.533-0.993,0.924c-0.114,0.502,0.495,0.809,0.568,1.277
			c0.047,0.307-0.209,0.588-0.514,0.627c-0.337,0.045-0.645-0.139-0.94-0.27c-0.099,0.289-0.42,0.654-0.762,0.502
			c-0.268-0.125-0.383-0.422-0.665-0.537c-0.51-0.193-0.958,0.85-1.594,0.139c-0.45-0.51,1.118-0.652,1.784-1.012
			c0.619-0.322,1.093-0.855,1.471-1.426c0.403-0.609,0.451-1.354,0.414-2.066c-0.041-0.834-0.128-1.654-0.188-2.49
			c-0.038-0.529-0.038-1.156-0.416-1.57c-0.281,0.033-0.568,0.033-0.849,0.082c-0.325,0.047-0.645,0.137-0.967,0.207
			c-0.242,0.055-0.58,0.113-0.795-0.049c-0.222-0.178,0.031-0.404,0.196-0.51c0.245-0.152,0.545-0.221,0.741-0.43
			c0.237-0.248,0.245-0.592,0.141-0.898c-0.22-0.635-0.75-1.16-1.317-1.508c-0.453-0.271-1.146-0.494-1.558-0.041
			c-0.424,0.451-0.197,1.174,0.217,1.557c0.233,0.229,0.551,0.375,0.814,0.588c0.193,0.16,0.529,0.506,0.108,0.623
			c-0.319,0.096-0.602-0.199-0.846-0.352c-0.305-0.18-0.661-0.275-1.01-0.318c-0.59-0.061-1.254,0.098-1.563,0.627
			c-0.094,0.152-0.169,0.344-0.148,0.521c0.019,0.127,0.109,0.314,0.017,0.434c-0.077,0.082-0.251,0.086-0.349,0.129
			c-0.26,0.102-0.681,0.236-0.785,0.27c-0.337,0.1-0.573,0.27-0.853,0.467c-0.491,0.35-1.054,0.451-1.349-0.182
			c-0.204-0.432-0.284-1.305-0.937-1.275c-0.349,0.006-0.619,0.285-0.964,0.299C5.567,23,5.302,22.854,5.091,22.693
			c-0.386-0.311-0.794-0.852-0.71-1.379c0.11-0.68,1.012-0.445,1.412-0.213c0.629,0.346,1.111,0.893,1.663,1.346
			c0.425,0.352,0.912,0.652,1.468,0.746c0.331,0.055,1.07-0.064,0.904-0.57c-0.12-0.338-0.539-0.496-0.649-0.842
			c-0.181-0.59,0.663-0.545,0.989-0.482c0.353,0.074,1.121,0.23,1.146-0.326c0.029-0.6-0.602-0.9-1.115-0.979
			c-0.592-0.092-1.399,0.105-1.803-0.471c-0.43-0.613,0.611-0.934,1.043-0.914c0.341,0.021,0.668,0.15,0.953,0.334
			c0.282,0.17,0.498,0.402,0.771,0.58c0.251,0.164,0.589,0.287,0.862,0.1c0.202-0.139,0.263-0.398,0.175-0.617
			c-0.164-0.428-0.694-0.59-0.87-1.012c-0.112-0.268,0.006-0.574,0.266-0.695c0.29-0.135,0.604-0.006,0.83,0.188
			c0.467,0.406,0.707,1.055,1.31,1.316c0.265,0.117,0.679,0.168,0.86-0.121c0.155-0.238-0.031-0.477-0.25-0.576
			c-0.333-0.176-0.946-0.279-0.93-0.764c0.015-0.609,0.586-0.609,1.014-0.383c0.255,0.143,1.329,1.031,1.595,0.592
			c0.119-0.209-0.08-0.506-0.141-0.701c-0.069-0.207-0.061-0.592,0.26-0.563c0.429,0.039,0.545,1.012,0.96,0.883
			c0.158-0.051,0.218-0.244,0.363-0.32c0.137-0.07,0.299-0.074,0.446-0.107c0.346-0.061,0.542-0.324,0.844-0.455
			c0.313-0.148,0.624-0.059,0.951-0.1c0.326-0.031,0.438-0.268,0.667-0.443c0.292-0.232,0.558,0.006,0.832,0.115
			c0.255,0.104,0.484-0.008,0.538-0.275c0.053-0.244-0.028-0.5,0.058-0.748c0.097-0.305,0.187-0.529-0.037-0.803
			c-0.203-0.244-0.469-0.42-0.658-0.674c-0.166-0.223-0.33-0.469-0.613-0.535c-0.356-0.084-1.025,0.023-1.012,0.5
			c0.009,0.322,0.302,0.539,0.578,0.66c0.114,0.049,0.253,0.049,0.334,0.156c0.041,0.057,0.128,0.105,0.092,0.191
			c-0.122,0.352-0.508,0.576-0.877,0.541c-0.164-0.021-0.341-0.156-0.512-0.082c-0.166,0.072-0.126,0.258-0.21,0.389
			c-0.184,0.285-0.582-0.047-0.719-0.215c-0.112-0.139-0.137-0.336-0.268-0.463c-0.042-0.043-0.302-0.092-0.373-0.207
			c-0.324-0.303-0.653-0.221-1.087-0.188c-0.331,0.021-0.854,0.15-0.75,0.582c0.097,0.379,0.462,0.787,0.029,1.121
			c-0.337,0.273-0.784,0.229-1.124-0.012c-0.278-0.201-0.561-0.488-0.938-0.43c-0.32,0.045-0.072,0.346,0.015,0.482
			c0.227,0.363-0.201,0.436-0.474,0.436c-0.405,0-0.811-0.08-1.193-0.234c-0.307-0.127-0.607-0.285-0.937-0.363
			c-0.34-0.08-0.643-0.02-0.978,0.061c-0.409,0.102-0.766,0.127-1.156-0.066c-0.317-0.158-0.592-0.383-0.917-0.529
			c-0.307-0.133-0.722-0.182-0.967-0.42c-0.192-0.18-0.223-0.488-0.114-0.723c0.152-0.338,0.552-0.248,0.762-0.506
			c0.205-0.256,0.421-0.355,0.754-0.289c0.303,0.064,0.524,0.23,0.625,0.527c0.08,0.258,0.08,0.527,0.234,0.766
			c0.217,0.336,0.588,0.322,0.937,0.256c0.365-0.066,0.638,0.025,0.98,0.141c0.297,0.09,0.61,0.1,0.859-0.113
			c0.159-0.129,0.243-0.371,0.138-0.564c-0.179-0.336-0.729-0.391-1.069-0.447c-0.619-0.1-1.042-0.545-1.64-0.705
			c-0.378-0.1-1.231-0.145-1.043-0.744c0.209-0.633,1.178-0.656,1.582-0.238c0.208,0.211,0.335,0.578,0.651,0.646
			c0.274,0.068,0.554-0.051,0.834,0.014c0.21,0.045,1.147,0.65,1.257,0.188c0.068-0.316-0.245-0.523-0.4-0.75
			c-0.183-0.254-0.208-0.559-0.22-0.861c-0.016-0.297-0.068-0.594-0.321-0.783c-0.266-0.197-0.614-0.236-0.879-0.439
			c-0.487-0.396-0.516-1.164-0.137-1.645c0.449-0.572,1.146-0.463,1.718-0.15c0.288,0.162,0.62,0.416,0.975,0.373
			c0.279-0.039,0.501-0.305,0.461-0.576c-0.085-0.533-0.922-0.336-1.279-0.482c-0.312-0.141-0.36-0.498-0.147-0.752
			c0.199-0.221,0.51-0.336,0.804-0.367c0.546-0.064,1.223,0.074,1.331,0.695c0.061,0.336-0.132,1.377,0.383,1.432
			c0.298,0.029,0.499-0.318,0.796-0.303c0.248,0.018,0.383,0.289,0.528,0.455c0.543,0.619,1.045-0.334,1.569-0.414
			c0.696-0.104,1.046,0.799,1.7,0.883c0.292,0.037,0.685-0.092,0.917,0.156c0.173,0.168,0.154,0.455,0.137,0.678
			c-0.028,0.336-0.028,0.645,0.135,0.941c0.139,0.268,0.364,0.498,0.39,0.811c0.019,0.271-0.139,0.602,0.072,0.834
			c0.2,0.211,0.584,0.215,0.847,0.123c0.324-0.123,0.48-0.404,0.468-0.738c-0.002-0.219-0.105-0.463-0.049-0.68
			c0.085-0.285,0.464-0.174,0.636-0.043c0.211,0.146,0.43,0.334,0.702,0.225c0.494-0.205,0.6-0.998,0.204-1.336
			c-0.483-0.422-1.023,0.117-1.372,0.439c-0.32,0.303-0.994,0.652-1.374,0.221c-0.429-0.496,0.626-0.699,0.64-1.127
			c0.015-0.482-0.773-0.652-1.006-0.988c-0.181-0.258-0.11-0.555-0.19-0.838c-0.066-0.293-0.306-0.381-0.57-0.439
			c-0.378-0.094-0.607-0.252-0.887-0.518c-0.22-0.215-0.464-0.322-0.733-0.461c-0.237-0.127-0.428-0.346-0.33-0.627
			c0.097-0.273,0.382-0.381,0.64-0.295c0.432,0.146,0.847,0.82,1.359,0.596c0.241-0.111,0.37-0.422,0.321-0.672
			c-0.044-0.254-0.268-0.4-0.499-0.451c-0.255-0.053-0.547-0.064-0.686-0.311c-0.123-0.219-0.108-0.555,0.135-0.699
			c0.254-0.146,0.638-0.234,0.926-0.205c0.349,0.053,0.619,0.273,0.915,0.418c0.345,0.164,0.713,0.201,1.078,0.107
			c0.292-0.076,0.651-0.191,0.946-0.057c0.278,0.129,0.278,0.471,0.12,0.695c-0.162,0.236-0.434,0.195-0.657,0.072
			c-0.299-0.174-0.485-0.143-0.816-0.1c-0.213,0.035-0.697,0.086-0.742,0.359c-0.044,0.25,0.344,0.42,0.465,0.6
			c0.161,0.223,0.086,0.502,0.211,0.732c0.197,0.346,0.738-0.213,0.892-0.354c0.271-0.262,0.921-0.686,0.979-0.02
			c0.027,0.361,0.015,0.568,0.38,0.736c0.27,0.131,0.438,0.443,0.54,0.711c0.167,0.43-0.144,1.102,0.208,1.451
			c0.432,0.428,0.794-0.252,1.083-0.477c0.187-0.143,0.507-0.154,0.667,0.047c0.188,0.254-0.088,0.48-0.273,0.621
			c-0.117,0.086-0.296,0.236-0.203,0.395c0.059,0.117,0.205,0.15,0.328,0.117c0.264-0.074,0.506-0.309,0.755-0.086
			c0.106,0.102,0.269,0.309,0.333,0.355c0.263,0.213,0.584,0.248,0.866,0.084c0.227-0.141,0.329-0.436,0.085-0.615
			c-0.183-0.152-0.443-0.164-0.666-0.24c-0.377-0.129-0.847-0.416-0.651-0.883c0.178-0.43,0.651-0.365,0.979-0.145
			c0.411,0.268,0.568,0.771,0.952,1.064c0.279,0.217,0.654,0.229,0.997,0.156c0.396-0.08,0.537-0.357,0.251-0.68
			c-0.192-0.209-0.395-0.377-0.409-0.688c-0.003-0.254,0.112-0.508,0.28-0.699c0.253-0.281,1.39-0.902,1.462-0.156
			c0.051,0.52-0.636,1.014-0.367,1.531c0.322,0.619,1.201,0.256,1.727,0.432c0.235,0.076,0.54,0.254,0.561,0.527
			c0.026,0.283-0.248,0.502-0.49,0.559c-0.57,0.152-1.154-0.098-1.471,0.539c-0.134,0.256-0.293,0.545-0.629,0.357
			c-0.254-0.139-0.413-0.418-0.705-0.492c-0.311-0.078-0.534,0.164-0.629,0.428c-0.07,0.197-0.167,0.518-0.442,0.473
			c-0.266-0.049-0.426-0.367-0.589-0.547c-0.194-0.219-0.47-0.42-0.784-0.391c-0.737,0.07-0.462,0.879-0.216,1.277
			c0.228,0.377,0.646,1.178-0.062,1.354c-0.758,0.18-0.865-0.949-0.934-1.422c-0.084-0.531-0.387-1.186-1.057-1.027
			c-0.284,0.064-0.542,0.314-0.484,0.623c0.052,0.318,0.343,0.553,0.55,0.787c0.31,0.346,0.624,0.832,0.691,1.305
			c0.075,0.512-0.434,0.787-0.891,0.635c-0.346-0.115-0.351-0.43-0.392-0.732c-0.031-0.199-0.156-0.465-0.398-0.463
			c-0.383,0.012-0.675,0.529-0.923,0.764c-0.28,0.262-0.734,0.225-1.073,0.379c-0.175,0.078-0.317,0.219-0.312,0.428
			c0,0.275,0.206,0.422,0.454,0.506c0.337,0.113,0.572,0.26,0.852,0.479c0.27,0.215,0.452-0.006,0.554-0.256
			c0.114-0.268,0.267-0.443,0.569-0.5c0.342-0.066,0.689-0.053,1.037-0.121c0.372-0.072,0.735-0.201,1.113-0.072
			c0.296,0.109,0.544,0.322,0.849,0.398c0.802,0.215,0.782-0.715,0.962-1.219c0.128-0.375,0.244-0.74,0.355-1.115
			c0.09-0.277,0.243-0.543,0.497-0.695c0.576-0.35,1.143,0.23,1.101,0.805c-0.044,0.492-0.429,0.906-0.397,1.404
			c0.015,0.24,0.198,0.436,0.445,0.459c0.218,0.021,0.397-0.135,0.529-0.293c0.347-0.424,0.521-0.906,1.024-1.197
			c0.493-0.289,1.114-0.297,1.642-0.074c0.441,0.18,0.862,0.68,0.567,1.164c-0.23,0.387-0.803,0.459-1.208,0.422
			c-0.489-0.029-1.087-0.232-1.535,0.053c-0.656,0.428-0.167,1.125,0.253,1.504c0.155,0.139,1.213,0.879,0.671,1.07
			c-0.253,0.088-0.472-0.029-0.632-0.215c-0.191-0.219-0.347-0.322-0.611-0.43c-0.331-0.133-0.308-0.389-0.354-0.691
			c-0.042-0.279-0.234-0.473-0.478-0.59c-0.462-0.225-1.104-0.232-1.58-0.023c-0.303,0.139-0.366,0.467-0.164,0.73
			c0.183,0.242,0.473,0.383,0.726,0.555c0.304,0.199,0.622,0.381,0.991,0.443c0.293,0.063,0.631,0.078,0.856,0.297
			c0.182,0.164,0.311,0.488,0.032,0.643c-0.285,0.156-0.578-0.107-0.762-0.301c-0.208-0.207-0.474-0.391-0.761-0.191
			c-0.202,0.137-0.351,0.457-0.623,0.459c-0.276,0-0.404-0.336-0.516-0.527c-0.149-0.23-0.39-0.342-0.667-0.289
			c-0.51,0.111-0.609,0.713-0.325,1.088c0.432,0.566,1.208,0.348,1.819,0.523c0.173,0.061,1.25,0.322,0.727,0.623
			c-0.26,0.15-0.577,0.07-0.862,0.119c-0.308,0.045-0.492,0.287-0.532,0.576c-0.077,0.457,0.079,1.053,0.415,1.367
			c0.184,0.17,0.446,0.219,0.669,0.096c0.293-0.176,0.19-0.459-0.01-0.662c-0.188-0.189-0.432-0.355-0.451-0.65
			c-0.024-0.33,0.342-0.246,0.531-0.139c0.263,0.15,0.525,0.484,0.86,0.477c0.278-0.012,0.549-0.258,0.594-0.535
			c0.097-0.533-0.79-1.203-0.392-1.697c0.432-0.523,0.814,0.404,1.254,0.354c0.277-0.025,0.32-0.395,0.441-0.584
			c0.166-0.254,0.525-0.266,0.788-0.174c0.581,0.199,0.594,0.83,0.675,1.342c0.09,0.572,0.339,1.209,0.891,1.492
			c0.676,0.332,1.455,0.063,2.085-0.25c0.312-0.123,0.598,0.109,0.625,0.424C38.181,21.457,37.855,21.693,37.525,21.801
			 M35.91,23.385c0,0-0.612,0.508-1.013,0.598c-0.313,0.064-1.032,0.021-1.343-0.16c-0.313-0.176-0.391-0.451-0.291-0.725
			c0.132-0.381,0.533-0.65,0.929-0.736c0.206-0.055,0.423-0.041,0.625,0.037c0.198,0.08,0.335,0.24,0.521,0.334
			c0.392,0.199,0.652-0.172,0.947-0.359c0.138-0.088,0.616-0.178,0.553,0.125C36.749,22.893,36.203,23.166,35.91,23.385
			 M28.503,37.178c-0.068,0.188-0.171,0.361-0.306,0.512c-0.137,0.15-0.306,0.271-0.502,0.361c-0.197,0.09-0.428,0.137-0.687,0.137
			c-0.272,0-0.52-0.055-0.733-0.16c-0.212-0.105-0.39-0.246-0.537-0.424c-0.145-0.182-0.255-0.389-0.326-0.619
			c-0.072-0.232-0.109-0.48-0.109-0.744c0-0.449,0.092-0.85,0.273-1.186c0.183-0.334,0.409-0.623,0.676-0.861
			c0.266-0.234,0.55-0.426,0.848-0.564c0.294-0.143,0.564-0.248,0.802-0.314l0.049-0.012l0.124,0.346L28.03,33.67
			c-0.175,0.078-0.345,0.17-0.504,0.271c-0.162,0.104-0.311,0.229-0.443,0.363c-0.133,0.137-0.249,0.301-0.343,0.48
			c-0.076,0.146-0.135,0.318-0.179,0.504c0.052-0.025,0.112-0.047,0.179-0.068c0.122-0.041,0.258-0.061,0.414-0.061
			c0.239,0,0.452,0.037,0.633,0.109s0.335,0.172,0.457,0.301c0.124,0.125,0.217,0.281,0.276,0.455
			c0.059,0.174,0.089,0.365,0.089,0.574C28.608,36.797,28.572,36.994,28.503,37.178 M24.701,37.307
			c-0.08,0.17-0.198,0.324-0.348,0.455c-0.148,0.131-0.327,0.232-0.535,0.307c-0.206,0.078-0.436,0.119-0.691,0.119
			c-0.225,0-0.434-0.031-0.626-0.084c-0.19-0.053-0.358-0.135-0.5-0.24c-0.141-0.104-0.254-0.236-0.333-0.379
			c-0.08-0.15-0.122-0.316-0.122-0.5c0-0.156,0.026-0.295,0.076-0.416c0.046-0.125,0.112-0.234,0.196-0.334
			c0.085-0.098,0.183-0.184,0.304-0.262c0.088-0.066,0.186-0.123,0.287-0.18c-0.226-0.148-0.4-0.313-0.519-0.486
			c-0.131-0.193-0.198-0.428-0.198-0.701c0-0.18,0.043-0.35,0.131-0.506c0.085-0.158,0.202-0.293,0.34-0.412
			c0.14-0.115,0.306-0.207,0.483-0.273c0.353-0.129,0.718-0.121,1.058-0.045c0.168,0.041,0.317,0.102,0.449,0.186
			s0.241,0.195,0.32,0.328c0.082,0.135,0.124,0.299,0.124,0.486c0,0.162-0.037,0.307-0.108,0.43
			c-0.07,0.123-0.154,0.225-0.249,0.313c-0.094,0.086-0.193,0.16-0.294,0.217c-0.055,0.029-0.104,0.053-0.143,0.072
			c0.122,0.066,0.244,0.141,0.36,0.217c0.126,0.08,0.24,0.176,0.339,0.285c0.099,0.107,0.177,0.232,0.234,0.371
			c0.059,0.141,0.089,0.301,0.089,0.484C24.826,36.951,24.783,37.135,24.701,37.307 M20.986,37.307
			c-0.084,0.17-0.2,0.324-0.349,0.455c-0.15,0.131-0.328,0.232-0.537,0.307c-0.206,0.078-0.437,0.119-0.69,0.119
			c-0.226,0-0.436-0.031-0.625-0.084c-0.192-0.053-0.359-0.135-0.502-0.24c-0.143-0.104-0.253-0.236-0.332-0.379
			c-0.079-0.15-0.12-0.316-0.12-0.5c0-0.152,0.023-0.293,0.071-0.416c0.049-0.127,0.116-0.236,0.201-0.334
			c0.081-0.098,0.18-0.184,0.3-0.262c0.089-0.066,0.188-0.123,0.29-0.18c-0.228-0.148-0.401-0.313-0.519-0.486
			c-0.134-0.193-0.2-0.428-0.2-0.701c0-0.18,0.045-0.35,0.133-0.506c0.084-0.158,0.199-0.293,0.339-0.412
			c0.142-0.115,0.302-0.207,0.484-0.273c0.353-0.129,0.721-0.121,1.058-0.045c0.167,0.041,0.319,0.102,0.449,0.186
			c0.131,0.084,0.24,0.193,0.322,0.328c0.079,0.135,0.12,0.299,0.12,0.486c0,0.162-0.035,0.307-0.106,0.43
			c-0.069,0.121-0.152,0.225-0.25,0.313c-0.096,0.088-0.192,0.16-0.293,0.217c-0.047,0.023-0.097,0.051-0.143,0.072
			c0.122,0.066,0.242,0.141,0.359,0.217c0.126,0.082,0.242,0.176,0.339,0.285c0.101,0.107,0.177,0.232,0.235,0.371
			c0.058,0.141,0.088,0.301,0.088,0.484C21.109,36.951,21.065,37.135,20.986,37.307 M17.345,38.066h-2.624v-0.428l0.549-0.033
			c0.104-0.006,0.175-0.031,0.212-0.068c0.023-0.025,0.052-0.092,0.052-0.25v-2.508c0-0.131-0.038-0.221-0.112-0.273
			c-0.084-0.057-0.211-0.096-0.374-0.105l-0.332-0.025v-0.369l0.043-0.008c0.088-0.014,0.188-0.039,0.303-0.068
			c0.117-0.031,0.24-0.072,0.362-0.125c0.124-0.053,0.244-0.115,0.354-0.182c0.111-0.066,0.206-0.143,0.281-0.227l0.019-0.02h0.46
			v3.91c0,0.158,0.027,0.225,0.052,0.25c0.036,0.037,0.107,0.063,0.21,0.068l0.543,0.033V38.066z M6.158,19.936
			c0.082-0.182,0.333-0.201,0.501-0.145c0.31,0.105,0.626,0.203,0.934,0.32c0.193,0.074,0.438,0.057,0.583,0.23
			c0.15,0.18,0.091,0.441-0.019,0.631c-0.238,0.412-0.772,0.27-1.104,0.061c-0.23-0.135-0.425-0.338-0.625-0.525
			C6.271,20.369,6.052,20.168,6.158,19.936 M6.612,17.838c0.205-0.201,0.386-0.424,0.567-0.646c0.131-0.174,0.325-0.459,0.595-0.371
			c0.212,0.076,0.258,0.35,0.235,0.545c-0.026,0.27-0.23,0.473-0.35,0.709c-0.074,0.158,0.103,0.4-0.099,0.52
			c-0.274,0.146-0.599,0.037-0.896,0.049c-0.152,0.01-0.397-0.012-0.428-0.199C6.198,18.195,6.459,17.994,6.612,17.838
			 M14.319,5.002c0.327-0.377,0.896-0.285,1.307-0.098c0.528,0.25,0.929,0.693,1.37,1.07c0.472,0.408,0.976,0.787,1.369,1.289
			c0.193,0.094,0.223,0.373,0.097,0.535c-0.158,0.209-0.435,0.025-0.609-0.061c-0.537-0.279-1.173-0.01-1.72-0.26
			c-0.204-0.1-0.413-0.377-0.202-0.568c0.144-0.129,0.19-0.377-0.03-0.439c-0.503-0.158-1.112,0.156-1.535-0.26
			C14.057,5.896,14.031,5.34,14.319,5.002 M24.299,4.563c0.158-0.781,1.304-0.867,1.864-0.492c0.391,0.25,0.296,0.76,0.271,1.15
			c-0.022,0.486,0.303,0.877,0.51,1.289c0.074,0.365-0.024,0.848-0.413,1.004c-0.39,0.154-0.64-0.166-0.795-0.477
			C25.5,6.59,25.261,6.176,24.943,5.779C24.665,5.441,24.199,5.059,24.299,4.563 M27.613,5.279c0.132-0.203,0.404-0.191,0.619-0.191
			c0.577,0.004,1.142,0.246,1.522,0.674c0.167,0.193,0.411,0.469,0.27,0.746c-0.11,0.213-0.391,0.209-0.602,0.182
			c-0.595-0.047-1.135-0.354-1.569-0.76C27.685,5.768,27.447,5.52,27.613,5.279 M34.97,17.855c0.132-0.17,0.378-0.158,0.574-0.143
			c0.444,0.035,0.898,0.242,1.144,0.629c0.209,0.332-0.236,0.715-0.569,0.627c-0.201-0.068-0.268-0.275-0.418-0.402
			c-0.167-0.143-0.411-0.123-0.592-0.242C34.961,18.225,34.853,18.012,34.97,17.855 M37.577,19.023
			c0.179,0.17,0.322,0.518,0.068,0.682c-0.222,0.146-0.561,0.008-0.691-0.203C36.745,19.158,37.294,18.674,37.577,19.023 M21.26,0
			C9.518,0,0,9.516,0,21.258c0,11.736,9.518,21.26,21.26,21.26c11.743,0,21.26-9.523,21.26-21.26C42.52,9.516,33.003,0,21.26,0"/>
		<path fill="#026937" d="M26.897,35.656c-0.082,0-0.156,0.014-0.227,0.043c-0.065,0.023-0.119,0.051-0.17,0.09
			c-0.017,0.09-0.03,0.188-0.035,0.283c-0.011,0.107-0.015,0.209-0.015,0.318c0,0.189,0.009,0.375,0.026,0.541
			c0.017,0.164,0.048,0.313,0.091,0.438c0.04,0.125,0.099,0.221,0.171,0.287c0.068,0.066,0.16,0.1,0.269,0.1
			c0.162,0,0.283-0.074,0.363-0.225c0.087-0.164,0.132-0.422,0.132-0.77c0-0.334-0.048-0.609-0.14-0.816
			C27.276,35.75,27.124,35.656,26.897,35.656"/>
		<path fill="#026937" d="M22.74,34.75c0.056,0.055,0.121,0.107,0.201,0.156c0.075,0.053,0.157,0.1,0.256,0.152l0.215,0.119
			c0.082-0.074,0.154-0.166,0.217-0.287c0.066-0.127,0.103-0.293,0.103-0.479c0-0.23-0.05-0.398-0.154-0.5
			c-0.103-0.098-0.236-0.146-0.395-0.146c-0.181,0-0.331,0.047-0.446,0.139c-0.118,0.096-0.173,0.229-0.173,0.404
			c0,0.1,0.015,0.18,0.046,0.25C22.642,34.627,22.685,34.691,22.74,34.75"/>
		<path fill="#026937" d="M19.98,36.535c-0.073-0.061-0.152-0.117-0.242-0.168c-0.095-0.051-0.193-0.104-0.294-0.16l-0.361-0.186
			c-0.138,0.102-0.236,0.225-0.299,0.375c-0.07,0.162-0.104,0.338-0.104,0.535c0,0.26,0.07,0.451,0.217,0.586
			c0.145,0.135,0.328,0.203,0.547,0.203c0.216,0,0.401-0.057,0.549-0.166c0.143-0.109,0.216-0.287,0.216-0.531
			c0-0.102-0.021-0.195-0.062-0.277C20.104,36.668,20.047,36.596,19.98,36.535"/>
		<path fill="#026937" d="M23.696,36.535c-0.07-0.061-0.152-0.117-0.241-0.168c-0.094-0.051-0.192-0.104-0.292-0.16L22.8,36.021
			c-0.137,0.102-0.239,0.227-0.302,0.375c-0.066,0.162-0.101,0.338-0.101,0.535c0,0.26,0.071,0.451,0.215,0.586
			c0.146,0.135,0.329,0.203,0.548,0.203c0.219,0,0.401-0.057,0.548-0.166c0.145-0.109,0.217-0.287,0.217-0.531
			c0-0.102-0.022-0.195-0.064-0.277C23.821,36.668,23.765,36.596,23.696,36.535"/>
		<path fill="#026937" d="M19.023,34.75c0.058,0.057,0.123,0.109,0.202,0.156c0.074,0.053,0.157,0.1,0.253,0.152l0.215,0.119
			c0.083-0.074,0.156-0.166,0.219-0.287c0.068-0.129,0.104-0.293,0.104-0.479c0-0.23-0.052-0.398-0.154-0.5
			c-0.106-0.1-0.236-0.146-0.396-0.146c-0.178,0-0.33,0.047-0.449,0.139c-0.113,0.096-0.17,0.229-0.17,0.404
			c0,0.098,0.014,0.178,0.046,0.25C18.924,34.627,18.97,34.693,19.023,34.75"/>
	</g>
</g>
</svg>
