<?xml version="1.0" encoding="UTF-8" standalone="no"?><!DOCTYPE svg PUBLIC "-//W3C//DTD SVG 1.1//EN" "http://www.w3.org/Graphics/SVG/1.1/DTD/svg11.dtd"><svg width="100%" height="100%" viewBox="0 0 112 114" version="1.1" xmlns="http://www.w3.org/2000/svg" xmlns:xlink="http://www.w3.org/1999/xlink" xml:space="preserve" style="fill-rule:evenodd;clip-rule:evenodd;stroke-linejoin:round;stroke-miterlimit:1.41421;"><g><g id="LOGO"><path d="M55.999,3.068c-29.807,0 -53.971,24.164 -53.971,53.972c0,29.807 24.164,53.972 53.971,53.972c29.807,0 53.973,-24.165 53.973,-53.972c0,-29.808 -24.166,-53.972 -53.973,-53.972" style="fill:#007a48;"/><path d="M55.999,6.898c-27.692,0 -50.14,22.449 -50.14,50.142c0,27.692 22.448,50.141 50.14,50.141c27.692,0 50.142,-22.449 50.142,-50.141c0,-27.693 -22.45,-50.142 -50.142,-50.142" style="fill:#fff;"/><g><path d="M16.764,68.391l-6.57,3.389l-0.453,-1.727l3.508,-1.564c0.156,-0.07 0.363,-0.157 0.621,-0.262c0.259,-0.105 0.539,-0.215 0.841,-0.33l-0.089,0.009c-0.75,0.11 -1.238,0.176 -1.464,0.2l-3.837,0.348l-0.451,-1.722l7.395,-0.245l0.499,1.904Z" style="fill:#3b3892;fill-rule:nonzero;"/><path d="M15.81,64.503l-7.15,0.967l-0.525,-3.891l1.388,-0.188l0.301,2.229l1.314,-0.178l-0.278,-2.057l1.435,-0.193l0.278,2.056l1.56,-0.21l-0.302,-2.229l1.454,-0.196l0.525,3.89Z" style="fill:#3b3892;fill-rule:nonzero;"/><path d="M15.213,59.865l-7.214,0.1l-0.025,-1.756l4.431,-1.463c-0.749,0.067 -1.394,0.117 -1.938,0.151c-0.543,0.034 -1.001,0.054 -1.376,0.059l-1.134,0.016l-0.021,-1.504l7.215,-0.1l0.024,1.762l-4.567,1.473c0.596,-0.071 1.174,-0.126 1.734,-0.167c0.56,-0.04 1.104,-0.064 1.632,-0.072l1.218,-0.016l0.021,1.517Z" style="fill:#3b3892;fill-rule:nonzero;"/><path d="M15.19,54.466l-7.164,-0.859l0.201,-1.675l2.972,0.356l-2.822,-1.607l0.205,-1.712l2.949,1.93l4.22,-1.108l-0.211,1.758l-2.697,0.569l0.64,0.444l1.908,0.229l-0.201,1.675Z" style="fill:#3b3892;fill-rule:nonzero;"/><path d="M13.587,47.292l0.227,-0.943l-3.173,-0.268l2.946,1.211Zm2.122,2.655l-6.646,-3.219l0.47,-1.95l7.378,0.177l-0.395,1.64l-1.393,-0.119l-0.31,1.289l1.294,0.529l-0.398,1.653Z" style="fill:#3b3892;fill-rule:nonzero;"/><path d="M17.262,44.097l-5.473,-1.961l-0.455,1.27l-1.319,-0.472l1.504,-4.199l1.319,0.472l-0.479,1.337l5.474,1.961l-0.571,1.592Z" style="fill:#3b3892;fill-rule:nonzero;"/><path d="M19.485,38.749l-6.38,-3.369l0.788,-1.492l6.38,3.37l-0.788,1.491Z" style="fill:#3b3892;fill-rule:nonzero;"/><path d="M20.664,36.463l-6.022,-3.973l0.968,-1.467l4.486,1.282c-0.657,-0.366 -1.219,-0.687 -1.687,-0.964c-0.469,-0.278 -0.859,-0.519 -1.172,-0.726l-0.946,-0.624l0.828,-1.255l6.022,3.973l-0.97,1.471l-4.605,-1.35c0.532,0.277 1.041,0.556 1.527,0.837c0.486,0.282 0.95,0.568 1.39,0.858l1.017,0.671l-0.836,1.267Z" style="fill:#3b3892;fill-rule:nonzero;"/><path d="M24.274,31.334l-4.435,-3.759l-0.872,1.029l-1.069,-0.905l2.884,-3.403l1.068,0.906l-0.918,1.083l4.436,3.759l-1.094,1.29Z" style="fill:#3b3892;fill-rule:nonzero;"/><path d="M26.574,28.679l-4.949,-5.25l2.856,-2.693l0.961,1.019l-1.636,1.543l0.909,0.964l1.511,-1.423l0.993,1.053l-1.511,1.424l1.08,1.145l1.637,-1.543l1.006,1.067l-2.857,2.694Z" style="fill:#3b3892;fill-rule:nonzero;"/><path d="M28.861,21.091c0.022,-0.016 0.053,-0.037 0.091,-0.061c0.039,-0.024 0.067,-0.042 0.084,-0.055c0.283,-0.206 0.442,-0.409 0.476,-0.608c0.035,-0.199 -0.047,-0.434 -0.243,-0.704c-0.183,-0.25 -0.371,-0.384 -0.564,-0.403c-0.194,-0.02 -0.432,0.074 -0.715,0.28c-0.018,0.013 -0.044,0.034 -0.078,0.063c-0.035,0.029 -0.064,0.052 -0.087,0.069l1.036,1.419Zm1.134,4.386l-4.252,-5.829l1.533,-1.118c0.503,-0.367 0.884,-0.609 1.145,-0.728c0.262,-0.119 0.504,-0.173 0.728,-0.163c0.266,0.015 0.513,0.092 0.74,0.232c0.228,0.139 0.442,0.347 0.642,0.622c0.245,0.335 0.392,0.659 0.44,0.972c0.048,0.313 0.002,0.633 -0.138,0.959c0.557,-0.12 1.102,0.161 1.635,0.843c0.007,0.01 0.012,0.016 0.014,0.019c0.056,0.071 0.135,0.175 0.239,0.312c0.489,0.649 0.897,0.981 1.226,0.997l-1.594,1.162c-0.124,-0.095 -0.242,-0.203 -0.355,-0.324c-0.113,-0.12 -0.225,-0.256 -0.335,-0.408c-0.068,-0.093 -0.148,-0.208 -0.24,-0.344c-0.091,-0.136 -0.152,-0.224 -0.181,-0.265c-0.26,-0.355 -0.484,-0.565 -0.673,-0.628c-0.189,-0.063 -0.405,-0.006 -0.647,0.17l-0.28,0.205l1.7,2.331l-1.347,0.983Z" style="fill:#3b3892;fill-rule:nonzero;"/><path d="M34.33,22.365l-3.487,-6.316l1.538,-0.85l3.378,3.22c-0.412,-0.629 -0.761,-1.175 -1.047,-1.638c-0.285,-0.463 -0.519,-0.859 -0.7,-1.187l-0.548,-0.992l1.316,-0.727l3.488,6.316l-1.543,0.851l-3.451,-3.333c0.343,0.492 0.664,0.975 0.964,1.45c0.3,0.475 0.577,0.944 0.832,1.406l0.589,1.066l-1.329,0.734Z" style="fill:#3b3892;fill-rule:nonzero;"/><path d="M39.568,16.741l0.902,-0.356l-1.606,-2.751l0.704,3.107Zm-0.952,3.263l-1.188,-7.288l1.865,-0.737l4.098,6.138l-1.569,0.62l-0.704,-1.208l-1.233,0.487l0.312,1.363l-1.581,0.625Z" style="fill:#3b3892;fill-rule:nonzero;"/><path d="M44.279,17.915l-1.545,-5.605l-1.3,0.359l-0.373,-1.351l4.3,-1.185l0.372,1.351l-1.368,0.377l1.545,5.605l-1.631,0.449Z" style="fill:#3b3892;fill-rule:nonzero;"/><path d="M47.679,17.057l-1.316,-7.093l1.658,-0.308l1.316,7.094l-1.658,0.307Z" style="fill:#3b3892;fill-rule:nonzero;"/><path d="M52.91,13.363l-0.111,-1.297c-0.068,-0.797 -0.161,-1.285 -0.278,-1.465c-0.117,-0.179 -0.308,-0.258 -0.573,-0.235c-0.258,0.022 -0.429,0.134 -0.512,0.335c-0.083,0.202 -0.091,0.696 -0.023,1.483l0.111,1.298c0.067,0.778 0.158,1.262 0.275,1.451c0.116,0.189 0.307,0.272 0.571,0.249c0.262,-0.022 0.434,-0.134 0.517,-0.336c0.083,-0.201 0.091,-0.695 0.023,-1.483Zm-3.155,-0.383c-0.074,-0.865 -0.097,-1.5 -0.069,-1.903c0.028,-0.404 0.104,-0.724 0.228,-0.96c0.179,-0.335 0.428,-0.594 0.747,-0.777c0.32,-0.182 0.714,-0.294 1.18,-0.333c0.47,-0.041 0.876,0.002 1.217,0.128c0.342,0.126 0.629,0.339 0.862,0.639c0.168,0.214 0.301,0.518 0.397,0.911c0.097,0.393 0.182,1.02 0.256,1.882c0.073,0.859 0.096,1.491 0.068,1.896c-0.028,0.406 -0.107,0.728 -0.237,0.968c-0.175,0.332 -0.422,0.59 -0.74,0.774c-0.318,0.184 -0.711,0.296 -1.178,0.336c-0.466,0.04 -0.873,-0.004 -1.219,-0.131c-0.346,-0.127 -0.636,-0.339 -0.868,-0.636c-0.162,-0.212 -0.292,-0.514 -0.388,-0.907c-0.096,-0.393 -0.182,-1.022 -0.256,-1.887Z" style="fill:#3b3892;fill-rule:nonzero;"/><path d="M55.626,16.158l0.326,-7.207l1.755,0.079l1.199,4.509c-0.023,-0.751 -0.035,-1.399 -0.037,-1.943c-0.002,-0.544 0.005,-1.003 0.022,-1.378l0.051,-1.132l1.503,0.067l-0.326,7.208l-1.759,-0.079l-1.202,-4.646c0.035,0.599 0.057,1.179 0.064,1.741c0.008,0.561 0,1.106 -0.024,1.633l-0.055,1.217l-1.517,-0.069Z" style="fill:#3b3892;fill-rule:nonzero;"/><path d="M63.022,14.094l0.956,0.166l0.063,-3.184l-1.019,3.018Zm-2.513,2.288l2.786,-6.839l1.976,0.344l0.297,7.374l-1.662,-0.288l0.029,-1.398l-1.306,-0.227l-0.445,1.325l-1.675,-0.291Z" style="fill:#3b3892;fill-rule:nonzero;"/><path d="M69.484,18.452l-3.56,-1.064l2.066,-6.913l1.616,0.483l-1.648,5.517l1.943,0.581l-0.417,1.396Z" style="fill:#3b3892;fill-rule:nonzero;"/><path d="M75.399,16.497c0.021,0.014 0.046,0.03 0.074,0.047c0.028,0.018 0.068,0.04 0.121,0.066c0.303,0.15 0.556,0.187 0.76,0.112c0.205,-0.074 0.385,-0.268 0.54,-0.582c0.129,-0.26 0.15,-0.483 0.065,-0.669c-0.086,-0.185 -0.296,-0.36 -0.629,-0.525l-0.13,-0.065l-0.801,1.616Zm-3.344,2.929l3.204,-6.465l1.486,0.737c0.548,0.271 0.942,0.496 1.18,0.673c0.238,0.177 0.419,0.366 0.542,0.567c0.166,0.263 0.24,0.569 0.223,0.918c-0.018,0.349 -0.125,0.722 -0.322,1.119c-0.325,0.655 -0.744,1.067 -1.258,1.235c-0.514,0.169 -1.106,0.088 -1.775,-0.244l-0.533,-0.264l-1.227,2.477l-1.52,-0.753Z" style="fill:#3b3892;fill-rule:nonzero;"/><path d="M80.669,15.751l1.42,0.944l-2.503,3.765c-0.378,0.569 -0.577,0.946 -0.595,1.128c-0.018,0.183 0.063,0.335 0.245,0.456c0.185,0.123 0.359,0.137 0.523,0.044c0.164,-0.094 0.431,-0.421 0.803,-0.98l2.503,-3.765l1.393,0.926l-2.55,3.835c-0.289,0.435 -0.523,0.747 -0.704,0.936c-0.18,0.19 -0.366,0.335 -0.557,0.437c-0.323,0.175 -0.662,0.236 -1.016,0.183c-0.354,-0.054 -0.749,-0.225 -1.183,-0.514c-0.401,-0.266 -0.688,-0.543 -0.861,-0.829c-0.174,-0.286 -0.249,-0.608 -0.224,-0.967c0.016,-0.255 0.099,-0.542 0.248,-0.859c0.149,-0.317 0.452,-0.819 0.908,-1.506l2.15,-3.234Z" style="fill:#3b3892;fill-rule:nonzero;"/><path d="M85.337,22.626l0.082,0.071c0.248,0.218 0.478,0.327 0.688,0.326c0.21,0 0.411,-0.11 0.603,-0.328c0.167,-0.19 0.236,-0.388 0.208,-0.593c-0.028,-0.205 -0.151,-0.403 -0.369,-0.595c-0.035,-0.031 -0.063,-0.054 -0.083,-0.069c-0.02,-0.016 -0.036,-0.027 -0.05,-0.035l-1.079,1.223Zm-2.057,2.346l0.11,0.096c0.265,0.232 0.519,0.345 0.762,0.338c0.243,-0.007 0.473,-0.134 0.689,-0.381c0.202,-0.23 0.284,-0.456 0.246,-0.678c-0.038,-0.222 -0.199,-0.458 -0.483,-0.707l-0.088,-0.077l-1.236,1.409Zm-2.108,-0.154l4.757,-5.425l1.363,1.195c0.413,0.363 0.695,0.639 0.846,0.83c0.151,0.19 0.258,0.382 0.322,0.574c0.092,0.289 0.103,0.573 0.034,0.853c-0.069,0.28 -0.219,0.552 -0.449,0.815c-0.206,0.235 -0.436,0.403 -0.689,0.505c-0.254,0.102 -0.559,0.15 -0.915,0.145c0.135,0.334 0.171,0.66 0.109,0.977c-0.062,0.317 -0.222,0.622 -0.48,0.916c-0.212,0.242 -0.454,0.435 -0.725,0.579c-0.272,0.144 -0.549,0.227 -0.83,0.25c-0.271,0.025 -0.536,-0.023 -0.797,-0.143c-0.26,-0.12 -0.606,-0.37 -1.038,-0.749l-1.508,-1.322Z" style="fill:#3b3892;fill-rule:nonzero;"/><path d="M87.584,31.108l-2.486,-2.76l5.36,-4.829l1.129,1.253l-4.278,3.854l1.358,1.507l-1.083,0.975Z" style="fill:#3b3892;fill-rule:nonzero;"/><path d="M87.846,31.483l5.716,-4.402l1.029,1.336l-5.716,4.402l-1.029,-1.336Z" style="fill:#3b3892;fill-rule:nonzero;"/><path d="M93.377,34.54l0.88,1.406c-0.036,0.026 -0.074,0.053 -0.116,0.081c-0.041,0.027 -0.104,0.068 -0.189,0.121c-0.747,0.467 -1.403,0.65 -1.969,0.55c-0.566,-0.101 -1.06,-0.489 -1.483,-1.164c-0.248,-0.398 -0.395,-0.779 -0.44,-1.145c-0.045,-0.366 0.012,-0.721 0.17,-1.063c0.114,-0.241 0.324,-0.494 0.63,-0.759c0.306,-0.265 0.827,-0.628 1.563,-1.088c0.736,-0.461 1.29,-0.771 1.662,-0.93c0.372,-0.159 0.691,-0.237 0.958,-0.235c0.373,0.006 0.714,0.108 1.023,0.305c0.309,0.197 0.586,0.49 0.829,0.879c0.42,0.67 0.548,1.289 0.386,1.857c-0.163,0.567 -0.615,1.083 -1.356,1.547l-0.06,0.038l-0.866,-1.393c0.413,-0.265 0.675,-0.496 0.787,-0.691c0.111,-0.195 0.101,-0.399 -0.031,-0.611c-0.145,-0.23 -0.346,-0.323 -0.604,-0.28c-0.258,0.044 -0.827,0.341 -1.706,0.891l-0.115,0.072c-0.945,0.592 -1.498,0.997 -1.658,1.215c-0.16,0.218 -0.168,0.442 -0.024,0.672c0.134,0.215 0.306,0.317 0.514,0.306c0.209,-0.011 0.524,-0.148 0.945,-0.412l0.27,-0.169Z" style="fill:#3b3892;fill-rule:nonzero;"/><path d="M95.451,39.116l0.569,1.437l-0.196,0.078c-0.369,0.146 -0.611,0.292 -0.728,0.439c-0.117,0.147 -0.134,0.323 -0.052,0.53c0.065,0.165 0.174,0.273 0.327,0.324c0.152,0.05 0.327,0.036 0.525,-0.042c0.325,-0.129 0.545,-0.486 0.659,-1.072c0.023,-0.096 0.039,-0.17 0.049,-0.221c0.003,-0.018 0.009,-0.049 0.018,-0.093c0.175,-0.798 0.339,-1.316 0.493,-1.555c0.119,-0.175 0.269,-0.331 0.449,-0.47c0.181,-0.138 0.391,-0.255 0.632,-0.351c0.587,-0.232 1.115,-0.244 1.583,-0.037c0.469,0.208 0.821,0.61 1.056,1.205c0.256,0.648 0.288,1.207 0.095,1.678c-0.193,0.471 -0.601,0.83 -1.222,1.076c-0.026,0.01 -0.063,0.023 -0.111,0.038c-0.048,0.016 -0.084,0.029 -0.111,0.039l-0.556,-1.407l0.082,-0.033c0.294,-0.116 0.498,-0.249 0.613,-0.401c0.115,-0.151 0.138,-0.314 0.069,-0.488c-0.059,-0.148 -0.159,-0.246 -0.301,-0.294c-0.141,-0.048 -0.299,-0.038 -0.474,0.031c-0.284,0.113 -0.485,0.488 -0.602,1.125c-0.025,0.117 -0.043,0.207 -0.055,0.269c-0.008,0.05 -0.021,0.121 -0.042,0.213c-0.131,0.687 -0.286,1.154 -0.463,1.402c-0.116,0.157 -0.262,0.3 -0.438,0.428c-0.176,0.128 -0.378,0.238 -0.608,0.329c-0.671,0.265 -1.257,0.296 -1.758,0.091c-0.501,-0.205 -0.879,-0.631 -1.135,-1.279c-0.269,-0.68 -0.298,-1.259 -0.086,-1.737c0.212,-0.479 0.661,-0.854 1.347,-1.125c0.043,-0.017 0.089,-0.035 0.138,-0.052c0.048,-0.018 0.126,-0.043 0.234,-0.075Z" style="fill:#3b3892;fill-rule:nonzero;"/><path d="M98.416,46.82l0.414,1.606c-0.042,0.014 -0.086,0.028 -0.134,0.042c-0.048,0.014 -0.121,0.033 -0.218,0.058c-0.853,0.22 -1.534,0.196 -2.043,-0.071c-0.509,-0.267 -0.863,-0.786 -1.061,-1.557c-0.117,-0.454 -0.142,-0.862 -0.074,-1.225c0.068,-0.362 0.229,-0.683 0.483,-0.961c0.182,-0.196 0.458,-0.373 0.83,-0.534c0.371,-0.16 0.978,-0.348 1.818,-0.565c0.841,-0.217 1.463,-0.345 1.866,-0.384c0.403,-0.039 0.731,-0.017 0.984,0.066c0.353,0.118 0.648,0.318 0.883,0.6c0.235,0.281 0.41,0.644 0.525,1.088c0.197,0.766 0.133,1.394 -0.194,1.886c-0.326,0.492 -0.913,0.848 -1.76,1.066l-0.068,0.017l-0.404,-1.589c0.473,-0.128 0.792,-0.268 0.958,-0.421c0.165,-0.152 0.217,-0.349 0.155,-0.591c-0.068,-0.263 -0.232,-0.413 -0.491,-0.45c-0.259,-0.036 -0.891,0.075 -1.895,0.334l-0.132,0.034c-1.08,0.278 -1.729,0.497 -1.947,0.657c-0.219,0.159 -0.294,0.371 -0.226,0.634c0.063,0.245 0.195,0.393 0.398,0.446c0.202,0.053 0.544,0.017 1.025,-0.107l0.308,-0.079Z" style="fill:#3b3892;fill-rule:nonzero;"/><path d="M96.273,49.927l7.166,-0.836l0.196,1.675l-2.708,0.316l0.157,1.345l2.708,-0.316l0.191,1.638l-7.166,0.836l-0.191,-1.638l2.973,-0.347l-0.157,-1.345l-2.973,0.347l-0.196,-1.675Z" style="fill:#3b3892;fill-rule:nonzero;"/><path d="M99.76,58.492l1.303,0.022c0.799,0.014 1.294,-0.029 1.485,-0.127c0.19,-0.098 0.288,-0.28 0.293,-0.545c0.004,-0.26 -0.09,-0.441 -0.282,-0.544c-0.192,-0.103 -0.683,-0.162 -1.473,-0.175l-1.302,-0.022c-0.781,-0.014 -1.271,0.028 -1.471,0.125c-0.2,0.096 -0.302,0.277 -0.307,0.543c-0.004,0.262 0.089,0.445 0.281,0.548c0.192,0.103 0.683,0.162 1.473,0.175Zm0.704,-3.099c0.869,0.014 1.502,0.056 1.901,0.126c0.398,0.069 0.709,0.177 0.931,0.325c0.315,0.211 0.547,0.486 0.696,0.822c0.149,0.337 0.219,0.74 0.212,1.208c-0.009,0.472 -0.093,0.871 -0.253,1.198c-0.16,0.327 -0.401,0.59 -0.723,0.791c-0.231,0.146 -0.546,0.247 -0.947,0.303c-0.401,0.055 -1.034,0.076 -1.899,0.061c-0.862,-0.015 -1.493,-0.057 -1.893,-0.126c-0.4,-0.069 -0.713,-0.181 -0.939,-0.335c-0.312,-0.208 -0.543,-0.48 -0.693,-0.815c-0.151,-0.335 -0.222,-0.737 -0.214,-1.206c0.008,-0.468 0.093,-0.868 0.255,-1.199c0.161,-0.332 0.402,-0.598 0.721,-0.799c0.227,-0.14 0.541,-0.237 0.942,-0.293c0.401,-0.056 1.035,-0.076 1.903,-0.061Z" style="fill:#3b3892;fill-rule:nonzero;"/><path d="M99.187,64.287l1.288,0.194c0.79,0.119 1.287,0.142 1.489,0.07c0.202,-0.073 0.322,-0.24 0.362,-0.503c0.038,-0.256 -0.031,-0.448 -0.207,-0.576c-0.177,-0.127 -0.656,-0.25 -1.437,-0.367l-1.288,-0.194c-0.773,-0.116 -1.264,-0.14 -1.475,-0.07c-0.211,0.069 -0.336,0.235 -0.376,0.498c-0.039,0.259 0.03,0.453 0.207,0.58c0.176,0.128 0.655,0.25 1.437,0.368Zm1.106,-2.98c0.859,0.13 1.481,0.255 1.867,0.376c0.386,0.121 0.68,0.27 0.881,0.445c0.284,0.251 0.478,0.554 0.581,0.907c0.103,0.354 0.12,0.762 0.051,1.225c-0.071,0.467 -0.207,0.851 -0.409,1.154c-0.201,0.303 -0.475,0.533 -0.821,0.689c-0.248,0.115 -0.574,0.173 -0.978,0.175c-0.405,0.003 -1.035,-0.061 -1.891,-0.189c-0.852,-0.129 -1.472,-0.253 -1.86,-0.375c-0.387,-0.121 -0.683,-0.273 -0.886,-0.455c-0.282,-0.248 -0.475,-0.548 -0.58,-0.9c-0.105,-0.352 -0.123,-0.76 -0.053,-1.223c0.07,-0.463 0.206,-0.849 0.411,-1.156c0.204,-0.307 0.477,-0.539 0.82,-0.696c0.243,-0.109 0.568,-0.164 0.972,-0.167c0.405,-0.002 1.037,0.061 1.895,0.19Z" style="fill:#3b3892;fill-rule:nonzero;"/><path d="M94.816,69.853l1.001,-3.578l6.948,1.944l-0.454,1.624l-5.545,-1.551l-0.547,1.954l-1.403,-0.393Z" style="fill:#3b3892;fill-rule:nonzero;"/></g><g><path d="M18.377,82.761c0.481,0.345 1.122,0.438 1.709,0.047c0.371,-0.247 0.605,-0.584 0.656,-0.963c0.066,-0.459 -0.105,-0.95 -0.504,-1.549c-0.275,-0.414 -0.588,-0.793 -0.837,-1.051l-4.524,3.009l0.458,0.689l1.942,-1.291l0.279,0.419c0.323,0.485 0.236,0.863 -0.291,1.395c-0.488,0.488 -0.817,0.863 -0.905,1.017l0.478,0.719c0.114,-0.206 0.511,-0.634 1.019,-1.171c0.414,-0.43 0.61,-0.837 0.508,-1.262l0.012,-0.008Zm-0.579,-1.456l1.576,-1.048c0.08,0.068 0.21,0.224 0.365,0.457c0.331,0.498 0.406,1.053 -0.187,1.447c-0.492,0.327 -1.06,0.187 -1.443,-0.389l-0.311,-0.467Z" style="fill:#31994f;fill-rule:nonzero;"/><path d="M23.01,84.155l-0.639,-0.797l-5.349,2.128l0.536,0.669l1.56,-0.642l1.053,1.314l-0.953,1.4l0.549,0.685l3.243,-4.757Zm-3.311,1.058l1.404,-0.562c0.322,-0.138 0.69,-0.323 1.004,-0.472l0.009,0.011c-0.215,0.273 -0.459,0.589 -0.677,0.893l-0.853,1.237l-0.887,-1.107Z" style="fill:#31994f;fill-rule:nonzero;"/><path d="M25.58,87.023l-0.569,-0.611l-2.676,2.49c-0.716,0.667 -1.126,0.586 -1.503,0.181c-0.152,-0.164 -0.253,-0.325 -0.309,-0.46l-0.575,0.397c0.07,0.171 0.24,0.416 0.411,0.601c0.657,0.706 1.46,0.902 2.524,-0.088l2.697,-2.51Z" style="fill:#31994f;fill-rule:nonzero;"/><path d="M27.716,89.041l-0.757,-0.687l-4.947,2.946l0.635,0.575l1.439,-0.88l1.247,1.132l-0.72,1.533l0.65,0.589l2.453,-5.208Zm-3.103,1.567l1.297,-0.776c0.296,-0.188 0.631,-0.428 0.917,-0.626l0.011,0.01c-0.169,0.304 -0.361,0.654 -0.528,0.989l-0.647,1.356l-1.05,-0.953Z" style="fill:#31994f;fill-rule:nonzero;"/><path d="M30.706,91.466l-0.658,-0.513l-2.248,2.882c-0.602,0.772 -1.02,0.757 -1.456,0.416c-0.176,-0.137 -0.302,-0.281 -0.379,-0.404l-0.504,0.482c0.096,0.158 0.303,0.373 0.501,0.528c0.76,0.593 1.584,0.66 2.478,-0.486l2.266,-2.905Z" style="fill:#31994f;fill-rule:nonzero;"/><path d="M28.214,96.446l0.686,0.476l3.136,-4.525l-0.686,-0.475l-3.136,4.524Z" style="fill:#31994f;fill-rule:nonzero;"/><path d="M36.027,94.846l-0.664,-0.391l-1.03,1.749c-0.445,0.756 -0.785,1.375 -1.109,2.053l-0.022,-0.005c0.091,-0.623 0.146,-1.326 0.155,-2.022l0.053,-2.925l-0.781,-0.46l-2.794,4.743l0.663,0.391l1.045,-1.774c0.489,-0.83 0.838,-1.452 1.155,-2.075l0.029,0.008c-0.097,0.661 -0.141,1.388 -0.159,2.07l-0.061,2.954l0.726,0.427l2.794,-4.743Z" style="fill:#31994f;fill-rule:nonzero;"/><path d="M38.649,96.07l-0.929,-0.425l-3.823,4.304l0.779,0.356l1.106,-1.274l1.531,0.701l-0.223,1.679l0.798,0.366l0.761,-5.707Zm-2.483,2.433l1.001,-1.133c0.226,-0.268 0.473,-0.599 0.685,-0.873l0.014,0.006c-0.069,0.34 -0.146,0.733 -0.204,1.102l-0.207,1.488l-1.289,-0.59Z" style="fill:#31994f;fill-rule:nonzero;"/><path d="M43.309,100.519l-1.661,-0.569l-0.217,0.633l0.899,0.308l-0.503,1.471c-0.137,0.021 -0.392,-0.013 -0.732,-0.129c-1.021,-0.349 -1.499,-1.289 -1.049,-2.603c0.452,-1.321 1.452,-1.731 2.521,-1.366c0.476,0.163 0.759,0.359 0.967,0.552l0.399,-0.586c-0.215,-0.218 -0.627,-0.458 -1.138,-0.633c-1.559,-0.533 -3.014,0.095 -3.591,1.783c-0.285,0.831 -0.611,2.719 1.642,3.491c0.62,0.211 1.243,0.257 1.576,0.242l0.887,-2.594Z" style="fill:#31994f;fill-rule:nonzero;"/><path d="M46.813,98.743l-0.995,-0.231l-2.884,4.982l0.834,0.194l0.829,-1.47l1.64,0.38l0.118,1.689l0.855,0.199l-0.397,-5.743Zm-1.945,2.88l0.754,-1.31c0.167,-0.308 0.343,-0.681 0.496,-0.993l0.014,0.003c0.001,0.348 0.004,0.747 0.021,1.121l0.096,1.499l-1.381,-0.32Z" style="fill:#31994f;fill-rule:nonzero;"/><path d="M50.656,102.301c0.577,-0.134 1.068,-0.556 1.16,-1.255c0.059,-0.442 -0.041,-0.84 -0.294,-1.128c-0.302,-0.352 -0.784,-0.546 -1.498,-0.64c-0.492,-0.065 -0.984,-0.079 -1.342,-0.061l-0.711,5.386l0.82,0.108l0.306,-2.311l0.499,0.066c0.578,0.076 0.805,0.389 0.859,1.137c0.047,0.688 0.112,1.183 0.17,1.351l0.856,0.113c-0.08,-0.221 -0.141,-0.803 -0.211,-1.538c-0.052,-0.595 -0.229,-1.01 -0.616,-1.214l0.002,-0.014Zm-1.477,-0.522l0.248,-1.876c0.103,-0.015 0.306,-0.01 0.584,0.026c0.592,0.079 1.06,0.387 0.966,1.093c-0.077,0.585 -0.557,0.921 -1.242,0.831l-0.556,-0.074Z" style="fill:#31994f;fill-rule:nonzero;"/><path d="M52.344,104.07c-0.141,0.624 -0.42,1.469 -0.662,2l0.578,-0.015c0.307,-0.431 0.732,-1.294 0.994,-1.997l-0.91,0.012Z" style="fill:#31994f;fill-rule:nonzero;"/><path d="M57.873,102.248c0.57,-0.231 0.888,-0.701 0.874,-1.226c-0.014,-0.554 -0.324,-1.366 -2,-1.322c-0.489,0.013 -0.977,0.077 -1.285,0.15l0.144,5.417c0.239,0.022 0.606,0.048 1.096,0.035c0.906,-0.024 1.506,-0.205 1.863,-0.567c0.197,-0.193 0.461,-0.538 0.446,-1.121c-0.021,-0.77 -0.558,-1.216 -1.137,-1.345l-0.001,-0.021Zm-1.524,-0.197l-0.044,-1.662c0.1,-0.024 0.265,-0.05 0.538,-0.058c0.518,-0.013 1.055,0.138 1.072,0.8c0.014,0.511 -0.394,0.889 -1.055,0.906l-0.511,0.014Zm0.016,0.618l0.482,-0.012c0.64,-0.017 1.273,0.232 1.293,0.959c0.019,0.726 -0.549,1.022 -1.218,1.04c-0.216,0.006 -0.382,0.003 -0.504,-0.016l-0.053,-1.971Z" style="fill:#31994f;fill-rule:nonzero;"/><path d="M61.589,99.388l-1.015,0.121l-1.019,5.666l0.85,-0.102l0.28,-1.664l1.672,-0.2l0.685,1.549l0.871,-0.104l-2.324,-5.266Zm-0.852,3.37l0.265,-1.488c0.052,-0.347 0.09,-0.758 0.129,-1.103l0.014,-0.002c0.119,0.327 0.258,0.702 0.401,1.047l0.599,1.378l-1.408,0.168Z" style="fill:#31994f;fill-rule:nonzero;"/><path d="M67.295,98.277l-0.751,0.169l0.446,1.98c0.193,0.856 0.37,1.539 0.597,2.255l-0.019,0.012c-0.36,-0.516 -0.801,-1.066 -1.271,-1.58l-1.964,-2.168l-0.885,0.199l1.211,5.37l0.751,-0.169l-0.453,-2.008c-0.212,-0.94 -0.382,-1.632 -0.578,-2.304l0.027,-0.013c0.381,0.548 0.847,1.107 1.301,1.617l1.978,2.195l0.821,-0.185l-1.211,-5.37Z" style="fill:#31994f;fill-rule:nonzero;"/><path d="M72.417,99.256l-1.664,0.56l0.214,0.635l0.9,-0.304l0.496,1.474c-0.095,0.1 -0.318,0.228 -0.659,0.343c-1.023,0.345 -1.973,-0.11 -2.416,-1.426c-0.446,-1.323 0.097,-2.258 1.168,-2.619c0.477,-0.16 0.821,-0.177 1.103,-0.151l-0.041,-0.707c-0.302,-0.043 -0.776,0.018 -1.287,0.19c-1.562,0.526 -2.333,1.91 -1.764,3.601c0.281,0.832 1.171,2.529 3.428,1.769c0.621,-0.209 1.143,-0.552 1.398,-0.767l-0.876,-2.598Z" style="fill:#31994f;fill-rule:nonzero;"/><path d="M74.111,95.715l-0.93,0.423l0.747,5.709l0.779,-0.355l-0.238,-1.67l1.533,-0.698l1.122,1.268l0.799,-0.363l-3.812,-4.314Zm0.211,3.47l-0.2,-1.498c-0.055,-0.347 -0.143,-0.75 -0.211,-1.09l0.013,-0.006c0.212,0.275 0.458,0.59 0.699,0.876l0.989,1.131l-1.29,0.587Z" style="fill:#31994f;fill-rule:nonzero;"/><path d="M80.815,97.569l-1.844,1.052l-2.38,-4.168l-0.724,0.414l2.729,4.781l2.569,-1.467l-0.35,-0.612Z" style="fill:#31994f;fill-rule:nonzero;"/><path d="M80.325,92.028c-1.159,0.804 -1.303,2.288 -0.315,3.712c0.948,1.366 2.335,1.788 3.488,0.988c1.1,-0.763 1.392,-2.148 0.3,-3.721c-0.902,-1.301 -2.273,-1.812 -3.473,-0.979Zm0.366,0.578c0.81,-0.562 1.804,0.062 2.403,0.925c0.668,0.964 0.83,2.069 0.038,2.619c-0.78,0.541 -1.777,-0.011 -2.413,-0.928c-0.615,-0.887 -0.862,-2.038 -0.028,-2.616Z" style="fill:#31994f;fill-rule:nonzero;"/><path d="M86.145,91.223c0.284,-0.519 0.298,-1.166 -0.161,-1.702c-0.291,-0.338 -0.654,-0.529 -1.036,-0.533c-0.464,-0.01 -0.931,0.22 -1.477,0.688c-0.377,0.324 -0.715,0.681 -0.941,0.959l3.538,4.124l0.628,-0.539l-1.518,-1.77l0.382,-0.328c0.443,-0.379 0.828,-0.34 1.42,0.119c0.544,0.424 0.957,0.706 1.12,0.775l0.655,-0.563c-0.218,-0.088 -0.691,-0.43 -1.286,-0.869c-0.478,-0.358 -0.905,-0.503 -1.315,-0.35l-0.009,-0.011Zm-1.375,0.752l-1.232,-1.436c0.058,-0.088 0.197,-0.235 0.41,-0.418c0.453,-0.389 0.995,-0.531 1.458,0.01c0.385,0.447 0.315,1.029 -0.21,1.479l-0.426,0.365Z" style="fill:#31994f;fill-rule:nonzero;"/><path d="M90.895,89.32l-1.522,1.541l-1.3,-1.284l1.354,-1.372l-0.491,-0.486l-1.355,1.373l-1.132,-1.118l1.436,-1.454l-0.497,-0.49l-2.022,2.048l3.918,3.868l2.108,-2.136l-0.497,-0.49Z" style="fill:#31994f;fill-rule:nonzero;"/><path d="M90.315,88.177l1.299,-1.493l-0.45,-0.392l-1.3,1.492l0.451,0.393Z" style="fill:#31994f;fill-rule:nonzero;"/><path d="M94.82,85.651l-4.294,-3.305l-0.43,0.559l-0.227,1.369l0.599,0.225l0.158,-1.032l0.009,-0.011l3.689,2.84l0.496,-0.645Z" style="fill:#31994f;fill-rule:nonzero;"/><path d="M96.803,82.878c0.597,-0.943 0.106,-2.037 -1.444,-3.019c-1.387,-0.877 -2.631,-0.984 -3.243,-0.017c-0.6,0.949 -0.083,2.068 1.413,3.015c1.404,0.889 2.67,0.975 3.274,0.021Zm-0.557,-0.37c-0.308,0.486 -1.154,0.342 -2.291,-0.378c-1.143,-0.723 -1.588,-1.447 -1.295,-1.91c0.339,-0.535 1.184,-0.323 2.273,0.366c0.948,0.601 1.69,1.326 1.313,1.922Z" style="fill:#31994f;fill-rule:nonzero;"/></g><path d="M55.999,18.832c-21.102,0 -38.208,17.106 -38.208,38.208c0,21.101 17.106,38.207 38.208,38.207c21.102,0 38.209,-17.106 38.209,-38.207c0,-21.102 -17.107,-38.208 -38.209,-38.208" style="fill:#3b3892;"/><path d="M55.999,19.641c-20.655,0 -37.4,16.744 -37.4,37.399c0,20.655 16.745,37.399 37.4,37.399c20.655,0 37.4,-16.744 37.4,-37.399c0,-20.655 -16.745,-37.399 -37.4,-37.399" style="fill:url(#_Radial1);"/><path d="M83.5,75.171l-1.245,-3.424c0,0 0.062,-0.249 0.748,-1.183c0.684,-0.933 0.31,-2.988 0.31,-2.988c0,0 -1.494,-3.175 -1.618,-3.611c-0.124,-0.435 -1.121,-2.116 -1.121,-2.116c0,0 0.265,-0.28 0.451,-0.468c0.188,-0.186 0.841,-0.513 1.215,-0.793c0.374,-0.28 0.279,-1.074 -0.187,-1.354c-0.467,-0.28 -1.214,-1.727 -1.447,-2.849c-0.234,-1.12 -1.821,-3.034 -1.821,-3.034c0.794,-0.514 1.167,-2.615 1.307,-3.455c0.14,-0.841 0.794,-2.615 1.027,-2.849c0.233,-0.232 0.747,-1.167 0.654,-1.54c-0.094,-0.374 -1.075,-0.327 -1.681,-0.42c-0.607,-0.094 -1.541,-0.606 -2.848,-1.542c-1.307,-0.933 -2.569,-0.933 -2.569,-0.933c0.421,-0.934 0,-3.875 -0.14,-4.389c-0.139,-0.514 -0.046,-1.867 0.094,-2.381c0.141,-0.514 0.233,-0.84 -0.046,-1.354c-0.281,-0.513 -0.841,-0.327 -0.841,-0.327c0,0 -1.121,0.887 -3.409,0.607c-2.287,-0.28 -4.061,0.094 -4.061,0.094c0.046,-0.514 -0.887,-2.663 -1.915,-3.409c-1.027,-0.748 -1.541,-2.661 -1.494,-3.268c0.047,-0.607 -0.701,-1.494 -1.168,-0.561c-0.466,0.934 -2.241,2.195 -4.015,2.802c-1.774,0.606 -2.568,1.773 -2.568,1.773c-0.373,-1.026 -2.661,-2.007 -3.735,-2.193c-1.074,-0.187 -2.474,-1.635 -2.614,-1.867c-0.141,-0.234 -0.701,-1.494 -1.494,-1.028c-0.795,0.467 -0.561,1.868 -0.655,2.334c-0.093,0.467 -0.28,1.448 -1.073,2.428c-0.794,0.981 -1.634,3.129 -1.634,3.129c-1.214,-0.514 -3.502,-0.327 -4.436,-0.14c-0.933,0.186 -2.614,-0.281 -2.802,-0.328c-0.187,-0.046 -0.887,-0.793 -1.354,-0.139c-0.467,0.653 0,1.073 0,1.073c0,0 1.027,0.981 0.281,2.942c-0.748,1.96 -0.094,4.436 -0.094,4.436c-1.26,0.233 -1.96,0.653 -3.549,2.054c-1.586,1.401 -1.867,0.934 -3.034,1.401c-1.167,0.467 -0.233,1.4 -0.233,1.4c0,0 1.167,0.888 1.541,2.709c0.372,1.82 1.586,3.361 1.586,3.361c-1.12,0.606 -1.867,2.475 -2.053,3.502c-0.187,1.027 -0.468,1.961 -0.841,2.382c-0.373,0.42 -0.7,0.746 -0.748,1.167c-0.046,0.42 0.654,0.559 1.075,0.793c0.419,0.234 0.84,0.669 0.84,0.669c0,0 -2.802,4.856 -3.174,6.973c-0.374,2.117 1.369,3.175 1.369,3.175c0,0 -1.743,3.424 -1.556,4.233c0.187,0.81 0.746,0.623 1.991,0.187c1.246,-0.436 5.167,3.361 5.853,3.984c0.684,0.623 1.618,0.81 1.618,0.81l-2.179,3.424c-0.809,1.431 0.623,1.805 0.623,1.805l40.652,0c1.245,0 0.684,-1.432 0.684,-1.432l-1.867,-3.736c1.68,-0.747 6.349,-4.419 6.786,-4.855c0.436,-0.436 1.182,-0.436 2.054,-0.311c0.871,0.124 0.56,-1.37 0.56,-1.37" style="fill:#31994f;"/><path d="M79.953,70.502c0,0 -10.335,9.711 -23.408,10.397c-13.074,0.684 -26.148,-9.837 -26.148,-9.837l-1.929,4.109c0,0 11.204,10.21 27.08,10.21c15.875,0 26.334,-10.957 26.334,-10.957l-1.929,-3.922Zm0.31,-7.47c-0.498,-0.81 -1.806,-0.81 -1.806,-0.81c-0.559,-0.311 -3.859,1.618 -3.859,1.618l-0.748,2.305c0,0 -1.68,4.42 -3.983,4.855c-2.303,0.436 -10.895,6.225 -12.202,6.848c-1.307,0.623 -1.868,1.308 -1.868,1.308c11.642,0.187 16.746,-4.794 18.178,-6.04c1.432,-1.245 3.486,-2.614 4.109,-3.236c0.622,-0.623 -0.249,-0.809 -0.249,-0.809c0,0 -0.561,-0.312 -0.747,-1.37c-0.186,-1.058 0.747,-1.681 1.121,-1.993c0.373,-0.311 1.37,-0.622 1.744,-0.871c0.372,-0.249 0.808,-0.997 0.31,-1.805Zm-41.648,9.337c-1.058,-0.186 -3.237,-6.473 -2.926,-6.91c0.312,-0.435 0.187,-0.995 -0.498,-1.058c-0.684,-0.062 -3.051,-1.245 -3.3,-1.431c-0.248,-0.187 -1.183,-0.249 -1.369,0.622c-0.188,0.872 0.56,1.743 1.244,1.992c0.686,0.249 0.997,0.871 1.743,1.556c0.748,0.685 -0.124,1.806 -0.124,1.806l-0.747,1.182l7.16,5.728l2.553,-1.93l0.124,-1.12c0,0 -2.803,-0.25 -3.86,-0.437Z" style="fill:#fff;"/><path d="M55.621,83.294c-0.008,0.328 -0.088,0.608 -0.242,0.84c-0.181,0.274 -0.427,0.407 -0.74,0.401c-0.31,-0.008 -0.551,-0.149 -0.719,-0.423c-0.146,-0.236 -0.216,-0.519 -0.208,-0.846c0.008,-0.335 0.086,-0.618 0.237,-0.853c0.179,-0.277 0.428,-0.413 0.748,-0.406c0.314,0.007 0.554,0.151 0.721,0.431c0.142,0.236 0.21,0.522 0.203,0.856Zm0.419,-0.76l0.126,1.929l-0.255,0.015l-0.156,-2.405l0.301,-0.02l1.116,1.88l-0.127,-1.944l0.254,-0.017l0.156,2.406l-0.29,0.019l-1.125,-1.863Zm-2.491,-0.537l-0.175,2.405l-0.254,-0.019l0.174,-2.405l0.255,0.019Zm4.146,2.37l0.446,-2.475l0.31,-0.035l0.958,2.32l-0.285,0.031l-0.286,-0.714l-0.74,0.083l-0.134,0.761l-0.269,0.029Zm-6.198,-2.33l0.028,-0.24l1.541,0.173l-0.028,0.242l-0.64,-0.073l-0.242,2.155l-0.254,-0.029l0.243,-2.155l-0.648,-0.073Zm2.473,1.218c-0.006,0.259 0.041,0.484 0.14,0.676c0.12,0.234 0.298,0.354 0.535,0.359c0.236,0.006 0.419,-0.106 0.55,-0.335c0.105,-0.184 0.161,-0.407 0.167,-0.668c0.005,-0.26 -0.039,-0.485 -0.137,-0.674c-0.119,-0.235 -0.298,-0.354 -0.534,-0.36c-0.236,-0.005 -0.42,0.107 -0.55,0.335c-0.109,0.187 -0.165,0.409 -0.171,0.667Zm-4.505,0.644l1.103,-2.26l0.308,0.051l0.288,2.492l-0.28,-0.046l-0.081,-0.766l-0.734,-0.122l-0.336,0.696l-0.268,-0.045Zm10.414,-0.046l0.959,-0.154l0.04,0.239l-1.213,0.195l-0.382,-2.38l0.252,-0.04l0.344,2.14Zm-11.519,-2.174l-0.419,1.886l-0.249,-0.055l0.522,-2.354l0.293,0.065l0.548,2.118l0.423,-1.903l0.247,0.055l-0.523,2.353l-0.282,-0.063l-0.56,-2.102Zm13.83,-0.482c0.162,-0.038 0.302,-0.023 0.422,0.043c0.152,0.084 0.257,0.251 0.314,0.5c0.053,0.223 0.032,0.412 -0.06,0.566c-0.074,0.124 -0.17,0.2 -0.289,0.227l-0.636,0.145l0.229,0.997l-0.248,0.057l-0.538,-2.35l0.806,-0.185Zm-14.771,2.248l-0.282,-0.077l-0.347,-1.169l-0.428,-0.119l-0.276,0.998l-0.242,-0.067l0.638,-2.324l0.856,0.235c0.215,0.06 0.357,0.158 0.424,0.295c0.061,0.13 0.061,0.306 0,0.531c-0.049,0.174 -0.131,0.306 -0.248,0.395c-0.123,0.091 -0.272,0.128 -0.449,0.111l0.354,1.191Zm11.325,-0.179l-0.407,-1.015l-0.205,1.083l0.612,-0.068Zm4.988,-0.66c0.032,0.117 0.096,0.211 0.19,0.282c0.12,0.091 0.263,0.115 0.429,0.067c0.169,-0.047 0.281,-0.141 0.338,-0.282c0.042,-0.109 0.048,-0.222 0.015,-0.34l-0.471,-1.674l0.244,-0.069l0.47,1.675c0.047,0.166 0.039,0.332 -0.025,0.496c-0.081,0.215 -0.25,0.357 -0.504,0.429c-0.254,0.072 -0.472,0.037 -0.654,-0.103c-0.138,-0.105 -0.231,-0.242 -0.278,-0.411l-0.471,-1.675l0.247,-0.068l0.47,1.673Zm-12.958,0.519l-0.114,-1.087l-0.492,0.986l0.606,0.101Zm-4.615,-2.535l-0.073,0.231l-1.063,-0.343l-0.243,0.754l1.022,0.33l-0.074,0.231l-1.023,-0.33l-0.274,0.848l1.108,0.358l-0.074,0.23l-1.35,-0.436l0.74,-2.294l1.304,0.421Zm18.613,-0.093l0.737,-0.244c0.181,-0.06 0.339,-0.056 0.478,0.012c0.136,0.069 0.235,0.191 0.295,0.37c0.081,0.249 0.057,0.443 -0.075,0.582c0.027,0.005 0.07,0.015 0.126,0.029c0.071,0.019 0.137,0.057 0.198,0.112c0.078,0.074 0.138,0.172 0.179,0.295c0.068,0.207 0.066,0.394 -0.005,0.561c-0.059,0.142 -0.144,0.231 -0.252,0.267l-0.922,0.305l-0.759,-2.289Zm1.527,1.779c0.109,-0.036 0.176,-0.114 0.2,-0.234c0.019,-0.095 0.011,-0.198 -0.024,-0.307c-0.089,-0.275 -0.285,-0.362 -0.589,-0.261l-0.47,0.155l0.28,0.847l0.603,-0.2Zm-3.779,0.023c0.041,-0.01 0.081,-0.052 0.122,-0.131c0.056,-0.105 0.067,-0.227 0.035,-0.367c-0.033,-0.146 -0.103,-0.252 -0.207,-0.317c-0.081,-0.05 -0.159,-0.067 -0.23,-0.05l-0.555,0.128l0.202,0.883l0.633,-0.146Zm4.892,-0.414l0.91,-0.341l0.085,0.227l-1.148,0.429l-0.847,-2.257l0.238,-0.089l0.762,2.031Zm-24.292,-2.084l0.083,-0.228l1.457,0.531l-0.083,0.228l-0.606,-0.222l-0.742,2.039l-0.24,-0.088l0.743,-2.038l-0.612,-0.222Zm4.4,1.864c0.041,-0.152 0.03,-0.276 -0.034,-0.367c-0.047,-0.07 -0.116,-0.116 -0.211,-0.141l-0.613,-0.169l-0.236,0.859l0.617,0.17c0.118,0.032 0.223,0.011 0.309,-0.064c0.077,-0.066 0.133,-0.161 0.168,-0.288Zm-5.859,-2.198l-0.727,1.79l-0.237,-0.096l0.908,-2.234l0.279,0.113l0.185,2.18l0.735,-1.807l0.234,0.096l-0.907,2.234l-0.27,-0.109l-0.2,-2.167Zm26.394,-0.157l0.903,2.236l-0.238,0.094l-0.902,-2.234l0.237,-0.096Zm-2.221,1.925c0.228,-0.075 0.3,-0.239 0.216,-0.492c-0.038,-0.111 -0.1,-0.191 -0.189,-0.237c-0.089,-0.047 -0.188,-0.052 -0.3,-0.015l-0.47,0.155l0.25,0.754l0.493,-0.165Zm3.371,-2.191c-0.2,0.087 -0.301,0.265 -0.304,0.534c-0.001,0.2 0.049,0.415 0.15,0.646c0.102,0.231 0.226,0.414 0.375,0.549c0.197,0.18 0.397,0.226 0.597,0.137c0.151,-0.066 0.242,-0.194 0.27,-0.384c0.024,-0.144 0.011,-0.31 -0.035,-0.499l0.238,-0.105c0.082,0.291 0.088,0.547 0.018,0.769c-0.023,0.078 -0.067,0.156 -0.13,0.235c-0.08,0.097 -0.171,0.168 -0.276,0.214c-0.269,0.117 -0.531,0.073 -0.793,-0.131c-0.208,-0.164 -0.377,-0.392 -0.503,-0.68c-0.131,-0.296 -0.184,-0.577 -0.163,-0.841c0.027,-0.324 0.175,-0.545 0.444,-0.663c0.103,-0.045 0.218,-0.064 0.345,-0.056c0.102,0.006 0.188,0.027 0.262,0.062c0.154,0.073 0.303,0.203 0.448,0.389l-0.242,0.106c-0.248,-0.284 -0.48,-0.379 -0.701,-0.282Zm-27.929,-0.264l-0.963,2.211l-0.234,-0.102l0.963,-2.211l0.234,0.102Zm-2.641,-0.953l0.103,-0.218l1.4,0.669l-0.105,0.218l-0.582,-0.278l-0.935,1.957l-0.229,-0.111l0.934,-1.956l-0.586,-0.281Zm32.771,0.178c-0.109,0.054 -0.182,0.136 -0.22,0.244c-0.038,0.108 -0.03,0.216 0.024,0.324c0.083,0.162 0.244,0.223 0.485,0.184l0.529,-0.087c0.125,-0.02 0.241,0 0.349,0.063c0.107,0.06 0.187,0.146 0.245,0.26c0.103,0.205 0.125,0.401 0.065,0.589c-0.059,0.189 -0.191,0.333 -0.396,0.437c-0.229,0.116 -0.443,0.138 -0.636,0.064c-0.185,-0.073 -0.335,-0.224 -0.453,-0.455l0.212,-0.108c0.07,0.138 0.157,0.237 0.263,0.297c0.144,0.084 0.308,0.08 0.492,-0.013c0.134,-0.068 0.225,-0.159 0.272,-0.271c0.048,-0.119 0.038,-0.246 -0.028,-0.378c-0.078,-0.154 -0.197,-0.222 -0.356,-0.205c-0.113,0.015 -0.303,0.043 -0.571,0.082c-0.168,0.024 -0.306,0.01 -0.413,-0.042c-0.107,-0.052 -0.197,-0.152 -0.273,-0.301c-0.092,-0.184 -0.113,-0.357 -0.06,-0.517c0.054,-0.162 0.174,-0.288 0.359,-0.382c0.184,-0.093 0.345,-0.127 0.484,-0.102c0.229,0.041 0.399,0.171 0.51,0.392l0.017,0.034l-0.222,0.111l-0.015,-0.03c-0.065,-0.131 -0.161,-0.212 -0.286,-0.244c-0.118,-0.031 -0.244,-0.013 -0.377,0.054Zm-35.337,0.943l1.742,-1.815l0.277,0.142l-0.487,2.462l-0.254,-0.131l0.156,-0.753l-0.66,-0.34l-0.533,0.56l-0.241,-0.125Zm36.997,-1.815c-0.19,0.105 -0.276,0.291 -0.254,0.558c0.017,0.2 0.087,0.41 0.208,0.631c0.122,0.221 0.263,0.391 0.423,0.512c0.213,0.162 0.417,0.189 0.608,0.083c0.144,-0.08 0.223,-0.216 0.235,-0.408c0.009,-0.145 -0.018,-0.31 -0.083,-0.493l0.229,-0.126c0.109,0.281 0.137,0.537 0.088,0.764c-0.016,0.079 -0.053,0.161 -0.109,0.246c-0.07,0.103 -0.155,0.182 -0.254,0.237c-0.257,0.142 -0.524,0.122 -0.801,-0.057c-0.225,-0.145 -0.411,-0.355 -0.566,-0.632c-0.156,-0.284 -0.235,-0.557 -0.236,-0.822c-0.003,-0.325 0.124,-0.56 0.381,-0.702c0.099,-0.054 0.212,-0.082 0.338,-0.086c0.101,-0.003 0.19,0.01 0.265,0.038c0.161,0.058 0.322,0.174 0.484,0.345l-0.232,0.129c-0.273,-0.261 -0.513,-0.333 -0.724,-0.217Zm-38.202,1.15l-0.224,-0.123l1.168,-2.11l0.223,0.123l-0.502,0.905l0.134,0.074l1.227,-0.505l0.261,0.147l-1.356,0.554l0.23,1.576l-0.284,-0.157l-0.198,-1.404l-0.131,-0.072l-0.548,0.992Zm2.688,0.328l0.222,-1.07l-0.769,0.789l0.547,0.281Zm37.236,-1.225l0.585,0.972l-0.219,0.132l-1.243,-2.065l0.217,-0.133l0.535,0.887l0.867,-0.523l-0.533,-0.886l0.217,-0.131l1.243,2.066l-0.218,0.13l-0.583,-0.971l-0.868,0.522Zm-40.639,-1.753l-0.985,1.662l-0.218,-0.13l1.228,-2.074l0.259,0.153l-0.139,2.183l0.994,-1.678l0.217,0.13l-1.228,2.074l-0.251,-0.148l0.123,-2.172Zm43.516,-0.13c0.179,0.274 0.274,0.551 0.28,0.829c0.006,0.328 -0.122,0.578 -0.383,0.749c-0.26,0.171 -0.537,0.191 -0.832,0.062c-0.255,-0.112 -0.472,-0.304 -0.652,-0.578c-0.184,-0.28 -0.279,-0.559 -0.289,-0.837c-0.01,-0.331 0.119,-0.583 0.385,-0.759c0.263,-0.171 0.543,-0.191 0.839,-0.056c0.251,0.115 0.468,0.312 0.652,0.59Zm-1.38,0.906c0.142,0.216 0.308,0.375 0.499,0.476c0.232,0.125 0.447,0.123 0.644,-0.007c0.198,-0.13 0.286,-0.326 0.263,-0.588c-0.018,-0.212 -0.099,-0.427 -0.242,-0.644c-0.144,-0.219 -0.308,-0.378 -0.497,-0.479c-0.23,-0.125 -0.445,-0.122 -0.643,0.008c-0.198,0.129 -0.285,0.325 -0.263,0.588c0.017,0.215 0.097,0.431 0.239,0.646Zm-42.392,-1.493l-0.131,0.205l-0.943,-0.6l-0.425,0.67l0.907,0.577l-0.129,0.204l-0.907,-0.577l-0.479,0.753l0.984,0.625l-0.13,0.203l-1.197,-0.759l1.292,-2.036l1.158,0.735Zm45.452,-0.617c0.191,0.266 0.296,0.538 0.314,0.815c0.021,0.328 -0.096,0.583 -0.349,0.766c-0.251,0.181 -0.528,0.213 -0.829,0.097c-0.26,-0.101 -0.485,-0.284 -0.676,-0.549c-0.196,-0.272 -0.304,-0.545 -0.324,-0.823c-0.024,-0.33 0.093,-0.589 0.351,-0.775c0.255,-0.184 0.534,-0.214 0.835,-0.092c0.257,0.103 0.482,0.29 0.678,0.561Zm-1.339,0.965c0.15,0.21 0.323,0.361 0.518,0.454c0.237,0.114 0.451,0.102 0.643,-0.035c0.193,-0.139 0.272,-0.338 0.237,-0.599c-0.027,-0.212 -0.118,-0.422 -0.269,-0.634c-0.152,-0.211 -0.326,-0.364 -0.517,-0.457c-0.236,-0.114 -0.451,-0.103 -0.643,0.036c-0.191,0.138 -0.271,0.338 -0.237,0.599c0.027,0.214 0.116,0.426 0.268,0.636Zm-45.448,-1.195l-1.93,1.604l-0.226,-0.155l0.778,-2.386l0.223,0.152l-0.675,2.012l1.605,-1.378l0.225,0.151Zm47.773,0.652l0.763,-0.604l0.149,0.19l-0.962,0.761l-1.495,-1.89l0.2,-0.159l1.345,1.702Z" style="fill:#ed1c24;"/><path d="M15.283,72.469l0.616,1.894l1.992,0l-1.612,1.171l0.616,1.894l-1.612,-1.17l-1.611,1.17l0.616,-1.894l-1.612,-1.171l1.992,0l0.615,-1.894Z" style="fill:#ed1c24;"/><path d="M97.377,72.469l0.616,1.894l1.992,0l-1.612,1.171l0.616,1.894l-1.612,-1.17l-1.611,1.17l0.615,-1.894l-1.611,-1.171l1.992,0l0.615,-1.894Z" style="fill:#ed1c24;"/><path d="M70.002,25.264c-1.917,0 -3.47,1.554 -3.47,3.47c0,1.915 1.553,3.469 3.47,3.469c1.915,0 3.468,-1.554 3.468,-3.469c0,-1.916 -1.553,-3.47 -3.468,-3.47Zm0,0.643c-1.563,0 -2.827,1.266 -2.827,2.827c0,1.561 1.264,2.827 2.827,2.827c1.561,0 2.825,-1.266 2.825,-2.827c0,-1.561 -1.264,-2.827 -2.825,-2.827Zm0.389,1.185c0.155,0 0.294,0.025 0.416,0.075c0.125,0.05 0.23,0.118 0.32,0.205c0.087,0.086 0.154,0.187 0.202,0.301c0.045,0.114 0.07,0.237 0.07,0.368c0,0.202 -0.043,0.378 -0.128,0.526c-0.085,0.147 -0.225,0.26 -0.418,0.337l0,0.009c0.095,0.026 0.17,0.066 0.232,0.119c0.061,0.053 0.11,0.116 0.15,0.187c0.038,0.073 0.067,0.152 0.083,0.238c0.019,0.088 0.03,0.174 0.037,0.261c0.003,0.055 0.006,0.119 0.009,0.193c0.005,0.074 0.008,0.149 0.018,0.227c0.008,0.077 0.02,0.15 0.038,0.219c0.018,0.069 0.044,0.128 0.079,0.175l-0.757,0c-0.041,-0.109 -0.067,-0.238 -0.076,-0.39c-0.01,-0.151 -0.024,-0.296 -0.044,-0.433c-0.026,-0.18 -0.081,-0.312 -0.164,-0.396c-0.084,-0.083 -0.219,-0.124 -0.409,-0.124l-0.757,0l0,1.343l-0.757,0l0,-3.44l1.856,0Zm-0.269,1.556c0.173,0 0.303,-0.038 0.389,-0.115c0.086,-0.077 0.131,-0.203 0.131,-0.376c0,-0.167 -0.045,-0.289 -0.131,-0.363c-0.086,-0.077 -0.216,-0.114 -0.389,-0.114l-0.83,0l0,0.968l0.83,0Z" style="fill:#231f20;"/><path d="M80.018,59.018c0,-2.431 -1.613,-4.486 -3.826,-5.152c1.677,-0.911 2.817,-2.684 2.817,-4.727c0,-2.972 -2.408,-5.38 -5.381,-5.38c-0.162,0 -0.322,0.007 -0.481,0.021c0.395,-0.748 0.621,-1.6 0.621,-2.505c0,-2.971 -2.409,-5.381 -5.382,-5.381c-1.152,0 -2.219,0.365 -3.094,0.982c0.003,-0.079 0.007,-0.158 0.007,-0.238c0,-2.972 -2.409,-5.381 -5.38,-5.381c-2.175,0 -4.047,1.292 -4.895,3.15c-0.801,-1.965 -2.73,-3.351 -4.984,-3.351c-2.972,0 -5.381,2.41 -5.381,5.381c0,0.152 0.008,0.302 0.02,0.45c-0.877,-0.623 -1.948,-0.993 -3.106,-0.993c-2.972,0 -5.381,2.41 -5.381,5.381c0,1.004 0.275,1.943 0.754,2.747c-0.267,-0.041 -0.54,-0.063 -0.817,-0.063c-2.972,0 -5.381,2.409 -5.381,5.381c0,2.107 1.211,3.929 2.974,4.813c-2.084,0.74 -3.579,2.726 -3.579,5.066c0,2.972 2.409,5.381 5.38,5.381c0.041,0 0.083,-0.003 0.123,-0.003c-0.72,0.916 -1.152,2.069 -1.152,3.324c0,2.973 2.41,5.381 5.381,5.381c0.685,0 1.341,-0.13 1.944,-0.363c3.585,3.123 8.271,5.017 13.401,5.017c3.933,0 7.137,-2.608 10.253,-4.536c0.928,-0.574 2.273,0.273 3.094,-0.438c0.682,0.313 1.44,0.488 2.239,0.488c2.971,0 5.38,-2.408 5.38,-5.38c0,-1.431 -0.559,-2.73 -1.47,-3.694c2.935,-0.043 5.302,-2.433 5.302,-5.378" style="fill:#31994f;"/><path d="M80.018,59.018c0,-2.431 -1.613,-4.486 -3.826,-5.152c1.677,-0.911 2.817,-2.684 2.817,-4.727c0,-2.972 -2.408,-5.38 -5.381,-5.38c-0.162,0 -0.322,0.007 -0.481,0.021c0.395,-0.748 0.621,-1.6 0.621,-2.505c0,-2.971 -2.409,-5.381 -5.382,-5.381c-1.152,0 -2.219,0.365 -3.094,0.982c0.003,-0.079 0.007,-0.158 0.007,-0.238c0,-2.972 -2.409,-5.381 -5.38,-5.381c-2.175,0 -4.047,1.292 -4.895,3.15c-0.801,-1.965 -2.73,-3.351 -4.984,-3.351c-2.972,0 -5.381,2.41 -5.381,5.381c0,0.152 0.008,0.302 0.02,0.45c-0.877,-0.623 -1.948,-0.993 -3.106,-0.993c-2.972,0 -5.381,2.41 -5.381,5.381c0,1.004 0.275,1.943 0.754,2.747c-0.267,-0.041 -0.54,-0.063 -0.817,-0.063c-2.972,0 -5.381,2.409 -5.381,5.381c0,2.107 1.211,3.929 2.974,4.813c-2.084,0.74 -3.579,2.726 -3.579,5.066c0,2.972 2.409,5.381 5.38,5.381c0.041,0 0.083,-0.003 0.123,-0.003c-0.72,0.916 -1.152,2.069 -1.152,3.324c0,2.973 2.41,5.381 5.381,5.381c0.685,0 1.341,-0.13 1.944,-0.363c0.119,0.104 0.243,0.203 0.366,0.305l1.112,-0.471l-0.415,-1.246l-6.146,-6.892l0.333,-0.831l-1.245,-0.331l-0.997,-8.804l0.664,-0.414l-0.415,-0.665l1.828,-8.47l1.382,-0.138l-0.304,-1.607l6.893,-5.064l0.941,0.249l0.139,-0.914l8.553,-1.827l0.498,0.885l0.581,-0.968l8.72,1.578l0.138,1.106l0.859,-0.526l6.725,5.731l-0.331,1.108l1.329,-0.029l2.408,8.304l-0.775,0.886l1.356,0.941l-1.911,8.388l-1.355,0.193l0.691,1.219l-6.725,4.152c0,0 -0.498,-0.997 -2.077,-2.907c-1.577,-1.91 0.831,6.394 0.831,6.394l2.713,1.027c0.129,-0.105 0.258,0.123 0.384,0.014c0.682,0.312 1.44,0.155 2.239,0.155c2.971,0 5.38,-2.408 5.38,-5.38c0,-1.431 -0.559,-2.73 -1.47,-3.694c2.935,-0.043 5.302,-2.433 5.302,-5.378" style="fill:#3b3892;"/><path d="M55.209,47.765c-6.692,0 -12.118,5.425 -12.118,12.118c0,6.693 5.426,12.118 12.118,12.118c6.694,0 12.119,-5.425 12.119,-12.118c0,-6.693 -5.425,-12.118 -12.119,-12.118" style="fill:#3b3892;"/><path d="M44.337,59.883c0,6.005 4.867,10.872 10.872,10.872c6.005,0 10.873,-4.867 10.873,-10.872c0,-6.006 -4.868,-10.873 -10.873,-10.873c-6.005,0 -10.872,4.867 -10.872,10.873Z" style="fill:url(#_Radial2);fill-rule:nonzero;"/><path d="M52.317,49.375c-0.163,-0.078 -0.328,-0.162 -0.496,-0.255l0.886,-0.196c0,0 2.655,1.623 4.771,0l0.885,0.245c0,0 -0.129,0.111 -0.376,0.258c0.399,0.216 1.466,0.848 2.567,1.977c0.411,-0.122 0.828,-0.26 1.251,-0.415l0.444,0.296c0,0 -0.477,0.237 -1.317,0.525c0.813,0.919 1.606,2.114 2.124,3.618c0.611,-0.146 1.228,-0.313 1.848,-0.504l0.444,0.591c0,0 -0.766,0.25 -2.099,0.536c0.285,1.031 0.439,2.193 0.392,3.497l2.837,0l0,0.541l-2.867,0c-0.083,1.072 -0.299,2.235 -0.685,3.493c0.77,0.205 1.546,0.449 2.323,0.737l-0.345,0.442c0,0 -0.781,-0.299 -2.155,-0.632c-0.659,1.946 -1.72,4.11 -3.304,6.51l-0.295,0.05c0,0 1.979,-2.891 3.148,-6.665c-0.756,-0.17 -1.657,-0.34 -2.68,-0.478c-0.925,4.207 -2.828,7.289 -2.828,7.289l-0.346,-0.049c1.359,-2.707 2.189,-5.141 2.644,-7.307c-1.08,-0.127 -2.28,-0.214 -3.577,-0.225l0,8l-0.617,0l0,-7.999c-1.115,0.012 -2.295,0.082 -3.525,0.231c0.461,2.133 1.285,4.524 2.616,7.178l-0.344,0.05c0,0 -1.864,-3.019 -2.8,-7.159c-0.867,0.12 -1.756,0.281 -2.664,0.488c1.174,3.704 3.103,6.522 3.103,6.522l-0.295,-0.049c-1.546,-2.341 -2.593,-4.458 -3.255,-6.367c-0.709,0.174 -1.428,0.377 -2.155,0.612l-0.493,-0.442c0,0 0.91,-0.347 2.464,-0.726c-0.398,-1.261 -0.625,-2.428 -0.717,-3.504l-2.779,0l0,-0.541l2.744,0c-0.062,-1.359 0.094,-2.566 0.39,-3.632c-0.696,-0.171 -1.397,-0.37 -2.102,-0.598l0.345,-0.541c0,0 0.705,0.251 1.94,0.548c0.47,-1.374 1.171,-2.492 1.908,-3.377c-0.443,-0.15 -0.891,-0.321 -1.34,-0.516l0.591,-0.344c0,0 0.4,0.193 1.133,0.422c1.074,-1.163 2.154,-1.85 2.658,-2.135Zm-1.972,10.714l-2.992,0c0.104,1.166 0.343,2.313 0.655,3.395c0.779,-0.178 1.692,-0.356 2.711,-0.503c-0.184,-0.921 -0.318,-1.892 -0.374,-2.892Zm12.743,0l-2.997,0c-0.048,0.982 -0.173,1.937 -0.347,2.846c0.892,0.127 1.801,0.301 2.719,0.528c0.303,-1.078 0.531,-2.217 0.625,-3.374Zm-8.194,2.552l0,-2.552l-3.985,0c0.044,0.881 0.154,1.821 0.343,2.82c1.111,-0.143 2.336,-0.244 3.642,-0.268Zm4.633,-2.552l-4.016,0l0,2.547c1.18,0.001 2.42,0.068 3.698,0.227c0.179,-0.983 0.28,-1.907 0.318,-2.774Zm-11.891,-4.065c-0.296,1.157 -0.382,2.347 -0.321,3.524l3.008,0c-0.025,-0.98 0.028,-1.985 0.187,-2.996c-0.94,-0.13 -1.901,-0.303 -2.874,-0.528Zm3.436,0.601c-0.135,0.884 -0.206,1.858 -0.183,2.923l4.005,0l0,-2.672c-1.214,-0.015 -2.496,-0.091 -3.822,-0.251Zm8.274,0.043c-1.16,0.122 -2.45,0.205 -3.835,0.211l0,2.669l4.032,0c0.016,-1.049 -0.06,-2.008 -0.197,-2.88Zm3.448,-0.523c-0.805,0.162 -1.778,0.327 -2.885,0.46c0.16,0.992 0.219,1.979 0.2,2.943l3.012,0c0.049,-1.138 -0.041,-2.286 -0.327,-3.403Zm-4.748,-3.595c-0.769,0.135 -1.62,0.237 -2.535,0.273l0,3.463c1.183,0.002 2.434,-0.056 3.731,-0.199c-0.284,-1.441 -0.734,-2.618 -1.196,-3.537Zm-5.776,0.11c-0.426,0.893 -0.831,2.009 -1.092,3.353c1.121,0.139 2.37,0.241 3.716,0.267l0,-3.443c-0.833,0.005 -1.713,-0.046 -2.624,-0.177Zm8.213,-0.702c-0.536,0.168 -1.181,0.343 -1.913,0.493c0.594,1.174 0.991,2.373 1.233,3.569c0.918,-0.117 1.858,-0.278 2.812,-0.491c-0.412,-1.261 -1.094,-2.472 -2.132,-3.571Zm-10.768,0.131c-0.914,1.037 -1.527,2.166 -1.907,3.339c0.779,0.176 1.727,0.359 2.811,0.511c0.224,-1.126 0.585,-2.256 1.119,-3.364c-0.661,-0.117 -1.337,-0.276 -2.023,-0.486Zm4.347,-2.111c-0.13,0.129 -0.818,0.838 -1.52,2.145c0.707,0.087 1.495,0.142 2.352,0.138l0,-2.162c-0.264,-0.021 -0.542,-0.06 -0.832,-0.121Zm3.596,-0.375c-0.487,0.236 -1.214,0.486 -2.147,0.512l0,2.134c0.713,-0.027 1.468,-0.094 2.26,-0.216c-0.738,-1.309 -1.425,-1.954 -1.425,-1.954l0.591,-0.147c0.53,0.657 0.982,1.33 1.364,2.013c0.572,-0.104 1.162,-0.236 1.768,-0.402c-0.688,-0.652 -1.513,-1.259 -2.493,-1.808l0.082,-0.132Zm-4.806,0.006l0.003,0.003c-1.094,0.612 -1.994,1.298 -2.728,2.036c0.516,0.143 1.147,0.287 1.878,0.4c0.403,-0.754 0.891,-1.497 1.473,-2.22c-0.203,-0.062 -0.412,-0.135 -0.626,-0.219Z" style="fill:#3b3892;"/><path d="M65.804,69.739c0,0 -0.467,0.468 -0.56,-0.233c-0.094,-0.7 -0.421,-2.194 -0.747,-3.269c-0.327,-1.073 -2.382,-3.081 -3.968,-4.108c-1.587,-1.028 -5.276,-4.109 -6.071,-4.762c-0.794,-0.655 -0.559,-1.728 -0.233,-2.102c0.327,-0.374 1.028,-0.56 1.542,-0.093c0.512,0.467 1.539,0.794 2.053,0.887c0.513,0.094 1.868,0.793 2.242,1.027c0.374,0.234 0.84,0.234 0.84,0c0,-0.234 -0.934,-1.027 -1.354,-1.354c-0.421,-0.327 -0.7,-1.634 -0.98,-2.381c-0.281,-0.747 -0.887,-1.073 -1.402,-1.354c-0.235,-0.129 -0.6,-0.373 -0.952,-0.382c-0.115,-0.283 -0.397,-0.877 -0.765,-0.935c-0.487,-0.075 -0.262,0.373 -0.262,0.373c0,0 0.262,-0.224 0.523,0.113c0.118,0.15 0.21,0.313 0.279,0.45c-0.22,0.008 -0.423,0.035 -0.569,0.078c-0.182,-0.107 -0.359,-0.211 -0.458,-0.266c-0.261,-0.15 -0.558,-0.3 -0.858,-0.375c-0.3,-0.073 -0.187,0.598 0.187,0.486c0.208,-0.062 0.615,0.093 0.934,0.242c-0.273,0.173 -0.577,0.23 -1.887,0.636c-1.354,0.42 -2.709,1.681 -2.754,3.128c-0.047,1.448 0.84,3.783 2.101,4.809c1.26,1.027 6.489,4.81 6.863,5.09c0.374,0.28 1.073,1.307 -0.888,0.701c-1.96,-0.607 -4.155,-0.187 -4.155,-0.187c-8.403,1.12 -12.233,7.517 -13.072,8.824c-0.84,1.307 -0.469,1.588 -0.469,1.588c3.596,-0.935 5.65,0.793 5.65,0.793c3.736,3.175 7.938,2.896 10.692,2.382c2.756,-0.514 5.977,-2.849 8.079,-4.669c2.1,-1.821 4.574,-1.448 4.574,-1.448c-0.512,-1.775 -4.155,-3.689 -4.155,-3.689" style="fill:#3b3892;"/><path d="M54.846,39.939c-2.084,0 -3.773,1.688 -3.773,3.771c0,2.083 1.689,3.772 3.773,3.772c2.082,0 3.772,-1.689 3.772,-3.772c0,-2.083 -1.69,-3.771 -3.772,-3.771" style="fill:#fff;"/><path d="M55.241,41.959c1.082,0.098 1.851,2.653 1.851,2.653c0.541,0.493 0.541,1.098 0.541,1.098l-5.652,-0.015c-0.394,-1.016 1.832,-3.734 1.834,-3.736l1.426,0Zm1.442,2.424c-0.524,-0.442 -0.836,-1.212 -0.836,-1.212c-0.476,-0.066 -0.344,0.901 -0.344,0.901c0.197,-0.049 0.82,0.41 0.82,0.41c0.507,0.197 0.36,-0.099 0.36,-0.099Zm-3.195,-1.146c0,0.245 -0.738,1.081 -0.738,1.081c0.41,0.115 1.36,-0.476 1.36,-0.476c-0.18,-0.803 -0.622,-0.605 -0.622,-0.605Zm1.409,-3.139c-0.484,0 -0.877,0.393 -0.877,0.877c0,0.484 0.393,0.876 0.877,0.876c0.484,0 0.876,-0.392 0.876,-0.876c0,-0.484 -0.392,-0.877 -0.876,-0.877Z" style="fill:#31994f;"/><path d="M65.667,45.183c-1.916,0 -3.47,1.553 -3.47,3.469c0,1.915 1.554,3.469 3.47,3.469c1.915,0 3.469,-1.554 3.469,-3.469c0,-1.916 -1.554,-3.469 -3.469,-3.469" style="fill:#fff;"/><path d="M67.455,48.371c-0.277,0.63 -1.417,0.393 -1.417,0.393c-0.55,-0.079 -1.061,-1.061 -1.061,-1.061l-0.354,0.117l-1.887,-1.415l-0.513,1.415c0.237,-0.433 1.967,1.141 1.967,1.141c0.275,-0.394 1.337,0.825 1.337,0.825c0.669,1.456 1.1,0.513 1.1,0.513c0.04,-0.944 1.259,-1.417 1.259,-1.417c0.119,-0.315 -0.431,-0.511 -0.431,-0.511Zm-2.321,0.04c-0.08,0.275 -0.471,0.55 -0.471,0.55c0.235,-0.04 0.785,0.59 0.785,0.59l0.354,0c-0.039,-0.196 0.236,-0.63 0.236,-0.63c-0.55,-0.04 -0.904,-0.51 -0.904,-0.51Zm-0.394,-0.551c0,0 -0.984,0.826 -0.236,1.021c0,0 0.236,-0.589 0.512,-0.668c0,0 -0.118,-0.314 -0.276,-0.353Zm2.984,-0.576c-0.062,0.654 -0.613,1.166 -1.283,1.166c-0.712,0 -1.287,-0.578 -1.287,-1.289c0,-0.711 0.575,-1.287 1.287,-1.287c0.408,0 0.773,0.19 1.009,0.487c-0.165,-0.179 -0.429,-0.311 -0.429,-0.311c-0.235,-0.156 -0.433,0.434 -0.433,0.434c0.102,0 0.48,0.081 0.737,0.139l-0.108,0.018l0.119,0.197c-0.032,0.19 0.27,0.38 0.388,0.446Zm-1.332,-0.683l-0.394,0.433c-0.47,1.258 0.748,1.14 0.748,1.14l0.472,-0.236c0.354,-1.415 -0.826,-1.337 -0.826,-1.337Zm-0.786,0c0,0 -0.629,0.433 -0.276,0.866c0,0 0.237,0.117 0.393,-0.158c0,0 0.236,-0.59 -0.117,-0.708Zm1.947,-0.091c0.078,0.133 0.133,0.282 0.159,0.44c-0.063,-0.112 -0.147,-0.219 -0.202,-0.285c0.039,0.009 0.062,0.015 0.062,0.015c0.014,-0.057 0.005,-0.115 -0.019,-0.17Z" style="fill:#31994f;"/><path d="M40.106,63.254c-2.499,0 -4.524,2.025 -4.524,4.522c0,2.498 2.025,4.523 4.524,4.523c2.497,0 4.522,-2.025 4.522,-4.523c0,-2.497 -2.025,-4.522 -4.522,-4.522" style="fill:#fff;"/><path d="M38.901,71.216l0,-0.122c0,0 4.252,-0.172 4.718,-0.786l-0.245,-0.197c0,0 -1.474,0.884 -4.473,0.811c0,0 3.047,-0.393 3.933,-0.835l0.048,-0.148c0,0 -3.883,0.958 -4.252,0.811l-0.024,0.688c0,0 3.736,0.369 4.523,-0.418l0.245,-0.295c0,0 -0.885,0.835 -4.473,0.491Zm5.806,-3.283l0.039,-0.314c-0.079,0.314 -5.23,1.179 -5.23,1.179c-0.552,0.315 -2.754,-0.039 -2.754,-0.039c-0.04,1.73 2.91,1.298 2.91,1.298c-0.589,-0.158 -0.47,-0.905 -0.47,-0.905c2.162,-0.393 5.505,-1.219 5.505,-1.219Zm-4.258,1.735l-0.908,0l0.024,-0.344l0.958,-0.197l-0.074,0.541Zm3.958,-1.523l-0.566,0.172c0.245,0.934 -1.13,0.86 -1.13,0.86l0.418,0.147l0.933,-0.049l0.319,-0.122l0.075,-0.468l-0.049,-0.54Zm-1.819,0.442l-0.885,0.221l-0.024,0.492l0.614,0.024l0.024,-0.197l0.271,-0.048l0,-0.123l-0.343,-0.074l0.343,-0.074l0,-0.221Zm-4.214,-3.333c0.053,-0.209 0,-0.506 0,-0.506c0.55,0.196 3.58,-0.669 3.58,-0.669c0.59,0.511 0.865,3.736 0.865,3.736c-0.473,-0.354 -3.775,0.708 -3.775,0.708l-0.197,-0.157l-0.669,-0.118c-1.533,-0.236 -0.589,-1.259 -0.589,-1.259c-0.219,-1.016 0.333,-1.495 0.42,-1.564l0.759,2.39l0.275,-0.157l-0.669,-2.404Zm3.382,-0.231c-1.965,-0.826 -2.831,0.629 -2.831,0.629c-0.077,1.179 0.551,1.927 0.551,1.927c1.455,0.511 2.32,-0.354 2.32,-0.354c0.669,-0.51 -0.04,-2.202 -0.04,-2.202Z" style="fill:#31994f;"/><path d="M35.674,54.571c-2.497,0 -4.522,2.025 -4.522,4.523c0,2.497 2.025,4.522 4.522,4.522c2.499,0 4.523,-2.025 4.523,-4.522c0,-2.498 -2.024,-4.523 -4.523,-4.523" style="fill:#fff;"/><path d="M37.955,58.897l-0.079,-3.106l-1.336,0.039l0.039,2.988c0,0 -0.314,0.786 -0.866,0.905c0,0 -0.471,0.393 -0.354,0.709l-0.236,-0.04l0.04,-3.422l-1.258,-0.078l-0.04,4.915l0.276,0.039l-0.078,0.708l1.218,0.157l1.022,0.905l0.237,-0.196l-1.023,-1.023l-0.078,-1.651l3.894,0.156l0.274,0.197l0.236,-0.314c0,0 -0.984,-1.416 -1.888,-1.888Zm-3.067,-1.573l-0.748,0l0,3.186l0.748,0l0,-3.186Z" style="fill:#31994f;"/><path d="M36.265,44.936c-2.499,0 -4.523,2.026 -4.523,4.524c0,2.496 2.024,4.521 4.523,4.521c2.497,0 4.522,-2.025 4.522,-4.521c0,-2.498 -2.025,-4.524 -4.522,-4.524" style="fill:#fff;"/><path d="M40.345,48.874l0.167,0.31c0,0 -1.298,2.28 -3.186,2.753c0,0 -0.354,-0.59 -2.949,-0.315c0,0 -0.787,-1.298 -2.675,-2.084l0,-0.826l2.203,-2.438c0,0 1.573,1.258 3.815,1.179l2.281,0.236l-0.079,0.393l0.271,0.506l-3.024,2.759l0.04,0.275l0.314,0l2.822,-2.748Zm-0.777,-0.988l-2.911,0l-2.398,2.517l2.516,0.079l2.793,-2.596Zm-5.584,-1.258l-2.124,2.398l1.926,1.378l2.479,-2.558l-2.281,-1.218Z" style="fill:#31994f;"/><path d="M41.74,36.875c-2.499,0 -4.524,2.025 -4.524,4.523c0,2.497 2.025,4.522 4.524,4.522c2.497,0 4.522,-2.025 4.522,-4.522c0,-2.498 -2.025,-4.523 -4.522,-4.523" style="fill:#fff;"/><path d="M42.84,40.611c-0.826,-0.079 -0.668,-0.511 -0.668,-0.511l2.674,-0.04c1.298,-0.747 -0.59,-1.218 -0.59,-1.218c-1.376,-0.119 -1.218,-0.788 -1.218,-0.788l-0.276,0l0.038,0.354l-0.235,0.04l-0.039,-0.394l-0.236,0l0.04,1.731l-1.692,-0.039c0.866,-0.275 0.433,-1.455 0.433,-1.455c-0.944,-1.101 -1.691,-0.237 -1.691,-0.237c-0.67,1.771 0.904,1.81 0.904,1.81c-1.297,1.061 -0.865,2.713 -0.865,2.713c-0.394,1.062 1.102,1.534 1.102,1.534c-0.473,-0.079 -2.44,0.826 -2.44,0.826l4.091,1.533l0.512,-0.747c0.51,-1.769 -0.984,-1.572 -0.984,-1.572c-0.55,-0.237 0.079,-0.944 0.079,-0.944l0,-0.237c-1.456,-0.039 -1.063,-0.55 -1.063,-0.55c0.236,0.078 0.355,-0.472 0.355,-0.472c0.235,-1.73 0.865,-1.337 0.865,-1.337c1.376,1.691 0.158,2.359 0.158,2.359l0.039,0.276c2.439,0.315 0.983,2.517 0.983,2.517c1.376,-0.198 2.084,-1.652 2.084,-1.652c0.276,-1.573 -0.512,-2.438 -0.512,-2.438c-0.392,-1.495 -1.848,-1.062 -1.848,-1.062" style="fill:#31994f;"/><path d="M44.251,45.515c-1.916,0 -3.469,1.553 -3.469,3.469c0,1.916 1.553,3.469 3.469,3.469c1.916,0 3.469,-1.553 3.469,-3.469c0,-1.916 -1.553,-3.469 -3.469,-3.469" style="fill:#fff;"/><path d="M45.042,48.212c0.181,-1.41 -1.293,-1.279 -1.293,-1.279c-0.606,0.623 0.244,0.492 0.244,0.492l0.018,0.262l-0.624,0l0,0.115c0.164,0.033 0.624,0.475 0.624,0.475c-0.066,0.114 -0.018,0.639 -0.018,0.639c-0.295,0.312 -0.622,0.917 -0.622,0.917c-1.114,0.263 -2.393,0.049 -2.393,0.049l-0.131,1.066l0.853,0.508l0.343,-0.05c1.673,0.082 2.738,-1.392 2.738,-1.392c-0.181,-1.164 0.261,-1.802 0.261,-1.802" style="fill:#31994f;"/><path d="M50.164,31.855c-2.498,0 -4.523,2.024 -4.523,4.522c0,2.498 2.025,4.522 4.523,4.522c2.498,0 4.522,-2.024 4.522,-4.522c0,-2.498 -2.024,-4.522 -4.522,-4.522" style="fill:#fff;"/><path d="M52.459,40.539l-4.653,0l0,-0.197l4.653,0l0,0.197Zm0.589,-0.59l-5.518,0l0,-0.197l5.518,0l0,0.197Zm0,-0.393l-6.224,0l0,-0.197l6.224,0l0,0.197Zm0.852,-0.394l-6.376,0l0,-0.196l6.376,0l0,0.196Zm-1.573,-0.394l-5.57,0l0,-0.196l5.57,0l0,0.196Zm1.769,-0.392l-7.739,0l0,-0.197l7.079,0c-0.483,-0.056 -1.233,-0.095 -2.397,-0.076c0,0 1.414,-0.102 1.466,-0.455c0,0 -3.311,-0.278 -3.943,-0.127c-0.151,0 -1.036,-0.151 -1.036,-0.151c0,0 3.008,-0.227 1.743,-1.012c0,0 -1.415,-0.353 -1.389,-0.758l2.122,-2.35l0.582,-0.026l-0.076,0.456c0,0 -1.391,1.213 -1.441,1.845c0,0 2.2,0.404 2.275,0.833c0,0 1.289,1.163 2.83,1.163l0.305,0.228l-0.179,0.657c0,0 -0.026,-0.046 -0.202,-0.102l0,0.072Zm-4.226,-0.393l-3.508,0l0,-0.197l3.508,0l0,0.197Zm1.573,-3.899c-0.531,0 -0.961,0.431 -0.961,0.96c0,0.531 0.43,0.961 0.961,0.961c0.53,0 0.96,-0.43 0.96,-0.961c0,-0.529 -0.43,-0.96 -0.96,-0.96Z" style="fill:#31994f;"/><path d="M59.965,32.186c-2.498,0 -4.524,2.026 -4.524,4.523c0,2.497 2.026,4.522 4.524,4.522c2.497,0 4.522,-2.025 4.522,-4.522c0,-2.497 -2.025,-4.523 -4.522,-4.523" style="fill:#fff;"/><path d="M60.419,34.422l-0.055,-0.051l-0.228,0.247l-0.387,-0.45l0.24,-0.266l-0.125,-0.111l-0.225,0.249l-0.355,-0.413l-0.126,0.108l0.369,0.43l-0.282,0.313l-0.398,-0.467l0.353,-0.399l-0.125,-0.111l-0.337,0.382l-0.325,-0.381l-0.128,0.108l0.341,0.4l-0.27,0.305l-0.371,-0.446l0.261,-0.3l-0.127,-0.109l-0.242,0.279l-0.128,-0.153l-0.128,0.106l0.145,0.175l-0.313,0.36l-0.328,-0.392l-0.127,0.107l0.345,0.412l-0.277,0.319l-0.149,-0.175l-0.126,0.109l0.165,0.193l-0.206,0.238l0.124,0.109l0.191,-0.22l0.369,0.432l-0.254,0.288l-0.387,-0.443l-0.126,0.109l0.402,0.46l-0.194,0.219l0.124,0.111l0.18,-0.204l0.387,0.442l-0.351,0.39c-0.612,-0.829 -0.947,-1.917 -0.112,-3.118c0,0 1.963,-1.167 3.389,0.694c0.176,-0.241 0.46,-0.397 0.781,-0.397c0.536,0 0.968,0.434 0.968,0.968c0,0.535 -0.432,0.968 -0.968,0.968l-0.001,0c0.078,0.23 0.15,0.479 0.217,0.749c0,0 -0.429,1.692 0.775,3.24l0.343,0.43l-0.488,0.344c0,0 -0.657,-1.95 -3.038,-2.265c0,0 -1.094,-0.6 -1.828,-1.564l0.078,0.071l0.345,-0.384l0.361,0.413l-0.331,0.357l0.123,0.112l0.318,-0.343l0.361,0.412l-0.22,0.233l0.122,0.115l0.208,-0.222l0.357,0.408l-0.147,0.155l0.121,0.115l0.137,-0.144l0.196,0.224l0.126,-0.109l-0.207,-0.236l0.24,-0.253l0.339,0.396l-0.082,0.094l0.125,0.108l0.065,-0.075l0.099,0.116l0.126,-0.108l-0.115,-0.135l0.244,-0.281l0.369,0.441l0.127,-0.107l-0.385,-0.461l0.306,-0.352l0.283,0.339l0.128,-0.107l-0.3,-0.36l0.424,-0.487l-0.125,-0.108l0,-0.001l-0.282,-0.33l0.42,-0.442c-0.067,-0.004 -0.131,-0.016 -0.193,-0.033l-0.005,-0.001l-0.331,0.348l-0.36,-0.423l0.217,-0.23l-0.002,-0.002c-0.036,-0.043 -0.068,-0.088 -0.096,-0.137l-0.228,0.242l-0.367,-0.43l0.289,-0.311l0.199,0.231c-0.016,-0.071 -0.025,-0.144 -0.025,-0.22c0,-0.019 0.001,-0.037 0.002,-0.056l0,-0.006l-0.062,-0.072l0.087,-0.094l0.001,-0.002c0.019,-0.077 0.047,-0.151 0.083,-0.22l0.003,-0.006Zm-0.863,3.161l0.333,0.391l0.246,-0.283l-0.319,-0.382l-0.26,0.274Zm-0.823,-0.161l0.357,0.408l0.242,-0.254l-0.355,-0.414l-0.244,0.26Zm1.198,-0.234l0.314,0.376l0.307,-0.354l-0.3,-0.36l-0.321,0.338Zm-0.84,-0.148l0.355,0.416l0.262,-0.276l-0.352,-0.421l-0.265,0.281Zm-0.83,-0.157l0.362,0.413l0.245,-0.261l-0.359,-0.42l-0.248,0.268Zm2.411,-0.476l-0.305,0.322l0.295,0.354l0.399,-0.459l-0.118,0.101l-0.271,-0.318Zm-1.202,0.23l0.353,0.422l0.321,-0.338l-0.353,-0.424l-0.321,0.34Zm-0.847,-0.144l0.359,0.42l0.266,-0.282l-0.357,-0.427l-0.268,0.289Zm-0.834,-0.151l0.362,0.415l0.25,-0.269l-0.362,-0.423l-0.25,0.277Zm2.116,-0.168l0.354,0.425l0.304,-0.32l-0.36,-0.422l-0.298,0.317Zm-0.9,-0.093l0.358,0.428l0.32,-0.341l-0.359,-0.431l-0.319,0.344Zm-0.854,-0.14l0.363,0.425l0.269,-0.29l-0.363,-0.434l-0.269,0.299Zm-0.86,-0.168l0.388,0.444l0.251,-0.279l-0.386,-0.452l-0.253,0.287Zm2.147,-0.159l0.36,0.432l0.297,-0.316l-0.367,-0.429l-0.29,0.313Zm-0.905,-0.097l0.364,0.436l0.32,-0.345l-0.368,-0.442l-0.316,0.351Zm2.731,0.329l0,0l-0.001,0l0.001,0Zm-0.009,0l0.001,0l-0.001,0l0,0Zm-0.008,0l0,0l-0.001,0l0.001,0Zm-0.008,0l0.001,0l-0.002,0l0.001,0Zm-0.008,-0.001l0.001,0l-0.001,0l0,0Zm-0.016,0l0,0l-0.001,0l0.001,0Zm-3.56,-0.484l0.387,0.452l0.271,-0.3l-0.386,-0.461l-0.272,0.309Zm3.26,0.417l0.029,0.033l0.018,-0.016c-0.015,-0.005 -0.03,-0.01 -0.044,-0.016l-0.003,-0.001Zm0.088,0.03l0,0l0,0l0,0Zm-0.006,-0.002l0,0.001l0,-0.001l0,0Zm-0.103,-0.037l0,0l0,0l0,0Zm-0.007,-0.002l0.001,0l-0.001,-0.001l0,0.001Zm-0.02,-0.01l0,0l0,0l0,0Zm-0.007,-0.003l0.001,0l-0.001,0l0,0Zm-0.02,-0.01l0.001,0.001l-0.001,-0.001l0,0Zm-0.006,-0.003l0,0l-0.001,0l0.001,0Zm-0.014,-0.007l0.001,0l-0.001,0l0,0Zm-0.006,-0.003l0,0l-0.001,0l0.001,0Zm-0.007,-0.004l0.001,0l-0.001,0l0,0Zm-0.013,-0.007l0.001,0l-0.001,0l0,0Zm-0.006,-0.004l0.001,0.001l-0.001,-0.001l0,0Zm-0.006,-0.003l0,0l0,0l0,0Zm-0.007,-0.004l0,0l0,0l0,0Zm-0.006,-0.004l0,0l-0.001,0l0.001,0Zm-0.006,-0.004l0,0l-0.001,0l0.001,0Zm-0.013,-0.008l0,0l0,0l0,0Zm-0.006,-0.004l0,0.001l-0.001,-0.001l0.001,0Zm-0.006,-0.004l0,0.001l-0.001,-0.001l0.001,0Zm0.535,-1.608c-0.442,0 -0.802,0.358 -0.802,0.8c0,0.445 0.36,0.803 0.802,0.803c0.442,0 0.802,-0.358 0.802,-0.803c0,-0.442 -0.36,-0.8 -0.802,-0.8Zm-0.547,1.6l0,0l-0.001,-0.001l0.001,0.001Zm-0.007,-0.004l0.001,0l-0.001,-0.001l0,0.001Zm-0.006,-0.005l0.001,0.001l-0.001,-0.001l0,0Zm-0.012,-0.008l0.001,0l-0.001,-0.001l0,0.001Zm-0.005,-0.005l0,0.001l-0.001,-0.001l0.001,0Zm-0.006,-0.004l0,0l0,0l0,0Zm-0.006,-0.005l0,0.001l0,-0.001l0,0Zm-0.006,-0.004l0,0l-0.001,0l0.001,0Zm-0.006,-0.005l0.001,0.001l-0.001,-0.001l0,0Zm-0.011,-0.009l0,0l-0.001,0l0.001,0Zm-0.006,-0.004l0,0l-0.001,-0.001l0.001,0.001Zm-0.006,-0.005l0.001,0l-0.001,0l0,0Zm-0.011,-0.01l0,0l0,0l0,0Zm-0.005,-0.005l0,0.001l-0.001,-0.001l0.001,0Zm-0.006,-0.005l0,0.001l0,-0.001l0,0Zm-0.011,-0.009l0,0l0,-0.001l0,0.001Zm-0.005,-0.005l0,0l0,-0.001l0,0.001Zm-0.016,-0.016l0,0.001l0,-0.001l0,0Zm-0.005,-0.005l0,0l0,0l0,0Zm-0.016,-0.016l0,0.001l0,-0.001l0,0Zm-0.005,-0.005l0,0l0,0l0,0Zm-0.015,-0.016l0,0l0,0l0,0Zm-1.592,-0.485l0.369,0.443l0.289,-0.311l-0.378,-0.443l-0.28,0.311Zm-0.923,-0.116l0.386,0.462l0.316,-0.351l-0.388,-0.466l-0.314,0.355Zm2.393,0.432l0,0.001l0,-0.001l0,0Zm-0.008,-0.015l0,0l-0.001,-0.001l0.001,0.001Zm-0.009,-0.016l0,0l0,0l0,0Zm-0.008,-0.016l0,0l0,0l0,0Zm-0.008,-0.016l0,0l0,0l0,0Zm-0.008,-0.016l0.001,0l-0.001,-0.001l0,0.001Zm-0.003,-0.009l0,0l0,0l0,0Zm-0.004,-0.008l0,0l0,0l0,0Zm-0.003,-0.008l0,0l-0.001,0l0.001,0Zm-0.004,-0.009l0,0.001l0,-0.001l0,0Zm-0.003,-0.008l0,0l0,0l0,0Zm-3.199,-0.437l0.37,0.433l0.274,-0.31l-0.368,-0.44l-0.276,0.317Zm3.195,0.429l0,0l0,0l0,0Zm-0.003,-0.009l0,0l0,0l0,0Zm-0.006,-0.017l0,0.001l0,-0.001l0,0Zm-0.006,-0.017l0,0l0,0l0,0Zm-0.006,-0.017l0.001,0l-0.001,-0.001l0,0.001Zm-0.005,-0.018l0,0.001l0,-0.001l0,0Zm-0.005,-0.017l0,0l0,-0.001l0,0.001Zm-0.002,-0.009l0,0l0,0l0,0Zm-0.003,-0.009l0.001,0l-0.001,0l0,0Zm-0.002,-0.009l0,0l0,0l0,0Zm-0.978,-0.501l0.38,0.445l0.288,-0.311l-0.385,-0.448l-0.283,0.314Zm-0.89,-0.161l0.39,0.467l0.279,-0.309l-0.398,-0.465l-0.271,0.307Zm1.843,0.366l0,0.003l0,-0.003l0,0Zm0.001,-0.005l0,0.002l0,-0.003l0,0.001Zm0,-0.006l0,0.002l0,-0.003l0,0.001Zm-2.747,-0.444l0.369,0.441l0.315,-0.356l-0.371,-0.445l-0.313,0.36Zm2.748,0.439l0,0.001l0,-0.003l0,0.002Zm0,-0.005l0,0.001l0,-0.003l0,0.002Zm0.001,-0.005l0,0l0,-0.004l0,0.004Zm0.001,-0.011l-0.001,0.004l0.001,-0.004l0,0Zm0,-0.005l0,0.002l0,-0.003l0,0.001Zm0.001,-0.006l0,0.002l0,-0.002l0,0Zm0.001,-0.01l0,0.001l0,-0.002l0,0.001Zm0.002,-0.011l0,0.001l0,-0.001l0,0Zm0.001,-0.01l0,0.001l0,-0.001l0,0Zm0.002,-0.01l0,0l0,-0.001l0,0.001Zm0.001,-0.011l0,0.001l0.001,-0.001l-0.001,0Zm0.004,-0.02l0,0l0,-0.001l0,0.001Zm0.002,-0.011l0,0.001l0,-0.001l0,0Zm0.003,-0.01l0,0l0,0l0,0Zm0.095,-0.255l0,0.001l0.001,-0.002l-0.001,0.001Zm0.004,-0.008l0,0l0,0l0,0Zm0.004,-0.007l0,0l0.001,-0.001l-0.001,0.001Zm0.005,-0.008l0,0.001l0,-0.001l0,0Zm0.004,-0.007l0,0l0,0l0,0Zm0.004,-0.007l0,0l0.001,0l-0.001,0Zm0.005,-0.008l0,0l0,0l0,0Zm0.004,-0.007l0,0l0.001,0l-0.001,0Zm0.01,-0.014l0,0l0,0l0,0Zm0.009,-0.015l0,0.001l0,-0.001l0,0Zm0.01,-0.014l0,0.001l0,-0.001l0,0Z" style="fill:#31994f;"/><path d="M68.389,36.709c-2.498,0 -4.523,2.025 -4.523,4.523c0,2.497 2.025,4.522 4.523,4.522c2.497,0 4.522,-2.025 4.522,-4.522c0,-2.498 -2.025,-4.523 -4.522,-4.523" style="fill:#fff;"/><path d="M67.783,43.938c-1.08,0.326 -1.305,-0.917 -1.305,-0.917c0.399,-0.361 0.524,-0.825 0.529,-1.257c-0.177,-0.507 -0.284,-0.975 -0.348,-1.366c-0.27,-0.412 -0.208,-0.891 -0.187,-1.009l-0.482,-1.931l1.123,-0.586c-0.179,0.8 0.292,2.127 0.377,2.357l0.111,-0.014c0.005,0.206 0.022,0.403 0.05,0.591l0.722,1.686c0,0 0.124,0.497 0.436,0.497c0.31,0 0.933,0.187 1.307,-0.373c0.343,-0.514 1.158,0.126 1.193,0.571c0.064,0.2 0.032,0.391 -0.056,0.567c-0.02,0.235 -0.097,0.448 -0.555,0.606c-0.367,0.275 -0.755,0.442 -0.755,0.442c-0.178,-0.118 -0.367,-0.185 -0.552,-0.218c-0.082,0.002 -0.163,0.001 -0.245,-0.003c0.44,-0.203 0.554,-0.852 0.554,-0.852c-2.245,-0.635 -2.668,-3.416 -2.668,-3.416l-0.407,0.146c0,0.487 0.731,2.44 0.731,2.44c0.073,0.093 0.15,0.192 0.228,0.295c0.021,-0.002 0.043,-0.003 0.065,-0.003c0.485,0 0.879,0.394 0.879,0.879c0,0.113 -0.022,0.22 -0.06,0.319c0.088,0.122 0.145,0.202 0.155,0.216c-0.206,0.043 -0.34,0.1 -0.34,0.1c-0.028,0.017 -0.055,0.033 -0.082,0.048c-0.118,0.096 -0.261,0.161 -0.418,0.185Zm-0.132,-1.49c-0.344,0 -0.624,0.279 -0.624,0.622c0,0.343 0.28,0.622 0.624,0.622c0.341,0 0.62,-0.279 0.62,-0.622c0,-0.343 -0.279,-0.622 -0.62,-0.622Zm-0.718,-4.205l-0.51,0.079l0.235,0.707l0.513,-0.118l-0.238,-0.668Z" style="fill:#31994f;"/><path d="M73.698,44.605c-2.499,0 -4.523,2.025 -4.523,4.522c0,2.498 2.024,4.523 4.523,4.523c2.497,0 4.522,-2.025 4.522,-4.523c0,-2.497 -2.025,-4.522 -4.522,-4.522" style="fill:#fff;"/><path d="M75.206,53.486l-4.652,0l0,-0.197l4.652,0l0,0.197Zm0.786,-0.394l-4.652,0l0,-0.196l4.652,0l0,0.196Zm0.589,-0.59l-5.517,0l0,-0.196l5.517,0l0,0.196Zm0.002,-0.393l-6.226,0l0,-0.197l6.226,0l0,0.197Zm0.85,-0.393l-6.375,0l0,-0.197l6.375,0l0,0.197Zm-1.572,-0.393l-5.57,0l0,-0.197l5.57,0l0,0.197Zm1.769,-0.394l-7.739,0l0,-0.196l7.739,0l0,0.196Zm-1.444,-0.393l-6.681,0l0,-0.197l6.681,0l0,0.197Zm1.967,-0.392l-6.681,0l0,-0.198l6.681,0l0,0.198Zm-2.096,-2.656c-0.131,0.263 -1.18,0.721 -1.18,0.721c0.034,-0.262 -0.36,-1.966 -0.36,-1.966c-0.229,-0.328 -0.492,0.163 -0.492,0.163c-0.36,0.591 -1.67,0.296 -1.67,0.296c-0.951,-0.787 -1.246,1.409 -1.246,1.409l-1.901,0.066l-0.033,1.671l6.292,0.066l-0.328,-0.689c0.983,-0.688 0.918,-1.737 0.918,-1.737Zm-1.9,-0.688c-0.36,0.656 -1.017,0.754 -1.017,0.754c-0.818,-0.361 -0.884,0.59 -0.884,0.59l2.228,0.033c0.263,-1.18 -0.327,-1.377 -0.327,-1.377Zm-1.638,-1.835c-0.453,0 -0.82,0.367 -0.82,0.82c0,0.452 0.367,0.818 0.82,0.818c0.451,0 0.819,-0.366 0.819,-0.818c0,-0.453 -0.368,-0.82 -0.819,-0.82Z" style="fill:#31994f;"/><path d="M74.651,54.375c-2.499,0 -4.523,2.024 -4.523,4.522c0,2.498 2.024,4.522 4.523,4.522c2.497,0 4.522,-2.024 4.522,-4.522c0,-2.498 -2.025,-4.522 -4.522,-4.522" style="fill:#fff;"/><path d="M75.607,61.412c-1.156,-0.243 -1.547,0.505 -1.547,0.505c-0.065,0.456 -0.357,0.537 -0.357,0.537l-0.034,-2.182l-0.211,0.05l0.017,3.142l0.243,-0.032l-0.015,-0.767c1.953,0.017 1.904,-1.253 1.904,-1.253Zm2.817,-3.11c-1.189,0.146 -1.677,1.531 -1.677,1.531l-0.114,-1.027l0,4.185l0.163,-0.13l0.033,-2.866c1.481,0.196 1.888,-0.927 1.888,-0.927c0.439,-0.847 -0.293,-0.766 -0.293,-0.766Zm-7.311,1.938c0.099,0.016 0.798,1.319 0.798,1.319c0.538,0.553 1.287,0.13 1.287,0.13c0.098,-1.677 -2.085,-1.449 -2.085,-1.449Zm4.576,-0.619c-1.011,-0.521 -1.043,0.391 -1.043,0.391c0.408,0.928 1.742,0.863 1.742,0.863c0,-0.847 -0.699,-1.254 -0.699,-1.254Zm-2.163,-0.457c-0.21,0 -0.379,0.169 -0.379,0.379c0,0.21 0.169,0.38 0.379,0.38c0.211,0 0.38,-0.17 0.38,-0.38c0,-0.21 -0.169,-0.379 -0.38,-0.379Zm0.984,-0.394c-0.21,0 -0.38,0.171 -0.38,0.38c0,0.21 0.17,0.38 0.38,0.38c0.21,0 0.38,-0.17 0.38,-0.38c0,-0.209 -0.17,-0.38 -0.38,-0.38Zm-1.769,0c-0.21,0 -0.38,0.171 -0.38,0.38c0,0.21 0.17,0.38 0.38,0.38c0.21,0 0.378,-0.17 0.378,-0.38c0,-0.209 -0.168,-0.38 -0.378,-0.38Zm0.785,-1.08c-0.387,0 -0.701,0.314 -0.701,0.701c0,0.388 0.314,0.703 0.701,0.703c0.388,0 0.702,-0.315 0.702,-0.703c0,-0.387 -0.314,-0.701 -0.702,-0.701Zm1.377,0.294c-0.21,0 -0.379,0.169 -0.379,0.379c0,0.21 0.169,0.38 0.379,0.38c0.211,0 0.38,-0.17 0.38,-0.38c0,-0.21 -0.169,-0.379 -0.38,-0.379Zm-2.752,0c-0.21,0 -0.38,0.169 -0.38,0.379c0,0.21 0.17,0.38 0.38,0.38c0.21,0 0.378,-0.17 0.378,-0.38c0,-0.21 -0.168,-0.379 -0.378,-0.379Zm4.522,-0.25c-0.196,0 -0.356,0.158 -0.356,0.354c0,0.197 0.16,0.356 0.356,0.356c0.196,0 0.355,-0.159 0.355,-0.356c0,-0.196 -0.159,-0.354 -0.355,-0.354Zm0.921,-0.37c-0.196,0 -0.356,0.16 -0.356,0.356c0,0.197 0.16,0.356 0.356,0.356c0.196,0 0.355,-0.159 0.355,-0.356c0,-0.196 -0.159,-0.356 -0.355,-0.356Zm-1.659,0c-0.196,0 -0.355,0.16 -0.355,0.356c0,0.197 0.159,0.356 0.355,0.356c0.197,0 0.356,-0.159 0.356,-0.356c0,-0.196 -0.159,-0.356 -0.356,-0.356Zm-1.425,-0.167c-0.21,0 -0.38,0.17 -0.38,0.38c0,0.21 0.17,0.38 0.38,0.38c0.21,0 0.38,-0.17 0.38,-0.38c0,-0.21 -0.17,-0.38 -0.38,-0.38Zm-1.967,-0.196c-0.21,0 -0.378,0.17 -0.378,0.379c0,0.21 0.168,0.38 0.378,0.38c0.21,0 0.38,-0.17 0.38,-0.38c0,-0.209 -0.17,-0.379 -0.38,-0.379Zm4.13,-0.649c-0.364,0 -0.659,0.295 -0.659,0.658c0,0.364 0.295,0.658 0.659,0.658c0.363,0 0.658,-0.294 0.658,-0.658c0,-0.363 -0.295,-0.658 -0.658,-0.658Zm-3.147,0.354c-0.263,0 -0.477,0.214 -0.477,0.477c0,0.265 0.214,0.478 0.477,0.478c0.265,0 0.477,-0.213 0.477,-0.478c0,-0.263 -0.212,-0.477 -0.477,-0.477Zm4.435,-0.077c-0.196,0 -0.355,0.158 -0.355,0.355c0,0.196 0.159,0.355 0.355,0.355c0.197,0 0.356,-0.159 0.356,-0.355c0,-0.197 -0.159,-0.355 -0.356,-0.355Zm-2.577,0c-0.196,0 -0.356,0.158 -0.356,0.355c0,0.196 0.16,0.355 0.356,0.355c0.196,0 0.355,-0.159 0.355,-0.355c0,-0.197 -0.159,-0.355 -0.355,-0.355Zm2.21,-0.738c-0.196,0 -0.356,0.16 -0.356,0.356c0,0.196 0.16,0.356 0.356,0.356c0.196,0 0.355,-0.16 0.355,-0.356c0,-0.196 -0.159,-0.356 -0.355,-0.356Zm-1.842,-0.183c-0.197,0 -0.356,0.158 -0.356,0.355c0,0.196 0.159,0.356 0.356,0.356c0.196,0 0.355,-0.16 0.355,-0.356c0,-0.197 -0.159,-0.355 -0.355,-0.355Zm0.921,-0.276c-0.246,0 -0.447,0.2 -0.447,0.447c0,0.247 0.201,0.447 0.447,0.447c0.247,0 0.446,-0.2 0.446,-0.447c0,-0.247 -0.199,-0.447 -0.446,-0.447Z" style="fill:#31994f;"/><path d="M70.748,63.389c-2.497,0 -4.522,2.025 -4.522,4.523c0,2.497 2.025,4.522 4.522,4.522c2.499,0 4.524,-2.025 4.524,-4.522c0,-2.498 -2.025,-4.523 -4.524,-4.523" style="fill:#fff;"/><path d="M74.21,68.716l0.414,0l-0.02,1.949l-0.178,0l-0.216,-1.949Zm-0.433,-2.755c-0.472,2.4 0.236,2.362 0.236,2.362l0.019,2.105c-1.298,-0.492 -2.183,-0.924 -2.183,-0.924c-1.221,-0.473 -0.708,-1.929 -0.708,-1.929c1.317,-0.69 0.51,-1.476 0.51,-1.476l-0.02,-0.847c-0.038,-0.472 0.433,-0.256 0.433,-0.256c-0.039,0.492 0.198,0.925 0.198,0.925l0.196,0.059c-0.236,-0.885 0.158,-0.866 0.158,-0.866c-0.04,-0.571 0.413,-0.354 0.413,-0.354c-0.059,0.728 0.119,1.988 0.119,1.988c0,-0.276 0.354,-0.786 0.354,-0.787l0.275,0Zm1.023,3.129l0.02,0.945l0.217,0.04l0.197,-0.966l-0.434,-0.019Zm-7.619,-1.363l0.413,0l-0.217,1.948l-0.177,0l-0.019,-1.948Zm-0.807,0.393l0.156,1.516l0.217,-0.04l0.256,-1.495l-0.629,0.019Zm1.929,-3.149c0.001,0.002 0.354,0.512 0.354,0.787c0,0 0.177,-1.26 0.118,-1.987c0,0 0.453,-0.217 0.414,0.354c0,0 0.393,-0.02 0.157,0.866l0.197,-0.059c0,0 0.235,-0.434 0.196,-0.926c0,0 0.473,-0.216 0.433,0.257l-0.019,0.846c0,0 -0.807,0.787 0.512,1.476c0,0 0.512,1.456 -0.709,1.929c0,0 -0.886,0.433 -2.186,0.925l0.021,-2.106c0,0 0.708,0.04 0.236,-2.362l0.276,0Zm3.722,2.8c-0.206,0.316 -0.597,0.478 -0.745,0.531c0.198,0.045 0.784,0.63 0.784,0.63c0.099,0.256 0.374,0.138 0.374,0.138c0.257,-1.417 -0.413,-1.299 -0.413,-1.299Zm-2.247,-0.99c0,0 -0.668,-0.117 -0.413,1.3c0,0 0.275,0.118 0.374,-0.138c0,0 0.586,-0.586 0.784,-0.631c-0.147,-0.053 -0.538,-0.215 -0.745,-0.531Z" style="fill:#31994f;"/><path d="M61.448,67.78c-1.737,-3.818 -6.859,-4.865 -13.234,-0.703c-1.757,1.147 -3.444,2.36 -4.561,3.514c-2.933,3.035 -3.86,5.482 -3.86,5.482c2.323,-1.305 4.719,0.139 4.983,0.263c0.266,0.124 4.727,2.954 10.468,2.083c5.739,-0.87 7.941,-6.821 6.204,-10.639" style="fill:#fff;"/><path d="M56.838,71.989c-0.016,-0.589 -1.152,-4.225 -1.152,-4.225c1.339,-0.715 4.765,0.464 4.279,2.65c-0.485,2.185 -3.127,1.575 -3.127,1.575m2.799,-5.226c-2.632,-2.927 -6.658,-1.054 -6.658,-1.054c0,0 1.294,2.52 1.467,5.364c0.171,2.845 1.708,5.69 1.708,5.69c0.827,-0.268 2.417,-1.487 2.417,-1.487c-0.406,-0.482 -0.684,-2.181 -0.684,-2.181c3.459,0.793 4.381,-3.405 1.75,-6.332m-6.532,3.756c-0.222,-2.794 -1.494,-4.528 -1.494,-4.528c-1.067,0.518 -2.564,1.491 -2.564,1.491c0,0 1.265,1.441 1.394,4.482c0.129,3.042 1.518,5.461 1.518,5.461c0.493,0.036 2.981,-0.232 2.981,-0.232c-0.299,-0.14 -1.615,-3.881 -1.835,-6.674m-4.933,-2.67c-1.163,0.571 -1.927,1.376 -1.927,1.376c0.214,0.682 0.855,4.595 0.855,4.595c-0.463,-0.873 -2.576,-2.733 -2.576,-2.733c-2.652,1.838 -3.833,3.638 -3.833,3.638c0,0 3.085,-0.327 4.938,1c1.852,1.326 4.853,1.542 4.853,1.542c0,0 -0.471,-1.117 -1,-4.443c-0.529,-3.326 -1.31,-4.975 -1.31,-4.975" style="fill:#ed1c24;"/><path d="M56.68,54.08c-0.201,-0.12 -0.121,-0.401 -0.121,-0.401c0,0 0.32,-0.16 0.481,-0.04c0.16,0.12 0.24,0.522 0.24,0.522c0,0 -0.401,0.039 -0.6,-0.081m1.5,0.485c-0.154,-0.217 -0.256,-0.329 -0.256,-0.329c-0.125,-0.124 -0.21,-0.387 -0.335,-0.542c-0.124,-0.156 -0.391,-0.374 -0.796,-0.437c-0.405,-0.062 -0.733,-0.008 -0.92,-0.102c-0.187,-0.094 -0.418,-0.333 -0.512,-0.084c-0.092,0.249 0.351,0.364 0.351,0.364c0,0 0.228,0.063 0.445,0.624c0.217,0.559 0.698,0.506 1.009,0.506c0.136,0 0.367,-0.021 0.508,0.051c0.187,0.097 0.303,0.194 0.391,0.247c0.156,0.094 0.272,-0.08 0.115,-0.298" style="fill:#fff;"/></g></g><defs><radialGradient id="_Radial1" cx="0" cy="0" r="1" gradientUnits="userSpaceOnUse" gradientTransform="matrix(45.4905,0,0,43.1389,55.9998,57.039)"><stop offset="0" style="stop-color:#fff;stop-opacity:1"/><stop offset="0.48" style="stop-color:#e2f5fe;stop-opacity:1"/><stop offset="1" style="stop-color:#92d9fb;stop-opacity:1"/></radialGradient><radialGradient id="_Radial2" cx="0" cy="0" r="1" gradientUnits="userSpaceOnUse" gradientTransform="matrix(10.8727,0,0,10.8727,55.2096,59.8823)"><stop offset="0" style="stop-color:#fff;stop-opacity:1"/><stop offset="1" style="stop-color:#90cef1;stop-opacity:1"/></radialGradient></defs></svg>