<svg xmlns="http://www.w3.org/2000/svg" width="180" height="74.65" viewBox="0 0 180 74.65">
  <defs>
    <style>
      .cls-1 {
        fill: #f6921e;
      }

      .cls-2 {
        fill: #58595b;
      }
    </style>
  </defs>
  <g id="zsc_logo" data-name="zsc logo" transform="translate(0 -0.006)">
    <path id="brand_shape" data-name="brand shape" class="cls-1" d="M79.338,35.739c.006.018,1.963-14.84,1.986-15.1.024-.249.274-.941.461-.971s.158.454.158.454q-.97,7.9-1.955,15.752c-.216-.04-.433-.085-.65-.13m112.1.015c-.007.023-2.131-14.92-2.154-15.192-.027-.247-.279-.938-.469-.964s-.157.452-.157.452q1.041,7.915,2.1,15.754l.684-.051ZM81.676,19.813a2.325,2.325,0,0,0-.139.226,1.758,1.758,0,0,0-.1.22,1.329,1.329,0,0,0-.075.218m.954,15.669c.019,0,.041,0,.119.012.02,0,.041.006.123.012,2.073-17,2.056-17.06,2.09-17.424,0-.011-.145-.906-.668-.772-.005,0-.011.007-.046.028-.178.151-.446.386-.862,1.688Q82.045,27.858,81,35.955c.436.064.872.126,1.307.191m4.709.44c.034,0,.068,0,.1.006s.07.008.1.012a.892.892,0,0,0,.105.005c.034,0,.07.008.1.011,2.047-19.167,2.034-19.22,2.053-19.611,0-.012-.309-1.022-1.214-.887-.006,0-.014,0-.079.027-.3.17-.76.431-1.4,1.882q-1.047,9.184-2.116,18.29c.78.09,1.566.177,2.348.265m7.308.561c.046,0,.1.006.146.008l.149.012c.05,0,.1.006.148.011s.1.006.151.009c1.85-21.5,1.836-21.546,1.839-21.987a1.812,1.812,0,0,0-1.815-1.037c-.008,0-.019,0-.112.03-.441.179-1.1.46-1.99,2.07q-1,10.319-2.019,20.57,1.751.16,3.5.314m9.976.6c.064,0,.127.006.192.007l.193.013c.065,0,.127.006.192.006s.128.007.192.011c1.446-23.769,1.434-23.793,1.418-24.282a2.544,2.544,0,0,0-2.4-1.238c-.011,0-.022.006-.035.006l-.111.018a4.289,4.289,0,0,0-2.555,2.22q-.857,11.476-1.735,22.917,2.323.166,4.651.322m12.333.5c.074,0,.148,0,.224.006s.15.007.229.008l.225.005c.077,0,.151,0,.227,0,.844-25.553.836-25.56.8-26.092a3.391,3.391,0,0,0-2.893-1.486.208.208,0,0,1-.044,0,1.224,1.224,0,0,1-.131.015,4.575,4.575,0,0,0-3.01,2.265q-.615,12.512-1.241,25,2.807.142,5.614.267m13.931.259h.488c.08,0,.163,0,.242,0h.246c.1-26.449.1-26.449.044-27A4.161,4.161,0,0,0,128.4,9.761a.228.228,0,0,0-.046,0l-.142,0a4.514,4.514,0,0,0-3.271,2.183q-.279,13.2-.563,26.391,3.094.093,6.189.154m14.4-.065c.078,0,.16,0,.24,0s.159,0,.241,0,.162,0,.241-.006.162,0,.239,0c-.663-26.175-.656-26.181-.729-26.723a4.715,4.715,0,0,0-3.222-1.951.228.228,0,0,1-.05,0h-.139a4.07,4.07,0,0,0-3.262,1.979q.1,13.353.205,26.71,3.116.015,6.238.008m13.6-.378c.074,0,.147-.007.222-.008s.139-.007.214-.008.143-.005.214-.009l.217-.01c-1.339-24.811-1.322-24.832-1.411-25.338a4.784,4.784,0,0,0-2.986-2.052h-.046a.908.908,0,0,0-.131-.016,3.391,3.391,0,0,0-2.987,1.706q.467,12.936.949,25.856,2.876-.046,5.744-.118m11.734-.57.178-.011.18-.01.176-.012.175-.012c-1.83-22.706-1.807-22.746-1.9-23.2a4.6,4.6,0,0,0-2.542-2.026.343.343,0,0,1-.036-.006c-.013,0-.027-.007-.114-.02a2.548,2.548,0,0,0-2.494,1.429q.764,12.047,1.551,24.057c1.607-.062,3.218-.124,4.823-.193m9.184-.621.131-.008.132-.01.131-.012c.045,0,.084-.007.127-.008-2.1-20.291-2.082-20.349-2.161-20.755a4.079,4.079,0,0,0-1.975-1.9.646.646,0,0,1-.114-.028c-.452-.037-1.136-.1-1.882,1.2q.965,10.9,1.951,21.733,1.83-.1,3.661-.2m6.413-.541.169-.014.169-.018c-2.17-17.952-2.153-18.014-2.224-18.365A3.712,3.712,0,0,0,182.64,16.2a.743.743,0,0,1-.081-.03c-.289-.041-.776-.118-1.248,1.014q1.055,9.689,2.128,19.308c.82-.056,1.64-.107,2.459-.166m3.771-.389.042-.006c.011,0,.03,0,.125-.014-2.248-17.131-2.232-17.2-2.93-17.791l-.046-.027c-.161-.041-.432-.111-.656.879q1.056,8.567,2.13,17.058c.445-.03.889-.066,1.333-.1" transform="translate(-45.387 -9.731)"/>
    <g id="logo_label_ar" data-name="logo label ar" transform="translate(0 38.734)">
      <g id="Group_1" data-name="Group 1" transform="translate(0 0.003)">
        <path id="Path_2" data-name="Path 2" class="cls-2" d="M14.373,94.579V96.74h2.056V94.579ZM11.364,96.74h2.052V94.579H11.364Z" transform="translate(-8.989 -93.898)"/>
        <path id="Path_3" data-name="Path 3" class="cls-2" d="M33.5,130.993H35.56v-2.161H33.5Zm3.012-2.161v2.161H38.57v-2.161Z" transform="translate(-20.845 -112.24)"/>
        <rect id="Rectangle_1" data-name="Rectangle 1" class="cls-2" width="2.052" height="2.141" transform="translate(33.772)"/>
        <path id="Path_4" data-name="Path 4" class="cls-2" d="M41.721,102.133a7.964,7.964,0,0,0-6.689,3.211l.12-1.309.012-.131.022-.232H33.3v6.745H26.543c-1.664,0-2.608-1.038-2.654-2.918v-5.059H22.031v5.608a2.1,2.1,0,0,1-2.279,2.369H16.938a2.1,2.1,0,0,1-2.282-2.3l-.021-6.769v-.458l-.279.09-.155.046-1.186.372-.232.074v.836c-.218-.01-.433-.014-.638-.014-3.793,0-5.832,1.606-5.891,4.645a4.14,4.14,0,0,0,1.175,3.024,3.615,3.615,0,0,0,2.546,1.122,3.975,3.975,0,0,0,3.092-1.4,3.381,3.381,0,0,0,3.568,2.524h3.427a3.377,3.377,0,0,0,3.244-1.755,4.251,4.251,0,0,0,3.437,1.755H42.49c3.119,0,5.213-1.943,5.213-4.838C47.7,103.77,44.6,102.133,41.721,102.133ZM10.171,109.7c-1.913,0-2.4-1.977-2.354-2.769.2-3.65,3.869-3.122,5.3-3.166.047,2.417.263,5.935-2.942,5.935Zm32.319.72H34.835c.206-1.812,1.3-6.562,7.083-6.562,1.247,0,3.819.859,3.819,3.513a3.12,3.12,0,0,1-3.247,3.048Z" transform="translate(-6.251 -97.277)"/>
      </g>
      <g id="Group_2" data-name="Group 2" transform="translate(126.013 0.683)">
        <path id="Path_5" data-name="Path 5" class="cls-2" d="M282.633,96.74h2.054V94.579h-2.054Zm3.012,0h2.049V94.579h-2.049Zm10.266-2.161V96.74h2.051V94.579Z" transform="translate(-280.261 -94.579)"/>
        <path id="Path_6" data-name="Path 6" class="cls-2" d="M301.308,116.029h2.053v-2.161h-2.053Zm-3.012,0h2.054v-2.161H298.3Zm4.485-7.982a2.1,2.1,0,0,1-2.281,2.369h-2.681c-1.666,0-2.611-1.038-2.658-2.918v-5.057h-1.852v5.606a2.1,2.1,0,0,1-2.282,2.369h-2.814a2.1,2.1,0,0,1-2.279-2.3l-.025-6.769v-.458l-.279.09-.155.046-1.187.372-.232.074v.836c-.218-.01-.432-.014-.636-.014-3.794,0-5.832,1.606-5.891,4.645a4.134,4.134,0,0,0,1.175,3.024,3.615,3.615,0,0,0,2.544,1.122,3.982,3.982,0,0,0,3.094-1.406,3.378,3.378,0,0,0,3.564,2.526h3.429a3.381,3.381,0,0,0,3.245-1.754,4.251,4.251,0,0,0,3.437,1.754h2.792c3.456,0,3.828-3.032,3.828-4.336v-6.129h-1.853Zm-19.611.692a2.294,2.294,0,0,1-1.728.624,1.765,1.765,0,0,1-1.337-.549,2.8,2.8,0,0,1-.681-1.869c.135-2.5,1.964-2.851,3.92-2.851l.481,0h.235v.015c.03,1.625.071,3.645-.89,4.626Zm43.394-7.506c-3.252,0-4.95,2.809-4.95,5.584v1.208a2.127,2.127,0,0,1-2.276,2.391H314.9l0-5.093a3.523,3.523,0,0,0-1-2.687,4.047,4.047,0,0,0-2.857-.923c-2.282-.02-3.763,1.092-4.046,3.1l-.02.139-.035.245h1.844l.038-.291c.143-.964.764-1.4,2.22-1.424,1.38.038,1.8.43,1.951,1.815v5.119h-6.269v1.793h12.889a3.477,3.477,0,0,0,3.179-1.61,4.578,4.578,0,0,0,3.763,1.807c3.252,0,4.95-2.809,4.95-5.586S329.816,101.232,326.564,101.232Zm0,9.425c-2.237,0-3.051-2.3-3.051-3.84s.814-3.839,3.051-3.839c2.064,0,3.007,1.991,3.007,3.839C329.572,108.587,328.783,110.657,326.564,110.657Z" transform="translate(-277.527 -97.957)"/>
      </g>
      <g id="Group_4" data-name="Group 4" transform="translate(45.751)">
        <g id="Group_3" data-name="Group 3">
          <path id="Path_7" data-name="Path 7" class="cls-2" d="M126.591,128.832v2.161h2.055v-2.161Zm-3.011,2.161h2.053v-2.161H123.58Z" transform="translate(-114.829 -112.237)"/>
          <path id="Path_8" data-name="Path 8" class="cls-2" d="M119.745,97.57v6.311a2.1,2.1,0,0,1-2.279,2.369h-8.607a2.084,2.084,0,0,1-2.259-2.369V93.108h-1.858v10.6c0,1.248.388,4.333,3.831,4.336h9.2c2.432,0,3.828-1.579,3.828-4.336V97.57Z" transform="translate(-104.741 -93.108)"/>
          <path id="Path_9" data-name="Path 9" class="cls-2" d="M157.167,93.108v10.773a2.093,2.093,0,0,1-2.276,2.369h-2.749c-1.651-.02-2.563-.956-2.652-2.771V98.273h-1.858v9.441A2.485,2.485,0,0,1,145,110.031a4.456,4.456,0,0,1-2.014-.529l-.209-.117-.367-.2.079.65c.066.549.133,1.1.133,1.1l.008.055.01.1.131.087a5.327,5.327,0,0,0,2.359.65h.041a4.221,4.221,0,0,0,4.317-4.095v-.8a4.2,4.2,0,0,0,2.85,1.109h2.86c3.442,0,3.826-3.084,3.83-4.332v-10.6Z" transform="translate(-124.912 -93.108)"/>
        </g>
        <path id="Path_10" data-name="Path 10" class="cls-2" d="M183.551,108.04H185.4V93.111h-1.854Zm19.693,3.823H205.3V109.7h-2.056Zm3.012,0h2.054V109.7h-2.054Zm1.473-7.982a2.1,2.1,0,0,1-2.282,2.369h-7.874v-5.094a3.521,3.521,0,0,0-.993-2.687,4.049,4.049,0,0,0-2.858-.923c-2.281-.02-3.757,1.092-4.044,3.1l-.023.135-.043.251h1.858l.038-.291c.139-.964.758-1.4,2.215-1.424,1.384.038,1.8.43,1.951,1.812v5.123H189.41v1.793h16.347c2.432,0,3.826-1.579,3.826-4.336V97.57h-1.853Zm4.353,4.159h1.854V93.111h-1.854ZM219.8,97.906l0,9.784a2.508,2.508,0,0,1-2.637,2.342,4.4,4.4,0,0,1-2.01-.529l-.206-.117-.372-.207.051.423.029.232.136,1.151.061.137.085.053a5.435,5.435,0,0,0,2.356.646h.041a4.213,4.213,0,0,0,4.317-4.092V97.57H219.8Zm-.129-4.8v2.141h2.053V93.108Z" transform="translate(-146.942 -93.108)"/>
      </g>
    </g>
    <g id="logo_label_en" data-name="logo label en" transform="translate(0.084 63.252)">
      <path id="Path_11" data-name="Path 11" class="cls-2" d="M6.431,155.92l6.416-7.768H6.634v-1.695h8.7v1.413l-6.415,7.767h6.415v1.695h-8.9Z" transform="translate(-6.431 -146.194)"/>
      <path id="Path_12" data-name="Path 12" class="cls-2" d="M35.152,146.291h1.77l4.785,10.953H39.688l-1.1-2.627H33.443l-1.119,2.627H30.367Zm2.734,6.634-1.88-4.35-1.863,4.35Z" transform="translate(-19.248 -146.104)"/>
      <path id="Path_13" data-name="Path 13" class="cls-2" d="M56.7,153.044l-4.32-6.586h2.252l3.045,4.817,3.076-4.817h2.191L58.622,153v4.334H56.7Z" transform="translate(-31.035 -146.194)"/>
      <path id="Path_14" data-name="Path 14" class="cls-2" d="M81.247,146.458h8.061v1.708h-6.15V151h5.453V152.7H83.158v2.922h6.229v1.709H81.247Z" transform="translate(-46.493 -146.194)"/>
      <path id="Path_15" data-name="Path 15" class="cls-2" d="M106.164,146.458h4.054c3.418,0,5.779,2.345,5.779,5.407v.03a5.444,5.444,0,0,1-5.779,5.438h-4.054Zm4.054,9.136a3.545,3.545,0,0,0,3.775-3.666V151.9a3.569,3.569,0,0,0-3.775-3.7h-2.144v7.4Z" transform="translate(-59.836 -146.194)"/>
      <path id="Path_16" data-name="Path 16" class="cls-2" d="M145.764,155.569l1.15-1.369a5,5,0,0,0,3.432,1.414c1.181,0,1.927-.543,1.927-1.368v-.03c0-.776-.435-1.195-2.455-1.663-2.315-.557-3.619-1.242-3.619-3.246v-.031c0-1.862,1.553-3.154,3.713-3.154a6.019,6.019,0,0,1,3.945,1.368l-1.025,1.444a4.945,4.945,0,0,0-2.951-1.118c-1.119,0-1.771.574-1.771,1.289v.032c0,.836.5,1.211,2.579,1.708,2.3.557,3.495,1.382,3.495,3.183v.033c0,2.035-1.6,3.245-3.884,3.245A6.7,6.7,0,0,1,145.764,155.569Z" transform="translate(-81.041 -146.013)"/>
      <path id="Path_17" data-name="Path 17" class="cls-2" d="M170.75,146.458h4.286c2.533,0,4.134,1.446,4.134,3.636v.032c0,2.439-1.958,3.713-4.35,3.713h-2.159v3.5H170.75Zm4.131,5.656c1.445,0,2.346-.807,2.346-1.943v-.03c0-1.273-.917-1.943-2.346-1.943H172.66v3.916Z" transform="translate(-94.42 -146.194)"/>
      <path id="Path_18" data-name="Path 18" class="cls-2" d="M194.06,151.624v-.033a5.686,5.686,0,1,1,11.372-.03v.03a5.686,5.686,0,1,1-11.372.033Zm9.368,0v-.033a3.726,3.726,0,0,0-3.7-3.868,3.675,3.675,0,0,0-3.666,3.837v.03a3.726,3.726,0,0,0,3.7,3.868A3.672,3.672,0,0,0,203.427,151.624Z" transform="translate(-106.902 -145.89)"/>
      <path id="Path_19" data-name="Path 19" class="cls-2" d="M225.533,146.45h4.847a4.384,4.384,0,0,1,3.137,1.088,3.291,3.291,0,0,1,.9,2.346v.032a3.262,3.262,0,0,1-2.594,3.292l2.936,4.117h-2.253l-2.672-3.79h-2.392v3.79h-1.911Zm4.707,5.388c1.367,0,2.236-.714,2.236-1.816v-.032c0-1.165-.838-1.8-2.252-1.8h-2.781v3.651Z" transform="translate(-123.755 -146.186)"/>
      <path id="Path_20" data-name="Path 20" class="cls-2" d="M253.4,148.229h-3.449v-1.771h8.826v1.771h-3.448v9.1H253.4Z" transform="translate(-136.83 -146.194)"/>
      <path id="Path_21" data-name="Path 21" class="cls-2" d="M273.235,155.569l1.148-1.369a5.009,5.009,0,0,0,3.433,1.414c1.181,0,1.927-.543,1.927-1.368v-.03c0-.776-.435-1.195-2.455-1.663-2.313-.557-3.619-1.242-3.619-3.246v-.031c0-1.862,1.553-3.154,3.712-3.154a6.018,6.018,0,0,1,3.946,1.368l-1.025,1.444a4.94,4.94,0,0,0-2.951-1.118c-1.119,0-1.771.574-1.771,1.289v.032c0,.836.5,1.211,2.579,1.708,2.3.557,3.5,1.382,3.5,3.183v.033c0,2.035-1.6,3.245-3.884,3.245A6.693,6.693,0,0,1,273.235,155.569Z" transform="translate(-149.299 -146.013)"/>
      <path id="Path_22" data-name="Path 22" class="cls-2" d="M309.218,151.712v-.033a5.5,5.5,0,0,1,5.608-5.621,5.671,5.671,0,0,1,4.257,1.692l-1.227,1.414a4.326,4.326,0,0,0-3.045-1.351,3.65,3.65,0,0,0-3.588,3.837v.03a3.677,3.677,0,0,0,3.588,3.868,4.266,4.266,0,0,0,3.123-1.412l1.226,1.242a5.6,5.6,0,0,1-4.41,1.925,5.469,5.469,0,0,1-5.532-5.592Z" transform="translate(-168.566 -145.978)"/>
      <path id="Path_23" data-name="Path 23" class="cls-2" d="M337.181,146.458h1.913v10.875h-1.911Z" transform="translate(-183.541 -146.194)"/>
      <path id="Path_24" data-name="Path 24" class="cls-2" d="M351.332,148.229h-3.449v-1.771h8.826v1.771H353.26v9.1h-1.926Z" transform="translate(-189.271 -146.194)"/>
      <path id="Path_25" data-name="Path 25" class="cls-2" d="M375.146,153.044l-4.32-6.586h2.252l3.044,4.817,3.076-4.817h2.191L377.07,153v4.334h-1.925Z" transform="translate(-201.557 -146.194)"/>
    </g>
  </g>
</svg>
